<svg width="8" height="13" xmlns="http://www.w3.org/2000/svg">
 <!-- Generator: Sketch 39.1 (31720) - http://www.bohemiancoding.com/sketch -->
 <title>Combined Shape</title>
 <desc>Created with Sketch.</desc>

 <g>
  <title>background</title>
  <rect fill="none" id="canvas_background" height="15" width="10" y="-1" x="-1"/>
 </g>
 <g>
  <title>Layer 1</title>
  <g fill-rule="evenodd" fill="none" id="3.-Gmail-Symbols">
   <g fill="#6C6C6C" id="RIght-Side-Expando---white">
    <g id="RS-expando---white-icons--Copy">
     <g id="Details-Copy-4">
      <path id="Combined-Shape" d="m0,5.49539c0,-0.2736 0.21575,-0.49539 0.49539,-0.49539l2.00922,0c0.2736,0 0.49539,0.21575 0.49539,0.49539l0,2.00922c0,0.2736 -0.21575,0.49539 -0.49539,0.49539l-2.00922,0c-0.2736,0 -0.49539,-0.21575 -0.49539,-0.49539l0,-2.00922zm0,-5c0,-0.2736 0.21575,-0.49539 0.49539,-0.49539l2.00922,0c0.2736,0 0.49539,0.21575 0.49539,0.49539l0,2.00922c0,0.2736 -0.21575,0.49539 -0.49539,0.49539l-2.00922,0c-0.2736,0 -0.49539,-0.21575 -0.49539,-0.49539l0,-2.00922zm5,0c0,-0.2736 0.21575,-0.49539 0.49539,-0.49539l2.00922,0c0.2736,0 0.49539,0.21575 0.49539,0.49539l0,2.00922c0,0.2736 -0.21575,0.49539 -0.49539,0.49539l-2.00922,0c-0.2736,0 -0.49539,-0.21575 -0.49539,-0.49539l0,-2.00922zm0,5c0,-0.2736 0.21575,-0.49539 0.49539,-0.49539l2.00922,0c0.2736,0 0.49539,0.21575 0.49539,0.49539l0,2.00922c0,0.2736 -0.21575,0.49539 -0.49539,0.49539l-2.00922,0c-0.2736,0 -0.49539,-0.21575 -0.49539,-0.49539l0,-2.00922zm0,5c0,-0.2736 0.21575,-0.49539 0.49539,-0.49539l2.00922,0c0.2736,0 0.49539,0.21575 0.49539,0.49539l0,2.00922c0,0.2736 -0.21575,0.49539 -0.49539,0.49539l-2.00922,0c-0.2736,0 -0.49539,-0.21575 -0.49539,-0.49539l0,-2.00922zm-5,0c0,-0.2736 0.21575,-0.49539 0.49539,-0.49539l2.00922,0c0.2736,0 0.49539,0.21575 0.49539,0.49539l0,2.00922c0,0.2736 -0.21575,0.49539 -0.49539,0.49539l-2.00922,0c-0.2736,0 -0.49539,-0.21575 -0.49539,-0.49539l0,-2.00922zm5,5c0,-0.2736 0.21575,-0.49539 0.49539,-0.49539l2.00922,0c0.2736,0 0.49539,0.21575 0.49539,0.49539l0,2.00922c0,0.2736 -0.21575,0.49539 -0.49539,0.49539l-2.00922,0c-0.2736,0 -0.49539,-0.21575 -0.49539,-0.49539l0,-2.00922zm-5,0c0,-0.2736 0.21575,-0.49539 0.49539,-0.49539l2.00922,0c0.2736,0 0.49539,0.21575 0.49539,0.49539l0,2.00922c0,0.2736 -0.21575,0.49539 -0.49539,0.49539l-2.00922,0c-0.2736,0 -0.49539,-0.21575 -0.49539,-0.49539l0,-2.00922z"/>
     </g>
    </g>
   </g>
  </g>
 </g>
</svg>