<?xml version="1.0" encoding="UTF-8"?>
<svg width="344px" height="344px" viewBox="0 0 344 344" version="1.1" xmlns="http://www.w3.org/2000/svg" xmlns:xlink="http://www.w3.org/1999/xlink">
    <!-- Generator: Sketch 46.2 (44496) - http://www.bohemiancoding.com/sketch -->
    <title>Combined-Shape</title>
    <desc>Created with Sketch.</desc>
    <defs></defs>
    <g id="Page-1" stroke="none" stroke-width="1" fill="none" fill-rule="evenodd">
        <g id="TOTALLY-GOOD-FINAL-LOGO---white" fill-rule="nonzero" fill="#000000">
            <path d="M301.506241,343.171669 L41.6681274,343.171669 C18.6547119,343.171669 0,324.516957 0,301.506241 L0,41.6681274 C0,18.6547119 18.6547119,0 41.6681274,0 L301.506241,0 C324.519656,0 343.174368,18.6547119 343.174368,41.6681274 L343.174368,301.506241 C343.171669,324.516957 324.516957,343.171669 301.506241,343.171669 Z M297.581915,151 C300.020503,151 302,149.025978 302,146.590811 L302,46.4118855 C302,43.9740221 300.020503,42 297.581915,42 L46.4180853,42 C43.9767961,42 42,43.9767189 42,46.4118855 L42,146.588115 C42,149.025978 43.9794967,151 46.4180853,151 L297.581915,151 Z M297.602435,302 C300.029698,302 302,300.023281 302,297.590811 L302,197.411885 C302,194.974022 300.029698,193 297.602435,193 L223.397565,193 C220.967614,193 219,194.976719 219,197.411885 L219,297.588115 C219,300.025978 220.970302,302 223.397565,302 L297.602435,302 Z M173.546606,302 C176.004684,302 178,300.023281 178,297.590811 L178,197.411885 C178,194.974022 176.004684,193 173.546606,193 L46.4533936,193 C43.9925942,193 42,194.976719 42,197.411885 L42,297.588115 C42,300.025978 43.9953163,302 46.4533936,302 L173.546606,302 Z" id="Combined-Shape"></path>
        </g>
    </g>
</svg>