<?xml version="1.0" encoding="UTF-8" standalone="no"?>
<svg width="17px" height="19px" viewBox="0 0 17 19" version="1.1" xmlns="http://www.w3.org/2000/svg" xmlns:xlink="http://www.w3.org/1999/xlink">
    <!-- Generator: Sketch 39.1 (31720) - http://www.bohemiancoding.com/sketch -->
    <title>ic_magic_black_24px</title>
    <desc>Created with Sketch.</desc>
    <defs></defs>
    <g id="1.-Gmail" stroke="none" stroke-width="1" fill="none" fill-rule="evenodd">
        <g id="Box-View-2a" transform="translate(-974.000000, -449.000000)">
            <g id="RS-expando---white-icons--Copy-2" transform="translate(951.000000, 210.000000)">
                <g id="Details-Copy-5" transform="translate(0.000000, 213.000000)">
                    <g id="ic_magic_black_24px" transform="translate(20.000000, 23.000000)">
                        <g id="Magic">
                            <polygon id="Shape" points="0 0 24 0 24 24 0 24"></polygon>
                            <g id="Group" transform="translate(3.000000, 3.000000)" fill="#C074DC">
                                <path d="M11.3275862,14 L11.9482759,15.5517241 L13.5,16.1724138 C13.5,16.1724138 13.5,16.1724138 13.5,16.3275862 L11.9482759,16.9482759 L11.3275862,18.5 C11.3275862,18.5 11.3275862,18.5 11.1724138,18.5 L10.5517241,16.9482759 L9,16.3275862 C9,16.3275862 9,16.3275862 9,16.1724138 L10.5517241,15.5517241 L11.3275862,14 C11.1724138,14 11.3275862,14 11.3275862,14 Z M3.43251232,9.09901478 L4.35665025,11.4753695 L6.73300493,12.3995074 L6.73300493,12.5315271 L4.35665025,13.455665 L3.43251232,15.7 L3.30049261,15.7 L2.37635468,13.3236453 L0,12.3995074 L0,12.2674877 L2.37635468,11.3433498 L3.30049261,9.09901478 C3.43251232,8.96699507 3.43251232,8.96699507 3.43251232,9.09901478 Z M11.702849,0 L13.0535613,3.80655271 C13.0535613,3.80655271 13.0535613,3.80655271 13.1763533,3.92934473 L16.982906,5.28005698 C17.105698,5.28005698 17.105698,5.402849 16.982906,5.52564103 L13.1763533,6.87635328 C13.1763533,6.87635328 13.1763533,6.87635328 13.0535613,6.9991453 L11.702849,10.682906 C11.702849,10.805698 11.580057,10.805698 11.457265,10.682906 L10.1065527,6.9991453 C10.1065527,6.9991453 10.1065527,6.9991453 9.98376068,6.87635328 L6.17720798,5.52564103 C6.05441595,5.52564103 6.05441595,5.402849 6.17720798,5.28005698 L9.98376068,3.92934473 C9.98376068,3.92934473 9.98376068,3.92934473 10.1065527,3.80655271 L11.457265,0 L11.702849,0 Z" id="Combined-Shape"></path>
                            </g>
                        </g>
                    </g>
                </g>
            </g>
        </g>
    </g>
</svg>