<svg width="32" height="33" viewBox="0 0 32 33" fill="none" xmlns="http://www.w3.org/2000/svg">
<path fill-rule="evenodd" clip-rule="evenodd" d="M0 15.347C0.034781 12.4135 0.404573 10.0316 1.37996 7.76497C2.46287 5.24852 4.22665 3.38303 6.60712 2.09858C8.56725 1.04087 10.6601 0.418283 12.8606 0.141687C15.1055 -0.140509 17.3149 -0.0233116 19.4772 0.694257C21.2781 1.29196 22.872 2.26288 24.3132 3.49067C26.5275 5.37714 28.4144 7.5566 29.9119 10.0691C30.8789 11.6916 31.6219 13.4086 31.9005 15.2991C32.1663 17.1018 31.8883 18.836 31.201 20.5111C30.5211 22.1683 29.5444 23.6386 28.3977 24.9931C26.6412 27.068 24.6714 28.9087 22.412 30.4159C20.7969 31.4933 19.0808 32.3401 17.1693 32.7423C15.3662 33.1216 13.6107 32.945 11.8885 32.3269C10.0202 31.6564 8.37617 30.5986 6.86985 29.3104C5.13081 27.8233 3.62633 26.1272 2.4394 24.154C1.25862 22.1909 0.513037 20.0674 0.222822 17.7891C0.099462 16.8209 0.0440728 15.8438 0 15.347Z" fill="#131313" stroke="white"/>
</svg>
