<svg width="65" height="65" viewBox="0 0 65 65" version="1.1" xmlns="http://www.w3.org/2000/svg" xmlns:xlink="http://www.w3.org/1999/xlink">
<g id="Canvas" fill="none">
<g id="_brand_assets_images_logos_zzapier-logomark">
<g id="Vector">
<path d="M 40.625 32.5141C 40.6234 34.9292 40.1819 37.2413 39.377 39.3755C 37.243 40.181 34.93 40.6235 32.514 40.6252L 32.486 40.6252C 30.0713 40.6235 27.7589 40.1824 25.625 39.3772C 24.8199 37.2435 24.3766 34.9305 24.375 32.5148L 24.375 32.4867C 24.3766 30.0716 24.8189 27.7596 25.6227 25.6254C 27.7576 24.8204 30.0703 24.3774 32.486 24.3758L 32.514 24.3758C 34.93 24.3774 37.243 24.8204 39.3768 25.6254C 40.1812 27.7597 40.6232 30.0718 40.6248 32.4868L 40.6248 32.5149L 40.6248 32.5146L 40.625 32.5141ZM 64.5482 27.0834L 45.577 27.0834L 58.9914 13.669C 57.9382 12.1899 56.7635 10.8013 55.4794 9.51746L 55.4788 9.51616C 54.196 8.23359 52.8087 7.06008 51.3312 6.00779L 37.9168 19.4222L 37.9168 0.452075C 36.1324 0.15225 34.3263 0.00103934 32.5169 0L 32.4824 0C 30.6733 0.000966411 28.8674 0.152068 27.0832 0.45175L 27.0832 19.4231L 13.6688 6.00876C 12.1906 7.06142 10.8026 8.23549 9.51941 9.51876L 9.51454 9.52315C 8.23309 10.8054 7.06062 12.1921 6.00925 13.6688L 19.4236 27.0832L 0.45175 27.0832C 0.45175 27.0832 0.00065 30.6468 0 32.488L 0 32.5115C 0.000676978 34.3228 0.15178 36.131 0.45175 37.9173L 19.423 37.9173L 6.0086 51.3316C 8.11813 54.2934 10.7071 56.8824 13.6688 58.9919L 27.0832 45.5778L 27.0832 64.5482C 28.8657 64.8476 30.6699 64.9987 32.4772 65L 32.5237 65C 34.3309 64.9986 36.1349 64.8475 37.9171 64.5482L 37.9171 45.5769L 51.3315 58.9912C 52.8093 57.9389 54.1968 56.7653 55.4798 55.4825L 55.483 55.4801C 56.7655 54.1971 57.9391 52.8096 58.9914 51.332L 45.577 37.9173L 64.5482 37.9173C 64.8475 36.135 64.9986 34.3311 65 32.5239L 65 32.4772C 64.9986 30.6701 64.8475 28.8661 64.5482 27.0839L 64.5482 27.0834Z" fill="rgb(117, 117, 117)"/>
</g>
</g>
</g>
</svg>
