<svg xmlns="http://www.w3.org/2000/svg" width="32" height="24" fill="none" viewBox="0 0 32 24"><g clip-path="url(#a)"><mask id="b" width="32" height="24" x="0" y="0" maskUnits="userSpaceOnUse" style="mask-type:luminance"><path fill="#fff" d="M32 0H0v24h32z"/></mask><g mask="url(#b)"><path fill="#fff" d="M32 0H0v24h32z"/><path fill="#FFD018" fill-rule="evenodd" d="M8 0h16v24H8z" clip-rule="evenodd"/><path fill="#2E42A5" fill-rule="evenodd" d="M0 0h8v24H0z" clip-rule="evenodd"/><path fill="#E31D1C" fill-rule="evenodd" d="M24 0h8v24h-8z" clip-rule="evenodd"/><path fill="#BF9937" fill-rule="evenodd" d="M16.3 19.425c.22-.062.41-.446.41-.446s.145.113.374.228c.229.114.466-.228.466-.228s.325 0 .468-.383c.142-.384-.284-.548-.284-.548s.499-.524 1.341-.524c.843 0 1.499 0 2.049-.234.55-.233 1.084-.635 1.284-1.468s-.433-1.358-.433-1.358.14.044.433-.195c.292-.24-.18-1.01-.433-1.01-.254 0-.284.143-.284.143s-.157-.136-.371-.599c-.215-.462.214-.868.214-.868s.236.135.44-.088c.206-.222-.106-.563-.106-.563s.988-.336.845-1.6c-.142-1.264-1.445-1.193-1.445-1.193s.04-.21-.144-.33-.32.12-.32.12c-.144-.333.278-.79.616-1.154.105-.113.202-.218.27-.307.293-.377.11-.843-.959-1.352s-1.651.175-1.737.417c-.086.243.246.392.246.392-.27.238-.793.328-1.15.164s-.198-.662-.125-.798l.031-.054c.101-.17.312-.523.094-.868-.244-.386-.668-.386-1.006-.167-.29.188-.701.288-.814.313-.113-.025-.524-.125-.814-.313-.338-.22-.761-.22-1.006.167-.218.345-.007.699.094.868l.03.054c.074.136.232.634-.124.798s-.88.074-1.15-.164c0 0 .332-.15.246-.392s-.669-.926-1.737-.417-1.252.975-.96 1.352c.07.09.166.194.27.307.339.365.761.82.617 1.154 0 0-.136-.24-.32-.12-.183.12-.144.33-.144.33S9.97 8.42 9.827 9.684s.845 1.6.845 1.6-.312.34-.107.563.44.088.44.088.43.406.215.868c-.214.463-.37.599-.37.599s-.031-.143-.285-.143c-.253 0-.725.77-.433 1.01.293.24.433.195.433.195s-.632.525-.433 1.358c.2.833.735 1.235 1.284 1.468.55.233 1.206.233 2.049.233.842 0 1.341.525 1.341.525s-.426.164-.284.548c.143.383.467.383.467.383s.238.342.467.228.373-.228.373-.228.19.384.412.446v.009q.015 0 .029-.002l.03.002z" clip-rule="evenodd"/><path fill="#805440" d="m12.11 15.996.106-.254q1.811.777 4.123.777t4.013-.776l.111.252q-1.757.8-4.124.8-2.364 0-4.229-.799"/></g></g><defs><clipPath id="a"><path fill="#fff" d="M0 0h32v24H0z"/></clipPath></defs></svg>