<svg xmlns="http://www.w3.org/2000/svg" width="32" height="24" fill="none" viewBox="0 0 32 24"><g clip-path="url(#a)"><mask id="b" width="32" height="24" x="0" y="0" maskUnits="userSpaceOnUse" style="mask-type:luminance"><path fill="#fff" d="M32 0H0v24h32z"/></mask><g mask="url(#b)"><path fill="#fff" d="M32 0H0v24h32z"/><path fill="#67BD38" fill-rule="evenodd" d="M22 0h10v24H22z" clip-rule="evenodd"/><path fill="#D51700" fill-rule="evenodd" d="M10 0h12v24H10z" clip-rule="evenodd"/><path fill="#272727" fill-rule="evenodd" d="M0 0h10v24H0z" clip-rule="evenodd"/><path fill="#F7FCFF" fill-rule="evenodd" d="m12.488 7.977.346.217q-.865 1.456-1.164 2.668a1 1 0 0 1 .192.24q.234.406.395.79l-.46.196a6 6 0 0 0-.256-.533q-.07.591.01 1.117a1 1 0 0 1 .236.056q.441.161.81.351l-.227.446q-.315-.163-.69-.303l.005.015q.32.969.982 1.783a1 1 0 0 1 .209-.02q.47 0 .88.053l-.06.496a6 6 0 0 0-.592-.046q.594.596 1.397 1.098l-.211.356a8 8 0 0 1-1.693-1.39 6 6 0 0 0-.229.096l-.035.015q.609.638 1.44 1.175l-.215.353a8.2 8.2 0 0 1-1.645-1.377c-.218.056-.4.055-.615-.008l.133-.48q.048.014.096.02a6.2 6.2 0 0 1-.956-1.841 4 4 0 0 1-.097-.359 1.1 1.1 0 0 1-.45-.2l.29-.407q.037.028.076.05-.077-.92.213-1.984a1.1 1.1 0 0 1-.241-.473l.424-.11q.345-.974.971-2.058l.349.212q-.684 1.185-1.014 2.212.091.083.23.185.332-1.21 1.166-2.611m-1.29 3.141a8 8 0 0 0-.255-.191q-.231.953-.137 1.762.11 0 .256-.008l.08-.005a4.9 4.9 0 0 1 .056-1.558m-.114 2.06.157-.009q.027.103.06.202.322.973.96 1.796l-.083.036a4 4 0 0 1-.194.08 5.8 5.8 0 0 1-1.028-1.894 4 4 0 0 1-.058-.202q.087-.003.186-.01m8.416-5.2-.347.217q.865 1.456 1.164 2.668a1 1 0 0 0-.192.24 7 7 0 0 0-.394.79l.46.196q.108-.259.255-.533a4.2 4.2 0 0 1-.01 1.117 1 1 0 0 0-.236.056 7 7 0 0 0-.81.351l.227.446q.315-.163.69-.303l-.005.015a5.6 5.6 0 0 1-.982 1.783 1 1 0 0 0-.209-.02q-.468 0-.88.053l.06.496q.28-.037.593-.046a8 8 0 0 1-1.398 1.098l.211.356a8 8 0 0 0 1.694-1.39q.088.034.228.096l.035.015a8 8 0 0 1-1.44 1.175l.215.353a8.2 8.2 0 0 0 1.645-1.377c.218.056.401.055.616-.008l-.134-.48a1 1 0 0 1-.095.02 6.2 6.2 0 0 0 .955-1.841q.057-.177.097-.359c.166-.031.306-.094.45-.2l-.29-.407a1 1 0 0 1-.075.05q.078-.92-.214-1.984c.122-.14.196-.285.242-.473l-.425-.11a12.4 12.4 0 0 0-.97-2.058l-.35.212q.684 1.185 1.015 2.212a3 3 0 0 1-.23.185q-.333-1.21-1.167-2.611m1.289 3.141a8 8 0 0 1 .255-.191q.231.953.137 1.762-.11 0-.256-.008l-.08-.005a4.9 4.9 0 0 0-.056-1.558m.115 2.06-.157-.009a6 6 0 0 1-1.02 1.998l.082.036q.106.045.194.08a5.8 5.8 0 0 0 1.028-1.894q.032-.1.059-.202z" clip-rule="evenodd"/><path fill="#F7FCFF" fill-rule="evenodd" d="m14.253 16.266-1.116 1.104s.962.59 2.777.59c1.814 0 2.87-.59 2.87-.59l-.848-1.104s-1.156.448-1.975.448-1.708-.448-1.708-.448" clip-rule="evenodd"/><path stroke="#C00001" stroke-width="0.5" d="M14.276 16.969s.946.223 1.67.223c.725 0 1.67-.223 1.67-.223"/><path fill="#F7FCFF" fill-rule="evenodd" d="M16.892 9.46c0 .437-.4.791-.892.791-.493 0-.892-.354-.892-.791s.4-.792.892-.792c.493 0 .892.354.892.792m-.892.79h-.96l-.265.203h-.051V8.869h-.487v1.585h-.426v.27h.426v2.858c-.057.456-.19.714-.378.804l-.993.477h5.978l-.43-.43c-.377-.377-.558-.666-.558-.835v-2.874h.171v-.27h-.17V8.869h-.487v1.585h-.157l-.314-.203zm-1.276.473h2.646v2.874c0 .231.11.483.323.765h-3.17c.098-.197.164-.443.2-.75zM16.081 12h-1.054v2.084h2.108zm1.089-5.844.002.003zm1.541.542.001.01v-.01m.3.037.001-.005v.002zm-1.212.613h.005z" clip-rule="evenodd"/><path fill="#F7FCFF" fill-rule="evenodd" d="m12.993 10.668-.2.143.206.302c-.176.063-.459.223-.459.599a2.8 2.8 0 0 1-.191.992l.572.368s.06-.636.215-.998a.58.58 0 0 1 .302-.317l.89 1.305.199-.143zm6.079 0 .199.143-.206.302c.176.063.46.223.46.599 0 .545.191.992.191.992l-.572.368s-.06-.636-.216-.998a.58.58 0 0 0-.301-.317l-.89 1.305-.199-.143z" clip-rule="evenodd"/></g></g><defs><clipPath id="a"><path fill="#fff" d="M0 0h32v24H0z"/></clipPath></defs></svg>