<svg xmlns="http://www.w3.org/2000/svg" width="32" height="24" fill="none" viewBox="0 0 32 24"><g clip-path="url(#a)"><mask id="b" width="32" height="24" x="0" y="0" maskUnits="userSpaceOnUse" style="mask-type:luminance"><path fill="#fff" d="M32 0H0v24h32z"/></mask><g mask="url(#b)"><path fill="#fff" d="M32 0H0v24h32z"/><path fill="#1B1B1B" fill-rule="evenodd" d="M0 0h32v24H0z" clip-rule="evenodd"/><path fill="#F9D313" fill-rule="evenodd" d="m16 13.999-2.003 3.799.05-4.195-3.658 2.65 2.093-3.76-4.59.977 3.72-2.581L7 9.999l4.613-.89L7.89 6.528l4.59.977-2.092-3.761 3.659 2.65-.05-4.195L16 6l2.003-3.8-.05 4.196 3.658-2.651-2.093 3.76 4.59-.976-3.72 2.58 4.612.89-4.613.89 3.722 2.582-4.59-.977 2.092 3.76-3.658-2.65.05 4.195z" clip-rule="evenodd"/><path fill="#F1F9FF" d="M26 14H6v10h20z"/><path fill="#4A80E8" d="M30 10H2v4h28z"/><path fill="#E31D1C" fill-rule="evenodd" d="m0 6 16 18L32 6v18H0z" clip-rule="evenodd"/></g></g><defs><clipPath id="a"><path fill="#fff" d="M0 0h32v24H0z"/></clipPath></defs></svg>