<svg xmlns="http://www.w3.org/2000/svg" width="32" height="24" fill="none" viewBox="0 0 32 24"><g clip-path="url(#a)"><mask id="b" width="32" height="24" x="0" y="0" maskUnits="userSpaceOnUse" style="mask-type:luminance"><path fill="#fff" d="M32 0H0v24h32z"/></mask><g mask="url(#b)"><path fill="#fff" d="M32 0H0v24h32z"/><path fill="#2E42A5" fill-rule="evenodd" d="M0 0v24h32V0z" clip-rule="evenodd"/><mask id="c" width="32" height="24" x="0" y="0" maskUnits="userSpaceOnUse" style="mask-type:luminance"><path fill="#fff" fill-rule="evenodd" d="M0 0v24h32V0z" clip-rule="evenodd"/></mask><g mask="url(#c)"><path fill="#FBE625" fill-rule="evenodd" d="m20.943 11.857.004.35c.027 2.95.135 4.88.329 5.805.16.767.745 2.04 1.433 3.061.864 1.284 1.786 2.065 2.669 2.065.885 0 1.808-.727 2.669-1.936.706-.993 1.31-2.253 1.552-3.18.298-1.15.437-3.086.42-5.818l-.002-.348-.318.165a4.44 4.44 0 0 1-2.073.497q-1.099 0-2.128-.661l-.118-.076-.12.073q-1.086.666-2.043.664-.969 0-1.952-.498zm.546 6.113q-.285-1.36-.325-5.764 1.029.522 2.053.522t2.16-.697q1.082.697 2.25.697 1.166 0 2.175-.522.024 4.073-.414 5.764c-.439 1.691-2.28 4.958-4.01 4.958-1.732 0-3.604-3.598-3.889-4.958" clip-rule="evenodd"/><path fill="#F5FBFF" fill-rule="evenodd" d="M21.163 12.206s.04 4.404.325 5.764 2.157 4.958 3.889 4.958c1.73 0 3.571-3.267 4.01-4.958s.414-5.764.414-5.764-1.009.522-2.176.522c-1.166 0-2.248-.697-2.248-.697s-1.136.697-2.16.697-2.054-.522-2.054-.522" clip-rule="evenodd"/><mask id="d" width="9" height="11" x="21" y="12" maskUnits="userSpaceOnUse" style="mask-type:luminance"><path fill="#fff" fill-rule="evenodd" d="M21.163 12.206s.04 4.404.325 5.764 2.157 4.958 3.889 4.958c1.73 0 3.571-3.267 4.01-4.958s.414-5.764.414-5.764-1.009.522-2.176.522c-1.166 0-2.248-.697-2.248-.697s-1.136.697-2.16.697-2.054-.522-2.054-.522" clip-rule="evenodd"/></mask><g fill-rule="evenodd" clip-rule="evenodd" mask="url(#d)"><path fill="#FF9800" d="M24.64 15.489c0 .288-.411 1.125-.65 1.34-.176.158-.121-.21-.081-.482.014-.096.026-.18.026-.224v-.02c0-.056 0-.087-.005-.117a.7.7 0 0 0-.055-.144l-.045-.104c-.381-.813-.111-1.203.008-1.376l.042-.065a.4.4 0 0 1 .09-.107c.096-.092.217-.208.171-.47-.063-.365.323-.833.323-.833s-.094.908.35.686c.288-.145.81.063 1.276.247.25.1.484.192.655.22a.77.77 0 0 0 .652-.18c.05-.037.085-.065.115-.065.102 0 .222.02.222.095 0 .074-.456.291-.685.36-.172.05.005.19.153.309.049.039.094.075.123.104.119.121.227.78-.047.365-.273-.414-.855-.69-1.35-.731-.495-.04-1.12.335-1.194.731-.075.397.585.324.585.324s-.048.062-.261.137-.418 0-.418 0m-.498-.031a.107.107 0 0 1-.109.105.107.107 0 0 1-.109-.105c0-.058.05-.105.11-.105s.108.047.108.105m2.44 1.944c-.303-.105-1.235-.058-1.486.081 0 0-.034-.216-.203-.366-.17-.15-.247-.162-.247-.162s.384.543 0 .67c-.382.126-1.013-.238-1.218-.69-.204-.452-.244-1.096-.015-1.536.23-.44-.293-.026-.342.136-.012.04-.021.097-.031.158-.031.187-.069.41-.197.284-.17-.167-.581-.46-.646-.424s-.025.15.024.24c.015.025.057.044.113.068.135.059.354.154.473.484.06.163.091.412.126.68.064.495.136 1.053.402 1.235.41.28-.43.639-.43.639s.597.11.885-.122c.207-.167.367-.118.494-.079.05.016.096.03.137.028q.029 0 .077.005c.21.02.681.068 1.208-.66l.069-.09c.05-.065.072-.095.1-.118a1 1 0 0 1 .1-.061l.016-.01c.04-.022.119-.051.209-.085.257-.097.606-.228.382-.305m-1.253.48a.107.107 0 0 1 .144.045.107.107 0 0 1-.04.145.107.107 0 0 1-.143-.044.107.107 0 0 1 .039-.146m.513-3.007c.077.31.624 1.067.878 1.202 0 0-.163.146-.197.37-.034.223-.002.294-.002.294s.246-.617.561-.364c.315.252.354.98.086 1.397s-.786.802-1.28.85c-.495.046.138.26.3.212.04-.012.093-.035.15-.06.174-.075.38-.166.345.01-.048.235-.07.739-.004.774s.14-.062.188-.151c.014-.027.006-.072-.004-.132-.024-.146-.064-.381.148-.66.104-.139.296-.302.501-.476.381-.324.81-.688.818-1.01.012-.497.77.012.77.012s-.233-.56-.585-.676c-.252-.082-.298-.243-.335-.371a.4.4 0 0 0-.051-.13l-.038-.067c-.097-.187-.314-.608-1.212-.654l-.112-.009a.7.7 0 0 1-.153-.02c-.03-.008-.056-.023-.106-.05l-.017-.008a2 2 0 0 1-.186-.129c-.22-.163-.52-.384-.463-.154m1.12.83a.107.107 0 0 1-.042-.146.107.107 0 0 1 .144-.047c.05.027.07.092.041.145a.107.107 0 0 1-.143.047"/><path fill="#36C6FF" d="M21.426 19.754h7.279v3.457h-7.28z"/></g><mask id="e" width="18" height="14" x="0" y="0" maskUnits="userSpaceOnUse" style="mask-type:luminance"><path fill="#fff" d="M18 0H0v14h18z"/></mask><g mask="url(#e)"><path fill="#2E42A5" d="M18 0H0v14h18z"/><path fill="#F7FCFF" d="m-2.004 13 3.961 1.737L18.09 1.889l2.09-2.582-4.236-.58-6.58 5.536-5.297 3.73z"/><path fill="#F50100" d="m-1.462 14.216 2.018 1.008L19.429-.934h-2.833z"/><path fill="#F7FCFF" d="m20.005 13-3.961 1.737L-.09 1.889-2.18-.693l4.236-.58 6.58 5.536 5.297 3.73z"/><path fill="#F50100" d="m19.87 13.874-2.018 1.008-8.037-6.918-2.382-.773L-2.38-.684H.454l9.807 7.688 2.604.927z"/><path fill="#F50100" fill-rule="evenodd" d="M9.985 0h-2v6H0v2h7.985v6h2V8H18V6H9.985z" clip-rule="evenodd"/><path fill="#F7FCFF" fill-rule="evenodd" d="M6.485 0h5v4.5H18v5h-6.515L11.5 14h-5l-.015-4.5H0v-5h6.485zm1.5 6H0v2h7.985v6h2V8H18V6H9.985V0h-2z" clip-rule="evenodd"/></g></g></g></g><defs><clipPath id="a"><path fill="#fff" d="M0 0h32v24H0z"/></clipPath></defs></svg>