<svg xmlns="http://www.w3.org/2000/svg" width="32" height="24" fill="none" viewBox="0 0 32 24"><g clip-path="url(#a)"><mask id="b" width="32" height="24" x="0" y="0" maskUnits="userSpaceOnUse" style="mask-type:luminance"><path fill="#fff" d="M32 0H0v24h32z"/></mask><g mask="url(#b)"><path fill="#fff" d="M32 0H0v24h32z"/><path fill="#F50100" fill-rule="evenodd" d="M0 0h32v24H0z" clip-rule="evenodd"/><path fill="#1A1A1A" fill-rule="evenodd" d="M16.5 6.225c.068-.014.238-.107.603-.587.223-.293.212-.645.204-.952-.012-.4-.021-.722.5-.722.426 0 .743-.122 1.007-.225.305-.118.542-.21.801-.058.417.244.909.278.908.283h-.04c-.201 0-.922.411-.365.411.273 0 .565-.197.79-.35.237-.159.402-.27.402-.06 0 0 .16.463-.224.498 0 0-1.728.17-1.39.245 0 0 .307.127.517.134 0 0 .092.32-.468.41 0 0-1.583.293-1.656.802-.018.128-.063.295-.111.475-.145.537-.318 1.18.111 1.18.573 0 .945-.392.945-.833s.077-1.185.581-1.22c0 0 1.239-.42 1.392-.39.058.01.055.048.051.092-.006.07-.012.156.252.156.426 0 1.658-1.022 1.852-1.427.194-.406.486 0 .486 0s.187 1.136-.79 1.551c-.976.416-1.548.416-1.548.416s-.608.448-.224.448q.13.001.313.016c.423.03 1.018.074 1.46-.161q.181-.098.319-.175c.333-.185.47-.261.47-.128v.003c0 .176 0 1.116-.65 1.116H21.31c-.224 0-.755.32.127.536.883.216 1.167.126 1.56 0s.65-.198.65 0c0 .197-.538.936-1.002.936-.27 0-.56-.141-.799-.258-.169-.082-.313-.152-.409-.152-.231 0-.47.41-.351.41.039 0 .107.062.2.147.19.176.487.448.839.448.287 0 .51-.059.711-.111.164-.043.312-.082.467-.082.2 0 .283-.024.319.007.026.023.026.075.026.186 0 .264-.689.556-1.003.556-.142 0-.494-.156-.835-.308-.41-.183-.803-.358-.803-.248 0 .201.83 1.284 1.34 1.284h.956c.345 0 .208.437.208.437s-.334.297-.749.297c-.31 0-.617-.235-.857-.42a3 3 0 0 0-.216-.157c-.252-.157-.603-.28-.603 0s.793 1.4 1.435 1.4c.256 0 .487-.042.673-.075.278-.05.454-.08.454.074 0 .258-.299.833-.65.706l-.008-.003c-.36-.13-1.457-.525-1.68-.945-.224-.423-.634-.242-.468 0s1.037 1.496 1.679 1.612c.17.031.339.052.493.07.425.053.734.09.634.294-.137.278-.705.665-1.003.543s-1.314-1.057-1.559-1.447-.872-1.136-.872-.83c0 .066-.012.155-.025.257-.049.373-.119.909.294.999.524.114.8.62.524.62s-1.262-.237-1.262-.863-.447-.977-.447-.801v.073c-.006.22-.017.67.201.971.245.34-.102.617-.2.478-.098-.138-.519-.78-.519-.904s-.148-.415-.323-.415c-.174 0-.209.303.117.955.327.652 1.131 1.174 1.385 1.174.255 0 0 .584 0 .584l1.73.448s.659-.34.659-.448.344-.372.65-.372c.305 0 .329.372.164.372-.081 0-.197.07-.313.14-.12.073-.24.146-.328.146-.173 0-.702.37-.702.37h1.178s-.188-.208.306-.208.697.208.697.208-.557.326-.697.326q-.053.002-.136.017c-.082.013-.188.03-.323.034-.038-.028-.06-.022-.073 0a2 2 0 0 1-.423-.05c-.529-.115.414.237.414.237s-.02-.136.01-.187h.072a.8.8 0 0 1 .153.187c.306.463.352.607 0 .607s-.65-.107-.65-.357-.658-.488-.658-.488l-.848.488s.159.271-.1.357c-.258.085-.623-.04-.623-.126s.086-.481.306-.481.886-.363.886-.363l-1.614-.483s-.453.483-.602.483c-.076 0-.226-.308-.39-.645-.155-.32-.323-.666-.452-.796a2 2 0 0 1-.222-.295c-.158-.237-.303-.457-.516-.304-.306.22-.427.898 0 1.469.428.57 1.168 1.022 1.374 1.022s.611.02.611.162-.18.725-.61.478q-.13-.074-.257-.15c-.342-.2-.648-.38-.7-.328-.066.064.203.799.58.974a.9.9 0 0 0 .439.067c.153-.006.252-.01.252.163 0 .308-.266.651-.746.326a3 3 0 0 1-.523-.482c-.173-.187-.285-.308-.333-.187-.087.215-.05 1.059.33 1.059q.133 0 .243-.006c.245-.008.4-.014.4.1 0 .15-.088.783-.485.53s-.687-.568-.758-.791c-.072-.223-.496 0-.362.313.134.314.459.946.545.946s-1.007 1.912-1.007 1.912l-.007-2.354-.007 2.354s-1.094-1.912-1.007-1.912c.086 0 .411-.632.545-.946s-.29-.536-.361-.313-.362.538-.76.791c-.396.253-.484-.38-.484-.53 0-.114.155-.108.4-.1q.111.005.243.006c.38 0 .417-.844.33-1.06-.048-.12-.16.001-.333.188a3 3 0 0 1-.523.482c-.48.326-.746-.018-.746-.326 0-.173.099-.169.252-.163a.9.9 0 0 0 .44-.067c.376-.175.645-.91.58-.974-.053-.052-.36.128-.7.328l-.257.15c-.431.247-.611-.336-.611-.478 0-.143.405-.162.61-.162.207 0 .947-.451 1.375-1.022.428-.57.306-1.249 0-1.469-.213-.152-.358.067-.516.304a2 2 0 0 1-.222.295c-.129.13-.297.476-.453.796-.163.337-.313.645-.39.645-.148 0-.6-.483-.6-.483l-1.615.483s.667.363.886.363c.22 0 .306.395.306.481s-.365.211-.623.126c-.259-.086-.1-.357-.1-.357l-.848-.488s-.659.238-.659.488-.297.357-.65.357c-.351 0-.305-.144 0-.607a.8.8 0 0 1 .154-.187h.073c.03.051.009.187.009.187s.943-.352.414-.238a2 2 0 0 1-.423.051c-.013-.022-.035-.028-.073 0a2 2 0 0 1-.323-.034q-.082-.016-.136-.017c-.14 0-.697-.326-.697-.326s.203-.208.697-.208.306.208.306.208h1.178s-.529-.37-.702-.37c-.087 0-.208-.073-.328-.145-.116-.071-.232-.14-.313-.14-.165 0-.14-.373.165-.373s.65.264.65.372c0 .109.658.448.658.448l1.73-.448s-.255-.584 0-.584c.254 0 1.058-.522 1.385-1.174s.291-.955.117-.955c-.175 0-.323.291-.323.415s-.42.766-.519.904c-.098.139-.446-.138-.2-.478.218-.301.207-.75.202-.971l-.002-.073c0-.176-.446.175-.446.801s-.986.862-1.262.862 0-.505.524-.619c.413-.09.343-.626.294-1a2 2 0 0 1-.024-.256c0-.306-.629.44-.873.83-.245.39-1.262 1.325-1.56 1.447-.297.122-.865-.265-1.001-.543-.101-.203.208-.241.633-.293a10 10 0 0 0 .493-.07c.642-.117 1.514-1.37 1.68-1.613s-.245-.423-.47 0c-.222.42-1.319.816-1.679.945l-.007.003c-.352.127-.65-.448-.65-.706 0-.155.175-.124.453-.074.186.033.417.074.673.074.642 0 1.435-1.119 1.435-1.399s-.351-.157-.603 0c-.063.04-.136.096-.216.157-.24.185-.546.42-.857.42-.415 0-.749-.297-.749-.297s-.136-.437.208-.437h.955c.511 0 1.34-1.083 1.34-1.284 0-.11-.393.065-.802.248-.341.152-.693.308-.835.308-.315 0-1.002-.292-1.002-.556 0-.111 0-.163.025-.186.036-.031.12-.007.32-.007.154 0 .302.039.466.082.2.052.424.11.711.11.352 0 .648-.271.84-.447.092-.085.16-.147.199-.147.12 0-.12-.41-.351-.41-.096 0-.24.07-.41.152-.238.117-.527.258-.798.258-.464 0-1.002-.739-1.002-.936s.257-.126.65 0 .677.216 1.56 0c.882-.217.351-.536.127-.536h-1.687c-.65 0-.65-.94-.65-1.116v-.003c0-.133.136-.057.47.128q.136.076.318.175c.442.235 1.037.192 1.46.161.12-.009.228-.016.313-.016.385 0-.224-.448-.224-.448s-.572 0-1.549-.416c-.976-.415-.788-1.551-.788-1.551s.29-.406.485 0c.194.405 1.426 1.427 1.852 1.427.264 0 .258-.085.252-.156-.004-.044-.007-.082.05-.092.154-.03 1.393.39 1.393.39.504.035.582.78.582 1.22s.371.833.944.833c.428 0 .256-.643.111-1.18-.048-.18-.093-.347-.111-.475-.073-.509-1.656-.803-1.656-.803-.56-.088-.469-.409-.469-.409.211-.007.519-.134.519-.134.337-.076-1.391-.245-1.391-.245-.383-.035-.224-.499-.224-.499 0-.21.165-.098.401.062.227.152.518.35.79.35.558 0-.163-.412-.364-.412h-.04c0-.005.491-.039.908-.283.259-.152.496-.06.8.058.265.103.582.225 1.008.225.521 0 .512.321.5.722-.008.307-.019.66.204.952.365.48.535.573.603.587" clip-rule="evenodd"/></g></g><defs><clipPath id="a"><path fill="#fff" d="M0 0h32v24H0z"/></clipPath></defs></svg>