<svg xmlns="http://www.w3.org/2000/svg" width="32" height="24" fill="none" viewBox="0 0 32 24"><g clip-path="url(#a)"><mask id="b" width="32" height="24" x="0" y="0" maskUnits="userSpaceOnUse" style="mask-type:luminance"><path fill="#fff" d="M32 0H0v24h32z"/></mask><g mask="url(#b)"><path fill="#fff" d="M32 0H0v24h32z"/><path fill="#1D1D1D" fill-rule="evenodd" d="M0 0v24h32V0z" clip-rule="evenodd"/><mask id="c" width="32" height="24" x="0" y="0" maskUnits="userSpaceOnUse" style="mask-type:luminance"><path fill="#fff" fill-rule="evenodd" d="M0 0v24h32V0z" clip-rule="evenodd"/></mask><g mask="url(#c)"><path fill="#F50100" fill-rule="evenodd" d="M0 0v12h32V0z" clip-rule="evenodd"/><path fill="#FFEA42" d="m9.933 5.897.427-1.405c3.2.977 5.13 2.69 5.672 5.132.36 1.62.197 3.069-.385 4.359-.415.919-.942 1.605-1.7 2.377-1.263 1.288-3.341 2.11-5.217 1.761a10.5 10.5 0 0 1-3.61-1.375l.766-1.252a9 9 0 0 0 3.11 1.183c1.355.252 2.961-.383 3.906-1.346.648-.66 1.08-1.223 1.41-1.954.453-1.004.58-2.129.29-3.434-.414-1.864-1.931-3.21-4.669-4.046"/><g fill-rule="evenodd" clip-rule="evenodd" filter="url(#d)"><path fill="#FCFF01" d="m9.846 9.465-.95.657.335-1.101-.921-.696 1.156-.023.38-1.087.38 1.087 1.156.023-.922.696.335 1.101z"/><path fill="#FFEA42" d="m9.846 9.465-.95.657.335-1.101-.921-.696 1.156-.023.38-1.087.38 1.087 1.156.023-.922.696.335 1.101z"/></g><g fill-rule="evenodd" clip-rule="evenodd" filter="url(#e)"><path fill="#FCFF01" d="M7.614 9.86s-1.684 2.468-.358 3.37 8.337 4.707 8.337 4.707 1.449-.008 1.655.3.635.67.816.67.647-.326.647-.326.364-.298 0-.644-2.287-1.532-2.287-1.532-7.508-4.791-8.147-5.266c-.638-.474-.663-1.28-.663-1.28"/><path fill="#FFEA42" d="M7.614 9.86s-1.684 2.468-.358 3.37 8.337 4.707 8.337 4.707 1.449-.008 1.655.3.635.67.816.67.647-.326.647-.326.364-.298 0-.644-2.287-1.532-2.287-1.532-7.508-4.791-8.147-5.266c-.638-.474-.663-1.28-.663-1.28"/></g><path fill="#FFEA42" fill-rule="evenodd" d="m11.712 4.074-.39.883 1.279.553.362-.883zm2.613 1.41-.704.66.96 1.01.68-.672zm.961 2.653.9-.35.494 1.277-.881.368zm1.753 2.5-.964-.032-.034 1.393.954.005zm-1.192 2.557.883.39-.553 1.25-.883-.362zm-.523 3.008-.66-.704-1.01.96.672.68zm-2.647.965.349.9-1.276.493-.368-.88zm-2.493 1.754.03-.964-1.392-.035-.005.955zm-2.552-1.193-.39.883-1.25-.553.362-.883z" clip-rule="evenodd"/></g></g></g><defs><filter id="d" width="3.07227" height="2.90625" x="8.30957" y="7.21484" color-interpolation-filters="sRGB" filterUnits="userSpaceOnUse"><feFlood flood-opacity="0" result="BackgroundImageFix"/><feColorMatrix in="SourceAlpha" result="hardAlpha" values="0 0 0 0 0 0 0 0 0 0 0 0 0 0 0 0 0 0 127 0"/><feOffset/><feColorMatrix values="0 0 0 0 0 0 0 0 0 0 0 0 0 0 0 0 0 0 0.2 0"/><feBlend in2="BackgroundImageFix" result="effect1_dropShadow_173_13947"/><feBlend in="SourceGraphic" in2="effect1_dropShadow_173_13947" result="shape"/></filter><filter id="e" width="12.126" height="9.04688" x="6.74707" y="9.85938" color-interpolation-filters="sRGB" filterUnits="userSpaceOnUse"><feFlood flood-opacity="0" result="BackgroundImageFix"/><feColorMatrix in="SourceAlpha" result="hardAlpha" values="0 0 0 0 0 0 0 0 0 0 0 0 0 0 0 0 0 0 127 0"/><feOffset/><feColorMatrix values="0 0 0 0 0 0 0 0 0 0 0 0 0 0 0 0 0 0 0.2 0"/><feBlend in2="BackgroundImageFix" result="effect1_dropShadow_173_13947"/><feBlend in="SourceGraphic" in2="effect1_dropShadow_173_13947" result="shape"/></filter><clipPath id="a"><path fill="#fff" d="M0 0h32v24H0z"/></clipPath></defs></svg>