<svg xmlns="http://www.w3.org/2000/svg" width="32" height="24" fill="none" viewBox="0 0 32 24"><g clip-path="url(#a)"><mask id="b" width="32" height="24" x="0" y="0" maskUnits="userSpaceOnUse" style="mask-type:luminance"><path fill="#fff" d="M32 0H0v24h32z"/></mask><g mask="url(#b)"><path fill="#fff" d="M32 0H0v24h32z"/><path fill="#5196ED" fill-rule="evenodd" d="M0 0v24h32V0z" clip-rule="evenodd"/><mask id="c" width="32" height="24" x="0" y="0" maskUnits="userSpaceOnUse" style="mask-type:luminance"><path fill="#fff" fill-rule="evenodd" d="M0 0v24h32V0z" clip-rule="evenodd"/></mask><g mask="url(#c)"><path fill="#F5F8FB" fill-rule="evenodd" d="M8.717 7.894s2.065 1.132 2.352 1.446c.287.313.746 1.463 1.464.813.717-.65 1.435-.145 1.435-1.181s1.07-3.44 2.625-2.837 2.832.225 3.19.466c.359.24 1.22 1.437 1.89 1.437s1.004.699 1.051 1.711c.048 1.012-.215 1.109.407 1.23.622.12.86.578.55 1.18s-.287.337-.24.964c.049.627-.62 4.321-2.677 4.683-2.057.361-4.006.169-3.48-.53s1.254-1.503.178-1.672-1.754-.312-2.83-.023-2.2.747-2.87-.12c-.67-.868-.526-1.495-1.076-1.904-.55-.41-1.22-.338-.67-1.133s1.005-.498.55-1.125c-.454-.626-2.169-.899-2.169-1.525 0-.627-1.09-2 .32-1.88" clip-rule="evenodd"/></g></g></g><defs><clipPath id="a"><path fill="#fff" d="M0 0h32v24H0z"/></clipPath></defs></svg>