<svg xmlns="http://www.w3.org/2000/svg" width="32" height="24" fill="none" viewBox="0 0 32 24"><g clip-path="url(#a)"><mask id="b" width="32" height="24" x="0" y="0" maskUnits="userSpaceOnUse" style="mask-type:luminance"><path fill="#fff" d="M32 0H0v24h32z"/></mask><g mask="url(#b)"><path fill="#fff" d="M32 0H0v24h32z"/><path fill="#F7FCFF" fill-rule="evenodd" d="M0 0v24h32V0z" clip-rule="evenodd"/><mask id="c" width="32" height="24" x="0" y="0" maskUnits="userSpaceOnUse" style="mask-type:luminance"><path fill="#fff" fill-rule="evenodd" d="M0 0v24h32V0z" clip-rule="evenodd"/></mask><g fill="#58A5FF" fill-rule="evenodd" clip-rule="evenodd" mask="url(#c)"><path d="M0 0v7h32V0zm0 17v7h32v-7z"/></g><path fill="#FFC125" fill-rule="evenodd" d="M15.22 7.127a.134.134 0 0 0-.179.06c-.147.297-.038.558.051.77l.027.066.108.25.06.13a.5.5 0 0 1 .067.276q0 .107-.004.245c-.009.439-.022 1.055.137 1.313.038.062.23-.036.293-.074s.039-.241 0-.303c-.16-.26-.16-.79-.16-1.157V8.68a.73.73 0 0 0-.092-.386l-.055-.123-.106-.244-.038-.083c-.068-.137-.158-.32-.049-.54a.13.13 0 0 0-.06-.176m1.954.079a.134.134 0 0 0-.188-.015c-.252.216-.253.5-.254.73l-.001.071v.127l.002.145q0 .088.004.143a.5.5 0 0 1-.046.28l-.1.225c-.18.4-.432.962-.386 1.26.01.073.225.058.298.048s.13-.207.12-.279c-.047-.301.16-.79.304-1.127l.01-.023c.071-.169.069-.238.065-.391q-.003-.058-.003-.135L16.997 8l-.003-.091c-.008-.153-.02-.357.167-.516a.13.13 0 0 0 .012-.186m1.582.718a.134.134 0 0 1 .169.083.13.13 0 0 1-.082.168c-.233.078-.298.271-.348.416q-.015.047-.031.086l-.045.11-.053.137q-.03.072-.048.125a.74.74 0 0 1-.207.34l-.018.017c-.259.26-.634.634-.704.93-.017.072-.144.232-.215.214-.071-.017-.276-.083-.259-.154.07-.294.514-.721.831-1.025q.1-.095.176-.171c.099-.098.113-.142.148-.242q.018-.053.05-.135l.052-.134a4 4 0 0 1 .075-.184c.087-.213.195-.476.509-.581m1.494 1.509a.134.134 0 0 0-.122-.143c-.33-.026-.532.173-.696.336l-.05.05-.09.09-.102.103-.097.104a.5.5 0 0 1-.231.166l-.23.088c-.41.156-.986.375-1.165.619-.043.059.12.2.178.243.058.045.238-.053.281-.112.18-.246.673-.445 1.013-.582l.023-.01a.74.74 0 0 0 .323-.23q.038-.042.093-.097l.186-.19.063-.066c.102-.114.238-.266.483-.247a.13.13 0 0 0 .14-.122m.606 1.615a.134.134 0 0 1 .06.178.13.13 0 0 1-.175.061c-.22-.11-.403-.02-.54.048q-.045.023-.084.039l-.11.047-.134.059-.122.054a.74.74 0 0 1-.386.093h-.025c-.367 0-.897 0-1.157.16-.062.039-.265.062-.303 0-.037-.063-.135-.255-.073-.293.257-.159.873-.146 1.312-.137q.138.004.246.004a.5.5 0 0 0 .276-.067l.13-.06.249-.108.066-.027c.212-.09.474-.199.77-.051m-.019 2.115a.134.134 0 0 0 .015-.188c-.216-.252-.5-.253-.73-.254h-.198l-.145.001q-.088.001-.143.005c-.106.005-.152.008-.28-.047l-.225-.1c-.4-.179-.962-.432-1.26-.386-.073.011-.058.225-.048.298s.207.13.279.12c.302-.047.79.16 1.127.304l.023.01c.169.071.238.07.392.065l.134-.003.266-.002q.041 0 .091-.003c.153-.008.357-.02.516.167a.13.13 0 0 0 .186.013m-.725 1.566a.134.134 0 0 1-.083.169.13.13 0 0 1-.168-.082c-.078-.232-.271-.298-.416-.348q-.047-.015-.086-.031l-.11-.045-.263-.1a.74.74 0 0 1-.338-.208l-.018-.017c-.26-.26-.634-.635-.93-.705-.072-.017-.232-.144-.215-.215s.085-.276.155-.259c.294.07.721.515 1.025.831l.171.177a.5.5 0 0 0 .242.147q.053.018.135.05l.134.052a4 4 0 0 1 .184.075c.213.088.476.195.581.509m-1.521 1.482a.134.134 0 0 0 .143-.122c.025-.33-.174-.532-.336-.696l-.05-.05-.09-.09-.104-.102-.104-.097a.5.5 0 0 1-.165-.231l-.089-.23c-.156-.41-.375-.986-.618-1.165-.059-.043-.2.12-.244.178-.044.059.054.238.113.281.245.18.444.673.581 1.013l.01.022c.068.17.118.218.23.323l.097.094.19.186.066.063c.114.102.266.238.247.483a.13.13 0 0 0 .123.14m-1.632.6a.134.134 0 0 1-.178.06.13.13 0 0 1-.061-.176c.11-.22.02-.403-.048-.54l-.039-.083-.046-.11-.06-.134-.054-.123c-.064-.14-.093-.202-.093-.386v-.024c0-.367 0-.898-.16-1.157-.039-.062-.062-.265 0-.303.064-.038.255-.136.293-.074.159.258.146.874.137 1.313q-.004.137-.004.245c0 .14.02.18.067.276q.026.05.06.13l.108.25.027.065c.09.213.199.474.051.771m-2.132-.019a.134.134 0 0 0 .188.014c.251-.215.253-.498.254-.73v-.197l-.001-.145q-.001-.088-.005-.143a.5.5 0 0 1 .046-.28l.1-.225c.18-.4.432-.962.387-1.261-.011-.072-.226-.057-.298-.047-.073.01-.13.207-.12.279.046.301-.161.79-.304 1.127l-.01.023a.73.73 0 0 0-.065.391l.002.135.002.266.003.091c.009.153.02.357-.166.516a.13.13 0 0 0-.013.186m-1.582-.718a.134.134 0 0 1-.17-.084.13.13 0 0 1 .082-.167c.233-.078.299-.271.348-.416q.015-.047.031-.086.022-.048.045-.11l.053-.137q.03-.073.048-.126a.74.74 0 0 1 .207-.338l.018-.018c.26-.26.634-.634.705-.931.016-.071.143-.231.215-.214.07.018.275.084.258.155-.07.294-.514.721-.83 1.025q-.1.095-.177.171c-.098.098-.113.142-.148.242l-.05.134c-.01.03-.052.135-.052.135a4 4 0 0 1-.075.184c-.087.213-.194.476-.508.581m-1.481-1.485a.134.134 0 0 0 .125.141c.33.02.528-.183.69-.348l.049-.05.088-.092.1-.106q.059-.063.095-.106c.07-.08.1-.115.229-.169q.098-.042.227-.092c.407-.163.98-.393 1.154-.64.042-.059-.122-.197-.182-.24-.059-.043-.237.058-.279.118-.176.249-.665.456-1.002.6l-.023.009a.74.74 0 0 0-.319.236l-.091.099-.184.192q-.03.03-.06.068c-.1.116-.234.27-.48.255a.13.13 0 0 0-.137.125m-.62-1.639a.134.134 0 0 1-.06-.178.13.13 0 0 1 .176-.061c.22.109.403.02.54-.048q.045-.023.083-.039l.11-.047.134-.059.123-.054c.14-.065.202-.094.386-.094h.024c.367 0 .898 0 1.157-.16.062-.038.265-.062.303.001s.136.255.074.293c-.258.159-.874.146-1.313.137l-.245-.004c-.14 0-.18.02-.276.067l-.13.06-.132.058a4 4 0 0 1-.183.077c-.213.09-.474.199-.771.051m.02-2.115a.134.134 0 0 0-.015.188c.215.252.499.253.73.254h.198l.144-.001c.06 0 .105-.003.143-.005a.5.5 0 0 1 .28.047q.1.042.225.1c.4.179.963.432 1.261.386.072-.011.057-.226.047-.298-.01-.073-.207-.13-.279-.12-.301.047-.79-.16-1.127-.304l-.023-.01a.73.73 0 0 0-.391-.065l-.135.003-.265.002q-.042 0-.092.003c-.153.008-.356.02-.516-.167a.13.13 0 0 0-.186-.013m.724-1.566a.134.134 0 0 1 .084-.169.13.13 0 0 1 .167.082c.079.232.272.298.416.347q.048.016.086.032l.111.045.262.1c.144.054.21.078.339.208l.017.017c.26.26.635.635.931.705.071.017.232.144.214.215s-.084.276-.155.259c-.294-.07-.72-.515-1.025-.831l-.17-.177a.5.5 0 0 0-.243-.148l-.134-.049-.135-.052a4 4 0 0 1-.184-.075c-.213-.088-.475-.195-.58-.51m1.522-1.482a.134.134 0 0 0-.143.122c-.026.33.173.532.336.696l.05.05a5 5 0 0 0 .193.192l.104.097c.08.072.114.102.166.231l.088.23c.156.41.375.986.619 1.165.058.043.2-.12.243-.178.044-.058-.054-.238-.112-.281-.246-.18-.445-.673-.582-1.013l-.01-.023a.74.74 0 0 0-.23-.323q-.042-.038-.097-.093l-.105-.102-.084-.085q-.03-.03-.067-.062c-.114-.102-.266-.238-.247-.483a.13.13 0 0 0-.122-.14" clip-rule="evenodd"/><path fill="#984111" d="m15.17 8.141-.069.03.137-.06zm.245-.104-.07.03.138-.06zm1.512.777.07.03v-.002zm.075-.414h-.075v.002zm0 0h.075v-.002zm-.004-.28h-.075l.15-.001zm1.32.93.07.028.001-.002zm0 0-.07-.026v.002zm0 0 .071.026v-.001zm0 0-.07-.026v.002zm0 0 .071.026v-.001zm-.145-.36-.07-.028.14.055zm.075-.184.069.029.001-.004zm0 0-.07-.029v.003zm1.044 1.26-.054-.052.108.105zm.189.188-.054-.052.107.105zm.147-.151-.055-.052-.001.002zm0 0 .055.052.005-.008zm0 0-.056-.05-.005.006zm.38 1.618-.03-.068.06.137zm-.257.114-.031-.068-.002.001zm0 0 .032.068h.002zm.152-.358-.03-.07.06.138zm.183-.077-.028-.07zm0 0 .028.07.001-.001zm-.954 1.482-.032.067h.001zm0 0 .032-.069h-.001zm.512.41v-.076h-.002zm0 0v.075h.002zm.281-.005v-.075.15zm-.676 1.406.027-.07-.054.14zm-.583-.673-.055.052h.002zm0 0 .054-.052-.001-.001zm.682.426.027-.07-.055.14zm-1.09 1.107.053-.054-.105.108zm-.207-.199-.053.053.002.003zm0 0 .053-.053L18.1 15zm.02.388.052-.054-.105.107zm.151.147-.05.056.003.002zm0 0 .05-.056-.003-.003zm-1.635.374.069-.03-.137.06zm.245-.105.069-.03-.138.06zm.077.183.07-.028-.001-.001zm0 0-.07.028zm-1.5-.954.069.03.001-.002zm0 0-.068-.03-.001.002zm-.405.793h.075-.15zm-1.422-.67.07.028-.14-.054zm.101-.261-.07-.03v.004zm0 0 .07.029v-.003zm.225-.356-.048-.06-.005.007zm0 0 .047.059.006-.006zm.347.035.05.056.002-.002zm0 0-.05-.056-.002.001zm-.324.413.07.026v-.002zm0 0-.07-.026-.001.002zm-.102.269.07.027-.14-.055zm-1.112-1.07.055.052-.109-.104zm.65-.473.028.07zm-.842.289.055.051-.11-.103zm-.724-1.393-.031-.068-.002.001zm0 0 .03.069.003-.001zm.193-.085.03.069-.06-.138zm.256-.114.032.068h.002zm0 0-.03-.068-.003.001zm-.152.359.03.069-.06-.138zm.267-1.551v-.075h-.004zm0 0v.075h.005zm0 0-.004-.075h-.001zm-.288-.26v.075l-.001-.15zm-.211.003v.075h.004zm0 0v-.075h-.004zm1.149-1.308.028-.07h-.002zm0 0-.028.07h.002zm.321.572-.055.051.001.001zm0 0 .055-.05v-.002zm-.682-.426-.028.07.055-.14zm1.09-1.107-.053.054.105-.107zm.187-.188-.052.053.104-.107zm1.178-1.337a.06.06 0 0 1 .079-.026l.065-.135a.21.21 0 0 0-.278.094zm.053.709c-.09-.215-.184-.446-.053-.709l-.134-.067c-.165.331-.04.623.049.833zm.028.066-.028-.066-.138.057.027.065zm.049.115-.05-.115-.138.056.05.12zm.058.133-.034-.078-.017-.038-.006-.013-.001-.003s-.1-.04-.138.06l.137-.06c-.038.098-.137.06-.137.06l.002.004.005.012.018.039.033.076zm.058.127-.058-.127-.138.06q.036.082.062.132zm.075.308a.6.6 0 0 0-.019-.174 1 1 0 0 0-.056-.134l-.134.065a.6.6 0 0 1 .046.109.5.5 0 0 1 .013.134zm-.004.248c.002-.09.004-.176.004-.248h-.15q0 .106-.004.244zm.126 1.27a.7.7 0 0 1-.08-.227 2.4 2.4 0 0 1-.04-.326 9 9 0 0 1-.006-.717l-.15-.004c-.004.219-.01.486.006.731q.01.186.043.347a.9.9 0 0 0 .1.276zm.19-.097a1 1 0 0 1-.142.067.2.2 0 0 1-.062.015c-.017.001.001-.005.014.016l-.128.079c.032.05.088.057.12.055a.4.4 0 0 0 .106-.023c.067-.024.135-.06.17-.081zm-.024-.2q.006.007.015.046a.4.4 0 0 1 .011.079.3.3 0 0 1-.004.067c-.005.02-.009.014.002.008l.077.128a.16.16 0 0 0 .066-.101.4.4 0 0 0 .009-.11 1 1 0 0 0-.015-.105.3.3 0 0 0-.034-.09zm-.172-1.196c0 .183 0 .41.02.626.02.212.062.425.152.57l.127-.079c-.07-.114-.11-.296-.13-.505a7 7 0 0 1-.019-.612zm0-.025v.025h.15v-.025zm-.086-.354c.033.07.053.116.067.165a.7.7 0 0 1 .02.19h.15a.8.8 0 0 0-.026-.23c-.017-.063-.043-.12-.074-.188zm-.055-.125q.031.074.055.125l.137-.063-.055-.12zm.078-.193c-.032.095-.133.067-.137.061l.002.003.005.012.017.04.035.077.137-.059-.034-.08-.018-.038-.005-.012zl-.001-.002c-.004-.006-.105-.034-.138.06v.002zm-.185-.052.048.112.137-.06-.046-.108zm-.036-.078q.022.044.036.078l.14-.056-.041-.088zm-.048-.607c-.127.256-.019.471.048.607l.135-.066c-.069-.14-.14-.29-.049-.474zm-.027-.075c.03.014.04.048.027.075l.134.067a.206.206 0 0 0-.095-.277zm1.848.054a.06.06 0 0 1 .083.007l.113-.099a.21.21 0 0 0-.293-.022zm-.228.674c.001-.234.005-.483.228-.674l-.097-.114c-.28.24-.28.558-.28.786zm0 .071v-.071l-.15-.002v.07zm0 .125v-.125l-.15-.002v.129zm.002.145-.002-.145-.15.002.002.144zm.004.14q-.003-.055-.005-.14l-.15.001q.001.091.005.146zm-.052.313a.7.7 0 0 0 .05-.167.7.7 0 0 0 .002-.146l-.15.007a.6.6 0 0 1 0 .118.5.5 0 0 1-.04.13zm-.1.226q.057-.126.1-.226l-.138-.059-.1.224zm-.381 1.22a.7.7 0 0 1 .015-.242q.03-.145.09-.315c.079-.225.185-.462.276-.663l-.137-.061c-.09.2-.2.443-.28.674q-.063.176-.096.336a.9.9 0 0 0-.017.293zm.213-.017a1 1 0 0 1-.157.007.2.2 0 0 1-.063-.01c-.015-.006.003-.004.007.02l-.149.022c.01.06.059.087.09.098a.4.4 0 0 0 .106.02c.07.004.148-.003.187-.008zm.056-.193q.001.01-.004.048l-.02.077a.3.3 0 0 1-.031.06c-.012.016-.013.01 0 .008l.02.149a.16.16 0 0 0 .1-.068.4.4 0 0 0 .05-.097 1 1 0 0 0 .029-.103.3.3 0 0 0 .004-.097zm.31-1.167a6 6 0 0 0-.226.583c-.065.203-.11.415-.084.584l.148-.023c-.02-.132.015-.315.079-.516.062-.198.149-.4.22-.57zm.009-.023-.01.023.139.058.01-.023zm.06-.36a1 1 0 0 1-.004.177.7.7 0 0 1-.056.183l.138.058a1 1 0 0 0 .067-.22c.008-.065.006-.128.004-.203zm-.003-.137.002.136.15-.004-.002-.133zm.148-.147c-.068.074-.15.009-.15.002v.017l.002.128h.15l-.002-.13v-.019c0-.006-.082-.071-.15.003zm-.15-.12v.121l.15-.001V8zm-.003-.086.003.086.15.002-.003-.097zm.193-.577c-.218.185-.201.426-.193.577l.15-.009c-.009-.154-.015-.321.14-.455zm.005-.08a.056.056 0 0 1-.005.08l.097.113a.206.206 0 0 0 .02-.292zm1.878.728a.21.21 0 0 0-.263-.13l.047.142a.06.06 0 0 1 .074.037zm-.128.263a.206.206 0 0 0 .128-.263l-.142.049a.056.056 0 0 1-.034.072zm-.301.369c.05-.147.106-.304.3-.37l-.047-.141c-.271.09-.346.32-.395.463zm-.033.091q.018-.043.033-.091l-.142-.048q-.016.047-.03.08zm-.044.109q.024-.063.044-.109l-.139-.059-.045.113zm-.054.137.032-.081.015-.04.005-.012.002-.004v-.001c.002-.007-.05-.098-.14-.054l.14.055c-.091.044-.142-.047-.14-.054l-.002.004-.005.012-.015.04-.031.08zm-.047.123.047-.123-.14-.056-.047.127zm0 .002v-.002l-.14-.052zm-.224.364a1 1 0 0 0 .144-.18c.032-.056.054-.115.08-.186l-.14-.052c-.028.074-.045.12-.07.164a.7.7 0 0 1-.12.148zm-.018.018.018-.018-.107-.106-.017.018zm-.685.895c.031-.13.133-.287.267-.45a7 7 0 0 1 .418-.445l-.106-.106c-.13.129-.29.29-.428.456-.136.165-.257.344-.296.51zm-.306.269a.16.16 0 0 0 .12-.025.4.4 0 0 0 .082-.07 1 1 0 0 0 .064-.086.3.3 0 0 0 .04-.088l-.145-.035a.2.2 0 0 1-.022.044.4.4 0 0 1-.048.063.3.3 0 0 1-.05.045c-.017.01-.017.004-.004.007zm-.313-.245c-.014.059.021.102.045.124.026.024.06.043.092.058.064.03.138.053.176.063l.037-.146a1 1 0 0 1-.149-.052.2.2 0 0 1-.054-.033c-.012-.011.004-.003-.001.02zm.852-1.061c-.158.151-.35.336-.513.52a3 3 0 0 0-.214.276.9.9 0 0 0-.125.265l.146.035a.7.7 0 0 1 .104-.218q.082-.124.202-.259c.157-.178.345-.359.504-.511zm.175-.17-.175.17.104.108.177-.172zm.13-.214a.6.6 0 0 1-.044.11.5.5 0 0 1-.086.104l.106.106a.6.6 0 0 0 .11-.136 1 1 0 0 0 .056-.135zm.05-.137q-.032.084-.05.137l.142.049c.012-.036.027-.077.048-.131zm.193-.08c-.097.042-.14-.055-.14-.055v.001l-.002.004-.005.012-.015.04-.03.078.139.055c.006-.015.02-.049.03-.079l.016-.04zs-.043-.097-.14-.055zm-.091-.175-.05.12.14.055.047-.116zm.026-.065-.027.065.139.059.027-.066zm.555-.624c-.35.118-.468.413-.555.624l.139.058c.088-.216.185-.446.463-.54zm1.39 1.512a.06.06 0 0 1 .053.063l.15.01a.21.21 0 0 0-.192-.222zm-.638.315c.166-.164.345-.337.637-.315l.012-.15c-.368-.028-.592.198-.754.358zm-.05.05.05-.05-.105-.107-.05.05zm-.09.089.09-.089-.105-.108-.092.092zm-.1.104.088-.091.01-.01.002-.002v-.001s0-.106-.107-.105l.108.105c-.106.001-.108-.105-.108-.105v.001l-.003.003-.01.01-.029.03c-.023.023-.048.048-.058.06zm-.096.101q.036-.04.095-.101l-.106-.106-.1.107zm-.259.185a.6.6 0 0 0 .155-.082.7.7 0 0 0 .104-.103l-.111-.1a.6.6 0 0 1-.084.083.5.5 0 0 1-.12.063zm-.23.09.23-.09-.056-.14q-.098.04-.227.089zm-1.132.592a.7.7 0 0 1 .181-.16 2.4 2.4 0 0 1 .287-.16c.215-.102.458-.195.664-.273l-.053-.14c-.205.078-.455.172-.676.279-.11.053-.215.11-.305.17a.9.9 0 0 0-.219.195zm.163.14a1 1 0 0 1-.116-.107.2.2 0 0 1-.037-.052c-.007-.015.004 0-.01.019l-.12-.089c-.036.049-.02.103-.007.132a.4.4 0 0 0 .061.09c.047.053.107.102.138.126zm.175-.098a.2.2 0 0 1-.036.032.4.4 0 0 1-.133.06c-.02.003-.016-.002-.006.005l-.09.12c.039.03.087.028.118.024a.4.4 0 0 0 .104-.033 1 1 0 0 0 .093-.054.3.3 0 0 0 .071-.065zm1.045-.607a7 7 0 0 0-.572.253c-.19.099-.371.216-.473.354l.121.089c.08-.108.234-.213.42-.31.185-.095.39-.178.56-.247zm.023-.009-.023.01.056.138.023-.009zm.297-.213a1 1 0 0 1-.128.124.7.7 0 0 1-.169.09l.056.138a.8.8 0 0 0 .203-.109c.052-.04.095-.085.147-.14zm.094-.098-.094.098.109.103.092-.095zm.21 0c-.101.006-.113-.098-.109-.103l-.002.002-.01.01-.03.03-.059.061.107.106.06-.062.03-.03.01-.01.002-.003zc.004-.005-.008-.11-.108-.104zm-.022-.19-.086.086.107.105.083-.083zm.059-.063-.059.063.104.108q.034-.034.066-.071zm.544-.272c-.285-.022-.444.16-.544.272l.111.1c.104-.116.217-.238.422-.222zm.06-.053a.056.056 0 0 1-.06.053l-.011.15a.206.206 0 0 0 .22-.193zm.809 1.832a.21.21 0 0 0-.095-.279l-.066.135a.06.06 0 0 1 .026.078zm-.277.095a.206.206 0 0 0 .277-.095l-.135-.066a.056.056 0 0 1-.075.027zm-.474.048c.14-.068.29-.14.474-.048l.067-.134c-.256-.127-.471-.019-.607.048zm-.088.041q.044-.018.088-.04l-.066-.135q-.045.023-.078.036zm-.108.046.108-.046-.056-.139-.112.048zm-.134.06c.015-.008.05-.023.079-.036l.04-.017.011-.005.004-.002h.001c.007-.004.034-.106-.06-.138h-.001l.06.138c-.095-.032-.068-.133-.061-.137q-.002 0-.003.002l-.012.005-.04.017-.078.034zm-.121.053.12-.054-.059-.138-.124.056zm-.418.1a1 1 0 0 0 .23-.025c.063-.017.119-.043.188-.075l-.063-.136a1 1 0 0 1-.165.066.7.7 0 0 1-.19.02zm-.024 0h.024v-.15h-.024zm-1.117.149c.113-.07.296-.11.505-.13.207-.019.428-.019.612-.019v-.15c-.183 0-.41 0-.626.02-.212.02-.425.061-.57.151zm-.407-.026c.025.042.07.059.101.066q.054.011.109.009a1 1 0 0 0 .106-.015.3.3 0 0 0 .09-.034l-.078-.128a.2.2 0 0 1-.046.016.4.4 0 0 1-.079.01.3.3 0 0 1-.067-.004c-.02-.004-.014-.008-.008.003zm-.049-.395c-.051.032-.057.088-.055.12a.4.4 0 0 0 .023.106c.024.066.06.135.08.169l.13-.077a1 1 0 0 1-.068-.142.2.2 0 0 1-.015-.062c-.001-.017.004.001-.016.014zm1.354-.148a9 9 0 0 0-.731.005 3 3 0 0 0-.347.044.9.9 0 0 0-.276.099l.079.128a.7.7 0 0 1 .228-.08 2 2 0 0 1 .325-.04 9 9 0 0 1 .718-.006zm.243.004q-.106 0-.243-.004l-.004.15c.09.002.176.004.247.004zm.244-.06a.6.6 0 0 1-.11.046.5.5 0 0 1-.134.014v.15a.6.6 0 0 0 .174-.019c.048-.013.088-.033.135-.056zm.132-.061q-.082.036-.132.061l.065.135q.05-.024.127-.058zm.193.08c-.1-.04-.06-.138-.06-.138h-.002l-.003.002-.012.005-.04.017-.076.034.06.138.077-.034.04-.018.011-.005.004-.001s.04-.1-.06-.138zm.058-.189-.119.05.06.138.116-.049zm.065-.026-.064.026.056.14.066-.028zm.834-.05c-.331-.164-.623-.038-.834.05l.058.138c.216-.09.446-.184.709-.053zm-.096 2.043a.06.06 0 0 1-.007.083l.1.113a.21.21 0 0 0 .021-.293zm-.673-.227c.234 0 .483.005.673.227l.114-.097c-.24-.28-.558-.28-.786-.28zm-.072-.001h.072l.001-.15h-.07zm-.126 0h.126l.003-.15h-.13zm0 0h.002l-.002-.15zm-.144.002.145-.002-.001-.15-.145.002zm-.14.004q.055-.004.14-.004v-.15q-.092 0-.147.005zm-.312-.052a.6.6 0 0 0 .167.05.7.7 0 0 0 .146.002l-.008-.15a.6.6 0 0 1-.118 0 .5.5 0 0 1-.129-.04zm-.227-.1q.125.057.227.1l.058-.138-.222-.098zm-1.219-.381a.7.7 0 0 1 .241.015q.145.03.316.09c.224.08.462.186.662.276l.062-.137a9 9 0 0 0-.675-.28 3 3 0 0 0-.336-.096.9.9 0 0 0-.293-.016zm.016.213a1 1 0 0 1-.006-.157.2.2 0 0 1 .01-.063c.006-.015.004.003-.02.007l-.023-.148c-.059.009-.086.058-.098.088a.4.4 0 0 0-.02.107c-.004.07.003.148.009.187zm.193.056a.2.2 0 0 1-.048-.004.4.4 0 0 1-.077-.02.3.3 0 0 1-.06-.03c-.016-.012-.01-.014-.008-.002l-.148.021a.16.16 0 0 0 .067.101.4.4 0 0 0 .097.05q.052.02.103.028a.3.3 0 0 0 .097.004zm1.168.31a7 7 0 0 0-.584-.226c-.203-.065-.415-.11-.584-.084l.023.148c.133-.02.316.015.516.079.198.063.401.149.57.22zm.023.01-.023-.01-.058.138.022.01zm.36.059a1 1 0 0 1-.178-.004.7.7 0 0 1-.182-.056l-.059.138a1 1 0 0 0 .22.067c.066.009.128.007.203.005zm.136-.003q-.079 0-.136.003l.004.15q.058-.003.133-.003zm.148.148c-.075-.068-.009-.15-.003-.15h-.06l-.085.002.001.15.087-.001h.056zc.006 0 .072-.082-.003-.15zm.12-.15h-.122l.002.15h.117zm.086-.003-.086.003-.003.15q.048 0 .097-.003zm.577.193c-.186-.217-.426-.201-.577-.193l.008.15c.155-.009.322-.015.455.14zm.08.005a.056.056 0 0 1-.08-.005l-.114.098a.206.206 0 0 0 .292.02zm-.735 1.862a.21.21 0 0 0 .13-.263l-.142.048a.06.06 0 0 1-.037.074zm-.263-.128c.036.11.155.166.263.128l-.05-.141a.056.056 0 0 1-.071-.035zm-.37-.3c.147.05.304.105.37.3l.142-.048c-.091-.27-.32-.346-.463-.395zm-.09-.034q.043.018.09.033l.049-.142-.08-.03zm-.11-.044.11.044.058-.138-.113-.046zm-.136-.053.12.046.013.005.005.002c.006.002.097-.05.053-.14l-.054.14c-.044-.09.047-.142.053-.14h.001l-.004-.002-.012-.004-.04-.016-.08-.03zm-.124-.048.124.047.055-.139-.127-.048zm-.366-.224c.068.068.122.11.18.144s.115.054.186.08l.052-.14a1 1 0 0 1-.164-.07.7.7 0 0 1-.148-.12zm-.017-.018.017.018.106-.106-.017-.018zm-.895-.684c.13.03.287.132.449.266.16.132.316.288.446.418l.106-.106c-.13-.129-.29-.29-.457-.428-.164-.136-.343-.257-.51-.296zm-.27-.306a.16.16 0 0 0 .025.118q.03.046.071.083a1 1 0 0 0 .085.065.3.3 0 0 0 .089.04l.034-.146a.2.2 0 0 1-.043-.022.4.4 0 0 1-.064-.048.3.3 0 0 1-.044-.05c-.01-.017-.004-.016-.007-.004zm.245-.314c-.058-.014-.102.022-.124.045a.4.4 0 0 0-.058.092 1 1 0 0 0-.063.177l.146.036a1 1 0 0 1 .052-.148.2.2 0 0 1 .034-.055c.01-.012.002.004-.021-.001zm1.062.852a9 9 0 0 0-.52-.513 3 3 0 0 0-.276-.214.9.9 0 0 0-.266-.125l-.034.146q.093.022.218.104.125.083.258.202c.179.157.36.345.511.504zm.17.175-.17-.175-.108.104.172.177zm.214.13a.6.6 0 0 1-.11-.044.5.5 0 0 1-.104-.086l-.106.106a.6.6 0 0 0 .136.11c.043.025.086.04.135.056zm.137.05q-.084-.032-.137-.05l-.05.142q.053.017.132.048zm.08.193c-.043-.098.054-.14.054-.14h-.001l-.003-.002q-.005 0-.013-.005l-.04-.015-.077-.03-.055.14.079.03.04.015.012.005zs.097-.043.055-.14zm.174-.091-.12-.049-.055.14.117.047zm.065.027-.065-.027-.058.138.066.027zm.624.554c-.117-.35-.413-.468-.624-.554l-.057.138c.216.089.445.186.539.464zm-1.524 1.377a.06.06 0 0 1-.063.054l-.01.15a.21.21 0 0 0 .222-.192zm-.315-.636c.164.165.337.344.315.636l.15.012c.028-.368-.198-.592-.358-.754zm-.05-.052.05.052.107-.106-.05-.05zm-.089-.088q.05.048.088.088l.108-.104-.091-.092zm-.104-.102.06.06q.018.016.031.03l.01.008.002.003h.001s.106 0 .105-.107l-.105.108c-.001-.106.105-.108.105-.108h-.001l-.003-.003-.04-.039-.06-.058zM18 15.11q.041.036.102.095l.106-.106-.107-.1zm-.184-.259a.6.6 0 0 0 .082.155 1 1 0 0 0 .102.104l.1-.111a1 1 0 0 1-.082-.084.5.5 0 0 1-.063-.12zm-.09-.23.09.23.139-.056-.088-.227zm-.592-1.132q.075.058.16.181.081.125.159.287c.103.215.196.458.274.664l.14-.053c-.078-.205-.173-.455-.279-.676a3 3 0 0 0-.17-.305.9.9 0 0 0-.195-.219zm-.14.163a1 1 0 0 1 .107-.116.2.2 0 0 1 .052-.037c.015-.007 0 .004-.019-.01l.089-.12c-.049-.036-.103-.02-.132-.007a.4.4 0 0 0-.09.061 1 1 0 0 0-.126.138zm.098.176a.2.2 0 0 1-.032-.037.4.4 0 0 1-.04-.07.3.3 0 0 1-.02-.063c-.003-.02.002-.016-.005-.006l-.12-.09a.16.16 0 0 0-.024.118.4.4 0 0 0 .033.104 1 1 0 0 0 .053.093.3.3 0 0 0 .066.071zm.607 1.044a7 7 0 0 0-.254-.572c-.098-.19-.215-.371-.353-.473l-.089.121c.108.08.212.234.31.42.095.185.178.39.247.56zm.009.023-.01-.023-.139.056.01.023zm.213.297a1 1 0 0 1-.124-.128.7.7 0 0 1-.09-.169l-.138.056a.8.8 0 0 0 .249.35zm.098.094-.098-.094-.104.109q.043.038.096.092zm0 .21-.001-.002c-.006-.1.099-.112.104-.107l-.002-.002-.01-.01-.03-.03-.061-.059-.106.107.062.06.03.03.01.01zc.006.005.11-.007.105-.107v-.001zm.19-.022-.086-.086-.105.107.083.083zm.063.059-.063-.059-.108.104.071.067zm.272.544c.022-.285-.16-.444-.272-.544l-.1.112c.116.103.238.216.222.42zm.053.06a.056.056 0 0 1-.053-.06l-.15-.011a.206.206 0 0 0 .193.22zm-1.848.802a.21.21 0 0 0 .278-.094l-.134-.067a.06.06 0 0 1-.079.026zm-.095-.277a.206.206 0 0 0 .095.277l.065-.135a.056.056 0 0 1-.026-.075zm-.049-.473c.069.139.14.29.049.473l.134.067c.127-.256.018-.47-.048-.607zm-.04-.088q.017.043.04.088l.135-.067-.037-.077zm-.046-.108.045.108.14-.056-.048-.113zm-.06-.135.053.119.005.012.002.004c.003.007.104.034.137-.06l-.137.06c.032-.095.133-.068.137-.062l-.002-.003-.005-.012-.052-.117zm-.054-.12.054.12.138-.06-.056-.123zm-.1-.418c0 .096.008.164.026.229.017.063.043.12.074.188l.136-.062a1 1 0 0 1-.066-.165.7.7 0 0 1-.02-.19zm0-.025v.025h.15v-.025zm-.148-1.117c.07.114.109.296.129.506.02.207.02.427.02.611h.15c0-.182 0-.41-.02-.625-.02-.213-.062-.425-.152-.57zm.026-.407a.16.16 0 0 0-.067.102.4.4 0 0 0-.008.108 1 1 0 0 0 .014.107.3.3 0 0 0 .035.09l.127-.079a.2.2 0 0 1-.015-.046.4.4 0 0 1-.011-.078.3.3 0 0 1 .004-.067c.005-.02.009-.014-.002-.008zm.395-.048c-.032-.052-.088-.057-.12-.056a.4.4 0 0 0-.106.024c-.067.023-.135.06-.17.08l.078.129a1 1 0 0 1 .142-.068.2.2 0 0 1 .062-.015c.016 0-.001.005-.014-.015zm.148 1.353c.004-.218.01-.486-.006-.73a3 3 0 0 0-.043-.347.9.9 0 0 0-.1-.276l-.127.079q.05.08.08.227.03.146.04.326c.016.237.01.497.006.717zm-.004.244q0-.105.004-.244l-.15-.004-.004.248zm.06.243a.6.6 0 0 1-.047-.109.5.5 0 0 1-.013-.134h-.15c0 .073.005.125.019.174.013.047.033.088.055.135zm.06.133-.06-.133-.136.066c.017.034.036.073.059.126zm-.079.192c.039-.099.138-.06.138-.06v-.001l-.002-.004-.006-.012-.017-.039-.033-.076-.138.06.034.077.017.039.005.012zs.1.039.138-.06zm.188.06-.05-.12-.138.06.05.115zm.027.064-.027-.065-.139.056.028.067zm.05.833c.164-.33.038-.623-.05-.833l-.138.058c.09.215.183.446.053.708zm-2.061-.095a.06.06 0 0 1-.083-.007l-.113.1a.21.21 0 0 0 .293.021zm.227-.673c0 .234-.005.482-.227.673l.097.114c.28-.24.28-.558.28-.786zm.001-.072v.072l.15.001v-.07zm0-.125v.125l.15.003v-.13zm-.002-.145.002.145.15-.002-.002-.144zm-.004-.14q.004.055.004.14h.15q0-.092-.004-.147zm.052-.313a.7.7 0 0 0-.05.168.7.7 0 0 0-.002.146l.15-.008a.6.6 0 0 1 0-.118.5.5 0 0 1 .04-.129zm.1-.226q-.057.126-.1.226l.138.059.099-.223zm.381-1.219a.7.7 0 0 1-.015.24q-.03.147-.09.316a9 9 0 0 1-.276.663l.137.062c.09-.2.2-.443.28-.675.04-.116.075-.23.096-.336a.9.9 0 0 0 .016-.293zm-.213.016c.033-.004.1-.01.157-.007q.044.003.063.01c.015.007-.003.005-.007-.019l.148-.023c-.009-.06-.058-.086-.088-.098a.4.4 0 0 0-.107-.02 1 1 0 0 0-.187.009zm-.056.193q-.001-.009.004-.048l.02-.077a.3.3 0 0 1 .03-.06c.013-.016.014-.01.002-.008l-.021-.148a.16.16 0 0 0-.101.067.4.4 0 0 0-.05.097 1 1 0 0 0-.028.103.3.3 0 0 0-.004.097zm-.31 1.168c.072-.168.16-.378.226-.584.065-.203.11-.415.084-.584l-.148.023c.02.132-.015.315-.079.516-.062.198-.149.401-.22.57zm-.01.023.01-.023-.138-.058-.01.022zm-.058.36a1 1 0 0 1 .003-.178.7.7 0 0 1 .056-.182l-.138-.059a1 1 0 0 0-.067.22c-.009.066-.007.128-.005.203zm.002.136-.002-.136-.15.004.002.133zm-.148.148c.068-.075.15-.01.15-.003v-.017l-.002-.128-.15.001.002.142zc0 .006.082.072.15-.003zm.15.12v-.122l-.15.002v.117zm.003.086L15.079 16l-.15-.003q0 .047.003.097zm-.193.577c.217-.186.201-.426.193-.577l-.15.008c.009.155.015.322-.14.455zm-.005.08a.056.056 0 0 1 .005-.08l-.098-.114a.206.206 0 0 0-.02.292zm-1.878-.728a.21.21 0 0 0 .263.13l-.048-.142a.06.06 0 0 1-.074-.037zm.128-.263a.206.206 0 0 0-.128.263l.141-.05a.056.056 0 0 1 .035-.071zm.3-.37c-.05.147-.106.304-.3.37l.048.142c.27-.091.346-.32.395-.463zm.034-.09-.033.09.142.049q.015-.048.03-.081zm.044-.11-.044.11.138.058.046-.113zm.053-.136-.031.08-.02.053-.002.004c-.002.007.05.098.14.054l-.14-.054c.09-.044.142.047.14.053l.002-.003.004-.013.016-.04.03-.079zm.048-.124-.047.124.139.055q.03-.074.048-.127zm.224-.366a1 1 0 0 0-.144.18c-.033.057-.054.115-.08.186l.14.052c.028-.073.045-.12.07-.164a.7.7 0 0 1 .12-.148zm.018-.017-.018.017.106.106.018-.017zm.684-.895c-.03.13-.132.286-.266.449-.132.16-.288.316-.418.446l.106.106c.129-.13.29-.29.428-.457.136-.164.257-.344.296-.51zm.306-.27a.16.16 0 0 0-.118.025.4.4 0 0 0-.083.071 1 1 0 0 0-.065.085.3.3 0 0 0-.04.089l.146.034a.2.2 0 0 1 .022-.043.4.4 0 0 1 .098-.108c.017-.01.016-.004.004-.007zm.314.245c.014-.058-.022-.102-.046-.124a.4.4 0 0 0-.091-.058 1 1 0 0 0-.177-.063l-.036.146a1 1 0 0 1 .148.052.2.2 0 0 1 .055.034c.012.01-.004.002.001-.021zm-.852 1.062a9 9 0 0 0 .513-.52c.08-.093.155-.186.214-.276a.9.9 0 0 0 .125-.266l-.146-.034a.7.7 0 0 1-.104.217q-.083.124-.202.26a9 9 0 0 1-.504.51zm-.175.17.175-.17-.104-.109c-.065.063-.127.122-.177.173zm-.13.213a.6.6 0 0 1 .044-.109.5.5 0 0 1 .086-.104l-.106-.106a.7.7 0 0 0-.11.136.7.7 0 0 0-.056.135zm-.05.138.05-.137-.142-.05-.048.131zm-.193.08c.097-.043.14.054.14.054v-.001l.002-.004.005-.012.015-.04.03-.077-.14-.056-.045.119-.005.012zs.043.097.14.055zm.091.174.049-.12-.14-.055-.047.117zm-.027.065.027-.065-.138-.058-.027.066zm-.554.624c.35-.118.468-.413.554-.624l-.138-.057c-.089.216-.186.445-.464.539zm-1.375-1.49a.06.06 0 0 1-.055-.062l-.15-.008a.21.21 0 0 0 .196.22zm.631-.326c-.163.167-.338.344-.631.326l-.01.15c.37.022.59-.208.749-.371zm.05-.051-.05.051.107.105.05-.05zm.088-.09-.087.09.106.106.09-.093zm.099-.106-.058.062-.03.03-.008.01-.003.003v.001s.003.105.109.103l-.109-.104c.106-.002.109.104.109.104v-.001l.003-.003.01-.01.028-.03.057-.061zm.094-.103-.094.103.108.104q.063-.067.099-.109zm.255-.19a.6.6 0 0 0-.153.086c-.039.03-.068.065-.102.104l.113.098a.6.6 0 0 1 .082-.085.5.5 0 0 1 .118-.064zm.229-.092q-.129.05-.23.093l.06.138.226-.092zm0 0 .056.139zm1.12-.613a.7.7 0 0 1-.177.163q-.123.084-.284.164a9 9 0 0 1-.66.285l.057.14c.203-.082.45-.18.67-.29a3 3 0 0 0 .302-.176.9.9 0 0 0 .215-.2zm-.164-.136a1 1 0 0 1 .118.104q.03.033.038.051c.007.015-.005 0 .009-.019l.122.087c.035-.05.018-.103.005-.132a.4.4 0 0 0-.063-.089 1 1 0 0 0-.14-.124zm-.174.1a.2.2 0 0 1 .036-.032l.068-.041a.3.3 0 0 1 .064-.022c.02-.004.016.002.006-.005l.088-.122a.16.16 0 0 0-.12-.021.4.4 0 0 0-.102.035 1 1 0 0 0-.092.054.3.3 0 0 0-.07.067zm-1.034.625c.168-.072.378-.16.568-.263.188-.102.367-.223.466-.362L14 12.962c-.078.11-.23.217-.415.317a7 7 0 0 1-.556.257zm-.023.01.023-.01-.059-.138-.022.01zm-.292.217a1 1 0 0 1 .125-.125.7.7 0 0 1 .167-.093l-.058-.138a.8.8 0 0 0-.201.113c-.052.04-.094.086-.144.142zm-.093.1.093-.1-.111-.1-.09.097zm-.21.003c.1-.006.115.098.11.102l.003-.002.01-.01.028-.03.059-.063-.109-.103-.097.103zc-.004.005.01.11.11.102zm.025.19q.038-.037.085-.087l-.11-.103q-.044.05-.08.085zm-.057.065q.032-.039.057-.064l-.106-.106-.065.072zm-.54.28c.285.018.44-.166.54-.28l-.114-.098c-.101.117-.212.242-.417.23zm-.059.055a.056.056 0 0 1 .059-.054l.009-.15a.206.206 0 0 0-.218.196zm-.822-1.854a.21.21 0 0 0 .094.278l.067-.134a.06.06 0 0 1-.026-.079zm.277-.096a.206.206 0 0 0-.277.096l.135.065a.056.056 0 0 1 .075-.026zm.474-.048c-.14.068-.29.14-.474.048l-.067.135c.256.127.471.018.607-.048zm.088-.04c-.029.01-.06.026-.088.04l.066.135q.044-.023.078-.037zm.108-.047-.108.046.056.14.112-.048zm.134-.059-.08.035-.038.017-.012.006-.004.001h-.001c-.006.004-.034.104.06.138l-.06-.138c.096.034.067.134.062.137l.003-.001.012-.005.04-.018.078-.034zm.121-.054-.12.054.059.138q.072-.031.124-.056zm.417-.1a.8.8 0 0 0-.228.025c-.064.017-.12.043-.189.075l.063.136c.07-.032.116-.053.165-.066a.7.7 0 0 1 .19-.02zm.025 0h-.025v.15h.025zm1.117-.149c-.114.07-.296.11-.505.13a7 7 0 0 1-.612.02v.15c.183 0 .41 0 .626-.021.212-.02.425-.061.57-.151zm.407.027a.16.16 0 0 0-.101-.067.4.4 0 0 0-.109-.008 1 1 0 0 0-.106.014.3.3 0 0 0-.09.034l.078.128a.2.2 0 0 1 .046-.016l.079-.01a.3.3 0 0 1 .067.004c.02.005.014.008.008-.002zm.049.395c.05-.032.056-.088.055-.12a.4.4 0 0 0-.023-.106 1 1 0 0 0-.08-.17l-.13.078a1 1 0 0 1 .068.142q.015.04.015.062c.001.016-.004-.002.016-.014zm-1.354.147c.219.005.486.01.731-.005q.186-.011.347-.043a.9.9 0 0 0 .276-.1l-.08-.127a.7.7 0 0 1-.227.08 2.4 2.4 0 0 1-.326.04 9 9 0 0 1-.717.005zm-.244-.003q.106 0 .244.004l.004-.15-.248-.004zm-.243.059a.6.6 0 0 1 .109-.046.5.5 0 0 1 .134-.013v-.15a.7.7 0 0 0-.173.018.7.7 0 0 0-.135.056zm-.133.061q.084-.036.133-.061l-.065-.135-.127.059zm-.192-.079c.099.039.06.138.06.138l.002-.001.003-.002.012-.005.039-.017.077-.034-.06-.137-.078.034-.038.017-.013.005zs-.038.099.06.138zm-.059.188.12-.05-.06-.138-.116.049zm-.065.027.065-.027-.056-.14-.066.028zm-.833.049c.331.164.623.04.833-.049l-.057-.139c-.215.09-.446.184-.709.054zm.095-2.043a.06.06 0 0 1 .007-.083l-.098-.112a.21.21 0 0 0-.022.292zm.674.228c-.234-.001-.483-.005-.674-.228l-.113.097c.24.281.558.28.786.28zm.071 0h-.072v.15h.07zm.125 0h-.125l-.002.15h.13zm.146-.001-.146.002.002.15.145-.002zm.139-.005-.14.005.002.15q.09-.001.146-.005zm.313.053a.7.7 0 0 0-.167-.052.7.7 0 0 0-.146 0l.008.149a.6.6 0 0 1 .118 0 .5.5 0 0 1 .129.04zm.226.1q-.125-.058-.226-.1l-.058.137.223.1zm1.22.38a.7.7 0 0 1-.241-.015 2.4 2.4 0 0 1-.316-.09 9 9 0 0 1-.663-.276l-.061.137c.2.09.443.2.675.28.115.041.23.075.336.096a.9.9 0 0 0 .292.017zm-.017-.213c.005.033.01.1.007.157a.2.2 0 0 1-.01.063c-.006.015-.004-.003.02-.007l.022.149c.06-.01.087-.059.098-.09a.4.4 0 0 0 .02-.106 1 1 0 0 0-.008-.187zm-.193-.056q.01-.001.049.004l.076.02q.04.016.06.031c.016.012.01.013.008.001l.149-.02a.16.16 0 0 0-.068-.102.4.4 0 0 0-.096-.05 1 1 0 0 0-.104-.028.3.3 0 0 0-.096-.004zm-1.168-.31c.169.072.378.161.584.226.204.065.415.11.584.084l-.022-.148c-.133.02-.316-.015-.516-.079-.198-.062-.402-.149-.57-.22zm-.022-.009.022.01.06-.138-.024-.01zm-.36-.06a1 1 0 0 1 .178.004.7.7 0 0 1 .182.056l.058-.138a1 1 0 0 0-.22-.066c-.065-.01-.127-.007-.203-.005zm-.136.003.136-.002-.005-.15-.132.002zm-.148-.148c.074.068.009.15.003.15h.017l.127-.002v-.15l-.13.002zc-.006 0-.072.083.003.15zm-.12.15h.122l-.002-.15h-.117zm-.086.003.086-.003.003-.15q-.048 0-.097.004zm-.577-.193c.186.218.426.202.577.193l-.008-.15c-.155.009-.322.016-.455-.14zm-.08-.005a.056.056 0 0 1 .08.005l.114-.097a.206.206 0 0 0-.293-.02zm.735-1.862a.21.21 0 0 0-.13.264l.142-.048a.06.06 0 0 1 .037-.074zm.263.128a.206.206 0 0 0-.263-.128l.05.142c.03-.01.061.005.071.034zm.37.301c-.147-.05-.304-.106-.37-.3l-.142.047c.091.271.32.346.463.395zm.09.034q-.043-.018-.09-.034l-.05.142q.05.016.082.03zm.11.044-.11-.044-.058.138.113.045zm.136.053-.08-.032-.04-.015-.013-.005-.005-.002c-.006-.002-.097.05-.053.14l.054-.14c.044.091-.047.143-.053.14l.003.002.012.005.12.046zm.124.047-.124-.047-.056.14.128.048zm.365.225a1 1 0 0 0-.18-.145 1 1 0 0 0-.185-.08l-.052.14c.073.028.12.045.163.07a.7.7 0 0 1 .149.12zm.018.017-.018-.017-.106.106.018.017zm.895.685c-.13-.031-.287-.132-.449-.267a7 7 0 0 1-.446-.418l-.106.106c.13.13.29.29.457.428.164.136.343.257.51.297zm.27.306a.16.16 0 0 0-.026-.119.4.4 0 0 0-.07-.082 1 1 0 0 0-.086-.065.3.3 0 0 0-.088-.04l-.034.146a.2.2 0 0 1 .043.021.4.4 0 0 1 .108.099c.01.017.004.016.007.004zm-.246.314c.059.013.103-.022.124-.046a.4.4 0 0 0 .059-.092 1 1 0 0 0 .062-.176l-.145-.036a1 1 0 0 1-.053.148.2.2 0 0 1-.033.054c-.011.013-.002-.004.02.002zm-1.061-.853c.151.158.336.351.52.513q.14.123.276.215a.9.9 0 0 0 .265.125l.035-.146a.7.7 0 0 1-.218-.105 2.4 2.4 0 0 1-.258-.202 8 8 0 0 1-.512-.504zm-.17-.175.17.175.108-.104-.172-.177zm-.214-.13c.052.018.081.028.11.044a.5.5 0 0 1 .104.086l.106-.106a.7.7 0 0 0-.136-.11 1 1 0 0 0-.135-.056zm-.137-.05q.084.033.137.05l.05-.142-.132-.048zm-.08-.192c.043.097-.055.14-.055.14h.002l.003.001.012.005.118.046.055-.14-.079-.03-.04-.016-.012-.005zs-.097.042-.055.14zm-.175.09.12.05.055-.14-.116-.047zm-.064-.026.064.027.059-.138-.066-.028zm-.624-.554c.117.35.413.468.624.554l.056-.139c-.216-.088-.445-.185-.538-.463zm1.524-1.378a.06.06 0 0 1 .063-.054l.01-.15a.21.21 0 0 0-.222.192zm.315.637c-.165-.166-.338-.345-.315-.637l-.15-.012c-.028.369.198.593.358.754zm.05.051-.05-.051-.107.105.05.05zm.089.089-.089-.089-.108.104q.04.043.092.092zm.104.101-.061-.06q-.019-.016-.03-.029l-.013-.012s-.106.001-.105.107l.105-.107c0 .106-.105.107-.105.107v.001q.002 0 .003.003l.04.038.06.059zm.1.096-.101-.095-.106.107.107.1zm.185.259a.6.6 0 0 0-.082-.154c-.03-.04-.064-.07-.103-.105l-.1.112c.04.036.063.057.083.083s.038.059.063.12zm.09.23-.09-.23-.14.056q.04.098.089.228zm.592 1.132a.7.7 0 0 1-.16-.181 2.4 2.4 0 0 1-.16-.287 9 9 0 0 1-.273-.663l-.14.053c.078.204.172.454.279.675.053.11.11.216.17.305a.9.9 0 0 0 .195.219zm.14-.162a1 1 0 0 1-.107.116.2.2 0 0 1-.052.037c-.015.007 0-.005.019.009l-.09.12c.05.037.104.02.133.007a.4.4 0 0 0 .09-.061c.052-.047.102-.106.126-.138zm-.098-.176a.2.2 0 0 1 .032.037q.021.03.04.069a.3.3 0 0 1 .02.063c.003.02-.002.017.005.007l.12.09a.16.16 0 0 0 .023-.12.4.4 0 0 0-.032-.103 1 1 0 0 0-.054-.093.3.3 0 0 0-.065-.071zm-.607-1.045c.069.17.154.38.253.573.099.189.216.37.354.472l.089-.121c-.108-.08-.213-.234-.31-.42a7 7 0 0 1-.247-.56zm-.009-.023.01.023.138-.056-.009-.023zm-.213-.296c.057.053.093.087.124.128a.7.7 0 0 1 .089.168l.14-.056a1 1 0 0 0-.11-.203 1 1 0 0 0-.14-.146zm-.098-.095.098.095.103-.11-.095-.091zm0-.209c.005.1-.099.112-.104.108l.003.003.01.009.03.03.061.06.106-.107-.062-.06-.031-.03zc-.005-.005-.11.007-.104.107zm-.19.021q.036.04.086.086l.104-.107-.083-.083zm-.063-.058q.037.032.063.058l.107-.104q-.032-.033-.07-.066zm-.272-.545c-.022.285.16.444.272.545l.1-.112c-.116-.103-.238-.217-.223-.421zm-.053-.06c.033.003.055.03.053.06l.15.012a.206.206 0 0 0-.193-.221z"/><path fill="#FFC125" fill-rule="evenodd" d="M16 7a.12.12 0 0 0-.118.11l-.215 3.048h.667l-.215-3.047A.12.12 0 0 0 16 7m4.98 4.934a.12.12 0 0 0-.111-.119l-3.047-.214v.666l3.047-.214a.12.12 0 0 0 .11-.119m-4.86 4.824a.12.12 0 0 1-.239 0l-.214-3.047h.667zm-5.099-4.824a.12.12 0 0 0 .111.12l3.047.213v-.666l-3.047.214a.12.12 0 0 0-.11.12m8.399-3.436a.12.12 0 0 1 .165.171l-2.043 2.271-.463-.48zm.04 6.986a.12.12 0 0 0 .008-.163l-1.963-2.34-.48.463 2.272 2.042a.12.12 0 0 0 .162-.002m-6.879-.114a.12.12 0 0 1-.165-.17l2.043-2.272.463.48zm-.04-6.985a.12.12 0 0 0-.008.162l1.963 2.341.48-.463-2.272-2.043a.12.12 0 0 0-.162.003m1.525-.878a.12.12 0 0 1 .221-.09l1.34 2.745-.618.25zm6.55 2.579a.12.12 0 0 0-.146-.069l-2.906.943.25.618 2.745-1.34a.12.12 0 0 0 .058-.152m-2.682 6.276a.12.12 0 0 1-.22.089l-1.34-2.745.618-.25zm-6.55-2.58a.12.12 0 0 0 .147.07l2.906-.943-.25-.618-2.745 1.34a.12.12 0 0 0-.058.152m6.41-6.334a.12.12 0 0 1 .218.093l-.993 2.888-.614-.26zm2.79 6.414a.12.12 0 0 0-.056-.153l-2.721-1.388-.26.614 2.888.993a.12.12 0 0 0 .149-.066m-6.376 2.559a.12.12 0 0 1-.22-.093l.994-2.889.614.26zm-2.79-6.415a.12.12 0 0 0 .055.153l2.72 1.388.261-.614-2.888-.993a.12.12 0 0 0-.149.066" clip-rule="evenodd"/><path fill="#984111" d="m15.666 10.159-.075-.006-.006.08h.08zm.666 0v.075h.081l-.006-.08zm1.488 1.443.006-.075-.08-.006v.08zm0 .666h-.075v.08l.08-.005zm-2.154 1.443v-.075h-.08l.005.08zm.666 0 .075.006.006-.08h-.08zm-2.154-1.443-.005.075.08.006v-.08zm0-.666h.075v-.08l-.08.005zm3.363-.661-.054.052.056.058.053-.06zm-.463-.48-.049-.057-.061.052.056.057zm.426 2.52.057-.048-.051-.062-.058.056zm-.48.463-.052-.054-.058.056.06.054zm-2.566-.515.054-.052-.056-.058-.054.06zm.463.48.048.057.062-.051-.056-.058zm-.427-2.52-.057.048.052.062.057-.056zm.48-.463.052.054.058-.056-.06-.054zm.652-.263.028.07.075-.03-.035-.073zm-.618.25-.071.023.024.077.075-.03zm2.555.547-.023-.07-.077.024.03.075zm.25.619-.07.028.03.074.072-.035zm-1.44 2.128-.029-.07-.074.03.035.073zm.617-.25.072-.023-.025-.077-.075.03zm-2.554-.548.023.072.076-.025-.03-.075zm-.25-.618.07-.028-.03-.074-.073.035zm2.832-1.86-.03.068.074.032.026-.077zm-.614-.261-.067-.034-.037.071.075.032zm1.402 2.152.034-.067-.072-.036-.031.074zm-.26.614-.07-.03-.031.075.076.026zm-2.565.504.03-.07-.075-.03-.026.075zm.614.26.066.034.037-.071-.074-.032zm-1.402-2.152-.034.067.071.036.032-.074zm.26-.614.07.03.03-.075-.076-.026zm1.502-3.817A.044.044 0 0 1 16 7.076v-.15a.194.194 0 0 0-.194.18zm-.214 3.047.214-3.047-.15-.01-.214 3.046zm.591-.08h-.666v.15h.666zm-.289-2.967.215 3.047.15-.01-.215-3.048zM16 7.076c.023 0 .043.018.044.04l.15-.01a.194.194 0 0 0-.194-.18zm4.863 4.815c.023.002.041.02.041.044h.15a.194.194 0 0 0-.18-.194zm-3.047-.214 3.047.214.01-.15-3.046-.214zm.08.591v-.666h-.15v.666zm2.967-.289-3.047.215.01.15 3.048-.215zm.041-.044a.044.044 0 0 1-.04.044l.01.15a.194.194 0 0 0 .18-.194zM16 16.945a.194.194 0 0 0 .194-.181l-.15-.01a.044.044 0 0 1-.044.04zm-.194-.181c.008.101.092.18.194.18v-.15a.044.044 0 0 1-.044-.04zm-.214-3.047.215 3.047.15-.01-.215-3.048zm.742-.08h-.667v.15h.666zm-.14 3.127.214-3.047-.15-.01-.214 3.046zm-5.057-4.785a.044.044 0 0 1-.04-.044h-.15c0 .102.078.187.18.194zm3.047.215-3.047-.215-.01.15 3.047.214zm-.08-.592v.666h.15v-.666zm-2.967.289 3.047-.214-.01-.15-3.047.214zm-.04.044c0-.023.017-.043.04-.044l-.01-.15a.194.194 0 0 0-.18.194zm8.539-3.48a.194.194 0 0 0-.265-.014l.097.115a.044.044 0 0 1 .06.004zm.004.265a.194.194 0 0 0-.004-.265l-.108.104a.044.044 0 0 1 0 .06zm-2.043 2.271 2.043-2.27-.111-.101-2.043 2.27zm-.572-.478.463.48.108-.104-.463-.48zm2.346-2.072-2.34 1.963.096.115 2.34-1.963zm.039 6.93a.044.044 0 0 1-.003.06l.104.107a.194.194 0 0 0 .014-.264zm-1.962-2.342 1.962 2.341.115-.096-1.963-2.341zm-.37.47.48-.464-.105-.108-.48.463zm2.268 1.932-2.27-2.042-.1.111 2.27 2.043zm.06 0a.044.044 0 0 1-.06 0l-.1.112a.194.194 0 0 0 .265-.005zm-7.041-.016c.07.073.186.08.264.014l-.096-.115a.044.044 0 0 1-.06-.004zm-.005-.265a.194.194 0 0 0 .005.265l.108-.104a.044.044 0 0 1-.002-.06zm2.043-2.271-2.043 2.27.111.101 2.043-2.27zm.573.478-.463-.48-.108.104.463.48zm-2.347 2.072 2.341-1.963-.096-.115-2.341 1.963zm-.039-6.93a.044.044 0 0 1 .004-.06l-.105-.107a.194.194 0 0 0-.013.264zm1.963 2.342L12.589 8.5l-.114.096 1.962 2.341zm.37-.47-.48.464.104.108.48-.463zm-2.27-1.933 2.272 2.043.1-.111-2.27-2.043zm-.06.002a.044.044 0 0 1 .06-.002l.101-.111a.194.194 0 0 0-.265.005zm1.514-1.15a.194.194 0 0 0-.112.24l.143-.046a.044.044 0 0 1 .025-.054zm.247.095a.194.194 0 0 0-.247-.094l.056.139a.044.044 0 0 1 .056.021zm1.34 2.745-1.34-2.745-.135.066 1.34 2.745zm-.657.352.618-.25-.056-.138-.618.25zm-1.042-2.951.943 2.905.142-.046-.942-2.906zm6.497 2.558a.044.044 0 0 1 .055.026l.14-.056a.194.194 0 0 0-.24-.112zm-2.905.943 2.905-.943-.046-.142-2.905.942zm.296.519-.25-.619-.139.057.25.618zm2.642-1.38-2.744 1.34.065.135 2.745-1.34zm.022-.056a.044.044 0 0 1-.021.056l.065.135a.194.194 0 0 0 .095-.247zm-2.654 6.464a.194.194 0 0 0 .112-.24l-.142.047a.044.044 0 0 1-.026.054zm-.247-.094a.194.194 0 0 0 .247.095l-.056-.14a.044.044 0 0 1-.056-.021zm-1.34-2.745 1.34 2.745.135-.066-1.34-2.745zm.657-.352-.618.25.056.138.619-.25zm1.042 2.952-.942-2.906-.143.046.943 2.906zm-6.497-2.56a.044.044 0 0 1-.055-.025l-.139.056a.194.194 0 0 0 .24.113zm2.906-.942-2.906.943.046.143 2.906-.943zm-.297-.518.25.618.14-.057-.25-.618zm-2.642 1.379 2.745-1.34-.066-.135-2.745 1.34zm-.022.056a.044.044 0 0 1 .022-.056l-.066-.135a.194.194 0 0 0-.095.248zm6.522-6.431a.194.194 0 0 0-.249.09l.134.069a.04.04 0 0 1 .056-.02zm.108.242a.194.194 0 0 0-.108-.242l-.059.138c.022.01.032.033.025.055zm-.994 2.888.994-2.888-.142-.049-.993 2.889zm-.713-.215.613.26.059-.138-.614-.26zm1.35-2.824-1.388 2.72.134.069 1.388-2.721zm2.768 6.362c.02.01.03.035.02.057l.138.058a.194.194 0 0 0-.09-.249zm-2.721-1.388 2.72 1.388.069-.134-2.721-1.388zm-.158.576.26-.614-.137-.058-.26.614zm2.844.893-2.888-.993-.05.142 2.89.993zm.055-.024a.044.044 0 0 1-.055.024L20.41 14a.194.194 0 0 0 .241-.108zm-6.489 2.712c.094.04.203 0 .25-.09l-.134-.069a.044.044 0 0 1-.057.02zm-.107-.242a.194.194 0 0 0 .107.242l.06-.138a.044.044 0 0 1-.025-.055zm.993-2.888-.993 2.888.142.049.993-2.889zm.714.215-.614-.26-.059.138.614.26zm-1.35 2.825 1.387-2.722-.133-.068-1.388 2.721zm-2.768-6.363a.044.044 0 0 1-.02-.057l-.139-.058c-.04.094 0 .202.09.249zm2.72 1.388-2.72-1.388-.069.134 2.722 1.388zm.158-.576-.26.614.138.058.26-.614zm-2.844-.893 2.889.993.048-.142-2.888-.993zm-.055.024a.044.044 0 0 1 .055-.024l.049-.142a.194.194 0 0 0-.242.108z"/><path fill="#FFC125" fill-rule="evenodd" stroke="#984111" stroke-width="0.15" d="M16 13.843c1.067 0 1.933-.854 1.933-1.908s-.866-1.908-1.933-1.908-1.934.855-1.934 1.908c0 1.054.866 1.908 1.934 1.908Z" clip-rule="evenodd"/><path fill="#984111" d="m15.814 11.438-.125-.082a.8.8 0 0 0-.186-.093.3.3 0 0 0-.081-.014q-.178-.001-.494.223l-.078-.107q.345-.247.572-.248.059 0 .121.02a1 1 0 0 1 .218.108l.124.081.048.027c.159 0 .169.57.056.744a.5.5 0 0 1-.117.124l-.086.064c-.04.03-.052.048-.052.07 0 .003.048.015.155.01l.073-.005c.076-.006.086-.006.11-.006v.131c-.02 0-.03 0-.1.006l-.077.005c-.188.009-.294-.017-.294-.142 0-.071.034-.12.102-.173.012-.008.07-.05.086-.063a.4.4 0 0 0 .088-.092c.034-.053.055-.192.053-.34a1 1 0 0 0-.026-.205.3.3 0 0 1-.09-.043"/><path fill="#984111" fill-rule="evenodd" d="M16.35 11.391c-.028.02-.06.04-.07.046a.3.3 0 0 1-.09.044l-.01.032a1 1 0 0 0-.016.173c-.003.148.019.287.053.34a.4.4 0 0 0 .087.092l.054.04.032.023c.069.053.103.102.103.173 0 .125-.107.151-.294.142l-.078-.005-.1-.006v-.131c.025 0 .035 0 .11.006l.074.005c.107.005.155-.007.155-.01 0-.022-.013-.04-.052-.07l-.026-.02-.06-.044a.5.5 0 0 1-.117-.124c-.113-.175-.103-.744.056-.744h.001l.047-.027.065-.043.059-.038a1 1 0 0 1 .217-.108.4.4 0 0 1 .122-.02q.227.001.572.248l-.078.107q-.317-.224-.494-.223a.3.3 0 0 0-.082.014.8.8 0 0 0-.185.093zm-.156.08-.002.004z" clip-rule="evenodd"/><path fill="#984111" d="m16.412 12.766.061.043.046-.066-.069-.04zm-.832 0-.033-.066-.086.043.062.072zm.252.052-.023-.071-.13.04.104.088zm.354-.001.054.052.082-.085-.111-.038zm-.574-.043-.039-.064-.07.043.05.066zm.771 0 .064.039.036-.058-.055-.041zm.197-.037.065.038.034-.057-.053-.04zm-1.186-.005-.04-.063-.069.043.049.065zm.623-.167a.85.85 0 0 0-.384.092l.067.134a.7.7 0 0 1 .317-.076zm.365.096a.7.7 0 0 0-.365-.096v.15q.164 0 .287.074zm.068.041-.068-.041-.078.128.07.042zm-.022.173.045-.066-.123-.085-.046.065zm-.411.25c.172 0 .307-.101.41-.25l-.123-.086q-.13.188-.287.186zm-.431-.236c.12.14.264.236.43.236v-.15q-.156.001-.316-.184zm-.063-.073.063.072.114-.097-.063-.073zm.11-.16-.086.044.067.134.086-.043zm.384.169c-.032 0-.077-.013-.136-.064l-.098.114q.118.1.234.1zm.115-.06c-.047.049-.085.06-.115.06v.15a.3.3 0 0 0 .223-.106zm-.115.1q.083 0 .145.022l.049-.141a.6.6 0 0 0-.194-.03zm-.163.025a.5.5 0 0 1 .163-.025v-.15a.7.7 0 0 0-.208.032zm.163.066c-.1 0-.216-.057-.345-.227l-.12.09q.216.286.465.287zm.302-.221c-.101.167-.204.221-.302.221v.15q.254-.002.43-.293zm-.302-.001q.192 0 .321.1l.09-.12a.67.67 0 0 0-.411-.13zm-.366.104a.7.7 0 0 1 .366-.104v-.15a.85.85 0 0 0-.444.126zm.366-.404a1 1 0 0 0-.532.154l.079.128a.85.85 0 0 1 .453-.132zm.51.167a.8.8 0 0 0-.51-.167v.15q.242 0 .419.136zm.047.036-.046-.036-.092.119.046.035zm.052.04-.052-.04-.092.118.053.04zm-.015.155.034-.057-.129-.077-.034.057zm-.03.05.03-.05-.13-.077-.029.05zm-.564.374c.244 0 .43-.151.564-.374l-.129-.077q-.178.299-.435.301zm-.592-.356c.16.213.355.356.592.356v-.15q-.254-.001-.471-.296zm-.042-.057.042.057.12-.09-.042-.057zm-.049-.066.049.066.12-.09-.049-.065zm.09-.151-.07.043.08.127.07-.043zm.061-.038-.06.038.078.127.061-.037zm-.388-1.067a.6.6 0 0 1 .236-.047v-.15a.7.7 0 0 0-.3.062zm-.097.113c0-.044.036-.084.097-.113l-.065-.135c-.073.035-.182.113-.182.248zm.097.113c-.06-.029-.097-.069-.097-.113h-.15c0 .135.109.213.182.248zm.236.047a.6.6 0 0 1-.236-.047l-.065.136c.085.04.191.061.3.061zm.236-.047a.6.6 0 0 1-.236.047v.15c.11 0 .216-.02.3-.062zm.097-.113c0 .044-.036.084-.097.113l.064.136c.074-.036.183-.114.183-.249zm-.097-.113c.06.03.097.07.097.113h.15c0-.135-.11-.213-.183-.248zm-.236-.047a.6.6 0 0 1 .236.047l.064-.135a.7.7 0 0 0-.3-.062zm-.327.128a.1.1 0 0 0-.006.032h.15v.006l-.002.009-.004.012zm.02-.03a.1.1 0 0 0-.02.03l.138.059-.006.01zm.071-.051a.2.2 0 0 0-.071.05l.112.1q-.002 0 .024-.015zm.236-.047a.6.6 0 0 0-.236.047l.065.135a.4.4 0 0 1 .17-.032zm.236.047a.6.6 0 0 0-.236-.047v.15c.075 0 .135.015.17.032zm.071.05a.2.2 0 0 0-.071-.05l-.065.135q.025.014.024.015zm.02.03a.1.1 0 0 0-.02-.03l-.113.1-.005-.01zm.006.033a.1.1 0 0 0-.007-.032l-.138.059-.005-.02v-.007zm-.007.032a.1.1 0 0 0 .007-.032h-.15v-.006l.005-.02zm-.019.03a.1.1 0 0 0 .02-.03l-.139-.058.006-.01zm-.071.051a.2.2 0 0 0 .071-.05l-.113-.1q.002 0-.023.015zm-.236.047a.6.6 0 0 0 .236-.047l-.065-.135a.4.4 0 0 1-.171.032zm-.236-.047c.06.03.144.047.236.047v-.15a.4.4 0 0 1-.17-.032zm-.071-.05q.026.029.071.05l.065-.135q-.026-.014-.024-.015zm-.02-.03q.007.015.02.03l.112-.1.006.01zM15 11.633q0 .017.006.032l.138-.058.005.02v.006zm1.43-.113a.6.6 0 0 1 .236-.047v-.15a.7.7 0 0 0-.3.062zm-.097.113c0-.044.037-.084.098-.113l-.065-.135c-.074.035-.183.113-.183.248zm.098.113c-.061-.029-.098-.069-.098-.113h-.15c0 .135.11.213.183.248zm.235.047a.6.6 0 0 1-.235-.047l-.065.136c.084.04.19.061.3.061zm.236-.047a.6.6 0 0 1-.236.047v.15c.11 0 .216-.02.3-.062zm.098-.113c0 .044-.037.084-.098.113l.065.136c.073-.036.183-.114.183-.249zm-.098-.113c.06.03.098.07.098.113h.15c0-.135-.11-.213-.183-.248zm-.236-.047a.6.6 0 0 1 .236.047l.065-.135a.7.7 0 0 0-.3-.062zm-.326.128a.1.1 0 0 0-.007.032h.15v.006l-.002.009-.003.012zm.02-.03a.1.1 0 0 0-.02.03l.138.059-.006.01zm.07-.051a.2.2 0 0 0-.07.05l.112.1q-.002 0 .023-.015zm.236-.047a.6.6 0 0 0-.235.047l.064.135a.4.4 0 0 1 .171-.032zm.236.047a.6.6 0 0 0-.236-.047v.15c.075 0 .135.015.171.032zm.071.05a.2.2 0 0 0-.071-.05l-.065.135q.025.014.024.015zm.02.03a.1.1 0 0 0-.02-.03l-.112.1-.006-.01zm.007.033a.1.1 0 0 0-.007-.032l-.138.059-.005-.02v-.007zm-.007.032a.1.1 0 0 0 .007-.032h-.15l.005-.026zm-.02.03a.1.1 0 0 0 .02-.03l-.138-.058.006-.01zm-.071.051a.2.2 0 0 0 .071-.05l-.112-.1q.002 0-.024.015zm-.236.047a.6.6 0 0 0 .236-.047l-.065-.135a.4.4 0 0 1-.17.032zm-.235-.047a.54.54 0 0 0 .235.047v-.15a.4.4 0 0 1-.17-.032zm-.072-.05q.025.029.072.05l.064-.135q-.026-.014-.023-.015zm-.02-.03q.008.015.02.03l.113-.1.006.01zm-.006-.033q0 .017.007.032l.138-.058.005.02v.006z"/></g></g><defs><clipPath id="a"><path fill="#fff" d="M0 0h32v24H0z"/></clipPath></defs></svg>