<svg xmlns="http://www.w3.org/2000/svg" width="32" height="24" fill="none" viewBox="0 0 32 24"><g clip-path="url(#a)"><mask id="b" width="32" height="24" x="0" y="0" maskUnits="userSpaceOnUse" style="mask-type:luminance"><path fill="#fff" d="M32 0H0v24h32z"/></mask><g mask="url(#b)"><path fill="#fff" d="M32 0H0v24h32z"/><path fill="#F7FCFF" fill-rule="evenodd" d="M0 0h32v24H0z" clip-rule="evenodd"/><path fill="#3547A0" stroke="#E31D1C" stroke-width="2" d="M0-1h-1v12.307L-2.848 12l1.848.693V25h33l.351-1.936L2.848 12 32.351.936 32.001-1z"/><path fill="#9C3900" fill-rule="evenodd" d="m29.023 5.11-2.738.739c-.098.027-.285.074-.271-.193a7 7 0 0 1-1.508.68c-.153.042-.112-.223-.178-.299-.132.196-.473.482-.57.51q-1.436.416-1.908.604s-.45.432-.45.775c0 .342-.047.635-.356.635-.31 0-1.022.622-.761.972s1.118.164 1.118 0 .61-.369.61-.184c0 .184-.161.518-.161.518h.674l-.512.265h.512l-.512.314h.96l-.614.274h.426l-.26.36h.665s.259.262.503.405.785 1.36.514 1.831c-.27.472.061.542.122.335.062-.207.188-.504.297-.504h.316l.148.387.349.373s.025-.324.09-.373c0 0 .273.028.405-.004 0 0-.059-.472-.054-.535 0 0 .423.143.604.14 0 0-.272-.426-.272-.571 0 0 .505.026.505.24l-.056-.536s.479-.203.495-.375l-.313-.038s.163-.207.148-.247l-.463-.06s.506-.175.544-.287c0 0-.114-.178-.218-.248l-.353-.23.922.006s.207-.074.048-.201c0 0-.156-.094-.134-.184 0 0 .106-.204.081-.24 0 0 .113.15.113-.22 0 0 .003-.371-.068-.389 0 0 .208-.153.126-.25-.082-.098-.958-.358-1.167-.358l1.605-1.018s.111-.42.274-.671c0 0 .427-.383.512-.683s.328-1.04.328-1.04v-.339z" clip-rule="evenodd"/><path fill="#212121" fill-rule="evenodd" d="m26.21 12.564.066.004q.4.033.437.201l.011.1a.4.4 0 0 0-.011-.1l-.053-.5q.48-.204.495-.376l-.239-.029-.023.03-.014-.034-.037-.005.023-.029-.015-.034.037.004q.115-.153.103-.188l-.324-.042-.118.043s-.012-.064-.007-.065l-.006-.058.123.015q.379-.144.413-.24a.8.8 0 0 0-.218-.248l-.254-.165h-.1s.013-.064.02-.064l.016-.053.083.053.805.005q.206-.075.047-.201-.156-.094-.134-.184.051-.099.072-.158a.2.2 0 0 1-.043-.043l.052-.038.054-.036q.02.03.014.075.045-.027.045-.26a1.2 1.2 0 0 0-.03-.338l-.038-.05.016-.063a.1.1 0 0 1 .038.019q.143-.124.072-.208c-.072-.085-.758-.297-1.065-.347L26.456 9s-.03-.053-.02-.063l-.015-.054q.035 0 .088.008l1.517-.962q.11-.42.274-.671.426-.383.512-.683t.328-1.04v-.339l-.117-.087-2.738.74c-.098.027-.285.074-.271-.193a7 7 0 0 1-1.508.68c-.098.027-.116-.072-.134-.166-.01-.054-.02-.105-.044-.133-.132.196-.473.482-.57.51q-1.436.416-1.908.604-.45.433-.45.775c0 .342-.047.635-.356.635-.31 0-1.022.622-.761.972s1.118.164 1.118 0 .61-.369.61-.184q0 .185-.161.518h.535l.11-.056.015.063.014.057h-.123l-.39.201h.39l.09-.054.018.064.015.054h-.104l-.408.25h.803l.13-.058.014.064.012.058h-.142l-.471.21h.346l.027-.037.02.037h.033l-.02.027.02.037h-.046l-.214.296h.665q.259.263.503.405c.244.143.785 1.36.514 1.831-.27.472.061.542.122.335.062-.207.188-.504.297-.504h.316l.148.387.349.373s.025-.324.09-.373q.273.028.405-.004l-.008-.065a3 3 0 0 0-.067-.41l.021-.06s.064.014.064.02q.373.123.54.12-.22-.343-.265-.517a.2.2 0 0 1-.007-.054m.295-1.075-.256.089.654.083q-.034.057-.112.155l-.07.088.343.042c-.055.074-.198.165-.43.264l-.043.018.037.356a1.1 1.1 0 0 0-.414-.084l-.068-.003v.067c0 .1.072.261.215.496a3 3 0 0 1-.46-.126l-.08-.027-.007.083c-.003.046.013.203.047.488q-.118.014-.326-.007l-.046.012c-.046.034-.07.107-.09.224l-.01.055-.244-.262-.159-.417h-.361c-.14 0-.268.243-.359.55-.017.058-.06.076-.08.058-.04-.037-.03-.158.076-.343.135-.234.098-.637-.059-1.091-.135-.39-.337-.744-.478-.827a2.4 2.4 0 0 1-.49-.394l-.018-.02h-.568l.26-.36h-.252l.614-.273h-1.033l.513-.314h-.477l.512-.266h-.835q.125-.28.125-.454c0-.084-.064-.129-.155-.136a.7.7 0 0 0-.235.037c-.195.062-.35.169-.35.283 0 .005-.033.033-.098.06-.08.034-.19.06-.304.07-.269.025-.498-.032-.599-.167-.095-.128-.03-.33.162-.538.176-.19.416-.334.547-.334.172 0 .29-.08.354-.227.05-.114.068-.261.068-.471q-.001-.31.42-.72.474-.188 1.891-.598c.104-.03.37-.253.533-.418a.4.4 0 0 0 .046.144c.035.059.095.083.168.063.36-.1 1.014-.381 1.432-.63q.027.122.132.156c.063.02.12.013.214-.013l2.707-.731.067.049v.297q-.24.733-.326 1.033c-.053.186-.217.405-.505.666q-.164.252-.275.665L26.2 9.01h.22c.2 0 1.054.258 1.118.335.023.027-.002.076-.115.16l-.108.079.12.03a.2.2 0 0 1 .016.058q.015.091.014.272a1 1 0 0 1-.015.196s-.09.047-.093.047q0 .011-.01.035a2 2 0 0 1-.074.167c-.022.093.037.176.16.25.059.048.058.057-.022.086l-.91-.005-.22-.001.537.347a.7.7 0 0 1 .176.195.5.5 0 0 1-.109.072 3 3 0 0 1-.38.156" clip-rule="evenodd"/><path fill="#fff" fill-rule="evenodd" d="M27.407 10.793s1.909.254 2.024.254c.116 0 .596-.123.432-.891-.165-.77-.098-1.234-.569-1.234-.47 0-.962.204-1.139.204h-.748c-.742 0-5.163-.025-5.482.33-.318.354-1.214.854-1.628 1.03-.415.177-.522.054-.708.56-.187.507-.325.543-.325.543l.325.362h.966s.666-.835 2.047-.904 4.805-.254 4.805-.254" clip-rule="evenodd"/><path fill="#4D4D4D" fill-rule="evenodd" d="M22.602 11.047q1.382-.07 4.805-.254 1.91.254 2.024.254c.116 0 .596-.123.432-.891a9 9 0 0 1-.087-.481c-.075-.478-.12-.753-.482-.753-.292 0-.592.079-.82.138a1.6 1.6 0 0 1-.319.066h-.89c-1.044-.001-5.038-.007-5.34.33-.318.354-1.214.854-1.628 1.03-.107.046-.192.071-.265.093-.21.062-.304.09-.443.468q-.186.506-.325.541l.325.363h.966q.666-.835 2.047-.904m-2.093.809h-.876l-.225-.25c.09-.094.177-.267.272-.527q.055-.147.101-.225c.058-.098.104-.13.227-.168l.025-.008.115-.035q.094-.03.187-.069c.546-.232 1.375-.735 1.663-1.055.054-.06.383-.128.901-.177a29 29 0 0 1 1.814-.094 86 86 0 0 1 2.614-.026h.829a1 1 0 0 0 .21-.035l.273-.07a3 3 0 0 1 .655-.1c.227 0 .293.107.366.547l.018.11.028.171c.02.121.04.225.062.33.067.315.026.524-.089.651a.37.37 0 0 1-.248.125c-.07 0-.756-.086-2.029-.254q-3.423.185-4.805.254-1.392.07-2.088.905" clip-rule="evenodd"/><path fill="#FFC221" fill-rule="evenodd" d="M19.508 11.398s-.728.467-.46.781.293.354.346.354c0 0 .015-.336.1-.336.087 0 .77.326 1.017-.226.248-.551-1.003-.573-1.003-.573m-1.586 1.522 1.675-.31.643.695.186-.623.46.114v.314h.17v.431l1.205.252.151-.413s.393.647.995.615c.603-.032.71.139.816-.34.106-.478.402-.735.402-.735l.703.237s-.773.948-.403 1.247l2.754.637-.11.333h-.315l.085.288-3.01-.208s-.335.425-.335.316-.018-.108-.166-.108-.225-.208-.225-.208l-.196.075s.03.004-.216-.075c-.247-.08-.39-.08-.39-.08l-1.017-.075v.155s-.27.013-.176.075c.093.062 1.995.133 1.995.133l-.116.213s.94.004 1.138-.105c.197-.108.07.24.07.24h.934s-.232.22-.528.22.852.364.852.364-.642.2-.939.068.126.254.314.352-.66.088-.998-.288c0 0 .106.279 0 .359 0 0-.593-.699-.89-.699-.296 0 .047.46.047.46s-.17-.24-.358-.142c-.189.098-.329.208-.329.208s-.124-.427-.778-.603-.435-.241-.966-.298c-.53-.058-.558-.35-.63-.35-.073 0-.635-.49-.635-.49s-.125-.462.168-.462.757-.138.927 0 .242 0 .242 0h.3l.428.332h.851s.163-.252.422-.332 0-.305 0-.305-.618.035-.868.13c-.25.096-.09-.463-.09-.463l-1.115-.202-.17.202-.369.111v.222l-.389-.086.112-.663-.91.416z" clip-rule="evenodd"/><path fill="#4D4D4D" fill-rule="evenodd" d="m23.522 15.812.08-.15q-1.733-.065-1.964-.122a.1.1 0 0 1-.03-.01c-.093-.063.176-.076.176-.076v-.155l.065.005.951.07q.144 0 .39.08l.16.052.014-.021a.1.1 0 0 1 .032-.018h.02s-.005.063-.009.062l.137-.053.059-.022a.4.4 0 0 0 .086.147l.013.013a.2.2 0 0 0 .126.048c.148 0 .166 0 .166.108q0 .108.336-.316l3.009.208-.085-.224.013-.018-.013-.046h.048l.014-.018.005.018h.249l.109-.333-2.754-.637q-.37-.3.403-1.247l-.703-.237q-.296.257-.402.735c-.078.356-.158.353-.442.34a4 4 0 0 0-.374 0q-.603.033-.995-.615l-.151.413-1.205-.252v-.431h-.17v-.314l-.46-.114-.165.552.027.028-.038.009-.01.034-.024-.026-.038.008.011-.037-.592-.64-1.675.31 1.408 1.151.839-.383.007-.043.033.024.031-.014-.005.033.032.025-.04.018-.099.587.39.086v-.222l.368-.11.17-.203s1.052.187 1.057.192l.058.01-.017.062q-.129.492.107.402.25-.096.868-.131.26.225 0 .305a.76.76 0 0 0-.422.332h-.85l-.43-.332h-.299q-.072.138-.242 0c-.114-.092-.362-.06-.6-.03-.117.015-.231.03-.327.03q-.293 0-.168.461.561.492.634.492c.02 0 .037.022.063.056.064.088.185.251.568.293.288.03.355.064.46.116.09.044.206.101.506.182q.655.177.778.603s.14-.11.329-.208q.183-.095.348.128c-.056-.078-.301-.446-.037-.446q.297 0 .89.699.08-.06.04-.234a1 1 0 0 1-.089-.083s.05-.038.057-.033l.052-.031q.022.059.037.11c.378.29 1.073.289.901.2a1.7 1.7 0 0 1-.389-.317c-.041-.052-.041-.08.044-.048q.015.005.031.013.297.131.939-.068c-.446-.141-.729-.241-.865-.31q-.103-.054.014-.054l-.007-.016.025.016a.7.7 0 0 0 .383-.12h.051q.03-.033.056-.072l-.002-.008.021-.02h-.026l.005.02a1 1 0 0 1-.105.08h-.063a1 1 0 0 0 .092-.1h-.768l-.008.022-.015-.021h-.046l.015-.043.007-.021q.086-.274-.092-.177-.19.105-1.065.105l-.016.03-.018-.03h-.039l.018-.034-.018-.03zm-4.182-1.815-1.271-1.04 1.505-.279.696.754.2-.673.352.086v.329h.17v.419l1.31.274.127-.344q.393.565.982.536c.117-.007.21-.006.346 0 .227.009.277.006.351-.038.087-.053.134-.152.178-.352q.098-.437.354-.677l.58.196c-.488.619-.612 1.042-.325 1.274l2.7.625-.072.224h-.356l.084.28-2.951-.203-.021.027q-.15.188-.229.268c-.02-.07-.08-.085-.222-.085-.067 0-.121-.05-.164-.166l-.023-.061s-.244.084-.252.081l-.178-.059a1.4 1.4 0 0 0-.408-.082l-1.084-.08v.164l-.043.006a.3.3 0 0 0-.107.031c-.063.037-.06.109.003.15.077.051.678.092 1.925.14l-.118.217h.108c.64.002 1.024-.033 1.17-.113l.023-.012-.005.039a1 1 0 0 1-.04.136l-.032.085h.837a.66.66 0 0 1-.34.092.2.2 0 0 0-.075.01c-.047.019-.066.07-.035.113.02.03.066.054.15.09q.175.075.591.211-.465.113-.69.014a.4.4 0 0 0-.099-.032c-.05-.006-.097.02-.095.078.002.042.034.084.096.146.068.069.162.146.245.205a2 2 0 0 1-.151-.016c-.273-.044-.522-.149-.659-.301l-.232-.258.123.323q.057.15.049.223c-.377-.432-.665-.65-.878-.65-.097 0-.163.044-.18.123a.3.3 0 0 0 .023.17.28.28 0 0 0-.184.032l-.06.032q-.106.06-.207.13c-.113-.263-.38-.45-.793-.561a3 3 0 0 1-.362-.118l-.098-.044-.012-.006-.067-.032c-.109-.051-.211-.076-.437-.1-.196-.022-.33-.076-.423-.155a1 1 0 0 1-.1-.111 1 1 0 0 0-.061-.068.1.1 0 0 0-.052-.018l-.034-.019a2 2 0 0 1-.123-.088 10 10 0 0 1-.421-.354c-.068-.259-.027-.362.11-.362.085 0 .157-.008.341-.031l.037-.005c.296-.038.438-.036.508.021.128.104.246.114.32.015h.24l.429.332h.909l.019-.03a.7.7 0 0 1 .386-.305c.23-.07.23-.235.024-.414l-.047-.016q-.626.035-.887.135c-.048.018-.054.016-.061-.02q-.018-.099.056-.366l.02-.068-1.222-.222-.182.217-.397.12v.188l-.25-.055.122-.723zm4.067 1.534q.015.001.008-.003z" clip-rule="evenodd"/></g></g><defs><clipPath id="a"><path fill="#fff" d="M0 0h32v24H0z"/></clipPath></defs></svg>