<svg xmlns="http://www.w3.org/2000/svg" width="32" height="24" fill="none" viewBox="0 0 32 24"><g clip-path="url(#a)"><mask id="b" width="32" height="24" x="0" y="0" maskUnits="userSpaceOnUse" style="mask-type:luminance"><path fill="#fff" d="M32 0H0v24h32z"/></mask><g mask="url(#b)"><path fill="#fff" d="M32 0H0v24h32z"/><path fill="#2E42A5" fill-rule="evenodd" d="M0 0v24h32V0z" clip-rule="evenodd"/><mask id="c" width="18" height="14" x="0" y="0" maskUnits="userSpaceOnUse" style="mask-type:luminance"><path fill="#fff" d="M18 0H0v14h18z"/></mask><g mask="url(#c)"><path fill="#2E42A5" d="M18 0H0v14h18z"/><path fill="#F7FCFF" d="m-2.006 13 3.961 1.737L18.088 1.889l2.09-2.582-4.236-.58-6.58 5.536-5.297 3.73z"/><path fill="#F50100" d="m-1.463 14.216 2.018 1.008L19.428-.934h-2.833z"/><path fill="#F7FCFF" d="m20.004 13-3.961 1.737L-.09 1.889-2.18-.693l4.236-.58 6.58 5.536 5.297 3.73z"/><path fill="#F50100" d="m19.869 13.874-2.018 1.008-8.037-6.918-2.382-.773-9.813-7.875H.453l9.807 7.688 2.605.927z"/><path fill="#F50100" fill-rule="evenodd" d="M9.985 0h-2v6H0v2h7.985v6h2V8H18V6H9.985z" clip-rule="evenodd"/><path fill="#F7FCFF" fill-rule="evenodd" d="M6.485 0h5v4.5H18v5h-6.515L11.5 14h-5l-.015-4.5H0v-5h6.485zm1.5 6H0v2h7.985v6h2V8H18V6H9.985V0h-2z" clip-rule="evenodd"/></g><mask id="d" width="25" height="21" x="6" y="2" maskUnits="userSpaceOnUse" style="mask-type:luminance"><path fill="#fff" d="M31 2H6v21h25z"/></mask><g fill="#F7FCFF" mask="url(#d)"><path d="m9 20.5-1.3 1.203.128-1.768-1.752-.267 1.463-1.002-.884-1.537 1.695.52L9 16l.652 1.648 1.695-.518-.884 1.536 1.463 1.002-1.752.267.129 1.768zM22 13l-.867.802.086-1.178-1.168-.179.975-.668-.589-1.024 1.13.346L22 10l.434 1.099 1.13-.346-.59 1.024.976.668-1.169.178.087 1.179zm2-8-.867.802.086-1.179-1.168-.178.975-.668-.589-1.024 1.13.346L24 2l.434 1.099 1.13-.346-.59 1.024.976.668-1.169.178.087 1.179zm5 4-.867.802.086-1.179-1.168-.178.975-.668-.589-1.024 1.13.346L29 6l.434 1.099 1.13-.346-.59 1.024.976.668-1.169.178.087 1.179zm-4 13-.867.802.086-1.178-1.168-.179.975-.668-.589-1.024 1.13.346L25 19l.434 1.099 1.13-.346-.59 1.024.976.668-1.169.178.087 1.179zm3.5-7.75-.88.463.168-.981-.714-.695.986-.144.44-.893.442.893.985.143-.713.696.169.982z"/></g></g></g><defs><clipPath id="a"><path fill="#fff" d="M0 0h32v24H0z"/></clipPath></defs></svg>