<svg xmlns="http://www.w3.org/2000/svg" width="32" height="24" fill="none" viewBox="0 0 32 24"><g clip-path="url(#a)"><mask id="b" width="32" height="24" x="0" y="0" maskUnits="userSpaceOnUse" style="mask-type:luminance"><path fill="#fff" d="M32 0H0v24h32z"/></mask><g mask="url(#b)"><path fill="#fff" d="M32 0H0v24h32z"/><path fill="#2E42A5" fill-rule="evenodd" d="M0 0h32v24H0z" clip-rule="evenodd"/><path fill="#FECA00" fill-rule="evenodd" d="M9 0h20v24z" clip-rule="evenodd"/><path fill="#F7FCFF" fill-rule="evenodd" d="m6.108 2.793-1.175.618.224-1.309-.95-.927L5.52.984l.588-1.191.588 1.191 1.314.19-.95.928.224 1.309zm3.487 4.281-1.176.618.224-1.309-.95-.927 1.314-.19.588-1.192.587 1.191 1.315.191-.951.927.224 1.31zm3.268 4.164-1.176.618.225-1.309-.951-.927 1.314-.19.588-1.192.588 1.191 1.314.191-.95.927.224 1.31zm3.202 3.989-1.175.618.224-1.31-.95-.926 1.313-.191.588-1.191.588 1.19 1.314.192-.95.927.224 1.309zm3.449 4.109-1.175.618.224-1.31-.95-.926 1.314-.191.587-1.191.588 1.19 1.314.192-.95.927.224 1.309zm3.813 3.973-1.176.618.225-1.31-.951-.926 1.314-.191.588-1.191.588 1.19 1.314.192-.951.927.225 1.309z" clip-rule="evenodd"/></g></g><defs><clipPath id="a"><path fill="#fff" d="M0 0h32v24H0z"/></clipPath></defs></svg>