<svg xmlns="http://www.w3.org/2000/svg" width="32" height="24" fill="none" viewBox="0 0 32 24"><g clip-path="url(#a)"><mask id="b" width="32" height="24" x="0" y="0" maskUnits="userSpaceOnUse" style="mask-type:luminance"><path fill="#fff" d="M32 0H0v24h32z"/></mask><g mask="url(#b)"><path fill="#fff" d="M32 0H0v24h32z"/><path fill="#2E42A5" fill-rule="evenodd" d="M22 0h10v24H22z" clip-rule="evenodd"/><path fill="#FECA00" fill-rule="evenodd" d="M10 0h12v24H10z" clip-rule="evenodd"/><path fill="#2E42A5" fill-rule="evenodd" d="M0 0h10v24H0z" clip-rule="evenodd"/><path fill="#000" fill-rule="evenodd" d="M18.612 15.667c.188-1.29 1.52-4.092 1.52-4.092l.619-1.645-2.45.795.58.302-1.134 3.198-.857-.204V7.852l.677-.05-1.672-2.43-1.632 2.48h.787v6.169l-.965.161-.688-3.235.397-.333-2.665-.491.796 1.468s1.07 2.517 1.472 4.076l1.653-.127v2.397h1.84V15.54z" clip-rule="evenodd"/></g></g><defs><clipPath id="a"><path fill="#fff" d="M0 0h32v24H0z"/></clipPath></defs></svg>