<svg xmlns="http://www.w3.org/2000/svg" width="32" height="24" fill="none" viewBox="0 0 32 24"><g clip-path="url(#a)"><mask id="b" width="32" height="24" x="0" y="0" maskUnits="userSpaceOnUse" style="mask-type:luminance"><path fill="#fff" d="M32 0H0v24h32z"/></mask><g mask="url(#b)"><path fill="#fff" d="M32 0H0v24h32z"/><path fill="#5EAA22" d="M30 0H2a2 2 0 0 0-2 2v20a2 2 0 0 0 2 2h28a2 2 0 0 0 2-2V2a2 2 0 0 0-2-2"/><path fill="#DD2C2B" fill-rule="evenodd" d="M16 12 32 0H0zm0 0L0 24h32z" clip-rule="evenodd"/><mask id="c" width="48" height="30" x="-8" y="-3" maskUnits="userSpaceOnUse" style="mask-type:luminance"><path fill="#fff" d="M40-3H-8v30h48z"/><path fill="#000" fill-rule="evenodd" d="M16 12 32 0H0zm0 0L0 24h32z" clip-rule="evenodd"/></mask><g mask="url(#c)"><path fill="#fff" d="m32 0 1.5 2 6-4.5H32zM0 0v-2.5h-7.5l6 4.5zm0 24-1.5-2-6 4.5H0zm32 0v2.5h7.5l-6-4.5zM30.5-2l-16 12 3 4 16-12zM0 2.5h32v-5H0zM17.5 10 1.5-2l-3 4 16 12zm-3 0-16 12 3 4 16-12zM0 26.5h32v-5H0zM33.5 22l-16-12-3 4 16 12z"/></g><path fill="#fff" fill-rule="evenodd" d="M16 18a6 6 0 1 0 0-12 6 6 0 0 0 0 12" clip-rule="evenodd"/><path fill="#DD2C2B" fill-rule="evenodd" stroke="#5EAA22" stroke-width="0.25" d="m15.43 10.386-1.162.012.592-1-.592-1 1.162.013.57-1.013.57 1.013 1.162-.013-.592 1 .592 1-1.162-.012-.57 1.012zm-2.5 4.101-1.162.013.592-1-.592-1 1.162.013.57-1.013.57 1.013 1.162-.013-.592 1 .592 1-1.162-.013-.57 1.013zm5 0-1.162.013.592-1-.592-1 1.162.013.57-1.013.57 1.013 1.162-.013-.592 1 .592 1-1.162-.013-.57 1.013z" clip-rule="evenodd"/></g></g><defs><clipPath id="a"><path fill="#fff" d="M0 0h32v24H0z"/></clipPath></defs></svg>