<svg xmlns="http://www.w3.org/2000/svg" width="32" height="24" fill="none" viewBox="0 0 32 24"><g clip-path="url(#a)"><mask id="b" width="32" height="24" x="0" y="0" maskUnits="userSpaceOnUse" style="mask-type:luminance"><path fill="#fff" d="M32 0H0v24h32z"/></mask><g mask="url(#b)"><path fill="#fff" d="M32 0H0v24h32z"/><path fill="#AF0100" fill-rule="evenodd" d="M0 0v24h32V0z" clip-rule="evenodd"/><mask id="c" width="32" height="24" x="0" y="0" maskUnits="userSpaceOnUse" style="mask-type:luminance"><path fill="#fff" fill-rule="evenodd" d="M0 0v24h32V0z" clip-rule="evenodd"/></mask><g mask="url(#c)"><path fill="#fff" fill-rule="evenodd" d="M21.03 11.043h8.888v8.99s-.276 1.237-1.987 2.055c-1.711.817-2.457.817-2.457.817s-2.726-.67-3.29-1.297c-.563-.627-1.155-.859-1.155-1.955z" clip-rule="evenodd"/><mask id="d" width="9" height="12" x="21" y="11" maskUnits="userSpaceOnUse" style="mask-type:luminance"><path fill="#fff" fill-rule="evenodd" d="M21.03 11.043h8.888v8.99s-.276 1.237-1.987 2.055c-1.711.817-2.457.817-2.457.817s-2.726-.67-3.29-1.297c-.563-.627-1.155-.859-1.155-1.955z" clip-rule="evenodd"/></mask><g mask="url(#d)"><path fill="#CF142B" fill-rule="evenodd" d="M25.455 11.57a.5.5 0 0 0 .051-.093l-.003.15c.032.03.071.052.117.052l.197-.117s-.045.258.014.25c0 0 .184-.12.257-.055 0 0-.214.245.043.246 0 0 .324-.052.296.098 0 0-.243.446-.14.474l.4-.012s-.269.234-.261.332l.133.105s.075-.185.138-.034c0 0 .009.275-.033.275l-.357.114s-.022.134.105.134c0 0 .294-.125.303.002 0 0-.04.146-.056.27 0 0-.019.448-.022.487 0 0 .024-.017.248.247 0 0 .565.357.669.275.028-.022.047-.069.068-.121.056-.138.128-.318.44-.221h.003c.43.134.534.166.426.342s-.523.596-.523.596l-.358 1.438h.768c.232 0 .444.09.485.282s.052.565.052.61l-.002.024c-.008.062-.022.186.161.186 0 0 .367.048.291.074 0 0-.26-.05-.262.18 0 0-.1.029-.051.312 0 0 .201.62.067.492 0 0-.274-.323-.274-.46 0 0-.196.077-.19.28 0 0-.186.248-.18.005 0 0 .314-.596.139-.461 0 0-.228.492-.258.417l-.844-.228-.321 1.415s.086.265.322.265a.6.6 0 0 0 .23-.063c.122-.054.223-.099.32.063.151.254.219.278.293.278.075 0 .163.098.12.246-.045.15-.241.262-.327.262-.032 0-.024.026-.013.06.018.059.043.138-.117.138a1 1 0 0 1-.254-.03c-.064-.015-.127-.03-.253-.03h-.087c-.217.003-.401.005-.401-.138 0-.14-.167-.262-.315-.371l-.072-.054c-.159-.122-.506-1.498-.506-1.498l-.656-4.133-.02-.96-.02.96-.655 4.133s-.347 1.376-.507 1.498l-.071.053c-.148.11-.315.233-.315.372 0 .143-.184.14-.401.138h-.088c-.126 0-.189.015-.252.03a1 1 0 0 1-.254.03c-.16 0-.135-.08-.117-.137.01-.035.019-.061-.013-.061-.086 0-.283-.113-.326-.262-.044-.148.043-.246.118-.246s.143-.024.294-.278c.097-.162.198-.117.32-.063.069.03.145.063.23.063.236 0 .322-.265.322-.265l-.322-1.415-.844.228c-.03.075-.257-.417-.257-.417-.176-.135.139.46.139.46.005.244-.18-.005-.18-.005.006-.202-.19-.279-.19-.279 0 .137-.275.46-.275.46-.134.127.068-.492.068-.492.049-.283-.051-.313-.051-.313-.002-.229-.262-.179-.262-.179-.077-.026.29-.074.29-.074.184 0 .17-.124.162-.186l-.002-.024c0-.045.01-.418.052-.61.04-.192.253-.282.485-.282h.768l-.359-1.438s-.413-.42-.522-.596-.004-.208.425-.341l.003-.001c.313-.097.385.083.44.22.022.053.04.1.069.122.104.082.67-.275.67-.275.223-.264.246-.247.246-.247l-.021-.487c-.017-.124-.056-.27-.056-.27.008-.127.303-.002.303-.002.127 0 .104-.134.104-.134l-.356-.114c-.042 0-.034-.275-.034-.275.064-.15.139.034.139.034l.133-.105c.007-.098-.261-.332-.261-.332l.4.012c.103-.028-.14-.474-.14-.474-.028-.15.295-.098.295-.098.258-.001.044-.246.044-.246.073-.066.257.056.257.056.06.007.014-.251.014-.251l.197.117a.17.17 0 0 0 .117-.052l-.004-.15s.018.046.051.094" clip-rule="evenodd"/><path fill="#5DC852" fill-rule="evenodd" d="m21.222 20-.328-.322v3.642H30v-3.642l-.327.321c.05-.384-.025-.26-.114-.113-.042.07-.087.145-.124.175-.035.027-.043-.085-.05-.195-.007-.097-.014-.193-.039-.188 0 0-.099-.158-.16-.099-.012.012-.02.1-.031.2a2 2 0 0 1-.043.282c-.022.062-.093-.062-.093-.062s.004-.467-.068-.537c-.071-.07-.078.537-.078.537s-.11-.45-.22-.42c-.02.006-.029.123-.04.25-.01.123-.02.254-.04.299-.042.091-.14-.549-.14-.549s-.03.525-.127.549c-.016.004-.031-.08-.048-.174a1 1 0 0 0-.055-.224c-.045-.075-.258.218-.258.218l-.15-.604-.411.334H23.51l-.412-.334-.149.604s-.213-.293-.258-.218a1 1 0 0 0-.055.224c-.017.093-.032.178-.048.174-.098-.024-.127-.549-.127-.549s-.098.64-.14.549a1.4 1.4 0 0 1-.041-.3c-.01-.126-.02-.243-.039-.248-.11-.03-.22.42-.22.42s-.007-.608-.078-.538c-.072.07-.068.537-.068.537s-.07.124-.093.062a1.6 1.6 0 0 1-.043-.282 1 1 0 0 0-.031-.2c-.061-.06-.16.099-.16.099-.025-.005-.032.09-.039.188-.008.11-.016.222-.05.195a.8.8 0 0 1-.125-.175c-.088-.148-.162-.271-.113.113" clip-rule="evenodd"/><path fill="#4ABCE6" fill-rule="evenodd" d="M28.18 14.94s.043.11 0 .218zm-2.694-.178c.074.01.14.029.196.044.132.036.212.057.212-.055 0-.082.216.024.514.17.389.19.916.447 1.286.447.322 0 .445-.104.486-.21v.425c0 .076.017.166.033.251.029.155.054.293-.033.293-.134 0-.734.422-.734.909 0 .486.734.886.734.886s-.486 1.712-.912 1.974c-.258.158-.411.028-.492-.04-.052-.045-.073-.063-.073.04 0 .261-.37.63-.81.776-.284.094-.2.166-.106.248.052.045.107.092.107.148 0 .126-.348-.05-.487-.126-.14.076-.486.252-.486.126 0-.056.055-.103.106-.148.095-.082.178-.154-.106-.248-.44-.146-.81-.515-.81-.776 0-.103-.02-.085-.073-.04-.08.068-.234.198-.492.04-.426-.262-.912-1.974-.912-1.974s.734-.4.734-.886c0-.487-.6-.91-.734-.91-.087 0-.061-.137-.033-.292.016-.085.033-.175.033-.25v-.426c.041.106.164.21.486.21.37 0 .898-.258 1.286-.447.299-.146.515-.252.515-.17 0 .112.08.09.21.055.058-.015.124-.033.197-.044q.011-.01.022-.01l.057.001.057-.002q.012 0 .022.01m-2.852.177s-.043.11 0 .22z" clip-rule="evenodd"/><mask id="e" width="7" height="8" x="22" y="14" maskUnits="userSpaceOnUse" style="mask-type:luminance"><path fill="#fff" fill-rule="evenodd" d="M28.18 14.94s.043.11 0 .218zm-2.694-.178c.074.01.14.029.196.044.132.036.212.057.212-.055 0-.082.216.024.514.17.389.19.916.447 1.286.447.322 0 .445-.104.486-.21v.425c0 .076.017.166.033.251.029.155.054.293-.033.293-.134 0-.734.422-.734.909 0 .486.734.886.734.886s-.486 1.712-.912 1.974c-.258.158-.411.028-.492-.04-.052-.045-.073-.063-.073.04 0 .261-.37.63-.81.776-.284.094-.2.166-.106.248.052.045.107.092.107.148 0 .126-.348-.05-.487-.126-.14.076-.486.252-.486.126 0-.056.055-.103.106-.148.095-.082.178-.154-.106-.248-.44-.146-.81-.515-.81-.776 0-.103-.02-.085-.073-.04-.08.068-.234.198-.492.04-.426-.262-.912-1.974-.912-1.974s.734-.4.734-.886c0-.487-.6-.91-.734-.91-.087 0-.061-.137-.033-.292.016-.085.033-.175.033-.25v-.426c.041.106.164.21.486.21.37 0 .898-.258 1.286-.447.299-.146.515-.252.515-.17 0 .112.08.09.21.055.058-.015.124-.033.197-.044q.011-.01.022-.01l.057.001.057-.002q.012 0 .022.01m-2.852.177s-.043.11 0 .22z" clip-rule="evenodd"/></mask><g fill-rule="evenodd" clip-rule="evenodd" mask="url(#e)"><path fill="#fff" d="M22.465 16.893s2.186-.233 3.47-.233.594.08 1.087.135c.494.055.99.098.99.098v4.393h-5.547z"/><path fill="#FFDA3A" d="M22.985 16.272s-.178-.35.547-.476c.724-.125.949-.178 1.224.149.274.327.833 1.733.416 2.111-.416.378-.707.776-.872.637-.164-.138.188-.637-.683-.637h-1.17z"/><path fill="#B35A1F" d="m26.658 16.61-1.563.48s.141 1.067-.262 1.067-.575-2.31-.575-2.31h-.166l.53 2.54-.364.236 1.117.496 1.892-.962z"/></g><path fill="#FFD129" fill-rule="evenodd" d="M24.406 14.92c-.388.19-.916.448-1.286.448q-.387 0-.486-.15v.365c0 .076-.017.166-.033.251-.028.155-.054.293.033.293.134 0 .734.422.734.909q0 .487-.734.886.486 1.712.912 1.974c.228.14.375.054.465-.018l.027-.022c.052-.045.074-.063.074.04l.002.034c.03.259.386.602.807.742.284.094.2.166.106.248-.051.045-.106.092-.106.148q0 .15.486-.125.486.274.486.125c0-.056-.054-.103-.106-.148-.095-.082-.178-.154.107-.248.42-.14.776-.483.807-.748l.002-.028c0-.103.021-.085.076-.038l.028.023c.087.07.233.155.461.015q.426-.262.912-1.974-.734-.4-.734-.886c0-.487.6-.91.734-.91.087 0 .062-.137.033-.292a1.5 1.5 0 0 1-.033-.25v-.367q.069-.104 0-.278v.278q-.099.15-.486.151c-.37 0-.897-.258-1.286-.447-.298-.146-.515-.252-.515-.17 0 .112-.079.09-.21.055a2 2 0 0 0-.193-.044.04.04 0 0 0-.026-.01l-.057.001-.057-.002a.04.04 0 0 0-.026.011 2 2 0 0 0-.192.044c-.132.036-.211.057-.211-.055 0-.082-.216.024-.515.17" clip-rule="evenodd"/><path fill="#000" fill-rule="evenodd" d="M29.918 11.043h-8.889v8.61c0 .845.352 1.177.772 1.572.124.117.255.24.384.383q.563.627 3.289 1.297.745 0 2.457-.817 1.71-.817 1.987-2.055zm-8.11 9.897c-.419-.406-.57-.7-.57-1.287v-8.396h8.47v8.751c-.174.742-.79 1.371-1.865 1.886-1.096.523-1.884.787-2.346.796-1.76-.434-2.823-.854-3.158-1.227l-.082-.088a6 6 0 0 0-.233-.231z" clip-rule="evenodd"/></g><mask id="f" width="18" height="14" x="0" y="0" maskUnits="userSpaceOnUse" style="mask-type:luminance"><path fill="#fff" d="M18 0H0v14h18z"/></mask><g mask="url(#f)"><path fill="#2E42A5" d="M18 0H0v14h18z"/><path fill="#F7FCFF" d="m-2.006 13 3.961 1.737L18.088 1.889l2.09-2.582-4.236-.58-6.58 5.536-5.297 3.73z"/><path fill="#F50100" d="m-1.463 14.216 2.018 1.008L19.428-.934h-2.833z"/><path fill="#F7FCFF" d="m20.004 13-3.961 1.737L-.09 1.889-2.18-.693l4.236-.58 6.58 5.536 5.297 3.73z"/><path fill="#F50100" d="m19.869 13.874-2.018 1.008-8.037-6.918-2.382-.773-9.813-7.875H.453l9.806 7.688 2.605.927z"/><path fill="#F50100" fill-rule="evenodd" d="M9.985 0h-2v6H0v2h7.985v6h2V8H18V6H9.985z" clip-rule="evenodd"/><path fill="#F7FCFF" fill-rule="evenodd" d="M6.485 0h5v4.5H18v5h-6.515L11.5 14h-5l-.015-4.5H0v-5h6.485zm1.5 6H0v2h7.985v6h2V8H18V6H9.985V0h-2z" clip-rule="evenodd"/></g></g></g></g><defs><clipPath id="a"><path fill="#fff" d="M0 0h32v24H0z"/></clipPath></defs></svg>