<svg xmlns="http://www.w3.org/2000/svg" width="32" height="24" fill="none" viewBox="0 0 32 24"><g clip-path="url(#a)"><mask id="b" width="32" height="24" x="0" y="0" maskUnits="userSpaceOnUse" style="mask-type:luminance"><path fill="#fff" d="M32 0H0v24h32z"/></mask><g mask="url(#b)"><path fill="#fff" d="M32 0H0v24h32z"/><path fill="#FFD221" fill-rule="evenodd" d="M0 0v24h32V0z" clip-rule="evenodd"/><mask id="c" width="32" height="24" x="0" y="0" maskUnits="userSpaceOnUse" style="mask-type:luminance"><path fill="#fff" fill-rule="evenodd" d="M0 0v24h32V0z" clip-rule="evenodd"/></mask><g mask="url(#c)"><path fill="#313131" d="m-3.066 10.614 2.008-4.579 34.826 15.272-2.008 4.58z"/><path fill="#FAF9F9" d="M-3.018 5.568-1.01.988l36.558 16.024-2.007 4.58z"/><path fill="#CF1225" fill-rule="evenodd" d="M7.331 12.395C5.912 10.654 6.15 9.477 6.15 9.477s1.451.053 1.435.989c0 .395.521.77.97 1.092.34.245.637.459.637.63 0 .398.3 4.41.3 4.41s-.21.365-1.212.365-.949-.577-.949-.577c.608-.745 0-3.991 0-3.991m17.339 0c1.418-1.741 1.181-2.918 1.181-2.918s-1.451.053-1.435.989c0 .395-.521.77-.97 1.092-.34.245-.637.459-.637.63 0 .398-.3 4.41-.3 4.41s.21.365 1.212.365.949-.577.949-.577c-.608-.745 0-3.991 0-3.991m-8.61-9.524 1.127.804-.738.198.738.638-.92-.233v.645h.92l.307 1.511-.355-.252-.356.252-.356-.252-.356.252-.366-.252-.367.252-.366-.252-.366.252.461-1.511h.85V2.87zm5.026 5.077s-.344.303-1.08 0c-.247-.102-.516-.279-.798-.464-.56-.369-1.168-.768-1.727-.657-.839.166-1.212.566-1.212.566v-.922h-.361v.922s-.373-.4-1.212-.566c-.559-.111-1.166.288-1.727.657-.281.185-.551.362-.797.464-.737.303-1.08 0-1.08 0s0 .257.547.653c.238.171.51.159.741.09-.171.13-.254.281.019.403.566.252 1.497-.412 1.599-.487-.114.085-1.239.93-.723.93.542 0 1.421-.71 1.421-.71s-1.066 1.023-.493 1.182c.366.102.802-.43 1.007-.746.006.067.068.108.135.153.086.057.18.12.18.252 0 .17.043.198.08.224.028.02.054.037.054.117v.234l-.133.196s0 .304.133.547c.1.183.049.337-.04.602q-.043.126-.093.292c-.133.461.133 1.249.133 1.249h-.133s.133.097.133.485c0 .316-.088.496-.255.835l-.126.26c-.247.526.248 1.193.248 1.193s-.83-.364-.663 0c.127.28.828.551 1.147.663v.052l.079-.025.078.025v-.052c.319-.112 1.02-.384 1.148-.663.166-.364-.664 0-.664 0s.495-.667.248-1.192l-.126-.26c-.166-.34-.255-.52-.255-.836 0-.388.133-.485.133-.485h-.133s.266-.788.133-1.249q-.049-.167-.093-.292c-.088-.265-.14-.419-.04-.602.133-.243.133-.547.133-.547l-.133-.196v-.234c0-.08.026-.098.055-.117.037-.026.078-.055.078-.224 0-.131.095-.195.181-.252.067-.045.129-.086.136-.153.204.316.64.848 1.006.746.574-.159-.493-1.182-.493-1.182s.88.71 1.422.71c.515 0-.61-.845-.723-.93.102.075 1.032.74 1.599.487.273-.122.19-.274.018-.403.232.069.503.081.74-.09.549-.396.549-.653.549-.653m-1.824.466s.233.187.535.277a2.5 2.5 0 0 0-.535-.277m-2.363.68c-.09-.12-.048-.01.069.17.004-.044-.015-.098-.07-.17m-1.62 0c.09-.12.048-.01-.07.17-.003-.044.015-.098.07-.17m-2.363-.68s-.234.187-.536.277c.205-.155.536-.277.536-.277" clip-rule="evenodd"/><path fill="#CF1225" fill-rule="evenodd" d="M11.23 9.578s-1.194 1.624-1.062 3.359c.133 1.734 1.549 5.77 5.748 5.77h.107c4.45 0 5.713-4.45 5.713-6.051 0-1.614-1.007-3.078-1.007-3.078s.118 2.166 0 3.078c-.355 2.75-2.087 4.02-4.735 4.02-2.665 0-4.313-1.317-4.765-4.02-.146-.874 0-3.078 0-3.078" clip-rule="evenodd"/><path fill="#CF1225" fill-rule="evenodd" d="M9.066 19.751s.217-.62.483-.62c.267 0-.51-.538 0-.69.51-.153 1.294.606 1.294-.153 0-.76-.663-1.174-.176-1.174s.996-.145.996-.145 2.073 2.162 4.149 2.162 4.571-2.017 4.571-2.017.92-.234.92.131-.202.916-.202.916.645-.127.973 0 0 .735 0 .735v.235s.853-.188.853.148c0 .337-.412.145-1.247.24-.834.097-1.151.749-1.675.749-.525 0-.638-.517-.638-.517s-1.625.881-3.555.881-3.097-.88-3.097-.88.182.904-.435.71-1.248-1.423-1.99-1.183c-.74.24-1.224.472-1.224.472" clip-rule="evenodd"/><path fill="#F6E017" fill-rule="evenodd" d="M12.063 16.162c.037-.034.073-.072.121-.124.137-.148.174-.187.201-.205q.01.037.01.123c0 .377.013.66.05.858.026.141.062.233.126.276.094.063.188.008.276-.123.2-.301.577-.339.577-.224 0 .03-.012.062-.085.242l-.032.08c-.051.135-.074.233-.063.318.017.127.11.199.262.199.169 0 .28-.11.402-.324l.058-.104.006-.012a1 1 0 0 1 .054-.088c.045-.062.054-.057.153.176.027.062.08.192.126.305l.08.191c.065.153.11.243.158.306.11.145.242.144.4.01q.045-.04.105-.081c.021-.015.07-.047.118-.077l.104-.067c.09-.064.136-.114.135-.188-.001-.094-.08-.152-.235-.21a1 1 0 0 1-.1-.042q.006-.001.019-.008l.008-.004a1.2 1.2 0 0 1 .487-.082c.005.004.004.013.004.036v.002a1.2 1.2 0 0 1-.056.268l-.015.057c-.05.191-.063.307-.03.406.05.147.191.198.41.154.297-.058.44-.176.479-.357a.7.7 0 0 0 .011-.15c0-.116 0-.117.1-.117.141 0 .197.05.257.19l.02.05c.07.166.134.239.279.239.096 0 .163-.04.151-.134a.2.2 0 0 0-.025-.075l-.012-.022-.02-.04c-.09-.184-.055-.324.254-.522.088-.056.224-.152.342-.234.085-.06.16-.113.201-.14q.006.037.008.11l.005.132.003.064c.013.335.082.642.184.766.172.21.338.016.451-.448.108-.443.263-.862.413-1.116.074-.124.143-.202.195-.226.035-.015.06-.004.096.062.136.246.345.475.522.543.262.101.418-.112.418-.585 0-.397.064-.713.17-.957a1.2 1.2 0 0 1 .115-.208l.046-.057-.114-.122a1 1 0 0 0-.196.318c-.116.266-.185.606-.185 1.026 0 .374-.074.475-.197.428-.133-.052-.318-.254-.436-.47-.075-.135-.186-.185-.305-.132-.09.041-.18.142-.27.293-.16.27-.319.704-.43 1.162-.05.2-.1.327-.167.38-.072-.087-.135-.363-.147-.663l-.002-.063-.005-.134a1 1 0 0 0-.01-.139c-.018-.107-.072-.17-.17-.145-.039.01-.224.138-.39.254-.093.065-.18.125-.232.159-.381.244-.441.479-.314.739l.01.02c-.03-.014-.052-.05-.084-.129l-.022-.053c-.083-.194-.19-.29-.407-.29-.209 0-.264.088-.264.286a.5.5 0 0 1-.008.115c-.022.107-.112.18-.349.227-.148.03-.206.008-.223-.044-.02-.056-.008-.15.032-.308l.015-.056c.048-.18.06-.235.062-.308.003-.127-.06-.212-.185-.212-.198 0-.419.04-.542.1-.202.1-.162.27.09.364q.072.028.101.043.021.01.024.01l-.014.01q-.015.014-.049.038l-.091.06-.13.083q-.066.045-.119.091c-.091.079-.117.079-.165.017a1.4 1.4 0 0 1-.137-.27l-.078-.188-.127-.308c-.141-.333-.293-.407-.436-.209a1 1 0 0 0-.064.105l-.008.014-.055.1c-.095.167-.17.24-.26.24-.075 0-.095-.015-.1-.052a.6.6 0 0 1 .053-.235l.03-.076c.092-.224.098-.242.098-.307 0-.34-.604-.281-.876.129a.3.3 0 0 1-.058.069.5.5 0 0 1-.048-.158q-.049-.276-.047-.827c0-.232-.07-.355-.22-.288-.068.03-.07.033-.274.254-.045.05-.08.084-.112.115a.6.6 0 0 1-.11.084c-.047.025-.065.01-.09-.099-.026-.112-.035-.27-.035-.535v-.225c0-.187-.05-.292-.172-.292a.3.3 0 0 0-.137.041q-.027.013-.064.036l-.01.005-.056.033c-.113.064-.188.093-.258.093q-.02 0-.025.003h-.002l.002-.002q.005-.004.02-.03.07-.14.373-.438l-.114-.121q-.32.314-.405.48c-.079.156-.018.276.15.276.107 0 .203-.037.339-.114.157-.09.165-.094.187-.094 0 0 .009.018.009.124v.225c0 .278.008.445.038.574.047.2.16.297.324.21a.7.7 0 0 0 .146-.11m.34-.34h.002zm2.662 1.547-.004-.003q.002.01.006.013zm-1.232 2.38c-.073.196-.188.261-.317.163a.8.8 0 0 1-.131-.14l-.012-.016-.125-.163c-.112-.139-.208-.226-.313-.27l-.01-.004-.181-.08-.03-.013a.68.68 0 0 1-.324-.298c-.066-.113-.13-.267-.238-.563l.154-.06c.104.288.166.436.225.537.066.115.129.17.254.232l.026.012c.026.013.052.024.178.078l.01.003c.134.058.248.16.375.32.028.034.104.134.13.168l.009.012a.6.6 0 0 0 .112.122q.02-.01.054-.1c.05-.135.006-.24-.116-.35l-.033-.027a1 1 0 0 1-.14-.122c-.047-.07-.007-.14.065-.159a.7.7 0 0 1 .157-.012c.265 0 .338.156.387.553v.007c.04.314.078.4.212.4.15 0 .243-.06.403-.232l.035-.037c.205-.218.348-.291.589-.225.192.053.274.148.293.294l.005.056c.01.124.032.143.27.143.182 0 .35.01.57.03l.027.002.195.017c.072.006.122.01.163.01q.042 0 .065-.005c.006-.048.035-.082.15-.212l.033-.038a.4.4 0 0 0 .076-.113.5.5 0 0 0-.178-.018c-.12 0-.18-.015-.19-.1-.009-.07.032-.104.122-.151a3.6 3.6 0 0 1 .516-.198c.218-.07.447-.132.621-.168q.142-.03.227-.035c.107-.006.17.009.17.104 0 .04.112.178.225.24.134.075.229.047.294-.128a1.8 1.8 0 0 1 .49-.69c.105-.084.201-.13.284-.122.113.01.171.106.171.252h-.163c0-.068-.01-.084-.022-.085-.03-.002-.093.027-.168.088a1.6 1.6 0 0 0-.439.617c-.103.275-.309.337-.526.216a.7.7 0 0 1-.298-.325 2 2 0 0 0-.212.033 6.6 6.6 0 0 0-.967.292c.117.017.185.06.203.142.017.082-.023.153-.113.26l-.035.04c-.08.09-.108.128-.108.13 0 .11-.085.141-.229.141-.045 0-.1-.003-.175-.009l-.197-.017-.025-.003a6 6 0 0 0-.556-.028c-.323 0-.418-.085-.434-.299l-.004-.046c-.01-.079-.045-.119-.174-.154-.168-.047-.26 0-.428.178l-.034.038c-.19.201-.314.283-.522.283-.235 0-.312-.126-.361-.452zm.013-.149v-.006a1.4 1.4 0 0 0-.053-.242.35.35 0 0 1 .069.343zm3-.122.003.001h-.002zm-.004.55-.004.002h.003z" clip-rule="evenodd"/></g></g></g><defs><clipPath id="a"><path fill="#fff" d="M0 0h32v24H0z"/></clipPath></defs></svg>