<svg xmlns="http://www.w3.org/2000/svg" width="32" height="24" fill="none" viewBox="0 0 32 24"><g clip-path="url(#a)"><mask id="b" width="32" height="24" x="0" y="0" maskUnits="userSpaceOnUse" style="mask-type:luminance"><path fill="#fff" d="M32 0H0v24h32z"/></mask><g mask="url(#b)"><path fill="#fff" d="M32 0H0v24h32z"/><path fill="#FECA00" fill-rule="evenodd" d="M0 0v24h32V0z" clip-rule="evenodd"/><mask id="c" width="32" height="24" x="0" y="0" maskUnits="userSpaceOnUse" style="mask-type:luminance"><path fill="#fff" fill-rule="evenodd" d="M0 0v24h32V0z" clip-rule="evenodd"/></mask><g mask="url(#c)"><path fill="#DB501C" fill-rule="evenodd" d="M0 0v8h32V0z" clip-rule="evenodd"/><path fill="#5EAA22" fill-rule="evenodd" d="M0 16v8h32v-8z" clip-rule="evenodd"/><path fill="#864C26" d="m12.445 9.961.037-.035 7.22 6.945-.037.035z"/><path fill="#864C26" d="m20.221 16.416-.03.04-8.4-6.17.031-.04z"/><path fill="#A05A2C" d="m20.398 15.8-.026.044-9.343-5.086.026-.043z"/><path fill="#E7E7E7" fill-rule="evenodd" d="m11.602 9.113.707.468-.04.027.05.03q.03.018.043.044a.3.3 0 0 0-.002-.154l-.037-.15.084.131c.133.208.153.356.05.44q-.153.122-.476-.057l-.088-.048.1.001a.6.6 0 0 0 .211-.029l-.04-.01q-.052-.015-.078-.072l-.07.047zm-.849.53.778.337-.035.035.057.021q.032.013.049.037a.3.3 0 0 0-.028-.152l-.063-.14.106.113c.167.182.212.325.125.425q-.13.147-.48.026l-.094-.032.099-.016a.6.6 0 0 0 .203-.065l-.042-.004q-.055-.005-.09-.059l-.06.06zm.052.811L10 10.185l.573.538.055-.064q.04.051.095.052h.043a.6.6 0 0 1-.197.083l-.097.024.097.024q.359.089.475-.068c.078-.108.02-.246-.162-.412l-.115-.104.075.134q.045.082.041.149a.1.1 0 0 0-.052-.032l-.059-.017zm-.088.025-.515-.173.367.345.03-.035-.015-.034.003-.001-.024-.027.098-.085.013.002z" clip-rule="evenodd"/><path fill="#925229" fill-rule="evenodd" d="m13.47 16.212.835-1.49 1.171.316-.842 1.359h-.329v.148z" clip-rule="evenodd"/><path fill="#FFE000" fill-rule="evenodd" d="m13.113 10.488-.553.575-.2 3.794 1.99.29s-.867-.762-.995-1.232-.169-2.225.073-2.491l.189.11.152-.452" clip-rule="evenodd"/><path fill="#D52C1E" fill-rule="evenodd" d="M11.189 10.746s-.214 2.962-.214 3.482.441 1.76 1.448 1.76 2.39-.555 2.39-.78c0-.227-.413-.389-.413-.389s-1.852.127-1.852-.59c0-.718.126-2.842.235-3.092.11-.25.491-.628.491-.628l-.726-.54-.125.54-.466-.159-.142.787z" clip-rule="evenodd"/><path fill="#027934" fill-rule="evenodd" d="m13.777 11.074-.133.42-.27-.115s-.405 1.896 0 2.69c.403.795 1.422.853 1.422.853l-.43-3.429z" clip-rule="evenodd"/><path fill="#E8A30C" fill-rule="evenodd" d="m13.718 13.637-.97.767s-.267.382 0 .67c.265.29 1.003.584 1.177.235.175-.348.692-.757.692-.757z" clip-rule="evenodd"/><path fill="#E1E5E8" fill-rule="evenodd" d="M14.478 10.74c.236-.204.355-.455.265-.559-.09-.103-.355-.02-.591.184-.236.206-.354.456-.264.56.09.103.354.021.59-.184" clip-rule="evenodd"/><path fill="#D52C1E" fill-rule="evenodd" d="M13.884 9.303s-.095-.02-.138-.026q-.46-.07-.46.187c0 .294.195.611.195.833s.01.567.104.394.572-.691.572-.691l-.273-.45s.678.076.38-.086m1.706 5.916-.51-.005c-.377.374-.412.877-.115 1.484 0 0 .098.141.132.128.048-.019.115-.223.115-.223-.023-.593.355-.986.378-1.384" clip-rule="evenodd"/><path fill="#FFE000" fill-rule="evenodd" d="m15.326 15.394.183-.085c.18.374.09.763-.258 1.148l-.151-.132c.151-.442.151-.625.226-.931" clip-rule="evenodd"/><path fill="#027934" d="m15.09 15.38.191-.056q.137.472-.134.967l-.174-.096q.233-.425.117-.815"/><path fill="#864C26" d="m19.555 9.961-.037-.035-7.22 6.945.037.035z"/><path fill="#864C26" d="m11.78 16.416.03.04 8.4-6.17-.032-.04z"/><path fill="#A05A2C" d="m11.602 15.8.025.044 9.343-5.086-.025-.043z"/><path fill="#E7E7E7" fill-rule="evenodd" d="m20.398 9.113-.708.468.04.027-.05.03a.1.1 0 0 0-.043.044.3.3 0 0 1 .002-.154l.037-.15-.084.131c-.133.208-.153.356-.05.44q.153.122.477-.057l.087-.048-.1.001a.6.6 0 0 1-.21-.029l.04-.01q.052-.015.078-.072l.069.047zm.848.53-.778.337.035.035-.056.021a.1.1 0 0 0-.05.037.3.3 0 0 1 .029-.152l.062-.14-.105.113c-.168.182-.213.325-.125.425q.128.147.479.026l.094-.032-.099-.016a.6.6 0 0 1-.203-.065l.043-.004q.054-.005.09-.059l.06.06zm-.051.811.804-.269-.573.538-.055-.064q-.04.051-.095.052h-.043a.6.6 0 0 0 .197.083l.097.024-.097.024q-.359.089-.475-.068c-.078-.108-.02-.246.162-.412l.115-.104-.075.134a.3.3 0 0 0-.041.149.1.1 0 0 1 .052-.032l.06-.017zm.088.025-.001-.001.515-.173-.367.345-.03-.035.015-.034-.003-.001.024-.027-.098-.085-.012.002z" clip-rule="evenodd"/><path fill="#925229" fill-rule="evenodd" d="m18.529 16.212-.835-1.49-1.17.316.842 1.359h.328v.148z" clip-rule="evenodd"/><path fill="#FFE000" fill-rule="evenodd" d="m18.886 10.488.552.575.201 3.794-1.99.29s.867-.762.995-1.232.169-2.225-.073-2.491l-.19.11-.151-.452" clip-rule="evenodd"/><path fill="#D52C1E" fill-rule="evenodd" d="M20.811 10.746s.214 2.962.214 3.482-.442 1.76-1.449 1.76-2.389-.555-2.389-.78c0-.227.413-.389.413-.389s1.852.127 1.852-.59c0-.718-.126-2.842-.236-3.092s-.49-.628-.49-.628l.726-.54.124.54.466-.159.142.787z" clip-rule="evenodd"/><path fill="#027934" fill-rule="evenodd" d="m18.224 11.078.133.42.27-.115s.405 1.896 0 2.69c-.403.795-1.422.852-1.422.852l.43-3.428z" clip-rule="evenodd"/><path fill="#E8A30C" fill-rule="evenodd" d="m18.284 13.637.97.767s.266.382 0 .67c-.266.29-1.004.584-1.178.235-.174-.348-.691-.757-.691-.757z" clip-rule="evenodd"/><path fill="#E1E5E8" fill-rule="evenodd" d="M17.521 10.74c-.236-.204-.354-.455-.264-.559.09-.103.354-.02.59.184.237.206.355.456.265.56-.09.103-.355.021-.59-.184" clip-rule="evenodd"/><path fill="#D52C1E" fill-rule="evenodd" d="m16.03 15.38.508-.005c.378.374.413.877.116 1.484 0 0-.098.141-.132.128-.048-.019-.115-.223-.115-.223.023-.593-.355-.986-.378-1.384" clip-rule="evenodd"/><path fill="#FFE000" fill-rule="evenodd" d="m16.674 15.394-.183-.085c-.18.374-.09.763.258 1.148l.152-.132c-.152-.442-.152-.625-.227-.931" clip-rule="evenodd"/><path fill="#027934" d="m16.909 15.38-.191-.056q-.137.472.134.967l.175-.096q-.233-.425-.118-.815"/><path fill="#00A6DE" fill-rule="evenodd" d="M13.553 12.82c0 1.44 1.062 2.637 2.42 2.637s2.421-1.197 2.421-2.637-1.063-2.636-2.42-2.636c-1.359 0-2.421 1.197-2.421 2.636m4.274 0c0 1.154-.83 2.09-1.854 2.09s-1.854-.936-1.854-2.09.83-2.09 1.854-2.09 1.854.936 1.854 2.09" clip-rule="evenodd"/><path fill="#D52C1E" fill-rule="evenodd" d="m15.974 12.447-.24.496.005-.548-.44.347.252-.492-.551.128.447-.337-.554-.116.554-.117-.447-.336.551.127-.251-.491.44.346-.007-.548.241.496.24-.496-.005.548.44-.346-.252.491.552-.127-.448.337.555.116-.555.116.448.337-.552-.127.252.49-.44-.346.006.548z" clip-rule="evenodd"/><path fill="#027934" fill-rule="evenodd" d="M14.042 12.943s1.45-1.021 1.806-1.021 1.876 1.026 2.187 1.166 0 2.878 0 2.878h-4.113z" clip-rule="evenodd"/><path fill="#FFC036" fill-rule="evenodd" d="m14.031 11.725.09.05q.731-1.236 1.868-1.234 1.273.069 1.91 1.396l.093-.041q-.661-1.379-2-1.455-1.202.001-1.96 1.284m-.36 1.59.167-.112.166.112-.058-.188.161-.118-.203-.004-.066-.185-.067.185-.203.004.162.118zm.373.634-.167.112.06-.187-.163-.119.203-.004.067-.185.066.185.203.004-.161.119.058.187zm.245.71.167-.113.166.112-.058-.187.161-.119-.203-.004-.066-.185-.067.185-.203.004.162.119zm.785.385-.167.112.06-.188-.162-.118.202-.004.067-.185.066.185.203.004-.161.118.058.188zm.709.36.166-.111.167.112-.059-.188.162-.119-.203-.003-.067-.186-.066.186-.203.003.162.119zm2.33-2.201.166.112-.059-.188.162-.118-.203-.004-.066-.185-.067.185-.203.004.162.118-.059.188zm-.04.858-.166-.112-.167.112.059-.187-.162-.119.203-.004.067-.185.066.185.203.004-.162.119zm-.579.485.167.112-.059-.187.162-.119-.203-.004-.067-.185-.066.185-.203.004.162.119-.059.187zm-.451.61-.167-.112-.166.112.059-.188-.162-.118.203-.004.066-.185.067.185.203.004-.162.118z" clip-rule="evenodd"/><path fill="#036A2D" d="m14.683 7.008.199.144c-.51.458-.605.967-.508 1.405.102.456.553.943 1.375 1.443l-.302.463c-.938-.57-1.478-1.099-1.618-1.728-.144-.647.21-1.149.854-1.727m2.703 0-.199.144c.51.458.605.967.508 1.405-.102.456-.553.943-1.375 1.443l.302.463c.938-.57 1.478-1.099 1.618-1.728.144-.647-.21-1.149-.854-1.727"/><path fill="#452C24" fill-rule="evenodd" d="M12.774 8.861s.87-.6 1.282-.6.963-.138 1.05.178c.086.316.25.225.569.225h.947s-.187-.404.16-.404c.348 0 1.8.206 2.237.404.438.197.46.314.46.314s-.405-.234-.854-.117-1.262.632-1.632.632-.667.399-.667.399.024-.204-.314-.102c-.337.102-.33.582-.618.494s.083-.79 0-.79-.672-.231-.672-.231-.571-.519-1.42-.402c-.848.117-.528 0-.528 0" clip-rule="evenodd"/><path fill="#E7E7E7" fill-rule="evenodd" d="M15.872 9.29c.17 0 .309-.123.309-.274s-.139-.274-.31-.274-.309.123-.309.274c0 .15.139.273.31.273" clip-rule="evenodd"/><path fill="#E8A30C" fill-rule="evenodd" d="M15.203 9.005s.1-.189.298-.189.57 0 .57.095c0 .094.03.218-.27.218s-.108-.124-.3-.124z" clip-rule="evenodd"/><path fill="#E1E5E8" fill-rule="evenodd" d="M18.736 10.283c.116-.12.18-.413.18-.413s-.514.083-.634 0c-.12-.082-.182-.323-.182-.323s-.463.212-.286.212c.176 0 .286.156.286.156l.36.133s-.24.235-.12.235.281.12.396 0" clip-rule="evenodd"/><path fill="#925229" d="m17.83 10.384-.064-.077.451-.354.065.078z"/></g></g></g><defs><clipPath id="a"><path fill="#fff" d="M0 0h32v24H0z"/></clipPath></defs></svg>