<svg xmlns="http://www.w3.org/2000/svg" width="32" height="24" fill="none" viewBox="0 0 32 24"><g clip-path="url(#a)"><mask id="b" width="32" height="24" x="0" y="0" maskUnits="userSpaceOnUse" style="mask-type:luminance"><path fill="#fff" d="M32 0H0v24h32z"/></mask><g mask="url(#b)"><path fill="#fff" d="M32 0H0v24h32z"/><path fill="#fff" fill-rule="evenodd" d="M0 0h32v24H0z" clip-rule="evenodd"/><path fill="#FEDA00" fill-rule="evenodd" d="M0 10.933V0h16z" clip-rule="evenodd"/><path fill="#00268D" fill-rule="evenodd" d="M0 24h32.009V0z" clip-rule="evenodd"/><path fill="#fff" fill-rule="evenodd" d="m9.353 5 .527 1.131a4.4 4.4 0 0 1 3.872 4.258l.955.478-1.043.521a4.4 4.4 0 0 1-3.742 3.476L9.353 16l-.568-1.136a4.4 4.4 0 0 1-3.742-3.476L4 10.867l.955-.478A4.4 4.4 0 0 1 8.79 6.136z" clip-rule="evenodd"/><mask id="c" width="11" height="11" x="4" y="5" maskUnits="userSpaceOnUse" style="mask-type:luminance"><path fill="#fff" fill-rule="evenodd" d="m9.353 5 .527 1.131a4.4 4.4 0 0 1 3.872 4.258l.955.478-1.043.521a4.4 4.4 0 0 1-3.742 3.476L9.353 16l-.568-1.136a4.4 4.4 0 0 1-3.742-3.476L4 10.867l.955-.478A4.4 4.4 0 0 1 8.79 6.136z" clip-rule="evenodd"/></mask><g mask="url(#c)"><path fill="#000" d="m9.88 6.132-.718.334.186.4.438.052zM9.353 5l.718-.334-.696-1.494-.732 1.477zm4.399 5.39-.792.02.011.475.426.213zm.954.477.354.708 1.417-.708-1.417-.708zm-1.043.522-.354-.709-.344.172-.078.377zm-3.742 3.475-.101-.785-.419.053-.188.378zM9.353 16l-.709.355.709 1.416.708-1.416zm-.568-1.136.708-.354-.189-.377-.418-.054zM5.043 11.39l.775-.16-.077-.377-.344-.172zm-1.044-.522-.354-.708-1.416.708 1.416.708zm.955-.477.354.708.426-.213.012-.476zM8.79 6.136l.1.786.421-.054.189-.38zm1.808-.339-.527-1.131-1.436.669.527 1.131zm3.945 4.573a5.19 5.19 0 0 0-4.57-5.025l-.187 1.573a3.61 3.61 0 0 1 3.174 3.491zm.517-.211-.954-.478-.709 1.417.955.477zm-1.043 1.938 1.043-.521-.708-1.417-1.043.521zm-3.995 3.553a5.2 5.2 0 0 0 4.417-4.102l-1.552-.319a3.61 3.61 0 0 1-3.067 2.85zm-.81-1.14-.568 1.136 1.417.709.568-1.137zm.85 1.136-.569-1.136-1.417.708.568 1.137zm-5.795-4.098a5.2 5.2 0 0 0 4.416 4.102l.203-1.571a3.61 3.61 0 0 1-3.068-2.85zm-.622.027 1.043.522.709-1.417-1.043-.521zM4.6 9.682l-.955.478.709 1.416.954-.477zm4.09-4.33a5.19 5.19 0 0 0-4.528 5.02l1.584.038A3.61 3.61 0 0 1 8.89 6.922zm-.047-.702-.562 1.135 1.419.704.563-1.136z"/></g><path fill="#F00A17" fill-rule="evenodd" d="m9.376 8.3-.649 1.09h-1.28l.639 1.144-.639 1.098h1.28l.65 1.12.658-1.12h1.269l-.623-1.098.623-1.144h-1.269z" clip-rule="evenodd"/></g></g><defs><clipPath id="a"><path fill="#fff" d="M0 0h32v24H0z"/></clipPath></defs></svg>