<svg xmlns="http://www.w3.org/2000/svg" width="32" height="24" fill="none" viewBox="0 0 32 24"><g clip-path="url(#a)"><mask id="b" width="32" height="24" x="0" y="0" maskUnits="userSpaceOnUse" style="mask-type:luminance"><path fill="#fff" d="M32 0H0v24h32z"/></mask><g mask="url(#b)"><path fill="#fff" d="M32 0H0v24h32z"/><path fill="#fff" fill-rule="evenodd" d="M0 0h32v24H0z" clip-rule="evenodd"/><path fill="#F00000" fill-rule="evenodd" d="M0 11.664V0h16zm32 0V0H16z" clip-rule="evenodd"/><path fill="#00268D" fill-rule="evenodd" d="M0 11.664V24h16zm32 0v12.672L16 24z" clip-rule="evenodd"/><path fill="#FEDA00" fill-rule="evenodd" d="m15.714 14.256-3.517 2.507 1.29-4.141L10 10.087h4.345L15.714 6l1.452 4.087h4.226l-3.457 2.535 1.314 4.141z" clip-rule="evenodd"/></g></g><defs><clipPath id="a"><path fill="#fff" d="M0 0h32v24H0z"/></clipPath></defs></svg>