<svg xmlns="http://www.w3.org/2000/svg" width="32" height="24" fill="none" viewBox="0 0 32 24"><g clip-path="url(#a)"><mask id="b" width="32" height="24" x="0" y="0" maskUnits="userSpaceOnUse" style="mask-type:luminance"><path fill="#fff" d="M32 0H0v24h32z"/></mask><g mask="url(#b)"><path fill="#fff" d="M32 0H0v24h32z"/><path fill="#00268D" fill-rule="evenodd" d="M0 0h32v24H0z" clip-rule="evenodd"/><path fill="#00268D" stroke="#E31D1C" stroke-width="2" d="M1 1h30v22H1z"/><path fill="#E31D1C" d="M17 0h-2v24h2z"/><path fill="#E31D1C" d="M0 11v2h32v-2z"/><path fill="#059334" d="M11.609 16H25l-1.416-1.276s-2.831-2.524-3.013-2.64c-.183-.115-.484-.165-.826.203-.343.367-.54-.202-.824-.202-.285 0-.406 0-.82.471l-1.904 2.168h-2.19s-.369-.279-.58-.18-1.396-1.099-1.818-1.188c-.423-.09-.7.325-.7.655s-.2-.303-.603-.117c-.405.185-.274.65-.274.65S11.34 16 11.609 16"/><path fill="#FEDA00" fill-rule="evenodd" d="m15.505 11.301-.927.699.34-1.154-.918-.707h1.144L15.504 9l.383 1.14H17l-.91.706.346 1.154z" clip-rule="evenodd"/></g></g><defs><clipPath id="a"><path fill="#fff" d="M0 0h32v24H0z"/></clipPath></defs></svg>