<svg xmlns="http://www.w3.org/2000/svg" width="32" height="24" fill="none" viewBox="0 0 32 24"><g clip-path="url(#a)"><mask id="b" width="32" height="24" x="0" y="0" maskUnits="userSpaceOnUse" style="mask-type:luminance"><path fill="#fff" d="M32 0H0v24h32z"/></mask><g mask="url(#b)"><path fill="#fff" d="M32 0H0v24h32z"/><path fill="#093" fill-rule="evenodd" d="M0 0v24h32V0z" clip-rule="evenodd"/><mask id="c" width="32" height="24" x="0" y="0" maskUnits="userSpaceOnUse" style="mask-type:luminance"><path fill="#fff" fill-rule="evenodd" d="M0 0v24h32V0z" clip-rule="evenodd"/></mask><g mask="url(#c)"><g fill-rule="evenodd" clip-rule="evenodd" filter="url(#d)"><path fill="#FFD221" d="m15.927 3.703 12.201 8.504-12.367 7.963-11.952-8.128z"/><path fill="url(#e)" d="m15.927 3.703 12.201 8.504-12.367 7.963-11.952-8.128z"/></g><path fill="#2E42A5" fill-rule="evenodd" d="M16 17.2a5 5 0 1 0 0-10 5 5 0 0 0 0 10" clip-rule="evenodd"/><mask id="f" width="10" height="11" x="11" y="7" maskUnits="userSpaceOnUse" style="mask-type:luminance"><path fill="#fff" fill-rule="evenodd" d="M16 17.2a5 5 0 1 0 0-10 5 5 0 0 0 0 10" clip-rule="evenodd"/></mask><g mask="url(#f)"><path fill="#F7FCFF" fill-rule="evenodd" d="m14.38 14.57-.223.117.042-.248-.18-.176.25-.037.111-.226.112.226.25.037-.181.176.042.248zm2 0-.223.117.042-.248-.18-.176.25-.037.111-.226.112.226.25.037-.181.176.042.248zm0 1.2-.223.117.042-.25-.18-.175.25-.037.111-.226.112.226.25.037-.181.176.042.249zm-1-4.2-.223.117.042-.248-.18-.176.25-.037.111-.226.112.226.25.037-.181.176.042.248zm0 2-.223.117.042-.248-.18-.176.25-.037.111-.226.112.226.25.037-.181.176.042.248zm-1.4-1-.224.117.043-.248-.18-.176.249-.037.112-.226.111.226.25.037-.18.176.042.248zm-1.4.8-.223.118.043-.248-.181-.177.25-.036.111-.226.112.226.25.036-.181.176.043.25zm4.6-3.398-.224.118.044-.25-.18-.176.25-.036.11-.227.113.227.25.036-.182.176.043.249z" clip-rule="evenodd"/><path fill="#F7FCFF" d="m9.925 10.998.15-1.994c4.798.362 8.585 1.94 11.313 4.746l-1.434 1.394c-2.364-2.433-5.692-3.819-10.03-4.146"/><path fill="#093" d="m12.29 10.603.05-.498q4.643.48 7.951 3.552l-.34.366q-3.184-2.956-7.662-3.42"/></g></g></g></g><defs><linearGradient id="e" x1="31.9997" x2="31.9997" y1="23.9991" y2="-0.000915635" gradientUnits="userSpaceOnUse"><stop stop-color="#FFC600"/><stop offset="1" stop-color="#FFDE42"/></linearGradient><clipPath id="a"><path fill="#fff" d="M0 0h32v24H0z"/></clipPath><filter id="d" width="24.3193" height="16.4688" x="3.80859" y="3.70312" color-interpolation-filters="sRGB" filterUnits="userSpaceOnUse"><feFlood flood-opacity="0" result="BackgroundImageFix"/><feColorMatrix in="SourceAlpha" result="hardAlpha" values="0 0 0 0 0 0 0 0 0 0 0 0 0 0 0 0 0 0 127 0"/><feOffset/><feColorMatrix values="0 0 0 0 0.0313726 0 0 0 0 0.368627 0 0 0 0 0 0 0 0 0.28 0"/><feBlend in2="BackgroundImageFix" result="effect1_dropShadow_173_13827"/><feBlend in="SourceGraphic" in2="effect1_dropShadow_173_13827" result="shape"/></filter></defs></svg>