<svg xmlns="http://www.w3.org/2000/svg" width="32" height="24" fill="none" viewBox="0 0 32 24"><g clip-path="url(#a)"><mask id="b" width="32" height="24" x="0" y="0" maskUnits="userSpaceOnUse" style="mask-type:luminance"><path fill="#fff" d="M32 0H0v24h32z"/></mask><g mask="url(#b)"><path fill="#fff" d="M32 0H0v24h32z"/><path fill="#FF6230" fill-rule="evenodd" d="M0 0h32v24H0z" clip-rule="evenodd"/><path fill="#FECA00" fill-rule="evenodd" d="M0 0v24L32 0z" clip-rule="evenodd"/><path fill="#fff" fill-rule="evenodd" d="m26.327 5.193.516.317-.477.273c.428 0 1.387-.038 1.629-.239l.042-.035c.18-.147 1.905-.675 1.905-.675h-1.074c-.588 0-.872.093-1.142.314l-.046.037c-.156.13-.25.166-.56.166l-.065.038.052-.101c.23.003.483-.14.769-.402.03-.028.198-.09.41-.166.423-.153 1.018-.368 1.018-.505h-.483l.001-.002.008-.012.002-.002q.007-.007-.003-.003a1.2 1.2 0 0 1-.288.036 4 4 0 0 0-.328.028c-.275.038-.493.12-.67.282l-.106.093q.339-.68.52-1.1a2.5 2.5 0 0 1 .314-.527c.086-.116.237-.321.284-.396a1.1 1.1 0 0 0 .195-.604s-1.158 1.157-1.24 1.342c-.086.2-.24.41-.427.665-.227.31-.502.683-.757 1.178m-3.52-1.143.203-.32a5 5 0 0 0-.859-.415 18 18 0 0 0-.59-.196c-.167-.058-.24-.101-.277-.16-.254-.403-.452-.536-.896-.536 0 0 .357.432.667.744-.511-.238-.663-.286-.832-.286 0 0 1.5 1.105 1.498 1.21l.387.006c.003-.176-.093-.338-.282-.495l.187.065c.266.1.522.22.794.383m-2.912-1.172c-.27-.174-.465-.232-.646-.11 0 0 .378.304.747.596a1 1 0 0 0-.248-.03.7.7 0 0 1-.253-.03l-.015-.02-.005-.006c-.105-.15-.236-.21-.533-.21-.473 0-.735.057-.827.25 0 0 .898-.06 1.633.394.306 0 .436.193.404.69l.387.022c.02-.299-.02-.544-.118-.725.134.105.234.181.26.197.2.122.319.225.356.297l.003.004q.006.011.005.016c0 .006-.007.01-.023.022l-.008.006.232.302c.184-.134.238-.328.136-.522-.077-.147-.242-.29-.495-.444a6 6 0 0 1-.317-.21l-.15-.11c-.174-.128-.44-.324-.525-.379m-2.04 1.678q.43-.001 1.195.349l.165-.342q-.832-.383-1.36-.384c-.617 0-1.098.18-1.098.555 0 .268.212.432.564.5 0 0-.177-.453-.177-.5 0-.017.04-.055.149-.096a1.7 1.7 0 0 1 .562-.082m-.643.976-.056.374c-.546-.078-1.364-.067-1.536 0 0 0 .982-.46 1.592-.374m.503 2.026-.112-.362c-.757.222-1.127.683-1.253.875q-.051.046-.052.087s.016-.033.052-.087c.143-.127.57-.275 1.12-.44-.54.567-.628 1.148-.642 1.376q-.022.065 0 .101s-.003-.036 0-.1c.07-.21.447-.627.926-1.128l-.273-.253zm1.46 3.03.148-.348c-.722-.317-1.303-.202-1.523-.136q-.068.002-.095.034s.033-.015.095-.034c.22-.006.74.205 1.376.484m.133.54-.205.317c-.577-.385-1.053-.684-1.27-.716.228-.026.82-.04 1.476.398m-1.575-.382s.035-.009.1-.017q-.068-.01-.1.017m-1.867-.285.362-.111c-.222-.757-.683-1.128-.875-1.254q-.046-.052-.087-.052s.033.017.087.052c.146.164.319.7.513 1.365m-1.788-.312-.302.229c-.41-.56-.756-1.004-.95-1.107.225.052.785.243 1.252.878m-1.35-.897s.036.004.099.019q-.06-.033-.1-.02m11.391 1.488-.139.264.085-.044c.105.193.16.344.16.473 0 .214-.155.357-.374.357v-.472c-.043 0-.11.062-.11.115 0-.032-.033-.122-.104-.252l.145-.075c-.173-.071-.26-.063-.3-.013a2.7 2.7 0 0 1-.422.442s-.087-.57.038-.728c.223-.285.586-.285 1.021-.067m-4.414 3.809v-.472h-.76a.6.6 0 0 0-.122.017c-.07.015-.134.029-.184-.017 0 0-.543-.08-.51-.012.02.041.226.212.44.34l-.047.054c-.125.16-.038.729-.038.729q.205-.165.423-.442l.015-.021c.024-.038.03-.047.179.025a.2.2 0 0 0-.001.086c.026.181-.155.463-.155.463h.003c.22 0 .701 0 .701-.213 0-.078-.073-.173-.155-.278-.05-.066-.105-.136-.146-.208l.049-.051z" clip-rule="evenodd"/><path fill="#979797" d="m26.843 5.511.038.065.11-.062-.108-.067zm-.516-.316-.067-.035-.032.062.06.037zm.04.589-.038-.065-.245.14h.283zm3.575-.95.022.073-.022-.147zm-2.821.519v-.075h-.02l-.017.01zm-.065.037-.067-.034-.115.224.219-.125zm.051-.101.002-.075h-.047l-.021.04zm2.198-1.073h.075v-.075h-.075zm-.483 0-.065-.038-.067.113h.131zm-1.385.42-.067-.033.115.091zm1.313-2.627h.075v-.18l-.128.127zM23.01 3.73l.064.04.041-.064-.066-.04zm-.203.322-.039.064.063.038.04-.062zm-2.419-1.627V2.35h-.16l.102.122zm.667.743-.032.068.085-.121zm-.831-.285v-.075h-.229l.184.135zm1.497 1.21-.075-.002v.075l.074.002zm.388.005-.001.075.075.001V4.1zm-.283-.494.024-.072-.072.13zm-2.577-.834-.042-.063-.085.057.08.064zm.747.596-.02.072.067-.131zm-1.88-.047-.069-.032-.055.116.128-.009zm1.632.394-.04.064.019.01h.021zm.405.69-.075-.005-.005.075.075.004zm.387.023-.005.074.075.005.004-.075zm-.12-.726.046-.059-.112.095zm.593.543-.044-.061-.063.045.047.061zm.232.302-.06.045.046.058.059-.043zm-2.195.36-.032.07.067.03.032-.066zm.165-.34.067.032.034-.069-.07-.032zm-1.895.67-.014.074.133.025-.049-.126zm-.165.672-.01.074.073.01.011-.073zm.056-.373.074.01.011-.074-.074-.01zm-1.592.373-.032-.068.06.138zm1.984 1.29.071-.021-.022-.07-.07.02zm.11.362.022.072.073-.021-.022-.073zm-1.416.6h-.075l.143.034zm1.172-.527.054.051.194-.204-.27.08zm-.643 1.477-.065.038.14-.042zm.927-1.228.054.052.053-.055-.056-.052zm-.273-.253-.021-.072-.126.038.096.09zm1.842 2.613.07.03.028-.069-.068-.03zm-.147.349-.03.068.07.03.03-.07zm-1.47-.451-.058-.048.087.116zm1.398 1.307-.042.063.063.042.041-.064zm.205-.317.063.04.04-.062-.062-.04zm-1.576-.382-.048-.057.066.13zm-1.505-.396.022.072.07-.022-.02-.071zm-.362.111-.072.021.022.073.072-.022zm-.6-1.416V8.97l-.033.142zm-1.49 1.333-.06.044.045.062.06-.046zm.302-.229.045.06.059-.044-.044-.06zm-1.35-.897-.026-.07.018.144zm11.253 1.752-.067-.035-.111.212.212-.11zm.139-.264.066.035.036-.067-.069-.035zm-.055.22.066-.036-.035-.064-.065.034zm-.213.83h-.076v.075h.076zm0-.471h.075v-.075h-.075zm-.214-.137-.035-.067-.068.035.037.068zm.145-.075.034.066.144-.074-.15-.062zm-.723.429-.074.01.02.13.1-.082zm-3.355 2.541h.075v-.075h-.075zm0 .472v.075h.075v-.075zm-1.065-.472.05-.055-.017-.016-.022-.003zm-.07.328.053.052.068-.068-.083-.049zm-.086.783-.074.012.02.128.1-.081zm.617-.437.072.021.018-.061-.057-.028zm-.156.548-.063-.04-.074.115h.137zm.403-.698-.054-.052-.038.04.027.049zm.05-.052v-.075h-.033l-.022.023zm7.485-9.103-.517-.316-.078.128.516.316zm-.48.402.478-.273-.075-.13-.477.273zm1.544-.361a.7.7 0 0 1-.266.106 3 3 0 0 1-.438.071 9 9 0 0 1-.876.044v.15c.215 0 .565-.01.892-.045.163-.017.322-.041.458-.074a.8.8 0 0 0 .326-.137zm.043-.036-.043.036.096.115.043-.035zm1.952-.617-.022-.072h-.001l-.004.002-.014.004-.055.017a48 48 0 0 0-.812.26c-.227.076-.461.156-.65.226a5 5 0 0 0-.243.098.7.7 0 0 0-.15.082l.095.116a.6.6 0 0 1 .116-.06q.094-.042.235-.095c.186-.07.417-.15.644-.224a44 44 0 0 1 .809-.26l.055-.017.014-.004.004-.001h.001zm-1.074.075h1.074v-.15h-1.074zm-1.094.297c.251-.206.516-.297 1.094-.297v-.15c-.598 0-.901.095-1.19.331zm-.045.037.045-.037-.095-.116-.046.038zm-.608.184c.156 0 .266-.01.36-.038a.7.7 0 0 0 .248-.146l-.096-.115a.6.6 0 0 1-.197.118c-.07.021-.162.03-.315.03zm-.028.027.065-.037-.074-.13-.066.037zm-.052-.2-.052.1.133.07.052-.102zm.784-.423c-.282.259-.517.385-.716.382l-.003.15c.261.004.533-.158.82-.422zm.435-.18c-.105.037-.2.072-.274.1l-.094.04a.3.3 0 0 0-.067.04l.102.11c-.003.002.003-.003.028-.014q.032-.015.085-.036.11-.042.271-.1zm.97-.436c0-.01.005-.009-.008.005a.3.3 0 0 1-.059.048c-.057.038-.14.08-.24.125-.198.09-.45.18-.663.257l.051.141c.211-.076.469-.17.674-.26.102-.046.194-.093.262-.138a.5.5 0 0 0 .087-.073.16.16 0 0 0 .046-.105zm-.409.075h.484v-.15h-.483zm-.063-.115-.001.002.129.076.001-.002zm.014-.02-.014.02.13.076.002-.003zm.002-.002-.003.002.119.093.001-.002zm.081.114h-.002l-.016.003c-.002 0-.041.002-.065-.034a.07.07 0 0 1-.006-.07l.007-.012q.002-.004 0-.001l.118.093.005-.007q.003-.003.008-.015a.08.08 0 0 0-.006-.07c-.024-.037-.063-.034-.066-.034l-.018.002-.01.004zm-.309.04a1.2 1.2 0 0 0 .31-.04l-.053-.141c-.032.012-.092.02-.266.031zm-.322.028a4 4 0 0 1 .322-.028l-.009-.15c-.17.01-.236.016-.334.03zm-.63.263c.162-.148.364-.226.63-.263l-.02-.149c-.285.04-.52.126-.71.301zm-.11.095q.053-.043.11-.095l-.1-.11-.104.089zm.405-1.188q-.18.417-.519 1.097l.134.066q.339-.681.523-1.104zm.262-.46a2.6 2.6 0 0 0-.262.46l.138.06c.064-.15.143-.284.247-.434zm.06-.081-.06.081.123.086.058-.078zm.281-.392c-.045.072-.194.274-.28.392l.12.089c.085-.115.238-.323.287-.4zm.183-.564c0 .196-.06.37-.183.564l.127.08c.134-.212.206-.412.206-.644zM27.58 3.382a.6.6 0 0 1 .067-.095q.058-.072.148-.174c.12-.133.27-.294.42-.45a43 43 0 0 1 .538-.551l.037-.037.01-.01.002-.002h.001l-.053-.054-.053-.053-.003.003-.01.01-.037.037-.132.134c-.11.112-.258.262-.408.419s-.303.319-.424.455q-.091.102-.154.18a.7.7 0 0 0-.086.128zm-.436.679c.185-.252.346-.47.436-.68l-.137-.06c-.083.19-.231.394-.42.65zm-.75 1.168c.252-.49.523-.86.75-1.168l-.12-.09c-.228.31-.505.688-.764 1.19zM22.947 3.69l-.203.321.126.08.204-.32zm-.822-.304a5 5 0 0 1 .847.409l.077-.129a5 5 0 0 0-.871-.42zm-.538-.337.002.001.004.002a.15.15 0 0 1 .044.074.14.14 0 0 1-.089.068l-.004-.001h-.003.003l.012.004.049.016a35 35 0 0 1 .52.173l.053-.14a12 12 0 0 0-.577-.192zl-.003-.001-.002-.001h-.002l-.004-.001a.14.14 0 0 0-.089.067c.008.04.04.073.044.075l.004.001h.002v.001zm-.366-.048c.052.083.15.133.317.19l.049-.142c-.17-.058-.218-.095-.239-.128zm-.833-.502c.215 0 .36.033.48.106.122.075.228.197.353.396l.127-.08c-.129-.205-.25-.35-.401-.444-.153-.093-.33-.127-.559-.127zm.72.616a11 11 0 0 1-.602-.667q-.03-.033-.044-.052l-.012-.015-.003-.003v-.001l-.059.048-.058.047.001.002.003.003.012.015.045.053.158.184c.128.147.296.334.453.492zm-.884-.157c.15 0 .286.039.8.278l.063-.136c-.509-.237-.675-.292-.863-.292zm1.572 1.136a.1.1 0 0 0-.013-.05l-.02-.029-.053-.058a3 3 0 0 0-.174-.155 17 17 0 0 0-.517-.413 45 45 0 0 0-.686-.519l-.048-.035-.012-.01-.004-.002-.045.06-.045.06h.001l.003.003.013.01.047.035a52 52 0 0 1 .684.516c.187.145.373.292.513.41q.106.088.165.147.03.029.04.044l.006.007-.002-.005-.003-.019zm.314-.07-.388-.006-.002.15.388.005zm-.332-.363c.18.15.258.292.256.436l.15.002c.003-.208-.112-.39-.31-.553zm.262-.063-.19-.066-.048.143c.075.025.142.048.185.064zm.806.39a4.7 4.7 0 0 0-.806-.39l-.053.14c.262.098.513.217.781.378zM19.29 2.831a.3.3 0 0 1 .233-.045 1 1 0 0 1 .33.156l.082-.126a1.2 1.2 0 0 0-.383-.177.44.44 0 0 0-.346.067zm.752.475-.73-.582-.013-.01-.003-.003h-.001l-.047.058-.047.058.001.001.003.003.013.01.048.038.17.136.513.408zm-.295.104q.127 0 .229.027l.038-.145a1 1 0 0 0-.267-.032zm-.273-.033a.8.8 0 0 0 .273.033v-.15a.7.7 0 0 1-.215-.021zm-.021-.011c.01.007.02.01.021.011l.058-.138-.003-.001.007.004zm-.035-.038.012.016a.1.1 0 0 0 .023.022l.083-.124c.007.004.011.01.011.01l-.001-.003-.005-.007zm-.001-.001.001.001.123-.086-.001-.001zm-.004-.006.004.006.123-.086-.004-.006zm-.471-.177a.8.8 0 0 1 .31.043.35.35 0 0 1 .16.134l.124-.086a.5.5 0 0 0-.228-.187 1 1 0 0 0-.366-.054zm-.76.207c.033-.07.1-.123.224-.157.125-.036.3-.05.536-.05v-.15c-.238 0-.43.014-.577.055-.149.042-.26.114-.319.237zm1.605.297a2.9 2.9 0 0 0-1.122-.377 3.5 3.5 0 0 0-.555-.028l.004.075.005.075h.009a2 2 0 0 1 .137-.002c.093.001.225.008.38.028.31.041.707.137 1.063.357zm.44.758c.015-.251-.008-.443-.087-.574-.084-.14-.222-.195-.393-.195v.15c.136 0 .216.041.265.122.054.09.08.243.065.488zm.316-.056-.387-.023-.009.15.387.022zm-.19-.615q.137.247.11.685l.15.01c.02-.308-.02-.568-.127-.766zm.367.098a6 6 0 0 1-.254-.193l-.092.119c.132.103.236.182.268.202zm.383.325a.6.6 0 0 0-.135-.152 2 2 0 0 0-.248-.173l-.078.128q.145.089.229.16a.4.4 0 0 1 .1.107zm.002.004-.002-.004-.133.07.003.004zm.014.063a.1.1 0 0 0-.006-.046l-.008-.017-.133.07.003.004-.001-.001a.1.1 0 0 1-.004-.032zm-.054.071.024-.018a.1.1 0 0 0 .03-.053l-.149-.022a.1.1 0 0 1 .011-.028l.008-.009-.002.002-.01.007zm-.008.006.008-.006-.087-.121-.01.006zm.248.196-.233-.302-.119.091.233.302zm.01-.442c.044.083.052.16.033.23a.37.37 0 0 1-.147.197l.088.121a.5.5 0 0 0 .204-.28.46.46 0 0 0-.045-.338zm-.467-.415c.25.153.4.287.467.415l.133-.07c-.087-.165-.267-.318-.522-.473zm-.322-.213q.168.12.322.213l.078-.128q-.148-.09-.313-.207zm-.151-.11.151.11.087-.122-.15-.11zm-.521-.376c.082.053.345.246.52.375l.09-.12c-.173-.127-.442-.325-.529-.381zm-.773 1.895c-.512-.235-.925-.356-1.227-.356v.15c.269 0 .657.11 1.164.342zm.066-.306-.165.341.135.066.165-.342zm-1.293-.277c.337 0 .776.124 1.33.378l.062-.137c-.56-.256-1.023-.39-1.392-.39zm-1.023.48q0-.222.274-.35c.184-.086.446-.13.75-.13v-.15c-.315 0-.602.046-.813.144-.212.099-.361.258-.361.486zm.503.426a.8.8 0 0 1-.38-.157.34.34 0 0 1-.123-.269h-.15c0 .157.063.286.176.383a.96.96 0 0 0 .449.19zm-.265-.426q0 .019.003.03l.007.026.021.066a7 7 0 0 0 .123.333l.027.07v.002l.07-.027.07-.027v-.002l-.002-.003-.005-.015-.02-.051a15 15 0 0 1-.12-.328l-.024-.077v.003zm.197-.166a.6.6 0 0 0-.133.066.2.2 0 0 0-.04.036.1.1 0 0 0-.024.064h.15q-.002.018-.006.025l-.003.006.01-.009a.4.4 0 0 1 .098-.047zm.588-.087c-.226 0-.437.03-.588.087l.052.14c.129-.047.321-.077.536-.077zm-.625 1.436.056-.373-.148-.022-.056.373zm-1.583.059a1 1 0 0 1 .215-.034 6.6 6.6 0 0 1 1.283.038l.021-.148a6.7 6.7 0 0 0-1.316-.04c-.109.01-.203.023-.257.044zm1.576-.518c-.323-.046-.736.053-1.058.157a6 6 0 0 0-.565.218l-.008.004-.004.001.032.068.032.068.002-.001.04-.018a5 5 0 0 1 .517-.197c.32-.104.704-.192.99-.151zm.309 1.76.111.362.144-.044-.112-.361zm-1.12.895c.12-.183.478-.63 1.213-.844l-.043-.144c-.778.227-1.162.703-1.295.905zm-.112-.098c-.038.035-.077.083-.077.143h.15q0 .005.003-.004a.1.1 0 0 1 .024-.027zm-.002.143.068.034.002-.005.008-.015.037-.06-.126-.082-.052.087-.003.006v.001zm1.15-.6c-.275.084-.521.163-.717.237-.193.073-.348.146-.43.22l.099.112q.091-.08.384-.192c.19-.072.433-.15.707-.232zm-.544 1.454c.012-.217.097-.779.62-1.33l-.109-.103c-.554.584-.647 1.184-.661 1.424zm-.146-.028c-.017.049-.026.11.004.162l.13-.075q.002.004 0-.005 0-.01.008-.035zm.07.124.074-.004v-.022l.002-.07-.15-.009a1 1 0 0 0-.002.108v.001zm.872-1.28c-.24.251-.455.482-.62.677a4 4 0 0 0-.207.266 1 1 0 0 0-.116.213l.143.047a.8.8 0 0 1 .097-.175q.076-.11.198-.254c.161-.191.374-.42.613-.67zm-.27-.146.273.253.102-.11-.273-.253zm.264-.196-.234.07.043.143.233-.069zm1.56 2.725-.147.348.138.059.147-.349zm-1.432-.035c.209-.062.77-.175 1.47.133l.061-.138c-.743-.326-1.342-.208-1.574-.138zm-.024-.146c-.051.001-.111.013-.15.06l.115.096.004-.001a.1.1 0 0 1 .036-.006zm-.093.108.03.068.005-.001.016-.007.066-.022-.043-.143a1 1 0 0 0-.096.033l-.006.002h-.001s-.001.001.03.07m1.501.382c-.317-.14-.608-.263-.848-.351a4 4 0 0 0-.32-.104 1 1 0 0 0-.24-.036l.005.15a.8.8 0 0 1 .197.032q.13.034.307.099c.234.086.521.208.839.347zm-.04.966.206-.318-.126-.081-.205.318zm-1.344-.682a.8.8 0 0 1 .189.065q.121.056.285.15c.216.126.477.296.766.489l.083-.125a16 16 0 0 0-.774-.493 4 4 0 0 0-.298-.158 1 1 0 0 0-.23-.077zm1.528.261c-.675-.45-1.286-.438-1.526-.41l.018.15c.216-.026.788-.04 1.425.385zm-1.617-.32.018.074.005-.001.017-.004.069-.01-.018-.149a1 1 0 0 0-.1.016l-.006.001h-.002zm.11-.09c-.05-.007-.112-.006-.158.034l.096.114q-.004.002.005 0a.1.1 0 0 1 .036 0zm-1.637-.377-.362.112.045.143.361-.111zm-.894-1.119c.182.12.63.477.844 1.212l.144-.042c-.228-.779-.703-1.162-.906-1.295zm.097-.112c-.034-.039-.082-.077-.143-.077v.15l.004.002q.009.005.027.024zm-.143-.002-.033.067.004.002.075.045.082-.125a1 1 0 0 0-.092-.055l-.002-.001zm.672 1.395a16 16 0 0 0-.276-.875 4 4 0 0 0-.127-.312 1 1 0 0 0-.126-.206l-.112.1q.045.048.103.17t.121.3c.085.234.176.533.273.865zm-2.117-.002.302-.229-.09-.12-.302.229zm-1.03-1.101q.06.03.155.125.096.095.217.24c.16.192.348.44.553.72l.12-.089c-.205-.28-.395-.532-.558-.727a4 4 0 0 0-.226-.25 1 1 0 0 0-.19-.151zm1.347.768c-.48-.654-1.058-.852-1.294-.907l-.034.146c.212.05.754.233 1.207.85zm-1.41-.853-.008.074.021.004q.024.003.069.014l.034-.146a1 1 0 0 0-.105-.02h-.002zm.135-.047c-.046-.025-.104-.044-.16-.024l.05.141.005.001a.1.1 0 0 1 .034.014zm11.184 1.834.14-.264-.134-.07-.139.264zm-.016-.145-.085.044.069.133.085-.044zm.27.54c0-.15-.063-.315-.17-.51l-.131.072c.103.19.15.328.15.438zm-.45.431a.46.46 0 0 0 .321-.118.42.42 0 0 0 .129-.313h-.15a.27.27 0 0 1-.082.204.3.3 0 0 1-.217.077zm-.075-.546v.471h.15v-.471zm.04.115.003-.006.014-.019.019-.014q.009-.003 0-.001v-.15a.15.15 0 0 0-.071.019.2.2 0 0 0-.053.04.2.2 0 0 0-.062.13zm-.244-.216a1.5 1.5 0 0 1 .09.201l.004.015h.15a.2.2 0 0 0-.009-.055l-.021-.062a2 2 0 0 0-.083-.171zm.176-.178-.145.075.07.133.144-.075zm-.206.1c.001-.002.007-.01.04-.01.034 0 .089.012.172.046l.057-.139a.7.7 0 0 0-.228-.057c-.064-.001-.121.019-.159.067zm-.435.454q.214-.171.435-.455l-.118-.092q-.215.274-.41.43zm-.068-.833a.45.45 0 0 0-.074.217 2 2 0 0 0-.008.256c.004.083.01.161.017.218l.008.069.003.019v.007l.075-.011.074-.012v-.005l-.003-.018a3 3 0 0 1-.024-.273c-.003-.08-.002-.16.007-.231a.3.3 0 0 1 .043-.144zm1.114-.088c-.224-.112-.437-.172-.627-.163a.64.64 0 0 0-.487.25l.118.093a.49.49 0 0 1 .376-.193q.235-.01.553.147zm-4.523 3.404v.472h.15v-.472zm-.685.075h.76v-.15h-.76zm-.106.015a.5.5 0 0 1 .106-.015v-.15c-.052 0-.1.01-.138.019zm-.25-.034c.084.076.189.047.25.034l-.032-.146a.4.4 0 0 1-.082.012q-.023 0-.035-.011zm-.392-.101a.065.065 0 0 1-.022.08l-.007.004.03-.003c.041-.002.102.001.167.007a5 5 0 0 1 .258.03l.004.001h.001l.012-.074.01-.074h-.001l-.005-.001-.017-.002a6 6 0 0 0-.249-.03 2 2 0 0 0-.186-.007.3.3 0 0 0-.076.012.1.1 0 0 0-.049.037.09.09 0 0 0-.005.086zm.411.308a2.7 2.7 0 0 1-.38-.277l-.027-.027q-.01-.012-.004-.004l-.135.066a.2.2 0 0 0 .027.038l.036.037q.043.038.105.089c.083.065.191.142.302.207zm-.027.166.043-.049-.107-.105-.054.062zm-.097.682.074-.01v-.007l-.003-.017a3 3 0 0 1-.024-.273 1.5 1.5 0 0 1 .007-.231.3.3 0 0 1 .043-.144l-.118-.092a.45.45 0 0 0-.074.217c-.01.082-.01.172-.008.255a3 3 0 0 0 .025.287l.003.02v.007zm.364-.488q-.215.273-.41.43l.093.117q.214-.171.435-.455zm.011-.017-.011.017.118.092.018-.026zm.275 0-.092-.042a.3.3 0 0 0-.07-.02.1.1 0 0 0-.079.023.14.14 0 0 0-.034.04l.125.082c.009-.012.007-.008.001-.004a.04.04 0 0 1-.027.01h.007l.021.008q.029.011.082.038zm.04.142a.14.14 0 0 1-.001-.053l-.144-.043a.3.3 0 0 0-.003.118zm-.229.474.064.04.002-.003.006-.01a2 2 0 0 0 .084-.16q.035-.075.059-.163a.5.5 0 0 0 .014-.178l-.148.022a.3.3 0 0 1-.011.12 1 1 0 0 1-.05.138 1 1 0 0 1-.081.151l-.002.003zm.004-.075h-.004v.15h.004zm.625-.138c0 .02-.008.038-.043.06a.5.5 0 0 1-.163.053c-.14.025-.308.025-.42.025v.15c.11 0 .291 0 .447-.027a.6.6 0 0 0 .215-.074.22.22 0 0 0 .114-.187zm-.14-.232q.064.08.104.143c.027.044.036.072.036.09h.15a.33.33 0 0 0-.058-.169 2 2 0 0 0-.113-.156zm-.15-.216c.043.077.1.151.15.216l.12-.092a2 2 0 0 1-.14-.198zm.059-.14-.05.051.11.103.049-.052zm.362-.024h-.308v.15h.308z"/><path fill="#fff" fill-rule="evenodd" d="m26.248 6.01.51-.002c.008.453-.046.83-.09 1.142-.038.256-.068.468-.053.643.015.164-.382 1.462-.382 1.462a.83.83 0 0 1-.098-.502 9 9 0 0 1 .064-.477 2 2 0 0 0 .011-.419q-.032-.369-.053-.985-.021.05-.042.11c-.067.187-.196.338-.385.482-.065.05-.11.08-.232.16a1 1 0 0 0-.2.149q-.005.007-.003-.001v-.003l.002-.011v-.002l-.36.207c-.054-.095.302-.5.555-.787.127-.143.227-.258.239-.29.107-.304.237-.512.41-.608l-.002-.092-.034.053c-.23.133-.285.199-.35.356l-.018.045c-.112.269-.286.455-.722.707l-.798.461s1.07-1.106 1.144-1.285l.018-.042c.099-.243.796-.68 1.114-.864z" clip-rule="evenodd"/><path fill="#979797" d="m26.248 6.01-.064-.04-.072.115h.136zm.51-.003.075-.001-.001-.074h-.074zm-.525 3.246-.065.038.086.149.05-.165zm-.076-2.383.075-.002-.144-.027zm-.86.885.075.003.005-.137-.118.069zm-.36.207-.064.037.037.065.065-.037zm1.204-1.686.036.066.04-.022-.001-.045zm-.002-.092.075-.001-.005-.253-.134.215zm-.034.054.038.065.016-.01.01-.015zm-1.888 1.569-.054-.053.091.117zm2.276-2.191.063.04-.1-.105zm-.245.468.51-.002v-.15l-.51.002zm.435-.076c.008.447-.045.818-.09 1.13l.148.02c.045-.311.1-.693.092-1.152zm-.09 1.13c-.036.252-.069.475-.052.66l.15-.013c-.015-.164.013-.367.05-.626zm-.052.66a.5.5 0 0 1-.012.09q-.014.076-.04.183c-.035.144-.083.32-.132.492a36 36 0 0 1-.179.612l-.012.042-.005.013.072.023.072.022.004-.015.013-.041a40 40 0 0 0 .18-.615c.049-.173.097-.351.133-.497q.026-.111.042-.192a.6.6 0 0 0 .013-.13zm-.243 1.418a.76.76 0 0 1-.088-.46l-.15-.01a.9.9 0 0 0 .108.545zm-.088-.46c.005-.068.035-.27.052-.39l-.148-.022c-.017.116-.048.326-.053.402zm.052-.39.012-.083-.149-.018-.011.08zm.012-.083a2 2 0 0 0 .011-.434l-.15.014c.012.129.008.255-.01.402zm.011-.434q-.032-.365-.053-.981l-.15.005q.021.618.054.99zm-.1-.844.041-.106-.138-.058q-.023.053-.044.114zm-.41.517c.197-.15.338-.311.41-.517l-.14-.05c-.06.17-.178.309-.36.448zm-.236.163c.122-.08.17-.111.237-.163l-.091-.12a3 3 0 0 1-.228.158zm-.184.135c.019-.021.059-.053.184-.135l-.082-.125c-.12.078-.18.121-.215.162zm-.134-.063v.008a.1.1 0 0 0 .006.04.076.076 0 0 0 .086.042l.022-.009c.007-.004.012-.01.013-.01l.007-.008-.113-.098.002-.002.012-.01.021-.008a.075.075 0 0 1 .092.08v.002zm0-.002v.002l.148.027V7.78zm0 0 .148.026.003-.022zm0-.004v.002l.15.006v-.001zm-.246.276.36-.207-.076-.13-.359.207zm.461-.902c-.126.143-.28.318-.396.47a2 2 0 0 0-.14.209.4.4 0 0 0-.037.09.14.14 0 0 0 .01.105l.13-.075c.007.013.002.02.006.006a.3.3 0 0 1 .023-.056q.042-.076.127-.188c.112-.147.263-.317.39-.462zm.224-.265q.005-.009-.014.019l-.049.06c-.041.05-.097.114-.16.186l.112.1a11 11 0 0 0 .218-.257.3.3 0 0 0 .035-.058zm.444-.65c-.197.111-.335.342-.444.65l.142.05c.105-.3.228-.486.375-.568zm.112.065-.002-.092-.15.003.002.092zm-.047.003.033-.054-.127-.08-.034.054zm-.344.344a.5.5 0 0 1 .098-.164 1 1 0 0 1 .22-.155l-.075-.13c-.116.067-.195.12-.253.181a.6.6 0 0 0-.129.21zm-.019.045.02-.045-.14-.057-.018.045zm-.754.744c.445-.257.634-.454.754-.744l-.138-.057c-.104.248-.262.423-.69.671zm-.797.46.797-.46-.075-.13-.797.46zm1.037-1.378a1 1 0 0 1-.06.09 4 4 0 0 1-.138.166c-.11.128-.25.282-.388.431a40 40 0 0 1-.53.562l-.01.01-.002.002.053.053.054.052v-.001l.003-.003.01-.009.033-.035a37 37 0 0 0 .89-.964q.087-.098.143-.173a.7.7 0 0 0 .08-.123zm.017-.042-.017.042.138.058.018-.043zm1.146-.9a8 8 0 0 0-.645.413 3 3 0 0 0-.31.249.8.8 0 0 0-.19.238l.138.057a.6.6 0 0 1 .153-.185c.081-.075.185-.156.297-.237.223-.16.475-.314.632-.405zm-.144.498.245-.394-.127-.079-.245.393z"/><path fill="#fff" fill-rule="evenodd" d="M12.051 17.286v.471h-.308l-.049.052c.041.072.095.142.146.208.082.105.155.2.155.278 0 .213-.48.213-.7.213h-.004s.181-.282.155-.463a.2.2 0 0 1 0-.086c-.148-.072-.154-.063-.178-.026l-.015.022a2.7 2.7 0 0 1-.423.442s-.087-.57.038-.729l.048-.055c-.215-.127-.42-.298-.44-.34-.034-.068.51.013.51.013.05.045.112.032.183.017a.6.6 0 0 1 .122-.017zm17.258-9.302-.17-.09c.08-.143.024-.225-.231-.292q-.445-.119-1.54-.058a4.5 4.5 0 0 0-.719.05c.01-.002-.225.034-.282.04a1 1 0 0 1-.25.005c-.218-.028-.424-.153-.787-.471-.334-.293-.564-.446-.79-.525-.228-.08-.39-.09-.993-.08l-.388.003v-.188c.12 0 .222-.002.385-.004.63-.01.803 0 1.063.092.252.089.501.254.852.562.336.294.515.402.683.423l.034.005q.01.003.02.003c.036.005.073 0 .326-.038l.099-.014a4.6 4.6 0 0 1 .696-.052c.027-.102.076-.336-.013-.39-.115-.067-.199-.174-.199-.174s.578-.111.63.07c.052.18 0 .463 0 .463l-.1.019q.219-.009.41-.008c.02-.11.048-.32-.015-.37a.7.7 0 0 1-.15-.174s.436-.111.476.07c.039.18 0 .463 0 .463l-.061.015q.415.015.664.08c.363.096.5.3.35.565" clip-rule="evenodd"/><path fill="#979797" d="m29.139 7.893-.043-.025-.026.044.045.025zm.17.09-.024.045.043.023.024-.043zm-1.94-.44-.001.05h.003zm-4.21-.978h-.05v.05h.05zm0-.188v-.05h-.05v.05zm4.159.977v.05h.038l.01-.037zm-.213-.564-.009-.049-.08.016.05.064zm.63.534.01.049.033-.006.006-.034zm-.1.018-.009-.05.011.1zm.41-.008v.05h.041l.008-.041zm-.164-.544-.013-.048-.065.016.035.058zm.475.534.012.048.033-.008.004-.033zm-.061.014-.012-.048.01.098zm.82.599.17.09.047-.087-.17-.091zm-.22-.288q.093.025.146.05a.2.2 0 0 1 .069.05.06.06 0 0 1 .013.044.2.2 0 0 1-.027.075l.087.05a.3.3 0 0 0 .04-.118.16.16 0 0 0-.034-.112.3.3 0 0 0-.104-.078 1 1 0 0 0-.164-.058zm-1.524-.056q1.094-.059 1.524.056l.026-.097q-.459-.12-1.555-.059zm-.714.049a4.4 4.4 0 0 1 .71-.049l.002-.1a4.5 4.5 0 0 0-.727.05zm-.284.042a8 8 0 0 0 .277-.041l.007-.001h.003l.002-.001c.002 0 .038-.045.012-.093a.1.1 0 0 0-.028-.005h-.004l.015.099h-.003a.1.1 0 0 1-.028-.006c-.026-.047.01-.091.012-.092h.003-.006l-.274.04zm-.262.003c.081.01.162.009.262-.003l-.012-.1a1 1 0 0 1-.237.004zm-.814-.482c.363.318.58.453.814.482l.013-.099c-.202-.025-.398-.14-.761-.458zm-.773-.515c.216.076.44.223.773.515l.066-.075c-.336-.295-.572-.452-.805-.534zm-.976-.078c.605-.01.757 0 .977.078l.033-.094c-.239-.084-.409-.093-1.012-.084zm-.389.003c.121 0 .225 0 .389-.003l-.002-.1-.387.003zm-.05-.238v.188h.1v-.188zm.434-.054c-.162.003-.265.004-.384.004v.1c.12 0 .223-.001.386-.004zm1.08.095c-.269-.094-.451-.104-1.08-.095l.002.1c.63-.01.795.002 1.045.09zm.87.571c-.353-.31-.608-.48-.87-.571l-.033.094c.244.086.487.246.837.553zm.656.412c-.152-.02-.32-.116-.656-.412l-.066.076c.335.294.524.412.71.435zm.035.005-.035-.005-.013.1.032.004zm.018.003-.018-.003-.016.099.022.003zm.313-.038c-.127.018-.198.029-.243.034a.3.3 0 0 1-.07.004l-.012.1a.4.4 0 0 0 .094-.004l.246-.035zm.098-.015-.098.015.015.099.098-.015zm.705-.052c-.258 0-.47.018-.705.052l.015.1c.23-.034.437-.052.69-.052zm-.04-.296q.011.002.021.038a.3.3 0 0 1 .005.092 1 1 0 0 1-.035.204l.097.025c.014-.052.033-.14.038-.223a.4.4 0 0 0-.008-.122.15.15 0 0 0-.066-.1zm-.172-.218-.04.031.002.002.003.004.056.06c.037.037.09.084.152.121l.05-.086a.7.7 0 0 1-.171-.147l-.01-.012-.003-.003zm.677.056c-.02-.073-.091-.106-.156-.122a1 1 0 0 0-.228-.017 2 2 0 0 0-.301.034h-.002l.01.05.009.048h.001l.023-.004a2 2 0 0 1 .263-.028.8.8 0 0 1 .2.014c.059.015.08.035.085.053zm-.048.478.05.009v-.004l.002-.01a1 1 0 0 0 .018-.156 1 1 0 0 0-.022-.317l-.096.028c.024.081.024.19.018.282a2 2 0 0 1-.018.156v.002zm-.09.067.1-.018-.019-.099-.1.019zm.4-.107q-.192 0-.412.008l.004.1q.218-.008.407-.008zm.049.059c.01-.056.023-.139.025-.215 0-.038 0-.076-.008-.11a.15.15 0 0 0-.05-.092L28 7.004c.001.002.008.01.013.034a.4.4 0 0 1 .006.088 1.4 1.4 0 0 1-.024.199zm-.033-.417a.6.6 0 0 1-.135-.158l-.002-.003-.043.025-.043.026v.001l.003.004.042.061a.7.7 0 0 0 .117.122zm-.18-.136.012.049.004-.001.061-.013a1 1 0 0 1 .148-.018.4.4 0 0 1 .143.013c.038.012.053.03.058.05l.098-.02c-.015-.07-.069-.107-.125-.125a.5.5 0 0 0-.179-.018 1.2 1.2 0 0 0-.227.033l-.004.001h-.002zm.426.08c.018.084.019.195.014.287l-.01.114q0 .022-.003.034l-.002.011.05.008.05.007v-.004l.001-.01.004-.035.01-.12a1.3 1.3 0 0 0-.016-.313zm.037.405-.06.015.023.097.06-.015zm.628.095a3.2 3.2 0 0 0-.675-.082l-.004.1q.413.015.653.08zm.38.638c.082-.144.09-.282.017-.397-.071-.112-.211-.191-.397-.24l-.026.096c.177.047.287.117.338.197.049.076.05.173-.019.295z"/><path fill="#979797" fill-rule="evenodd" d="M27.367 5.09a.4.4 0 0 1-.056.19q-.028.051-.075.116c-.013.02-.056.076-.076.103l-.011.015c-.145.197-.209.335-.209.515 0 .19-.106.302-.305.354-.147.039-.292.045-.64.039l-.19-.002a1.3 1.3 0 0 1-.442-.076l-.093-.032-.06-.021a2.4 2.4 0 0 0-.856-.127c-.395 0-.49.166-.3.429.198.272.653.57 1.19.76.53.187.67.468.48.784-.143.24-.486.485-.775.583-.239.08-.408-.05-.51-.331a2.3 2.3 0 0 1-.11-.727c0-.192-.42-.269-1.21-.271-.128 0-.244 0-.45.004l-.362.004c-.427 0-.55-.061-.65-.278l-.012-.028v-.001l-.057-.127a1.5 1.5 0 0 0-.108-.191c-.115-.174-.317-.147-.54.038-.198.164-.358.416-.358.563q0 .06.023.121c.047.12.16.243.374.414.09.072.195.15.355.267l.46.334c.087.064.23.177.357.277.12.094.225.177.258.2.154.102.308.154.626.206.144.024.325.048.591.08.657.08 1.032.052 1.45-.056l.121-.032.116-.03c.118-.026.218-.04.328-.04.269 0 .408-.106.518-.328l.033-.07.031-.069a.6.6 0 0 1 .077-.134c.038-.048.123-.035.27.025.056.023.12.052.21.094l.042.02.2.095c.093.044.171.08.246.11.462.193.747.209.862-.009q.143-.275.258-.165c.05.049.084.136.143.338.074.255.11.348.158.398.088.093.044.227-.1.428q-.03.042-.071.095c-.182.237-.206.27-.206.32 0 .15-.1.211-1.084.743a.52.52 0 0 1-.435.018c-.196-.069-.404-.224-.615-.44a4 4 0 0 1-.364-.432.6.6 0 0 0-.126.095l-.009.008a3.5 3.5 0 0 1-.39.31c-.46.315-.948.489-1.436.444a3.7 3.7 0 0 1-.958-.23l-.12-.047c-.159-.062-.42-.163-.48-.18-.124-.032-.153-.01-.121.11.052.197-.117.737-.545 1.873l-.034.092c-.483 1.282-.584 1.57-.584 1.752 0 .404.311.47 1.876.47.396 0 .589-.013.676-.043.062-.022.065-.036.049-.131-.031-.182.014-.316.239-.502.143-.12.307-.192.487-.225.271-.048.56-.003.843.102q.087.032.163.068h-.002l-.058.025-.12-.05c-.276-.101-.556-.145-.817-.098a1 1 0 0 0-.465.214c-.211.175-.25.292-.222.458.02.116.01.151-.08.183-.095.033-.29.045-.693.045-.854 0-1.197-.013-1.466-.07-.318-.066-.459-.2-.459-.446 0-.19.098-.47.587-1.769l.035-.09c.42-1.116.591-1.664.543-1.847-.041-.157.023-.208.181-.166.064.017.332.122.49.184l.115.043c.333.123.633.2.944.228.475.043.952-.126 1.405-.436a3.5 3.5 0 0 0 .488-.406l.057-.06a3 3 0 0 0 .126.17c.086.11.18.22.28.322.206.21.409.362.597.427a.47.47 0 0 0 .394-.014c.93-.502 1.06-.583 1.06-.703 0-.065.017-.09.215-.347l.07-.094c.131-.183.17-.3.104-.369-.056-.058-.092-.153-.155-.372-.07-.236-.103-.322-.145-.362-.043-.041-.097-.006-.18.153-.131.25-.44.233-.924.03a6 6 0 0 1-.248-.11c-.6-.282-.627-.293-.663-.248a.6.6 0 0 0-.07.125 2 2 0 0 1-.065.14c-.118.236-.272.354-.562.354a1.3 1.3 0 0 0-.317.04 4 4 0 0 0-.235.06c-.424.11-.806.138-1.468.058a14 14 0 0 1-.594-.08c-.325-.054-.485-.108-.646-.215a8 8 0 0 1-.263-.204 16 16 0 0 0-.813-.607 10 10 0 0 1-.357-.268c-.219-.176-.338-.305-.388-.434a.4.4 0 0 1-.027-.138c0-.163.168-.426.376-.599.242-.2.476-.232.612-.028q.063.095.11.197c.014.027.043.093.059.13l.011.027c.09.198.196.25.606.25l.36-.004c.208-.003.323-.005.453-.004.831.002 1.258.08 1.258.318 0 .243.035.513.107.711.094.26.24.373.448.302.28-.095.613-.332.75-.562.173-.288.048-.538-.455-.716-.546-.192-1.01-.496-1.214-.777-.213-.294-.094-.503.34-.503a2.5 2.5 0 0 1 .933.15l.091.032c.153.052.268.074.427.074l.19.002c.344.005.486 0 .627-.037.18-.047.27-.142.27-.31 0-.192.067-.337.218-.541l.01-.015.077-.103a1 1 0 0 0 .072-.111.35.35 0 0 0 .049-.167c0-.175-.037-.257-.102-.257-.372-.172-.839-.257-1.411-.257-.334 0-.45-.087-.573-.335L25.2 4.18c-.134-.262-.329-.372-.846-.372-.356 0-.586-.055-.853-.173l-.04-.018-.132-.06c-.375-.161-.713-.126-1.54.249-1.137.514-1.809.632-2.021.34-.839-.276-1.25-.275-1.25-.02a.6.6 0 0 0 .053.217c.018.042.037.081.07.145.13.254.158.335.11.435-.06.13-.276.192-.702.192-1.221 0-1.593 1.048-.791 2.248q.191.288.37.614a11.7 11.7 0 0 1 .83 1.934q.027.076.044.134c.017.047.022.053.028.06a2.6 2.6 0 0 1 .348.516c.071.155.091.286.046.385q-.08.178-.43.18c-.425 0-.765-.184-1.133-.538-.037-.035-.117-.117-.194-.195l-.169-.17c-.116-.11-.197-.16-.267-.16h-1.896q-.157 0-.333-.005c-.16-.004-.299-.01-.563-.021-.887-.04-1.216-.04-1.555.028-.436.087-.652.29-.652.66 0 .322-.102.711-.296 1.196-.067.167-.142.341-.24.553-.458 1.007-.52 1.143-.529 1.282q-.002.04-.001.091c0 .526-.036.89-.175 1.26-.205.546-.593.859-1.209.859-.709 0-1.026.177-1.467.667-.274.304-.405.422-.61.525-.82.41-1.6.978-1.6 1.207 0 .355.417.535 1.155.282.246-.085.354-.113.83-.225.322-.076.5-.127.692-.209.244-.103.466-.242.693-.442.365-.322.975-.765 1.504-1.096.272-.17.505-.3.672-.37a.7.7 0 0 1 .211-.065c.062-.004.101.02.101.072v.036c0 .052-.008.104-.06.482-.01.073-.018.132-.024.19-.028.228-.04.399-.034.526q.012.219.094.219c.159 0 .657.304.978.613.425.41.519.775.132.991-.358.2-.599.17-.756-.005a1 1 0 0 1-.06-.082V20.6h2.04c.258 0 .303-.147.303-.741 0-.204.058-.338.155-.413a.27.27 0 0 1 .16-.062.13.13 0 0 1 .04.057 9 9 0 0 0 .304.637c.089.16.163.266.213.298.04.025.064-.016.064-.18 0-.195.03-.376.094-.652.095-.402.106-.464.088-.579-.023-.145-.127-.213-.359-.213a.84.84 0 0 1-.588-.2l-.056-.05-.107-.096c-.088-.066-.163-.062-.297.036-.211.156-.308.178-.405.078-.027-.028-.117-.176-.212-.33a9 9 0 0 0-.207-.33 1.1 1.1 0 0 1-.162-.356c-.075-.291-.042-.602.06-.902a2 2 0 0 1 .101-.242c.04-.005.053.003.07.013a7 7 0 0 0 .412.23l.159.08c.225.108.4.17.497.17h.916l.321-1.717-.712-.289-.246-.1a3 3 0 0 1-.258-.175.4.4 0 0 1-.12-.13c-.024-.054.016-.086.1-.086.127 0 .4-.22.506-.402.11-.188-.022-.227-.497-.026-.27.115-.463.25-.596.408s-.16.224-.256.546c-.058.192-.118.263-.274.263-.254 0-.675-.66-.784-1.257-.14-.765.21-1.264 1.128-1.264.867 0 1.666.12 2.88.384 1.616.353 1.781.384 2.285.384.334 0 .523.094.602.278.059.138.057.271.018.6-.059.509-.017.711.246.83 1.037.47 2.381.877 3.154.877a.5.5 0 0 1 .154.215c.03.068.116.294.184.476.04.106.075.198.09.233.248.61.52.923.925.923.218 0 .3-.075.288-.233-.01-.124-.045-.217-.207-.586l-.073-.17c-.169-.413-.196-.672-.025-.85q.496-.52 1.94-.014c.192-.557.01-.826-.553-.826-.184 0-.417-.028-.597-.071-.215-.053-.335-.12-.308-.208.032-.105.315-.338.642-.546.119-.076.228-.138.311-.176q.023.009.042.019l-.084.05a7 7 0 0 0-.243.146c-.314.2-.594.431-.622.52-.014.046.088.104.274.149.176.043.405.07.585.07.605 0 .806.31.591.91-.99-.323-1.626-.323-1.943.01-.152.159-.127.403.035.8.02.05.042.1.072.168.166.377.2.47.21.602.015.186-.09.283-.335.283-.432 0-.715-.327-.97-.953-.015-.036-.05-.129-.091-.236a13 13 0 0 0-.183-.47.6.6 0 0 0-.118-.187c-.783-.003-2.126-.412-3.166-.882-.288-.131-.334-.35-.277-.838.042-.36.043-.49-.011-.617-.07-.164-.241-.25-.557-.25-.51 0-.674-.03-2.295-.384-1.212-.264-2.008-.383-2.87-.383-.885 0-1.215.47-1.08 1.21.105.575.514 1.217.736 1.217.128 0 .175-.055.227-.23.099-.328.127-.398.265-.561s.337-.305.615-.422c.507-.215.703-.157.558.092-.113.195-.4.426-.549.426-.044.047-.006.086.052.132l.067.05q.061.045.127.086l.041.026.014.008.991.402-.336 1.793H14.1c-.108 0-.287-.064-.519-.175a6 6 0 0 1-.476-.255l-.098-.057a.8.8 0 0 0-.1.204c-.1.292-.132.594-.059.875q.047.184.156.342c.053.079.137.216.216.345.09.147.173.284.197.309.074.076.147.06.341-.083.15-.11.25-.116.356-.036a3 3 0 0 1 .164.146c.149.125.31.19.557.19.254 0 .38.083.407.253.02.123.008.185-.089.597a2.7 2.7 0 0 0-.093.641c0 .195-.046.277-.138.22-.06-.039-.137-.148-.23-.316a8 8 0 0 1-.305-.64c-.066-.014-.097 0-.126.023-.085.065-.136.185-.136.376 0 .621-.051.788-.352.788h-2.09v-1.24c0-.076 0-.097.002-.115.043-.026.09.033.124.076l.02.024c.142.158.357.185.696-.005.348-.195.264-.525-.142-.917-.312-.3-.802-.599-.944-.599-.09 0-.133-.094-.142-.263a3 3 0 0 1 .033-.535l.025-.19.003-.023c.049-.355.056-.405.057-.455v-.034c-.093-.022-.16-.001-.245.036-.164.07-.395.198-.665.366-.527.33-1.135.772-1.497 1.092a2.5 2.5 0 0 1-.706.45 4 4 0 0 1-.7.212c-.474.112-.582.14-.826.223-.766.264-1.22.067-1.22-.326 0-.257.786-.828 1.626-1.25.199-.099.326-.213.558-.471.488-.541.817-.726 1.542-.726.594 0 .965-.299 1.164-.827.136-.363.172-.724.172-1.244v-.099c.009-.139.07-.273.5-1.217l.035-.076c.096-.211.171-.385.238-.551.192-.48.293-.864.293-1.18 0-.394.234-.614.69-.705.344-.07.675-.07 1.567-.03.264.012.403.018.562.022q.176.005.332.005h1.896c.087 0 .176.056.3.173.026.024.098.097.172.172.077.078.156.159.192.193.36.346.69.525 1.098.525.219 0 .342-.055.387-.152.038-.084.02-.203-.046-.347a2 2 0 0 0-.146-.252 3 3 0 0 0-.195-.252.3.3 0 0 1-.037-.077l-.043-.133a12 12 0 0 0-.17-.478 12 12 0 0 0-.658-1.449 8 8 0 0 0-.368-.61c-.82-1.229-.433-2.32.832-2.32.408 0 .608-.058.659-.165.037-.08.011-.158-.11-.395a2 2 0 0 1-.071-.148.6.6 0 0 1-.058-.234c0-.313.446-.313 1.322-.022q.296.418 1.978-.342c.839-.38 1.19-.417 1.58-.25l.133.061.04.018c.26.116.483.169.832.169.535 0 .747.12.89.398l.005.01.027.054c.115.232.215.307.529.307q.864 0 1.417.258c.099.004.144.109.144.304m-2.04 9.073.048-.03-.031-.014q.074-.03.109-.014c.034.016.031.051.003.098l-.012.021-.021-.012-.07-.036zm.1-.003.005-.012q-.006-.003-.026.001z" clip-rule="evenodd"/><path fill="#fff" fill-rule="evenodd" d="m12.057 11.197-.388.015a.1.1 0 0 0 .031.068l-.004-.001-.017-.006a1.2 1.2 0 0 0-.313-.028c-.124 0-.364-.014-.533-.024-.093-.005-.164-.01-.184-.01 0 0-.413.223-.413.146 0-.05.384-.341.384-.341l.005-.002.024-.009.059-.023.082-.03c.163-.055.341-.085.576-.085.435 0 .68.073.69.33m-1.92 5.787-.359-.141-.763 1.287a1.4 1.4 0 0 1-.189.11c-.042.02-.085.04-.144.065l-.073.031-.073.032q-.077.035-.196.083c-.39.163-1.035.431-1.035.636l1.17-.208c0-.047.047-.089.223-.168l.068-.03.074-.032c.064-.027.112-.05.16-.073a2 2 0 0 0 .24-.139c.286-.198.576-.678.897-1.453m-2.71 1.091.388.003c-.004.555-1.021 1.031-1.49 1.164l.668-.47zm-1.43.369-.128-.337-.987.258c-.047 0-.091-.014-.2-.062l-.01-.005c-.321-.14-.537-.136-.813.118l-.06.057a15 15 0 0 0-.437.465 1 1 0 0 1-.14.126.1.1 0 0 1-.044.023l-.446.383c.165 0 .739-.093.913-.274-.009.009.314-.347.426-.455l.054-.05c.142-.131.196-.132.388-.048l.01.004c.159.07.24.095.359.095.22 0 .57-.087 1.06-.26l-.376.274c-.66 0-.783.04-.982.388a1 1 0 0 1-.063.098.27.27 0 0 1-.136.094l-.149.052-.33.116a2 2 0 0 0-.483.265l-.088.063-.109.079a.4.4 0 0 0-.145.185c-.033.069-.058.121-.157.121l-.844.241c.275 0 1.125-.068 1.372-.241l.118-.085h.001l.08-.058c.142-.1.257-.166.394-.217.07-.026.193-.069.299-.105l.187-.066a.65.65 0 0 0 .299-.216q.044-.058.093-.142v-.001a.5.5 0 0 1 .097-.136c.072-.057.19-.057.543-.057h.003c.457 0 .766-.227.881-.649l-.375-.097zm5.192-5.723.387-.015c-.01-.256-.256-.33-.691-.33a1.74 1.74 0 0 0-.746.149s.555.229.746.229a1.2 1.2 0 0 1 .335.035.1.1 0 0 1-.031-.068m.193.646-.387.014a.1.1 0 0 0 .03.069l-.004-.001-.017-.006a1.2 1.2 0 0 0-.313-.029 1.35 1.35 0 0 0-.578.113.5.5 0 0 1-.168.036l-.451.134c-.002 0 .592-.477.619-.487q.069-.024.143-.057a1.1 1.1 0 0 1 .435-.116c.435 0 .68.073.691.33m-.678.675.387-.015c-.01-.256-.255-.33-.69-.33-.235 0-.907.49-.907.49l.072.004c.086.006.21.014.256-.004l.064-.024.066-.024a1.4 1.4 0 0 1 .448-.064q.222 0 .314.029l.016.005.005.001a.1.1 0 0 1-.03-.068m.29.834-.387.015a.1.1 0 0 0 .031.068h-.004l-.017-.006a1.2 1.2 0 0 0-.314-.03c-.19 0-.746-.228-.746-.228l.006-.002.024-.009.058-.023.083-.03a1.7 1.7 0 0 1 .575-.085c.436 0 .681.074.692.33m-.871.675.387-.014c-.01-.257-.255-.33-.69-.33a1.7 1.7 0 0 0-.718.138c-.01.003.13.034.219.053.108.023.144.03-.248-.043a121 121 0 0 0 1.08.264.1.1 0 0 1-.03-.068m1.162-3.688c-.44 0-.49.02-.527.105l-.001.003-.018.042-.006.011-.042.074s.016-.613.594-.613h.509v.378z" clip-rule="evenodd"/><path fill="#979797" d="m11.669 11.212-.003-.075-.075.003.003.075zm.387-.014.003.075.075-.003-.003-.075zm-1.408.014v-.075h-.019l-.017.01zm-.03-.196.046.06.177-.135h-.222zm.089-.033-.028-.07.055.14zm-.93 5.86.028-.07-.06-.023-.032.055zm.36.142.069.029.03-.071-.072-.028zM9.014 18.13l.043.062.014-.01.008-.014zm-.406.206.03.069-.06-.138zm-.269.115.029.07zm-1.035.636h-.075v.09l.088-.016zm1.17-.208.013.074.062-.011v-.063zm.291-.198.03.069-.06-.138zm-.95-.603h.074v-.075h-.074zm-.388-.003V18h-.042l-.022.035zm-1.102 1.167-.043-.061.063.133zm.667-.47.043.062.013-.01.008-.012zm-1.124-.665.07-.027-.023-.063-.066.017zm.127.337-.07.026.035.092.08-.058zm-1.114-.08v.075h.01l.009-.002zm-1.704.723v-.075h-.028l-.02.018zm-.446.382-.05-.057-.154.133h.204zm3.211-.987.044.061-.069-.131zm-.377.274v.075h.025l.02-.014zm-1.33.632-.024-.071-.006.002zm0 0 .025.071.006-.002zm-.9.444-.045-.06zm0 0 .043.061.001-.001zm-.412.385v-.075h-.01l-.01.003zm-.844.241-.02-.072.02.147zm4.367-1.973.072.02.02-.073-.073-.02zm-.374-.097.018-.072-.034-.01-.029.021zm5.503-5.682.003.075.075-.003-.003-.075zm-.387.015-.003-.075-.075.003.003.075zm-.962-.23-.028-.07.055.14zm-.088.034.028-.07-.013-.005h-.015zm.856.856-.003-.075-.075.003.003.075zm.387-.014.003.075.075-.003-.003-.075zm-1.205.135-.027-.07.054.14zm-.232.06v-.074h-.01l-.011.003zm-.45.135v.075h.01l.01-.003zm1.597.33.002.075.075-.003-.002-.075zm-.388.015-.002-.075-.076.002.003.076zm-1.21.145-.044-.06-.186.135h.23zm.072.004-.005.075h.005zm0 0 .005-.075h-.005zm.32-.028-.027-.07.054.14zm.721.728-.002-.075-.075.002.002.076zm.388-.015.002.075.076-.003-.003-.075zm-1.437-.181.028-.07-.014-.005h-.014zm.087-.034-.027-.07.055.14zm.865.875.003.075.075-.002-.003-.076zm-.387.015-.003-.075-.075.003.003.075zm-1.05-.196.014-.074-.031.147zm1.076.263.027-.07h-.002zm0 0-.026.07.002.001zm.542-3.52-.075-.003-.007.258.144-.214zm1.103-.613h.075v-.075h-.075zm0 .377v.075h.075v-.075zm-.122-.576.388-.014-.006-.15-.387.014zm.078-.063-.003-.004-.003-.01-.15.005a.17.17 0 0 0 .057.122zm-.079.127h.004l.008.003.016.002q.006.001.025-.004a.075.075 0 0 0 .026-.128l-.099.113a.07.07 0 0 1-.02-.081.075.075 0 0 1 .072-.05l.015.002q.008.002.002 0zm-.013-.005.013.005.05-.142-.02-.007zm-.292-.026q.217.002.292.026l.043-.144a1.3 1.3 0 0 0-.335-.032zm-.538-.023c.169.01.412.023.538.023v-.15a12 12 0 0 1-.529-.023zm-.18-.01.18.01.01-.15-.19-.01zm-.487.071c0 .024.009.05.031.068.019.016.04.02.053.022a.2.2 0 0 0 .074-.008 1 1 0 0 0 .154-.058 3 3 0 0 0 .193-.094l.013-.007.004-.002-.034-.067-.036-.066-.004.003-.013.006-.184.09a1 1 0 0 1-.13.05l-.02.004a.06.06 0 0 1 .05.059zm.459-.342-.046-.06v.002l-.004.002-.013.01-.043.034-.134.107c-.048.04-.098.082-.136.118a1 1 0 0 0-.069.08.1.1 0 0 0-.014.049h.15l-.006.026.005-.007.038-.039a6 6 0 0 1 .301-.25l.012-.009.003-.002h.001zm-.02-.073-.008.003-.005.003a.1.1 0 0 0-.024.018.08.08 0 0 0-.013.078c.014.033.043.042.046.043l.024.003v-.15h.006l.017.004c.003.001.032.01.046.043a.075.075 0 0 1-.036.095l-.005.003q-.003 0 0 0zm.023-.008-.022.008.048.142.026-.009zm.112.118h-.002l-.002.001-.02.004c-.074-.05-.042-.14-.037-.142l.004-.002h.001l.001-.001-.005.002-.018.007-.034.013.052.141.037-.014.018-.007zl.002-.002.004-.001c.005-.003.037-.092-.038-.142l-.02.003-.001.001h-.001l-.002.001zm.031-.171-.086.031.055.14.08-.03zm.6-.089c-.241 0-.428.03-.6.089l.048.142c.154-.052.324-.081.552-.081zm.766.402a.36.36 0 0 0-.066-.201.4.4 0 0 0-.166-.126c-.132-.057-.315-.075-.534-.075v.15q.323-.002.475.063a.24.24 0 0 1 .104.076.2.2 0 0 1 .037.119zM9.75 16.913l.36.142.054-.14-.36-.141zm-.671 1.256.763-1.287-.13-.077-.762 1.288zm-.22.138q.112-.055.198-.114l-.085-.123q-.076.052-.18.102zm-.148.067c.06-.025.104-.046.147-.067l-.066-.134c-.04.02-.082.039-.14.064zm-.133-.106c-.002.001-.039.099.057.14l.003-.002h.002l.006-.003.021-.01.044-.019-.06-.137-.043.019-.022.009-.006.002zl.003-.001c.096.04.06.138.059.138h-.002zm-.012.17q.03-.015.072-.032l-.06-.138-.073.033zm-.197.083c.077-.032.146-.06.197-.084l-.061-.136-.194.082zm-.99.567c0-.006.002-.018.016-.038a.4.4 0 0 1 .064-.068 1.6 1.6 0 0 1 .252-.162c.206-.11.462-.217.658-.299l-.058-.138c-.195.08-.457.19-.671.305a1.7 1.7 0 0 0-.278.18.5.5 0 0 0-.092.099.2.2 0 0 0-.041.121zm1.082-.282-1.17.208.026.148 1.17-.208zm.206-.163a1 1 0 0 0-.193.105c-.044.034-.075.076-.075.132h.15c0 .009-.008.006.017-.013a1 1 0 0 1 .162-.087zm.069-.03-.07.03.062.137.067-.03zm.073-.032-.044.02-.022.009-.006.003h-.001.001c.014-.005.102.053.06.137h-.002l-.06-.137-.001.001c-.042.084.046.142.06.138l.001-.001h.002l.006-.003.021-.01.045-.02zm.157-.071-.157.071.06.138c.064-.028.114-.05.163-.075zm.23-.133q-.1.07-.23.133l.066.134q.137-.066.25-.144zm.871-1.42q-.239.577-.456.931c-.146.238-.284.398-.414.489l.086.123q.23-.164.456-.533.225-.37.467-.953zm-2.252 1.047L7.427 18v.15l.387.003zm-1.47 1.311c.241-.068.62-.224.94-.433.16-.105.309-.226.419-.358a.7.7 0 0 0 .185-.445h-.15a.57.57 0 0 1-.15.35 1.7 1.7 0 0 1-.386.327c-.307.2-.671.35-.899.415zm.604-.603-.667.47.086.122.667-.47zm.414-.676-.435.698.128.079.434-.697zm-1.565.098.127.337.14-.053-.126-.337zm-.898.304.987-.258-.037-.145-.988.258zm-.249-.065a.6.6 0 0 0 .23.067v-.15c-.029 0-.06-.007-.17-.055zm-.01-.005.01.005.06-.138-.01-.005zm-.732.104c.131-.12.24-.175.347-.187.11-.013.229.015.385.083l.06-.137c-.165-.072-.314-.113-.462-.095-.15.018-.287.092-.432.226zm-.06.056.06-.056-.102-.11-.062.058zm-.542.359.002-.002.004-.004.008-.005a.14.14 0 0 1 .07-.005c.034.03.042.086.038.098l-.006.011-.003.005-.002.002.008-.008.156-.17c.096-.105.208-.224.267-.28l-.104-.109a9 9 0 0 0-.396.42l-.035.038-.009.01-.001.002-.003.003-.004.006-.006.01c-.004.013.005.069.039.099a.14.14 0 0 0 .07-.005l.008-.006.004-.003.003-.003zm-.043.24q.064-.045.151-.136l-.108-.104a1 1 0 0 1-.127.116zm-.087.036a.1.1 0 0 0 .03-.005l.017-.008.04-.023-.084-.124-.021.013q-.003 0 0 0l.018-.003zm-.398.364.447-.382-.098-.114-.446.382zm.811-.383a.5.5 0 0 1-.168.103 2.3 2.3 0 0 1-.691.149v.15a2.4 2.4 0 0 0 .75-.161.7.7 0 0 0 .217-.137zm.428-.456a9 9 0 0 0-.382.406l-.036.04-.01.01-.002.003h-.001l-.001.002-.001.001-.003.004-.01.025c.015.066.096.089.113.08l.011-.009.002-.002-.108-.104.002-.002.01-.008c.018-.009.1.014.115.08l-.014.029-.002.002.001-.001.009-.01.156-.17c.094-.102.201-.216.255-.268zm.055-.052-.055.052.104.108.053-.05zm.47-.061c-.094-.04-.174-.071-.252-.062-.081.008-.146.057-.218.123l.102.11c.07-.064.104-.081.132-.084.033-.004.077.007.175.05zm.01.005-.01-.005-.06.137.01.005zm.328.088c-.104 0-.173-.02-.328-.088l-.06.137c.16.07.253.1.388.1zm1.036-.255c-.492.172-.83.255-1.036.255v.15c.235 0 .595-.091 1.086-.264zm-.308.405.377-.274-.088-.121-.377.274zm-.96.364c.096-.17.166-.248.28-.292.122-.047.303-.058.636-.058v-.15c-.326 0-.537.01-.69.069-.164.063-.255.178-.357.357zm-.07.107a1 1 0 0 0 .07-.107l-.131-.074a1 1 0 0 1-.057.089zm-.168.118a.5.5 0 0 0 .097-.05.3.3 0 0 0 .071-.068l-.118-.092a.2.2 0 0 1-.038.037.3.3 0 0 1-.067.033zm-.151.053.151-.053-.055-.14-.145.05zm-.328.116c.08-.03.22-.078.328-.116l-.05-.142c-.107.037-.248.086-.33.117zm-.467.255a2 2 0 0 1 .467-.255l-.053-.141c-.18.068-.329.152-.5.274zm-.087.063.087-.063-.086-.122c-.016.01-.052.036-.089.063zm-.11.079.11-.079-.088-.122-.108.078zm-.12.156a.35.35 0 0 1 .12-.156l-.086-.123c-.102.071-.141.155-.17.214zm-.225.164a.2.2 0 0 0 .155-.056c.035-.033.055-.077.07-.108l-.135-.065a.2.2 0 0 1-.038.065c-.006.005-.017.014-.052.014zm-.823.238.844-.241-.041-.144-.844.241zm1.308-.375a.9.9 0 0 1-.255.1 4 4 0 0 1-.388.073 6 6 0 0 1-.686.055v.15c.142 0 .426-.017.707-.056a4 4 0 0 0 .404-.077c.12-.031.23-.07.304-.122zm.118-.084-.118.084.086.123.12-.085zm0 0 .087.122.001-.001zm.08-.058-.08.058.088.12.079-.055zm.412-.227a1.8 1.8 0 0 0-.412.227l.087.123c.14-.1.248-.16.378-.21zm.3-.106c-.105.037-.23.08-.3.106l.053.14c.068-.025.19-.067.296-.104zm.002 0 .05.142zm0 0 .047.142h.001zm.183-.064-.183.064.048.142.19-.067zm.267-.193a.57.57 0 0 1-.267.193l.055.139a.7.7 0 0 0 .33-.24zm.087-.133q-.047.081-.087.133l.118.092q.05-.063.099-.15zm0 0 .13.075v-.001zm.116-.158c-.05.04-.082.097-.116.157l.13.075a.4.4 0 0 1 .08-.114zm.59-.073c-.176 0-.298 0-.384.007a.37.37 0 0 0-.206.066l.093.117c.019-.014.048-.027.126-.034a5 5 0 0 1 .37-.007zm.002 0h-.003v.15h.003zm.809-.594a.8.8 0 0 1-.285.442.86.86 0 0 1-.524.151v.15c.241 0 .45-.06.613-.18a.93.93 0 0 0 .34-.523zm-.321-.004.374.097.038-.146-.375-.096zm-.014.043.077-.055-.089-.122-.076.056zm5.533-5.873-.387.015.006.15.387-.015zm-.688-.18q.323 0 .475.063a.24.24 0 0 1 .104.077.2.2 0 0 1 .037.118l.15-.006a.36.36 0 0 0-.065-.2.4.4 0 0 0-.166-.127c-.133-.057-.316-.075-.535-.075zm-.552.081a1.7 1.7 0 0 1 .552-.08v-.15c-.241 0-.428.03-.6.088zm-.08.03.08-.03-.048-.142-.086.031zm-.059.022.037-.014.018-.007.005-.002h.001l.002-.001.004-.002c.005-.003.037-.092-.038-.142l-.019.004H10.2l-.002.001.055.14h-.002l-.002.002-.019.003c-.075-.05-.043-.139-.038-.142l.004-.002h.003l-.006.002-.018.006-.034.014zm-.026.01.026-.01-.052-.14-.022.008zm-.03-.144h.007l.017.003c.003.002.032.01.046.043a.075.075 0 0 1-.03.092l-.006.004-.005.002h.001l-.048-.142-.008.003-.014.006q-.005.002-.016.015a.075.075 0 0 0 .05.123h.007zm.747.229a.8.8 0 0 1-.177-.033 4 4 0 0 1-.243-.077 7 7 0 0 1-.296-.113h-.002l-.028.069-.029.07h.002l.005.002.018.007.066.027.215.08c.082.028.17.057.252.08a1 1 0 0 0 .217.038zm.335.032a1.3 1.3 0 0 0-.335-.032v.15q.217.001.292.025zm.02.006-.02-.006-.043.143.013.005zm-.07.129-.008-.01-.01-.016a.075.075 0 0 1 .045-.102l.025-.003q.013 0 .015.002.007.002.003 0l-.05.142.004.001.008.002.016.003a.08.08 0 0 0 .073-.05.08.08 0 0 0-.013-.073l-.009-.01zm-.056-.122a.17.17 0 0 0 .056.122l.099-.113-.003-.005-.002-.01zm-.116.732.387-.014-.006-.15-.387.014zm.077-.063-.002-.005-.003-.01-.15.006a.17.17 0 0 0 .056.122zm-.079.126.004.002.008.002.016.002q.007.001.026-.004a.075.075 0 0 0 .035-.119l-.01-.01-.098.114-.01-.01-.01-.016a.075.075 0 0 1 .071-.105l.015.002c.004 0 .008.002.003 0zm-.013-.004.014.004.049-.141-.02-.007zm-.292-.026q.217.002.292.026l.043-.144a1.3 1.3 0 0 0-.335-.032zm-.424.06c.113-.038.24-.06.424-.06v-.15c-.197 0-.341.024-.472.068zm-.063.023q.034-.014.063-.023l-.048-.142-.07.025zm-.065.025.042-.016.019-.007.004-.002h.002l.001-.001.003-.002.013-.008c.027-.077-.048-.134-.062-.132l-.007.002h-.002l-.002.001.054.14H10.2l-.002.002h-.005c-.015.003-.09-.054-.063-.132l.013-.008h.002l.002-.002-.004.002-.018.007-.04.016zm-.194.04a.5.5 0 0 0 .194-.04l-.052-.14a.4.4 0 0 1-.142.03zm-.43.132.452-.135-.043-.143-.451.134zm.574-.63q-.016.006-.02.01l-.01.006-.025.018-.075.058a23 23 0 0 0-.487.388l-.02.015-.005.005-.003.002-.004.004-.008.01a.1.1 0 0 0-.013.036c.005.034.048.076.075.081v-.15c.027.005.07.048.075.081a.1.1 0 0 1-.012.036l-.009.01-.003.003.003-.003.018-.014.067-.054.49-.387.021-.015.004-.003-.01.005zm.137-.055a2 2 0 0 1-.137.055l.048.142q.075-.026.149-.06zm.465-.122c-.186 0-.34.068-.465.122l.06.137c.127-.055.255-.11.405-.11zm.766.402a.36.36 0 0 0-.065-.201.4.4 0 0 0-.166-.126c-.132-.057-.316-.075-.535-.075v.15q.324-.001.476.062a.24.24 0 0 1 .104.077.2.2 0 0 1 .036.119zm-.368.588-.387.015.005.15.387-.015zm-.688-.18q.323-.002.475.063.073.032.104.076.033.043.037.119l.15-.006a.36.36 0 0 0-.066-.2.4.4 0 0 0-.166-.127c-.132-.057-.316-.075-.534-.075zm-.907.415.044.06h.002l.006-.004.02-.016a7 7 0 0 1 .333-.221c.098-.06.201-.12.293-.165a.6.6 0 0 1 .208-.069v-.15a.7.7 0 0 0-.272.084c-.1.048-.208.11-.308.172a7 7 0 0 0-.34.227l-.022.016-.008.006zm.077-.071-.077-.004v.15l.067.004zm.225.001h-.002l-.006.002-.02.002-.058.002-.139-.007-.01.15a3 3 0 0 0 .22.005.3.3 0 0 0 .068-.014zm.117.115q.002 0 0 0H9.91l-.006.002c-.015.002-.09-.055-.063-.132l.016-.01h.002l-.004.002-.02.007-.039.015.053.14c.008-.002.026-.01.041-.016l.02-.008zl.002-.001h.001l.003-.002.014-.008c.027-.078-.048-.135-.063-.133l-.006.002H9.86l-.003.002zm.015-.165-.07.026.055.14.063-.024zm.473-.067c-.198 0-.342.023-.473.067l.048.142c.113-.038.24-.06.425-.06zm.334.032A1.3 1.3 0 0 0 10.4 14v.15q.219.001.292.025zm.02.006-.02-.006-.043.143.014.005zm-.07.128a.07.07 0 0 1-.02-.08.075.075 0 0 1 .073-.05l.014.001.003.001-.05.142h.005l.008.003.015.002a.08.08 0 0 0 .073-.05.08.08 0 0 0-.002-.055q-.006-.014-.01-.017l-.01-.01zm-.056-.121a.17.17 0 0 0 .057.121l.098-.113-.002-.004-.003-.01zm-.019.92.387-.014-.005-.15-.387.015zm.078-.063-.003-.004-.003-.01-.15.006a.17.17 0 0 0 .057.121zm-.079.127.004.001.008.002.015.002a.08.08 0 0 0 .073-.05.08.08 0 0 0-.012-.072l-.01-.01-.098.113-.009-.009-.01-.017a.075.075 0 0 1 .07-.105l.016.002.002.001zm-.014-.005.014.005.05-.142-.02-.006zm-.29-.025q.217.001.291.025l.043-.143a1.3 1.3 0 0 0-.334-.032zm-.746-.304-.029.069h.002l.005.003.018.007.066.026.214.08c.082.029.172.058.253.08a1 1 0 0 0 .217.039v-.15a.8.8 0 0 1-.178-.034 4 4 0 0 1-.242-.077 7 7 0 0 1-.292-.11l-.004-.002h-.002zm-.02-.073-.008.003-.006.002-.007.004q-.005.001-.017.015a.075.075 0 0 0 .058.124v-.15h.006l.017.003c.003.001.032.01.046.043a.075.075 0 0 1-.03.092l-.006.004-.005.002q-.004 0 0 0zm.022-.008-.022.008.049.142.026-.01zm.113.117H9.67l-.002.001-.02.004c-.074-.05-.042-.139-.037-.142l.005-.002h.001l-.005.001-.053.02.053.141.037-.014.018-.007zl.002-.001.004-.002c.005-.003.037-.092-.038-.142l-.02.004H9.62l-.002.001zm.031-.171-.086.031.055.14.08-.03zm.6-.089c-.242 0-.428.03-.6.089l.048.142a1.7 1.7 0 0 1 .552-.08zm.766.402a.36.36 0 0 0-.066-.2.4.4 0 0 0-.166-.127c-.132-.057-.316-.075-.534-.075v.15q.323-.002.475.063a.24.24 0 0 1 .104.076.2.2 0 0 1 .037.119zm-.563.588-.387.015.006.15.387-.015zm-.688-.18q.324 0 .476.063.072.032.104.077a.2.2 0 0 1 .036.118l.15-.006a.36.36 0 0 0-.065-.2.4.4 0 0 0-.166-.127c-.132-.057-.316-.074-.535-.074zm-.551.081c.154-.052.324-.08.551-.08v-.15c-.241 0-.428.03-.6.088zm-.08.03.08-.03-.048-.142-.086.032zm-.06.023.037-.015.018-.007.005-.002h.002l.002-.001.003-.002c.006-.003.037-.092-.037-.141l-.02.003h-.002v.001h-.002l.054.14-.002.001h-.001l-.02.004c-.074-.05-.043-.139-.037-.142l.003-.001h.002v-.001q.002 0 0 0l-.005.002-.017.007-.035.013zm.209-.09-.146-.033-.051-.013-.007-.001.005.002q.004 0 .015.01c.002.002.031.028.022.07-.009.041-.044.054-.046.055l-.053-.14a.07.07 0 0 0-.048.054c-.009.043.02.069.023.072.012.01.025.015.026.015l.022.008.058.014.148.033zm-.278.104.314.058.01.001h.016q.005.001.024-.005a.076.076 0 0 0 .04-.098.08.08 0 0 0-.05-.043l-.004-.002-.01-.002-.062-.014-.032.147.061.013.006.002-.004-.002-.003-.001-.01-.005a.07.07 0 0 1-.03-.035.075.075 0 0 1 .039-.098l.024-.006H9.4h-.004c-.025-.005-.113-.02-.31-.058zm1.095.112a36 36 0 0 0-.556-.137l-.35-.084-.114-.028-.032-.007-.008-.002H9.09l-.018.072-.017.073h.003l.008.003.032.007.114.028.898.219zm.02.006q-.005 0-.02-.006l-.043.144.014.004zm-.07.129a.07.07 0 0 1-.02-.082.075.075 0 0 1 .072-.05l.015.003c.004 0 .008.002.003 0l-.05.142.004.001.008.003.016.002q.007.001.026-.004a.076.076 0 0 0 .035-.119l-.01-.01zm-.056-.122a.17.17 0 0 0 .056.122l.1-.113-.003-.005-.003-.01zm.779-3.556c.007-.016.011-.021.015-.024a.1.1 0 0 1 .045-.017 2 2 0 0 1 .398-.02v-.15a2.3 2.3 0 0 0-.43.023.25.25 0 0 0-.108.048.2.2 0 0 0-.058.08zm-.001.003v-.003l-.137-.06v.003zm-.02.044.02-.044-.138-.06-.017.04zm-.005.012.005-.012-.135-.065-.005.011zm-.048.082a1 1 0 0 0 .047-.082l-.134-.066-.037.064zm.532-.729a.65.65 0 0 0-.38.11.6.6 0 0 0-.2.238.9.9 0 0 0-.089.335v.002l.075.002.075.003v-.005a.4.4 0 0 1 .01-.08.7.7 0 0 1 .063-.19.5.5 0 0 1 .152-.183.5.5 0 0 1 .294-.082zm.394 0h-.394v.15h.394zm0 .15h.115v-.15h-.115zm.04-.075v.377h.15v-.377zm.075.302h-.115v.15h.115zm-.509.15h.394v-.15h-.394z"/><path fill="#fff" fill-rule="evenodd" stroke="#979797" stroke-width="0.15" d="M27.216 4.81s-.548-.257-1.411-.257c-.864 0-.207-.77-1.45-.77-1.245 0-.875-.77-2.576 0-1.7.77-1.996.343-1.996.343s-1.29-.427-1.29 0 .799.965-.444.965-1.622 1.07-.811 2.284c.81 1.214 1.256 2.724 1.256 2.724s.968 1.062 0 1.062c-.969 0-1.42-1.062-1.763-1.062h-1.896c-1.499 0-2.298-.662-3.396.887-1.098 1.55-.797 2.376-.797 2.92 0 .545-.01 2.095-1.36 2.095s-1.805.9-2.514 1.255-1.188.898-1.188 1.168.301.609 1.188.304c.887-.304 1.484-.229 2.224-.88.739-.652 2.447-1.774 2.447-1.476 0 .297-.269 1.476 0 1.476s1.927 1.096 1.098 1.56-.829-.464-.829 0v1.216h2.065c.328 0 .328-.314.328-.765s.29-.451.29-.451.645 1.553.645.788.534-1.468-.2-1.468c-.735 0-.65-.609-1.063-.304-.413.304-.343.075-.79-.576-.446-.652 0-1.476 0-1.476s.826.504 1.117.504h.936l.329-1.755-.973-.394s-.583-.347-.291-.347c.29 0 1.116-.947 0-.473-1.117.473-.67 1.214-1.117 1.214s-1.693-2.473.344-2.473 3.91.767 5.166.767c1.255 0 .087 1.359.855 1.706.767.348 2.253.88 3.164.88.295.238.45 1.847 1.353 1.847s-.487-1.335 0-1.847c.488-.511 1.939 0 1.939 0s.313-.88-.569-.88c-.355 0-.926-.104-.882-.248.066-.213 1.259-.982 1.082-.681 0 0-.923-.536-1.57 0-.646.535.382.681-.979.681s-1.386-.208-1.386-.681.766-3.079.65-3.523c-.117-.445.646.22 1.704.317s1.95-.887 1.95-.887.823 1.205 1.411.887c.589-.317 1.072-.558 1.072-.723s.57-.63.383-.826-.217-1.153-.52-.576c-.302.576-1.69-.508-1.832-.331-.14.176-.158.61-.678.61s-.709.315-2.017.158c-1.309-.158-1.052-.187-1.845-.768s-1.221-.842-1.221-1.155.665-1.031.943-.614.101.614.806.614 2.047-.081 2.047.287c0 .369.092 1.204.587 1.036s1.442-.918.295-1.323-1.764-1.234-.882-1.234.936.255 1.45.255c.515 0 1.112.071 1.112-.367 0-.439.427-.658.427-.938s-.127-.28-.127-.28Z" clip-rule="evenodd"/><path fill="#000" fill-rule="evenodd" d="M25.446 4.565v-.016a.287.287 0 0 0-.29-.283.286.286 0 0 0-.291.283c0 .123.081.228.194.267a.287.287 0 0 1 .29-.267q.051 0 .097.016m-1.09.832a.28.28 0 0 1-.073-.188.287.287 0 0 1 .315-.282.3.3 0 0 0-.218-.095c-.16 0-.29.126-.29.283 0 .148.117.27.267.282" clip-rule="evenodd"/><path fill="#fff" fill-rule="evenodd" stroke="#979797" stroke-width="0.15" d="M12.85 21.907c.59 0 1.067-.444 1.067-.99 0-.548-.477-.991-1.066-.991s-1.066.443-1.066.99.477.99 1.066.99Zm2.133-5.094c.588 0 1.065-.443 1.065-.99 0-.548-.477-.991-1.065-.991-.589 0-1.066.443-1.066.99 0 .548.477.991 1.066.991Zm9.93 1.034c.67 0 1.211-.549 1.211-1.226s-.542-1.226-1.21-1.226c-.67 0-1.212.549-1.212 1.226s.542 1.226 1.211 1.226Z" clip-rule="evenodd"/></g></g><defs><clipPath id="a"><path fill="#fff" d="M0 0h32v24H0z"/></clipPath></defs></svg>