<svg xmlns="http://www.w3.org/2000/svg" width="32" height="24" fill="none" viewBox="0 0 32 24"><g clip-path="url(#a)"><mask id="b" width="32" height="24" x="0" y="0" maskUnits="userSpaceOnUse" style="mask-type:luminance"><path fill="#fff" d="M32 0H0v24h32z"/></mask><g mask="url(#b)"><path fill="#fff" d="M32 0H0v24h32z"/><path fill="#73BE4A" fill-rule="evenodd" d="M0 0h32v24H0z" clip-rule="evenodd"/><path fill="#AF0100" fill-rule="evenodd" d="M0 0v16h32V0z" clip-rule="evenodd"/><path fill="#F7FCFF" d="M6 0H0v24h6z"/><path fill="#B20000" fill-rule="evenodd" d="M.444 2.238 1.897.058l1.415 2.18-1.415 2.08zm1.448 1.19.814-1.197L1.892.977l-.836 1.254zM2 2.065h-.25v.516H2zm-.863 2.123-.693.99.693.945.675-.945zm.324 1.007-.312.424-.316-.45.315-.464zm1.176-1.007-.693.99.693.945.675-.945zm.324 1.007-.312.424-.316-.45.315-.464z" clip-rule="evenodd"/><path fill="#B20000" fill-rule="evenodd" d="m3.637 4.188-.693.99.693.945.675-.945zm.324 1.007-.312.424-.316-.45.315-.464zm1.176-1.007-.693.99.693.945.675-.945zm.324 1.007-.312.424-.316-.45.315-.464zM2.944 2.238 4.397.058l1.415 2.18-1.415 2.08zm1.448 1.19.814-1.197L4.392.977l-.836 1.254zM4.5 2.065h-.25v.516h.25z" clip-rule="evenodd"/><path fill="#B20000" d="M1.656 12.408.037 9.688l.426-.27 1.174 1.972 1.432-2.632 1.468 2.638 1.037-1.721.425.272-1.48 2.455-1.445-2.6z"/><path fill="#B20000" fill-rule="evenodd" d="M.75.516h.269v.516H.75zM3 0h.269v.516H3zm2.25.516h.269v.516H5.25zM.75 3.613H1v.516H.75zm2.25 0h.25v.516H3zm2.5 0h-.25v.516h.25zM.75 6.195H1v.516H.75zm2.25 0h.25v.516H3zm2.5 0h-.25v.516h.25z" clip-rule="evenodd"/><path fill="#B20000" fill-rule="evenodd" d="m2.208 8.953-.664.969L.496 8.035l1.38-2.156 1.186 1.88 1.187-1.88 1.38 2.156L4.58 9.922l-.664-.969.524-1.09-.192-.443-1.12 1.817v.215l-.067-.107-.066.107v-.215L1.876 7.42l-.192.443zM3 10.582h.25v.516H3zm0 2.58h.25v.517H3zm0-1.806h-.25v.516H3v.258h-.25v.516H3v-.258h.25v.258h.25v-.516h-.25v-.258h.25v-.516h-.25v.516H3zm-.75.516h.25v.517h-.25zm1.75 0h-.25v.517H4zm-3.5 0h.25v.517H.5zm5.25 0H5.5v.517h.25zM.444 21.763l1.453 2.18 1.415-2.18-1.415-2.08zm1.448-1.19.814 1.197-.814 1.254-.836-1.254zM2 21.935h-.25v-.516H2zm-.863-2.12-.693-.99.693-.946.675.945zm.324-1.008-.312-.423-.316.449.315.465zm1.176 1.008-.693-.99.693-.946.675.945zm.324-1.008-.312-.423-.316.449.315.465z" clip-rule="evenodd"/><path fill="#B20000" fill-rule="evenodd" d="m3.637 19.815-.693-.99.693-.946.675.945zm.324-1.008-.312-.423-.316.449.315.465zm1.176 1.008-.693-.99.693-.946.675.945zm.324-1.008-.312-.423-.316.449.315.465zm-2.517 2.956 1.453 2.18 1.415-2.18-1.415-2.08zm1.448-1.19.814 1.197-.814 1.254-.836-1.254zm.108 1.361h-.25v-.516h.25z" clip-rule="evenodd"/><path fill="#B20000" d="M1.656 11.594.037 14.313l.426.27 1.174-1.971 1.432 2.632 1.468-2.638 1.037 1.721.425-.272-1.48-2.455-1.445 2.599z"/><path fill="#B20000" fill-rule="evenodd" d="M.75 23.485h.269v-.516H.75zM3 24h.269v-.516H3zm2.25-.515h.269v-.516H5.25zm-4.5-3.098H1v-.516H.75zm2.25 0h.25v-.516H3zm2.5 0h-.25v-.516h.25zM.75 17.805H1v-.516H.75zm2.25 0h.25v-.516H3zm2.5 0h-.25v-.516h.25z" clip-rule="evenodd"/><path fill="#B20000" fill-rule="evenodd" d="m2.208 15.19-.664-.967L.496 16.11l1.38 2.155 1.186-1.879 1.187 1.88 1.38-2.156-1.048-1.887-.664.968.524 1.09-.192.443-1.12-1.817v-.215l-.067.107-.066-.107v.215l-1.12 1.817-.192-.443z" clip-rule="evenodd"/></g></g><defs><clipPath id="a"><path fill="#fff" d="M0 0h32v24H0z"/></clipPath></defs></svg>