<svg xmlns="http://www.w3.org/2000/svg" width="32" height="24" fill="none" viewBox="0 0 32 24"><g clip-path="url(#a)"><mask id="b" width="32" height="24" x="0" y="0" maskUnits="userSpaceOnUse" style="mask-type:luminance"><path fill="#fff" d="M32 0H0v24h32z"/></mask><g mask="url(#b)"><path fill="#fff" d="M32 0H0v24h32z"/><path fill="#0168B4" fill-rule="evenodd" d="M0 0v24h32V0z" clip-rule="evenodd"/><mask id="c" width="32" height="24" x="0" y="0" maskUnits="userSpaceOnUse" style="mask-type:luminance"><path fill="#fff" fill-rule="evenodd" d="M0 0v24h32V0z" clip-rule="evenodd"/></mask><g mask="url(#c)"><path fill="#E93C43" fill-rule="evenodd" d="M0 0v3h32V0zm0 21v3h32v-3z" clip-rule="evenodd"/><path fill="#F7FCFF" d="M16 18a6 6 0 1 1 0-12 6 6 0 0 1 0 12"/><path fill="#fff" d="M16 20a8 8 0 1 1 0-16 8 8 0 0 1 0 16"/><path stroke="#9C4C17" stroke-width="0.5" d="M16 19a7 7 0 1 0 0-14 7 7 0 0 0 0 14Z" clip-rule="evenodd"/><path fill="#5B8C39" fill-rule="evenodd" d="m15.573 4.082-.155.335c.256.139.353.454.353.644s-.1.333-.353.465l.155.347c.106-.056.21-.102.31-.147.356-.158.638-.283.638-.665 0-.466-.428-.697-.89-.947zm2.24.21-.241.279c.208.204.214.534.162.717-.052.181-.188.292-.468.35l.054.375q.176-.034.338-.055c.386-.054.691-.096.797-.463.128-.449-.22-.789-.594-1.156zm1.795 1.03.313-.197.032.06c.25.46.483.887.23 1.278-.209.32-.514.272-.898.21q-.16-.028-.34-.046l.059-.375c.284.027.447-.04.55-.197.103-.16.193-.477.054-.733m2.084 1.192-.355.103c.063.284-.11.564-.255.69-.142.123-.316.142-.582.038l-.16.344q.168.067.314.138c.353.165.632.296.92.045.352-.306.246-.78.132-1.292zm.94 1.831H23l-.004.066c-.03.524-.06 1.01-.483 1.207-.346.161-.578-.042-.872-.297a5 5 0 0 0-.263-.22l.248-.287c.227.174.4.204.57.124.173-.08.417-.302.435-.593m1.119 2.138-.353-.107c-.102.273-.4.413-.59.44-.186.025-.343-.054-.509-.286l-.321.202c.07.097.13.195.188.287.206.33.37.592.747.539.462-.065.631-.52.815-1.012zm-.2 2.047.31.2-.04.054c-.311.423-.6.814-1.062.749-.377-.053-.462-.35-.57-.724-.03-.104-.06-.215-.1-.328l.364-.105c.095.269.224.388.41.414.19.027.515-.025.688-.26m-.215 2.405-.238-.282c-.235.173-.561.128-.734.048-.17-.08-.26-.232-.272-.517l-.38-.005q.007.18.002.342c-.007.39-.013.698.333.86.423.197.813-.093 1.235-.406zM22.06 16.55l.15.337-.062.023c-.491.185-.947.356-1.298.05-.288-.25-.198-.546-.084-.918.032-.104.066-.214.093-.33l.364.11c-.067.278-.024.448.119.572.143.125.445.258.718.156m-1.475 1.892-.053-.365c-.29.023-.543-.188-.647-.348s-.097-.334.043-.583l-.319-.205c-.058.104-.121.2-.18.291-.212.326-.38.585-.173.905.254.391.739.352 1.262.31zm-1.954.682-.057.365-.065-.014c-.513-.113-.987-.218-1.116-.666-.105-.367.132-.565.43-.815q.126-.104.258-.226l.244.29c-.206.197-.263.363-.211.544.053.183.233.46.517.522m-2.266.793.155-.335c-.256-.139-.353-.453-.353-.644 0-.189.1-.333.353-.465l-.155-.346q-.16.081-.31.146c-.356.158-.638.283-.638.665 0 .466.427.698.889.947zm-2-.489-.24.28-.049-.047c-.374-.368-.722-.708-.593-1.156.105-.367.41-.41.796-.464.108-.015.222-.03.339-.055l.054.376c-.28.057-.416.168-.468.35-.053.183-.046.512.162.716m-2.348-.554.312-.196c-.139-.256-.049-.573.055-.733.103-.159.265-.225.55-.198l.058-.375a5 5 0 0 1-.34-.046c-.384-.061-.689-.11-.897.21-.254.391-.021.818.23 1.28zM10.6 17.381l-.354.103-.015-.065c-.114-.513-.22-.987.132-1.293.288-.25.568-.12.92.045.099.046.203.095.314.138l-.16.345c-.265-.105-.44-.086-.582.038-.144.125-.318.405-.255.69m-1.663-1.727.37-.001c.017-.291.261-.512.434-.593.171-.08.344-.05.57.124l.249-.287q-.142-.11-.264-.22c-.293-.255-.526-.458-.872-.296-.423.197-.452.682-.483 1.206zm-.397-2.031-.354-.107.024-.063c.183-.492.353-.948.814-1.012.378-.054.542.208.748.539q.084.14.188.287l-.322.201c-.166-.232-.322-.311-.51-.285s-.486.167-.588.44m-.464-2.355.31.2c.174-.234.499-.287.688-.26.187.026.315.146.41.415l.365-.106a5 5 0 0 1-.101-.327c-.107-.375-.192-.672-.57-.725-.462-.065-.75.327-1.062.749zm.764-1.923-.238-.282.054-.04c.421-.313.812-.602 1.234-.405.346.161.34.47.334.859-.002.108-.005.223 0 .343l-.379-.006c-.012-.285-.1-.437-.272-.516-.172-.081-.499-.126-.733.047m.886-2.232.15.337c.274-.103.575.03.719.156.142.124.185.294.119.571l.363.11c.028-.116.062-.226.093-.33.114-.372.205-.667-.083-.917-.352-.306-.807-.135-1.298.05zm1.678-1.19-.052-.366.067-.005c.523-.042 1.008-.08 1.261.31.208.32.04.58-.172.905q-.092.136-.18.292l-.32-.206c.14-.249.146-.424.043-.582-.103-.16-.356-.371-.647-.349m1.958-1.413-.057.365c.285.063.465.339.518.522.052.182-.005.348-.212.545l.245.29q.13-.123.258-.226c.298-.25.535-.449.43-.815-.13-.449-.604-.553-1.116-.666z" clip-rule="evenodd"/><path fill="#247805" fill-rule="evenodd" d="M12.279 13.986s-1.1-.024-1.1.481c0 .506 0 1.065.55.785s1.222-.39 1.578-.195a4.9 4.9 0 0 0 2.352.592c1.168 0 1.09-.396 2.166-.396s2.996-.086 2.551-.436-.968-.571-1.368-.571-.706 0-1.546-.412-1.779-.449-2.724-.316-1.07.468-1.63.468z" clip-rule="evenodd"/><path fill="#fff" d="m16.1 15.65.07.239h.003l.006-.003.02-.006.072-.025a3.9 3.9 0 0 0 .992-.537c.545-.41 1.113-1.091 1.113-2.127V10.45h-4.553v2.741c0 1.01.57 1.69 1.111 2.105a4 4 0 0 0 1.06.581l.02.007.006.002h.002s.001.001.078-.237m0 0 .07.239-.074.022-.073-.024z"/><path stroke="#565656" stroke-width="0.5" d="m16.1 15.65.07.239m-.07-.24-.078.238h-.002l-.006-.003-.02-.007-.071-.026a4 4 0 0 1-.988-.555c-.542-.415-1.112-1.095-1.112-2.105v-2.492m2.276 4.95.071.24m-.07-.24-.077.238.073.024.074-.022m0 0h.003l.006-.003.02-.006.072-.025a3.9 3.9 0 0 0 .992-.537c.545-.41 1.113-1.091 1.113-2.127V10.7m0 0h-.25m.25 0v-.25h-4.553v.25m0 0h.25"/><mask id="d" width="6" height="7" x="13" y="10" maskUnits="userSpaceOnUse" style="mask-type:luminance"><path fill="#fff" d="m16.1 15.65.07.239h.003l.006-.003.02-.006.072-.025a3.9 3.9 0 0 0 .992-.537c.545-.41 1.113-1.091 1.113-2.127V10.45h-4.553v2.741c0 1.01.57 1.69 1.111 2.105a4 4 0 0 0 1.06.581l.02.007.006.002h.002s.001.001.078-.237m0 0 .07.239-.074.022-.073-.024z"/><path stroke="#fff" stroke-width="0.5" d="m16.1 15.65.07.239m-.07-.24-.078.238h-.002l-.006-.003-.02-.007-.071-.026a4 4 0 0 1-.988-.555c-.542-.415-1.112-1.095-1.112-2.105v-2.492m2.276 4.95.071.24m-.07-.24-.077.238.073.024.074-.022m0 0h.003l.006-.003.02-.006.072-.025a3.9 3.9 0 0 0 .992-.537c.545-.41 1.113-1.091 1.113-2.127V10.7m0 0h-.25m.25 0v-.25h-4.553v.25m0 0h.25"/></mask><g mask="url(#d)"><path fill="#84CEFF" fill-rule="evenodd" d="m14.196 13.909 1.934-1.425 2.033 1.586v2.257h-3.967z" clip-rule="evenodd" opacity="0.4"/><path fill="#006AC9" fill-rule="evenodd" d="M14.258 14.414h3.592v.5h-3.592z" clip-rule="evenodd"/><path fill="#59C800" fill-rule="evenodd" d="M14.441 14.91h3.316v.265h-3.316z" clip-rule="evenodd"/><path fill="#FFD800" fill-rule="evenodd" d="M14.441 15.238h3.316v.5h-3.316z" clip-rule="evenodd"/><path fill="#F7D85D" fill-rule="evenodd" d="m18.726 14.512-2.59-1.979v-2.67h2.59z" clip-rule="evenodd"/><path fill="#F5F6F6" fill-rule="evenodd" d="M15.547 13.423s.082.425.144.425c.063 0 .176-.425.176-.425s.014.425.077.425.055-.356.155-.425c.037-.025.083.423.139.425.047.002.162-.425.162-.425s.035.425.089.425.163-.425.163-.425v1.072h-1.105z" clip-rule="evenodd"/><path fill="#892E2E" fill-rule="evenodd" d="M16.1 14.842c.559 0 1.012-.096 1.012-.214s-.453-.214-1.013-.214-1.013.096-1.013.214.454.214 1.013.214" clip-rule="evenodd"/><path fill="#A46031" d="m14.29 11.104.207-.163 1.401 1.44-.208.162z"/><path fill="#892E2E" d="m14.514 12.768-.221-.149 1.362-1.63.222.148z"/><path fill="#A46031" d="m16.407 11.32.209-.129 1.4 1.143-.208.13z"/><path fill="#F5F6F6" d="m16.7 12.489-.259-.176 1.333-1.075.284.234z"/></g><path fill="#69F" fill-rule="evenodd" d="m14.567 16.535.65.204v.561h-.65zm-.464-1.148.365.204v.56h-.366zm3.437 1.148-.65.204v.561h.65zm.465-1.148-.366.204v.56h.366z" clip-rule="evenodd"/><path fill="#fff" d="M13.748 16.575c-.12 0-.218.002-.332.008-.274.013-.292.013-.367-.018a.6.6 0 0 1-.157-.103q-.232-.19-.503-.879v-.02c.224-.483.685-.543 1.37-.184.18.094.706.38.701.378.24.128.407.21.572.276.342.138.665.2 1.078.2q.37-.002.871-.203c.194-.077.395-.171.641-.296.033-.017.548-.284.675-.346.223-.107.37-.159.47-.159h.293c.494.006.737.088.737.345q0 .364-.473.991l-.015.01c-.623.083-.985.084-1.096-.005-.03-.024-.113-.014-.266.035-.069.023-.44.155-.554.193-.477.158-.885.243-1.3.243q-.952 0-2.08-.737c.136.174.05.27-.265.27"/><path fill="#666" fill-rule="evenodd" d="M13.416 16.583c.114-.006.213-.008.332-.008.314 0 .4-.097.264-.27q1.13.735 2.08.736c.416 0 .825-.085 1.301-.243l.3-.104.254-.089c.153-.049.236-.06.266-.035.111.088.473.088 1.096.004l.015-.009q.473-.627.473-.99c0-.258-.243-.34-.737-.346a10 10 0 0 0-.292 0c-.101 0-.248.052-.471.16-.1.048-.444.225-.599.306l-.076.039a8 8 0 0 1-.64.296q-.502.201-.872.203c-.413 0-.736-.062-1.078-.2a6 6 0 0 1-.572-.276c.005.002-.521-.284-.702-.378-.684-.36-1.145-.3-1.369.185v.02q.271.687.503.878a.6.6 0 0 0 .157.103c.075.03.093.031.367.018m-.35-.063a.6.6 0 0 1-.145-.095q-.22-.18-.485-.85c.212-.446.642-.5 1.301-.154.18.095.706.38.702.378.24.129.41.212.576.279.348.14.676.203 1.095.203.255 0 .547-.072.888-.207.195-.077.398-.172.645-.297l.077-.04c.156-.08.497-.257.597-.305.216-.105.359-.155.45-.155h.293c.467.005.691.08.691.297q0 .343-.457.954c-.602.08-.956.08-1.052.004-.048-.039-.139-.027-.309.028-.034.01-.142.049-.256.089l-.298.104c-.473.156-.876.24-1.287.24q-1.05 0-2.33-.918l-.028.039c.39.293.39.413.014.413-.12 0-.22.003-.334.008-.265.013-.281.012-.348-.015" clip-rule="evenodd"/><path fill="#565757" d="m13.028 15.81-.067-.066c.151-.163.352-.204.594-.124.094.031.706.385.87.468.598.304 1.167.473 1.771.473q1.306 0 2.517-.821c.305-.248.496-.248.496.037h-.093c0-.17-.09-.17-.35.04q-1.238.84-2.57.84c-.62 0-1.203-.174-1.812-.483-.171-.087-.774-.435-.858-.463-.21-.07-.373-.036-.498.1"/><path fill="#984800" fill-rule="evenodd" d="m16.49 6.945-.18.001c.004.743-.162 1.212-.486 1.413l-.093.055q-.045-.121-.12-.306l-.017-.04c-.192-.473-.235-.691-.136-.75l-.098-.139c-.218.129-.17.368.065.947l.016.04c.058.143.101.252.132.338l-.02.011-.028.017a.7.7 0 0 0-.327-.072c-.575 0-.974-.151-1.206-.45l-.147.097c.27.347.724.519 1.353.519q.078 0 .145.018c-.092.079-.104.16-.104.442q0 .264.114.702-.087-.111-.168-.11v.166l-.016-.002h-.002V9.84l.002.001.022.022q.038.045.091.142.111.203.27.614l.056-.018.005.012.03-.008v.005h.057v.046l.181-.004V10.6l.033.004q.056-.408.064-.738a.73.73 0 0 1 .28-.382c.309-.2.49-.39.54-.58l-.176-.04q-.055.216-.468.484a.8.8 0 0 0-.181.163q-.026-.41-.15-.661V8.8a.8.8 0 0 0-.036-.222l.138-.082c.386-.24.57-.76.566-1.552m-.977 1.789a.6.6 0 0 1 .13.16v1.247q-.223-.706-.223-1.055c0-.26.007-.293.068-.337z" clip-rule="evenodd"/><path fill="#247805" fill-rule="evenodd" d="M16.983 7.086c-.137.04-.312.05-.499.02a1.1 1.1 0 0 1-.503-.2q.01.036.01.072c-.004.229-.372.408-.821.4-.45-.007-.811-.2-.807-.429s.372-.408.821-.4c.27.004.51.075.655.182a.2.2 0 0 1-.011-.107c.032-.203.378-.318.773-.255.395.062.689.278.656.482a.2.2 0 0 1-.047.101c.195-.056.463-.042.736.052.472.162.783.505.693.765s-.545.34-1.017.177a2 2 0 0 1-.163-.066c-.128.197-.485.302-.881.24-.47-.075-.814-.355-.771-.627s.458-.432.926-.358q.103.016.195.045a.3.3 0 0 1 .055-.094m-2.71-.101c.1.18-.102.484-.452.677s-.714.205-.814.024c-.1-.18.102-.483.452-.677s.714-.205.814-.024m1.093 1.134c-.004.252-.453.449-1.003.439s-.99-.222-.986-.474.453-.449 1.002-.439c.55.01.992.222.987.474m-.633 1.763c.496-.06.875-.294.848-.522-.028-.227-.453-.362-.949-.302-.496.061-.875.295-.847.523.028.227.452.362.948.301m1.83.304c.437.101.838-.016.895-.262.057-.245-.252-.526-.69-.628-.439-.1-.84.016-.896.262s.252.527.69.628m.386-.933c.662.13 1.237.033 1.286-.215.048-.247-.45-.552-1.112-.681s-1.238-.032-1.286.215c-.048.248.45.553 1.112.681" clip-rule="evenodd"/><path fill="#fff" fill-rule="evenodd" d="M12.246 10.938s-.313 2.97-.313 3.372c0 .403.575 0 .575 0s.085-1.418.281-1.945.289.052.289.36v1.746s.716.098.716-.16c0-.26-.298-3.373-.298-3.373h-1.251" clip-rule="evenodd"/><path fill="#979797" fill-rule="evenodd" d="m12.206 10.898-.004.038c-.21 1.983-.313 3.106-.313 3.377 0 .318.238.318.646.033l.016-.011.002-.02q.084-1.413.278-1.934c.077-.208.1-.218.135-.132.04.101.068.306.068.478v1.783l.038.005c.502.069.766.01.766-.202 0-.111-.051-.723-.14-1.682l-.009-.105-.102-1.099-.034-.356-.01-.1-.003-.035-.003-.038zm.26 3.393c-.348.24-.49.237-.49.022q0-.399.31-3.331h1.17l.01.096.033.357.102 1.098.01.106c.087.951.14 1.567.14 1.674 0 .13-.202.178-.63.124v-1.71c0-.181-.027-.396-.073-.508-.075-.185-.2-.133-.3.135q-.198.529-.282 1.937" clip-rule="evenodd"/><path fill="#FF863B" fill-rule="evenodd" d="M11.207 9.919s.246.885.355.885.769-.543.769-.543v.737h1.23v-.327l.158.327.215-.101.372-.439h-.372s-.108-.704-.108-.816c0-.11.004-.331-.265-.411-.27-.08-.401-.221-.401-.221s.58-.83.138-.83-.641.106-.641.106v.609c0 .115-.634-.022-.634.336s-.295.688-.295.688l-.075-.24z" clip-rule="evenodd"/><path fill="#000" fill-rule="evenodd" d="M13.067 8.382c.243 0 .44-.097.44-.216 0-.12-.197-.217-.44-.217-.244 0-.441.097-.441.217s.197.216.44.216" clip-rule="evenodd"/><path fill="#740000" d="m10.847 10.262-.199-.166q.575-.622 1.279-.903.666-.266 1.74-.85l.13.218q-1.084.589-1.768.863a3.25 3.25 0 0 0-1.182.838"/><path fill="#F9FCFF" fill-rule="evenodd" stroke="#6C6C6C" stroke-width="0.5" d="m13.658 8.433.167.784.742-.392-.584-.65z" clip-rule="evenodd"/><path fill="#fff" fill-rule="evenodd" d="M19.86 11.309s.31 3.1.31 3.52-.571 0-.571 0-.084-1.48-.279-2.03c-.194-.55-.286.054-.286.375v1.823s-.71.102-.71-.168.295-3.52.295-3.52z" clip-rule="evenodd"/><path fill="#979797" fill-rule="evenodd" d="m19.899 11.262.004.039q.31 3.103.31 3.524c0 .333-.236.333-.64.035l-.017-.012-.001-.02q-.084-1.476-.276-2.018c-.077-.218-.1-.228-.134-.138-.04.105-.067.319-.067.498v1.861l-.038.006c-.498.071-.76.009-.76-.212 0-.115.05-.754.138-1.755l.01-.11.101-1.147.034-.372.009-.103.003-.037.004-.04zm-.258 3.54c.345.251.485.248.485.023q0-.415-.306-3.476h-1.161l-.01.1-.033.372-.102 1.147-.01.11a53 53 0 0 0-.137 1.747c0 .136.2.187.623.13V13.17c0-.189.028-.413.073-.53.075-.193.2-.139.298.14q.195.554.28 2.022" clip-rule="evenodd"/><path fill="#824028" fill-rule="evenodd" d="M20.91 10.179s-.243.923-.35.923c-.109 0-.764-.567-.764-.567v.77h-1.22v-.341l-.157.34-.213-.105-.37-.457h.37s.107-.736.107-.852-.004-.346.263-.43a.9.9 0 0 0 .398-.23s-.575-.867-.137-.867.636.111.636.111v.635c0 .12.628-.022.628.351 0 .374.293.719.293.719l.075-.25z" clip-rule="evenodd"/><path fill="#000" fill-rule="evenodd" d="M19.066 8.577c-.241 0-.437-.101-.437-.226s.195-.226.437-.226c.241 0 .437.101.437.226s-.196.226-.437.226" clip-rule="evenodd"/><path fill="#BA611F" d="m21.526 10.345-2.673-1.393s-.05-.468-.566-.609-.927-.359-.927-.359l-.236.36s-.418-.111 1.163.608c1.582.72-.06-.39.39 0z"/></g></g></g><defs><clipPath id="a"><path fill="#fff" d="M0 0h32v24H0z"/></clipPath></defs></svg>