<svg xmlns="http://www.w3.org/2000/svg" width="32" height="24" fill="none" viewBox="0 0 32 24"><g clip-path="url(#a)"><mask id="b" width="32" height="24" x="0" y="0" maskUnits="userSpaceOnUse" style="mask-type:luminance"><path fill="#fff" d="M32 0H0v24h32z"/></mask><g mask="url(#b)"><path fill="#fff" d="M32 0H0v24h32z"/><path fill="#F7FCFF" fill-rule="evenodd" d="M8 0h16v24H8z" clip-rule="evenodd"/><path fill="#E31D1C" fill-rule="evenodd" d="M15.976 7 16 19h-.6l.368-2.97q-4.035.726-3.701.36.333-.366.525-1.038L9 12.955q.567-.006 1.028-.281.46-.274-.461-1.9l1.813.264.687-.746 1.368 1.432h.615l-.615-3.28 1.103.615zm0 0 1.486 2.06 1.103-.617-.615 3.281h.615l1.368-1.432.686.746 1.814-.264q-.922 1.626-.46 1.9.461.275 1.027.281l-3.593 2.397q.193.672.526 1.038.334.366-3.701-.36l.367 2.97H16zM24 0h8v24h-8zM0 0h8v24H0z" clip-rule="evenodd"/></g></g><defs><clipPath id="a"><path fill="#fff" d="M0 0h32v24H0z"/></clipPath></defs></svg>