<svg xmlns="http://www.w3.org/2000/svg" width="32" height="24" fill="none" viewBox="0 0 32 24"><g clip-path="url(#a)"><mask id="b" width="32" height="24" x="0" y="0" maskUnits="userSpaceOnUse" style="mask-type:luminance"><path fill="#fff" d="M32 0H0v24h32z"/></mask><g mask="url(#b)"><path fill="#fff" d="M32 0H0v24h32z"/><path fill="#5EAA22" fill-rule="evenodd" d="M0 0h32v24H0z" clip-rule="evenodd"/><path fill="#FECA00" fill-rule="evenodd" d="m24 7.002-1 .732.134-1.232-1.134-.5 1.134-.5L23 4.27l1 .732 1-.732-.134 1.232 1.134.5-1.134.5L25 7.734zm-1.037 6.675-1 .732.134-1.232-1.134-.5 1.134-.5-.134-1.232 1 .732 1-.732-.134 1.232 1.134.5-1.134.5.134 1.232zM26 19.002l-1 .732.134-1.232-1.134-.5 1.134-.5L25 16.27l1 .732 1-.732-.134 1.232 1.134.5-1.134.5.134 1.232zm1-9.503-.5.366.067-.616-.567-.25.567-.25-.067-.616.5.366.5-.366-.067.616.567.25-.567.25.067.616zM7 14A5 5 0 1 0 7 4a5 5 0 0 0 0 10m12.898.945c-.658 1.13-1.704 1.642-3.104 1.642a3.794 3.794 0 1 1 0-7.587c1.598 0 2.874.56 3.459 2.083-.463-.46-1.18-.775-2.253-.735-1.657 0-2.735 1.29-2.735 2.395S16.343 15.35 18 15.35c.833-.013 1.449-.165 1.898-.405" clip-rule="evenodd"/><path fill="#915E2B" d="M7.582 8.694s-.977 3.58-1.381 3.92c-.179.079 1.619 0 1.619 0s-.674-.295-.437-.687.548-2.917.437-3.777-.238.544-.238.544"/><path fill="#5EAA22" fill-rule="evenodd" d="M7.79 8.825s1.048.315 1.048.85c0 .537.872 1.29.872.576 0-.713-.163-1.426-.517-1.426-.355 0 .173-.48.476-.081.304.398 1.367-.037 1.15-.317-.215-.28-.982-.627-1.109-.627-.126 0 .873-.68 0-.68-.872 0-.371.58-.963-.037-.59-.617.252.301.252-.735s-.239-1.46-1.028-.878c-.79.582-.638.213-.92-.007-.28-.219-.527.803-.218 1.012s.652.726.343.726c-.31 0-.528-.298-.528-.512s-.84-.591-1.64-.591c-.798 0-.281.59 0 .59s1.545.431.914.431c-.632 0 .048-.318-.747-.318-.796 0-1.72-.362-1.72.318s.794.982 1.043.68c.248-.3.535-.81.535-.302s-.633.3-1.579.615-.674 1.145.454.942c1.129-.202 1.007-.191 1.46-.506s1.014-.227.554.277c-.46.505-.92 1.427-.46 1.427s.756.125.756-.362c0-.488.267-1.436.267-.836 0 .601.348 1.054.657.836s-.072-.903.281-.903.367-.162.367-.162" clip-rule="evenodd"/></g></g><defs><clipPath id="a"><path fill="#fff" d="M0 0h32v24H0z"/></clipPath></defs></svg>