<svg xmlns="http://www.w3.org/2000/svg" width="32" height="24" fill="none" viewBox="0 0 32 24"><g clip-path="url(#a)"><mask id="b" width="32" height="24" x="0" y="0" maskUnits="userSpaceOnUse" style="mask-type:luminance"><path fill="#fff" d="M32 0H0v24h32z"/></mask><g mask="url(#b)"><path fill="#fff" d="M32 0H0v24h32z"/><path fill="#3195F9" fill-rule="evenodd" d="M0 0v24h32V0z" clip-rule="evenodd"/><mask id="c" width="32" height="24" x="0" y="0" maskUnits="userSpaceOnUse" style="mask-type:luminance"><path fill="#fff" fill-rule="evenodd" d="M0 0v24h32V0z" clip-rule="evenodd"/></mask><g mask="url(#c)"><path fill="#E31D1C" stroke="#FECA00" stroke-width="2.5" d="m-1.822 25.439.694 1.04 1.04-.695 36.26-24.203 1.04-.694-.693-1.04-2.221-3.327-.694-1.04-1.04.694-36.26 24.204-1.04.694.694 1.04z"/><path fill="#FECA00" fill-rule="evenodd" d="m4.93 8.606-3.485 2.418 1.114-4.141L0 4.238l3.465-.143L4.93 0l1.466 4.095h3.458L7.303 6.883 8.58 10.78z" clip-rule="evenodd"/></g></g></g><defs><clipPath id="a"><path fill="#fff" d="M0 0h32v24H0z"/></clipPath></defs></svg>