<svg xmlns="http://www.w3.org/2000/svg" width="32" height="24" fill="none" viewBox="0 0 32 24"><g clip-path="url(#a)"><mask id="b" width="32" height="24" x="0" y="0" maskUnits="userSpaceOnUse" style="mask-type:luminance"><path fill="#fff" d="M32 0H0v24h32z"/></mask><g mask="url(#b)"><path fill="#fff" d="M32 0H0v24h32z"/><path fill="#3D58DB" fill-rule="evenodd" d="M0 0h32v6H0z" clip-rule="evenodd"/><path fill="#F7FCFF" fill-rule="evenodd" d="M0 6h32v6H0z" clip-rule="evenodd"/><path fill="#73BE4A" fill-rule="evenodd" d="M0 12h32v6H0z" clip-rule="evenodd"/><path fill="#FFD018" fill-rule="evenodd" d="M0 18h32v6H0z" clip-rule="evenodd"/><path fill="#FECA00" fill-rule="evenodd" d="M4.53 5.416 2.104 7.098l.774-2.88-1.78-1.84 2.41-.1L4.53-.57l1.02 2.848h2.406L6.18 4.218l.89 2.71z" clip-rule="evenodd"/><path fill="#E11C1B" fill-rule="evenodd" d="M12 0h8v24h-8z" clip-rule="evenodd"/></g></g><defs><clipPath id="a"><path fill="#fff" d="M0 0h32v24H0z"/></clipPath></defs></svg>