<svg xmlns="http://www.w3.org/2000/svg" width="32" height="24" fill="none" viewBox="0 0 32 24"><g clip-path="url(#a)"><mask id="b" width="32" height="24" x="0" y="0" maskUnits="userSpaceOnUse" style="mask-type:luminance"><path fill="#fff" d="M32 0H0v24h32z"/></mask><g mask="url(#b)"><path fill="#fff" d="M32 0H0v24h32z"/><path fill="#2E42A5" fill-rule="evenodd" d="M0 0v24h32V0z" clip-rule="evenodd"/><mask id="c" width="18" height="14" x="0" y="0" maskUnits="userSpaceOnUse" style="mask-type:luminance"><path fill="#fff" d="M18 0H0v14h18z"/></mask><g mask="url(#c)"><path fill="#2E42A5" d="M18 0H0v14h18z"/><path fill="#F7FCFF" d="m-2.006 13 3.961 1.737L18.088 1.889l2.09-2.582-4.236-.58-6.58 5.536-5.297 3.73z"/><path fill="#F50100" d="m-1.463 14.216 2.018 1.008L19.428-.934h-2.833z"/><path fill="#F7FCFF" d="m20.004 13-3.961 1.737L-.09 1.889-2.18-.693l4.236-.58 6.58 5.536 5.297 3.73z"/><path fill="#F50100" d="m19.869 13.874-2.018 1.008-8.037-6.918-2.382-.773-9.813-7.875H.453l9.807 7.688 2.605.927z"/><path fill="#F50100" fill-rule="evenodd" d="M9.985 0h-2v6H0v2h7.985v6h2V8H18V6H9.985z" clip-rule="evenodd"/><path fill="#F7FCFF" fill-rule="evenodd" d="M6.485 0h5v4.5H18v5h-6.515L11.5 14h-5l-.015-4.5H0v-5h6.485zm1.5 6H0v2h7.985v6h2V8H18V6H9.985V0h-2z" clip-rule="evenodd"/></g><path fill="#fff" fill-rule="evenodd" d="m23.667 13.855.726-.509.703.51-.219-.906.564-.574h-.718l-.33-.74-.283.74h-.842l.644.574zm2.813 1.259.726-.51.702.51-.218-.906.564-.574h-.718l-.331-.739-.282.74h-.843l.645.573zm1.565 1.872-.726.508.245-.905-.645-.574h.843l.282-.74.331.74h.718l-.564.574.218.906zm-1.723 2.783.726-.508.703.508-.219-.905.564-.574h-.718l-.33-.74-.283.74h-.842l.645.574zm-1.822.738-.726.508.245-.905-.644-.574h.842l.282-.74.331.74h.718l-.564.574.218.906zm-3.1-.698.726-.509.703.509-.219-.906.564-.574h-.718l-.33-.739-.283.74H21l.644.573zm-.54-2.807-.726.509.245-.906-.645-.574h.842l.283-.739.331.74h.718l-.564.573.218.906zm.187-1.842.726-.509.703.509-.219-.906.564-.573h-.718l-.33-.74-.283.74h-.842l.644.573z" clip-rule="evenodd"/></g></g><defs><clipPath id="a"><path fill="#fff" d="M0 0h32v24H0z"/></clipPath></defs></svg>