<svg xmlns="http://www.w3.org/2000/svg" width="32" height="24" fill="none" viewBox="0 0 32 24"><g clip-path="url(#a)"><mask id="b" width="32" height="24" x="0" y="0" maskUnits="userSpaceOnUse" style="mask-type:luminance"><path fill="#fff" d="M32 0H0v24h32z"/></mask><g mask="url(#b)"><path fill="#fff" d="M32 0H0v24h32z"/><path fill="#E31D1C" fill-rule="evenodd" d="M0 0h32v24H0z" clip-rule="evenodd"/><path fill="#FECA00" fill-rule="evenodd" d="m15.016 4.548-1.01.61.23-1.19-.841-.89 1.139-.049.481-1.111.482 1.111h1.137l-.839.939.253 1.19zM7.017 9.607l-2.88 1.551.657-3.027-2.4-2.265 3.249-.122 1.374-2.826 1.375 2.826h3.242L9.241 8.131l.72 3.027zm9.999-1.059-1.01.61.23-1.19-.841-.89 1.139-.049.482-1.111.481 1.111h1.137l-.839.939.253 1.19zm-1 4-1.01.61.23-1.19-.841-.89 1.139-.049.481-1.111.482 1.111h1.137l-.839.939.253 1.19zm-3 3-1.01.61.23-1.19-.841-.89 1.139-.049.481-1.111.482 1.111h1.137l-.839.939.253 1.19z" clip-rule="evenodd"/></g></g><defs><clipPath id="a"><path fill="#fff" d="M0 0h32v24H0z"/></clipPath></defs></svg>