<svg xmlns="http://www.w3.org/2000/svg" width="20" height="20" fill="none" viewBox="0 0 20 20"><path fill="#82829C" fill-rule="evenodd" d="M4.59 11.704a.95.95 0 0 1-.951-.95.952.952 0 0 1 1.902 0c0 .524-.427.95-.951.95m15.018 4.674a.392.392 0 1 1 0 .784H11.92V18.3a.39.39 0 0 1-.392.392H8.471a.39.39 0 0 1-.392-.392v-1.137H.392a.392.392 0 1 1 0-.784H8.08v-1.136c0-.216.175-.392.392-.392h1.137v-1.37h-5.79a1.845 1.845 0 0 1-1.843-1.842v-1.77c0-1.015.827-1.84 1.843-1.84h12.363c1.017 0 1.844.825 1.844 1.84v1.77a1.845 1.845 0 0 1-1.843 1.842h-5.79v1.37h1.137c.216 0 .392.176.392.392v1.136zm-3.693-9.201H3.606c-.463 0-.898.12-1.276.329l1.753-5.203A1.515 1.515 0 0 1 5.53 1.286h8.466c.66 0 1.24.409 1.446 1.017l1.755 5.206a2.63 2.63 0 0 0-1.282-.332" clip-rule="evenodd"/></svg>