<svg xmlns="http://www.w3.org/2000/svg" width="32" height="24" fill="none" viewBox="0 0 32 24"><g clip-path="url(#a)"><mask id="b" width="32" height="24" x="0" y="0" maskUnits="userSpaceOnUse" style="mask-type:luminance"><path fill="#fff" d="M32 0H0v24h32z"/></mask><g mask="url(#b)"><path fill="#fff" d="M32 0H0v24h32z"/><path fill="#4141DB" fill-rule="evenodd" d="M0 0v24h32V0z" clip-rule="evenodd"/><mask id="c" width="32" height="24" x="0" y="0" maskUnits="userSpaceOnUse" style="mask-type:luminance"><path fill="#fff" fill-rule="evenodd" d="M0 0v24h32V0z" clip-rule="evenodd"/></mask><g mask="url(#c)"><path fill="#F90000" stroke="#F7FCFF" stroke-width="2" d="M0 13h-1v4h34v-4z"/><g filter="url(#d)"><path fill="#FFDE00" fill-rule="evenodd" d="m9.796 10.258.726-.51.702.51-.218-.906.564-.574h-.718l-.331-.739-.283.74h-.842l.645.573zm3 1.6.726-.51.702.51-.218-.906.564-.574h-.718l-.331-.739-.283.74h-.842l.645.573zm3.126 1.89-.726.51.245-.906-.645-.574h.842l.283-.739.33.74h.719l-.564.573.218.906zm-.726 4.51.726-.51.702.51-.218-.906.564-.574h-.718l-.331-.739-.283.74h-.842l.645.573zm-1.674 1.89-.726.51.245-.906-.645-.574h.842l.283-.739.33.74h.719l-.564.573.218.906zm-3.726 2.11.726-.51.702.51-.218-.906.564-.574h-.718l-.331-.739-.283.74h-.842l.645.573zm-2.274-2.11-.726.51.245-.906-.645-.574h.842l.283-.739.33.74h.719l-.564.573.218.906zm-3.126-1.89.726-.51.702.51-.218-.906.564-.574h-.718l-.331-.739-.283.74h-.842l.645.573zm.726-4.51-.726.51.245-.906-.645-.574h.842l.283-.739.33.74h.719l-.564.573.218.906zm1.674-1.89.726-.51.702.51-.218-.906.564-.574h-.718L7.52 9.64l-.283.74h-.842l.645.573z" clip-rule="evenodd"/></g></g></g></g><defs><clipPath id="a"><path fill="#fff" d="M0 0h32v24H0z"/></clipPath><filter id="d" width="20.9736" height="22.2188" x="-0.00390625" y="4.03906" color-interpolation-filters="sRGB" filterUnits="userSpaceOnUse"><feFlood flood-opacity="0" result="BackgroundImageFix"/><feColorMatrix in="SourceAlpha" result="hardAlpha" values="0 0 0 0 0 0 0 0 0 0 0 0 0 0 0 0 0 0 127 0"/><feOffset/><feGaussianBlur stdDeviation="2"/><feColorMatrix values="0 0 0 0 0 0 0 0 0 0 0 0 0 0 0 0 0 0 0.24 0"/><feBlend in2="BackgroundImageFix" result="effect1_dropShadow_173_13847"/><feBlend in="SourceGraphic" in2="effect1_dropShadow_173_13847" result="shape"/></filter></defs></svg>