<svg xmlns="http://www.w3.org/2000/svg" width="32" height="24" fill="none" viewBox="0 0 32 24"><g clip-path="url(#a)"><mask id="b" width="32" height="24" x="0" y="0" maskUnits="userSpaceOnUse" style="mask-type:luminance"><path fill="#fff" d="M32 0H0v24h32z"/></mask><g mask="url(#b)"><path fill="#fff" d="M32 0H0v24h32z"/><path fill="#5EAA22" fill-rule="evenodd" d="M0 0h32v24H0z" clip-rule="evenodd"/><path fill="#4141DB" fill-rule="evenodd" d="m0 0 32 24H0z" clip-rule="evenodd"/><path fill="#fff" fill-rule="evenodd" d="m6 9.002-1 .732.134-1.232L4 8.002l1.134-.5L5 6.27l1 .732 1-.732-.134 1.232 1.134.5-1.134.5L7 9.734zm-2 6-1 .732.134-1.232-1.134-.5 1.134-.5L3 12.27l1 .732 1-.732-.134 1.232 1.134.5-1.134.5L5 15.734zm4 6-1 .732.134-1.232-1.134-.5 1.134-.5L7 18.27l1 .732 1-.732-.134 1.232 1.134.5-1.134.5L9 21.734zm1-9.503-.5.366.067-.616-.567-.25.567-.25-.067-.616.5.366.5-.366-.067.616.567.25-.567.25.067.616z" clip-rule="evenodd"/><path fill="#FECA00" fill-rule="evenodd" d="M21.561 12.223c-.374-.39 2.99-1.307 3.339-2.488.462-1.029.153-1.863-1.593-2.595s-3.51-2.147-1.481-2.147 2.029.29 2.574 1.143 1.723 1.036 1.748 0c0-1.766.167-2.004-1.258-3.539s3.574.63 3.16 3.262-.91 1.783-.594 2.225 2.216-.93 1.979.897c-.665 1.05-1.984 2.614-7.874 3.242" clip-rule="evenodd"/><path fill="#FECA00" fill-rule="evenodd" d="M16 17a5 5 0 1 0 0-10 5 5 0 0 0 0 10" clip-rule="evenodd"/><path fill="#548650" fill-rule="evenodd" d="M12.953 10.163c.567-.127 1.342 1.392 2.742.822s1.692-1.657 2.357-1.259.752 1.356.31 1.838c-.444.482-1.195.596-1.195 1.204 0 .61-.148 2.78-.435 2.151-.862-.7-.336-1.812-1.397-2.15-1.062-.338-1.706-.327-2.49-.185-.782.143.527-.391.804-.899.566-.543-.956-1.342-.696-1.522" clip-rule="evenodd"/></g></g><defs><clipPath id="a"><path fill="#fff" d="M0 0h32v24H0z"/></clipPath></defs></svg>