<svg xmlns="http://www.w3.org/2000/svg" width="32" height="24" fill="none" viewBox="0 0 32 24"><g clip-path="url(#a)"><mask id="b" width="32" height="24" x="0" y="0" maskUnits="userSpaceOnUse" style="mask-type:luminance"><path fill="#fff" d="M32 0H0v24h32z"/></mask><g mask="url(#b)"><path fill="#fff" d="M32 0H0v24h32z"/><path fill="#F7FCFF" fill-rule="evenodd" d="M0 0v24h32V0z" clip-rule="evenodd"/><mask id="c" width="32" height="24" x="0" y="0" maskUnits="userSpaceOnUse" style="mask-type:luminance"><path fill="#fff" fill-rule="evenodd" d="M0 0v24h32V0z" clip-rule="evenodd"/></mask><g fill-rule="evenodd" clip-rule="evenodd" mask="url(#c)"><path fill="#006B49" d="M7.6 14.318c-.428-.298-.236-.95-.236-.95s.636.36.859.528c.223.167.383.86.383.86s-.578-.14-1.006-.438m1.144.933a1 1 0 0 1 .031-.357s.537.287.725.42.324.681.324.681-.488-.11-.85-.347a.5.5 0 0 1-.22-.33 1.8 1.8 0 0 1-.666.077c-.365-.035-.628-.547-.628-.547s.498-.002.694.025c.154.02.462.27.59.378m1.692.976s.038.537.427.647c.39.11.844.063.844.063s-.304-.474-.51-.54a10 10 0 0 0-.761-.17m2.306 1.439c-.402-.041-.534-.564-.534-.564s.565.005.78.035c.214.03.595.444.595.444s-.44.125-.841.085m.714-.968s-.055.627.35.837c.403.21.907.254.907.254s-.246-.61-.458-.732c-.213-.12-.8-.359-.8-.359m.282 1.6c-.446.092-.798-.43-.798-.43s.606-.184.847-.223.816.28.816.28-.418.283-.865.374m-3.226-1.124s.211.495.615.472c.403-.023.817-.215.817-.215s-.44-.35-.657-.345c-.216.004-.775.088-.775.088m1.171-.568c-.36-.182-.296-.717-.296-.717s.526.207.715.312c.19.105.397.628.397.628s-.455-.04-.816-.223M9.65 14.65s0 .66.273.919c.271.258.597.348.597.348s-.193-.67-.336-.817-.534-.45-.534-.45m-.996 1.46s.406.528.824.5c.418-.026.784-.235.784-.235s-.594-.37-.821-.364a9 9 0 0 0-.787.099m.098-.12c-.222.02-.43-.257-.43-.257s.298-.058.419-.064c.12-.006.43.183.43.183s-.197.117-.42.137m.185-2.139s-.237.253-.178.469.208.39.208.39.133-.34.105-.457a5 5 0 0 0-.135-.402m1.959 2.23c-.138-.052-.106-.219-.106-.219s.201.058.273.088.146.189.146.189-.176-.007-.313-.059m-.715.64s-.032.166.106.218c.137.052.313.058.313.058s-.073-.159-.146-.189a4 4 0 0 0-.273-.087m2.642.218c-.137-.052-.106-.218-.106-.218s.202.057.274.087.146.19.146.19-.176-.008-.314-.06m-.613.832s-.032.166.106.217c.137.052.313.059.313.059s-.073-.16-.146-.19a4 4 0 0 0-.273-.086m2.721 1.138-.446-.371c.278-.16.564-.289.809-.384a.8.8 0 0 0-.178-.099v-.121s.167.043.416.13c.25-.087.416-.13.416-.13v.121a.8.8 0 0 0-.177.099c.244.095.53.223.808.384l-.446.37s-.306-.318-.6-.569c-.296.25-.602.57-.602.57m8.769-5.542s.192.653-.236.95c-.428.298-1.006.438-1.006.438s.16-.692.384-.86c.222-.167.858-.528.858-.528m-1.38 1.884a1 1 0 0 0-.031-.357s-.537.287-.725.42-.323.681-.323.681.488-.11.849-.347a.5.5 0 0 0 .22-.33c.107.032.383.104.666.077.365-.035.628-.547.628-.547s-.497-.002-.694.025c-.153.02-.461.27-.59.378m-1.692.976s-.038.537-.427.647c-.39.11-.843.063-.843.063s.303-.474.509-.54.761-.17.761-.17m-2.305 1.439c.402-.041.533-.564.533-.564s-.565.005-.78.035c-.214.03-.595.444-.595.444s.44.125.842.085m-.715-.968s.055.627-.349.837-.907.254-.907.254.245-.61.457-.732c.213-.12.8-.359.8-.359m-.282 1.6c.446.092.798-.43.798-.43s-.605-.184-.846-.223c-.242-.04-.817.28-.817.28s.419.283.865.374m3.226-1.124s-.21.495-.614.472-.818-.215-.818-.215.441-.35.657-.345c.217.004.775.088.775.088m-1.171-.568c.36-.182.296-.717.296-.717s-.526.207-.715.312c-.19.105-.397.628-.397.628s.455-.04.816-.223m2.033-1.956s0 .66-.272.919a1.6 1.6 0 0 1-.598.348s.193-.67.336-.817.534-.45.534-.45m.996 1.46s-.405.528-.823.5c-.418-.026-.785-.235-.785-.235s.595-.37.822-.364c.227.005.786.099.786.099m-.098-.12c.223.02.43-.257.43-.257s-.298-.058-.418-.064-.431.183-.431.183.197.117.42.137m-.184-2.139s.236.253.177.469-.207.39-.207.39-.133-.34-.106-.457c.027-.118.136-.402.136-.402m-1.96 2.23c.138-.052.106-.219.106-.219s-.2.058-.273.088c-.072.03-.146.189-.146.189s.176-.007.314-.059m.715.64s.032.166-.106.218c-.137.052-.313.058-.313.058s.074-.159.146-.189.273-.087.273-.087m-2.642.218c.138-.052.106-.218.106-.218s-.201.057-.273.087-.146.19-.146.19.175-.008.313-.06m.613.832s.032.166-.106.217c-.137.052-.313.059-.313.059s.074-.16.146-.19.273-.086.273-.086"/><path fill="#F57A01" d="M27.806 3.016s.346.444 0 .444-1.226.482-1.226.482-.42.625-.926.766c-.507.141-.678.667-1.42.885-.743.22-.819.279-.819.5 0 .222.127.597-.38.597s-.865-.71-1.14 0-.552.918-.172 1.352.883.85 1.098 1.1c.214.251 1.642.985.594.985s-.521-.664-1.328-.421c-.807.242-.344.6-.96.421-.617-.179-1.028-.342-1.22-.26-.19.081-.498-.454-.498.26s.575.425-.659 1.214-.989.57-1.555.57-.765.358-1.143.358h-.757c-.425 0 .03-.452-.695 0s-.985.542-.985.715v.634s-.665.38-.665 0-.204-.478-.48-.634-.826-.044-1.414 0-1.253-.593-1.763-.593-.606-.48-.746-.48.146-.409-.448-.777c-.595-.367-.803-.413-.803-1.007s-.273-.756-.273-1.117.291.133.908.133c.616 0 .657-.382 1.362-.742.704-.36.943-.556 1.53-.36.588.198 1.166.93 1.647.227.48-.703.48-1.508.48-1.914s-.284-.521.483-.26c.767.26 1.213.26 2.488.26s2.798.417 3.267 0c.47-.416.972-.76 2.19-.76 1.219 0 1.617-.6 2.436-.886.82-.286-.389.32 1.449-.464s2.543-1.228 2.543-1.228"/></g></g></g><defs><clipPath id="a"><path fill="#fff" d="M0 0h32v24H0z"/></clipPath></defs></svg>