<svg xmlns="http://www.w3.org/2000/svg" width="32" height="24" fill="none" viewBox="0 0 32 24"><g clip-path="url(#a)"><mask id="b" width="32" height="24" x="0" y="0" maskUnits="userSpaceOnUse" style="mask-type:luminance"><path fill="#fff" d="M32 0H0v24h32z"/></mask><g mask="url(#b)"><path fill="#fff" d="M32 0H0v24h32z"/><path fill="#73BE4A" fill-rule="evenodd" d="M0 0v24h32V0z" clip-rule="evenodd"/><mask id="c" width="32" height="24" x="0" y="0" maskUnits="userSpaceOnUse" style="mask-type:luminance"><path fill="#fff" fill-rule="evenodd" d="M0 0v24h32V0z" clip-rule="evenodd"/></mask><g mask="url(#c)"><path fill="#69F" fill-rule="evenodd" d="M0-2v14h32V-2z" clip-rule="evenodd"/></g><path fill="#fff" fill-rule="evenodd" d="M0 0v24l18-12z" clip-rule="evenodd"/><mask id="d" width="18" height="24" x="0" y="0" maskUnits="userSpaceOnUse" style="mask-type:luminance"><path fill="#fff" fill-rule="evenodd" d="M0 0v24l18-12z" clip-rule="evenodd"/></mask><g mask="url(#d)"><path fill="#E31D1C" fill-rule="evenodd" d="m7.002 14.07-1.87 1.13.426-2.204L4 11.346l2.11-.089.892-2.058.892 2.058H10l-1.554 1.739.468 2.203z" clip-rule="evenodd"/></g></g></g><defs><clipPath id="a"><path fill="#fff" d="M0 0h32v24H0z"/></clipPath></defs></svg>