<svg xmlns="http://www.w3.org/2000/svg" width="32" height="24" fill="none" viewBox="0 0 32 24"><g clip-path="url(#a)"><mask id="b" width="32" height="24" x="0" y="0" maskUnits="userSpaceOnUse" style="mask-type:luminance"><path fill="#fff" d="M32 0H0v24h32z"/></mask><g mask="url(#b)"><path fill="#fff" d="M32 0H0v24h32z"/><path fill="#279E19" fill-rule="evenodd" d="M0 0v24h32V0z" clip-rule="evenodd"/><mask id="c" width="32" height="24" x="0" y="0" maskUnits="userSpaceOnUse" style="mask-type:luminance"><path fill="#fff" fill-rule="evenodd" d="M0 0v24h32V0z" clip-rule="evenodd"/></mask><g mask="url(#c)"><path fill="#F7FCFF" fill-rule="evenodd" d="M17 0h2v13h13v2H19v9h-2v-9H0v-2h17z" clip-rule="evenodd"/><path fill="#272727" fill-rule="evenodd" d="M15 0h2v11h15v2H17v11h-2V13H0v-2h15z" clip-rule="evenodd"/><path fill="#FECA00" fill-rule="evenodd" d="M13 0h2v9h17v2H15v13h-2V11H0V9h13z" clip-rule="evenodd"/><path fill="#C51918" fill-rule="evenodd" d="M16 20a8 8 0 1 0 0-16 8 8 0 0 0 0 16" clip-rule="evenodd"/><path fill="#804BFF" fill-rule="evenodd" d="M14.725 8.412s.38-1.233 1.263-.596c1.384.681 1.84 1.464 2.375 2.351s-1.31.238-1.654-.262c-.345-.499-2.253-.66-1.984-1.077s0-.416 0-.416" clip-rule="evenodd"/><path fill="#A95601" fill-rule="evenodd" d="M14.414 14.727s-.94 1.285 0 1.285 4.75-.277 4.292-.643c-.456-.366-3.84 0-3.84 0z" clip-rule="evenodd"/><path fill="#804BFF" fill-rule="evenodd" d="M15.819 14.684c-.058-.065-.916-.629-1.25-1.917-.231-.89-.09-2.556.236-2.886.796-.808 1.263-.333 1.263.878 0 1.21.047 4.224-.25 3.925" clip-rule="evenodd"/><path fill="#279E19" fill-rule="evenodd" d="M15.718 14.055s-.099.945.387 2.047 1.467 1.081 1.467.18c0-.903.716-.056.99.546.275.602-.436-5.348-1.447-6.679-1.01-1.331-1.985-1.417-1.69-.556.293.86.293 4.462.293 4.462" clip-rule="evenodd"/><path fill="#FECA00" fill-rule="evenodd" d="M15.127 7.602s-.428.274-.428 1.028c0 .755 1.012-.233 1.012-.233z" clip-rule="evenodd"/><path fill="#279E19" fill-rule="evenodd" d="m15.219 7.315.881-.628.882.628-.325-1.033.87-.644-1.083-.01-.344-1.026-.344 1.026-1.082.01.87.644zm2.923.377 1.082.01.344 1.026.344-1.026 1.083-.01-.87-.644.325-1.033-.882.628-.882-.628.326 1.033zm3.013 2.667-.87-.644 1.083-.01.344-1.027.343 1.027 1.083.01-.87.644.325 1.033-.881-.629-.882.629zm-.325 2.252.325 1.033-.87.644 1.083.01.344 1.027.343-1.027 1.083-.01-.87-.644.325-1.033-.881.629zm-1.606 3.69.344-1.026.344 1.027 1.083.01-.87.644.325 1.032-.882-.628-.882.628.326-1.032-.87-.645zm-2.242.387-.882.629-.881-.629.325 1.033-.87.644 1.082.01.344 1.027.344-1.027 1.083-.01-.87-.644zm-4.006-.386 1.083.01-.87.644.325 1.032-.882-.628-.881.628.325-1.032-.87-.645 1.083-.01.343-1.026zm-1.06-2.014-.87-.644.325-1.033-.882.629-.882-.629.326 1.033-.87.644 1.082.01.344 1.027.344-1.027zm-.87-3.929.325 1.033-.882-.629-.882.629.326-1.033-.87-.644 1.082-.01.344-1.027.344 1.027 1.083.01zm1.586-1.63.344-1.027 1.083-.01-.87-.644.325-1.033-.882.628-.881-.628.325 1.033-.87.644 1.083.01z" clip-rule="evenodd"/><mask id="d" width="15" height="16" x="9" y="4" maskUnits="userSpaceOnUse" style="mask-type:luminance"><path fill="#fff" fill-rule="evenodd" d="m15.219 7.315.881-.628.882.628-.325-1.033.87-.644-1.083-.01-.344-1.026-.344 1.026-1.082.01.87.644zm2.923.377 1.082.01.344 1.026.344-1.026 1.083-.01-.87-.644.325-1.033-.882.628-.882-.628.326 1.033zm3.013 2.667-.87-.644 1.083-.01.344-1.027.343 1.027 1.083.01-.87.644.325 1.033-.881-.629-.882.629zm-.325 2.252.325 1.033-.87.644 1.083.01.344 1.027.343-1.027 1.083-.01-.87-.644.325-1.033-.881.629zm-1.606 3.69.344-1.026.344 1.027 1.083.01-.87.644.325 1.032-.882-.628-.882.628.326-1.032-.87-.645zm-2.242.387-.882.629-.881-.629.325 1.033-.87.644 1.082.01.344 1.027.344-1.027 1.083-.01-.87-.644zm-4.006-.386 1.083.01-.87.644.325 1.032-.882-.628-.881.628.325-1.032-.87-.645 1.083-.01.343-1.026zm-1.06-2.014-.87-.644.325-1.033-.882.629-.882-.629.326 1.033-.87.644 1.082.01.344 1.027.344-1.027zm-.87-3.929.325 1.033-.882-.629-.882.629.326-1.033-.87-.644 1.082-.01.344-1.027.344 1.027 1.083.01zm1.586-1.63.344-1.027 1.083-.01-.87-.644.325-1.033-.882.628-.881-.628.325 1.033-.87.644 1.083.01z" clip-rule="evenodd"/></mask><g mask="url(#d)"><path fill="#FECA00" d="m16.101 6.685.058-.081-.058-.042-.058.042zm-.882.629-.095-.03-.09.284.243-.173zm1.764 0-.058.081.243.173-.09-.284zm-.326-1.033-.06-.08-.056.042.021.068zm.87-.644.06.08.24-.178-.299-.002zm-1.082-.01-.095.032.023.067h.07zM16.1 4.6l.095-.032-.095-.283-.095.283zm-.344 1.027.001.1h.071l.023-.068zm-1.083.01v-.1l-.3.002.24.178zm.87.644.096.03.021-.068-.057-.043zm3.681 1.42.095-.033-.023-.067h-.071zm-1.083-.01-.06-.081-.24.178.3.002zm1.427 1.036-.095.032.095.283.095-.283zm.344-1.027-.001-.1h-.071l-.023.068zm1.082-.01.001.1.299-.002-.24-.178zm-.87-.644-.095-.03-.021.068.057.042zm.326-1.033.095.03.09-.284-.244.173zm-.882.629-.058.081.058.042.058-.042zm-.882-.629.058-.081-.243-.173.09.284zm.325 1.033.06.08.057-.042-.021-.068zm1.274 2.667-.001-.1-.299.003.24.178zm.87.645.095.03.022-.068-.058-.043zm.212-.654.001.1.072-.001.022-.068zm.344-1.027.095-.032-.095-.283-.095.283zm.344 1.027-.095.031.023.068h.071zm1.083.01.06.08.24-.178-.3-.003zm-.87.644-.06-.08-.057.042.021.068zm.325 1.032-.058.082.243.173-.09-.285zm-.882-.628.058-.082-.058-.041-.058.041zm-.881.628-.096-.03-.09.285.244-.173zm.325 2.252.06.08.057-.042-.022-.068zm-.325-1.032.058-.082-.244-.173.09.285zm-.545 1.677-.06-.08-.24.177.299.003zm1.082.01.095-.032-.023-.068h-.07zm.344 1.026-.095.032.095.283.095-.283zm.344-1.027v-.1l-.072.001-.023.068zm1.083-.01v.1l.3-.002-.24-.178zm-.87-.644-.096-.03-.021.068.057.043zm.325-1.032.095.03.09-.285-.243.173zm-.882.628-.058.082.058.041.058-.041zm-2.143 2.035.095-.032-.095-.283-.095.283zm-.344 1.027.001.1h.071l.023-.068zm.688 0-.095.032.023.067h.07zm1.082.01.06.08.24-.178-.299-.002zm-.87.644-.06-.08-.056.042.02.068zm.326 1.033-.059.081.244.173-.09-.284zm-.882-.629.058-.081-.058-.042-.058.042zm-.882.629-.095-.03-.09.284.243-.173zm.325-1.033.096.03.021-.068-.057-.042zm-.87-.644v-.1l-.3.002.24.178zM16.1 17.315l-.058.081.058.042.058-.042zm.882-.629.095.03.09-.284-.243.173zm-1.764 0 .058-.081-.243-.173.09.285zm.326 1.033.06.08.056-.042-.021-.068zm-.87.644-.06-.08-.24.178.299.003zm1.082.01.095-.032-.023-.067h-.071zM16.1 19.4l-.095.032.095.283.095-.283zm.344-1.027-.001-.1h-.071l-.023.069zm1.083-.01v.1l.299-.002-.24-.178zm-.87-.644-.096-.03-.021.068.057.043zm-2.598-1.41.06.081.24-.178-.3-.002zm-1.083-.01-.095.033.023.067h.071zm.212.655-.06-.08-.056.042.021.068zm.326 1.033-.058.081.243.173-.09-.284zm-.882-.629.058-.081-.058-.042-.058.042zm-.882.629-.095-.03-.09.284.243-.173zm.326-1.033.095.03.021-.068-.057-.042zm-.87-.644-.001-.1-.299.002.24.178zm1.082-.01.001.1h.071l.023-.068zm.344-1.027.095-.032-.095-.283-.095.283zm-1.587-1.63-.095-.03-.022.067.058.043zm.87.644.001.1.299-.003-.24-.178zm-.545-1.677.096.03.09-.285-.244.173zm-.881.628-.058.082.058.041.058-.041zm-.882-.628.058-.082-.243-.173.09.285zm.325 1.032.06.08.057-.042-.021-.068zm-.87.645-.06-.08-.24.177.3.003zm1.083.01.095-.032-.023-.068h-.071zm.344 1.026-.095.032.095.283.095-.283zm.344-1.027-.001-.1-.072.001-.022.068zm.537-2.906-.058.082.243.173-.09-.285zm-.325-1.032-.06-.08-.057.042.022.068zm-.556.404.058-.082-.058-.041-.058.041zm-.882.628-.095-.03-.09.285.243-.173zm.325-1.032.096.03.021-.068-.057-.043zm-.87-.645v-.1l-.3.003.24.178zm1.083-.01v.1h.072l.023-.068zm.344-1.026.095-.032-.095-.283-.095.283zm.344 1.027-.095.031.022.068h.072zm1.082.01.06.08.24-.178-.299-.003zm1.06-2.014v-.1h-.071l-.023.068zm-.343 1.027-.095.032.095.283.095-.283zM14.06 7.69v.1l.3-.002-.24-.178zm-.87-.644-.096-.03-.021.068.057.042zm.325-1.033.095.03.09-.284-.243.173zm-.882.629-.058.081.058.042.058-.042zm-.882-.629.058-.081-.243-.173.09.284zm.326 1.033.06.08.056-.042-.02-.068zm-.87.644-.06-.08-.24.178.299.002zm1.082.01.095-.032-.023-.067h-.07zm3.754-1.096-.882.628.116.163.882-.629zm.998.628-.882-.628-.116.162.882.629zm-.479-.921.325 1.033.191-.06-.325-1.033zm.906-.755-.87.644.119.161.87-.644zm-1.024.17 1.083.01.002-.2-1.083-.01zm-.438-1.094.344 1.027.19-.064-.344-1.027zm-.154 1.027.344-1.027-.19-.064-.344 1.027zm-1.177.078 1.083-.01-.002-.2-1.082.01zm.93.463-.871-.644-.12.16.871.645zm-.29 1.144.325-1.033-.19-.06-.326 1.033zm3.911.256-1.083-.01-.002.2 1.083.01zm.438 1.095-.344-1.027-.19.064.344 1.027zm.154-1.027-.344 1.027.19.064.344-1.027zm1.177-.078-1.083.01.002.2 1.082-.01zm-.93-.464.871.645.119-.161-.87-.644zm.29-1.143-.325 1.033.19.06.326-1.033zm-.728.74.882-.628-.117-.163-.881.628zm-.998-.628.882.628.116-.163-.882-.628zm.479.921-.325-1.033-.191.06.325 1.033zm-.906.755.87-.645-.119-.16-.87.644zm2.024 2.023.87.644.12-.16-.87-.645zm1.142-.19-1.083.01.002.2 1.082-.01zm.25-.959-.344 1.027.19.063.343-1.026zm.533 1.027-.344-1.027-.19.064.344 1.026zm.989-.059-1.083-.01-.002.2 1.083.01zm-.812.825.87-.644-.119-.161-.87.644zm.361.922-.325-1.032-.19.06.325 1.032zm-1.035-.517.882.629.116-.163-.882-.629zm-.765.629.881-.629-.116-.163-.881.629zm.172-1.144-.326 1.032.19.06.326-1.032zm.19 3.284-.325-1.032-.19.06.325 1.032zm-.906.755.87-.644-.119-.16-.87.643zm1.024-.17-1.082-.01-.002.2 1.082.01zm.438 1.094-.344-1.026-.19.063.344 1.027zm.154-1.026-.344 1.026.19.064.344-1.027zm1.177-.078-1.083.01.002.2 1.083-.01zm-.929-.464.87.644.12-.16-.87-.645zm.29-1.143-.326 1.032.191.06.325-1.032zm-.729.74.882-.629-.116-.163-.882.629zm-.997-.629.881.629.116-.163-.881-.629zm-1.299 2.55-.344 1.027.19.064.344-1.027zm.534 1.027-.344-1.027-.19.064.344 1.027zm.988-.058-1.082-.01-.002.2 1.083.01zm-.811.824.87-.644-.119-.16-.87.644zm.361.923-.325-1.033-.191.06.325 1.033zm-1.035-.517.881.628.117-.163-.882-.628zm-.766.628.882-.628-.116-.163-.882.628zm.172-1.144-.325 1.033.19.06.326-1.033zm-.834-.534.87.644.119-.16-.87-.645zm1.141-.19-1.083.01.002.2 1.083-.01zm-3.065 1.196.882-.628-.116-.163-.882.629zm-.998-.628.882.628.116-.162-.882-.629zm.479.921-.325-1.033-.191.06.325 1.033zm-.906.755.87-.644-.119-.161-.87.644zm1.024-.17-1.083-.01-.002.2 1.083.01zm.438 1.094-.344-1.026-.19.063.344 1.027zm.154-1.026-.344 1.026.19.064.344-1.027zm1.177-.078-1.083.01.002.2 1.082-.01zm-.93-.464.871.644.12-.16-.871-.645zm.29-1.144-.325 1.033.19.06.326-1.032zm-2.827-.446-1.082-.01-.002.2 1.083.01zm-.811.824.87-.644-.119-.16-.87.644zm.361.923-.325-1.033-.191.06.325 1.033zm-1.035-.517.882.628.116-.163-.882-.628zm-.766.628.882-.628-.116-.163-.882.628zm.172-1.144-.325 1.033.19.06.326-1.033zm-.834-.534.87.644.12-.16-.871-.645zm1.141-.19-1.082.01.001.2 1.083-.01zm.25-.959-.344 1.027.19.064.344-1.027zm.534 1.027-.344-1.027-.19.064.344 1.027zm-2.085-2.545.87.644.119-.16-.87-.645zm.289-1.143-.325 1.032.19.06.326-1.032zm-.728.74.882-.629-.117-.163-.881.629zm-.998-.629.882.629.116-.163-.882-.629zm.479.921-.326-1.032-.19.06.325 1.032zm-.906.755.87-.644-.12-.16-.87.643zm1.024-.17-1.083-.01-.002.2 1.083.01zm.438 1.094-.344-1.026-.19.063.344 1.027zm.154-1.026-.344 1.026.19.064.343-1.027zm1.176-.078-1.082.01.002.2 1.082-.01zm-.448-2.827-.325-1.032-.191.06.325 1.032zm-1.035-.517.881.629.117-.163-.882-.629zm-.766.629.882-.629-.116-.163-.882.629zm.172-1.144-.325 1.032.19.06.326-1.032zm-.834-.534.87.644.119-.16-.87-.645zm1.141-.19-1.083.01.002.2 1.083-.01zm.25-.959-.344 1.027.19.063.344-1.026zm.533 1.027-.343-1.027-.19.064.344 1.026zm.99-.059-1.083-.01-.002.2 1.082.01zm-.812.825.87-.644-.12-.161-.87.644zm1.776-2.77-.344 1.027.19.064.344-1.027zm1.177-.078-1.083.01.002.2 1.082-.01zm-.93-.464.871.645.12-.161-.871-.644zm.29-1.143-.325 1.033.19.06.326-1.033zm-.728.74.882-.628-.116-.163-.882.628zm-.998-.628.882.628.116-.163-.882-.628zm.48.921-.326-1.033-.191.06.325 1.033zm-.907.755.87-.645-.119-.16-.87.644zm1.024-.17-1.083-.01-.001.2 1.082.01zm.438 1.094-.344-1.027-.19.064.344 1.027z"/></g></g></g></g><defs><clipPath id="a"><path fill="#fff" d="M0 0h32v24H0z"/></clipPath></defs></svg>