<svg xmlns="http://www.w3.org/2000/svg" width="32" height="24" fill="none" viewBox="0 0 32 24"><g clip-path="url(#a)"><mask id="b" width="32" height="24" x="0" y="0" maskUnits="userSpaceOnUse" style="mask-type:luminance"><path fill="#fff" d="M32 0H0v24h32z"/></mask><g mask="url(#b)"><path fill="#fff" d="M32 0H0v24h32z"/><path fill="#C51918" fill-rule="evenodd" d="M0 0v24h32V0z" clip-rule="evenodd"/><mask id="c" width="32" height="24" x="0" y="0" maskUnits="userSpaceOnUse" style="mask-type:luminance"><path fill="#fff" fill-rule="evenodd" d="M0 0v24h32V0z" clip-rule="evenodd"/></mask><g mask="url(#c)"><path fill="#4257BF" d="M14 0H0v10h14zm18 14H18v10h14z"/><path fill="#F7FCFF" fill-rule="evenodd" d="M13 0h6v9h13v6H19v9h-6v-9H0V9h13z" clip-rule="evenodd"/><path fill="#5AB92D" fill-rule="evenodd" d="m13.865 10.524-.08-.391q-.143.345-.087.628-.06.088-.11.166a4 4 0 0 1-.228-.412q.005.118 0 .235c-.004.182-.009.351.072.457l-.002.002-.045.105c-.11-.117-.293-.329-.293-.329q.02.382.2.597-.033.111-.054.222c-.093-.102-.182-.203-.182-.203.013.231.05.384.144.513l-.003.11-.197-.22a.84.84 0 0 0 .22.539q.018.115.048.23l.011.041c-.136-.071-.285-.152-.285-.152.09.21.219.33.363.415q.048.146.1.284c-.16-.05-.4-.13-.4-.13a.85.85 0 0 0 .5.37q.056.125.117.24l-.332-.109c.14.214.306.308.483.364q.177.268.374.433c-.15.063-.344.139-.344.139a.84.84 0 0 0 .54-.008l.01.006q.094.048.214.093l-.244.097c.21.064.378.047.53-.004l.007.002c.072.021.144.04.24.066l.218.058a1.3 1.3 0 0 1 .29.1l.001.002.117-.09a.2.2 0 0 0-.057-.05 1.4 1.4 0 0 0-.315-.11l-.223-.06-.233-.064-.054-.016a.83.83 0 0 0-.124-.516s-.038.293-.065.455a2 2 0 0 1-.3-.135.84.84 0 0 0-.213-.5s.008.183.012.34a2 2 0 0 1-.282-.356l.085.047a.86.86 0 0 0-.218-.61s.01.198.013.36a4 4 0 0 1-.152-.32.84.84 0 0 0-.028-.55s-.04.13-.084.262l-.037-.11a.85.85 0 0 0 .104-.614s-.104.201-.184.347l-.017-.06a2 2 0 0 1-.041-.197.84.84 0 0 0 .283-.52s-.18.166-.306.276a2 2 0 0 1 .001-.168.84.84 0 0 0 .35-.45s-.18.115-.321.2q.015-.083.035-.165a.86.86 0 0 0 .416-.49s-.182.115-.322.2a2 2 0 0 1 .167-.339.84.84 0 0 0 .426-.334l-.261.08q.111-.161.26-.36l-.112-.096zm4.048 0c.038-.175.08-.391.08-.391q.143.345.087.628.06.088.109.166c.102-.144.229-.412.229-.412a3 3 0 0 0 0 .235c.004.182.008.351-.072.457l.001.002.046.105c.11-.117.293-.329.293-.329q-.02.382-.2.597.033.111.054.222c.093-.102.182-.203.182-.203-.013.231-.05.384-.144.513q.003.054.003.11l.197-.22a.84.84 0 0 1-.22.539 2 2 0 0 1-.048.23l-.012.041c.136-.071.286-.152.286-.152a.84.84 0 0 1-.364.415 6 6 0 0 1-.1.284c.16-.05.4-.13.4-.13a.85.85 0 0 1-.499.37 4 4 0 0 1-.117.24l.332-.109a.85.85 0 0 1-.483.364 2 2 0 0 1-.375.433c.151.063.345.139.345.139a.84.84 0 0 1-.54-.008l-.01.006a2 2 0 0 1-.214.093l.244.097a.83.83 0 0 1-.53-.004l-.008.002-.24.066-.218.058a1.3 1.3 0 0 0-.288.1l-.003.002-.116-.09a.2.2 0 0 1 .056-.05c.057-.035.15-.066.316-.11.047-.014.274-.073.222-.06.093-.024.164-.044.234-.064l.053-.016a.83.83 0 0 1 .124-.516s.04.293.066.455a2 2 0 0 0 .3-.135.84.84 0 0 1 .212-.5l-.012.34q.147-.144.283-.356l-.085.047c0-.2.037-.4.217-.61 0 0-.008.198-.012.36q.08-.15.152-.32a.84.84 0 0 1 .027-.55l.084.262.037-.11a.85.85 0 0 1-.104-.614s.105.201.185.347l.016-.06q.026-.097.042-.197a.84.84 0 0 1-.284-.52s.181.166.307.276a2 2 0 0 0-.002-.168.84.84 0 0 1-.35-.45s.181.115.322.2a2 2 0 0 0-.036-.165.86.86 0 0 1-.415-.49s.182.115.322.2a2 2 0 0 0-.167-.339.84.84 0 0 1-.426-.334l.26.08a11 11 0 0 0-.26-.36l.112-.096z" clip-rule="evenodd"/><path fill="#003994" d="M13.252 9.316c.4-.28 1.133-.523 1.51-.523l.016-.006c.032-.013.238-.14.251-.148.266-.152.545-.233.925-.233v.667c-.273 0-.45.051-.63.153a3 3 0 0 1-.32.183.6.6 0 0 1-.242.05c-.253 0-.866.203-1.166.414-.107.075-.097.052-.094.097.012.164 0 .265-.101.393-.013.016-.034.108-.036.269l-.625-.008c.003-.263.043-.47.137-.625-.013-.27.081-.476.375-.683"/><path fill="#EBCA5E" d="m13.587 9.566-.07-.11q.481-.34.898-.341a.9.9 0 0 0 .319-.072c.082-.032.165-.07.278-.128.407-.207.418-.212.526-.212h.369v.133h-.369c-.078 0-.103.012-.473.2a3 3 0 0 1-.288.132q-.2.079-.362.08-.376 0-.828.318"/><path fill="#003994" d="M18.498 9.316c-.4-.28-1.132-.523-1.509-.523l-.017-.006a7 7 0 0 1-.25-.148 1.76 1.76 0 0 0-.925-.233v.667c.273 0 .45.051.63.153-.032-.017.235.148.32.183q.117.05.242.05c.253 0 .866.203 1.165.414.108.075.098.052.095.097-.012.164 0 .265.1.393.014.016.035.108.037.269l.625-.008c-.003-.263-.043-.47-.138-.625.014-.27-.08-.476-.375-.683"/><path fill="#EBCA5E" d="m18.115 9.566.069-.11q-.48-.34-.898-.341a.9.9 0 0 1-.319-.072 3 3 0 0 1-.277-.128c-.407-.207-.419-.212-.527-.212h-.368v.133h.368c.078 0 .104.012.473.2.116.059.203.1.289.132q.2.079.361.08.376 0 .829.318"/><path fill="#003994" d="m13.822 10.02.326.354v1.473h.33v.094l.482.231s.072-.974-.154-1.23c-.227-.257.154-.32.154-.32l.578.579V10.02z"/><path fill="#D62818" d="m17.737 10.02-.326.354v1.473h-.33v.094l-.481.231s-.073-.974.154-1.23c.226-.257-.154-.32-.154-.32l-.579.579V10.02z"/><path fill="#FFC300" d="m14.877 10.598-.049.06.962.89.052-.004.795-.889-.054-.055-.771.862z"/><path fill="#FFC300" d="m14.74 10.969-.062.06 1.227.89.066-.003 1.015-.89-.069-.055-.984.862z"/><path fill="#D62818" d="M14.176 12.422h.422l.288.088s.093.66.556.66l.075.847-.358-.194s-.234.103-.273.103-.372.187-.372 0c0-.186-.338-.488-.338-.488z"/><path fill="#003994" d="M17.517 12.422h-.422l-.288.088s-.092.66-.555.66l-.076.847.359-.194s.233.103.272.103.372.187.372 0c0-.186.338-.488.338-.488z"/><path fill="#D62818" d="M16.613 12.5h.5c0 .374-.132.677-.392.882l-.297-.428c.127-.101.19-.243.19-.454m-1.309-1.027v.701h.581s-.055.526-.055.858.055.762.055.762.142-.071.142-.52v-1.149l.46.049-.049-.632h-.194s.298.394 0 .394-.64.077-.705.077-.235-.54-.235-.54"/><path fill="#003994" d="M15.809 12.32s-.327.193-.327.505c0 .314.164.67.164.67s-.078-.704.043-.892c.12-.187.12-.283.12-.283m-.531.23s-.018.227.116.227-.116-.226-.116-.226"/><path fill="#373737" d="m16.428 11.943.052.178-.855.28-.191-.796.17-.046.145.606z"/><path fill="#D62818" fill-rule="evenodd" d="m14.036 15.407-.075.064a1 1 0 0 1-.064-.101.8.8 0 0 1-.205-.102c-.081-.057-.165-.057-.271.005l-.12-.233c.183-.108.367-.108.529.006q.003 0 .006.004a.48.48 0 0 1 .257-.334c.255-.145 1.37-.298 1.709-.298v.427c-.275 0-1.342.146-1.52.247l-.015.009c-.024.013-.036.02-.038.03q-.003.01.015.034.015 0 .019-.005l.177.188c-.073.079-.236.092-.404.06m-1.194.008s.37.325.636.246c.267-.079.35-.167.35-.167s-.267-.036-.55-.08c-.282-.042-.436 0-.436 0" clip-rule="evenodd"/><path fill="#EBCA5E" fill-rule="evenodd" d="m14.065 15.18.045-.063c-.133-.106-.098-.165.155-.222l.067-.014-.015-.079-.068.015c-.305.069-.384.204-.184.364" clip-rule="evenodd"/><path fill="#D62818" fill-rule="evenodd" d="m17.465 15.407.075.064a1 1 0 0 0 .064-.101.8.8 0 0 0 .205-.102c.081-.057.165-.057.271.005l.121-.233c-.184-.108-.367-.108-.53.006q-.002 0-.005.004a.48.48 0 0 0-.258-.334c-.255-.145-1.37-.298-1.709-.298v.427c.275 0 1.343.146 1.52.247l.015.009c.024.013.036.02.039.03q.002.01-.016.034-.015 0-.019-.005l-.177.188c.073.079.236.092.404.06m1.194.008s-.37.325-.636.246c-.267-.079-.35-.167-.35-.167s.267-.036.55-.08c.282-.042.436 0 .436 0" clip-rule="evenodd"/><path fill="#EBCA5E" fill-rule="evenodd" d="m17.435 15.18-.045-.063c.132-.106.097-.165-.156-.222l-.067-.014.015-.079.068.015c.305.069.384.204.185.364" clip-rule="evenodd"/><path fill="#D62818" d="m15.366 15.511-.194-.342q.266-.17.68-.169.416-.002.673.172l-.202.336q-.155-.107-.471-.108-.319.002-.486.111"/></g></g></g><defs><clipPath id="a"><path fill="#fff" d="M0 0h32v24H0z"/></clipPath></defs></svg>