<svg xmlns="http://www.w3.org/2000/svg" width="32" height="24" fill="none" viewBox="0 0 32 24"><g clip-path="url(#a)"><mask id="b" width="32" height="24" x="0" y="0" maskUnits="userSpaceOnUse" style="mask-type:luminance"><path fill="#fff" d="M32 0H0v24h32z"/></mask><g mask="url(#b)"><path fill="#fff" d="M32 0H0v24h32z"/><path fill="#F7FCFF" fill-rule="evenodd" d="M16 0h16v24H16z" clip-rule="evenodd"/><path fill="#36A400" fill-rule="evenodd" d="M0 0h16v24H0z" clip-rule="evenodd"/><path fill="red" fill-rule="evenodd" d="M17.79 6.794c1.523 0 2.913.562 3.977 1.49a7.353 7.353 0 1 0 0 9.123A6.051 6.051 0 1 1 17.79 6.794m2.82 2.749-1.702 1.93-2.445-.675 1.355 2.12-1.355 2.258 2.565-.924 1.402 2.19V13.9l2.291-.982-2.291-.821z" clip-rule="evenodd"/></g></g><defs><clipPath id="a"><path fill="#fff" d="M0 0h32v24H0z"/></clipPath></defs></svg>