<svg xmlns="http://www.w3.org/2000/svg" width="32" height="24" fill="none" viewBox="0 0 32 24"><g clip-path="url(#a)"><mask id="b" width="32" height="24" x="0" y="0" maskUnits="userSpaceOnUse" style="mask-type:luminance"><path fill="#fff" d="M32 0H0v24h32z"/></mask><g mask="url(#b)"><path fill="#fff" d="M32 0H0v24h32z"/><path fill="#2E42A5" fill-rule="evenodd" d="M0 0v24h32V0z" clip-rule="evenodd"/><mask id="c" width="32" height="24" x="0" y="0" maskUnits="userSpaceOnUse" style="mask-type:luminance"><path fill="#fff" fill-rule="evenodd" d="M0 0v24h32V0z" clip-rule="evenodd"/></mask><g mask="url(#c)"><path fill="#FECA00" fill-rule="evenodd" d="M0 0v12h32V0z" clip-rule="evenodd"/><path fill="#E31D1C" fill-rule="evenodd" d="M0 18v6h32v-6z" clip-rule="evenodd"/><path fill="#7B2900" fill-rule="evenodd" d="M9.717 5.712s4.156-1.877 4.534-1.664.469.821.795.821.983-.192 1.257-.192.545.192.545.192h1.17v-.65l5.309 1.493s-3.096.405-3.33.405 0 .334 0 .334-.441-.334-1.113-.334c-.673 0-2.036.694-2.036.694l.495 1.067-.495.313-.545-.313s.035-.877-.2-.877-.406.563-.406.877c0 .313-.651.313-.651.313l.29-.587s.29-.973-.29-.973-3.225-.514-3.225-.514l-.676.334.242-.739z" clip-rule="evenodd"/><path fill="#E31D1C" fill-rule="evenodd" d="M11.501 15.774c-.649-1.458 0-4.688 0-4.688l1.26.66c-.149.755-.172 2.18.3 3.344.471 1.165 2.255 2.083 2.255 2.083s.9.2-.468.345c-1.366.144-2.698-.287-3.347-1.744m3.232 5.742c-.406 0 .813-2.709.813-2.709l.376-.752s.045 3.188-.212 3.461c-.165.175-.353.126-.574.068a1.6 1.6 0 0 0-.403-.068" clip-rule="evenodd"/><path fill="#2E42A5" fill-rule="evenodd" d="M10.326 15.297c-.543-2.177.305-5.133.305-5.133l.853.61c-.125 1.125-.125 4.036.597 5.298.721 1.26 3.887 1.79 3.887 1.79s-.625.462-1.77.678-3.328-1.066-3.872-3.243m3.63 5.92.501-1.793.708-.866h.509s-.716 3.08-1.217 3.08c-.325 0-.227-.178-.12-.376.059-.106.12-.219.12-.312 0-.267-.502.266-.502.266" clip-rule="evenodd"/><path fill="#FECA00" fill-rule="evenodd" d="M9.497 15.671c-.27-1.873.27-6.35.27-6.35l.853.609c-.385 1.085-.266 4.196 0 5.741.267 1.546 2.786 2.477 2.786 2.477s-.625.462-1.77.677-1.869-1.28-2.139-3.154m4.189 3.745c-.486 0 .212-.697.212-.697h1.163s-.398.984-.89.984c-.245 0-.245-.072-.244-.144 0-.072.001-.143-.241-.143" clip-rule="evenodd"/><path fill="#E31D1C" fill-rule="evenodd" d="M20.366 15.774c.649-1.458 0-4.688 0-4.688l-1.26.66c.149.755.172 2.18-.3 3.344-.471 1.165-2.255 2.083-2.255 2.083s-.9.2.468.345c1.367.144 2.698-.287 3.347-1.744m-3.232 5.742c.406 0-.812-2.709-.812-2.709l-.376-.752s-.046 3.188.211 3.461c.165.175.353.126.574.068.123-.033.257-.068.403-.068" clip-rule="evenodd"/><path fill="#2E42A5" fill-rule="evenodd" d="M21.54 15.297c.543-2.177-.305-5.133-.305-5.133l-.853.61c.125 1.125.125 4.036-.596 5.298-.722 1.26-3.888 1.79-3.888 1.79s.625.462 1.77.678 3.328-1.066 3.872-3.243m-3.63 5.92-.501-1.793-.708-.866h-.509s.717 3.08 1.217 3.08c.325 0 .227-.178.12-.376-.059-.106-.12-.219-.12-.312 0-.267.502.266.502.266" clip-rule="evenodd"/><path fill="#FECA00" fill-rule="evenodd" d="M22.37 15.671c.269-1.873-.27-6.35-.27-6.35l-.854.609c.386 1.085.267 4.196 0 5.741-.266 1.546-2.785 2.477-2.785 2.477s.624.462 1.77.677 1.869-1.28 2.138-3.154m-4.19 3.745c.486 0-.211-.697-.211-.697h-1.163s.398.984.889.984c.246 0 .245-.072.245-.144s-.002-.143.24-.143" clip-rule="evenodd"/><path fill="#6FAE21" d="m10.203 10.446.092-.553 1.6.104-1.214-1.258.41-.39 1.642 1.702-1.404-2.64.485-.289 1.278 1.88-.61-1.954.525-.208 1.966 3.92-.755-.049.074.237.642.17-.146.543-.298-.078.278.89-.482-.71.84 1.58-2.066-2.14zm11.723 0-.091-.553-1.601.104 1.214-1.258-.409-.39-1.642 1.702 1.404-2.64-.486-.289-1.278 1.88.61-1.954-.524-.208-1.966 3.92.754-.049-.074.237-.642.17.146.543.298-.078-.278.89.483-.71-.841 1.58 2.066-2.14z"/><path fill="#171401" d="m11.067 21.31-.413-.385L22.844 8.09l.413.386z"/><path fill="#CECECC" fill-rule="evenodd" d="m22.535 8.19.625.59.352-.975zM11.376 21.308l-.718-.472-.232.967z" clip-rule="evenodd"/><path fill="#171401" d="m10.16 19.4-.412-.385L21.938 6.18l.413.386z"/><path fill="#CECECC" fill-rule="evenodd" d="m21.629 6.276.625.59.352-.975zM10.47 19.398l-.718-.472-.232.967z" clip-rule="evenodd"/><path fill="#171401" d="m21.253 21.31.412-.385L9.475 8.09l-.412.386z"/><path fill="#CECECC" fill-rule="evenodd" d="m9.785 8.19-.625.59-.352-.975zm11.158 13.118.718-.472.233.967z" clip-rule="evenodd"/><path fill="#171401" d="m22.387 19.85.412-.386-12.19-12.835-.413.386z"/><path fill="#CECECC" fill-rule="evenodd" d="m10.918 6.729-.625.59-.353-.975zm11.159 13.118.718-.472.233.968z" clip-rule="evenodd"/><path fill="#B74E01" d="M18.2 16.375h-4.533v2.25H18.2z"/><path fill="#7DB8FF" stroke="#FECA00" stroke-width="0.5" d="M15.948 17.285c.898 0 1.675-.578 2.215-1.435.541-.86.868-2.032.868-3.315s-.327-2.455-.868-3.315c-.54-.857-1.317-1.435-2.215-1.435-.9 0-1.676.578-2.215 1.435-.542.86-.869 2.033-.869 3.315s.327 2.455.869 3.315c.54.857 1.316 1.435 2.215 1.435Z"/><mask id="d" width="8" height="11" x="12" y="7" maskUnits="userSpaceOnUse" style="mask-type:luminance"><path fill="#fff" stroke="#fff" stroke-width="0.5" d="M15.948 17.285c.898 0 1.675-.578 2.215-1.435.541-.86.868-2.032.868-3.315s-.327-2.455-.868-3.315c-.54-.857-1.317-1.435-2.215-1.435-.9 0-1.676.578-2.215 1.435-.542.86-.869 2.033-.869 3.315s.327 2.455.869 3.315c.54.857 1.316 1.435 2.215 1.435Z"/></mask><g fill-rule="evenodd" clip-rule="evenodd" mask="url(#d)"><path fill="#6FAE21" d="M12.879 12.609h1.612s1.109.245.555.439c-.555.193-.555.257-.555.532v1.5c0 .215.395.676-.436.676s-1.547-3.416-1.547-3.416zm6.3.184s-1.498.296-2.524.197-1.476-.197-1.476-.197.715.372.969.684c.254.311.774.85 1.305.85s1.344.504 1.344.504z"/><path fill="#F7FCFF" d="M13.318 10.133s1.235.238 1.532.596c.298.357-.393.714 1.406.357 1.8-.357 3.227-.98 3.227 0s-.157 1.884-.931 1.884h-3.444c-2.36 0-3.648.722-3.482-.44s1.692-2.397 1.692-2.397"/></g></g></g></g><defs><clipPath id="a"><path fill="#fff" d="M0 0h32v24H0z"/></clipPath></defs></svg>