<svg xmlns="http://www.w3.org/2000/svg" width="32" height="24" fill="none" viewBox="0 0 32 24"><g clip-path="url(#a)"><mask id="b" width="32" height="24" x="0" y="0" maskUnits="userSpaceOnUse" style="mask-type:luminance"><path fill="#fff" d="M32 0H0v24h32z"/></mask><g mask="url(#b)"><path fill="#fff" d="M32 0H0v24h32z"/><path fill="#F7FCFF" fill-rule="evenodd" d="M0 0v24h32V0z" clip-rule="evenodd"/><mask id="c" width="32" height="24" x="0" y="0" maskUnits="userSpaceOnUse" style="mask-type:luminance"><path fill="#fff" fill-rule="evenodd" d="M0 0v24h32V0z" clip-rule="evenodd"/></mask><g mask="url(#c)"><path fill="#BF2714" fill-rule="evenodd" d="M0 0v8h32V0z" clip-rule="evenodd"/><path fill="#272727" fill-rule="evenodd" d="M0 16v8h32v-8z" clip-rule="evenodd"/><path fill="#C09302" d="m12.26 10.219 1 .046-.251 5.47-1-.046zm1.045.34.998.056-.25 4.435-1-.056z"/><path fill="#C09302" d="m14.348 10.89.997.082-.25 3.056-.997-.081zm5.392-.671-1 .046.251 5.47.999-.046zm-1.044.34-.999.056.251 4.435.999-.056z"/><path fill="#C09302" d="m17.652 10.89-.997.082.251 3.056.997-.081zm-1.678 4.435-.975-.223.413-1.801.974.223z"/><path fill="#C09302" d="m16.72 15.325.974-.223-.413-1.801-.974.223z"/><path fill="#C09302" d="M16.473 15.31h-1v-1.767h1zm-1.838-4.396 1 .025-.06 2.38-.999-.024zm1.739 0 1 .025-.059 2.38-1-.024z"/><path fill="#C09302" d="m13.338 15.923.26-.966c1.06.285 1.875.426 2.43.426s1.371-.14 2.432-.426l.26.966c-1.139.306-2.031.46-2.691.46s-1.553-.154-2.691-.46m-1.056-5.701c-.067-.66.32-1.108.975-1.05.216.018.457.082.78.191l.185.065c.444.158.564.198.589.203-.098-.022.19-.545.257-.633.008.056-.025.048-.105.032l-.902-.18.642-.659a1.17 1.17 0 0 1 .864-.344c.036 0 .069-.002.177-.009.08-.005.08-.005.17-.008.624-.02 1.072.156 1.072.798 0 .23.029.598.077.878.016.094.047.183-.045.221.004-.033.222-.12.562-.261l.041-.017c.987-.413 1.103-.45 1.421-.257.212.129.414.36.64.706l-.836.548c-.146-.223-.262-.358-.318-.396.126.087-.298.228-.522.321l-.04.017c-.769.322-.87.36-1.09.36-.598 0-.813-.613-.872-1.49-.184.607-.735 1.374-1.189 1.374-.198 0-.103.031-.928-.262l-.171-.06a2.7 2.7 0 0 0-.544-.142l.04-.04z"/></g></g></g><defs><clipPath id="a"><path fill="#fff" d="M0 0h32v24H0z"/></clipPath></defs></svg>