<svg xmlns="http://www.w3.org/2000/svg" width="32" height="24" fill="none" viewBox="0 0 32 24"><g clip-path="url(#a)"><mask id="b" width="32" height="24" x="0" y="0" maskUnits="userSpaceOnUse" style="mask-type:luminance"><path fill="#fff" d="M32 0H0v24h32z"/></mask><g mask="url(#b)"><path fill="#fff" d="M32 0H0v24h32z"/><path fill="#F7FCFF" fill-rule="evenodd" d="M0 0h32v24H0z" clip-rule="evenodd"/><path fill="#272727" fill-rule="evenodd" d="M0 0v8h32V0z" clip-rule="evenodd"/><path fill="#5EAA22" fill-rule="evenodd" d="M0 16v8h32v-8z" clip-rule="evenodd"/><path fill="#E31D1C" fill-rule="evenodd" d="m0 0 16 12L0 24zm21.688 15.479s-2.274-1.375-2.274-3.647 2.274-3.467 2.274-3.467c-1.018-.646-4.548.276-4.548 3.541s3.497 3.868 4.548 3.573m1.84-4.165-1.323-1.24.457 1.583-1.28.607 1.573.512.683 1.715.299-1.587 1.554.343-1.176-1.148.398-1.226z" clip-rule="evenodd"/></g></g><defs><clipPath id="a"><path fill="#fff" d="M0 0h32v24H0z"/></clipPath></defs></svg>