<svg xmlns="http://www.w3.org/2000/svg" width="32" height="24" fill="none" viewBox="0 0 32 24"><g clip-path="url(#a)"><mask id="b" width="32" height="24" x="0" y="0" maskUnits="userSpaceOnUse" style="mask-type:luminance"><path fill="#fff" d="M32 0H0v24h32z"/></mask><g mask="url(#b)"><path fill="#fff" d="M32 0H0v24h32z"/><path fill="#FFB400" fill-rule="evenodd" d="M0 0v24h32V0z" clip-rule="evenodd"/><mask id="c" width="32" height="24" x="0" y="0" maskUnits="userSpaceOnUse" style="mask-type:luminance"><path fill="#fff" fill-rule="evenodd" d="M0 0v24h32V0z" clip-rule="evenodd"/></mask><g mask="url(#c)"><path fill="#C51918" fill-rule="evenodd" d="M0 0v6h32V0zm0 18v6h32v-6z" clip-rule="evenodd"/><path fill="#F1F9FF" d="M6.128 10.273h-1.12v5.824h1.12z"/><path fill="#C88A02" fill-rule="evenodd" d="M6.576 9.266H4.56v.56h.336v.448H6.24v-.448h.336zm-.336 7.166h.336v.56H4.56v-.56h.336v-.448H6.24z" clip-rule="evenodd"/><path fill="#AD1619" fill-rule="evenodd" d="M5.568 9.377c.244 0 .269-.092.412-.23.112-.106.372-.238.372-.386 0-.34-.35-.616-.784-.616-.433 0-.784.275-.784.616 0 .165.18.276.315.387.142.116.247.229.47.229" clip-rule="evenodd"/><path fill="#005BBF" fill-rule="evenodd" d="M4.56 16.992h2.016v.896s-.252-.112-.504-.112-.504.112-.504.112-.252-.112-.504-.112-.504.112-.504.112z" clip-rule="evenodd"/><mask id="d" width="3" height="2" x="4" y="16" maskUnits="userSpaceOnUse" style="mask-type:luminance"><path fill="#fff" fill-rule="evenodd" d="M4.56 16.992h2.016v.896s-.252-.112-.504-.112-.504.112-.504.112-.252-.112-.504-.112-.504.112-.504.112z" clip-rule="evenodd"/></mask><g fill="#fff" mask="url(#d)"><path d="m4.541 17.713-.044-.107q.273-.122.546-.122c.118 0 .18.017.285.063a.5.5 0 0 0 .24.054.5.5 0 0 0 .24-.054.6.6 0 0 1 .284-.063q.274 0 .546.122l-.044.107a1.2 1.2 0 0 0-.502-.112.5.5 0 0 0-.24.054.6.6 0 0 1-.284.063.6.6 0 0 1-.284-.063.5.5 0 0 0-.24-.054q-.252 0-.503.112m0-.336-.044-.107q.273-.122.546-.122c.118 0 .18.017.285.063a.5.5 0 0 0 .24.054.5.5 0 0 0 .24-.054.6.6 0 0 1 .284-.063q.274 0 .546.122l-.044.107a1.2 1.2 0 0 0-.502-.112.5.5 0 0 0-.24.054.6.6 0 0 1-.284.063.6.6 0 0 1-.284-.063.5.5 0 0 0-.24-.054q-.252 0-.503.112"/></g><path fill="#F1F9FF" d="M17.104 10.273h-1.12v5.824h1.12z"/><path fill="#C88A02" fill-rule="evenodd" d="M17.552 9.266h-2.016v.56h.336v.448h1.344v-.448h.336zm-.336 7.166h.336v.56h-2.016v-.56h.336v-.448h1.344z" clip-rule="evenodd"/><path fill="#AD1619" fill-rule="evenodd" d="M16.544 9.377c.244 0 .268-.092.412-.23.112-.106.372-.238.372-.386 0-.34-.351-.616-.784-.616s-.784.275-.784.616c0 .165.179.276.314.387.143.116.248.229.47.229" clip-rule="evenodd"/><path fill="#005BBF" fill-rule="evenodd" d="M15.536 16.992h2.016v.896s-.252-.112-.504-.112-.504.112-.504.112-.252-.112-.504-.112-.504.112-.504.112z" clip-rule="evenodd"/><mask id="e" width="3" height="2" x="15" y="16" maskUnits="userSpaceOnUse" style="mask-type:luminance"><path fill="#fff" fill-rule="evenodd" d="M15.536 16.992h2.016v.896s-.252-.112-.504-.112-.504.112-.504.112-.252-.112-.504-.112-.504.112-.504.112z" clip-rule="evenodd"/></mask><g fill="#fff" mask="url(#e)"><path d="m15.518 17.713-.044-.107q.271-.122.546-.122c.118 0 .18.017.284.063a.5.5 0 0 0 .24.054.5.5 0 0 0 .24-.054.6.6 0 0 1 .285-.063q.273 0 .546.122l-.044.107a1.2 1.2 0 0 0-.503-.112.5.5 0 0 0-.24.054.6.6 0 0 1-.284.063.6.6 0 0 1-.284-.063.5.5 0 0 0-.24-.054q-.251 0-.502.112m0-.336-.044-.107q.271-.122.546-.122c.118 0 .18.017.284.063a.5.5 0 0 0 .24.054.5.5 0 0 0 .24-.054.6.6 0 0 1 .285-.063q.273 0 .546.122l-.044.107a1.2 1.2 0 0 0-.503-.112.5.5 0 0 0-.24.054.6.6 0 0 1-.284.063.6.6 0 0 1-.284-.063.5.5 0 0 0-.24-.054q-.251 0-.502.112"/></g><path fill="#AD1619" fill-rule="evenodd" d="M4.988 15.682c.202-.245.315-.468.315-.704a.63.63 0 0 0-.123-.383l.014-.006c-.002 0 .221-.097.299-.134.144-.07.27-.142.395-.232.079-.058.185-.12.346-.207l.152-.08.04-.023.192-.105c.17-.098.28-.18.366-.288a.535.535 0 0 0-.123-.798c-.139-.095-.327-.149-.602-.192l-.056-.008-.69-.11c.688-.116 1.671-.073 2.104.15l.41-.796c-.88-.455-2.889-.409-3.639.108-.55.379-.476.951.096 1.198.24.103.551.172 1.128.264a3 3 0 0 0-.251.162 1.6 1.6 0 0 1-.256.149c-.047.023-.186.084-.25.112l-.032.014c-.467.212-.693.505-.625 1.035l.036.286.066.02zm-.577-.74-.001.003zm12.295.036c0 .236.113.459.315.704l.687-.567.066-.02.037-.287c.067-.53-.16-.823-.625-1.035l-.032-.014c-.064-.028-.204-.09-.25-.112a1.6 1.6 0 0 1-.256-.15 3 3 0 0 0-.252-.16c.577-.093.889-.162 1.128-.265.573-.246.646-.82.096-1.198-.75-.517-2.758-.563-3.64-.108l.412.796c.432-.223 1.415-.265 2.104-.15l-.354.057-.336.053-.057.008c-.275.043-.463.097-.602.192a.535.535 0 0 0-.123.798c.085.109.197.19.366.288.055.031.113.063.192.105l.04.022.152.08c.162.087.268.15.347.208.124.09.25.163.395.232.077.037.3.134.299.134l.013.006a.63.63 0 0 0-.122.383" clip-rule="evenodd"/><path fill="#F1F9FF" d="m5.923 12.398.33.069v.493c-.351.28-1.245.754-1.245.754v-1.316zm10.392 0-.33.069v.493c.352.28 1.245.754 1.245.754v-1.316z"/><path fill="#AD1619" fill-rule="evenodd" d="M14.776 7.206v-.164q-.864-.62-1.81-.62a3.6 3.6 0 0 0-1.835-.312v-.003c-.93-.09-1.869.315-1.869.315-.946 0-1.81.62-1.81.62v.164l1.13 1.134s.318 1.092 2.544.836v.002s1.475-.04 1.579-.074q.06-.02.127-.04c.289-.083.618-.18.814-.724zm-3.65-1.046c-.032.378-.215 2.655 0 3.008z" clip-rule="evenodd"/><path fill="#C88A02" fill-rule="evenodd" d="M8.314 8.148v-.003l-.794-.748.076-.082.746.702.02-.088a1 1 0 0 0 .262.031v-.152l.166.09q.12.066.35.03c.113-.018.19-.149.214-.428l.05-.562.169.539c.076.244.192.351.357.351.162 0 .227-.059.234-.208l.02-.423.192.378c.069.136.164.198.3.198.193 0 .322-.161.322-.414h.228c0 .253.129.414.322.414.135 0 .23-.062.3-.198l.191-.378.02.423c.008.15.072.208.234.208.165 0 .282-.107.358-.351l.168-.54.05.563c.025.279.101.41.214.428q.23.036.35-.03l.166-.09v.152a1 1 0 0 0 .263-.03l.036.162.825-.777.077.082-1.027.967c-.15.276-.226.458-.226.533 0 .116-.3.184-.886.255-.46.055-1.002.092-1.445.098h-.112a14 14 0 0 1-1.445-.098c-.586-.07-.887-.14-.887-.255a.2.2 0 0 0-.008-.054.9.9 0 0 1-.128-.31l-.09-.17-.227-.214zm5.505.018c-.184.033-.316.03-.386-.028a.9.9 0 0 1-.386.011c-.158-.025-.267-.13-.333-.303a.5.5 0 0 1-.325.199 10 10 0 0 1 1.219.244s-.013.106-.043.231q.048-.098.114-.218l.01-.014zm-1.768-.164a.36.36 0 0 1-.148-.134.5.5 0 0 1-.182.103q.17.014.33.031m-.725-.052a.5.5 0 0 1-.214-.188.5.5 0 0 1-.212.187q.076-.003.154-.003h.045l.045-.001q.09.001.182.005m-2.704.33-.104-.098q.189.02.273-.044.165.048.386.011c.157-.025.266-.13.332-.303a.5.5 0 0 0 .314.197c-.618.087-1.079.205-1.201.237m1.876-.31a10 10 0 0 0-.319.029.36.36 0 0 0 .142-.13.5.5 0 0 0 .177.1m2.755.93c.078.036.141 0 .19-.07l-.007.052-.03.015a1 1 0 0 1-.167.049 6 6 0 0 1-.592.095c-.474.057-1.039.094-1.487.097a14 14 0 0 1-1.488-.097 6 6 0 0 1-.592-.095 1 1 0 0 1-.147-.041l.012-.005c.245-.115 1.863-.222 2.154-.24.291.018 1.91.125 2.154.24" clip-rule="evenodd"/><path fill="#005BBF" fill-rule="evenodd" d="M11.112 5.348a.336.336 0 1 0 0-.672.336.336 0 0 0 0 .672" clip-rule="evenodd"/><path fill="#C88A02" fill-rule="evenodd" d="M10.894 6.996a.4.4 0 0 0 .032.102.4.4 0 0 0-.15-.026c-.155 0-.28.075-.28.168s.125.168.28.168c.154 0 .28-.075.28-.168 0 .093.125.168.28.168.154 0 .28-.075.28-.168s-.126-.168-.28-.168a.5.5 0 0 0-.11.013.4.4 0 0 0-.003-.153c-.03-.152-.127-.26-.218-.243s-.141.155-.112.307m-1.648.214a.5.5 0 0 1-.032-.102c-.03-.151.02-.289.111-.307.091-.017.189.091.218.243q.015.083.003.153a.5.5 0 0 1 .11-.013c.154 0 .28.075.28.168s-.126.168-.28.168-.28-.075-.28-.168c0 .093-.126.168-.28.168s-.28-.075-.28-.168.125-.168.28-.168q.084.001.15.026m3.508.102c-.013.092-.148.15-.3.128-.154-.022-.268-.114-.255-.205.013-.092.148-.15.3-.128a.4.4 0 0 1 .146.047.5.5 0 0 1-.018-.105c-.008-.155.06-.284.153-.289s.174.117.182.271a.4.4 0 0 1-.018.152.5.5 0 0 1 .11.002c.153.022.267.114.254.205-.013.092-.147.15-.3.128s-.267-.114-.254-.206m1.066.445c.137.072.283.065.326-.017l.002-.005a.1.1 0 0 0 .048.03c.089.028.197-.07.243-.218s.01-.29-.08-.317c-.088-.027-.197.07-.242.219a.5.5 0 0 0-.019.105.4.4 0 0 0-.12-.094c-.137-.073-.283-.065-.326.017s.032.207.168.28m-5.495.034c-.137.073-.283.065-.326-.017l-.003-.004a.1.1 0 0 1-.047.03c-.089.027-.198-.071-.243-.219s-.01-.29.079-.317.197.071.243.219a.5.5 0 0 1 .019.105.4.4 0 0 1 .12-.094c.136-.072.282-.065.326.017s-.032.207-.168.28m2.663-3.713h.233v.148h.153v.233h-.153v.467h.153v.233h-.541v-.233h.155v-.467h-.155v-.233h.155z" clip-rule="evenodd"/><path fill="#C88A02" d="M11.392 5.344h-.448V6.8h.448z"/><path fill="#fff" d="m9.14 5.587-.002.112c-.993-.017-1.563.128-1.707.417q-.226.446.088 1.093l-.101.049q-.337-.692-.087-1.192c.171-.343.774-.497 1.81-.479"/><path fill="#fff" d="m9.333 6.582-.057.096c-.217-.129-.325-.35-.325-.653 0-.437.225-.693.722-.868q.476-.167 1.303.134l-.039.105q-.794-.286-1.226-.133c-.457.16-.648.378-.648.762q0 .398.27.557"/><path fill="#C88A02" d="m7.66 7.04-.212.074c-.219-.625-.156-1.049.218-1.232q.495-.24 1.446-.2l-.009.223q-.9-.035-1.338.179c-.246.12-.292.425-.105.955"/><path fill="#C88A02" d="M10.129 5.439c-.512 0-.723.125-.843.493-.076.235-.002.435.239.622l-.138.177c-.311-.242-.421-.539-.314-.869.153-.469.454-.647 1.056-.647q.593 0 .916.314l.033.033v1.08h-.224v-.984q-.25-.219-.725-.22"/><path fill="#fff" d="m13.049 5.7.002.113c.993-.018 1.563.127 1.707.416q.226.448-.088 1.093l.101.049q.337-.691.087-1.192c-.171-.343-.774-.496-1.81-.478"/><path fill="#fff" d="m12.698 6.605.057.097q.325-.196.325-.654c0-.436-.225-.692-.722-.867q-.476-.167-1.302.134l.038.105q.794-.287 1.226-.134c.457.161.648.379.648.762 0 .267-.09.45-.27.557"/><path fill="#C88A02" d="m14.6 7.149.21.074c.22-.624.157-1.048-.218-1.231q-.494-.242-1.446-.201l.01.223q.9-.035 1.338.179c.246.12.292.425.105.956"/><path fill="#C88A02" d="M12.117 5.454c.512 0 .723.125.843.494.076.234.002.435-.239.621l.138.177c.312-.242.422-.538.314-.868-.153-.47-.454-.648-1.056-.648q-.593 0-.916.315l-.033.033v1.08h.224v-.984q.25-.219.725-.22"/><path fill="#E1E5E8" fill-rule="evenodd" d="M7.472 9.266h7.28v6.54s-.541 2.196-3.64 2.196-3.64-2.253-3.64-2.253z" clip-rule="evenodd" opacity="0.3"/><mask id="f" width="8" height="9" x="7" y="9" maskUnits="userSpaceOnUse" style="mask-type:luminance"><path fill="#fff" fill-rule="evenodd" d="M7.472 9.266h7.28v6.54s-.541 2.196-3.64 2.196-3.64-2.253-3.64-2.253z" clip-rule="evenodd"/></mask><g mask="url(#f)"><path fill="#FFC034" d="M11.168 13.297H7.472v4.368h3.696z"/><path fill="#AD1619" d="M8.368 13.52H7.92v4.143h.448zm1.567 0h-.448v4.143h.448zm-.783 0h-.448v4.143h.448zm1.568 0h-.449v4.143h.448zm.448-4.368H7.472v4.256h3.696z"/><path fill="#AD1619" d="M14.752 13.184h-3.696v4.256h3.696z"/><path fill="#F1F9FF" d="M14.976 9.266h-3.92v4.144h3.92z"/><path fill="#C88A02" fill-rule="evenodd" d="M9.04 9.602h.336v.929H9.6v-.465h.336v.465h.336v.58h-.336v1.046h.336v.58H8.256v-.58h.336V11.11h-.336v-.58h.224v-.465h.336v.465h.224z" clip-rule="evenodd"/><path fill="#C88A02" d="m12.979 9.796.229-.245.481.45-.229.245z"/><path fill="#FFC034" fill-rule="evenodd" d="M14.36 16.14v-2.453h-2.8v2.432l.004.019c.142.604.624.91 1.396.91.77 0 1.253-.298 1.395-.889zm-1.4.572c-.62 0-.957-.209-1.064-.633v-2.056h2.128V16.1c-.107.41-.445.613-1.064.613" clip-rule="evenodd"/><path fill="#FFC034" fill-rule="evenodd" d="M13.075 13.895h-.233v1.111l-.92-1-.165.151.832.905h-.754v.336h.772l-.85.925.165.151.92-1v1.3h.233V15.59l.812.883.165-.151-.85-.925h.949v-.336h-.93l.831-.905-.165-.151-.812.883z" clip-rule="evenodd"/><path fill="#F1F9FF" fill-rule="evenodd" d="M13.482 17.441s-2.372.187-2.372-1.343c0 0-.023 1.343-2.5 1.343v1.208h4.872z" clip-rule="evenodd"/><path fill="#005BBF" fill-rule="evenodd" stroke="#AD1619" stroke-width="1.16667" d="M11.112 14.19c.463 0 .84-.4.84-.896 0-.495-.377-.896-.84-.896-.464 0-.84.402-.84.896 0 .495.376.896.84.896Z" clip-rule="evenodd"/></g></g></g></g><defs><clipPath id="a"><path fill="#fff" d="M0 0h32v24H0z"/></clipPath></defs></svg>