<svg xmlns="http://www.w3.org/2000/svg" width="32" height="24" fill="none" viewBox="0 0 32 24"><g clip-path="url(#a)"><mask id="b" width="32" height="24" x="0" y="0" maskUnits="userSpaceOnUse" style="mask-type:luminance"><path fill="#fff" d="M32 0H0v24h32z"/></mask><g mask="url(#b)"><path fill="#fff" d="M32 0H0v24h32z"/><path fill="#FECA00" fill-rule="evenodd" d="M0 0v24h32V0z" clip-rule="evenodd"/><mask id="c" width="32" height="24" x="0" y="0" maskUnits="userSpaceOnUse" style="mask-type:luminance"><path fill="#fff" fill-rule="evenodd" d="M0 0v24h32V0z" clip-rule="evenodd"/></mask><g mask="url(#c)"><path fill="#5EAA22" fill-rule="evenodd" d="M0 0v8h32V0z" clip-rule="evenodd"/><path fill="#E31D1C" fill-rule="evenodd" d="M0 16v8h32v-8z" clip-rule="evenodd"/><path fill="#2B77B8" fill-rule="evenodd" d="M16 18a6 6 0 1 0 0-12 6 6 0 0 0 0 12" clip-rule="evenodd"/><path stroke="#FECA00" stroke-width="1.5" d="m16 14-2.762.927.86-2.309-1.873-2.236h2.6L16 8l1.176 2.382h2.657l-1.93 2.236.685 2.309z" clip-rule="evenodd"/><path stroke="#2B77B8" d="m15.696 12.035-2.085 4.36m1.757-4.915h-4m4.753 1.356 3.91 1.804m-3.064-2.765 2.83-3.098"/></g></g></g><defs><clipPath id="a"><path fill="#fff" d="M0 0h32v24H0z"/></clipPath></defs></svg>