<svg xmlns="http://www.w3.org/2000/svg" width="32" height="24" fill="none" viewBox="0 0 32 24"><g clip-path="url(#a)"><mask id="b" width="32" height="24" x="0" y="0" maskUnits="userSpaceOnUse" style="mask-type:luminance"><path fill="#fff" d="M32 0H0v24h32z"/></mask><g mask="url(#b)"><path fill="#fff" d="M32 0H0v24h32z"/><path fill="#67BFE5" fill-rule="evenodd" d="M0 0v24h32V0z" clip-rule="evenodd"/><mask id="c" width="18" height="14" x="0" y="0" maskUnits="userSpaceOnUse" style="mask-type:luminance"><path fill="#fff" d="M18 0H0v14h18z"/></mask><g mask="url(#c)"><path fill="#2E42A5" d="M18 0H0v14h18z"/><path fill="#F7FCFF" d="m-2.004 13 3.961 1.737L18.09 1.889l2.09-2.582-4.236-.58-6.58 5.536-5.297 3.73z"/><path fill="#F50100" d="m-1.462 14.216 2.018 1.008L19.429-.934h-2.833z"/><path fill="#F7FCFF" d="m20.005 13-3.961 1.737L-.09 1.889-2.18-.693l4.236-.58 6.58 5.536 5.297 3.73z"/><path fill="#F50100" d="m19.87 13.874-2.018 1.008-8.037-6.918-2.382-.773L-2.38-.684H.454l9.807 7.688 2.604.927z"/><path fill="#F50100" fill-rule="evenodd" d="M9.985 0h-2v6H0v2h7.985v6h2V8H18V6H9.985z" clip-rule="evenodd"/><path fill="#F7FCFF" fill-rule="evenodd" d="M6.485 0h5v4.5H18v5h-6.515L11.5 14h-5l-.015-4.5H0v-5h6.485zm1.5 6H0v2h7.985v6h2V8H18V6H9.985V0h-2z" clip-rule="evenodd"/></g><path fill="#F7FCFF" fill-rule="evenodd" d="M20 10h9.655v8.333S28.845 22 24.828 22C20.81 22 20 18.333 20 18.333z" clip-rule="evenodd"/><mask id="d" width="10" height="12" x="20" y="10" maskUnits="userSpaceOnUse" style="mask-type:luminance"><path fill="#fff" fill-rule="evenodd" d="M20 10h9.655v8.333S28.845 22 24.828 22C20.81 22 20 18.333 20 18.333z" clip-rule="evenodd"/></mask><g mask="url(#d)"><path fill="#C3352C" d="M29.655 10H20v3h9.655z"/><path fill="#C3352C" d="M25.517 12.668h-1.38v9.333h1.38z"/><path fill="#C3352C" d="M29.655 16.332H20v1.333h9.655z"/><path fill="#979797" fill-rule="evenodd" d="M22.54 20.738c.581.82 1.054 1.14 1.389.657.235-.34.259-.68-.076-.747a6 6 0 0 1-.41-.573l.012-.01c.094-.092.097-.214.079-.26-.007-.061.04-.146.34-.376.274-.21.395-.406.216-.623-.094-.114-.178-.136-.445-.178l-.082-.012a1.4 1.4 0 0 1-.173-.036l-.186-.356a2.3 2.3 0 0 0-1.021.196l-.303.129a1 1 0 0 1-.118.046c.008-.006.02-.017.002-.017-.07 0-.146-.007-.355-.034l-.042-.005c-.603-.076-.754-.074-.852.207-.149.428.732 1.211 1.2 1.306.234.047.514.271.826.686m.657-.589q.082.002.139-.013l.012-.025a.26.26 0 0 1-.151.038m-2.203-1.18q-.02-.022-.007-.058-.002.008.016.031l.05.058a.1.1 0 0 1-.059-.031m.82.592c-.168-.033-.595-.388-.76-.56.043.012.102.018.166.024l.085.01.04.005c.236.03.319.038.419.038.058 0 .046.02.039.033q-.004.005-.004.008c.004.005.05-.014.277-.11l.301-.128c.177-.075.339-.123.516-.145q.03.128.148.221c.106.083.227.117.433.151-.257.212-.386.389-.427.561-.23.073-.21.334-.07.595.096.181.279.438.55.779l.196.094c-.058 0-.09-.027-.114-.047-.031-.025-.05-.04-.092.02-.002.005-.184-.119-.572-.667-.383-.509-.753-.805-1.132-.882m1.219.3q.004-.005.002-.01zm.16-.212h-.015zm.004 0h-.004z" clip-rule="evenodd"/><path stroke="#964C36" d="M21.655 16.11s-.477-.66-.477-.895"/><path stroke="#2A8E51" d="M21.359 15.542s-.61-.26-.61 0m.6-.273s-.43-.546-.752-.546c-.323 0-.315.273-.315.273m.822-.276s-.192-.892-.499-.892c-.306 0-.306.447-.306.447m.883.447s-.086-.765.31-.765"/><path stroke="#964C36" d="M22.261 15.981s-.222-.783-.142-1.004"/><path stroke="#2A8E51" d="M22.177 15.348s-.484-.454-.573-.21m.657-.052s-.216-.66-.52-.77c-.302-.11-.389.15-.389.15m.866.021s.125-.904-.163-1.01c-.288-.104-.44.315-.44.315m.676.72s.181-.748.552-.613"/><path stroke="#964C36" stroke-width="0.7" d="M22.752 16.26s.316-.75.264-.979"/><path stroke="#2A8E51" stroke-width="0.7" d="M22.913 15.64s.536-.39.594-.136m-.646-.134s.296-.629.61-.701c.314-.073.368.195.368.195m-.862-.082s-.015-.913.284-.982.4.366.4.366m-.761.634s-.088-.764-.473-.676m4.271 1.676s.242-1.113.93-1.113c.69 0 .998 1.177.998 1.177"/><path stroke="#2A8E51" stroke-width="0.7" d="M26.129 15.04s.37-.657 1.595-.603c1.223.053 1.447.604 1.447.604m-3.289-.836s.672-.833 1.614-.127l.32.127s.32-.944 1.866 0"/><path stroke="#964C36" d="M27.738 16.036s.05-1.04.214-1.325m1.147 3.602s-.619-.29-.803 0-2.413 2.962-2.413 2.962"/><path fill="#FFF203" fill-rule="evenodd" d="m26.964 18.596 1.38.965s.636-.453.319-.71c-.318-.255-1.184-.706-1.184-.706z" clip-rule="evenodd"/><path fill="#00A651" fill-rule="evenodd" d="M26.916 18.645s-.32.334-.32.59-.297.942-.297.942.832.513 1.005.186c.173-.326 1.295-.13 1.098-.63-.199-.498-1.486-1.088-1.486-1.088" clip-rule="evenodd"/><path fill="#FFD100" fill-rule="evenodd" d="M21.056 11.183s.738-.378 1.103 0 .664-.031.664-.26c0-.228.58-1.011.58-.376 0 .636-.181.995.328.995.51 0 2.803-.878 3.353-.619.55.26.971.195.832-.177-.14-.373-.5-.605-1.192-.402s-.528.402-1.126.402-1.264-.199-1.264-.199.187-.334.87-.096c.683.237 1.624-.295 1.88-.295s.961-.015 1.031.188.496.39.171.58-.86.308-.491.55c.368.243 1.214.196 1.255.449.041.252.442.63.281.63s-.452.355-.723.247-.303-.203-.043-.291.258-.457.043-.457c-.214 0-.11.13-.597 0-.488-.13-1.134-.273-1.095 0s.356.692-.23.748-.86.28-.974.1-.522-.422-.201-.499c.32-.077.627.262.742.207.116-.055.377-.086.158-.321-.22-.235-.58-.373-.246-.549.335-.176.071-.18-.567.185-.639.364-.994.673-1.554.63s-.77.015-.951-.044c-.18-.06-1.058.652-1.31.471-.253-.18-1.069-.25-.922-.471.147-.222.344-.336.564-.222s.438.228.586.114.575-.506.468-.585c-.108-.078-.004-.342-.613-.342s-.823.294-.967.11c-.145-.186.157-.401.157-.401" clip-rule="evenodd"/></g></g></g><defs><clipPath id="a"><path fill="#fff" d="M0 0h32v24H0z"/></clipPath></defs></svg>