<svg xmlns="http://www.w3.org/2000/svg" width="32" height="24" fill="none" viewBox="0 0 32 24"><g clip-path="url(#a)"><mask id="b" width="32" height="24" x="0" y="0" maskUnits="userSpaceOnUse" style="mask-type:luminance"><path fill="#fff" d="M32 0H0v24h32z"/></mask><g mask="url(#b)"><path fill="#fff" d="M32 0H0v24h32z"/><path fill="#63B3E1" fill-rule="evenodd" d="M0 0v24h32V0z" clip-rule="evenodd"/><mask id="c" width="32" height="24" x="0" y="0" maskUnits="userSpaceOnUse" style="mask-type:luminance"><path fill="#fff" fill-rule="evenodd" d="M0 0v24h32V0z" clip-rule="evenodd"/></mask><g fill="#F7FCFF" fill-rule="evenodd" clip-rule="evenodd" mask="url(#c)"><path d="m16 7.3-1.764.928.337-1.964-1.427-1.39 1.972-.287L16 2.801l.881 1.786 1.972.287-1.427 1.39.337 1.964zm0 12-1.764.928.337-1.964-1.427-1.39 1.972-.287.882-1.786.881 1.786 1.972.287-1.427 1.39.337 1.964zm-6.2-5.8-1.763.927.337-1.963-1.427-1.391 1.972-.287L9.8 9l.882 1.787 1.972.286-1.427 1.39.337 1.964zm12.2 0-1.764.927.337-1.963-1.427-1.391 1.972-.287L22 9l.881 1.787 1.972.286-1.427 1.39.337 1.964z"/></g></g></g><defs><clipPath id="a"><path fill="#fff" d="M0 0h32v24H0z"/></clipPath></defs></svg>