<svg xmlns="http://www.w3.org/2000/svg" width="32" height="24" fill="none" viewBox="0 0 32 24"><g clip-path="url(#a)"><mask id="b" width="32" height="24" x="0" y="0" maskUnits="userSpaceOnUse" style="mask-type:luminance"><path fill="#fff" d="M32 0H0v24h32z"/></mask><g mask="url(#b)"><path fill="#fff" d="M32 0H0v24h32z"/><path fill="#5DAA22" fill-rule="evenodd" d="M0 0v24h32V0z" clip-rule="evenodd"/><mask id="c" width="32" height="24" x="0" y="0" maskUnits="userSpaceOnUse" style="mask-type:luminance"><path fill="#fff" fill-rule="evenodd" d="M0 0v24h32V0z" clip-rule="evenodd"/></mask><g mask="url(#c)"><path fill="#F7FCFF" fill-rule="evenodd" d="M0 0v12h32V0z" clip-rule="evenodd"/><path fill="#D21034" fill-rule="evenodd" d="M14.692 8.907c-.018-.57-.036-1.118.668-1.772C17.192 5.506 19.057 4.228 21.14 3c-.422.752-.724 2.15.384 2.239.355.005 4.25-1.742 4.25-1.742-1.355 1.054-2.913 2.524-1.103 3.16-1.66.552-3.037 2.342-1.83 3.783-.862-.261-1.993.331-2.197 1 .213-.002.587.03 1.046.071 1.659.146 4.417.39 4.556-.565-.894.466-2.443.276-2.49-1.06.012-1.145 1.626-1.79 3-.931q.107-.232.21-.463l.213-.47-.18.025c-.433.06-.84.117-1.298.003 1.058-1.07 2.054-2.124 2.955-3.31-.198 1.48 0 3.624.344 4.325a2.13 2.13 0 0 1-1.114-1.03l-.244.809-.244.81c.788 1.706-.056 4.236-.501 5.572-.139.415-.239.715-.239.838-.362.145-.626-.08-.891-.307-.133-.112-.265-.226-.41-.292.228.63.066 1.629-.075 2.501-.053.328-.103.638-.129.904-.037.385.123.656.2.787q.027.045.037.067c.215.09.714.334.749.367 0 0 .453.022.578.7-.302-.392-.714-.268-.714-.268l-.076.054-.08.058-.364-.233c-.402-.285-.811-.27-1.248-.068a.63.63 0 0 1-.667.023c-.223-.258-.682-.076-.774-.04l-.016.007c-.01 0-.572.4-.572.4s-.136-.034-.146-.034c-.022 0-.373-.004-.832.31.123-.678.583-.666.583-.666-.029-.094.005-.115.039-.136.017-.01.034-.02.043-.04.101-.12.277-.146.453-.172.088-.013.176-.026.255-.05-.187-.067-.542-.163-.793-.138a.5.5 0 0 0-.233.082c-.078.049-.133.083-.326-.01l.02-.067c-.296-.028-.528-.04-.697.255-.015-.434.284-.558.527-.657l.098-.042c.113-.187.608-.18.593-.166a3 3 0 0 0-.227-.278 1 1 0 0 1-.075-.089c0-.01-.384-.259-.655.023.052-.589.923-.597 1.009-.51l.255.266.255.265.478.323c.264.124.945.024 1.288-.367.202-.229.206-.657.208-.874q0-.056.002-.09c.016-.3 0-.64-.015-.926-.016-.326-.028-.582.015-.627-.23-.087-.353-.297-.406-.389q-.025-.042-.031-.044c-.125.027-1.12.243-2.101-.044-.777-.228-1.56-.683-2.034-.958-.24-.14-.4-.233-.442-.229a1.1 1.1 0 0 1-.325.394c-.054.045-.12.1-.206.183-.296.328-.191.882.04 1.143l1.094.443c.832.051 1.03.56 1.02 1.054-.273-.087-.753-.27-1.017-.37l-.107-.04c-.671 1.154-1.626 1.964-2.987 2.339.15.075.451.144.696.2.178.041.327.075.366.1.405.09.69.227.687.633-.271-.322-.535-.314-.75-.156-.287.129-.493-.016-.7-.16a1.3 1.3 0 0 0-.319-.184c-.288-.221-.57-.128-.822.01-.235-.164-.5-.122-.768-.079l-.168.025c-.406.043-.87.153-1.072.399-.103.087-.159.006-.184-.03q-.01-.017-.014-.014c-.468-.161-.675.276-.675.276-.111-.506.129-.615.383-.687l-.52-.321-.01-.038c-.01-.031-.014-.042.063-.062-.204-.14-.41-.033-.635.188.02-.462.556-.751.781-.598a.54.54 0 0 1 .675.044c.246.198.618.224.864.144a.82.82 0 0 0-.634-.51c-.269-.07-.58-.17-.489-.344-.165-.251-.402-.173-.666.033.094-.572 1.04-.605 1.186-.42.153.043.22.133.285.224.033.045.066.09.11.13.255.279.652.423.978.477.599-.072 1.204-.575 1.587-.894.145-.12.258-.214.327-.249 0 0-.398-.037-.426-.31-.127-.001-.255-.188-.418-.426-.242-.352-.562-.818-1.07-.962-.89-.252-2.965.536-3.27.652l-.038.014c-.053.502-.429.966-.429.966a4 4 0 0 0-.214-.46c-.149-.288-.289-.56-.273-.875a9 9 0 0 1-.986 1.154c-.148.152-.297.304-.46.49-.39.428-.59.932-.728 1.487.291.178 1.103.334 1.103.334.355.007.617.216.613.61-.316-.35-.634-.133-.634-.133-.26.23-.59.126-.906 0-.274-.312-.672-.49-1.008-.222-.195.169-.338.133-.505.09-.18-.044-.386-.096-.713.098-.447.434-1.07.474-1.238.21 0 0-.28-.01-.77.166.125-.809.614-.531.614-.531l-.011-.134-.01-.121-.177-.067c-.316-.148-.707-.112-.884.044.12-.53.583-.533.926-.477.045-.053.075-.149.103-.237q.015-.051.032-.095l-.025-.026c-.18-.194-.34-.365-.568-.163.098-.999 1.245-.257 1.588-.036l.056.036c.74.265 2.664-2.757 2.758-2.968-.548-.026-1.163.035-1.592.194-.122.397-.339.605-.593.85l-.129.126c.007-1.141-.5-1.717-1.227-2.543l-.122-.14c-.909-.634-1.31-1.913-1.384-2.33-.139.39-.242.507-.272.543q-.01.009-.01.012c-.201.234-.82.73-.737.41-.279-.07-.036-.318.103-.41.036-.007.095-.113.161-.233.094-.17.203-.367.287-.356l.177-1.74c-.107-.047-.155-.216-.219-.44a4 4 0 0 0-.157-.474C3.512 9.043 3.152 8.543 3 8.5c.482-.09.668.105.797.24.054.058.098.104.15.115.11.07.202.325.303.605.082.23.17.474.28.649-.186-.636-.092-1.065.092-1.62.001-.3-.117-.591-.395-.765.518-.013.763.492.827.623l.016.03c.222.309.13.56.057.762-.05.134-.09.246-.026.338a.6.6 0 0 0 .102-.12c.064-.087.129-.176.242-.158.142-.166.25-.346.24-.72.358.218.27.538.155.853.021.47-.04.599-.333.765-.292.186-.347.34-.313.566.356.405.428 1.653.428 1.653a.68.68 0 0 1 .467.71c.338-.031.646.246.698.499.2-.2.48-.013.676.2.068-.11.215-.164.375-.1 0-.196.102-.318.27-.477-.404-.334.02-2.783.313-2.85-.095-.663.973-2.788 1.237-2.829 0-.011-.177-.444-.177-.444s-.847.136-.998.965c-.104-.173-.208-.432-.208-.432s-.737.964-.748.942c-.292-.19-.16-.654-.16-.654-.142-.165-.172-.36-.202-.555a2 2 0 0 0-.059-.288c-.397-.019-.695-.037-.993-.055a61 61 0 0 0-.99-.056s.27.532.27.521c-.282.006-1.658-1.25-1.924-2.318.695.582 1.436.743 2.223.913l.033.008-.315.165-.319.168c2.193.2 4.463-.233 4.453-.244-.246-.546-1.05-.544-1.05-.544l-.035.335-.554.163s-.447.011-.452 0c-.102-.554-.594-.564-.594-.564-.384-.053-.712-.013-1.04.028-.164.02-.328.04-.499.049.638-.853 1.478-.917 2.32-.98q.23-.018.458-.04c.072-.449.441-.58.874-.644l2.038.11c.261-.367 1.072-.52 1.072-.52.284-.152.73-.176 1.155-.176-.066.504-.695 1.056-.93 1.219-.24.386-.219.426-.128.598l.029.056.24.443c.404.133.698.316.79.6-.438-.056-.757.03-.75.232.006.1.16.164.3.221.068.028.133.055.176.083.252.251.335.473.347.784-.108-.006-.226-.067-.345-.128-.237-.123-.474-.245-.623.072-.107.233.011.548.291.654.514.15.561.9.55.9l-.015-.008c-.118-.055-.837-.39-.785.296-.003.052-.035.09-.073.134-.069.08-.155.183-.126.43.057.482.133.982.167 1.089l.967-.21.99-.213c.285-.277.413-.736.385-1.23.007-.148.002-.293-.002-.436m11.478 1.147c-.299-.338-.605-.453-.86-.45-.373.006-.638.267-.613.464.084.653 1.33.427 1.473-.014" clip-rule="evenodd"/><mask id="d" width="28" height="20" x="2" y="2" maskUnits="userSpaceOnUse" style="mask-type:luminance"><path fill="#fff" d="M30 2H2v20h28z"/><path fill="#000" fill-rule="evenodd" d="M14.692 8.907c-.018-.57-.036-1.118.668-1.772C17.192 5.506 19.057 4.228 21.14 3c-.422.752-.724 2.15.384 2.239.355.005 4.25-1.742 4.25-1.742-1.355 1.054-2.913 2.524-1.103 3.16-1.66.552-3.037 2.342-1.83 3.783-.862-.261-1.993.331-2.197 1 .213-.002.587.03 1.046.071 1.659.146 4.417.39 4.556-.565-.894.466-2.443.276-2.49-1.06.012-1.145 1.626-1.79 3-.931q.107-.232.21-.463l.213-.47-.18.025c-.433.06-.84.117-1.298.003 1.058-1.07 2.054-2.124 2.955-3.31-.198 1.48 0 3.624.344 4.325a2.13 2.13 0 0 1-1.114-1.03l-.244.809-.244.81c.788 1.706-.056 4.236-.501 5.572-.139.415-.239.715-.239.838-.362.145-.626-.08-.891-.307-.133-.112-.265-.226-.41-.292.228.63.066 1.629-.075 2.501-.053.328-.103.638-.129.904-.037.385.123.656.2.787q.027.045.037.067c.215.09.714.334.749.367 0 0 .453.022.578.7-.302-.392-.714-.268-.714-.268l-.076.054-.08.058-.364-.233c-.402-.285-.811-.27-1.248-.068a.63.63 0 0 1-.667.023c-.223-.258-.682-.076-.774-.04l-.016.007c-.01 0-.572.4-.572.4s-.136-.034-.146-.034c-.022 0-.373-.004-.832.31.123-.678.583-.666.583-.666-.029-.094.005-.115.039-.136.017-.01.034-.02.043-.04.101-.12.277-.146.453-.172.088-.013.176-.026.255-.05-.187-.067-.542-.163-.793-.138a.5.5 0 0 0-.233.082c-.078.049-.133.083-.326-.01l.02-.067c-.296-.028-.528-.04-.697.255-.015-.434.284-.558.527-.657l.098-.042c.113-.187.608-.18.593-.166a3 3 0 0 0-.227-.278 1 1 0 0 1-.075-.089c0-.01-.384-.259-.655.023.052-.589.923-.597 1.009-.51l.255.266.255.265.478.323c.264.124.945.024 1.288-.367.202-.229.206-.657.208-.874q0-.056.002-.09c.016-.3 0-.64-.015-.926-.016-.326-.028-.582.015-.627-.23-.087-.353-.297-.406-.389q-.025-.042-.031-.044c-.125.027-1.12.243-2.101-.044-.777-.228-1.56-.683-2.034-.958-.24-.14-.4-.233-.442-.229a1.1 1.1 0 0 1-.325.394c-.054.045-.12.1-.206.183-.296.328-.191.882.04 1.143l1.094.443c.832.051 1.03.56 1.02 1.054-.273-.087-.753-.27-1.017-.37l-.107-.04c-.671 1.154-1.626 1.964-2.987 2.339.15.075.451.144.696.2.178.041.327.075.366.1.405.09.69.227.687.633-.271-.322-.535-.314-.75-.156-.287.129-.493-.016-.7-.16a1.3 1.3 0 0 0-.319-.184c-.288-.221-.57-.128-.822.01-.235-.164-.5-.122-.768-.079l-.168.025c-.406.043-.87.153-1.072.399-.103.087-.159.006-.184-.03q-.01-.017-.014-.014c-.468-.161-.675.276-.675.276-.111-.506.129-.615.383-.687l-.52-.321-.01-.038c-.01-.031-.014-.042.063-.062-.204-.14-.41-.033-.635.188.02-.462.556-.751.781-.598a.54.54 0 0 1 .675.044c.246.198.618.224.864.144a.82.82 0 0 0-.634-.51c-.269-.07-.58-.17-.489-.344-.165-.251-.402-.173-.666.033.094-.572 1.04-.605 1.186-.42.153.043.22.133.285.224.033.045.066.09.11.13.255.279.652.423.978.477.599-.072 1.204-.575 1.587-.894.145-.12.258-.214.327-.249 0 0-.398-.037-.426-.31-.127-.001-.255-.188-.418-.426-.242-.352-.562-.818-1.07-.962-.89-.252-2.965.536-3.27.652l-.038.014c-.053.502-.429.966-.429.966a4 4 0 0 0-.214-.46c-.149-.288-.289-.56-.273-.875a9 9 0 0 1-.986 1.154c-.148.152-.297.304-.46.49-.39.428-.59.932-.728 1.487.291.178 1.103.334 1.103.334.355.007.617.216.613.61-.316-.35-.634-.133-.634-.133-.26.23-.59.126-.906 0-.274-.312-.672-.49-1.008-.222-.195.169-.338.133-.505.09-.18-.044-.386-.096-.713.098-.447.434-1.07.474-1.238.21 0 0-.28-.01-.77.166.125-.809.614-.531.614-.531l-.011-.134-.01-.121-.177-.067c-.316-.148-.707-.112-.884.044.12-.53.583-.533.926-.477.045-.053.075-.149.103-.237q.015-.051.032-.095l-.025-.026c-.18-.194-.34-.365-.568-.163.098-.999 1.245-.257 1.588-.036l.056.036c.74.265 2.664-2.757 2.758-2.968-.548-.026-1.163.035-1.592.194-.122.397-.339.605-.593.85l-.129.126c.007-1.141-.5-1.717-1.227-2.543l-.122-.14c-.909-.634-1.31-1.913-1.384-2.33-.139.39-.242.507-.272.543q-.01.009-.01.012c-.201.234-.82.73-.737.41-.279-.07-.036-.318.103-.41.036-.007.095-.113.161-.233.094-.17.203-.367.287-.356l.177-1.74c-.107-.047-.155-.216-.219-.44a4 4 0 0 0-.157-.474C3.512 9.043 3.152 8.543 3 8.5c.482-.09.668.105.797.24.054.058.098.104.15.115.11.07.202.325.303.605.082.23.17.474.28.649-.186-.636-.092-1.065.092-1.62.001-.3-.117-.591-.395-.765.518-.013.763.492.827.623l.016.03c.222.309.13.56.057.762-.05.134-.09.246-.026.338a.6.6 0 0 0 .102-.12c.064-.087.129-.176.242-.158.142-.166.25-.346.24-.72.358.218.27.538.155.853.021.47-.04.599-.333.765-.292.186-.347.34-.313.566.356.405.428 1.653.428 1.653a.68.68 0 0 1 .467.71c.338-.031.646.246.698.499.2-.2.48-.013.676.2.068-.11.215-.164.375-.1 0-.196.102-.318.27-.477-.404-.334.02-2.783.313-2.85-.095-.663.973-2.788 1.237-2.829 0-.011-.177-.444-.177-.444s-.847.136-.998.965c-.104-.173-.208-.432-.208-.432s-.737.964-.748.942c-.292-.19-.16-.654-.16-.654-.142-.165-.172-.36-.202-.555a2 2 0 0 0-.059-.288c-.397-.019-.695-.037-.993-.055a61 61 0 0 0-.99-.056s.27.532.27.521c-.282.006-1.658-1.25-1.924-2.318.695.582 1.436.743 2.223.913l.033.008-.315.165-.319.168c2.193.2 4.463-.233 4.453-.244-.246-.546-1.05-.544-1.05-.544l-.035.335-.554.163s-.447.011-.452 0c-.102-.554-.594-.564-.594-.564-.384-.053-.712-.013-1.04.028-.164.02-.328.04-.499.049.638-.853 1.478-.917 2.32-.98q.23-.018.458-.04c.072-.449.441-.58.874-.644l2.038.11c.261-.367 1.072-.52 1.072-.52.284-.152.73-.176 1.155-.176-.066.504-.695 1.056-.93 1.219-.24.386-.219.426-.128.598l.029.056.24.443c.404.133.698.316.79.6-.438-.056-.757.03-.75.232.006.1.16.164.3.221.068.028.133.055.176.083.252.251.335.473.347.784-.108-.006-.226-.067-.345-.128-.237-.123-.474-.245-.623.072-.107.233.011.548.291.654.514.15.561.9.55.9l-.015-.008c-.118-.055-.837-.39-.785.296-.003.052-.035.09-.073.134-.069.08-.155.183-.126.43.057.482.133.982.167 1.089l.967-.21.99-.213c.285-.277.413-.736.385-1.23.007-.148.002-.293-.002-.436m11.478 1.147c-.299-.338-.605-.453-.86-.45-.373.006-.638.267-.613.464.084.653 1.33.427 1.473-.014" clip-rule="evenodd"/></mask><g mask="url(#d)"><path fill="#000" d="m15.36 7.133-.167-.187-.004.004zM21.14 3l.218.122.454-.808-.799.47zm.384 2.238-.02.25h.016zm4.25-1.741.153.197-.256-.425zm-1.103 3.16.078.238.695-.23-.69-.243zM22.84 10.44l-.073.24.803.243-.538-.644zm-2.196.999-.239-.073-.1.326.341-.003zm5.602-.493.247.036.07-.483-.433.225zm-2.49-1.06-.25-.003v.012zm3-.931-.132.212.242.15.118-.258zm.423-.933.228.104.188-.411-.448.059zm-1.478.028-.178-.176-.308.312.426.106zm2.955-3.311.248.033.125-.939-.572.755zM29 9.064l-.09.233.595.228-.28-.571zm-1.114-1.031.226-.106-.276-.594-.19.628zm-.489 1.62-.24-.073-.026.091.04.086zm-.739 6.41.093.232.157-.063v-.17zm-1.3-.6.104-.226-.543-.25.203.562zm.032 4.26-.234.089.038.101.1.041zm.749.367-.174.18.068.065.093.005zm.578.699-.198.153.444-.199zm-.714-.267-.072-.24-.04.012-.033.024zm-.156.111-.135.211.142.09.138-.097zm-.364-.232-.145.204.01.006zm-1.248-.068-.106-.227-.015.007-.015.01zm-.667.023-.19.163.032.036.042.022zm-1.362.366-.06.243.111.027.094-.066zm-.146-.033-.002.25h.002zm0 0-.004.25h.002zm-.832.31-.247-.045-.106.588.493-.337zm.583-.666-.007.25.346.01-.1-.332zm.082-.177-.191-.161-.021.025-.014.03zm.708-.221.075.238.71-.223-.701-.25zm-1.352-.067-.239-.075-.064.206.193.094zm.02-.066.238.074.092-.295-.307-.028zm-.697.255-.25.008.03.878.437-.762zm.624-.7.103.229.07-.032.041-.067zm.593-.165-.212.132.157.251.222-.196zm-.957-.344-.249-.023-.063.707.492-.51zm1.01-.51.18-.173-.003-.004zm.51.53-.181.174.019.02.022.014zm.478.324-.14.207.016.01.018.009zm1.498-2.885.18.174.264-.274-.356-.134zm-.437-.433v-.25h-.027l-.027.006zm-4.578-1.23-.024-.249-.129.013-.064.112zm-.53.577-.173-.182-.007.007-.006.007zm.04 1.142-.186.166.039.044.054.022zm1.093.444-.093.232.037.015.041.003zm1.02 1.053-.076.239.318.101.008-.334zm-1.123-.41.088-.234-.198-.075-.106.183zm-2.987 2.34-.066-.241-.627.172.58.292zm1.062.3-.134.211.037.023.042.01zm.686.632-.19.161.435.518.005-.677zm-.749-.155.102.228.025-.01.022-.017zm-1.019-.344-.152.198.033.025.04.014zm-.822.01-.144.205.128.09.136-.075zm-.936-.054.026.249.005-.001zm-1.072.399.161.19.017-.014.015-.017zm-.198-.044-.082.236.153.053.11-.118zm-.676.276-.244.053.157.715.313-.66zm.384-.687.068.24.547-.153-.483-.3zm-.52-.321-.246.042.02.11.095.06zm.053-.1.061.242.538-.136-.458-.312zm-.636.187-.25-.01-.028.632.453-.443zm.782-.598-.14.207.15.103.144-.113zm.675.044-.166.187.01.008zm.864.145.077.238.241-.078-.082-.24zm-.635-.51-.062.242.023.006.023.001zm-.488-.344.222.115.067-.13-.08-.123zm-.667.033-.246-.04-.105.631.505-.394zm1.187-.421-.196.155.05.063.077.022zm.395.355.184-.17-.008-.008-.01-.008zm.978.477-.04.246.034.006.036-.004zm1.914-1.143.111.224.787-.391-.875-.082zm-.426-.31.248-.027-.022-.223h-.225zm-4.797-.722v-.25h-.225l-.023.224zm-.428.965-.234.088.153.41.275-.34zm-.488-1.335.25.013.042-.844-.494.685zM9.804 18.17l.185.169.003-.004zm-.728 1.487-.243-.06-.043.178.156.095zm1.103.333-.047.246.02.004h.022zm.613.61-.185.168.43.473.005-.639zm-.634-.133-.14-.206-.014.009-.012.01zm-.906 0-.188.165.04.045.055.022zm-1.008-.222-.156-.196-.008.008zm-1.218.19-.128-.216-.025.015-.02.02zm-1.238.209.21-.135-.07-.11-.131-.005zm-.77.166-.248-.038-.064.416.396-.143zm.614-.531-.124.217.411.233-.038-.47zm-.021-.256.249-.02-.013-.158-.149-.056zm-.177-.066-.107.226.01.005.009.003zm-.884.044-.244-.056-.172.757.582-.514zm.926-.477-.04.247.14.023.09-.109zm.135-.332.234.087.054-.145-.106-.113zm-.594-.189-.248-.024-.063.633.477-.422zm1.645 0-.132.212.023.014.025.01zm2.758-2.968.228.102.15-.334-.366-.018zm-1.592.194-.087-.234-.116.043-.036.118zm-.722.975-.25-.001-.004.605.43-.426zm-1.35-2.682.188-.165-.02-.023-.024-.017zm-1.383-2.33.246-.044-.163-.932-.318.891zm-.282.555.19.163.06-.07v-.093zm-.737.41.242.063.063-.244-.244-.061zm.103-.41-.05-.245-.048.01-.04.026zm.448-.589-.034.248.256.035.026-.258zm.177-1.74.248.025.019-.18-.166-.074zM3 8.498l-.046-.246-.023.486zm.947.355.134-.211-.038-.025-.045-.01zm.582 1.254-.212.132.452-.202zm.093-1.62.238.08.012-.04v-.04zm-.395-.765-.006-.25-.832.021.706.441zm.843.654.203-.147-.01-.012-.01-.012zm.03 1.098-.204.143.153.22.209-.168zm.345-.277-.038.247.137.021.09-.106zm.24-.72.129-.214-.393-.24.013.46zm.155.853-.235-.086-.017.047.002.05zm-.333.765-.124-.218-.01.007zm-.313.566-.247.038.011.072.048.055zm.428 1.653-.25.014.01.171.163.053zm.467.71-.25-.018-.021.295.295-.028zm.698.499-.245.05.093.455.329-.329zm.675.2-.184.169.223.244.174-.281zm.375-.1-.092.232.343.136v-.37zm.27-.478.173.182.205-.194-.218-.18zm.314-2.85.055.244.225-.051-.033-.228zm1.237-2.828.038.247.212-.033v-.214zm-.177-.444.232-.095-.076-.183-.195.031zm-.998.965-.214.13.342.563.118-.648zm-.208-.432.232-.093-.163-.409-.268.35zm-.748.942.226-.107-.03-.064-.06-.039zm-.16-.654.24.068.036-.129-.087-.101zM7.105 7l.239-.073-.052-.168-.175-.008zm-1.984-.11.012-.25-.43-.02.195.383zm.27.521h.25v-.255l-.254.005zM3.468 5.093l.16-.192-.588-.493.186.745zm2.257.92.116.222.61-.32-.673-.146zm-.634.334-.116-.222-.75.394.843.077zm4.452-.245-.228.103.018.038.028.03zm-1.05-.543v-.25h-.226l-.023.224zm-.034.334.07.24.161-.048.017-.166zm-.554.164.006.25h.033l.032-.01zm-.453 0-.245.045.005.032.014.03zm-.593-.565-.034.248.015.002h.014zM5.32 5.57l-.2-.15-.319.426.532-.027zm2.778-1.02.027.248.19-.02.03-.19zm.873-.644.014-.25H8.96l-.025.003zm2.04.11v.25h.128l.075-.105zm1.07-.52.047.245.038-.007.034-.018zm1.156-.176.248.032.037-.282h-.285zm-.93 1.219-.143-.206-.043.03-.027.044zm-.1.653-.222.113.003.006zm.24.444-.22.119.047.087.095.032zm.79.6-.032.247.39.05-.12-.374zm-.749.232-.25.008v.006zm.476.304.177-.177-.018-.018-.022-.014zm.347.784-.015.25.275.015-.01-.275zm-.969-.056-.226-.106v.002zm.292.654-.088.234.009.003.009.003zm-.25 1.187.249.015.001-.017-.001-.016zm-.032 1.653-.238.078.07.214.221-.047zm1.957-.422.052.244.07-.015.052-.05zm.385-1.23-.25-.012v.026zm11.476.71.237.078.045-.136-.095-.107zM15.189 6.95c-.38.354-.58.693-.675 1.034-.093.333-.081.65-.072.93l.5-.016c-.01-.29-.016-.531.054-.779.067-.24.21-.502.534-.803zm5.824-4.167c-2.093 1.234-3.972 2.521-5.82 4.163l.332.374c1.818-1.615 3.669-2.884 5.742-4.106zm.531 2.205c-.22-.017-.339-.095-.41-.186-.076-.098-.121-.245-.126-.44-.008-.397.153-.89.35-1.241l-.436-.245c-.225.402-.425.984-.413 1.496.005.26.066.525.231.737.171.22.43.35.764.378zm4.23-1.492-.103-.228h-.003l-.008.004-.032.015-.57.253c-.37.163-.867.381-1.375.599s-1.025.434-1.437.596c-.206.08-.383.147-.517.192q-.102.035-.162.05c-.048.012-.054.01-.039.01l-.008.5a.7.7 0 0 0 .173-.026q.085-.022.195-.06c.146-.05.332-.119.541-.2.419-.165.942-.384 1.451-.603a137 137 0 0 0 1.985-.87q.005 0 .008-.003l.002-.001zm-1.02 2.925c-.422-.149-.58-.322-.63-.463-.05-.143-.023-.338.128-.6.305-.531.994-1.135 1.675-1.665l-.307-.395c-.673.524-1.44 1.183-1.801 1.81-.181.316-.289.673-.165 1.018.124.347.45.596.934.766zm-1.722 3.857c-.524-.625-.494-1.316-.135-1.94.367-.636 1.073-1.186 1.852-1.444l-.157-.475c-.88.292-1.693.913-2.128 1.67-.443.77-.498 1.694.184 2.51zm-2.149 1.233c.074-.24.337-.512.72-.696.377-.18.81-.245 1.164-.137l.146-.478c-.507-.154-1.07-.053-1.526.164-.448.215-.852.574-.982 1.001zm.828-.25c-.45-.04-.841-.075-1.069-.073l.004.5c.197-.002.556.03 1.021.07zm4.287-.352c-.014.099-.099.213-.374.312-.268.097-.648.15-1.097.17-.895.039-1.982-.057-2.816-.13l-.043.498c.825.073 1.947.172 2.88.13.466-.02.905-.075 1.245-.197.333-.12.645-.333.7-.71zm-2.492-1.015c.014.384.137.701.341.946.203.242.473.4.762.49.571.176 1.25.099 1.752-.163l-.23-.444a1.9 1.9 0 0 1-1.374.129 1.1 1.1 0 0 1-.526-.333 1.02 1.02 0 0 1-.225-.643zM26.89 8.74c-.748-.467-1.574-.532-2.224-.31-.648.221-1.152.745-1.16 1.451l.5.006c.006-.44.316-.811.821-.984.503-.171 1.172-.13 1.798.262zm-.15-.353-.21.462.455.208.21-.465zm.213-.471-.213.47.456.206q.104-.236.212-.468zm.081.376.179-.024-.066-.496-.182.025zm-1.392-.002c.51.128.964.062 1.392.002l-.069-.495c-.438.061-.798.109-1.202.008zm2.816-3.704c-.892 1.173-1.878 2.218-2.934 3.286l.356.351c1.06-1.072 2.064-2.135 2.976-3.335zm.767 4.367c-.071-.146-.143-.386-.206-.702a10 10 0 0 1-.145-1.08c-.066-.796-.066-1.683.03-2.401l-.495-.066c-.102.763-.102 1.688-.033 2.509.035.411.087.8.153 1.135.065.33.147.62.247.825zm-1.565-.816c.26.56.78.979 1.251 1.16l.18-.468a1.88 1.88 0 0 1-.978-.903zm.222.777.244-.81-.479-.144-.244.81zm-.244.81.244-.81-.479-.145-.244.81zm-.503 5.578c.222-.666.55-1.65.722-2.685.17-1.029.194-2.149-.232-3.07l-.454.21c.363.784.358 1.782.193 2.779-.165.99-.48 1.94-.703 2.608zm-.226.76.002-.019.01-.051q.015-.066.045-.168c.041-.138.1-.312.169-.522l-.474-.158c-.07.207-.13.39-.174.537-.04.136-.078.277-.078.38zm-1.304-.117c.126.108.285.246.467.33.197.09.426.12.68.019l-.186-.464a.33.33 0 0 1-.285-.01c-.107-.049-.213-.137-.351-.255zm-.351-.255c.107.05.212.137.351.255l.325-.38c-.126-.108-.285-.246-.467-.33zm.276 2.314c.07-.434.148-.913.178-1.364.03-.447.017-.897-.115-1.262l-.47.17c.096.265.115.63.087 1.058-.03.424-.103.88-.174 1.318zm-.127.888c.025-.257.073-.558.127-.888l-.494-.08c-.052.325-.104.644-.13.92zm.166.635a1 1 0 0 1-.166-.635l-.498-.048c-.045.469.152.8.233.937zm.055.107a1 1 0 0 0-.055-.107l-.43.254.02.034.001.004v.001-.002l-.003-.007zm.689.274a.3.3 0 0 0-.082-.057l-.076-.042-.212-.107a9 9 0 0 0-.457-.21l-.19.461a9 9 0 0 1 .685.33l.008.005.002.002-.004-.003-.02-.018zm.65.834c-.072-.396-.25-.63-.438-.762a.8.8 0 0 0-.356-.14h-.016l-.013.249-.013.25h-.007.002l.022.004q.035.009.095.046c.07.05.181.164.233.444zm-.96-.221.073.24h-.003.003l.028-.006a.45.45 0 0 1 .416.185l.396-.305a.94.94 0 0 0-.971-.357l-.008.002h-.003l-.001.001zm.07.257.076-.054-.29-.407-.077.055zm-.08.058.08-.058-.291-.406-.079.056zm-.643-.226.363.233.27-.421-.364-.233zm-1.01-.051c.195-.09.367-.131.525-.126.154.005.31.055.474.171l.29-.408a1.35 1.35 0 0 0-.748-.263 1.66 1.66 0 0 0-.75.172zm-.887.017a.88.88 0 0 0 .917-.034l-.27-.42c-.137.088-.27.087-.415.011zm-.566-.028c.045-.018.156-.061.275-.075.126-.015.188.011.218.045l.378-.327c-.194-.224-.472-.236-.654-.215-.19.022-.354.088-.401.107zm-.108.023a.2.2 0 0 0 .063-.008l.017-.005.013-.004.015-.006-.184-.465.014-.004.018-.004a.2.2 0 0 1 .044-.004zm-.572.15.145.204.001-.001.005-.003.018-.013.063-.045.451-.317.013-.008-.006.003-.017.009-.024.01c-.006.001-.037.011-.077.011v-.5a.2.2 0 0 0-.078.013.2.2 0 0 0-.063.03l-.026.017-.07.047-.392.277-.064.045-.018.013-.005.003v.001zm-.146.217-.035-.003h-.003l.011.002.046.011.046.011.016.004h.004l.001.001.06-.243.06-.242h-.002l-.005-.002-.016-.004-.126-.029-.015-.003s-.02-.003-.042-.003zm-.692.266c.205-.14.38-.205.502-.237a1 1 0 0 1 .175-.029h.011l.006-.5c-.058 0-.463.003-.976.353zm.443-.872.006-.25h-.007l-.038.002a.8.8 0 0 0-.339.115c-.198.123-.379.355-.451.754l.491.09c.051-.28.162-.381.225-.42a.3.3 0 0 1 .112-.04q.002-.001 0-.001h-.006zm-.093-.349c-.007.005-.093.05-.138.148a.38.38 0 0 0-.009.273l.48-.144c-.008-.023.011.02-.017.082a.2.2 0 0 1-.047.061c-.01.008-.017.013-.006.006zm-.051.066a.2.2 0 0 1 .056-.069l-.005.003.263.426c.008-.005.093-.05.138-.148zm.643-.312c-.084.012-.192.027-.293.06a.66.66 0 0 0-.315.197l.382.323c.008-.01.028-.027.082-.044a2 2 0 0 1 .217-.042zm.216-.042a1.5 1.5 0 0 1-.216.042l.073.494c.083-.012.192-.027.293-.059zm-.694.35c.09-.01.212.003.346.03.13.027.255.064.338.094l.169-.47a3 3 0 0 0-.407-.114 1.7 1.7 0 0 0-.494-.038zm-.125.045a.25.25 0 0 1 .126-.046l-.05-.498a.7.7 0 0 0-.34.12zm-.568.002a.7.7 0 0 0 .331.083c.119-.007.202-.063.237-.085l-.264-.424c-.044.027-.027.012-.004.01.01 0 .01.002-.003-.002l-.078-.032zm-.122-.324-.007.024.477.15.01-.033zm.013-.042-.013.042.48.14.01-.033zm-.241.454c.055-.095.102-.12.147-.13.066-.018.154-.015.31 0l.046-.498c-.14-.013-.317-.03-.482.013a.73.73 0 0 0-.455.367zm.214-1.013c-.113.047-.294.118-.436.253-.158.149-.255.358-.245.644l.5-.017c-.005-.149.04-.218.088-.264.064-.06.155-.1.284-.153zm.09-.038-.09.038.19.463.106-.045zm.863.249a.25.25 0 0 0-.001-.376c-.048-.042-.1-.054-.101-.055-.026-.007-.049-.009-.057-.01l-.08-.002c-.056 0-.131.004-.212.016s-.173.032-.26.068a.54.54 0 0 0-.262.208l.427.26c-.012.02-.018.012.024-.005a.6.6 0 0 1 .143-.036 1 1 0 0 1 .166-.012.2.2 0 0 1-.053-.015.25.25 0 0 1-.15-.23c0-.1.058-.162.083-.185zm-.581-.3c.081.092.172.196.203.245L22 19.06c-.058-.093-.185-.235-.251-.31zm-.137-.254c0 .062.024.107.025.11a.3.3 0 0 0 .033.052l.023.028.056.064.375-.33-.05-.059-.009-.01.002.004.006.008a.24.24 0 0 1 .039.133zm-.226.196c.056-.058.12-.067.197-.05a.4.4 0 0 1 .124.049l-.008-.006-.02-.02a.25.25 0 0 1-.067-.169h.5c0-.077-.035-.129-.04-.137a.3.3 0 0 0-.056-.061l-.033-.024a1 1 0 0 0-.294-.12.69.69 0 0 0-.663.191zm1.007-.86a.3.3 0 0 0-.108-.07l-.083-.025a1 1 0 0 0-.167-.018 1.4 1.4 0 0 0-.403.05c-.277.077-.634.28-.675.727l.498.045q.02-.21.31-.29a1 1 0 0 1 .258-.032q.054.001.074.007.01.003 0-.001a.2.2 0 0 1-.058-.04zm.258.27-.255-.266-.36.345.254.266zm.255.265-.255-.266-.36.346.254.266zm.195.125-.236-.16-.279.415.235.159zm.242.163-.242-.163-.28.414q.12.083.244.164zm.961-.324c-.127.145-.33.248-.544.298a1.2 1.2 0 0 1-.287.034.4.4 0 0 1-.163-.026l-.212.452c.11.052.24.071.366.074.129.002.27-.014.412-.047.278-.066.587-.209.804-.455zm.146-.712c-.001.11-.003.254-.026.395q-.037.222-.12.317l.376.33c.147-.167.208-.388.238-.566.03-.184.03-.363.032-.47zm.002-.1-.002.1.5.005c0-.039 0-.063.002-.08zm-.015-.901c.015.289.03.616.015.9l.5.027c.017-.315-.001-.669-.015-.952zm.085-.813a.3.3 0 0 0-.072.124 1 1 0 0 0-.019.088c-.007.051-.009.11-.009.169 0 .118.008.271.015.432l.5-.025q-.013-.25-.015-.406 0-.077.005-.105.002-.014 0-.002c-.002.003-.012.037-.045.072zm-.443-.09c.052.089.213.376.535.497l.176-.468c-.138-.052-.223-.184-.279-.28zm.186.08a.25.25 0 0 1-.198-.1l.003.005.01.016.431-.252-.027-.045a.3.3 0 0 0-.077-.08.25.25 0 0 0-.143-.044zm-2.172-.054c1.047.307 2.095.077 2.225.049l-.107-.489c-.12.026-1.06.229-1.977-.04zm-2.09-.982c.471.274 1.28.745 2.09.982l.14-.48c-.742-.217-1.5-.656-1.978-.934zm-.292-.195c-.04.004-.067-.005-.068-.005q-.01-.002.001.001l.073.036q.105.058.287.163l.251-.432a11 11 0 0 0-.303-.172 1 1 0 0 0-.115-.056l-.062-.022a.3.3 0 0 0-.112-.01zm-.187.336c.06-.05.124-.103.187-.176.064-.073.123-.161.194-.285l-.435-.248a1.3 1.3 0 0 1-.136.205 1 1 0 0 1-.131.121zm-.195.173c.08-.077.141-.128.195-.173l-.321-.383c-.055.046-.126.105-.219.193zm.055.795a.73.73 0 0 1-.156-.401.53.53 0 0 1 .114-.408l-.371-.335c-.207.23-.263.526-.24.786.021.257.123.514.28.69zm1 .378-1.092-.443-.188.463 1.093.444zm1.176 1.291c.006-.277-.044-.593-.246-.852-.207-.266-.54-.428-1.008-.457l-.03.5c.364.022.546.14.644.265.103.132.145.316.14.533zm-1.355-.142c.26.1.749.285 1.029.375l.152-.477a25 25 0 0 1-1.004-.365zm-.106-.04.105.04.178-.467q-.061-.024-.107-.04zm-2.833 2.347c1.43-.394 2.436-1.25 3.137-2.455l-.432-.252c-.642 1.105-1.545 1.868-2.837 2.225zm.685-.285a10 10 0 0 1-.373-.09 1.6 1.6 0 0 1-.266-.09l-.224.447c.1.05.234.092.36.125.13.036.27.068.391.096zm.444.133a.5.5 0 0 0-.104-.047l-.098-.028-.242-.058-.112.488a9 9 0 0 1 .296.073c.02.007.012.006-.007-.006zm.803.845a.76.76 0 0 0-.285-.632c-.169-.133-.39-.2-.597-.246l-.109.488c.198.044.322.091.396.15.056.044.097.104.095.236zm-.85.044c.07-.051.124-.062.169-.056.047.007.13.04.24.171l.383-.322c-.16-.19-.345-.314-.551-.344a.72.72 0 0 0-.538.149zm-.992-.158c.097.068.23.164.383.216a.75.75 0 0 0 .563-.03l-.205-.457a.25.25 0 0 1-.198.013 1 1 0 0 1-.256-.15zm-.256-.15c.073.024.146.074.256.15l.287-.409c-.096-.068-.23-.163-.383-.215zm-.622-.007a.8.8 0 0 1 .301-.111.33.33 0 0 1 .249.079l.304-.396a.83.83 0 0 0-.6-.18 1.3 1.3 0 0 0-.495.17zm-.85-.052c.289-.046.447-.06.586.037l.287-.41c-.331-.23-.7-.16-.95-.12zm-.175.026.176-.026-.079-.494-.16.024zm-.91.31c.057-.07.17-.14.345-.197.169-.056.367-.092.56-.112l-.053-.498c-.213.023-.45.064-.664.135-.21.07-.429.177-.574.354zm-.583-.046c.007.009.063.099.164.145.06.028.131.04.207.024a.4.4 0 0 0 .18-.091l-.322-.383c-.004.004.01-.01.042-.016a.17.17 0 0 1 .102.012c.025.011.039.026.042.029s.003.005-.003-.005zm.374.014a.25.25 0 0 1-.29.052c-.046-.022-.072-.053-.074-.055-.01-.012-.017-.023-.01-.012l.412-.284-.008-.011-.02-.024a.253.253 0 0 0-.374-.008zm-.858.105.226.107v.002l.002-.004.018-.028a.4.4 0 0 1 .074-.081c.055-.045.135-.084.274-.036l.163-.473a.76.76 0 0 0-.751.12.9.9 0 0 0-.225.273l-.004.008-.001.003c0 .001-.001.002.224.109m.317-.927c-.127.035-.326.097-.459.266-.143.183-.165.425-.102.714l.489-.106c-.048-.218-.006-.283.007-.3.023-.029.072-.057.2-.093zm-.584.131.52.322.263-.425-.52-.322zm-.115-.168c.003.01.001.005 0-.002l.493-.084c-.006-.038-.017-.067-.02-.077zm.238-.386-.078.024a.3.3 0 0 0-.12.087.27.27 0 0 0-.047.253l.007.022.473-.163c-.006-.017.003.005.006.031a.23.23 0 0 1-.05.171c-.036.045-.077.06-.079.062l.01-.003zm-.4.608a.7.7 0 0 1 .234-.171.1.1 0 0 1 .043-.007c.007 0 .021.003.043.018l.282-.413a.58.58 0 0 0-.533-.07 1.2 1.2 0 0 0-.418.285zm.747-.983a.54.54 0 0 0-.393-.077.9.9 0 0 0-.354.144.94.94 0 0 0-.424.726l.5.023a.44.44 0 0 1 .203-.334.4.4 0 0 1 .152-.065c.043-.006.048.005.035-.004zm.702.064a.786.786 0 0 0-.997-.054l.31.393c.07-.055.229-.077.354.034zm.62.093c-.183.06-.463.034-.63-.101l-.314.389c.324.261.789.288 1.098.188zm-.574-.023a.5.5 0 0 1 .22.097c.09.065.162.15.194.244l.473-.16a1 1 0 0 0-.376-.49 1 1 0 0 0-.478-.19zm-.694-.708a.36.36 0 0 0 .007.36c.054.091.14.15.203.185.132.073.306.122.438.156l.125-.484a1.5 1.5 0 0 1-.32-.11c-.036-.02-.028-.023-.015-.001a.14.14 0 0 1 .006.124zm-.29.345c.124-.097.204-.132.246-.137h.017c.002.001.017.01.04.044l.418-.275a.6.6 0 0 0-.234-.216.5.5 0 0 0-.302-.05c-.184.023-.354.131-.493.24zm1.227-.774a.46.46 0 0 0-.194-.135 1 1 0 0 0-.204-.05 1.4 1.4 0 0 0-.462.024c-.302.064-.695.257-.768.697l.493.082c.022-.132.148-.241.38-.29a1 1 0 0 1 .295-.016q.06.008.085.019c.02.007.005.006-.016-.02zm.292.233c-.07-.094-.178-.249-.419-.318l-.137.481c.039.011.06.026.077.04.021.02.04.044.075.092zm.075.091a.6.6 0 0 1-.075-.09l-.404.294c.03.042.078.109.145.169zm.852.417c-.299-.05-.633-.178-.835-.4l-.369.339c.31.337.769.496 1.122.554zm1.386-.84a7 7 0 0 1-.687.521c-.261.166-.525.288-.77.317l.06.497c.353-.043.692-.21.979-.392.289-.184.547-.4.737-.558zm.376-.28c-.06.03-.123.076-.178.119l-.198.162.32.384q.109-.091.185-.152a1 1 0 0 1 .093-.065zm-.564-.061c.028.275.244.407.375.462a1 1 0 0 0 .267.07l.006.002h.003l.024-.249.023-.249h.001-.006a.5.5 0 0 1-.123-.034.2.2 0 0 1-.064-.04c-.008-.007-.008-.01-.009-.014zm-.375-.31c.078.115.16.236.242.327.07.079.2.206.38.207l.003-.5c.032 0 .047.012.04.008a.3.3 0 0 1-.05-.048 3 3 0 0 1-.203-.277zm-.932-.863c.406.115.679.495.932.863l.412-.283c-.232-.336-.599-.888-1.208-1.06zm-3.114.645c.152-.057.737-.28 1.392-.456.328-.088.668-.164.977-.202.314-.039.57-.036.745.014l.136-.482c-.271-.076-.608-.07-.943-.028-.34.042-.705.124-1.045.215-.68.183-1.285.413-1.44.472zm-.127.03c.027 0 .047-.004.05-.004l.016-.004.012-.004.01-.003.01-.004.029-.01-.178-.468-.026.01-.004.001h.002l.003-.002.011-.003.016-.003.05-.005zm-.428.716.194.158.001-.001.002-.002.004-.005.014-.02.05-.066a3 3 0 0 0 .147-.235c.108-.192.234-.468.265-.768l-.497-.052a1.6 1.6 0 0 1-.203.575 2 2 0 0 1-.17.257l-.001.002zm-.436-.345c.076.148.147.286.202.433l.468-.175c-.066-.18-.151-.343-.226-.487zM11 16.513c-.02.394.158.726.3 1.002l.445-.23c-.155-.299-.258-.51-.246-.747zm-.557 1.341c.294-.3.596-.61 1.01-1.182l-.406-.293a9 9 0 0 1-.962 1.126zm-.45.48c.157-.18.3-.327.45-.48l-.358-.349c-.148.152-.301.308-.47.5zm-.674 1.383c.132-.535.319-.993.67-1.378l-.37-.337c-.43.47-.643 1.02-.786 1.595zm.86.273.047-.245h-.002l-.006-.002-.025-.005a8 8 0 0 1-.394-.09c-.245-.062-.484-.138-.592-.204l-.261.426c.183.112.495.203.729.262a9 9 0 0 0 .419.096l.027.006.008.001h.003zm.863.612a.83.83 0 0 0-.251-.634.9.9 0 0 0-.607-.228l-.01.5a.4.4 0 0 1 .275.093c.05.048.094.127.093.265zm-.884-.135.14.207-.001.001-.002.001-.001.001h.001l.015-.008a.2.2 0 0 1 .068-.017c.042-.004.124 0 .229.116l.37-.336c-.212-.233-.447-.295-.643-.278a.7.7 0 0 0-.305.099l-.007.004-.003.002s-.002.002.139.208m-.999.232c.158.064.35.135.546.151a.8.8 0 0 0 .618-.196l-.33-.374a.3.3 0 0 1-.246.072 1.5 1.5 0 0 1-.402-.117zm-.76-.258c.1-.08.199-.091.304-.061.116.033.245.12.361.252l.376-.33a1.3 1.3 0 0 0-.6-.403.81.81 0 0 0-.752.15zm-.72.138c.075.02.193.051.323.04a.7.7 0 0 0 .406-.185l-.328-.377c-.065.056-.101.062-.12.064a.5.5 0 0 1-.16-.027zm-.525.07c.133-.08.228-.1.296-.104a.8.8 0 0 1 .228.034l.122-.485c-.088-.022-.218-.056-.375-.048a1.1 1.1 0 0 0-.527.173zm-1.577.13c.164.256.492.305.759.27a1.57 1.57 0 0 0 .864-.436l-.348-.358a1.07 1.07 0 0 1-.583.298c-.199.027-.266-.036-.271-.044zm-.475.266a2.7 2.7 0 0 1 .52-.137q.087-.012.127-.013l.027-.001h.004s-.002 0 .008-.25l.009-.25h-.024l-.05.001a2 2 0 0 0-.173.018 3.2 3.2 0 0 0-.617.162zm.53-.766.123-.218h-.001l-.002-.001-.003-.002-.01-.005a.6.6 0 0 0-.118-.046.6.6 0 0 0-.305-.01c-.282.065-.476.322-.546.775l.494.076c.028-.178.072-.27.105-.316.029-.04.05-.046.059-.047a.1.1 0 0 1 .058.004l.024.008.003.002-.001-.001-.002-.001-.002-.001zm-.26-.113.01.133.499-.04-.011-.135zm-.01-.122.01.122.498-.042-.01-.12zm-.016.147.177.067.175-.469-.177-.066zm-.63-.003a.42.42 0 0 1 .24-.074.8.8 0 0 1 .371.07l.213-.453a1.3 1.3 0 0 0-.616-.116c-.192.013-.395.071-.54.199zm.8-.91c-.182-.03-.434-.053-.668.028-.257.09-.463.292-.542.64l.488.11c.041-.182.127-.246.217-.277.113-.04.263-.035.425-.008zm-.175-.066-.039.113c-.014.034-.02.042-.017.038l.382.322a.6.6 0 0 0 .1-.174c.02-.052.037-.107.05-.15zm.035-.107-.035.107.477.15q.015-.052.027-.083zm.027.23.025.027.365-.34-.024-.027zm-.22-.145c.034-.03.047-.03.04-.029-.009.002-.014-.001-.007.002a.3.3 0 0 1 .069.051c.035.032.071.072.118.122l.366-.34c-.078-.085-.199-.22-.345-.288a.5.5 0 0 0-.293-.038.6.6 0 0 0-.28.146zm1.558-.433c-.164-.107-.57-.372-.959-.472-.192-.05-.431-.073-.64.04-.227.12-.344.355-.373.654l.497.049c.02-.201.083-.248.11-.263.044-.023.132-.034.281.004.296.077.635.293.813.408zm.054.034-.054-.034-.271.42.06.038zm2.397-2.858-.027.048-.073.122a18 18 0 0 1-1.006 1.44c-.29.37-.59.715-.859.95q-.202.176-.344.24c-.097.046-.134.036-.136.035l-.169.47c.182.066.367.019.517-.051.154-.072.31-.186.461-.318.304-.265.628-.64.924-1.018a18 18 0 0 0 1.038-1.486c.06-.098.11-.183.13-.228zm-1.278.53c.387-.143.965-.204 1.494-.178l.024-.5c-.567-.027-1.219.034-1.691.21zm-.506.796c.255-.245.516-.492.659-.957l-.478-.146c-.102.329-.274.498-.527.743zm-.126.123.126-.123-.346-.36-.132.128zm-1.59-2.555c.728.827 1.17 1.339 1.164 2.376l.5.003c.007-1.245-.564-1.885-1.289-2.71zm-.124-.14.124.14.375-.33-.123-.14zm-1.441-2.452c.04.232.167.68.4 1.151.233.47.584.99 1.086 1.34l.287-.41c-.407-.283-.711-.72-.924-1.152a4.2 4.2 0 0 1-.357-1.016zm.163.663c.053-.062.17-.208.319-.623l-.471-.168c-.13.365-.219.455-.226.463zm.051-.151a.25.25 0 0 1-.03.119q-.015.024-.02.029c-.003.005-.007.01-.001.003l-.378-.328c0 .001-.01.01-.016.02l-.023.034c-.006.011-.032.058-.032.123zm-1.23.347a.36.36 0 0 0 .025.27.3.3 0 0 0 .296.145.5.5 0 0 0 .176-.056q.074-.037.147-.086c.186-.125.409-.322.526-.457l-.379-.327a2.5 2.5 0 0 1-.425.368 1 1 0 0 1-.09.054c-.027.013-.027.009-.008.007a.2.2 0 0 1 .192.105c.042.074.017.132.025.103zm.208-.556a.9.9 0 0 0-.291.306.4.4 0 0 0-.026.328c.058.14.187.202.29.228l.123-.485c-.036-.01.02-.006.049.066.027.067-.002.11.006.096q.007-.016.048-.059a1 1 0 0 1 .077-.063zm.08-.145q-.05.093-.083.143-.015.025-.014.02l.02-.017a.2.2 0 0 1 .085-.037l.1.49c.095-.02.152-.085.167-.1a1 1 0 0 0 .062-.084c.033-.05.069-.116.1-.173zm.54-.483a.34.34 0 0 0-.261.083.7.7 0 0 0-.116.13c-.06.083-.118.189-.163.27l.438.242c.049-.089.092-.166.132-.221.02-.028.03-.037.03-.037-.002 0-.012.009-.03.017a.2.2 0 0 1-.098.012zm-.106-1.518-.177 1.74.497.051.177-1.74zm-.21-.347c.03.107.062.224.104.319.04.09.11.22.253.282l.203-.457c.035.016.03.037.002-.025a2 2 0 0 1-.081-.255zm-.147-.444c.064.153.107.302.147.444l.48-.136a4 4 0 0 0-.166-.502zm-.545-.863c-.024-.007-.03-.015-.016-.004l.052.048q.072.074.166.206c.124.176.253.4.343.613l.46-.194a4 4 0 0 0-.395-.707 2 2 0 0 0-.214-.265 1 1 0 0 0-.11-.1.5.5 0 0 0-.148-.077zm1.047-.172c-.065-.067-.173-.184-.346-.26-.177-.08-.397-.106-.678-.054l.091.492c.202-.038.316-.012.384.018a.6.6 0 0 1 .187.149zm.02.042c.03.006.043.02.034.012l-.02-.018-.034-.036-.362.345c.024.025.06.063.097.095.04.032.1.074.183.091zm.487.766c-.05-.137-.101-.282-.156-.401a1 1 0 0 0-.095-.175.5.5 0 0 0-.153-.156l-.269.421c-.013-.008-.01-.01.007.014a1 1 0 0 1 .056.104q.064.145.14.361zm.256.6c-.092-.147-.171-.363-.256-.6l-.47.168c.078.22.175.495.302.697zm-.356-1.566c-.191.577-.301 1.062-.096 1.768l.48-.139c-.164-.566-.087-.938.09-1.47zm-.29-.474c.188.117.278.318.277.553h.5c.001-.364-.144-.747-.512-.977zm1.184.302c-.033-.068-.124-.258-.287-.429a1.01 1.01 0 0 0-.771-.335l.013.5a.51.51 0 0 1 .395.18c.106.11.17.239.2.302zm-.027-.031a.2.2 0 0 1 .031.041l.003.006-.007-.016-.45.218.013.026.01.018c0 .002.014.025.035.048zm.11 1.018c.035-.097.09-.246.097-.418a.9.9 0 0 0-.186-.576l-.406.293c.079.11.094.195.092.266a.9.9 0 0 1-.067.264zm-.056.109q.01.013.011.027.001.013.002-.001l.012-.05.03-.085-.47-.171c-.021.06-.054.146-.067.233a.45.45 0 0 0 .072.332zm-.305-.124a.5.5 0 0 1-.057.072l.314.389c.069-.056.12-.13.147-.166zm.482-.258a.42.42 0 0 0-.335.092c-.068.056-.12.13-.147.166l.404.295.058-.072-.02.01a.1.1 0 0 1-.036.003zm-.049-.466a.9.9 0 0 1-.045.34.7.7 0 0 1-.134.21l.38.325c.08-.093.162-.205.22-.355s.085-.322.079-.535zm.64.931c.057-.153.127-.358.115-.563-.013-.232-.13-.44-.375-.589l-.26.427c.113.069.132.13.136.191.005.089-.026.202-.085.363zm-.443.897c.16-.091.306-.198.389-.385.075-.17.08-.374.07-.609l-.5.023c.01.235-.004.331-.028.384-.016.037-.047.077-.179.152zm-.19.31c-.013-.084-.004-.12.01-.146.016-.032.06-.088.19-.17l-.268-.422c-.162.103-.292.217-.368.365a.7.7 0 0 0-.058.45zm.18 1.692.25-.015v-.005l-.004-.054a7 7 0 0 0-.08-.643 4 4 0 0 0-.138-.585 1.5 1.5 0 0 0-.267-.516l-.376.33c.055.063.114.178.167.341.052.159.092.34.122.514a7 7 0 0 1 .076.635l.001.01v.002zm.717.729c.026-.35-.145-.808-.64-.967l-.153.476c.22.07.308.27.295.454zm.694.43a.9.9 0 0 0-.334-.504.9.9 0 0 0-.633-.194l.048.498a.4.4 0 0 1 .28.092.4.4 0 0 1 .149.208zm.615.082a1.25 1.25 0 0 0-.427-.319.6.6 0 0 0-.302-.044.52.52 0 0 0-.308.154l.354.353.013-.01.003-.001c.004 0 .02-.002.052.012a.8.8 0 0 1 .246.192zm.283-.165c-.259-.102-.54-.025-.68.202l.425.263q0-.004.012-.008c.007-.002.026-.005.058.008zm.006-.426c-.17.162-.35.349-.349.659l.5-.001c0-.082.028-.139.193-.295zm.429-2.912a.36.36 0 0 0-.188.118.7.7 0 0 0-.092.137 2 2 0 0 0-.132.342c-.08.26-.15.596-.197.937-.048.34-.074.696-.06.994.006.148.023.291.056.414.03.116.086.252.197.344l.318-.385c.01.008-.01-.005-.032-.088a1.5 1.5 0 0 1-.04-.308c-.012-.257.011-.58.056-.902s.11-.632.18-.86a1.6 1.6 0 0 1 .114-.285l.007-.01-.003.004-.012.009a.2.2 0 0 1-.06.026zM9.62 7.22a.4.4 0 0 0-.177.083 1 1 0 0 0-.108.107 3 3 0 0 0-.207.29 8 8 0 0 0-.45.842 8 8 0 0 0-.38.963c-.091.294-.157.6-.125.826l.495-.07c-.015-.106.017-.315.108-.607.086-.28.215-.598.355-.9.141-.303.292-.584.42-.788q.098-.155.164-.23a.4.4 0 0 1 .041-.043c.012-.01-.01.013-.06.02zm-.139-.197-.231.095.002.004.005.014.162.403-.001-.004-.004-.014s-.006-.024-.006-.054h.5c0-.03-.006-.054-.006-.056a.3.3 0 0 0-.017-.054L9.863 7.3l-.143-.354-.005-.014-.002-.003v-.002zm-.752 1.01a.89.89 0 0 1 .438-.624 1.2 1.2 0 0 1 .355-.14H9.52l-.04-.246-.04-.247h-.002l-.05.01q-.046.01-.117.033a1.7 1.7 0 0 0-.361.16 1.39 1.39 0 0 0-.674.964zm-.454-.477-.232.093.001.003.004.01.064.148c.04.089.097.208.157.307l.428-.259a2.6 2.6 0 0 1-.174-.356l-.015-.037-.001-.002zM7.3 8.604a.25.25 0 0 0 .288.137c.046-.012.077-.034.083-.038.02-.014.035-.029.04-.033l.039-.042.092-.11.26-.33.37-.48-.198-.152-.199-.152-.002.003-.006.008a40 40 0 0 1-.36.466 24 24 0 0 1-.334.418l-.012.013.026-.02a.25.25 0 0 1 .365.1zm.065-.76-.24-.068v.002l-.001.002a1 1 0 0 0-.021.099 1.2 1.2 0 0 0-.017.228c.005.17.055.44.304.6l.272-.419c-.043-.028-.073-.086-.076-.194a.7.7 0 0 1 .02-.182zm-.448-.517c.028.186.064.453.259.68l.38-.325c-.09-.104-.114-.227-.145-.431zm-.05-.253c.022.073.034.152.05.253l.494-.076c-.015-.094-.032-.21-.067-.324zm-.77.12c.298.02.597.038.996.056l.024-.5a61 61 0 0 1-.99-.054zM5.11 7.14c.395.018.69.037.988.055l.03-.5a72 72 0 0 0-.994-.055zm.032.271a.25.25 0 0 1 .39-.207.24.24 0 0 1 .071.074L5.6 7.272l-.028-.054a25 25 0 0 1-.216-.418l-.008-.017-.002-.005s-.001-.001-.224.112l-.223.113.001.002.002.005.009.016.264.51.017.025.014.017a.25.25 0 0 0 .436-.167zM3.226 5.153c.148.596.593 1.215 1.015 1.671.214.232.43.432.616.575q.14.11.262.177a.6.6 0 0 0 .278.085l-.01-.5c.037 0 .036.012-.027-.023a2 2 0 0 1-.197-.134 5 5 0 0 1-.555-.519c-.403-.437-.78-.98-.897-1.453zm2.519.609C4.953 5.59 4.27 5.439 3.629 4.9l-.321.383c.749.627 1.548.797 2.33.966zm.033.007-.033-.007-.106.488.033.008zm-.251.631.314-.165-.232-.443-.315.166zm-.32.168.32-.168-.233-.442-.32.167zm4.154-.294a.4.4 0 0 1-.066-.141.4.4 0 0 1 .026-.144.24.24 0 0 1 .078-.09c.026-.018.048-.027.05-.028l.016-.005-.067.013a18 18 0 0 1-1.28.176c-.831.084-1.93.141-3.004.043l-.046.498c1.118.102 2.252.042 3.1-.043a19 19 0 0 0 1.324-.183l.113-.025q.008 0 .03-.01a.26.26 0 0 0 .132-.119.4.4 0 0 0 .025-.144.4.4 0 0 0-.067-.141zm-.868-.715v.25h.004a1 1 0 0 1 .1.007c.068.007.161.022.26.05.203.06.38.165.458.339L9.771 6c-.167-.372-.515-.538-.775-.614a2 2 0 0 0-.499-.077h-.005zm.214.36.035-.335-.498-.05-.034.334zm-.73.378.553-.164-.142-.48-.554.164zm-.751-.134a.25.25 0 0 0 .197.143l.036.004.063.002a7 7 0 0 0 .37-.004h.019l-.006-.25-.006-.25H7.88l-.352.004-.04-.001h.006l.031.007a.24.24 0 0 1 .154.133zm-.367-.67-.005.25H6.85h.005l.032.005a.4.4 0 0 1 .113.04c.074.04.17.12.205.314l.492-.09c-.066-.36-.267-.562-.463-.666a.9.9 0 0 0-.365-.103h-.005zm-1.01.276c.33-.04.628-.077.976-.029l.068-.495c-.42-.058-.779-.013-1.105.027zm-.516.05c.181-.009.354-.03.516-.05l-.061-.497c-.165.02-.32.04-.48.048zM7.62 4.34c-.834.064-1.788.127-2.501 1.08l.4.3c.563-.752 1.289-.816 2.139-.88zm.45-.038q-.22.022-.45.038l.038.5c.152-.013.31-.024.466-.041zm.864-.642c-.224.033-.467.087-.668.212a.89.89 0 0 0-.416.639l.494.079a.39.39 0 0 1 .187-.293c.11-.069.268-.112.476-.143zm2.075.107L10 3.712l-.698-.038-.23-.013-.064-.003-.023-.001-.014.25-.013.249h.006l.017.001.064.004.23.012.698.038 1.037.055zm1.072-.27-.048-.246h-.003l-.037.009a3 3 0 0 0-.434.124 2.4 2.4 0 0 0-.399.181 1.1 1.1 0 0 0-.355.308l.408.29a.7.7 0 0 1 .2-.166c.095-.056.205-.103.314-.142a3 3 0 0 1 .394-.112h.006zm1.155-.426a5 5 0 0 0-.662.033c-.212.026-.43.075-.61.172l.235.441a1.3 1.3 0 0 1 .437-.117c.185-.023.39-.03.6-.03zm-.789 1.674a3.5 3.5 0 0 0 .575-.522c.202-.23.419-.54.462-.87l-.496-.065c-.023.175-.154.392-.341.605a3 3 0 0 1-.484.44zm-.048.277-.035-.073v.011a.4.4 0 0 1 .031-.077c.025-.05.064-.117.123-.212l-.425-.263c-.114.183-.199.333-.222.47-.029.174.046.3.086.377zm.03.058q-.016-.034-.03-.058l-.442.233.027.051zm.237.438-.24-.443-.44.237.24.444zm.808.642c-.131-.408-.537-.625-.95-.76l-.156.475c.396.13.579.28.63.438zm-.737.3a.08.08 0 0 1-.02.056c-.004.004.006-.008.05-.02.086-.027.237-.037.437-.012l.064-.496a1.6 1.6 0 0 0-.645.028c-.17.05-.395.186-.386.461zm.145-.001-.096-.041-.067-.034c-.016-.01-.016-.013-.01-.006a.13.13 0 0 1 .028.076l-.5.03c.011.18.15.281.217.323.079.05.174.088.239.114zm.218.105c-.068-.045-.159-.081-.218-.105l-.19.462a1 1 0 0 1 .134.061zm.46.983a1.4 1.4 0 0 0-.104-.503 1.4 1.4 0 0 0-.316-.448l-.354.354a.9.9 0 0 1 .21.29c.038.09.059.191.064.327zm-.71.103c.103.053.273.147.445.156l.029-.499c-.043-.002-.11-.031-.244-.1zm-.283-.043c.025-.052.042-.062.04-.06-.005.003-.01.002-.001.002a.3.3 0 0 1 .088.026c.046.018.095.044.156.075l.23-.444c-.103-.053-.273-.146-.445-.156a.5.5 0 0 0-.305.08.63.63 0 0 0-.215.265zm.154.314c-.15-.057-.197-.219-.152-.316l-.455-.208c-.17.37.02.837.43.992zm.463 1.383a.25.25 0 0 0 .235-.164c.01-.026.012-.047.013-.053a.3.3 0 0 0 .002-.081 1.7 1.7 0 0 0-.094-.43c-.085-.235-.266-.553-.637-.661l-.14.48c.142.041.242.173.307.351a1.2 1.2 0 0 1 .065.291v.004l.002-.024a.25.25 0 0 1 .247-.213zm-.122-.03.014.006.013.006.037.012c.007.001.029.006.058.006v-.5a.3.3 0 0 1 .098.02h-.003l-.006-.004zm-.43.05c-.01-.136.022-.16.014-.151-.007.007 0-.008.059-.006.128.003.292.076.357.107l.211-.454c-.052-.024-.307-.146-.555-.153a.56.56 0 0 0-.431.158c-.132.137-.17.329-.154.536zm-.132.315c.026-.03.123-.132.132-.282l-.5-.029.007-.03q.005-.014.007-.016l-.006.008-.008.01-.013.015zm-.068.239a.3.3 0 0 1 .01-.156.3.3 0 0 1 .058-.083l-.38-.324c-.035.04-.099.113-.142.222a.8.8 0 0 0-.042.4zm.157 1.04-.002-.01-.006-.024-.017-.081-.04-.25a20 20 0 0 1-.092-.675l-.496.06c.029.242.062.49.093.692.029.19.06.365.085.443zm.676-.376-.966.209.105.489.966-.21zm.99-.214-.99.214.105.489.99-.214zm.188-.971c.026.451-.095.828-.31 1.037l.349.358c.355-.345.491-.888.46-1.424zm-.002-.442c.004.144.008.28.002.416l.5.023c.007-.16.002-.313-.003-.455zm10.872.94c.17-.003.41.071.669.364l.374-.331c-.338-.383-.71-.539-1.05-.534zm-.37.181c.004.021-.007-.016.069-.08.066-.054.17-.1.3-.102l-.007-.5a1 1 0 0 0-.611.217c-.144.119-.274.31-.246.529zm.988-.06c-.006.02-.044.076-.158.136a1.1 1.1 0 0 1-.385.11.7.7 0 0 1-.338-.044c-.065-.032-.097-.073-.106-.142l-.496.064a.67.67 0 0 0 .384.528c.184.09.402.11.6.092.2-.018.404-.076.575-.166.162-.085.334-.223.4-.423z"/></g><path fill="#D21034" stroke="#000" stroke-width="0.25" d="m9.391 4.656-.332.083.308.15c.173.084.327.136.458.141.138.006.263-.04.335-.163.028-.046.067-.141-.001-.225a.2.2 0 0 0-.097-.064.4.4 0 0 0-.097-.015c-.126-.005-.32.03-.574.093Z"/></g></g></g><defs><clipPath id="a"><path fill="#fff" d="M0 0h32v24H0z"/></clipPath></defs></svg>