<svg xmlns="http://www.w3.org/2000/svg" width="32" height="24" fill="none" viewBox="0 0 32 24"><g clip-path="url(#a)"><mask id="b" width="32" height="24" x="0" y="0" maskUnits="userSpaceOnUse" style="mask-type:luminance"><path fill="#fff" d="M32 0H0v24h32z"/></mask><g mask="url(#b)"><path fill="#fff" d="M32 0H0v24h32z"/><path fill="#2E42A5" fill-rule="evenodd" d="M0 0v24h32V0z" clip-rule="evenodd"/><mask id="c" width="32" height="24" x="0" y="0" maskUnits="userSpaceOnUse" style="mask-type:luminance"><path fill="#fff" fill-rule="evenodd" d="M0 0v24h32V0z" clip-rule="evenodd"/></mask><g mask="url(#c)"><path fill="#fff" d="m-3.564 22.285 7.041 2.978L32.158 3.237l3.715-4.425-7.53-.996-11.699 9.492-9.416 6.395z"/><path fill="#F50100" d="m-2.6 24.373 3.588 1.728L34.54-1.598h-5.037z"/><path fill="#fff" d="m35.562 22.285-7.041 2.978L-.161 3.237l-3.714-4.425 7.53-.996 11.698 9.492 9.417 6.395z"/><path fill="#F50100" d="m35.322 23.784-3.587 1.728-14.287-11.86-4.236-1.325L-4.232-1.172H.805l17.434 13.179 4.631 1.589z"/><path fill="#F50100" fill-rule="evenodd" d="M19.778-2h-7.556V8H-1.973v8h14.195v10h7.556V16h14.25V8h-14.25z" clip-rule="evenodd"/><mask id="d" width="37" height="28" x="-2" y="-2" maskUnits="userSpaceOnUse" style="mask-type:luminance"><path fill="#fff" fill-rule="evenodd" d="M19.778-2h-7.556V8H-1.973v8h14.195v10h7.556V16h14.25V8h-14.25z" clip-rule="evenodd"/></mask><g mask="url(#d)"><path fill="#fff" d="M12.222-2v-2h-2v2zm7.556 0h2v-2h-2zM12.222 8v2h2V8zM-1.973 8V6h-2v2zm0 8h-2v2h2zm14.195 0h2v-2h-2zm0 10h-2v2h2zm7.556 0v2h2v-2zm0-10v-2h-2v2zm14.25 0v2h2v-2zm0-8h2V6h-2zm-14.25 0h-2v2h2zm-7.556-8h7.556v-4h-7.556zm2 8V-2h-4V8zm-16.195 2h14.195V6H-1.973zm2 6V8h-4v8zm12.195-2H-1.973v4h14.195zm2 12V16h-4v10zm5.556-2h-7.556v4h7.556zm-2-8v10h4V16zm16.25-2h-14.25v4h14.25zm-2-6v8h4V8zm-12.25 2h14.25V6h-14.25zm-2-12V8h4V-2z"/></g></g></g></g><defs><clipPath id="a"><path fill="#fff" d="M0 0h32v24H0z"/></clipPath></defs></svg>