<svg xmlns="http://www.w3.org/2000/svg" width="32" height="24" fill="none" viewBox="0 0 32 24"><g clip-path="url(#a)"><mask id="b" width="32" height="24" x="0" y="0" maskUnits="userSpaceOnUse" style="mask-type:luminance"><path fill="#fff" d="M32 0H0v24h32z"/></mask><g mask="url(#b)"><path fill="#fff" d="M32 0H0v24h32z"/><path fill="#C51918" fill-rule="evenodd" d="M0 0h32v24H0z" clip-rule="evenodd"/><path fill="#FECA00" fill-rule="evenodd" d="M6 6h20v12H6z" clip-rule="evenodd"/><mask id="c" width="20" height="12" x="6" y="6" maskUnits="userSpaceOnUse" style="mask-type:luminance"><path fill="#fff" fill-rule="evenodd" d="M6 6h20v12H6z" clip-rule="evenodd"/></mask><g fill-rule="evenodd" clip-rule="evenodd" mask="url(#c)"><path fill="#23875F" d="m6 6 10 6-10 6zm20 0-10 6 10 6z"/><path fill="#C51918" d="M16 16a4 4 0 1 0 0-8 4 4 0 0 0 0 8"/><path fill="#FECA00" d="m15.93 13.313-2.072 1.436.662-2.46L13 10.717l2.059-.085.87-2.433.871 2.433h2.055l-1.516 1.657.76 2.315z"/></g><path fill="#FECA00" fill-rule="evenodd" d="m8.777 4.442 1.132-.702 1.185.631-.415-1.13.829-.81h-1.123l-.476-1.189-.476 1.189-1.125.041.83.768zm6 0 1.132-.702 1.185.631-.415-1.13.829-.81h-1.123l-.476-1.189-.476 1.189-1.125.041.83.768zm7.132-.702-1.132.702.361-1.202-.83-.768 1.125-.041.476-1.189.476 1.189h1.123l-.83.81.416 1.13zM8.776 22.167l1.132-.701 1.185.63-.415-1.13.829-.81h-1.123l-.476-1.189-.476 1.189-1.125.042.83.767zm7.132-.701-1.132.701.361-1.202-.83-.767 1.125-.042.476-1.189.476 1.189h1.123l-.83.81.416 1.13zm4.868.701 1.132-.701 1.185.63-.415-1.13.829-.81h-1.123l-.476-1.189-.476 1.189-1.125.042.83.767z" clip-rule="evenodd"/><path fill="#C51918" fill-rule="evenodd" d="M8.635 12.77s.538.48.832.644c.1-.384-.125-1.252-.125-1.252-.063-.208-.758-.58-.758-.58s-.195.655.05 1.189" clip-rule="evenodd"/><path fill="#FECA00" fill-rule="evenodd" d="M9.196 13.93s-1.383-.646-1.524-1.56c-.14-.913.158-2.37.158-2.37s2.246.511 2.399 1.606-.355 1.784-.355 1.784-.52-1.335-1.01-1.484c0 0 0 1.323.332 2.024" clip-rule="evenodd"/></g></g><defs><clipPath id="a"><path fill="#fff" d="M0 0h32v24H0z"/></clipPath></defs></svg>