<svg xmlns="http://www.w3.org/2000/svg" width="32" height="24" fill="none" viewBox="0 0 32 24"><g clip-path="url(#a)"><mask id="b" width="32" height="24" x="0" y="0" maskUnits="userSpaceOnUse" style="mask-type:luminance"><path fill="#fff" d="M32 0H0v24h32z"/></mask><g mask="url(#b)"><path fill="#fff" d="M32 0H0v24h32z"/><path fill="#F7FCFF" fill-rule="evenodd" d="M0 0v24h32V0z" clip-rule="evenodd"/><mask id="c" width="32" height="24" x="0" y="0" maskUnits="userSpaceOnUse" style="mask-type:luminance"><path fill="#fff" fill-rule="evenodd" d="M0 0v24h32V0z" clip-rule="evenodd"/></mask><g fill="#E31D1C" fill-rule="evenodd" clip-rule="evenodd" mask="url(#c)"><path d="M14 0h4v10h14v4H18v10h-4V14H0v-4h14z"/><path d="M9.999 17.222 12.2 17v2s-2.2-.138-2.2-.098.2 2.098.2 2.098h-2l.16-2H6.2v-2l2.16.222L8.2 15h2zm0-12L12.2 5v2S10 6.862 10 6.902 10.2 9 10.2 9h-2l.16-2H6.2V5l2.16.222L8.2 3h2zm14 0L26.2 5v2S24 6.862 24 6.902 24.2 9 24.2 9h-2l.16-2H20.2V5l2.16.222L22.2 3h2zm0 12L26.2 17v2s-2.2-.138-2.2-.098.2 2.098.2 2.098h-2l.16-2H20.2v-2l2.16.222L22.2 15h2z"/></g></g></g><defs><clipPath id="a"><path fill="#fff" d="M0 0h32v24H0z"/></clipPath></defs></svg>