<svg xmlns="http://www.w3.org/2000/svg" width="32" height="24" fill="none" viewBox="0 0 32 24"><g clip-path="url(#a)"><mask id="b" width="32" height="24" x="0" y="0" maskUnits="userSpaceOnUse" style="mask-type:luminance"><path fill="#fff" d="M32 0H0v24h32z"/></mask><g mask="url(#b)"><path fill="#fff" d="M32 0H0v24h32z"/><path fill="#5EAA22" d="M30 0H2a2 2 0 0 0-2 2v20a2 2 0 0 0 2 2h28a2 2 0 0 0 2-2V2a2 2 0 0 0-2-2"/><path fill="#FECA00" fill-rule="evenodd" d="m0 0 32 24H0z" clip-rule="evenodd"/><path fill="#E21835" fill-rule="evenodd" d="m15.93 14.407-3.485 2.418 1.114-4.141L11 10.039l3.465-.143L15.93 5.8l1.466 4.095h3.458l-2.553 2.788 1.279 3.896z" clip-rule="evenodd"/></g></g><defs><clipPath id="a"><path fill="#fff" d="M0 0h32v24H0z"/></clipPath></defs></svg>