<svg xmlns="http://www.w3.org/2000/svg" width="32" height="24" fill="none" viewBox="0 0 32 24"><g clip-path="url(#a)"><mask id="b" width="32" height="24" x="0" y="0" maskUnits="userSpaceOnUse" style="mask-type:luminance"><path fill="#fff" d="M32 0H0v24h32z"/></mask><g mask="url(#b)"><path fill="#fff" d="M32 0H0v24h32z"/><path fill="#F7FCFF" d="M32 0H0v24h32z"/><path fill="#C51918" fill-rule="evenodd" d="M0 16h32v8H0z" clip-rule="evenodd"/><path fill="#DB000B" fill-rule="evenodd" d="M17.389 5H13.61v4.615h-.944V6.846H8.889v2.77H7v.923h.944v4.615H7v.923h17v-.923h-.944v-4.615H24v-.924h-1.889V6.846h-3.778v2.77h-.944z" clip-rule="evenodd"/><path fill="#272727" d="M9.833 8.59a.82.82 0 1 1 1.64 0V9.8h-1.64zm9.444 0a.82.82 0 1 1 1.64 0V9.8h-1.64z"/><path fill="#272727" fill-rule="evenodd" d="M9.567 13.469a1.086 1.086 0 0 1 2.173 0v1.868H9.567z" clip-rule="evenodd"/><path fill="#272727" d="M19.012 13.469a1.086 1.086 0 0 1 2.172 0v1.868h-2.172z"/><path fill="#272727" fill-rule="evenodd" d="M13.895 13.638a1.392 1.392 0 0 1 2.783 0v2.67h-2.783z" clip-rule="evenodd"/><path fill="#272727" d="M14.556 7.668a.82.82 0 1 1 1.64 0v2.134h-1.64z"/><path fill="#DE1A23" d="M7.944 8.691H7v.923h.944z"/><path fill="#DE1A23" fill-rule="evenodd" d="M8.5 6h1v1h-1zm3.818 0h1v1h-1zm-.568 0h-1.5v1h1.5zm6.34 0h1v1h-1zm3.728 0h1v1h-1zm-.614 0h-1.5v1h1.5zM13.8 4.023h-1v1h1zm1.5 0h-1v1h1zm.5 0h1v1h-1zm2.5 0h-1v1h1z" clip-rule="evenodd"/><path fill="#DE1A23" d="M23.999 8.773h-1v.84h1z"/><path fill="#E8AA00" fill-rule="evenodd" d="m15.44 18.452 2.712-1.774-2.894-1.354-2.895 1.664zm-1.06-1.612.887-.595.938.511-.843.551zm-.904 4.168h1.473v1.107-.374h-.915v.374h-.558z" clip-rule="evenodd"/><path fill="#E8AA00" fill-rule="evenodd" d="M14.815 18.113h1.251v4h-1.25z" clip-rule="evenodd"/></g></g><defs><clipPath id="a"><path fill="#fff" d="M0 0h32v24H0z"/></clipPath></defs></svg>