<svg xmlns="http://www.w3.org/2000/svg" width="32" height="24" fill="none" viewBox="0 0 32 24"><g clip-path="url(#a)"><mask id="b" width="32" height="24" x="0" y="0" maskUnits="userSpaceOnUse" style="mask-type:luminance"><path fill="#fff" d="M32 0H0v24h32z"/></mask><g mask="url(#b)"><path fill="#fff" d="M32 0H0v24h32z"/><path fill="#F7FCFF" fill-rule="evenodd" d="M0 0v24h32V0z" clip-rule="evenodd"/><mask id="c" width="32" height="24" x="0" y="0" maskUnits="userSpaceOnUse" style="mask-type:luminance"><path fill="#fff" fill-rule="evenodd" d="M0 0v24h32V0z" clip-rule="evenodd"/></mask><g fill-rule="evenodd" clip-rule="evenodd" mask="url(#c)"><path fill="#009D00" d="M0 0v8h32V0z"/><path fill="#fff" d="M0 8v8h32V8z"/><path fill="#F80000" d="M0 16v8h32v-8z"/></g><path fill="#0075D5" fill-rule="evenodd" d="M0 0v24l8-11.848z" clip-rule="evenodd"/><path fill="#FFD500" stroke="#000" stroke-width="0.05" d="m14.57 8.884-.013.003-.01-.009-.206-.19-.026.28-.002.013-.01.006-.246.138.258.11.012.006.003.013.055.276.185-.212.009-.01.013.002.28.033-.144-.242-.007-.011.005-.012.118-.256zm1 0-.013.003-.01-.009-.206-.19-.026.28-.002.013-.01.006-.246.138.258.11.012.006.003.013.055.276.185-.212.009-.01.013.002.28.033-.144-.242-.007-.011.005-.012.118-.256zm1 0-.013.003-.01-.009-.206-.19-.026.28-.002.013-.01.006-.246.138.258.11.012.006.003.013.055.276.185-.212.009-.01.013.002.28.033-.144-.242-.007-.011.005-.012.118-.256zm1 0-.013.003-.01-.009-.206-.19-.026.28-.002.013-.01.006-.246.138.258.11.012.006.003.013.055.276.185-.212.009-.01.013.002.28.033-.144-.242-.007-.011.005-.012.118-.256zm1 0-.013.003-.01-.009-.206-.19-.026.28-.002.013-.01.006-.246.138.258.11.012.006.003.013.055.276.185-.212.009-.01.013.002.28.033-.144-.242-.007-.011.005-.012.118-.256zm1 0-.013.003-.01-.009-.206-.19-.026.28-.002.013-.01.006-.246.138.258.11.012.006.003.013.055.276.185-.212.009-.01.013.002.28.033-.144-.242-.007-.011.005-.012.118-.256z"/><path stroke="#373737" stroke-width="0.1" d="M15.05 10.05h3.9V13a1.95 1.95 0 1 1-3.9 0z"/><path fill="#6F3E1D" fill-rule="evenodd" d="M16.727 11.96s-.201 2.366-.403 2.51c-.201.143.965.214 1.076.107s-.508-2.035-.295-2.616.557-.628.557-.628-.433-.092-.557.082c-.124.175-.493-.082-.493-.082z" clip-rule="evenodd"/><path fill="#009D29" fill-rule="evenodd" d="M16.682 11.827h-.155s-.105.41-.346.205-.581-.133-.581-.133.03-.245.4-.343.527-.891.527-.891.523-.195.842.204c.318.4.767.23.767.23s.328.186.164.457-.444.47-.687.271-.931 0-.931 0" clip-rule="evenodd"/></g></g><defs><clipPath id="a"><path fill="#fff" d="M0 0h32v24H0z"/></clipPath></defs></svg>