<svg xmlns="http://www.w3.org/2000/svg" width="32" height="24" fill="none" viewBox="0 0 32 24"><g clip-path="url(#a)"><mask id="b" width="32" height="24" x="0" y="0" maskUnits="userSpaceOnUse" style="mask-type:luminance"><path fill="#fff" d="M32 0H0v24h32z"/></mask><g mask="url(#b)"><path fill="#fff" d="M32 0H0v24h32z"/><path fill="#F7FCFF" fill-rule="evenodd" d="M0 0h32v24H0z" clip-rule="evenodd"/><path fill="#4564F9" fill-rule="evenodd" d="M0 5.5h32v2.957H0zm0 5.315h32v2.957H0zm32 5.128H0V18.9h32zM0 0h32v3H0z" clip-rule="evenodd"/><path fill="#4564F9" d="M32 21H0v3h32z"/><path fill="#4564F9" fill-rule="evenodd" d="M0 0h15v13.8H0z" clip-rule="evenodd"/><path fill="#F7FCFF" fill-rule="evenodd" d="M6 0h3v5.504h6v2.935H9V14.5H6V8.439H0V5.504h6z" clip-rule="evenodd"/></g></g><defs><clipPath id="a"><path fill="#fff" d="M0 0h32v24H0z"/></clipPath></defs></svg>