<svg xmlns="http://www.w3.org/2000/svg" width="32" height="24" fill="none" viewBox="0 0 32 24"><g clip-path="url(#a)"><mask id="b" width="32" height="24" x="0" y="0" maskUnits="userSpaceOnUse" style="mask-type:luminance"><path fill="#fff" d="M32 0H0v24h32z"/></mask><g mask="url(#b)"><path fill="#fff" d="M32 0H0v24h32z"/><path fill="#2B409A" fill-rule="evenodd" d="M0 .102h32v24H0z" clip-rule="evenodd"/><mask id="c" width="18" height="14" x="0" y="0" maskUnits="userSpaceOnUse" style="mask-type:luminance"><path fill="#fff" d="M18 0H0v14h18z"/></mask><g mask="url(#c)"><path fill="#2E42A5" d="M18 0H0v14h18z"/><path fill="#F7FCFF" d="m-2.006 13 3.961 1.737L18.088 1.889l2.09-2.582-4.236-.58-6.58 5.536-5.297 3.73z"/><path fill="#F50100" d="m-1.463 14.216 2.018 1.008L19.428-.934h-2.833z"/><path fill="#F7FCFF" d="m20.004 13-3.961 1.737L-.09 1.889-2.18-.693l4.236-.58 6.58 5.536 5.297 3.73z"/><path fill="#F50100" d="m19.869 13.874-2.018 1.008-8.037-6.918-2.382-.773-9.813-7.875H.453l9.807 7.688 2.605.927z"/><path fill="#F50100" fill-rule="evenodd" d="M9.985 0h-2v6H0v2h7.985v6h2V8H18V6H9.985z" clip-rule="evenodd"/><path fill="#F7FCFF" fill-rule="evenodd" d="M6.485 0h5v4.5H18v5h-6.515L11.5 14h-5l-.015-4.5H0v-5h6.485zm1.5 6H0v2h7.985v6h2V8H18V6H9.985V0h-2z" clip-rule="evenodd"/></g><path fill="#6A4C2D" d="M24.318 18.551c-.062 0-.285-.12-.285-.12s-.161.256-.246.27-.523-.157-.523-.157-.307.24-.377.225l-.776-.165-.385-.24s-.215.345-.223.337c-.007-.007-.645-.127-.645-.127s.192-.263.192-.27-.093-.038-.093-.038l-.138.112-.569.053.138-.39.223-.331 2.73-2.593 1.346 2.427-.2.73s-.108.277-.17.277"/><path stroke="#FB0" stroke-linecap="round" stroke-linejoin="round" stroke-width="0.5" d="M21.71 18.063c.095.114 1.347 1.395 1.55 2 .203.606-1.647-.168-1.647-.168s2.33-1.513 3.494-1.513c1.163 0 3.45 1.513 3.45 1.513s-1.534 1.081-1.519.4c.016-.682.72-2.024 1.562-2.233"/><path fill="#F7FCFF" d="m29.542 18.16-.382-.142-.34-.449-1.402-.103-1.28-.349-.538.36.29.38.71.26z"/><path fill="#656263" d="M23.939 9.868c.013.033.3-.025.36.146.308-.455.67-.021.67-.021l.303-.36.344.325.314-.025.33.773-2.598-.049s.264-.822.277-.79m2.693 3.285c-.02-.245-.238-.273-.359-.265-.12.008-.23.11-.23.11l-.4-.249s.2-1.235.413-1.313c.202-.142.238-.204.238-.236a.8.8 0 0 0-.075-.165l-1.306-.151-1.236.143s-.095.193-.083.25c.013.057.017.118.238.286.245.184.413 1.24.413 1.24s-.346.166-.367.146c-.02-.02-.125-.04-.18-.032a.33.33 0 0 0-.233.33c0 .232.18.367.18.367s1.18.865 1.356 1.183c.17-.383 1.293-1.248 1.427-1.314.054-.032.225-.085.204-.33"/><path fill="#000" d="M27.81 12.002c.099-.064.752-.096.91 0 .156.096.215.568.215.568s.098.166.105.288.02.204.02.204.522.665.529 1.265c.058.409.045 1.5-.118 1.916-.007.517-.229.856-.229.856s.052.089.046.185a.5.5 0 0 1-.059.185l-.49.21-.542-.089-.615-1.794.144-3.034.04-.153-.066-.409s.013-.134.11-.198"/><path fill="#F7FCFF" d="M24.263 13.595s.66 0 .732.21c.125-.28.697-.262.697-.262l1.037-.035.018 2.445c-.203.948-.906 1.618-1.68 1.903-.924-.29-1.507-1.053-1.698-1.92l-.107-2.323z"/><path fill="#006B00" d="m23.617 13.602 1.458 3.797 1.317-3.88c-.409.026-1.285-.062-1.394.302-.168-.326-1.09-.195-1.38-.219"/><path fill="#FFD100" fill-rule="evenodd" d="M25.308 14.198s.133.345 0 .517c-.132.17.011.311.091.311s.355.272.132.272-.348-.085-.348.155c0 .238.307 1.315.216 1.573-.09.258-.068.455.062.39.13-.066.213-.235.141-.56-.071-.324-.14-.247-.14-.528 0-.28.069-.593.069-.593s.117.088.034.408.103.762.103.883c0 .12.006.45-.066.483-.071.033-.136.233-.203.08-.066-.152-.108-.403-.193-.23s-.069.57-.157.59c-.088.018-.22.206-.22.13s-.125-.211-.087-.338c.037-.127.07-.142.102-.02.03.121.16.12.16.02s-.046-.052 0-.28c.045-.23.095-.533 0-.514-.096.018-.243.167-.262-.108s-.099-.404-.035-.457c.063-.054.147-.245.174-.095s-.092.294-.072.349.03.177.112.074c.083-.103.131-.273.193-.115.061.157.063.033-.065-.267s-.236-.466-.22-.729-.006-.361.015-.446-.229-.496-.166-.615c.064-.118.088-.501.166-.432.077.069.117.161.077.264s-.08.206-.04.275.178.27.205.22c.028-.05.12-.002.12-.288 0-.285-.103-.386-.038-.454.065-.067.14.075.14.075" clip-rule="evenodd"/><path fill="#1E5AA6" d="m26.402 13.52.196-.004-.35.434.42.48-.828 1.02.782.92a2.4 2.4 0 0 1-.319.563l-.45-.485.815-.993-.669-.74zm-3.022.09.394.416-.417.508.866.92-.716.937c.086.206.21.435.342.604l.426-.526-.875-.951.64-.796-.449-1.117z"/><path fill="#1E5AA6" d="m24.567 16.08-.31.402 1.105 1.249c.195-.096.349-.206.516-.339l-.576-.65.234-.672.337.38-1.053 1.313a2.3 2.3 0 0 1-.548-.33l.557-.69z"/><path fill="url(#d)" d="M28.385 12.851c0 .064.069 3.832.145 3.797.19-.09.233.105.233.105s.066.62-.098.703a2.4 2.4 0 0 1-.422.187l-.283-.206s-.288-.402-.353-.581c-.066-.179-.144-.977-.118-1.15s.046-1.182.033-1.232c-.013-.052-.066-.895-.033-1.022.033-.128.235-.69.229-.69 0 0 .666.025.666.09"/><path fill="#FF7000" d="M27.732 12.207c.137 0 .242.115.274.217.007.045-.013.077-.006.16s-.994.02-1 .013c0 0 .464-.44.732-.39"/><path fill="#fff" stroke="#000" stroke-linejoin="round" stroke-width="0.5" d="M28.83 17.666s.314-.07.399-.18c.052-.038.327.403-.399.18Z"/><path fill="#000" d="M28.309 12.46a.05.05 0 1 1-.1 0 .05.05 0 0 1 .1 0"/><path fill="#F7FCFF" d="M25.82 11.91s.521.55.858.545c.061.161-.153.312-.239.383-.171-.053-.326.01-.724-.468.024-.306.112-.448.106-.46m2.069-2.773c.05.353-.002.435-.025.583s.904.203 1.143-.09c-.024.131-.303.668-1.564.662.478.443-.153.796-.423.688.496-.371-.14-.593-.496-.353.068-.204.564-1.227 1.366-1.49"/><path fill="#00F" fill-rule="evenodd" d="M27.05 11.615c-.095-.39-.141-.836.068-1.007-.276-.185-.575.006-.575.006q-.004.008-.016.024c-.064.088-.279.385.015.917-.783-.204-.455.508-.398.561.031-.114.447-.221.552.36.035.117-.176.287-.244.341q-.023.018-.02.018s.663.134.75-.742c.113-.068.663-.435.646-1.191-.505.01-.729.567-.779.713" clip-rule="evenodd"/><path fill="#F7FCFF" d="M24.088 12.063s-.509.43-.796.293c-.215.125-.466-.096-.466-.096s.294 1.059 1.348.293a2.4 2.4 0 0 0-.086-.49"/><path fill="#00F" d="M23.286 12.34c.043-.221.22-.329.361-.12.19.037.38-.723-.294-.598.19-.993-.38-1.364-.38-1.364s-.201 1.1-.11 1.304-.134-.377-.863-.538c-.012.832.815 1.22.815 1.22s.232.21.471.096"/><path fill="#F7FCFF" d="M22.597 11.139c-.214.065-.735-.249-.405-.656-1.084-.024-1.674-.94-1.312-.765.36.175.619-.197.889 0-.331-.299.115-.538.115-.538s.925.27 1.09 1.07c-.055.157-.08.432-.092.42 0-.006-.573-.01-.285.469"/><path fill="#CDAD56" d="M24.327 7.433c.004-.028.697-.266.744-.659.046-.393-.01-.128-.01-.128s.192-.178.122-.274-.047.123-.159.118c-.112-.004-.051-.237-.051-.237s-.01-.028-.043-.042c-.046.005-.154-.096-.154-.096s-.07-.091-.131.197c.032.307.234.247.234.448 0 .202-.178.357-.23.362-.05.004-.032-.17-.032-.17s-.028-.082-.047-.082.103-.018.084-.247c-.042-.274-.075.064-.15.05s-.018-.251.01-.279c.028-.027-.033-.141-.197.151-.014.142-.033-.036-.066-.027-.056.114-.046.197.033.302.117.105.192.21.188.265s-.066.179-.15.179.005-.151 0-.202c-.005-.05-.145-.233-.145-.233s-.099-.156-.09-.16-.224.224-.084.343c-.107-.014-.116.027-.116.027 0 .055.145.078.163.174.02.096-.15.151-.15.151s.071.096.267-.091c.005.119-.074.201-.074.201.065.029.116.026.126.1 0 0 .103-.114.107-.141m-.75.14s-.087-.127-.091-.152-.43.032-.633-.476c-.13-.242 0-.1 0-.1l.008-.117s-.14-.167-.08-.254.035.112.112.113c.096-.004.044-.217.044-.217s.008-.025.036-.037c.04.004.056.13.091.138.036.008.11-.148.133-.18.033-.004.032-.129.084.134-.028.278-.264.224-.264.407 0 .184.15.325.194.33.044.003.028-.155.028-.155s.024-.075.04-.075-.14.03-.123-.179c.036-.195.115.013.178 0 .064-.012-.007-.206.011-.235.005-.03.098-.157.135.123.012.13.084-.11.111-.102.048.104-.02.243-.088.338-.1.096-.145.201-.14.251.003.05.027.112.099.112.071 0 .024-.087.028-.133.003-.046.123-.194.123-.194.023-.036.004-.105.028-.136.04 0 .055-.053.095.093s.088-.096.088-.096.055.18-.064.287c.091-.012.1.025.1.025 0 .05-.044.071-.06.159a.15.15 0 0 0 .047.137s-.06.087-.226-.083a.28.28 0 0 0 .063.183c-.055.026-.099.023-.107.091"/><path fill="#923F00" d="M24.675 7.476c-.103.299-.472.186-.472.186s.012.15-.024.22c.03.023.248.191.477.234.33.063 1.004-.108 1.23.144.227.252.216.455.216.455s-.295.033-.213.137c.053.068.2.118.213.187.04.222-.139.621-.074.77-.102.01-.11.114-.11.114-.006.119-.3.048-.3.048s.183-.46.196-.568c.012-.108-.13-.3-.24-.3s-.19.342-.19.342-.054.257-.036.28c.019.025-.073-.083-.073-.083s-.03.105-.077.168c-.053.07-.125.101-.125.101s-.056-.155-.037-.215c.018-.06.3-.293.276-.46-.011-.075-.021-.204-.114-.246-.117-.055-.332-.015-.462-.042-.072.122-.104.79-.055.832s-.123.131-.123.131l-.202.006c-.003-.09.12-.338.12-.547s.015-.434.015-.434-.136.034-.208.168c-.061.111-.061.323-.056.353.013.065.074.251.056.305-.019.054-.337.126-.337.126l-.013-.174s.135-.084.135-.293c0-.21.012-.509.006-.527-.003-.01-.11-.469-.25-.778-.094-.206-.238-.3-.246-.317-.018-.042-.018-.09-.018-.09s-.202.144-.44-.161c.218-.183.452-.048.452-.048s.062-.168.343-.156.337.168.325.15c0 0 .208-.18.434-.018"/><path fill="#00F" d="M25.781 10.59c.005 0 .52.015.525.284s-.158.2-.163.2l-.377-.046z"/><path fill="#F7FCFF" d="M25.281 10.512s.643-.005.607.269-.199.22-.199.22l-.31-.026z"/><path fill="#00F" d="m24.92 10.484.371.03s.225.03.215.24c-.01.209-.23.214-.23.214l-.362-.02z"/><path fill="#F7FCFF" d="M24.047 10.59c-.005 0-.52.015-.525.284s.158.2.163.2l.378-.046z"/><path fill="#00F" d="M24.548 10.512s-.643-.005-.607.269.199.22.199.22l.31-.026z"/><path fill="#F7FCFF" d="m24.91 10.484-.373.03s-.225.03-.214.24c.01.209.229.214.229.214l.362-.02z"/><path fill="#5E0043" d="M26.287 13.163c.098.032.023.33-.024.358l-.357-.014s.268-.385.38-.344m-2.216.415c-.084-.115-.206-.431-.318-.344-.1.032-.024.33.023.358z"/><path fill="#B4B6B9" d="m23.628 11.365 1.289.824 1.16-.762s.242-.13.221-.224c-.02-.095-.104-.058-.146-.041-.042.016-1.214.827-1.214.827l-1.248-.77s-.092-.029-.109.028c-.016.057.035.09.047.118"/><path fill="#FF7000" d="M27.948 17.426s-.564.17-.407.175c.116.003.676 0 .676 0zm.227.188-.5.014s-.126.112-.134.139c-.007.027.083.034.083.034s.516.131.906.046c.197-.067.232-.148.094-.197s-.445-.034-.449-.036"/><path fill="#8A9396" d="M22.391 12.988s-.065.2 0 .3c.066.1.475.91.475.91s.279-.337.381-.346.056.873.056.873-.167.154-.27.145c-.102-.01.251.346.242.646s-.465 1.79-.633 1.817c-.167.028-.311-.28-.311-.547 0-.266.172-.689.163-.807-.01-.118-.832 1.267-.882 1.483-.01.041.045.19.045.19s-.323.026-.252.436c-.948-.328-1.414-.89-1.404-1.463.003-.22-.206-.736 0-1.306.331-.918 1.138-1.966 1.144-2.067.01-.164.074-.236.084-.327.009-.091-.028-.555.065-.636.093-.082.576-.282.697-.273s.224.09.224.09.455 0 .483.173-.093.237-.093.237.065.245-.214.472"/><path fill="#2B2B2B" d="M22.663 18.144c.153.106.508.17.508.17s-.872.234-1.758-.222c-.08-.355.19-.434.258-.437.156-.04.838.382.992.489"/><path fill="#00713D" d="M23.73 18.11c.953.504 1.056.164 1.713-.315.046-.034.262.77 1.184.314 1.303-.644-1.118-1.718-1.46-1.695-.342.024-2.392 1.191-1.437 1.695"/></g></g><defs><linearGradient id="d" x1="28.2744" x2="29.017" y1="15.6073" y2="15.5992" gradientUnits="userSpaceOnUse"><stop stop-color="#D5DFFF"/><stop offset="1" stop-color="#fff"/></linearGradient><clipPath id="a"><path fill="#fff" d="M0 0h32v24H0z"/></clipPath></defs></svg>