<svg xmlns="http://www.w3.org/2000/svg" width="32" height="24" fill="none" viewBox="0 0 32 24"><g clip-path="url(#a)"><mask id="b" width="32" height="24" x="0" y="0" maskUnits="userSpaceOnUse" style="mask-type:luminance"><path fill="#fff" d="M32 0H0v24h32z"/></mask><g mask="url(#b)"><path fill="#fff" d="M32 0H0v24h32z"/><path fill="#58A5FF" fill-rule="evenodd" d="M22 0h10v24H22zM0 0h12v24H0z" clip-rule="evenodd"/><path fill="#fff" fill-rule="evenodd" d="M10 0h12v24H10z" clip-rule="evenodd"/><path fill="#6C301F" fill-rule="evenodd" d="m11.769 15.719.521.683 2.37-3.212v-.569z" clip-rule="evenodd"/><path fill="#979797" d="m13.404 12.137.174-.239c2.243 1.688 3.833 2.983 4.722 4.062l-.555.457c-.845-1.026-2.139-2.624-4.34-4.28m3.615-1.412-.257-.25 1.414-1.46.31.302 1.47-1.368.244.263-1.719 1.601-.297-.289z"/><path fill="#5AB92D" fill-rule="evenodd" d="M12.505 8.445c-.075-.329-.16-.734-.16-.734q-.287.648-.173 1.177-.121.165-.22.311c-.203-.269-.457-.772-.457-.772.009.146.005.296 0 .441-.008.341-.017.658.143.857l-.002.004a5 5 0 0 0-.09.197c-.221-.22-.588-.617-.588-.617.03.476.16.851.4 1.119q-.065.21-.107.416l-.364-.38c.026.434.099.72.288.961a4 4 0 0 0-.006.205c-.196-.201-.395-.412-.395-.412.028.458.207.76.442 1.011q.035.218.096.43l.021.075a47 47 0 0 1-.557-.274c.174.4.427.62.716.775q.091.27.195.52a44 44 0 0 1-.779-.224c.277.418.616.585.98.68q.112.234.232.446a46 46 0 0 1-.643-.187c.269.406.596.575.949.672.232.33.481.602.741.806-.286.13-.647.285-.647.285.408.121.733.075 1.03-.04l.035.017q.191.093.433.176c-.235.105-.458.201-.458.201.397.118.717.077 1.008-.032l.032.009c.143.038.288.076.48.123l.436.108c.304.078.478.132.56.179l.018.01.004.002.233-.169a.34.34 0 0 0-.113-.094c-.114-.064-.3-.122-.63-.206l-.446-.11a20 20 0 0 1-.588-.155 1.5 1.5 0 0 0-.213-.976s-.091.552-.153.864a4 4 0 0 1-.48-.189 2 2 0 0 1-.137-.074 1.5 1.5 0 0 0-.381-.94s.004.351.002.655a3.8 3.8 0 0 1-.547-.639l.122.065c.014-.39-.046-.773-.383-1.166 0 0 .004.38.002.69a7 7 0 0 1-.313-.617 1.5 1.5 0 0 0-.034-1.023s-.088.25-.18.504l-.08-.22c.189-.316.31-.666.22-1.15 0 0-.214.382-.378.659l-.033-.114a4 4 0 0 1-.083-.367c.269-.228.486-.512.563-.975 0 0-.36.309-.61.513a4 4 0 0 1 .004-.31 1.53 1.53 0 0 0 .689-.842s-.355.21-.631.366q.03-.156.073-.316v.01c.344-.182.646-.426.818-.914 0 0-.356.211-.633.368q.054-.13.117-.26a4 4 0 0 1 .213-.368c.307-.097.593-.266.836-.62 0 0-.246.069-.5.137q.22-.302.519-.674l-.225-.18q-.123.154-.233.296" clip-rule="evenodd"/><path fill="#5AB92D" fill-rule="evenodd" d="M19.634 8.445c.076-.329.16-.734.16-.734q.287.648.174 1.177.12.165.219.311c.203-.269.457-.772.457-.772a5 5 0 0 0 0 .441c.009.341.017.658-.143.857l.002.004q.048.1.09.197c.222-.22.588-.617.588-.617q-.042.715-.4 1.119.066.21.108.416c.185-.192.363-.38.363-.38-.026.434-.099.72-.287.961q.005.104.006.205c.195-.201.394-.412.394-.412-.028.458-.206.76-.442 1.011a4 4 0 0 1-.095.43l-.022.075c.266-.128.557-.274.557-.274-.173.4-.427.62-.715.775q-.093.27-.195.52c.312-.085.778-.224.778-.224-.276.418-.616.585-.98.68a7 7 0 0 1-.232.446c.296-.083.643-.187.643-.187-.268.406-.596.575-.948.672-.233.33-.482.602-.742.806.287.13.647.285.647.285a1.5 1.5 0 0 1-1.03-.04l-.034.017q-.191.093-.434.176c.235.105.459.201.459.201a1.5 1.5 0 0 1-1.009-.032l-.032.009c-.143.038-.288.076-.48.123l-.436.108c-.304.078-.477.132-.56.179l-.017.01-.005.002-.232-.169a.34.34 0 0 1 .113-.094c.114-.064.299-.122.63-.206l.445-.11a20 20 0 0 0 .588-.155 1.5 1.5 0 0 1 .214-.976s.09.552.152.864q.275-.09.48-.189.069-.033.138-.074a1.5 1.5 0 0 1 .38-.94s-.003.351-.002.655a3.8 3.8 0 0 0 .548-.639l-.123.065c-.013-.39.047-.773.384-1.166 0 0-.005.38-.003.69q.164-.285.314-.617a1.5 1.5 0 0 1 .033-1.023s.088.25.18.504q.041-.108.08-.22c-.189-.316-.31-.666-.22-1.15 0 0 .215.382.378.659l.033-.114q.051-.182.083-.367a1.53 1.53 0 0 1-.563-.975s.36.309.61.513a4 4 0 0 0-.004-.31 1.53 1.53 0 0 1-.688-.842s.354.21.63.366a4 4 0 0 0-.072-.316v.01c-.344-.182-.646-.426-.819-.914 0 0 .356.211.633.368a3.6 3.6 0 0 0-.33-.628 1.5 1.5 0 0 1-.835-.62s.245.069.5.137q-.222-.302-.52-.674l.225-.18q.123.154.233.296" clip-rule="evenodd"/><path fill="#EFE298" fill-rule="evenodd" d="m13.417 9.323 1.207 3.2h-.887s-.32 1.009.284 1.009h3.714s.404-.253.202-1.01c-.202-.756-1.224-2.844-1.224-2.844s.437-.347.437-.604-.437-.285-.437-.285h-2.756c-.351.057-.54.534-.54.534" clip-rule="evenodd"/><path stroke="#B47D00" stroke-width="0.5" d="m14.444 10.5 1.875-.117m-1.419 1.14 1.875-.117m-1.518 1.136 1.875-.116"/><path fill="#5AB92D" fill-rule="evenodd" d="M15.88 7.586s-.288.059-.288.241-.078.338-.078.338.088.832.746 1.025c.659.193 1.044.24 1.322.627.277.387 1.127 1.48.786 2.423s-.609 1.424-.609 1.424 1.244-1.171 1.244-1.726c0-.556-.184-1.094-.735-1.8-.55-.704-.807-1.117-1.218-1.434-.41-.318-.998-.611-.998-.611s.21-.224.105-.33a1 1 0 0 0-.277-.177" clip-rule="evenodd"/></g></g><defs><clipPath id="a"><path fill="#fff" d="M0 0h32v24H0z"/></clipPath></defs></svg>