<svg xmlns="http://www.w3.org/2000/svg" width="32" height="24" fill="none" viewBox="0 0 32 24"><g clip-path="url(#a)"><mask id="b" width="32" height="24" x="0" y="0" maskUnits="userSpaceOnUse" style="mask-type:luminance"><path fill="#fff" d="M32 0H0v24h32z"/></mask><g mask="url(#b)"><path fill="#fff" d="M32 0H0v24h32z"/><path fill="#C51918" fill-rule="evenodd" d="M0 0h32v24H0z" clip-rule="evenodd"/><path fill="#4564F9" fill-rule="evenodd" d="M4 4h24v16H4z" clip-rule="evenodd"/><path stroke="#CBDAFF" stroke-opacity="0.1" stroke-width="2" d="M5 5h22v14H5z"/><mask id="c" width="24" height="16" x="4" y="4" maskUnits="userSpaceOnUse" style="mask-type:luminance"><path fill="#fff" fill-rule="evenodd" d="M4 4h24v16H4z" clip-rule="evenodd"/><path stroke="#fff" stroke-width="2" d="M5 5h22v14H5z"/></mask><g mask="url(#c)"><path stroke="#C1C9F1" stroke-opacity="0.1182" stroke-width="2.9" d="m16.5 5.001.607-1.317M16.5 5.001l-.63-1.306m.63 1.306.607-1.317M16.5 5.001l-.63-1.306m1.237-.01-.621-.287-.616.297m1.237-.01h.001l.003.001.006.003.019.009a6 6 0 0 1 .265.132 15.3 15.3 0 0 1 2.785 1.858c1.48 1.25 3.264 3.307 3.264 6.066 0 2.732-1.755 4.906-3.21 6.266a17.2 17.2 0 0 1-3.013 2.236l-.018.01-.006.004h-.002l-.001.001M15.87 3.695l-.002.001-.002.001-.006.003-.018.01-.06.029q-.075.037-.203.106a16 16 0 0 0-2.772 1.893C11.343 6.99 9.55 9.048 9.55 11.754c0 2.677 1.762 4.853 3.204 6.216a18 18 0 0 0 2.94 2.24l.059.034.017.01.006.004.002.001h.001m1.42.012-.7-1.27m.7 1.27-.7-1.27m.7 1.27-.713.393-.707-.404M16.5 19l-.72 1.259M16.5 19l-.72 1.259"/><path fill="#CCE0E5" d="m16.4 6.038.687-1.278-.703-.377-.695.39zm0 0c.687-1.278.687-1.277.688-1.277l.003.002.006.003.015.008a5 5 0 0 1 .208.12 11.7 11.7 0 0 1 2.098 1.633c1.124 1.107 2.432 2.89 2.432 5.241 0 2.327-1.286 4.205-2.381 5.399a13.4 13.4 0 0 1-2.06 1.818l-.201.138-.015.01-.005.003-.002.001-.001.001-.785-1.22m0-11.88a206 206 0 0 0-.712-1.264l-.003.002-.005.003-.016.01a5 5 0 0 0-.204.122 12.3 12.3 0 0 0-2.084 1.66c-1.11 1.108-2.426 2.891-2.426 5.197 0 2.282 1.293 4.16 2.376 5.355a14 14 0 0 0 2.2 1.954l.046.032.015.01.005.003.002.002.806-1.205m0 0 .785 1.219-.8.514-.79-.528z"/><path stroke="#C1C9F1" stroke-opacity="0.748217" stroke-width="2.9" d="m16.4 6.038.687-1.278-.703-.377-.695.39zm0 0c.687-1.278.687-1.277.688-1.277l.003.002.006.003.015.008a5 5 0 0 1 .208.12 11.7 11.7 0 0 1 2.098 1.633c1.124 1.107 2.432 2.89 2.432 5.241 0 2.327-1.286 4.205-2.381 5.399a13.4 13.4 0 0 1-2.06 1.818l-.201.138-.015.01-.005.003-.002.001-.001.001m-.785-13.1a206 206 0 0 0-.712-1.264l-.003.002-.005.003-.016.01a5 5 0 0 0-.204.122 12.3 12.3 0 0 0-2.084 1.66c-1.11 1.108-2.426 2.891-2.426 5.197 0 2.282 1.293 4.16 2.376 5.355a14 14 0 0 0 2.2 1.954l.046.032.015.01.005.003.002.002m1.59.014-.784-1.22m.785 1.22-.785-1.22m.785 1.22-.8.514-.79-.528m.805-1.205a240 240 0 0 1-.805 1.205m.805-1.205-.805 1.205"/><path stroke="#C51918" stroke-width="2.9" d="m16.4 6.038.687-1.278-.703-.377-.695.39zm0 0c.687-1.278.687-1.277.688-1.277l.003.002.006.003.015.008a5 5 0 0 1 .208.12 11.7 11.7 0 0 1 2.098 1.633c1.124 1.107 2.432 2.89 2.432 5.241 0 2.327-1.286 4.205-2.381 5.399a13.4 13.4 0 0 1-2.06 1.818l-.201.138-.015.01-.005.003-.002.001-.001.001m-.785-13.1a206 206 0 0 0-.712-1.264l-.003.002-.005.003-.016.01a5 5 0 0 0-.204.122 12.3 12.3 0 0 0-2.084 1.66c-1.11 1.108-2.426 2.891-2.426 5.197 0 2.282 1.293 4.16 2.376 5.355a14 14 0 0 0 2.2 1.954l.046.032.015.01.005.003.002.002m1.59.014-.784-1.22m.785 1.22-.785-1.22m.785 1.22-.8.514-.79-.528m.805-1.205a240 240 0 0 1-.805 1.205m.805-1.205-.805 1.205"/><mask id="d" width="9" height="13" x="12" y="5" maskUnits="userSpaceOnUse" style="mask-type:luminance"><path fill="#fff" d="M17.331 15.206c-.319.348-.64.645-.92.883a11 11 0 0 1-.937-.915c-.917-1.01-1.624-2.207-1.624-3.406 0-1.173.684-2.256 1.574-3.143a9 9 0 0 1 .989-.852c.288.21.63.487.969.82.876.863 1.568 1.945 1.568 3.175 0 1.254-.714 2.452-1.619 3.438M15.71 7.313"/><path stroke="#fff" stroke-width="2.9" d="M17.331 15.206c-.319.348-.64.645-.92.883a11 11 0 0 1-.937-.915c-.917-1.01-1.624-2.207-1.624-3.406 0-1.173.684-2.256 1.574-3.143a9 9 0 0 1 .989-.852c.288.21.63.487.969.82.876.863 1.568 1.945 1.568 3.175 0 1.254-.714 2.452-1.619 3.438ZM15.71 7.313z"/></mask><g mask="url(#d)"><path fill="#91CBCB" d="M20.4 14h-7.467v1.5h7.466z"/><path fill="#FDF9A1" fill-rule="evenodd" d="M13.6 15.2s5.295.001 5.781-.182c.487-.182-.913 3.508-2.702 3.508S13.6 15.199 13.6 15.199" clip-rule="evenodd"/><path fill="#A68861" d="m18.593 14.756-.95.732c-1.5-1.948-2.128-3.963-1.86-6.02l1.19.156c-.225 1.723.306 3.425 1.62 5.132"/><path fill="#239E46" fill-rule="evenodd" d="m16.393 9.637-.908 1.064c-.034.04-.098.007-.086-.044l.312-1.326h-1.42c-.054 0-.07-.074-.02-.096l1.213-.531-.86-1.135c-.031-.04.01-.095.057-.077l1.354.528.309-1.244c.012-.05.084-.05.097 0l.307 1.244 1.342-.523c.048-.019.09.039.057.079l-.93 1.128 1.283.53c.05.022.036.097-.019.097h-1.264l.193 1.356a.05.05 0 0 1-.088.04zM15.6 13h4.8v1.05h-4.8z" clip-rule="evenodd"/><path fill="#C51918" fill-rule="evenodd" d="M14.871 12.395h-.005a.22.22 0 0 1-.101.129.4.4 0 0 1-.21.05.5.5 0 0 1-.187-.036.4.4 0 0 1-.147-.109.5.5 0 0 1-.095-.178.8.8 0 0 1-.034-.245q0-.137.033-.243a.5.5 0 0 1 .096-.178.4.4 0 0 1 .15-.11.5.5 0 0 1 .196-.037q.15 0 .251.066a.44.44 0 0 1 .155.175l-.11.066a.3.3 0 0 0-.114-.139.3.3 0 0 0-.182-.05.3.3 0 0 0-.134.026.3.3 0 0 0-.173.186.4.4 0 0 0-.024.148v.178q0 .082.024.15a.3.3 0 0 0 .176.187q.064.026.144.026a.4.4 0 0 0 .11-.015.3.3 0 0 0 .09-.045.2.2 0 0 0 .062-.075.24.24 0 0 0 .023-.106v-.11h-.247v-.116h.378v.566h-.125zm.835-.939v.68q0 .158.06.24.058.08.207.08.15 0 .208-.08a.4.4 0 0 0 .06-.24v-.68h.134v.65q0 .12-.022.207a.4.4 0 0 1-.07.147.3.3 0 0 1-.125.086.6.6 0 0 1-.19.029.5.5 0 0 1-.187-.029.3.3 0 0 1-.123-.086.4.4 0 0 1-.066-.147 1 1 0 0 1-.02-.208v-.649zm1.957 1.1-.112-.325H17.1l-.112.325h-.136l.39-1.1h.171l.39 1.1zm-.334-.977h-.008l-.19.536h.386zm1.85.05h-.007l-.095.185-.267.479-.267-.48-.094-.183h-.008v.926h-.132v-1.1h.18l.32.593h.008l.321-.593h.173v1.1h-.131z" clip-rule="evenodd"/></g></g></g></g><defs><clipPath id="a"><path fill="#fff" d="M0 0h32v24H0z"/></clipPath></defs></svg>