<svg xmlns="http://www.w3.org/2000/svg" width="32" height="24" fill="none" viewBox="0 0 32 24"><g clip-path="url(#a)"><mask id="b" width="32" height="24" x="0" y="0" maskUnits="userSpaceOnUse" style="mask-type:luminance"><path fill="#fff" d="M32 0H0v24h32z"/></mask><g mask="url(#b)"><path fill="#fff" d="M32 0H0v24h32z"/><path fill="#EA1A1A" fill-rule="evenodd" d="M0 0v24h32V0z" clip-rule="evenodd"/><mask id="c" width="32" height="24" x="0" y="0" maskUnits="userSpaceOnUse" style="mask-type:luminance"><path fill="#fff" fill-rule="evenodd" d="M0 0v24h32V0z" clip-rule="evenodd"/></mask><g mask="url(#c)"><path fill="#fff" fill-rule="evenodd" d="M15.87 11.574s-5.79-5.163 1.118-8.172c0 0 2.01 2.217.502 4.705a26 26 0 0 1-1.225 1.837c-.642.898-.849 1.187-.396 1.63M7.323 7.867c-.397 7.525 6.81 4.654 6.81 4.654-.599.208-.765-.107-1.28-1.082a27 27 0 0 0-1.096-1.917C10.206 7.06 7.324 7.867 7.324 7.867m10.914 3.96s7.432 2.224 2.448 7.876c0 0-2.76-1.157-2.448-4.05.102-.948.233-1.653.331-2.182.202-1.085.267-1.435-.331-1.645m-1.954 1.734s1.333 7.642-5.95 5.71c0 0-.199-2.985 2.528-3.999.894-.333 1.583-.53 2.1-.68 1.06-.304 1.403-.403 1.322-1.031m9.194-3.286c-4.555-6.003-8.205.843-8.205.843.324-.545.654-.412 1.677 0 .5.2 1.165.468 2.075.756 2.774.877 4.453-1.6 4.453-1.6" clip-rule="evenodd"/><path fill="#EA1A1A" d="m9.95 10.342.422-.268c.927 1.458 2.129 2.175 3.63 2.175v.5c-1.68 0-3.037-.81-4.052-2.407"/><path fill="#EA1A1A" fill-rule="evenodd" d="M21.75 10.75a.75.75 0 1 0 0-1.5.75.75 0 0 0 0 1.5m-1.792 4.977a.75.75 0 1 0 0-1.5.75.75 0 0 0 0 1.5m-6 2a.75.75 0 1 0 0-1.5.75.75 0 0 0 0 1.5m-4-7a.75.75 0 1 0 0-1.5.75.75 0 0 0 0 1.5m6-3a.75.75 0 1 0 0-1.5.75.75 0 0 0 0 1.5" clip-rule="evenodd"/><path fill="#EA1A1A" d="m15.634 7.05.44.239c-.833 1.536-.892 2.953-.186 4.279l-.442.235c-.787-1.481-.721-3.075.188-4.752m6.381 2.633-.075.495c-1.956-.297-3.42.116-4.422 1.23l-.372-.336c1.125-1.248 2.758-1.709 4.87-1.389"/><path fill="#EA1A1A" d="m20.351 15.366-.49.098c-.39-1.939-1.279-3.174-2.668-3.735l.188-.463c1.558.63 2.549 2.006 2.97 4.1m-6.445 1.783-.26-.427c1.688-1.03 2.545-2.287 2.597-3.785l.5.018c-.06 1.68-1.014 3.082-2.837 4.194"/></g></g></g><defs><clipPath id="a"><path fill="#fff" d="M0 0h32v24H0z"/></clipPath></defs></svg>