<svg xmlns="http://www.w3.org/2000/svg" width="32" height="24" fill="none" viewBox="0 0 32 24"><g clip-path="url(#a)"><mask id="b" width="32" height="24" x="0" y="0" maskUnits="userSpaceOnUse" style="mask-type:luminance"><path fill="#fff" d="M32 0H0v24h32z"/></mask><g mask="url(#b)"><path fill="#fff" d="M32 0H0v24h32z"/><path fill="#F7FCFF" fill-rule="evenodd" d="M0 0v24h32V0z" clip-rule="evenodd"/><mask id="c" width="32" height="24" x="0" y="0" maskUnits="userSpaceOnUse" style="mask-type:luminance"><path fill="#fff" fill-rule="evenodd" d="M0 0v24h32V0z" clip-rule="evenodd"/></mask><g fill="#4564F9" fill-rule="evenodd" clip-rule="evenodd" mask="url(#c)"><path d="M0 0v8h32V0zm0 16v8h32v-8zm16.402-3.33-.866.448.165-.947-.701-.74h.969l.433-.931.433.93h.97l-.702.74.166.948zm-6.084-2.167-.866.447.165-.947-.701-.74h.969l.433-.931.434.93h.968l-.7.74.165.948zm0 4.199-.866.447.165-.947-.701-.74h.969l.433-.93.434.93h.968l-.7.74.165.947zm12-4.199-.867.447.166-.947-.701-.74h.969l.433-.931.433.93h.97l-.702.74.166.948zm0 4.199-.867.447.166-.947-.701-.74h.969l.433-.93.433.93h.97l-.702.74.166.947z"/></g></g></g><defs><clipPath id="a"><path fill="#fff" d="M0 0h32v24H0z"/></clipPath></defs></svg>