<svg xmlns="http://www.w3.org/2000/svg" width="32" height="24" fill="none" viewBox="0 0 32 24"><g clip-path="url(#a)"><mask id="b" width="32" height="24" x="0" y="0" maskUnits="userSpaceOnUse" style="mask-type:luminance"><path fill="#fff" d="M32 0H0v24h32z"/></mask><g mask="url(#b)"><path fill="#fff" d="M32 0H0v24h32z"/><path fill="#F7FCFF" fill-rule="evenodd" d="M0 0v24h32V0z" clip-rule="evenodd"/><mask id="c" width="32" height="24" x="0" y="0" maskUnits="userSpaceOnUse" style="mask-type:luminance"><path fill="#fff" fill-rule="evenodd" d="M0 0v24h32V0z" clip-rule="evenodd"/></mask><g mask="url(#c)"><path fill="#E31D1C" fill-rule="evenodd" d="M0 0v8h32V0z" clip-rule="evenodd"/><path fill="#3D58DB" fill-rule="evenodd" d="M0 16v8h32v-8z" clip-rule="evenodd"/><path fill="#E31D1C" d="M21.476 6.398h-11.4v4h11.4z"/><path fill="#F7FCFF" stroke="#E31D1C" stroke-width="1.125" d="M10.652 8.96h10.129c.017.77.022 2.111.022 3.403a638 638 0 0 1-.008 2.944v.226l-.001.003-.024.123a5.5 5.5 0 0 1-.815 1.9c-.694 1.015-1.955 2.057-4.305 2.057-2.347 0-3.547-1.04-4.186-2.045a5.2 5.2 0 0 1-.74-2.035v-.045l-.003-.196-.008-.709-.026-2.22c-.014-1.27-.029-2.612-.035-3.405Zm.07 6.56Z"/><mask id="d" width="12" height="13" x="10" y="8" maskUnits="userSpaceOnUse" style="mask-type:luminance"><path fill="#fff" stroke="#fff" stroke-width="1.125" d="M10.652 8.96h10.129c.017.77.022 2.111.022 3.403a638 638 0 0 1-.008 2.944v.226l-.001.003-.024.123a5.5 5.5 0 0 1-.815 1.9c-.694 1.015-1.955 2.057-4.305 2.057-2.347 0-3.547-1.04-4.186-2.045a5.2 5.2 0 0 1-.74-2.035v-.045l-.003-.196-.008-.709-.026-2.22c-.014-1.27-.029-2.612-.035-3.405Zm.07 6.56Z"/></mask><g mask="url(#d)"><path fill="#F50100" fill-rule="evenodd" d="M10.498 9.04h2.11v2.141h-2.11zm4.219 2.141h-2.11v2.142h-2.109v2.142h2.11v2.142h-2.11v2.142h2.11v-2.142h2.109v2.142h2.11v-2.142h2.108v2.142h2.11v-2.142h-2.11v-2.142h2.11v-2.142h-2.11V11.18h2.11V9.039h-2.11v2.142h-2.109V9.039h-2.11zm0 2.142V11.18h2.11v2.142zm0 2.142v-2.142h-2.11v2.142zm2.11 0v2.142h-2.11v-2.142zm0 0v-2.142h2.108v2.142z" clip-rule="evenodd"/></g><path fill="#56C6F5" fill-rule="evenodd" stroke="#fff" stroke-width="0.5" d="M10.453 8.161s.652-.348 1.209-.528c.556-.18.996-.278.996-.278l-.828-3.052-1.658-.62-.94 1.549z" clip-rule="evenodd"/><path fill="#fff" d="m10.18 6.492.191-.092c.197.42.456.55.812.418.363-.135.511-.392.459-.798l.21-.028c.064.505-.14.857-.596 1.027-.465.173-.834-.012-1.075-.527"/><path fill="#FECA00" fill-rule="evenodd" d="m10.632 5.542-.182.11a.054.054 0 0 1-.081-.057l.041-.209-.187-.102a.054.054 0 0 1 .01-.1l.2-.068-.004-.213a.054.054 0 0 1 .09-.042l.16.14.183-.11c.04-.024.09.01.08.057l-.04.209.186.103a.054.054 0 0 1-.008.098l-.202.07.004.212a.054.054 0 0 1-.09.042z" clip-rule="evenodd"/><path fill="#56C6F5" fill-rule="evenodd" stroke="#fff" stroke-width="0.5" d="M14.54 7.078s.557-.05 1.142-.039 1.08.016 1.08.016l.285-3.01-1.253-1.13-1.392 1.157z" clip-rule="evenodd"/><path fill="#FECA00" fill-rule="evenodd" d="M15.75 6.585c.483 0 .53-.521.53-.876-.124-.197-.1-.338-.495-.338s-.44.12-.556.338c0 .355.04.876.522.876m.542-1.473c.482 0 .528-.521.528-.876-.123-.197-.098-.338-.494-.338-.395 0-.44.12-.556.338 0 .355.04.876.522.876m-1.055 0c.482 0 .528-.521.528-.876-.123-.197-.098-.338-.493-.338-.396 0-.44.12-.556.338 0 .355.038.876.52.876" clip-rule="evenodd"/><path fill="#2E42A5" stroke="#fff" stroke-width="0.5" d="m12.445 7.606-.072-.245-.867-2.944-.041-.14.1-.104 1.24-1.284.149-.155.175.125 1.363.968.094.067.01.115.252 2.924.023.261-.261.01h-.002l-.004.001h-.018l-.068.004-.233.014a9 9 0 0 0-.604.057 6 6 0 0 0-.631.143 12 12 0 0 0-.335.097l-.02.007-.006.001h-.001z"/><mask id="e" width="5" height="6" x="11" y="2" maskUnits="userSpaceOnUse" style="mask-type:luminance"><path fill="#fff" stroke="#fff" stroke-width="0.5" d="m12.445 7.606-.072-.245-.867-2.944-.041-.14.1-.104 1.24-1.284.149-.155.175.125 1.363.968.094.067.01.115.252 2.924.023.261-.261.01h-.002l-.004.001h-.018l-.068.004-.233.014a9 9 0 0 0-.604.057 6 6 0 0 0-.631.143 12 12 0 0 0-.335.097l-.02.007-.006.001h-.001z"/></mask><g fill="#C51918" mask="url(#e)"><path d="m12.436 6.636-.25-.59c.537-.236 1.446-.38 2.403-.437l.037.642c-.89.052-1.73.184-2.19.385m-.423-1.426-.25-.59c.538-.236 1.694-.427 2.65-.483l.037.641c-.889.053-1.977.23-2.437.431"/></g><path fill="#2E42A5" stroke="#fff" stroke-width="0.5" d="m18.969 7.607.068-.252.796-2.948.035-.133-.092-.101-1.168-1.28-.149-.163-.18.129-1.363.967-.094.067-.01.116-.253 2.924-.022.26.261.011h.006l.018.001.068.004.233.013a9 9 0 0 1 .604.057c.177.025.422.086.63.143a12 12 0 0 1 .336.098l.02.006.006.002z"/><mask id="f" width="5" height="6" x="16" y="2" maskUnits="userSpaceOnUse" style="mask-type:luminance"><path fill="#fff" stroke="#fff" stroke-width="0.5" d="m18.969 7.607.068-.252.796-2.948.035-.133-.092-.101-1.168-1.28-.149-.163-.18.129-1.363.967-.094.067-.01.116-.253 2.924-.022.26.261.011h.006l.018.001.068.004.233.013a9 9 0 0 1 .604.057c.177.025.422.086.63.143a12 12 0 0 1 .336.098l.02.006.006.002z"/></mask><g fill-rule="evenodd" clip-rule="evenodd" mask="url(#f)"><path fill="#FECA00" d="M18.398 6.464s.294-.163.337-.44c.042-.275.497-.615.27-.575-.228.04-.098.072-.427 0-.33-.072-.756-.12-.756-.322s.212-.363.039-.363-.543-.191-.468-.045c.074.147-.171-.019-.049.285s-.026.61.049.69c.074.081-.049.477-.049.477s.045.146.124-.074.25-.373.165-.186c-.086.186-.196.631-.098.553a.7.7 0 0 0 .195-.367c0-.072.247-.358.247-.142s-.232.386-.116.386.181.045.255-.17c.073-.216.25-.36.323-.216.073.142.057.135-.04.322-.098.187 0 .187 0 .187"/><path fill="#C51918" d="m17.708 4.866-.11-.183c.197-.121.377-.153.536-.086.072.03.126.066.267.165l.019.013c.147.103.225.146.273.146v.214c-.11 0-.205-.052-.393-.184l-.019-.013a1.3 1.3 0 0 0-.23-.143q-.13-.059-.343.071m-.346 1.397c.062 0 .112-.05.112-.111a.11.11 0 0 0-.113-.111.11.11 0 0 0-.112.11c0 .062.05.112.113.112m.323.103c0 .061-.05.111-.112.111a.11.11 0 0 1-.113-.11c0-.062.05-.112.113-.112.062 0 .112.05.112.111m.266.103c.063 0 .113-.05.113-.111a.11.11 0 0 0-.113-.111.11.11 0 0 0-.112.11c0 .062.05.112.112.112m.465.067a.11.11 0 0 1-.112.11.11.11 0 0 1-.113-.11c0-.062.05-.111.113-.111.062 0 .112.05.112.11"/></g><path fill="#56C6F5" stroke="#fff" stroke-width="0.5" d="m21.353 8.186-.108.25-.24-.129-.006-.003-.02-.01a9 9 0 0 0-.358-.178 7 7 0 0 0-.783-.32 13 13 0 0 0-.9-.254l-.056-.013-.014-.003h-.003l-.26-.059.073-.254.846-2.976.034-.122.119-.044 1.658-.62.194-.072.107.177.94 1.548.067.11-.052.12z"/><mask id="g" width="5" height="6" x="18" y="3" maskUnits="userSpaceOnUse" style="mask-type:luminance"><path fill="#fff" stroke="#fff" stroke-width="0.5" d="m21.353 8.186-.108.25-.24-.129-.006-.003-.02-.01a9 9 0 0 0-.358-.178 7 7 0 0 0-.783-.32 13 13 0 0 0-.9-.254l-.056-.013-.014-.003h-.003l-.26-.059.073-.254.846-2.976.034-.122.119-.044 1.658-.62.194-.072.107.177.94 1.548.067.11-.052.12z"/></mask><g mask="url(#g)"><path fill="#FECA00" fill-rule="evenodd" d="m21.128 5.09-.142.159a.054.054 0 0 1-.095-.03l-.021-.213-.209-.043a.054.054 0 0 1-.02-.097l.173-.125-.067-.202a.054.054 0 0 1 .074-.067l.194.088.142-.159a.054.054 0 0 1 .094.03l.022.213.208.043c.046.01.06.07.02.097l-.172.125.067.202a.054.054 0 0 1-.074.066z" clip-rule="evenodd"/><path fill="#E31D1C" d="m18.995 6.49.213-.83c.94.249 1.921.567 2.64.875l-.327.79c-.68-.291-1.623-.597-2.526-.836"/><path fill="#fff" d="m19.283 5.724.05-.208c.902.223 1.86.58 2.557.913l-.09.194a14 14 0 0 0-2.517-.9m-.267.857.05-.209a13 13 0 0 1 2.432.86l-.09.194a13 13 0 0 0-2.392-.846"/><path fill="#272727" d="m19.423 6.177.193-.087c.081.19.182.232.35.15.396-.192 1.38.077 1.38.44 0 .142-.082.228-.208.223a.7.7 0 0 1-.257-.086l-.044-.022a1 1 0 0 0-.164-.079l.07-.204c.045.016.052.02.188.089l.042.02a.5.5 0 0 0 .174.065c.003 0-.012.015-.012-.006 0-.16-.8-.379-1.08-.243-.277.135-.504.04-.632-.26"/></g></g></g></g><defs><clipPath id="a"><path fill="#fff" d="M0 0h32v24H0z"/></clipPath></defs></svg>