<svg xmlns="http://www.w3.org/2000/svg" width="32" height="24" fill="none" viewBox="0 0 32 24"><g clip-path="url(#a)"><mask id="b" width="32" height="24" x="0" y="0" maskUnits="userSpaceOnUse" style="mask-type:luminance"><path fill="#fff" d="M32 0H0v24h32z"/></mask><g mask="url(#b)"><path fill="#fff" d="M32 0H0v24h32z"/><path fill="#2E42A5" fill-rule="evenodd" d="M0 0v24h32V0z" clip-rule="evenodd"/><mask id="c" width="32" height="24" x="0" y="0" maskUnits="userSpaceOnUse" style="mask-type:luminance"><path fill="#fff" fill-rule="evenodd" d="M0 0v24h32V0z" clip-rule="evenodd"/></mask><g mask="url(#c)"><path fill="#E31D1C" fill-rule="evenodd" d="M0 12v12h32V12z" clip-rule="evenodd"/><path fill="#fff" d="M22 8H10v8h12z"/><mask id="d" width="12" height="8" x="10" y="8" maskUnits="userSpaceOnUse" style="mask-type:luminance"><path fill="#fff" d="M22 8H10v8h12z"/></mask><g mask="url(#d)"><path fill="#279E19" fill-rule="evenodd" d="M10 14.576s2.88-.757 6-.71c3.12.046 6 .888 6 .888V16H10z" clip-rule="evenodd"/><path stroke="#026A16" stroke-width="0.5" d="M16.073 8.9s-.93-.42-1.58-.42-1.012.64-1.012.64"/><path stroke="#026A16" stroke-width="0.5" d="M16.28 9.322s-.856-.306-1.454-.306-.93.467-.93.467"/><path stroke="#026A16" stroke-width="0.5" d="M16.28 9.678s-.634-.307-1.076-.307-.688.468-.688.468"/><path stroke="#026A16" stroke-width="0.5" d="M16.02 10.033s-.392-.306-.665-.306c-.274 0-.425.467-.425.467"/><path stroke="#026A16" stroke-width="0.5" d="M15.987 10.275s-.157-.193-.266-.193-.17.295-.17.295m.376-1.477s.93-.42 1.58-.42 1.012.64 1.012.64"/><path stroke="#026A16" stroke-width="0.5" d="M15.72 9.322s.856-.306 1.454-.306c.599 0 .93.467.93.467"/><path stroke="#026A16" stroke-width="0.5" d="M15.72 9.678s.633-.307 1.076-.307c.442 0 .688.468.688.468"/><path stroke="#026A16" stroke-width="0.5" d="M15.98 10.033s.392-.306.665-.306c.274 0 .426.467.426.467"/><path stroke="#026A16" stroke-width="0.5" d="M16.014 10.275s.156-.193.265-.193.17.295.17.295"/><path fill="#FECA00" fill-rule="evenodd" d="M15.888 10.398s-.115 1.338-.115 1.882.115 1.719.115 1.719h.293V12.28c0-.454-.172-1.882-.172-1.882z" clip-rule="evenodd"/><path fill="#C51918" fill-rule="evenodd" d="M14.732 11.918s-.724.388-.724 1.535l.724 1.386h1.307v-2.282z" clip-rule="evenodd"/><path fill="#0A328C" fill-rule="evenodd" d="M13.659 10.824s-1.691.501-1.691 2.349l2.19.187s-.12-1.074.555-1.57z" clip-rule="evenodd"/><path stroke="#FFD018" stroke-width="0.5" d="m12.96 10.121 2.901 2.658m-3.908-2.056L16 13.35m-4.743-1.612 4.56 2.085"/><path fill="#FECA00" fill-rule="evenodd" d="m11.98 13.16 3.025.338-.17.423h-.48l.327.238.736.173v-.411h.646v.873h-1.382l-.53-.635s-.445.44-.88.44c-.434 0-.863-.143-.863-.622v-.333l-.43-.146z" clip-rule="evenodd"/><path fill="#C51918" fill-rule="evenodd" d="M16.854 11.918s.724.388.724 1.535l-.724 1.386h-1.307v-2.282z" clip-rule="evenodd"/><path fill="#0A328C" fill-rule="evenodd" d="M17.927 10.824s1.691.501 1.691 2.349l-2.19.187s.12-1.074-.555-1.57z" clip-rule="evenodd"/><path stroke="#FFD018" stroke-width="0.5" d="m18.625 10.121-2.9 2.658m3.907-2.056-4.045 2.627m4.743-1.612-4.56 2.085"/><path fill="#FECA00" fill-rule="evenodd" d="m19.607 13.16-3.026.338.17.423h.48l-.327.238-.736.173v-.411h-.645v.873h1.381l.53-.635s.445.44.88.44c.434 0 .863-.143.863-.622v-.333l.43-.146z" clip-rule="evenodd"/></g></g></g></g><defs><clipPath id="a"><path fill="#fff" d="M0 0h32v24H0z"/></clipPath></defs></svg>