<svg xmlns="http://www.w3.org/2000/svg" width="32" height="24" fill="none" viewBox="0 0 32 24"><g clip-path="url(#a)"><mask id="b" width="32" height="24" x="0" y="0" maskUnits="userSpaceOnUse" style="mask-type:luminance"><path fill="#fff" d="M32 0H0v24h32z"/></mask><g mask="url(#b)"><path fill="#fff" d="M32 0H0v24h32z"/><path fill="#E31D1C" fill-rule="evenodd" d="M0 0v24h32V0z" clip-rule="evenodd"/><mask id="c" width="32" height="24" x="0" y="0" maskUnits="userSpaceOnUse" style="mask-type:luminance"><path fill="#fff" fill-rule="evenodd" d="M0 0v24h32V0z" clip-rule="evenodd"/></mask><g mask="url(#c)"><path fill="#F7FCFF" fill-rule="evenodd" d="M6.094 4.14c-.008-.093.103-.138.166-.07.449.492 1.636 1.716 2.322 1.716.86 0 4.233-2.843 5.23-2.38s3.016 5.305 3.016 5.305l-1.315 1.65-1.7-.927-.322-3.648S10.218 7.47 8.582 6.858l-.919.773S6.778 5.878 6.43 5.34c-.23-.354-.308-.884-.335-1.202" clip-rule="evenodd"/><path fill="#FECA00" fill-rule="evenodd" d="m8.263 8.123-.56.34.107-.72-.453-.508.626-.105.28-.653.28.653.626.105-.453.509.107.718zm4.751-4.335a.363.363 0 0 1 .725 0v1.714a.363.363 0 0 1-.725 0z" clip-rule="evenodd"/><path fill="#F7FCFF" fill-rule="evenodd" d="M25.22 5.102c.083.042.063.16-.028.177-.655.12-2.323.478-2.686 1.06-.456.729.168 5.096-.754 5.696-.92.6-6.097-.253-6.097-.253l-.702-1.99 1.688-.95 3.264 1.66s.306-3.668 1.691-4.731l-.168-1.189s1.956.178 2.595.167c.424-.008.914.207 1.198.353" clip-rule="evenodd"/><path fill="#FECA00" fill-rule="evenodd" d="m20.694 4.83.009-.654.552.471.672-.114-.243.586.406.584-.703-.11-.42.476-.192-.654-.666-.29zm1.22 6.374a.392.392 0 1 1-.424.659l-1.548-1.035a.36.36 0 0 1 .39-.606z" clip-rule="evenodd"/><path fill="#F7FCFF" fill-rule="evenodd" d="M14.863 20.983c-.078.05-.17-.026-.138-.114.223-.627.746-2.25.424-2.856-.403-.758-4.497-2.402-4.556-3.5s3.267-5.154 3.267-5.154l2.075.387-.02 1.937-3.07 1.996s3.022 2.1 3.25 3.83l1.114.45s-1.132 1.605-1.442 2.164c-.204.37-.636.688-.904.86" clip-rule="evenodd"/><path fill="#FECA00" fill-rule="evenodd" d="m17.362 17.197.562.335-.684.242-.237.64-.386-.504-.709.06.446-.555-.201-.601.662.16.583-.431zm-6.258-2.24a.407.407 0 0 1-.292-.758l1.668-.651a.413.413 0 1 1 .297.77z" clip-rule="evenodd"/><path fill="#FECA00" d="M13.663 9.765a.245.245 0 0 1-.148-.31c.042-.127.242-.34.366-.297l1.736.607a.24.24 0 0 1 .16.21l.155 1.904c.011.134-.184.243-.315.254a.24.24 0 0 1-.257-.223l-.144-1.637z"/><path fill="#FECA00" d="M16.682 8.766c.104-.083.289.013.37.12a.247.247 0 0 1-.042.341l-1.202 1.233c-.104.083-.337-.079-.418-.185s-.104-.396 0-.479z"/></g></g></g><defs><clipPath id="a"><path fill="#fff" d="M0 0h32v24H0z"/></clipPath></defs></svg>