<svg xmlns="http://www.w3.org/2000/svg" width="32" height="24" fill="none" viewBox="0 0 32 24"><g clip-path="url(#a)"><mask id="b" width="32" height="24" x="0" y="0" maskUnits="userSpaceOnUse" style="mask-type:luminance"><path fill="#fff" d="M32 0H0v24h32z"/></mask><g mask="url(#b)"><path fill="#fff" d="M32 0H0v24h32z"/><path fill="#F7FCFF" fill-rule="evenodd" d="M0 0v24h32V0z" clip-rule="evenodd"/><mask id="c" width="32" height="24" x="0" y="0" maskUnits="userSpaceOnUse" style="mask-type:luminance"><path fill="#fff" fill-rule="evenodd" d="M0 0v24h32V0z" clip-rule="evenodd"/></mask><g fill-rule="evenodd" clip-rule="evenodd" mask="url(#c)"><path fill="#FF8C1A" d="M0 0v8h32V0z"/><path fill="#5EAA22" d="M0 16v8h32v-8z"/><path fill="#3D58DB" d="M12 12a4 4 0 1 0 8 0 4 4 0 0 0-8 0m7 0a3 3 0 1 1-6 0 3 3 0 0 1 6 0"/><path fill="#3D58DB" d="m15.996 12.859-.571 3.12.331-3.154-1.427 2.833 1.207-2.934-2.167 2.317 1.984-2.475-2.732 1.612 2.602-1.816-3.076.777 3.008-1.009-3.17-.12 3.17-.122-3.008-1.009 3.076.777-2.602-1.815 2.732 1.612-1.984-2.475 2.167 2.316-1.207-2.933 1.427 2.833-.331-3.155.57 3.12.571-3.12-.331 3.155 1.427-2.833-1.207 2.933 2.167-2.316-1.984 2.475L19.37 9.84l-2.602 1.815 3.076-.777-3.008 1.01 3.17.12-3.17.121 3.008 1.01-3.076-.778 2.602 1.816-2.732-1.612 1.984 2.475-2.167-2.317 1.207 2.934-1.427-2.833.331 3.155z"/></g></g></g><defs><clipPath id="a"><path fill="#fff" d="M0 0h32v24H0z"/></clipPath></defs></svg>