<svg xmlns="http://www.w3.org/2000/svg" width="32" height="24" fill="none" viewBox="0 0 32 24"><g clip-path="url(#a)"><mask id="b" width="32" height="24" x="0" y="0" maskUnits="userSpaceOnUse" style="mask-type:luminance"><path fill="#fff" d="M32 0H0v24h32z"/></mask><g mask="url(#b)"><path fill="#fff" d="M32 0H0v24h32z"/><path fill="#F7FCFF" fill-rule="evenodd" d="M0 0v24h32V0z" clip-rule="evenodd"/><mask id="c" width="32" height="24" x="0" y="0" maskUnits="userSpaceOnUse" style="mask-type:luminance"><path fill="#fff" fill-rule="evenodd" d="M0 0v24h32V0z" clip-rule="evenodd"/></mask><g mask="url(#c)"><path fill="#2E42A5" fill-rule="evenodd" d="M-1.506 3.291-.019 4.71C1.21 3.548 2.368 3 3.47 3c.532 0 .759.128 1.372.709C5.815 4.629 6.47 5 7.701 5s1.886-.372 2.859-1.291c.614-.58.84-.709 1.372-.709s.759.128 1.372.709c.973.92 1.628 1.291 2.86 1.291 1.23 0 1.886-.372 2.859-1.291.614-.58.84-.709 1.372-.709s.759.128 1.372.709c.974.92 1.628 1.291 2.86 1.291 1.23 0 1.886-.372 2.859-1.291.613-.58.84-.709 1.372-.709 1.101 0 2.26.548 3.488 1.709l1.487-1.418C32.24 1.786 30.578 1 28.858 1c-1.231 0-1.886.371-2.86 1.291-.613.58-.84.709-1.371.709-.532 0-.759-.128-1.373-.709C22.281 1.371 21.626 1 20.395 1s-1.886.371-2.86 1.291c-.613.58-.84.709-1.371.709-.532 0-.759-.128-1.373-.709C13.818 1.371 13.163 1 11.932 1s-1.886.371-2.86 1.291c-.613.58-.84.709-1.371.709-.532 0-.759-.128-1.372-.709C5.355 1.371 4.7 1 3.469 1c-1.72 0-3.382.786-4.975 2.291M-.019 8.71l-1.487-1.42C.087 5.786 1.75 5 3.47 5c1.231 0 1.886.372 2.86 1.291.613.58.84.709 1.372.709s.758-.128 1.372-.709C10.046 5.371 10.7 5 11.933 5c1.23 0 1.885.372 2.858 1.291.614.58.84.709 1.373.709.532 0 .758-.128 1.372-.709.973-.92 1.628-1.291 2.86-1.291 1.23 0 1.885.372 2.858 1.291.614.58.84.709 1.373.709.532 0 .758-.128 1.372-.709.973-.92 1.628-1.291 2.86-1.291 1.719 0 3.381.786 4.974 2.291L32.346 8.71C31.118 7.548 29.959 7 28.858 7c-.532 0-.759.128-1.372.709-.973.92-1.628 1.291-2.86 1.291-1.23 0-1.886-.371-2.859-1.291-.613-.58-.84-.709-1.372-.709s-.758.128-1.372.709C18.05 8.629 17.395 9 16.163 9c-1.23 0-1.886-.371-2.859-1.291-.613-.58-.84-.709-1.372-.709s-.758.128-1.372.709C9.587 8.629 8.932 9 7.7 9c-1.23 0-1.885-.371-2.859-1.291C4.228 7.129 4.001 7 3.47 7c-1.101 0-2.26.548-3.488 1.709m0 4-1.487-1.418C.087 9.787 1.75 9 3.47 9c1.231 0 1.886.371 2.86 1.291.613.58.84.709 1.372.709s.758-.129 1.372-.709C10.046 9.372 10.7 9 11.933 9c1.23 0 1.885.371 2.858 1.291.614.58.84.709 1.373.709.532 0 .758-.129 1.372-.709.973-.92 1.628-1.291 2.86-1.291 1.23 0 1.885.371 2.858 1.291.614.58.84.709 1.373.709.532 0 .758-.129 1.372-.709.973-.92 1.628-1.291 2.86-1.291 1.719 0 3.381.786 4.974 2.291l-1.487 1.418C31.118 11.548 29.959 11 28.858 11c-.532 0-.759.129-1.372.709-.973.92-1.628 1.291-2.86 1.291-1.23 0-1.886-.371-2.859-1.291-.613-.58-.84-.709-1.372-.709s-.758.129-1.372.709c-.973.92-1.628 1.291-2.86 1.291-1.23 0-1.886-.371-2.859-1.291-.613-.58-.84-.709-1.372-.709s-.758.129-1.372.709C9.587 12.629 8.932 13 7.7 13c-1.23 0-1.885-.371-2.859-1.291-.613-.58-.84-.709-1.372-.709-1.101 0-2.26.548-3.488 1.709m0 4-1.487-1.418C.087 13.787 1.75 13 3.47 13c1.231 0 1.886.371 2.86 1.291.613.58.84.709 1.372.709s.758-.129 1.372-.709c.973-.92 1.628-1.291 2.86-1.291 1.23 0 1.885.371 2.858 1.291.614.58.84.709 1.373.709.532 0 .758-.129 1.372-.709.973-.92 1.628-1.291 2.86-1.291 1.23 0 1.885.371 2.858 1.291.614.58.84.709 1.373.709.532 0 .758-.129 1.372-.709.973-.92 1.628-1.291 2.86-1.291 1.719 0 3.381.786 4.974 2.291l-1.487 1.418C31.118 15.548 29.959 15 28.858 15c-.532 0-.759.129-1.372.709-.973.92-1.628 1.291-2.86 1.291-1.23 0-1.886-.372-2.859-1.291-.613-.58-.84-.709-1.372-.709s-.758.129-1.372.709c-.973.92-1.628 1.291-2.86 1.291-1.23 0-1.886-.372-2.859-1.291-.613-.58-.84-.709-1.372-.709s-.758.129-1.372.709C9.587 16.629 8.932 17 7.7 17c-1.23 0-1.885-.372-2.859-1.291-.613-.58-.84-.709-1.372-.709-1.101 0-2.26.548-3.488 1.709m0 4-1.487-1.418C.087 17.787 1.75 17 3.47 17c1.231 0 1.886.372 2.86 1.291.613.58.84.709 1.372.709s.758-.128 1.372-.709c.973-.92 1.628-1.291 2.86-1.291 1.23 0 1.885.372 2.858 1.291.614.58.84.709 1.373.709.532 0 .758-.128 1.372-.709.973-.92 1.628-1.291 2.86-1.291 1.23 0 1.885.372 2.858 1.291.614.58.84.709 1.373.709.532 0 .758-.128 1.372-.709.973-.92 1.628-1.291 2.86-1.291 1.719 0 3.381.786 4.974 2.291l-1.487 1.418C31.118 19.548 29.959 19 28.858 19c-.532 0-.759.128-1.372.709-.973.92-1.628 1.291-2.86 1.291-1.23 0-1.886-.372-2.859-1.291-.613-.58-.84-.709-1.372-.709s-.758.128-1.372.709c-.973.92-1.628 1.291-2.86 1.291-1.23 0-1.886-.372-2.859-1.291-.613-.58-.84-.709-1.372-.709s-.758.128-1.372.709C9.587 20.629 8.932 21 7.7 21c-1.23 0-1.885-.372-2.859-1.291-.613-.58-.84-.709-1.372-.709-1.101 0-2.26.548-3.488 1.709m0 4-1.487-1.418C.087 21.787 1.75 21 3.47 21c1.231 0 1.886.372 2.86 1.291.613.58.84.709 1.372.709s.758-.128 1.372-.709c.973-.92 1.628-1.291 2.86-1.291 1.23 0 1.885.372 2.858 1.291.614.58.84.709 1.373.709.532 0 .758-.128 1.372-.709.973-.92 1.628-1.291 2.86-1.291 1.23 0 1.885.372 2.858 1.291.614.58.84.709 1.373.709.532 0 .758-.128 1.372-.709.973-.92 1.628-1.291 2.86-1.291 1.719 0 3.381.786 4.974 2.291l-1.487 1.418C31.118 23.548 29.959 23 28.858 23c-.532 0-.759.128-1.372.709-.973.92-1.628 1.291-2.86 1.291-1.23 0-1.886-.372-2.859-1.291-.613-.58-.84-.709-1.372-.709s-.758.128-1.372.709c-.973.92-1.628 1.291-2.86 1.291-1.23 0-1.886-.372-2.859-1.291-.613-.58-.84-.709-1.372-.709s-.758.128-1.372.709C9.587 24.629 8.932 25 7.7 25c-1.23 0-1.885-.372-2.859-1.291-.613-.58-.84-.709-1.372-.709-1.101 0-2.26.548-3.488 1.709" clip-rule="evenodd"/><path fill="#2E42A5" d="M14 0H0v12h14z"/><mask id="d" width="14" height="10" x="0" y="0" maskUnits="userSpaceOnUse" style="mask-type:luminance"><path fill="#fff" d="M14 0H0v10h14z"/></mask><g mask="url(#d)"><path fill="#2E42A5" d="M14 0H0v10h14z"/><path fill="#F7FCFF" d="m-1.559 10.11 3.081 1.35L14.07 1.467 15.695-.54l-3.294-.451-5.118 4.306-4.12 2.902z"/><path fill="#F50100" d="m-1.137 11.056 1.57.785L15.112-.727h-2.204z"/><path fill="#F7FCFF" d="m15.559 10.11-3.081 1.35L-.07 1.467-1.695-.54l3.294-.451 5.118 4.306 4.12 2.902z"/><path fill="#F50100" d="m15.454 10.787-1.57.784-6.25-5.38-1.854-.602-7.632-6.124H.352l7.628 5.98 2.026.72z"/><path fill="#F50100" fill-rule="evenodd" d="M7.766-.445H6.21V4.22H0v1.556h6.21v4.667h1.556V5.777H14V4.22H7.766z" clip-rule="evenodd"/><path fill="#F7FCFF" fill-rule="evenodd" d="M5.044-.445h3.888v3.5H14v3.889H8.932l.012 3.5H5.056l-.012-3.5H0v-3.89h5.044zM6.21 4.22H0v1.556h6.21v4.667h1.556V5.777H14V4.22H7.766V-.445H6.21z" clip-rule="evenodd"/></g><path fill="#D86D00" d="M21.4 9.879a.5.5 0 0 0-1 0V21.5a.5.5 0 1 0 1 0z"/><path fill="#449A01" fill-rule="evenodd" d="M20.404 2.059c.827 1.134 1.166 2.475 1.196 3.839.934-1.266 2.492-2.3 3.22-2.742-.668.468-1.015 1.16-1.406 1.94-.192.383-.394.787-.65 1.195a14.6 14.6 0 0 1 3.173-.719c-1.06.301-2.039.916-2.99 1.513-.346.218-.69.433-1.032.63 3.072 1.157 3.545 2.83 3.545 2.83-.377-.332-1.19-.688-2.724-1.36l-.963-.422c.23.843.507 1.504.772 2.134l.08.187s-2.126-.574-2.53-2.222a11.2 11.2 0 0 1-3.085 1.72s1.439-1.563 2.496-2.6c-1.388-.157-3.994-.285-3.994-.285l.185-.044c1.048-.25 2.67-.636 4.155-.616a9.5 9.5 0 0 1-2.874-2.507c.254.224.96.505 1.924.888.407.161.86.341 1.343.543.092-1.684.159-3.902.159-3.902M16.878 4.39q.016.065.1.14c-.066-.09-.1-.14-.1-.14m8.34-1.465a3 3 0 0 0-.398.231c.247-.15.399-.231.399-.231m-4.53 4.092a.5.5 0 0 1 .314-.03l.032-.089-.33.023z" clip-rule="evenodd"/><mask id="e" width="13" height="13" x="14" y="0" maskUnits="userSpaceOnUse" style="mask-type:luminance"><path fill="#fff" d="M26.512.059h-12v12h12z"/><path fill="#000" fill-rule="evenodd" d="M20.404 2.059c.827 1.134 1.166 2.475 1.196 3.839.934-1.266 2.492-2.3 3.22-2.742-.668.468-1.015 1.16-1.406 1.94-.192.383-.394.787-.65 1.195a14.6 14.6 0 0 1 3.173-.719c-1.06.301-2.039.916-2.99 1.513-.346.218-.69.433-1.032.63 3.072 1.157 3.545 2.83 3.545 2.83-.377-.332-1.19-.688-2.724-1.36l-.963-.422c.23.843.507 1.504.772 2.134l.08.187s-2.126-.574-2.53-2.222a11.2 11.2 0 0 1-3.085 1.72s1.439-1.563 2.496-2.6c-1.388-.157-3.994-.285-3.994-.285l.185-.044c1.048-.25 2.67-.636 4.155-.616a9.5 9.5 0 0 1-2.874-2.507c.254.224.96.505 1.924.888.407.161.86.341 1.343.543.092-1.684.159-3.902.159-3.902M16.878 4.39q.016.065.1.14c-.066-.09-.1-.14-.1-.14m8.34-1.465a3 3 0 0 0-.398.231c.247-.15.399-.231.399-.231m-4.53 4.092a.5.5 0 0 1 .314-.03l.032-.089-.33.023z" clip-rule="evenodd"/></mask><g mask="url(#e)"><path fill="#fff" d="m21.601 5.899-.35.007.023 1.025.609-.825zm-1.197-3.84.283-.206-.602-.826-.03 1.022zm2.361 4.233-.296-.186-.537.857.952-.342zm3.173-.719.096.337-.128-.685zm-2.99 1.512-.186-.296-.007.005-.007.005zm0 0 .188.296.007-.004.006-.005zm0 0 .186.297.002-.001zm-1.032.631-.175-.303-.641.37.693.26zm3.544 2.83-.231.263.892.787-.324-1.145zm-3.686-1.783.141-.32-.671-.296.192.708zm.851 2.322-.091.338.691.187-.277-.66zm-2.53-2.222.34-.083-.13-.534-.428.344zm-3.084 1.719-.258-.237.375.566zm2.496-2.6.245.25.525-.515-.731-.082zm-3.994-.284-.081-.34.063.69zm4.34-.66-.005.35.176-.655zm.393-1.077-.135.324.457.19.027-.494zm-3.367-1.57.292-.193-.633.27zm8.34-1.465.167.307-.317-.623zm-4.53 4.092-.345-.052-.095.63.583-.258zm.314-.03-.077.341.303.068.104-.293zm.032-.089.327.126.198-.513-.549.038zm-.33.023-.025-.35-.28.02-.042.278zM21.95 5.89c-.031-1.416-.384-2.832-1.264-4.038l-.565.413c.774 1.062 1.1 2.328 1.13 3.64zm2.689-3.033c-.733.445-2.343 1.508-3.32 2.833l.563.415c.89-1.206 2.396-2.21 3.12-2.65zm-.912 2.396c.398-.795.71-1.402 1.294-1.81l-.401-.574c-.753.527-1.136 1.306-1.519 2.07zm-.666 1.223c.266-.424.475-.842.666-1.223l-.626-.313a14 14 0 0 1-.633 1.165zm2.876-.904-.032-.348H25.9l-.015.002a7 7 0 0 0-.264.03 15 15 0 0 0-.735.117 14.4 14.4 0 0 0-2.239.588l.237.659a14 14 0 0 1 2.127-.559 14 14 0 0 1 .956-.14h.003zm-2.804 1.81c.96-.603 1.896-1.188 2.9-1.473l-.191-.674c-1.118.317-2.139.962-3.08 1.553zm-1.043.636c.349-.2.697-.42 1.043-.637l-.372-.593c-.348.219-.685.43-1.02.624zm3.37 2.527.336-.095v-.002l-.001-.003-.003-.008a1 1 0 0 0-.033-.094 2 2 0 0 0-.112-.24 4 4 0 0 0-.547-.772c-.543-.609-1.477-1.347-3.061-1.943l-.247.655c1.488.56 2.325 1.237 2.786 1.754.231.26.37.481.45.632a2 2 0 0 1 .094.209l.002.006v-.002l-.001-.001zm-2.864-1.04c.77.338 1.349.592 1.783.803.44.213.7.368.849.5l.463-.525c-.227-.2-.563-.39-1.006-.605a56 56 0 0 0-1.808-.813zm-.964-.422.964.423.28-.641-.962-.423zm1.236 1.678c-.265-.63-.535-1.272-.757-2.09l-.676.183c.236.869.523 1.548.788 2.178zm.079.187-.079-.187-.645.271.079.188zm-3.192-2.003c.234.957.96 1.576 1.576 1.946a5.4 5.4 0 0 0 1.192.528l.007.002h.003l.091-.337.092-.338h-.003l-.014-.005-.06-.018a4.7 4.7 0 0 1-.948-.432c-.548-.33-1.087-.82-1.256-1.512zm-2.628 1.965a11.5 11.5 0 0 0 3.187-1.775l-.438-.546a10.8 10.8 0 0 1-2.984 1.662zm2.134-3.178a68 68 0 0 0-1.654 1.697 117 117 0 0 0-.79.845l-.048.051-.013.014-.003.003v.002l.256.237.258.237v-.001q.003 0 .004-.003l.012-.014.047-.05a96 96 0 0 1 .786-.84 67 67 0 0 1 1.635-1.679zm-3.75-.035-.017.35h.008l.022.001.397.02c.266.015.634.036 1.045.062a55 55 0 0 1 2.5.2l.079-.696c-.703-.08-1.71-.151-2.535-.203a131 131 0 0 0-1.451-.082l-.023-.001h-.007zm.105-.385-.185.044.162.681.185-.044zm4.24-.625c-1.536-.02-3.2.377-4.24.625l.162.681c1.055-.251 2.634-.625 4.07-.606zm-3.16-1.95a9.85 9.85 0 0 0 2.985 2.605l.342-.61a9.15 9.15 0 0 1-2.764-2.411zm2.335.355a36 36 0 0 1-1.215-.498c-.334-.148-.526-.255-.606-.327l-.464.525c.173.153.462.298.785.442.337.15.762.318 1.241.509zm1.349.545a87 87 0 0 0-1.35-.545l-.258.65c.407.162.858.341 1.338.542zm.023-3.579-.35-.01v.025l-.002.073-.01.274a153 153 0 0 1-.146 3.522l.7.038a153 153 0 0 0 .146-3.537l.01-.275q0-.048.002-.074V2.07zm-3.866 2.41a.63.63 0 0 0 .209.324l.464-.525-.014-.013a.2.2 0 0 1 .024.058zm.722-.147-.069-.095-.016-.024-.004-.005-.292.193-.292.193.001.001.002.003.027.04.08.11zm7.809-1.712q-.242.116-.448.26l.4.574q.16-.111.35-.203zm-.066.846a12 12 0 0 1 .378-.22l.004-.002-.165-.308-.167-.308-.002.001-.029.016-.082.046q-.11.06-.3.177zm-4.11 3.17a.85.85 0 0 0-.345.072l.284.64a.2.2 0 0 1 .06-.013zm.186.02a1 1 0 0 0-.187-.02v.7q.018 0 .034.003zm.254.458.029-.079-.653-.252-.037.098zm-.322-.554-.331.023.048.698.331-.023zm-.653.32-.014.096.692.104.014-.096z"/></g><path fill="#F50100" fill-rule="evenodd" d="M24.284 15.817v-.18q-.79-.682-1.655-.682-.829-.442-1.678-.343v-.003c-.85-.1-1.708.346-1.708.346-.865 0-1.655.682-1.655.682v.18l1.033 1.249s.29 1.201 2.326.919v.003s1.348-.044 1.443-.082l.116-.043c.264-.093.566-.199.745-.797zm-3.337-1.15c-.029.416-.197 2.921 0 3.31z" clip-rule="evenodd"/><path fill="#FECA00" fill-rule="evenodd" d="M19.266 14.418c.11-.405.303-.543.77-.543q.436.001.664.242V15.2h.082v.128c-.065.048-.099.151-.077.262q.011.057.037.102a.3.3 0 0 0-.114-.019c-.141 0-.256.083-.256.185s.115.185.256.185.256-.083.256-.185c0 .051.03.098.076.131h-.129c0 .279-.118.456-.295.456-.124 0-.21-.068-.274-.218l-.175-.416-.018.466c-.007.164-.066.23-.214.23-.143 0-.246-.107-.316-.347q.031.006.065.006c.142 0 .256-.083.256-.185s-.114-.185-.256-.185a.4.4 0 0 0-.08.01.3.3 0 0 0 .008-.163c-.027-.14-.13-.236-.23-.216s-.16.147-.133.286q.011.057.037.103a.3.3 0 0 0-.114-.02c-.141 0-.256.083-.256.185s.115.185.256.185c.115 0 .212-.054.244-.13l-.008.11c-.022.306-.092.45-.195.47q-.21.04-.32-.034l-.152-.098v.167a.7.7 0 0 1-.24-.034l-.018.097-.188-.213a.3.3 0 0 0 .187-.037c.124-.066.187-.193.139-.283s-.188-.11-.313-.043a.4.4 0 0 0-.07.049.3.3 0 0 0-.013-.062c-.041-.135-.154-.22-.251-.19a.16.16 0 0 0-.097.093l-.076-.086-.07.09.128.145a.4.4 0 0 0 .013.056c.035.117.124.197.21.197l.376.424-.001.004.005.002.208.235.082.187c.025.123.063.258.117.34a.3.3 0 0 1 .007.06c0 .128.275.203.81.28.42.061.916.102 1.322.108h.103c.405-.005.9-.047 1.32-.107.536-.078.811-.153.811-.28 0-.084.069-.284.206-.588l.94-1.063-.07-.09-.235.265.004-.012c.041-.135-.005-.268-.102-.298-.098-.03-.21.055-.252.19a.4.4 0 0 0-.013.062.3.3 0 0 0-.07-.049c-.124-.066-.265-.047-.312.043-.048.09.014.217.139.284s.265.047.313-.043l.007-.016a.14.14 0 0 0 .13.015l-.365.414-.032-.18a.7.7 0 0 1-.24.034v-.167l-.152.098q-.11.075-.32.034c-.104-.02-.173-.164-.196-.47l-.002-.025a.3.3 0 0 0 .124.043c.14.02.265-.047.28-.148.014-.1-.088-.199-.228-.218a.4.4 0 0 0-.093-.001.3.3 0 0 0 .035-.169c-.007-.141-.096-.251-.198-.246-.101.005-.178.124-.17.265a.3.3 0 0 0 .017.094.3.3 0 0 0-.098-.03c-.14-.019-.265.047-.28.148-.014.101.088.2.228.219a.3.3 0 0 0 .206-.04l-.02.082c-.07.268-.177.386-.328.386-.148 0-.207-.065-.213-.229l-.019-.466-.175.416c-.063.15-.15.218-.274.218-.168 0-.284-.16-.294-.417q.046.015.1.015c.142 0 .256-.083.256-.185s-.114-.185-.256-.185a.4.4 0 0 0-.08.01.3.3 0 0 0 .008-.164.3.3 0 0 0-.068-.146h.191v-1.237q.229-.241.663-.242c.469 0 .661.138.77.543.07.258.003.479-.217.684l.125.195c.246-.23.355-.504.317-.808q.79-.03 1.179.198c.225.132.266.468.096 1.052l.193.081c.2-.687.143-1.153-.2-1.354q-.451-.266-1.322-.222l.001.018c-.146-.457-.42-.633-.942-.633q-.397 0-.663.186v-.063h-.41v.109q-.282-.252-.744-.251c-.51 0-.784.169-.933.605l.004-.094q-.87-.043-1.323.221c-.342.202-.4.668-.199 1.355l.193-.082c-.17-.583-.129-.919.096-1.051q.39-.23 1.186-.198c-.08.345.024.656.298.912l.125-.195c-.22-.206-.288-.426-.218-.684m1.618 1.44a.1.1 0 0 1 .01-.05l-.021-.005a.14.14 0 0 1 .011.055m-1.54.087-.007-.018.007.002zm4.066.933c-.167.036-.288.032-.353-.03a.7.7 0 0 1-.353.011c-.143-.028-.244-.143-.304-.334a.47.47 0 0 1-.297.22c.655.111 1.114.268 1.114.268s-.011.117-.038.255q.043-.108.103-.24l.01-.016zm-1.616-.18a.36.36 0 0 1-.136-.148.44.44 0 0 1-.166.114q.155.014.302.034m-.663-.058a.5.5 0 0 1-.196-.207.5.5 0 0 1-.194.206l.141-.004h.083q.082 0 .166.005m-2.472.364-.096-.108c.115.013.2 0 .25-.049q.15.053.353.012c.144-.028.244-.143.304-.334q.115.177.287.217a8 8 0 0 0-1.098.262m1.715-.342q-.15.014-.291.032a.36.36 0 0 0 .129-.144q.072.076.162.112m2.519 1.023c.072.04.13 0 .174-.077l-.007.058-.027.016a1 1 0 0 1-.152.054 5 5 0 0 1-.542.104c-.434.063-.95.104-1.36.107-.41-.003-.926-.044-1.36-.107a5 5 0 0 1-.541-.104 1 1 0 0 1-.135-.045l.011-.006c.224-.126 1.703-.244 1.97-.264.266.02 1.745.138 1.969.264m.297-.022-.001.001z" clip-rule="evenodd"/><path fill="#fff" d="m19.132 14.037-.002.123c-.907-.02-1.428.14-1.56.458q-.207.492.08 1.203l-.092.053q-.309-.76-.08-1.311c.157-.378.708-.546 1.654-.526"/><path fill="#fff" d="m19.308 15.13-.052.105q-.297-.215-.297-.719c0-.48.206-.762.66-.954q.435-.184 1.19.147l-.034.116q-.726-.316-1.122-.147c-.417.177-.592.416-.592.838 0 .294.083.495.247.613m3.397-.967.002.123c.908-.02 1.429.14 1.56.458q.208.492-.08 1.203l.093.053q.307-.76.08-1.311c-.158-.378-.709-.546-1.655-.526"/><path fill="#fff" d="m22.386 15.157.053.105q.297-.215.296-.718c0-.48-.205-.762-.66-.955q-.434-.183-1.19.147l.035.116q.725-.314 1.121-.147c.417.177.592.417.592.839 0 .293-.082.494-.247.613"/></g></g></g><defs><clipPath id="a"><path fill="#fff" d="M0 0h32v24H0z"/></clipPath></defs></svg>