<svg xmlns="http://www.w3.org/2000/svg" width="32" height="24" fill="none" viewBox="0 0 32 24"><g clip-path="url(#a)"><mask id="b" width="32" height="24" x="0" y="0" maskUnits="userSpaceOnUse" style="mask-type:luminance"><path fill="#fff" d="M32 0H0v24h32z"/></mask><g mask="url(#b)"><path fill="#fff" d="M32 0H0v24h32z"/><path fill="#F7FCFF" fill-rule="evenodd" d="M0 0v24h32V0z" clip-rule="evenodd"/><mask id="c" width="32" height="24" x="0" y="0" maskUnits="userSpaceOnUse" style="mask-type:luminance"><path fill="#fff" fill-rule="evenodd" d="M0 0v24h32V0z" clip-rule="evenodd"/></mask><g fill-rule="evenodd" clip-rule="evenodd" mask="url(#c)"><path fill="#5EAA22" d="M0 0v8h32V0z"/><path fill="#E31D1C" d="M0 16v8h32v-8z"/><path fill="#F7FCFF" d="M4.6 16.39v.634H2.27v-.633zM.567 17.984H.359v-.253h.454v.887h.58v.006h.561v-1.841h-.358v1.208H1.54v-1.304h-.358v1.297h-.01v-1.297H.813v.41H0v1.52h.566zm1.5.355h.36v-.628h.4v.913H3.95v-1.546h-.577v.634h.218v.279h-.408v-.914H2.067zm2.292-.355h.207v.634H4v-1.521h.814v-.41h.359v1.297h.01v-1.297h.358v1.304h.055v-1.208h.36v1.842h-.562v-.007h-.58v-.887h-.455zM8.6 16.39v.634H6.27v-.634zm-2.534 1.947h.359v-.628h.4v.913H7.95v-1.546h-.577v.634h.219v.279h-.408v-.914H6.066zm2.364-.355h.207v.634H8.07v-1.521h.814v-.41h.36v1.297h.008v-1.297h.36v1.304h.055v-1.208h.358v1.842h-.561v-.007h-.58v-.887H8.43zm4.242-1.592v.634H10.34v-.634zm-2.535 1.947h.36v-.628h.4v.913h1.125v-1.546h-.578v.634h.219v.279h-.408v-.914h-1.118zm2.292-.355h.207v.634h-.566v-1.521h.814v-.41h.359v1.297h.01v-1.297h.358v1.304h.055v-1.208h.36v1.842h-.562v-.007h-.58v-.887h-.455zm4.242-1.592v.634h-2.33v-.634zm-2.534 1.947h.359v-.628h.4v.913h1.125v-1.546h-.577v.634h.219v.279h-.408v-.914h-1.118zm2.292-.355h.207v.634h-.566v-1.521h.814v-.41h.359v1.297h.009v-1.297h.359v1.304h.055v-1.208h.359v1.842h-.562v-.007h-.58v-.887h-.454zm4.242-1.592v.634h-2.33v-.634zm-2.534 1.947h.359v-.628h.4v.913h1.125v-1.546h-.577v.634h.218v.279h-.408v-.914h-1.117zm2.363-.355h.207v.634h-.566v-1.521h.814v-.41h.359v1.297h.01v-1.297h.358v1.304h.055v-1.208h.359v1.842h-.561v-.007h-.58v-.887H20.5zm4.242-1.592v.634h-2.33v-.634zm-2.534 1.947h.359v-.628h.4v.913h1.125v-1.546h-.577v.634h.219v.279h-.408v-.914h-1.118zm2.364-.355h.207v.634h-.567v-1.521h.814v-.41h.359v1.297h.01v-1.297h.358v1.304h.055v-1.208h.36v1.842h-.562v-.007h-.58v-.887h-.454zm4.242-1.592v.634h-2.331v-.634zm-2.535 1.947h.36v-.628h.4v.913h1.124v-1.546h-.577v.634h.219v.279h-.408v-.914h-1.118zm2.364-.355h.207v.634h-.566v-1.521h.813v-.41h.36v1.297h.008v-1.297h.36v1.304h.055v-1.208h.358v1.842h-.561v-.007h-.58v-.887h-.454zm4.242-1.592v.634h-2.331v-.634zm-2.534 1.947h.358v-.628h.4v.913h1.126v-1.546h-.577v.634h.218v.279h-.408v-.914h-1.117zm2.291-.355h.207v.634h-.566v-1.521h.814v-.41h.359v1.297h.01v-1.297h.358v1.304h.055v-1.208h.36v1.842h-.562v-.007h-.58v-.887h-.455zm4.243-1.592v.634h-2.331v-.634zm-2.535 1.947h.359v-.628h.4v.913h1.125v-1.546h-.577v.634h.219v.279h-.408v-.914H34.35zm2.506-.355h.207v.634h-.566v-1.521h.814v-.41h.359v1.297h.01v-1.297h.358v1.304h.055v-1.208h.36v1.842h-.562v-.007h-.58v-.887h-.455zM41.1 16.39v.634h-2.331v-.634zm-2.535 1.947h.36v-.628h.4v.913h1.125v-1.546h-.578v.634h.219v.279h-.408v-.914h-1.118zM.484 5.39v.635h-2.33V5.39zM-3.55 6.984h-.206V6.73h.454v.887h.58v.007h.561V5.782h-.359V6.99h-.055V5.686h-.359v1.297h-.01V5.686h-.358v.41h-.813v1.52h.565zm1.501.355h.359V6.71h.4v.913h1.125V6.077h-.577v.634h.219v.278h-.408v-.913H-2.05zm2.292-.355H.45v.634h-.566V6.096h.814v-.41h.359v1.297h.01V5.686h.358V6.99h.055V5.782h.359v1.842h-.562v-.007h-.58V6.73H.242zM4.484 5.39v.633h-2.33V5.39zM1.95 7.338h.359V6.71h.4v.913h1.125V6.077h-.577v.634h.218v.278h-.407v-.913H1.95zm2.363-.355h.207v.634h-.566V6.096h.814v-.41h.359v1.297h.01V5.686h.358V6.99h.055V5.782h.36v1.842h-.562v-.007h-.58V6.73h-.455zM8.555 5.39v.633h-2.33V5.39zM6.021 7.338h.359V6.71h.4v.913h1.125V6.077h-.577v.634h.219v.278h-.408v-.913H6.02zm2.292-.355h.207v.634h-.566V6.096h.814v-.41h.359v1.297h.009V5.686h.359V6.99h.055V5.782h.359v1.842h-.562v-.007h-.58V6.73h-.454zm4.242-1.592v.633h-2.33v-.633zm-2.534 1.947h.359V6.71h.4v.913h1.125V6.077h-.577v.634h.218v.278h-.407v-.913H10.02zm2.292-.355h.207v.634h-.566V6.096h.814v-.41h.358v1.297h.01V5.686h.359V6.99h.055V5.782h.359v1.842h-.562v-.007h-.58V6.73h-.454zm4.242-1.592v.633h-2.33v-.633zM14.02 7.338h.358V6.71h.4v.913h1.126V6.077h-.577v.634h.218v.278h-.408v-.913H14.02zm2.363-.355h.207v.634h-.566V6.096h.814v-.41h.359v1.297h.009V5.686h.359V6.99h.055V5.782h.359v1.842h-.562v-.007h-.58V6.73h-.454zm4.242-1.592v.633h-2.33v-.633zm-2.534 1.947h.359V6.71h.4v.913h1.125V6.077H19.4v.634h.218v.278h-.408v-.913h-1.117zm2.363-.355h.207v.634h-.566V6.096h.814v-.41h.359v1.297h.01V5.686h.358V6.99h.055V5.782h.359v1.842h-.561v-.007h-.58V6.73h-.455zm4.242-1.592v.633h-2.33v-.633zm-2.534 1.947h.359V6.71h.4v.913h1.125V6.077h-.577v.634h.219v.278h-.408v-.913h-1.118zm2.364-.355h.206v.634h-.566V6.096h.814v-.41h.359v1.297h.01V5.686h.358V6.99h.056V5.782h.358v1.842h-.561v-.007h-.58V6.73h-.454zm4.241-1.592v.633h-2.33v-.633zm-2.534 1.947h.36V6.71h.4v.913h1.125V6.077h-.578v.634h.219v.278h-.408v-.913h-1.118zm2.292-.355h.207v.634h-.566V6.096h.814v-.41h.359v1.297h.01V5.686h.358V6.99h.055V5.782h.359v1.842h-.561v-.007h-.58V6.73h-.455zm4.242-1.592v.633h-2.33v-.633zm-2.534 1.947h.359V6.71h.4v.913h1.125V6.077h-.577v.634h.218v.278h-.407v-.913h-1.118zm2.506-.355h.207v.634h-.566V6.096h.814v-.41h.359v1.297h.01V5.686h.358V6.99h.055V5.782h.359v1.842h-.561v-.007h-.58V6.73h-.455zm4.242-1.592v.633h-2.33v-.633zm-2.534 1.947h.359V6.71h.4v.913h1.125V6.077h-.577v.634h.219v.278h-.408v-.913h-1.118z"/><path fill="#E31D1C" d="M14.606 8.25s.427.225.865.225c.437 0 .877-.225.877-.225v.3s-.48.225-.906.225c-.425 0-.836-.225-.836-.225zm-3.15 3.54c0-1.777 2.442-2.94 2.442-2.94s-1.411.756-1.411 2.866.732 3.024.732 3.024-1.763-1.171-1.763-2.95m8.238-.097c0-1.779-2.44-2.843-2.44-2.843s1.412.756 1.412 2.866-.733 3.024-.733 3.024 1.76-1.27 1.76-3.047m-6.57.485c-.094-1.776 1.383-3.367 1.383-3.367s-.537.73-.427 2.838c.038.723.323 1.8.682 2.434V8.925h1.5v5.203c.36-.593.636-1.603.675-2.337.11-2.107-.402-2.98-.402-2.98s1.477 1.591 1.384 3.367c-.055 1.057-.869 2.175-1.518 2.907.316.07.738.156 1.32.27.012.065-.118.062-.375.056a8 8 0 0 0-1.3.056c-.266.272-.45.433-.45.433l-.075-.094-.074.094s-.184-.16-.45-.433a8 8 0 0 0-1.3-.056c-.258.006-.387.01-.375-.055.581-.115 1.004-.2 1.32-.27-.65-.733-1.463-1.85-1.519-2.908"/></g></g></g><defs><clipPath id="a"><path fill="#fff" d="M0 0h32v24H0z"/></clipPath></defs></svg>