<svg xmlns="http://www.w3.org/2000/svg" width="32" height="24" fill="none" viewBox="0 0 32 24"><g clip-path="url(#a)"><mask id="b" width="32" height="24" x="0" y="0" maskUnits="userSpaceOnUse" style="mask-type:luminance"><path fill="#fff" d="M32 0H0v24h32z"/></mask><g mask="url(#b)"><path fill="#fff" d="M32 0H0v24h32z"/><path fill="#F7FCFF" fill-rule="evenodd" d="M0 0h32v24H0z" clip-rule="evenodd"/><path fill="#F7FCFF" stroke="#E31D1C" stroke-width="2.7" d="M-2.701 1.247-4.75.007v24.789l2.049-1.24 16.537-10 1.91-1.154-1.91-1.155z"/><path fill="#F7FCFF" stroke="#E31D1C" stroke-width="2.7" d="M34.921 1.232 36.95.055v24.69l-2.028-1.178-17.218-10-2.01-1.167 2.01-1.168z"/><path fill="#E31D1C" fill-rule="evenodd" d="M13.675 4.702s-.859 3.798 2.106 5.257c0 0 2.846-1.551 2.207-5.257 0 0-1.222-.409-2.194-.409s-2.119.409-2.119.409" clip-rule="evenodd"/><path fill="#FFD100" fill-rule="evenodd" d="M13.982 5.498s.317-.14.474 0 .286-.012.286-.096c0-.085.249-.376.249-.14s-.078.37.142.37 1.205-.327 1.442-.23c.236.096.417.072.357-.066s-.215-.225-.512-.15-.228.15-.485.15-.543-.074-.543-.074.08-.124.374-.036c.293.089.698-.109.809-.109.11 0 .413-.006.443.07.03.075.213.144.073.215-.139.07-.37.114-.21.204.157.09.521.073.54.167.017.093.19.233.12.233s-.195.132-.311.092c-.117-.04-.13-.075-.018-.108.111-.032.11-.17.018-.17s-.047.049-.257 0c-.21-.047-.488-.1-.47 0 .016.102.152.257-.1.278-.252.02-.37.104-.419.037s-.224-.156-.086-.185.27.097.32.077.161-.032.067-.12c-.094-.086-.25-.138-.106-.203s.03-.066-.244.069-.427.25-.668.233-.332.006-.409-.016c-.078-.022-.455.242-.564.175s-.459-.093-.396-.175.148-.125.243-.082c.094.042.188.085.252.042.063-.042.247-.188.2-.217-.045-.029 0-.127-.263-.127-.261 0-.354.11-.416.04-.062-.068.068-.148.068-.148m.263 1.247s.278-.123.416 0 .251-.01.251-.085c0-.074.22-.33.22-.122 0 .207-.069.324.124.324.192 0 1.06-.286 1.268-.202.208.085.367.064.314-.058-.053-.121-.189-.197-.45-.13-.262.066-.2.13-.426.13-.227 0-.478-.064-.478-.064s.07-.11.329-.032c.258.078.614-.096.71-.096.098 0 .364-.005.39.061.027.067.188.128.065.19-.123.061-.325.1-.186.18.14.078.46.063.475.145.015.083.167.206.106.206-.06 0-.17.116-.273.08-.103-.035-.115-.066-.016-.094.098-.029.097-.15.016-.15s-.042.043-.226 0-.429-.088-.414 0c.015.09.135.226-.087.245-.221.018-.325.09-.368.032-.043-.059-.198-.137-.076-.163.12-.025.237.086.28.068s.143-.028.06-.105c-.083-.076-.22-.121-.093-.179s.027-.058-.214.06c-.242.12-.376.22-.588.206s-.291.005-.36-.014c-.068-.02-.4.212-.495.153s-.404-.081-.348-.153c.055-.073.13-.11.213-.073s.165.075.221.037c.056-.037.218-.165.177-.19-.04-.026-.001-.112-.231-.112s-.312.096-.366.036c-.055-.06.06-.131.06-.131m.37 1.267s.211-.094.316 0c.104.093.19-.008.19-.064 0-.057.166-.25.166-.093s-.052.246.095.246c.146 0 .803-.218.96-.153.159.064.28.048.24-.044s-.144-.15-.342-.1-.152.1-.323.1-.363-.05-.363-.05.054-.082.25-.023c.195.058.466-.073.539-.073s.276-.004.296.046.142.097.049.144-.247.076-.141.136c.105.06.348.048.36.11.011.063.126.157.08.157s-.13.088-.207.06c-.078-.026-.087-.05-.013-.071.075-.022.074-.113.013-.113-.062 0-.032.032-.172 0s-.325-.068-.313 0c.01.067.102.171-.066.185s-.247.069-.28.024c-.032-.044-.15-.104-.057-.123.092-.019.18.065.213.051.033-.013.108-.021.045-.08-.063-.057-.167-.091-.07-.135.096-.043.02-.044-.163.046s-.285.166-.446.156c-.16-.011-.22.003-.273-.011-.051-.015-.303.161-.375.116-.073-.044-.306-.061-.264-.116s.098-.083.161-.055.126.056.168.028.165-.125.134-.145c-.03-.019 0-.084-.175-.084s-.236.073-.278.027c-.041-.046.046-.1.046-.1" clip-rule="evenodd"/></g></g><defs><clipPath id="a"><path fill="#fff" d="M0 0h32v24H0z"/></clipPath></defs></svg>