<svg xmlns="http://www.w3.org/2000/svg" width="32" height="24" fill="none" viewBox="0 0 32 24"><g clip-path="url(#a)"><mask id="b" width="32" height="24" x="0" y="0" maskUnits="userSpaceOnUse" style="mask-type:luminance"><path fill="#fff" d="M32 0H0v24h32z"/></mask><g mask="url(#b)"><path fill="#fff" d="M32 0H0v24h32z"/><path fill="#0067C3" fill-rule="evenodd" d="M0 0h32v24H0z" clip-rule="evenodd"/><path fill="#272727" fill-rule="evenodd" d="M0 0v8h32V0z" clip-rule="evenodd"/><path fill="#4E8B1D" fill-rule="evenodd" d="M0 16v8h32v-8z" clip-rule="evenodd"/><path fill="#E31D1C" stroke="#F7FCFF" stroke-width="2" d="M0 7h-1v10h34V7z"/><path fill="#AC2317" d="M16 20c2.21 0 4-3.582 4-8s-1.79-8-4-8-4 3.582-4 8 1.79 8 4 8"/><path fill="#fff" d="M19.623 4.03q.343-.615 1.842-1.345a.14.14 0 0 1 .111-.002c.06.025.085.088.055.14l-10.357 18.63-.54-.23L19.864 4.8q-.62-.088-.24-.77"/><path fill="#fff" d="M12.365 4.03q.379.682-.241.77l9.13 16.421-.54.23L10.358 2.825c-.03-.053-.005-.116.055-.141a.14.14 0 0 1 .111.002q1.5.73 1.842 1.346"/><path fill="#000" fill-rule="evenodd" d="M19.385 16.265c.39-1.234.615-2.697.615-4.265s-.226-3.031-.615-4.266C18.507 8.97 18 10.432 18 12s.508 3.03 1.385 4.265m-6.77-8.531C12.225 8.97 12 10.432 12 12s.226 3.03.615 4.265C13.492 15.031 14 13.568 14 12s-.508-3.031-1.385-4.266" clip-rule="evenodd"/><path fill="#F7FCFF" fill-rule="evenodd" d="M16.24 11.4c.548-.34.96-1.827.96-3.61s-.412-3.269-.96-3.61zm-.6-.094c-.487-.47-.84-1.866-.84-3.516s.353-3.046.84-3.515zm0 1.495v7.031c-.487-.47-.84-1.866-.84-3.515s.353-3.047.84-3.516m.358 7.2h.003zm.242-.074v-7.221c.548.341.96 1.828.96 3.61 0 1.783-.412 3.27-.96 3.611" clip-rule="evenodd"/><path fill="#F7FCFF" d="M16 11.473c.663 0 1.2.471 1.2 1.052s-.537 1.053-1.2 1.053-1.2-.471-1.2-1.053c0-.581.537-1.052 1.2-1.052"/></g></g><defs><clipPath id="a"><path fill="#fff" d="M0 0h32v24H0z"/></clipPath></defs></svg>