<svg xmlns="http://www.w3.org/2000/svg" width="32" height="24" fill="none" viewBox="0 0 32 24"><g clip-path="url(#a)"><mask id="b" width="32" height="24" x="0" y="0" maskUnits="userSpaceOnUse" style="mask-type:luminance"><path fill="#fff" d="M32 0H0v24h32z"/></mask><g mask="url(#b)"><path fill="#fff" d="M32 0H0v24h32z"/><path fill="#C51918" fill-rule="evenodd" d="M0 0v24h32V0z" clip-rule="evenodd"/><mask id="c" width="32" height="24" x="0" y="0" maskUnits="userSpaceOnUse" style="mask-type:luminance"><path fill="#fff" fill-rule="evenodd" d="M0 0v24h32V0z" clip-rule="evenodd"/></mask><g mask="url(#c)"><path fill="#FFDC17" fill-rule="evenodd" d="M15.982 17.867q.161 0 .32-.009l.617 1.968.143-2.056a6 6 0 0 0 .607-.142l1.058 1.773-.339-2.034a6 6 0 0 0 .557-.278l1.443 1.485-.803-1.903q.249-.187.477-.398l1.75 1.116-1.224-1.669q.198-.237.372-.495l1.962.685-1.578-1.342q.138-.277.248-.568l2.066.217-1.847-.944q.07-.3.109-.61l2.061-.261-2.017-.497a6 6 0 0 0-.035-.619l1.944-.725-2.075-.022a6 6 0 0 0-.178-.595l1.72-1.149-2.022.453a6 6 0 0 0-.314-.54l1.406-1.51-1.86.903a6 6 0 0 0-.431-.454l1.016-1.79-1.6 1.303a6 6 0 0 0-.525-.345l.572-1.97-1.25 1.63a6 6 0 0 0-.594-.215l.098-2.046-.838 1.871a6 6 0 0 0-.628-.073L15.99 4l-.38 2.011a6 6 0 0 0-.63.072l-.837-1.869.098 2.041a6 6 0 0 0-.596.215l-1.248-1.625.57 1.963q-.275.16-.53.346l-1.593-1.296 1.011 1.78a6 6 0 0 0-.436.458L9.57 7.2l1.397 1.5a6 6 0 0 0-.318.546l-2.009-.45 1.709 1.14q-.107.296-.182.604l-2.06.022 1.93.72a6 6 0 0 0-.036.627l-2.002.494 2.047.259q.04.315.11.618l-1.834.938 2.053-.216q.11.296.251.575L9.057 15.91l1.95-.68q.176.26.378.5l-1.218 1.659 1.742-1.11a6 6 0 0 0 .482.4l-.8 1.895 1.437-1.48q.274.154.562.28l-.338 2.027 1.055-1.77q.3.087.61.142l.143 2.053.617-1.967q.152.008.305.008m4.5-5.951c0 2.484-2.03 4.499-4.536 4.499s-4.536-2.014-4.536-4.5c0-2.484 2.031-4.498 4.536-4.498s4.536 2.014 4.536 4.499M19.11 13.38c.19-.425.295-.896.295-1.392 0-.485-.1-.945-.282-1.363a5.4 5.4 0 0 0-1.984.525c1.195.523 1.735 1.383 1.971 2.23m-.385.658q-.147.196-.32.37c-.064-1.18-.569-2.08-1.474-3.052 1.12.537 1.753 1.821 1.794 2.682m-.858.811a3 3 0 0 1-.195.12c-.269-1.327-.779-2.373-1.488-3.21l.172-.13.07-.051c.908 1.044 1.48 1.94 1.44 3.271m-1.891.568c.402 0 .788-.07 1.147-.197-.26-1.262-.715-2.437-1.372-3.286q-1.178 1.402-1.2 3.174c.434.199.917.31 1.425.31m-.66-3.889.078.064q-1.255 1.428-1.372 3.214a3 3 0 0 1-.296-.23c.315-1.258.838-2.296 1.59-3.048m-2.498-.88c.786.089 1.407.28 1.872.501-1.186.504-1.652 1.315-1.887 2.143a3.4 3.4 0 0 1-.257-1.304c0-.476.097-.928.272-1.34m.43 3.419-.077-.105c.06-.87.613-2.102 1.73-2.61-.75.727-1.31 1.556-1.653 2.715m.254-4.454a3.42 3.42 0 0 1 2.474-1.054c.957 0 1.822.391 2.444 1.024q-1.47.168-2.483.74c-.6-.345-1.413-.578-2.435-.71" clip-rule="evenodd"/></g></g></g><defs><clipPath id="a"><path fill="#fff" d="M0 0h32v24H0z"/></clipPath></defs></svg>