<svg xmlns="http://www.w3.org/2000/svg" width="32" height="24" fill="none" viewBox="0 0 32 24"><g clip-path="url(#a)"><mask id="b" width="32" height="24" x="0" y="0" maskUnits="userSpaceOnUse" style="mask-type:luminance"><path fill="#fff" d="M32 0H0v24h32z"/></mask><g mask="url(#b)"><path fill="#fff" d="M32 0H0v24h32z"/><path fill="#032EA1" d="M0 0h32v24H0z"/><path fill="#E00025" d="M0 6h32v12H0z"/><path fill="#fff" stroke="#000" stroke-linejoin="bevel" stroke-width="0.06" d="M12.62 11.309h6.827v2.628H12.62z"/><path fill="#fff" fill-rule="evenodd" d="M19.447 11.852H12.62v.276h6.828zm-6.828.42h6.828v.3H12.62zm6.48.486h.21v.99h-.21z" clip-rule="evenodd"/><path fill="#000" d="M12.62 11.85v-.03l-.03.03zm6.828 0h.03l-.03-.03zm-6.828.276h-.03l.03.03zm6.828 0v.03l.03-.03zm0 .144h.03l-.03-.03zm-6.828 0v-.03l-.03.03zm6.828.3v.03l.03-.03zm-6.828 0h-.03l.03.03zm6.69.186h.03l-.03-.03zm-.21 0v-.03l-.03.03zm.21.99v.03l.03-.03zm-.21 0h-.03l.03.03zm-6.48-1.866h6.828v-.06H12.62zm.03.246v-.276h-.06v.276zm6.798-.03H12.62v.06h6.828zm-.03-.246v.276h.06v-.276zm.03.39H12.62v.06h6.828zm.03.33v-.3h-.06v.3zm-6.858.03h6.828v-.06H12.62zm-.03-.33v.3h.06v-.3zm6.72.456h-.21v.06h.21zm.03 1.02v-.99h-.06v.99zm-.24.03h.21v-.06h-.21zm-.03-1.02v.99h.06v-.99z"/><path fill="#fff" stroke="#000" stroke-linejoin="bevel" stroke-width="0.06" d="M12.62 11.441h6.827v.258H12.62z"/><path fill="#fff" fill-rule="evenodd" d="M12.89 12.758h-.21v.99h.21zm1.53 0h.216v.99h-.216zm2.94 0h.216v.99h-.216zm-4.26 0h.21v.99h-.21zm.66 0h-.21v.99h.21zm.24 0h.21v.99H14zm3.984 0h-.216v.99h.216zm.234 0h.216v.99h-.216zm.666 0h-.216v.99h.216z" clip-rule="evenodd"/><path fill="#000" d="M12.68 12.757v-.03l-.03.03zm.21 0h.03l-.03-.03zm-.21.99h-.03l.03.03zm.21 0v.03l.03-.03zm1.746-.99h.03l-.03-.03zm-.216 0v-.03l-.03.03zm.216.99v.03l.03-.03zm-.216 0h-.03l.03.03zm3.156-.99h.03l-.03-.03zm-.216 0v-.03l-.03.03zm.216.99v.03l.03-.03zm-.216 0h-.03l.03.03zm-4.05-.99h.03l-.03-.03zm-.21 0v-.03l-.03.03zm.21.99v.03l.03-.03zm-.21 0h-.03l.03.03zm.45-.99v-.03l-.03.03zm.21 0h.03l-.03-.03zm-.21.99h-.03l.03.03zm.21 0v.03l.03-.03zm.45-.99h.03l-.03-.03zm-.21 0v-.03l-.03.03zm.21.99v.03l.03-.03zm-.21 0h-.03l.03.03zm3.768-.99v-.03l-.03.03zm.216 0h.03l-.03-.03zm-.216.99h-.03l.03.03zm.216 0v.03l.03-.03zm.45-.99h.03l-.03-.03zm-.216 0v-.03l-.03.03zm.216.99v.03l.03-.03zm-.216 0h-.03l.03.03zm.45-.99v-.03l-.03.03zm.216 0h.03l-.03-.03zm-.216.99h-.03l.03.03zm.216 0v.03l.03-.03zm-6.204-.96h.21v-.06h-.21zm.03.96v-.99h-.06v.99zm.18-.03h-.21v.06h.21zm-.03-.96v.99h.06v-.99zm1.776-.03h-.216v.06h.216zm.03 1.02v-.99h-.06v.99zm-.246.03h.216v-.06h-.216zm-.03-1.02v.99h.06v-.99zm3.186-.03h-.216v.06h.216zm.03 1.02v-.99h-.06v.99zm-.246.03h.216v-.06h-.216zm-.03-1.02v.99h.06v-.99zm-4.02-.03h-.21v.06h.21zm.03 1.02v-.99h-.06v.99zm-.24.03h.21v-.06h-.21zm-.03-1.02v.99h.06v-.99zm.48.03h.21v-.06h-.21zm.03.96v-.99h-.06v.99zm.18-.03h-.21v.06h.21zm-.03-.96v.99h.06v-.99zm.48-.03H14v.06h.21zm.03 1.02v-.99h-.06v.99zm-.24.03h.21v-.06H14zm-.03-1.02v.99h.06v-.99zm3.798.03h.216v-.06h-.216zm.03.96v-.99h-.06v.99zm.186-.03h-.216v.06h.216zm-.03-.96v.99h.06v-.99zm.48-.03h-.216v.06h.216zm.03 1.02v-.99h-.06v.99zm-.246.03h.216v-.06h-.216zm-.03-1.02v.99h.06v-.99zm.48.03h.216v-.06h-.216zm.03.96v-.99h-.06v.99zm.186-.03h-.216v.06h.216zm-.03-.96v.99h.06v-.99z"/><path fill="#fff" stroke="#000" stroke-width="0.06" d="M9.95 14.072a.56.56 0 0 0 .263-.318H21.8c.044.136.139.25.264.318z"/><path fill="#fff" fill-rule="evenodd" d="M15.998 7.055c-.144.006-.138.252-.138.252h.27s.006-.252-.132-.252m-.888 3.192v.33h1.776v-.33c.003-.09.052-.136.096-.177.038-.035.072-.068.072-.123 0 0 .024-.18-.03-.264-.06.24-.18.198-.18.096 0-.073.05-.146.154-.298l.05-.074c.048-.072.018-.282-.042-.36-.024.186-.054.27-.132.27-.048 0-.09-.03-.09-.12 0-.073.031-.124.064-.177a.5.5 0 0 0 .056-.111.3.3 0 0 0-.06-.318l-.013.085c-.017.118-.025.167-.089.167-.15-.045-.02-.257.027-.334l.01-.014c.03-.114-.06-.204-.06-.204-.049.156-.06.174-.12.156-.073-.018-.06-.12.023-.204.054-.054.048-.138-.012-.198-.06.12-.156.102-.144.03l.054-.258h-.072l.024-.186h-.954l.024.186h-.066l.048.264c-.006.072-.078.078-.138-.036-.06.06-.066.138-.012.198.084.084.096.186.024.204-.06.018-.072.006-.12-.156 0 0-.096.138-.06.204l.01.016c.05.079.176.282.026.332-.064 0-.071-.05-.089-.167l-.013-.085a.3.3 0 0 0-.066.318q.024.057.055.103c.033.056.065.108.065.185 0 .09-.036.12-.084.12-.078 0-.108-.09-.132-.27-.06.078-.09.288-.042.354l.03.046c.117.177.168.254.168.332 0 .102-.114.144-.18-.096-.048.084-.024.264-.024.264 0 .055.035.087.074.122.045.041.094.087.094.178m.48-2.772.012.15h.78l.018-.15zm.15-.006-.018-.156h.54l-.006.156zm1.68 6.3c0 .126.18.258.3.3h-3.39c.12-.042.24-.174.24-.3V12.31l-.15-.204h3.156l-.156.204z" clip-rule="evenodd"/><path fill="#000" d="M15.86 7.31h-.03v.03h.03zm.138-.253v-.03h-.001zm.132.252v.03h.03V7.31zm-1.02 3.27h-.03v.03h.03zm1.776 0v.03h.03v-.03zm0-.33h-.03zm.168-.3-.03-.004v.004zm-.03-.264.025-.016-.037-.058-.017.067zm-.018-.636.024-.018-.044-.057-.01.072zm-.102-.138-.028-.01zm-.06-.318.022-.02-.041-.044-.01.06zm-.013.085.03.006v-.001zm0 0-.03-.005zm-.089.167-.009.03h.01zm.036-.348.027.017.002-.009zm-.06-.204.021-.02-.035-.036-.015.048zm-.12.156.009-.028h-.002zm.012-.402.021-.02-.029-.03-.019.037zm-.144.03-.03-.006v.001zm.054-.258.03.007.007-.037h-.037zm-.072 0-.03-.003-.004.033h.034zm.024-.186.03.004.004-.034h-.034zm-.954 0v-.03h-.034l.004.034zm.024.186v.03h.034l-.004-.033zm-.066 0v-.03h-.036l.007.036zm.048.264.031.003-.001-.008zm-.138-.036.027-.014-.02-.036-.028.03zm-.012.198-.022.02.001.002zm.024.204-.007-.029h-.001zm-.12-.156.029-.008-.018-.06-.035.051zm-.06.204-.026.015v.001zm.036.348v.032l.01-.003zm-.102-.252.03-.005-.01-.058-.041.042zm-.162.456.03-.004-.01-.071-.044.057zm-.042.354.025-.016v-.001zm.018.282.03-.008-.02-.07-.036.063zm-.024.264h.03v-.004zm.66-2.322-.03.003.003.027h.027zm-.012-.15v-.03h-.032l.002.033zm.792.15v.03h.027l.003-.026zm.018-.15.03.004.004-.034H16.4zm-.678-.162v-.03h-.034l.004.034zm.018.156-.03.004.003.026h.027zm.522-.156.03.002.001-.032h-.03zm-.006.156v.03h.03v-.028zm1.464 6.6v.03l.01-.058zm-3.39 0-.01-.028.01.058zm.24-1.758h.03v-.01l-.006-.007zm-.15-.204v-.03h-.06l.036.048zm3.156 0 .024.019.037-.049h-.06zm-.156.204-.024-.018-.006.008v.01zM15.86 7.31h.03V7.3a.5.5 0 0 1 .014-.106.2.2 0 0 1 .035-.075.08.08 0 0 1 .06-.03l-.002-.06a.14.14 0 0 0-.104.052.3.3 0 0 0-.047.098.5.5 0 0 0-.016.12v.012zm.27-.03h-.27v.06h.27zm-.132-.192q.035 0 .056.028a.2.2 0 0 1 .033.076.5.5 0 0 1 .013.108v.009l.03.001.03.001v-.012a.5.5 0 0 0-.015-.122.3.3 0 0 0-.044-.098.13.13 0 0 0-.103-.05zm-.858 3.492v-.33h-.06v.33zm1.746-.03H15.11v.06h1.776zm-.03-.3v.33h.06v-.33zm.105-.198c-.044.041-.101.094-.105.197l.06.003c.003-.078.043-.115.086-.156zm.063-.102c0 .041-.024.065-.063.102l.041.044c.037-.035.082-.075.082-.146zM17 9.702c.022.034.03.092.03.147a1 1 0 0 1-.004.095v.001l.03.004.029.004v-.002l.001-.006.002-.023.002-.074a.36.36 0 0 0-.04-.179zm-.185.08c0 .03.01.06.027.08a.08.08 0 0 0 .076.03q.045-.01.078-.059a.4.4 0 0 0 .058-.14l-.058-.015a.4.4 0 0 1-.049.12c-.017.025-.032.033-.04.034q-.01.003-.02-.008a.07.07 0 0 1-.012-.043zm.159-.315q-.077.111-.117.18a.3.3 0 0 0-.042.134h.06c0-.029.01-.06.034-.105q.037-.064.114-.175zm.05-.075-.05.075.05.034.05-.075zm-.04-.324a.4.4 0 0 1 .055.167.4.4 0 0 1 .003.096.14.14 0 0 1-.018.061l.05.034a.2.2 0 0 0 .027-.09.5.5 0 0 0-.003-.108.44.44 0 0 0-.067-.197zm-.109.281a.1.1 0 0 0 .069-.022.15.15 0 0 0 .045-.06.8.8 0 0 0 .048-.214l-.06-.007a.8.8 0 0 1-.043.196.1.1 0 0 1-.027.037.05.05 0 0 1-.032.01zm-.12-.15q0 .075.035.114a.11.11 0 0 0 .085.036v-.06q-.025 0-.04-.016c-.01-.011-.02-.033-.02-.074zm.068-.192c-.032.052-.068.11-.068.192h.06c0-.063.027-.108.06-.16zm.054-.105a.5.5 0 0 1-.054.105l.052.031c.02-.034.043-.071.059-.117zm-.054-.288a.27.27 0 0 1 .054.286l.056.023a.33.33 0 0 0-.066-.35zm.039.069.013-.085-.06-.01-.013.086zm-.119.192q.03.001.055-.014a.1.1 0 0 0 .035-.043c.014-.031.02-.078.029-.135l-.06-.01a.5.5 0 0 1-.024.12q-.008.014-.012.018-.005.004-.023.004zm.002-.379a.8.8 0 0 0-.091.186.2.2 0 0 0-.006.112q.017.058.087.08l.017-.057c-.03-.009-.041-.024-.046-.04a.14.14 0 0 1 .005-.078.8.8 0 0 1 .085-.171zm.009-.014-.01.014.052.032.009-.015zm-.035-.189-.021.022.003.002.008.01a.2.2 0 0 1 .025.04.17.17 0 0 1 .016.123l.058.015a.23.23 0 0 0-.02-.166.3.3 0 0 0-.043-.062l-.003-.003-.002-.002zm-.128.185a.1.1 0 0 0 .05.006.07.07 0 0 0 .047-.03.2.2 0 0 0 .029-.057q.014-.037.03-.095l-.056-.017-.03.09a.2.2 0 0 1-.021.043q-.007.009-.008.007-.004.001-.024-.004zm.011-.254a.26.26 0 0 0-.08.145.1.1 0 0 0 .013.068.1.1 0 0 0 .057.041l.014-.058q-.014-.004-.02-.013a.05.05 0 0 1-.004-.031.2.2 0 0 1 .062-.11zm-.012-.155c.05.05.052.115.012.155l.042.043c.069-.069.058-.172-.012-.24zm-.152.003a.08.08 0 0 0 .015.067.07.07 0 0 0 .06.025c.046-.002.093-.038.125-.103l-.054-.027c-.027.055-.058.07-.073.07q-.01 0-.012-.003-.003-.002-.002-.019zm.054-.259-.054.258.059.013.054-.258zm-.043.036h.072v-.06h-.072zm-.006-.22-.024.187.06.007.024-.186zm-.924.034h.954v-.06h-.954zm.054.153-.024-.186-.06.007.024.186zm-.096.033h.066v-.06h-.066zm.078.229-.048-.264-.06.01.049.265zm-.194-.017c.03.06.07.098.111.104a.07.07 0 0 0 .06-.02.1.1 0 0 0 .023-.06l-.06-.004q-.002.02-.007.022-.002.003-.007.002c-.012-.001-.038-.017-.067-.072zm.037.164a.1.1 0 0 1-.03-.077.13.13 0 0 1 .04-.08l-.042-.042a.2.2 0 0 0-.058.118.16.16 0 0 0 .045.121zm.008.253a.1.1 0 0 0 .058-.041.1.1 0 0 0 .012-.068.26.26 0 0 0-.08-.145l-.042.043a.2.2 0 0 1 .062.109.05.05 0 0 1-.004.03q-.005.01-.02.014zm-.156-.176.032.097a.2.2 0 0 0 .03.058.07.07 0 0 0 .047.028.1.1 0 0 0 .049-.007l-.017-.057-.026.005-.007-.006a.2.2 0 0 1-.02-.042l-.03-.093zm-.005.181q-.006-.011-.002-.04a.3.3 0 0 1 .02-.06l.027-.052.01-.015.003-.004V8.31l-.024-.018-.024-.017-.005.007-.042.075a.3.3 0 0 0-.024.074.12.12 0 0 0 .009.08zm.01.015-.01-.016-.051.031.01.017zm.01.376a.12.12 0 0 0 .085-.082.2.2 0 0 0-.004-.11c-.02-.071-.067-.145-.09-.184l-.052.032a.7.7 0 0 1 .084.169q.013.046.004.076c-.005.017-.017.032-.046.042zm-.128-.191q.01.087.029.135a.1.1 0 0 0 .034.043q.025.014.055.014v-.06q-.017 0-.022-.004-.006-.003-.012-.017a.6.6 0 0 1-.025-.12zm-.013-.085.013.085.059-.01-.013-.085zm-.009.303a.27.27 0 0 1 .06-.287l-.043-.042a.33.33 0 0 0-.073.35zm.052.099a1 1 0 0 1-.052-.1l-.056.022a1 1 0 0 0 .057.109zm.07.2a.36.36 0 0 0-.07-.2l-.05.03c.033.057.06.102.06.17zm-.114.15c.03 0 .062-.01.084-.038q.03-.04.03-.113h-.06c0 .042-.008.064-.017.075q-.012.015-.037.015zm-.162-.297q.016.136.049.211a.2.2 0 0 0 .044.062q.03.024.07.023v-.06a.05.05 0 0 1-.032-.01.1.1 0 0 1-.028-.04.8.8 0 0 1-.043-.194zm.012.333a.1.1 0 0 1-.016-.058.4.4 0 0 1 .003-.093.4.4 0 0 1 .055-.167l-.048-.037a.44.44 0 0 0-.067.196.5.5 0 0 0-.003.107.2.2 0 0 0 .028.087zm.032.047-.03-.046-.05.033.03.046zm.172.348a.3.3 0 0 0-.043-.142 3 3 0 0 0-.13-.206l-.05.033c.06.09.1.151.127.2s.036.084.036.115zm-.239-.088a.5.5 0 0 0 .06.14q.035.05.079.058a.08.08 0 0 0 .075-.029.13.13 0 0 0 .025-.08h-.06q0 .03-.012.042-.009.011-.018.008c-.007-.001-.022-.009-.04-.033a.4.4 0 0 1-.05-.122zm.005.256.03-.004v-.007a1 1 0 0 1-.006-.09q0-.04.006-.081a.2.2 0 0 1 .02-.067l-.052-.03a.3.3 0 0 0-.027.087.6.6 0 0 0-.004.165l.002.023.001.006v.002zm.094.1c-.04-.036-.063-.06-.063-.1h-.06c0 .07.046.111.082.145zm.104.2c0-.105-.059-.158-.104-.2l-.04.045c.044.041.084.078.084.155zm.492-2.624-.012-.15-.06.005.012.15zm.75-.028h-.78v.06h.78zm-.012-.123-.018.15.06.007.018-.15zm-.78.033h.81v-.06h-.81zm.102-.188.018.156.06-.007-.018-.156zm.57-.034h-.54v.06h.54zm.024.188.006-.156-.06-.003-.006.156zm-.546.028h.516v-.06h-.516zm1.99 6.542a.6.6 0 0 1-.185-.112c-.058-.053-.095-.11-.095-.16h-.06c0 .077.054.149.115.204a.7.7 0 0 0 .205.125zm-3.4.058h3.39v-.06h-3.39zm.21-.33a.26.26 0 0 1-.068.163.4.4 0 0 1-.152.11l.02.056a.4.4 0 0 0 .178-.128.32.32 0 0 0 .082-.2zm0-1.458v1.458h.06v-1.458zm-.144-.186.15.204.048-.035-.15-.204zm3.18-.048H14.42v.06h3.156zm-.132.253.156-.204-.048-.037-.156.204zm.006 1.44v-1.459h-.06v1.458z"/><path fill="#fff" fill-rule="evenodd" d="M15.189 12.758h-.216v.99h.216zm1.824 0h-.216v.99h.216z" clip-rule="evenodd"/><path fill="#000" d="M14.971 12.757v-.03l-.03.03zm.216 0h.03l-.03-.03zm-.216.99h-.03l.03.03zm.216 0v.03l.03-.03zm1.608-.99v-.03l-.03.03zm.216 0h.03l-.03-.03zm-.216.99h-.03l.03.03zm.216 0v.03l.03-.03zm-2.04-.96h.216v-.06h-.216zm.03.96v-.99h-.06v.99zm.186-.03h-.216v.06h.216zm-.03-.96v.99h.06v-.99zm1.638.03h.216v-.06h-.216zm.03.96v-.99h-.06v.99zm.186-.03h-.216v.06h.216zm-.03-.96v.99h.06v-.99z"/><path fill="#fff" stroke="#000" stroke-width="0.06" d="M14.36 10.453v1.656h3.24v-1.656a.25.25 0 0 0-.157.168v.708h-2.922v-.708s-.036-.12-.168-.168z"/><path fill="#fff" stroke="#000" stroke-width="0.06" d="M17.155 14.07c-.108-.042-.336-.174-.336-.3v-1.632c.024-.09.144-.144.222-.204H14.9c.102.06.216.102.258.204v1.632c0 .126-.18.258-.288.3z"/><path fill="#fff" fill-rule="evenodd" d="M17.444 10.774v1.176h-2.922v-1.17h.3v-.12h2.328v.114zm-1.002 2.994c0 .126.15.258.258.3h-1.404c.102-.042.258-.174.258-.3V12.37l-.09-.12h1.062l-.084.126z" clip-rule="evenodd"/><path fill="#000" d="M17.444 11.953v.03h.03v-.03zm0-1.176h.03v-.03h-.03zm-2.922 1.176h-.03v.03h.03zm0-1.17v-.03h-.03v.03zm.3 0v.03h.03v-.03zm0-.12v-.03h-.03v.03zm2.328 0h.03v-.03h-.03zm0 .114h-.03v.03h.03zm-.45 3.294v.03l.011-.058zm-1.404 0-.011-.028.011.058zm.258-1.698h.03v-.01l-.006-.008zm-.09-.12v-.03h-.06l.036.048zm1.062 0 .025.016.031-.046h-.056zm-.084.126-.025-.017-.005.008v.009zm1.032-.426v-1.176h-.06v1.176zm-2.952.03h2.922v-.06h-2.922zm-.03-1.2v1.17h.06v-1.17zm.33-.03h-.3v.06h.3zm-.03-.09v.12h.06v-.12zm2.358-.03h-2.328v.06h2.328zm.03.144v-.114h-.06v.114zm.264-.03h-.294v.06h.294zm-.733 3.296a.5.5 0 0 1-.159-.111c-.048-.052-.08-.11-.08-.161h-.06c0 .074.044.146.097.202a.5.5 0 0 0 .18.126zm-1.415.058H16.7v-.06h-1.404zm.228-.33c0 .051-.032.108-.082.16a.5.5 0 0 1-.157.112l.023.056a.6.6 0 0 0 .177-.126c.054-.056.1-.128.1-.202zm0-1.398v1.398h.06v-1.398zm-.084-.102.09.12.048-.036-.09-.12zm1.086-.048h-1.062v.06h1.062zm-.059.172.084-.126-.05-.033-.084.126zm.005 1.376v-1.392h-.06v1.392z"/><path fill="#fff" stroke="#000" stroke-width="0.06" d="M15.723 12.254h.54v1.818h-.54z"/><path fill="#fff" stroke="#000" stroke-linejoin="bevel" stroke-width="0.06" d="M16.544 11.85c0-.12.348-.127.528-.229h-2.16c.18.102.522.108.522.228l.072.234.9.036z"/><path fill="#fff" fill-rule="evenodd" d="M17.36 10.086s-.294.036-.294.372v-.282c-.09 0-.102.108-.102.402l-1.938-.006c0-.282 0-.402-.108-.402v.93c.222.084.378.36.378.36h1.392s.156-.276.378-.36v.528h.216v-.852s-.09 0-.09-.15c0-.144.054-.246.168-.24z" clip-rule="evenodd"/><path fill="#000" d="M17.36 10.085h.03v-.034l-.033.004zm-.293.09h.03v-.03h-.03zm-.102.402v.03h.03v-.03zm-1.938-.006h-.03v.03h.03zm-.108-.402v-.03h-.03v.03zm0 .93h-.03v.02l.02.008zm.378.36-.026.014.008.016h.018zm1.392 0v.03h.017l.009-.016zm.378-.36h.03v-.044l-.04.016zm0 .528h-.03v.03h.03zm.216 0v.03h.03v-.03zm0-.852h.03v-.03h-.03zm.078-.39-.002.03.032.001v-.031zm-.264.072c0-.158.068-.242.134-.288a.4.4 0 0 1 .133-.055l-.003-.03-.004-.03-.001.001h-.003a.2.2 0 0 0-.047.012.4.4 0 0 0-.11.053c-.08.056-.16.158-.16.337zm-.06-.282v.282h.06v-.282zm-.042.402c0-.148.003-.245.016-.305a.1.1 0 0 1 .024-.055q.01-.012.032-.012v-.06a.1.1 0 0 0-.076.03q-.028.032-.038.084a1.7 1.7 0 0 0-.018.318zm-1.968.024 1.938.006v-.06l-1.938-.006zm-.108-.402q.029 0 .04.014.015.013.025.057c.012.062.013.158.013.3h.06c0-.139 0-.243-.014-.312a.17.17 0 0 0-.04-.087.11.11 0 0 0-.084-.032zm.03.9v-.93h-.06v.93zm.348.36.026-.015v-.001l-.002-.003-.006-.009a1 1 0 0 0-.101-.14.74.74 0 0 0-.285-.22l-.02.056a.7.7 0 0 1 .259.202 1 1 0 0 1 .101.142l.002.002zm1.392-.03h-1.392v.06h1.392zm.367-.358a.74.74 0 0 0-.285.22 1 1 0 0 0-.1.14l-.006.01-.002.002.026.016.026.014.001-.002.005-.009a1 1 0 0 1 .096-.133.7.7 0 0 1 .26-.202zm.04.556v-.528h-.06v.528zm.187-.03h-.216v.06h.216zm-.03-.822v.852h.06v-.852zm-.09-.15c0 .08.024.128.055.154a.1.1 0 0 0 .057.025h.007v-.06h-.005l-.02-.011c-.014-.012-.034-.04-.034-.108zm.2-.27a.16.16 0 0 0-.154.077.36.36 0 0 0-.046.193h.06a.3.3 0 0 1 .036-.16.1.1 0 0 1 .1-.05zm-.032-.27v.3h.06v-.3z"/><path fill="#fff" stroke="#000" stroke-width="0.06" d="M14.917 10.458c0-.336-.294-.372-.294-.372v.3c.114-.006.168.096.168.24 0 .15-.09.15-.09.15v.852h.216z"/><path fill="#000" d="M15.488 8.185h1.032v-.06h-1.032zm-.12.324h1.26v-.06h-1.26zm-.12.39h1.494v-.06h-1.494zm-.126.474h1.77v-.06h-1.77zm-.042.54h1.824v-.06H15.08zm.371 1.727v-.03h-.03v.03zm1.08 0h.03v-.03h-.03zm0 .395v.03h.03v-.03zm-1.08 0h-.03v.03h.03zm-.924-.346h2.916v-.06h-2.916zm2.916-.06h-2.916v.06h2.916zm-1.992.04h1.08v-.06h-1.08zm1.05-.03v.396h.06v-.396zm.03.366h-1.08v.06h1.08zm-1.05.03v-.396h-.06v.396z"/><path fill="#fff" fill-rule="evenodd" d="m15.758 8.215.144.078.204-.006.138-.072v-.21l-.022.007c-.05.015-.104.03-.104.113-.018-.107-.04-.124-.078-.151l-.036-.029-.038.032c-.035.026-.062.045-.076.148-.01-.086-.06-.1-.113-.114l-.019-.006zm-.281 3.267c.002-.218.005-.534-.157-.729h1.356c-.162.195-.159.51-.156.73v.068h-1.044z" clip-rule="evenodd"/><path fill="#000" d="m15.902 8.292-.014.026.007.004h.008zm-.144-.078h-.03v.018l.016.008zm.348.072.001.033.013-.007zm.138-.072.014.026.016-.008v-.018zm0-.21h.03v-.042l-.04.013zm-.126.12-.03.005.06-.005zm-.114-.18.02-.023-.021-.019-.02.02zm-.114.18-.03.003h.06zm-.132-.12.009-.029-.039-.012v.04zm-.438 2.748v-.03h-.064l.04.049zm1.356 0 .023.019.041-.05h-.064zm-.156.798v.03h.03v-.03zm-1.044 0h-.03v.03h.03zm.44-3.285-.144-.078-.028.053.144.078zm.19-.01-.205.007.002.06.204-.006zm.124-.068-.138.072.028.053.138-.072zm-.016-.183v.21h.06v-.21zm.016.035.023-.007-.018-.057-.022.007zm-.082.085c0-.034.01-.05.022-.06a.2.2 0 0 1 .06-.025l-.017-.057c-.023.007-.056.015-.08.036q-.043.034-.045.106zm-.126-.128a.1.1 0 0 1 .038.037c.01.017.02.043.028.096l.06-.01a.3.3 0 0 0-.037-.116c-.015-.027-.035-.041-.053-.055zm-.038-.03.038.03.036-.048-.034-.027zM15.983 8q.019-.013.042-.035l-.042-.043-.035.03zm-.063.128a.2.2 0 0 1 .025-.092.1.1 0 0 1 .038-.036l-.035-.049a.2.2 0 0 0-.054.054.3.3 0 0 0-.034.115zm-.151-.09a.2.2 0 0 1 .062.025c.013.01.025.027.03.064l.059-.007q-.01-.072-.052-.104a.2.2 0 0 0-.083-.036zm-.02-.006.02.006.016-.058-.018-.005zm.039.182v-.21h-.06v.21zm-.491 2.557a.7.7 0 0 1 .133.34c.019.128.018.26.017.37h.06c0-.109.002-.245-.018-.378a.74.74 0 0 0-.146-.37zm1.379-.05H15.32v.06h1.356zm-.127.76a2.4 2.4 0 0 1 .017-.37.7.7 0 0 1 .133-.34l-.046-.039a.74.74 0 0 0-.146.37 2.4 2.4 0 0 0-.018.38zm.001.069v-.07l-.06.001v.069zm-1.074.03h1.044v-.06h-1.044zm-.03-.1v.07h.06v-.069z"/><path fill="#fff" stroke="#000" stroke-width="0.06" d="m15.89 8.633-.24-.168v-.186c.09.018.18.03.192.132.024-.15.078-.222.162-.282.078.06.132.132.162.282.006-.102.102-.114.18-.132v.192l-.234.162z"/><path fill="#fff" fill-rule="evenodd" d="m15.873 9.17-.27-.24v-.282l.024.006c.09.02.18.042.192.18.03-.21.09-.324.18-.408.096.084.156.198.192.408.01-.138.102-.16.191-.18l.025-.006v.282l-.276.24zm.504.318-.24.342h-.282l-.246-.342zm-.732 1.026c-.012-.252-.06-.39-.18-.456h1.056c-.12.066-.168.204-.18.456z" clip-rule="evenodd"/><path fill="#000" d="M15.602 8.927h-.03v.014l.01.009zm.27.24-.02.023.008.007h.012zm-.27-.522.007-.029-.037-.009v.038zm.216.186-.03.003.06.001zm.18-.408.02-.022-.02-.018-.02.018zm.192.408-.03.005.06-.002zm.216-.186h.03v-.038l-.037.01zm0 .282.02.023.01-.01v-.013zm-.276.24v.03h.01l.01-.007zm.006.66v.03h.015l.01-.013zm.24-.342.024.017.033-.047h-.057zm-.522.342-.025.018.01.012h.015zm-.246-.342v-.03h-.059l.034.048zm-.144.57v-.03l-.015.056zm.18.456-.03.002.001.028h.029zm.876-.456.014.027-.014-.057zm-.18.456v.03h.028l.002-.028zm-.758-1.561.27.24.04-.045-.27-.24zm-.01-.305v.282h.06v-.282zm.061-.023-.024-.006-.014.058.024.006zm.215.207c-.007-.076-.036-.125-.08-.156-.04-.03-.091-.04-.135-.051l-.014.058c.046.011.085.02.115.042.027.02.049.05.054.112zm.13-.428c-.097.09-.16.211-.19.426l.06.008c.029-.205.087-.312.17-.39zm.241.425c-.036-.214-.099-.335-.202-.425l-.04.045c.09.078.148.184.183.39zm.155-.204a.4.4 0 0 0-.135.051c-.044.031-.073.08-.08.156l.06.005c.005-.061.027-.093.055-.112a.3.3 0 0 1 .114-.042zm.025-.006-.025.006.014.058.025-.006zm.037.311v-.282h-.06v.282zm-.287.263.276-.24-.039-.045-.276.24zm-.277.007h.258v-.06h-.258zm.288.647.24-.342-.049-.034-.24.342zm-.306.013h.282v-.06h-.282zm-.27-.354.245.342.05-.035-.247-.342zm.792-.048h-.768v.06h.768zm-.927.627c.105.057.153.179.165.43l.06-.002c-.012-.252-.06-.407-.196-.481zm1.07-.057h-1.055v.06h1.056zm-.15.488c.013-.252.06-.374.165-.431l-.029-.053c-.135.074-.183.229-.195.48zm-.725.028h.696v-.06h-.696z"/><path fill="#fff" stroke="#000" stroke-linejoin="bevel" stroke-width="0.06" d="M16.531 9.48v-.336a.31.31 0 0 0-.228.198c0-.12-.15-.378-.312-.51-.162.144-.318.384-.312.504-.03-.09-.108-.162-.228-.192v.342z"/><path fill="#fff" stroke="#000" stroke-linejoin="bevel" stroke-width="0.06" d="M16.58 10.054v-.336q-.19.054-.246.198c0-.12-.162-.378-.342-.51-.18.15-.348.384-.342.51-.03-.09-.12-.162-.246-.198v.342z"/><path fill="#fff" stroke="#000" stroke-linejoin="bevel" stroke-width="0.06" d="M16.724 10.76v-.397a.58.58 0 0 0-.306.228c0-.21-.24-.54-.426-.642-.192.108-.426.444-.426.642a.58.58 0 0 0-.312-.228v.396z"/><path fill="#fff" stroke="#000" stroke-linejoin="bevel" stroke-width="0.06" d="M16.64 11.639v-.408c-.144.054-.18.186-.228.282.018-.414-.228-.852-.42-.966-.192.114-.444.564-.42.96-.048-.084-.09-.222-.228-.276v.402z"/><path fill="#fff" stroke="#000" stroke-width="0.06" d="M16.544 12.25v-.407c-.15.036-.157.09-.204.18.018-.246-.157-.528-.348-.636a.76.76 0 0 0-.349.636c-.048-.09-.054-.144-.203-.18v.408zm-6.324 1.503v-1.224c-.043-.156-.18-.3-.277-.324v-1.08l.222.12.258 1.134v1.38z"/><path fill="#fff" stroke="#000" stroke-width="0.06" d="M10.22 13.757v-1.23c-.043-.156-.18-.3-.277-.324V11.05c.15 0 .222.192.222.192l.258 1.134v1.374z"/><path fill="#fff" stroke="#000" stroke-width="0.06" d="M10.059 14.07c.102-.043.252-.175.252-.3v-1.537l-.072-.12h2.622l-.102.12v1.536a.36.36 0 0 0 .204.3z"/><path fill="#fff" stroke="#000" stroke-width="0.06" d="M12.428 14.071c-.102-.042-.252-.174-.252-.3v-1.458l.216-.204h-1.776l.216.204v1.458c0 .126-.15.258-.252.3z"/><path fill="#fff" stroke="#000" stroke-width="0.06" d="M12.182 14.072c-.102-.042-.258-.174-.258-.3v-1.32l.144-.198H10.94l.144.198v1.32c0 .126-.15.258-.258.3z"/><path fill="#fff" stroke="#000" stroke-width="0.06" d="M11.24 12.254h.534v1.824h-.54z"/><path fill="#fff" fill-rule="evenodd" d="M10.316 10.895h.258v.191h.006v1.02h-.264zm.186 1.86h.216v.99h-.216zm1.848 0h.21v.99h-.216zm.468-1.447h-.366v.78h.366z" clip-rule="evenodd"/><path fill="#000" d="M10.573 10.897h.03l-.03-.03zm-.258 0v-.03l-.03.03zm.258.192h-.03l.03.03zm.006 0h.03l-.03-.03zm0 1.02v.03l.03-.03zm-.264 0h-.03l.03.03zm.402.648h.03l-.03-.03zm-.216 0v-.03l-.03.03zm.216.99v.03l.03-.03zm-.216 0h-.03l.03.03zm2.058-.99h.03l-.03-.03zm-.21 0v-.03l-.03.03zm.21.99v.03l.03-.03zm-.216 0h-.03l.03.03zm.108-2.436v-.03l-.03.03zm.366 0h.03l-.03-.03zm-.366.78h-.03l.03.03zm.366 0v.03l.03-.03zm-2.244-1.224h-.258v.06h.258zm.03.222v-.192h-.06v.192zm-.024-.03h-.006v.06h.006zm.03 1.05v-1.02h-.06v1.02zm-.294.03h.264v-.06h-.264zm-.03-1.05v1.02h.06v-1.02zm0-.192v.192h.06v-.192zm.432 1.83h-.216v.06h.216zm.03 1.02v-.99h-.06v.99zm-.246.03h.216v-.06h-.216zm-.03-1.02v.99h.06v-.99zm2.088-.03h-.21v.06h.21zm.03 1.02v-.99h-.06v.99zm-.246.03h.216v-.06h-.216zm-.024-1.02-.006.99h.06l.006-.99zm.132-1.416h.366v-.06h-.366zm.03.75v-.78h-.06v.78zm.336-.03h-.366v.06h.366zm-.03-.75v.78h.06v-.78z"/><path fill="#fff" fill-rule="evenodd" d="M10.574 10.357v1.74h1.89v-1.734c-.028 0-.047.04-.07.087-.036.073-.08.165-.182.165-.09 0-.078-.108-.03-.192.042-.078.096-.18.024-.378-.054.15-.186.198-.162.108a.5.5 0 0 1 .056-.125c.044-.078.082-.145.016-.313-.03.204-.162.198-.132.078q.014-.05.03-.09c.034-.085.06-.155-.012-.3-.054.222-.12.21-.12.072v-.013c0-.195 0-.409-.252-.485 0 0-.018-.18-.108-.18-.096 0-.114.18-.114.18-.252.078-.252.294-.252.498 0 .138-.066.15-.12-.072-.072.145-.045.215-.012.3q.016.04.03.09c.03.12-.102.126-.132-.078-.066.168-.027.235.017.313a.5.5 0 0 1 .055.125c.024.09-.108.042-.162-.108-.072.198-.018.3.024.378.054.084.06.192-.03.192-.101 0-.146-.094-.181-.169-.023-.049-.042-.09-.07-.09m-.414 1.752v-1.326q.07-.045.15 0v1.326z" clip-rule="evenodd"/><path fill="#000" d="M10.575 12.096h-.03v.03h.03zm0-1.74v-.03h-.03v.03zm1.89 1.74v.03h.03v-.03zm0-1.734h.03v-.03h-.03zm-.258-.318.028-.01-.028-.079-.028.078zm-.09-.33.028-.011-.041-.106-.017.112zm-.114-.312.027-.014-.037-.073-.02.08zm-.372-.426-.03.003.002.02.02.005zm-.222 0 .009.028.019-.006.002-.02zm-.372.426.03-.007-.02-.08-.037.073zm-.114.312.03-.005-.017-.112-.041.106zm-.09.33.028-.01-.028-.079-.028.078zm.024.378-.027.014.002.002zm-.696.36-.016-.026-.014.009v.017zm0 1.326h-.03v.03h.03zm.15-1.326h.03v-.018l-.015-.009zm0 1.326v.03h.03v-.03zm.294-.012v-1.74h-.06v1.74zm1.86-.03h-1.89v.06h1.89zm-.03-1.704v1.734h.06v-1.734zm-.014.1.031-.057.01-.012.003-.001v-.06c-.03 0-.05.02-.062.038l-.036.066zm-.208.182a.18.18 0 0 0 .138-.066.5.5 0 0 0 .07-.116l-.054-.026a.5.5 0 0 1-.061.103.12.12 0 0 1-.093.045zm-.056-.237a.3.3 0 0 0-.04.144.1.1 0 0 0 .025.065.1.1 0 0 0 .07.028v-.06q-.022-.001-.027-.01-.007-.005-.009-.027a.2.2 0 0 1 .033-.11zm.022-.353a.43.43 0 0 1 .029.219.4.4 0 0 1-.051.134l.052.03a.5.5 0 0 0 .058-.155.5.5 0 0 0-.032-.249zm-.163.09c-.007.025-.007.059.021.076a.06.06 0 0 0 .038.006.1.1 0 0 0 .036-.012.3.3 0 0 0 .124-.16l-.056-.02a.24.24 0 0 1-.096.127l-.016.006q-.004 0 0 .001c.01.005.002.011.007-.009zm.058-.132c-.02.036-.044.076-.058.132l.058.015a.5.5 0 0 1 .052-.118zm.015-.287a.35.35 0 0 1 .031.175.3.3 0 0 1-.046.112l.052.03c.022-.039.046-.08.053-.133a.4.4 0 0 0-.034-.206zm-.133.06a.12.12 0 0 0 .007.09.06.06 0 0 0 .032.026.1.1 0 0 0 .041.002.12.12 0 0 0 .069-.059.3.3 0 0 0 .042-.126l-.06-.009a.3.3 0 0 1-.033.104c-.014.023-.027.03-.034.032h-.004l-.002-.002c-.003-.005-.006-.018 0-.044zm.032-.094a1 1 0 0 0-.032.093l.058.015q.013-.047.03-.086zm-.012-.276c.035.07.044.118.043.158a.4.4 0 0 1-.031.118l.055.022a.4.4 0 0 0 .036-.138.4.4 0 0 0-.05-.187zm-.123.059q0 .055.013.09a.1.1 0 0 0 .023.03q.02.015.043.007a.1.1 0 0 0 .032-.023.2.2 0 0 0 .024-.039.7.7 0 0 0 .044-.13l-.058-.014a.6.6 0 0 1-.04.118l-.016.026q-.006.008-.005.005a.01.01 0 0 1 .011.002q.002.001-.002-.006a.2.2 0 0 1-.01-.066zm0-.014v.014h.06V9.46zm-.23-.456c.116.036.172.101.2.18.03.081.03.178.03.276h.06c0-.096 0-.203-.033-.297a.34.34 0 0 0-.24-.216zm-.1-.178q.016 0 .032.017.016.02.027.053a.4.4 0 0 1 .018.076v.005l.001.002.03-.003.03-.003V8.97l-.001-.006a1 1 0 0 0-.021-.088.2.2 0 0 0-.038-.072.1.1 0 0 0-.078-.038zm-.114.15.03.003v-.007a.4.4 0 0 1 .02-.076.2.2 0 0 1 .028-.052q.016-.018.036-.018v-.06a.1.1 0 0 0-.08.038.2.2 0 0 0-.041.071.4.4 0 0 0-.018.067l-.004.022v.008zm-.222.498c0-.104 0-.203.03-.287a.28.28 0 0 1 .2-.183l-.017-.057a.34.34 0 0 0-.24.22c-.033.095-.033.206-.033.307zm-.18-.065q.022.084.045.13a.2.2 0 0 0 .024.039q.012.016.032.023.023.007.043-.007a.1.1 0 0 0 .023-.03.3.3 0 0 0 .013-.09h-.06a.2.2 0 0 1-.009.066l-.003.006a.01.01 0 0 1 .011-.002q.003.001-.005-.005l-.016-.026a.6.6 0 0 1-.039-.118zm.045.282a.4.4 0 0 1-.031-.118.3.3 0 0 1 .043-.158l-.054-.027a.4.4 0 0 0-.049.187c.002.052.02.096.035.138zm.032.093a1 1 0 0 0-.032-.093l-.056.022q.017.04.03.086zm-.19-.066a.3.3 0 0 0 .04.126q.03.046.07.06a.064.064 0 0 0 .073-.029.12.12 0 0 0 .007-.09l-.058.014c.006.026.002.04 0 .044l-.002.002h-.005c-.006-.002-.02-.01-.033-.032a.3.3 0 0 1-.033-.104zm.072.294a.3.3 0 0 1-.046-.112.35.35 0 0 1 .03-.175l-.055-.022a.4.4 0 0 0-.035.206c.008.053.032.094.054.132zm.058.132c-.014-.055-.038-.096-.058-.132l-.052.03c.02.035.04.07.052.117zm-.22-.09a.3.3 0 0 0 .125.16q.017.009.035.012t.039-.006c.028-.017.028-.05.02-.076l-.057.015c.005.02-.003.014.006.009q.005-.001 0-.001l-.015-.006a.24.24 0 0 1-.096-.128zm.08.353a.4.4 0 0 1-.052-.134.43.43 0 0 1 .03-.22l-.057-.02a.5.5 0 0 0-.032.25c.01.065.036.114.057.153zm-.057.237a.1.1 0 0 0 .072-.027.1.1 0 0 0 .027-.066.25.25 0 0 0-.044-.146l-.05.033c.024.038.036.08.034.109q-.002.02-.01.027-.006.009-.03.01zm-.209-.186c.018.036.04.082.07.119a.18.18 0 0 0 .139.067v-.06a.12.12 0 0 1-.093-.046.5.5 0 0 1-.061-.106zm-.043-.072h.002l.01.013q.015.02.031.059l.055-.026c-.011-.024-.023-.049-.036-.067s-.032-.04-.062-.04zm-.444.396v1.326h.06v-1.326zm.194-.027a.17.17 0 0 0-.18 0l.032.052a.1.1 0 0 1 .057-.018.13.13 0 0 1 .062.019zm.016 1.353v-1.326h-.06v1.326zm-.18.03h.15v-.06h-.15z"/><path fill="#fff" fill-rule="evenodd" d="M12.764 12.106v-.864c.03-.024.084-.018.12 0v.864zm-2.172 0c-.048-.258-.234-.372-.42-.468v.468z" clip-rule="evenodd"/><path fill="#000" d="m12.765 11.245-.02-.023-.01.009v.014zm0 .864h-.03v.03h.03zm.12-.864h.03v-.018l-.017-.009zm0 .864v.03h.03v-.03zm-2.712-.468.013-.027-.043-.022v.049zm.42.468v.03h.036l-.007-.035zm-.42 0h-.03v.03h.03zm2.562-.864v.864h.06v-.864zm.163-.027a.2.2 0 0 0-.075-.019.12.12 0 0 0-.077.023l.037.046q.011-.009.038-.009.028.001.05.013zm.017.891v-.864h-.06v.864zm-.15.03h.12v-.06h-.12zm-2.606-.471c.185.095.359.204.404.447l.06-.011c-.052-.274-.25-.393-.437-.49zm.044.441v-.468h-.06v.468zm.39-.03h-.42v.06h.42z"/><path fill="#fff" fill-rule="evenodd" d="m11.756 9.53-.108.09h-.27l-.108-.097v-.12c.042.012.06.018.09.06a.3.3 0 0 1 .155-.174.3.3 0 0 1 .15.18c.03-.042.055-.06.09-.06zm.707 2.573c.049-.264.235-.372.42-.462v.462z" clip-rule="evenodd"/><path fill="#000" d="M11.648 9.617v.03h.011l.008-.007zm.108-.09.02.023.01-.009v-.014zm-.378.09-.02.023.009.007h.011zm-.108-.096h-.03v.014l.01.009zm0-.12.008-.029-.038-.01v.04zm.09.06-.024.018.034.047.019-.055zm.156-.174.014-.026-.013-.007-.014.006zm.15.18-.029.009.018.058.036-.05zm.09-.06h.03v-.03h-.03zm1.128 2.232h.03v-.047l-.043.02zm-.42.462-.03-.005-.006.035h.036zm.42 0v.03h.03v-.03zm-1.217-2.46.108-.09-.038-.047-.108.09zm-.289.006h.27v-.06h-.27zm-.128-.103.108.096.04-.045-.108-.096zm-.01-.143v.12h.06v-.12zm.145.043a.2.2 0 0 0-.05-.05.2.2 0 0 0-.057-.022l-.016.058a.2.2 0 0 1 .042.016.1.1 0 0 1 .032.033zm.118-.184a.33.33 0 0 0-.171.192l.057.02a.27.27 0 0 1 .14-.158zm.192.199a.33.33 0 0 0-.165-.198l-.027.053a.27.27 0 0 1 .134.162zm.061-.082a.1.1 0 0 0-.064.02.2.2 0 0 0-.05.053l.049.035a.2.2 0 0 1 .035-.039.05.05 0 0 1 .03-.009zm.03.15v-.12h-.06v.12zm1.085 2.085c-.187.09-.386.204-.436.484l.059.01c.045-.248.218-.35.403-.44zm.043.49v-.463h-.06v.462zm-.45.03h.42v-.06h-.42z"/><path fill="#fff" stroke="#000" stroke-width="0.06" d="m11.708 9.911.047-.114v-.15c-.036 0-.06.018-.09.06a.3.3 0 0 0-.15-.18.3.3 0 0 0-.155.174c-.03-.042-.048-.048-.09-.054v.15l.048.114z"/><path fill="#fff" stroke="#000" stroke-width="0.06" d="m11.72 10.307.156-.198v-.192c-.06 0-.09.03-.132.096-.042-.138-.12-.162-.228-.228-.114.06-.192.09-.228.222-.048-.066-.078-.084-.138-.09v.192l.162.198z"/><path fill="#fff" stroke="#000" stroke-width="0.06" d="M11.762 10.699s.192-.162.198-.252v-.21c-.072.006-.138.024-.192.114-.048-.174-.12-.222-.252-.3-.138.078-.21.126-.252.3-.06-.09-.12-.108-.198-.12v.216q.077.143.198.252z"/><path fill="#fff" stroke="#000" stroke-width="0.06" d="M11.84 11.416s.264-.282.27-.396v-.324c-.096.012-.192.078-.264.216-.06-.27-.156-.456-.33-.588-.18.132-.276.318-.336.588-.072-.138-.162-.204-.258-.216v.324c.018.114.264.396.264.396z"/><path fill="#fff" stroke="#000" stroke-width="0.06" d="M11.84 11.843s.222-.222.27-.318v-.324c-.096.012-.192.078-.264.21a.84.84 0 0 0-.33-.552c-.18.132-.276.282-.336.552-.072-.132-.162-.198-.258-.21v.324c.06.096.264.318.264.318z"/><path fill="#fff" stroke="#000" stroke-width="0.06" d="M11.93 12.097c-.06-.282-.12-.492-.426-.702-.312.21-.366.42-.432.702z"/><path fill="#fff" stroke="#000" stroke-width="0.06" d="M12.092 12.251v-.408c-.144.06-.27.138-.318.228-.048-.228-.15-.324-.276-.462-.126.138-.21.24-.264.462-.048-.09-.174-.174-.312-.228v.408zm9.69 1.502v-1.224c.042-.156.18-.3.276-.324v-1.08l-.222.12-.258 1.134v1.38z"/><path fill="#fff" stroke="#000" stroke-width="0.06" d="M21.782 13.757v-1.23c.042-.156.18-.3.276-.324V11.05c-.15 0-.222.192-.222.192l-.258 1.134v1.374z"/><path fill="#fff" stroke="#000" stroke-width="0.06" d="M21.943 14.07c-.102-.043-.252-.175-.252-.3v-1.537l.072-.12h-2.622l.102.12v1.536a.36.36 0 0 1-.204.3z"/><path fill="#fff" stroke="#000" stroke-width="0.06" d="M19.574 14.071c.102-.042.252-.174.252-.3v-1.458l-.216-.204h1.776l-.216.204v1.458c0 .126.15.258.252.3z"/><path fill="#fff" stroke="#000" stroke-width="0.06" d="M19.82 14.072c.102-.042.258-.174.258-.3v-1.32l-.144-.198h1.128l-.144.198v1.32c0 .126.15.258.258.3z"/><path fill="#fff" stroke="#000" stroke-width="0.06" d="M20.763 12.254h-.535v1.824h.54z"/><path fill="#fff" fill-rule="evenodd" d="M21.686 10.895h-.258v.191h-.006v1.02h.264zm-.186 1.86h-.216v.99h.216zm-1.848 0h-.21v.99h.216zm-.468-1.447h.366v.78h-.366z" clip-rule="evenodd"/><path fill="#000" d="M21.428 10.897h-.03l.03-.03zm.258 0v-.03l.03.03zm-.258.192h.03l-.03.03zm-.006 0h-.03l.03-.03zm0 1.02v.03l-.03-.03zm.264 0h.03l-.03.03zm-.402.648h-.03l.03-.03zm.216 0v-.03l.03.03zm-.216.99v.03l-.03-.03zm.216 0h.03l-.03.03zm-2.058-.99h-.03l.03-.03zm.21 0v-.03l.03.03zm-.21.99v.03l-.03-.03zm.216 0h.03l-.03.03zm-.108-2.436v-.03l.03.03zm-.366 0h-.03l.03-.03zm.366.78h.03l-.03.03zm-.366 0v.03l-.03-.03zm2.244-1.224h.258v.06h-.258zm-.03.222v-.192h.06v.192zm.024-.03h.006v.06h-.006zm-.03 1.05v-1.02h.06v1.02zm.294.03h-.264v-.06h.264zm.03-1.05v1.02h-.06v-1.02zm0-.192v.192h-.06v-.192zm-.432 1.83h.216v.06h-.216zm-.03 1.02v-.99h.06v.99zm.246.03h-.216v-.06h.216zm.03-1.02v.99h-.06v-.99zm-2.088-.03h.21v.06h-.21zm-.03 1.02v-.99h.06v.99zm.246.03h-.216v-.06h.216zm.024-1.02.006.99h-.06l-.006-.99zm-.132-1.416h-.366v-.06h.366zm-.03.75v-.78h.06v.78zm-.336-.03h.366v.06h-.366zm.03-.75v.78h-.06v-.78z"/><path fill="#fff" fill-rule="evenodd" d="M21.427 10.357v1.74h-1.89v-1.734c.029 0 .048.04.07.087.036.073.08.165.182.165.09 0 .078-.108.03-.192-.042-.078-.096-.18-.024-.378.054.15.186.198.162.108a.5.5 0 0 0-.055-.125c-.044-.078-.083-.145-.017-.313.03.204.162.198.132.078a1 1 0 0 0-.03-.09c-.034-.085-.06-.155.012-.3.054.222.12.21.12.072v-.013c0-.195 0-.409.252-.485 0 0 .018-.18.108-.18.096 0 .114.18.114.18.252.078.252.294.252.498 0 .138.066.15.12-.072.073.145.046.215.013.3q-.017.04-.03.09c-.03.12.101.126.131-.078.066.168.027.235-.017.313a.5.5 0 0 0-.055.125c-.024.09.108.042.162-.108.072.198.018.3-.024.378-.054.084-.06.192.03.192.102 0 .146-.094.181-.169.023-.049.043-.09.071-.09m.414 1.752v-1.326q-.07-.045-.15 0v1.326z" clip-rule="evenodd"/><path fill="#000" d="M21.428 12.096h.03v.03h-.03zm0-1.74v-.03h.03v.03zm-1.89 1.74v.03h-.03v-.03zm0-1.734h-.03v-.03h.03zm.258-.318-.028-.01.028-.079.028.078zm.09-.33-.028-.011.041-.106.017.112zM20 9.402l-.027-.014.037-.073.019.08zm.372-.426.03.003-.002.02-.02.005zm.222 0-.01.028-.018-.006-.002-.02zm.372.426-.03-.007.02-.08.037.073zm.114.312-.03-.005.017-.112.04.106zm.09.33-.028-.01.028-.079.028.078zm-.024.378.026.014-.001.002zm.696.36.016-.026.014.009v.017zm0 1.326h.03v.03h-.03zm-.15-1.326h-.03v-.018l.015-.009zm0 1.326v.03h-.03v-.03zm-.294-.012v-1.74h.06v1.74zm-1.86-.03h1.89v.06h-1.89zm.03-1.704v1.734h-.06v-1.734zm.013.1-.03-.057-.01-.012-.003-.001v-.06c.03 0 .05.02.062.038.013.018.024.043.035.066zm.209.182a.18.18 0 0 1-.138-.066c-.032-.035-.053-.08-.07-.116l.053-.026a.5.5 0 0 0 .062.103.12.12 0 0 0 .093.045zm.056-.237a.3.3 0 0 1 .04.144.1.1 0 0 1-.025.065.1.1 0 0 1-.071.028v-.06q.023-.001.027-.01.008-.005.01-.027a.2.2 0 0 0-.033-.11zm-.022-.353a.43.43 0 0 0-.03.219c.01.054.03.095.052.134l-.052.03a.5.5 0 0 1-.059-.155.5.5 0 0 1 .033-.249zm.163.09c.007.025.007.059-.021.076a.06.06 0 0 1-.039.006.1.1 0 0 1-.035-.012.3.3 0 0 1-.124-.16l.056-.02a.24.24 0 0 0 .096.127l.015.006q.005 0 0 .001c-.009.005 0 .011-.006-.009zm-.058-.132c.02.036.044.076.058.132l-.058.015a.5.5 0 0 0-.052-.118zm-.015-.287a.35.35 0 0 0-.031.175.3.3 0 0 0 .046.112l-.052.03c-.022-.039-.046-.08-.054-.133a.4.4 0 0 1 .035-.206zm.133.06a.12.12 0 0 1-.007.09.06.06 0 0 1-.032.026.1.1 0 0 1-.042.002.12.12 0 0 1-.068-.059.3.3 0 0 1-.042-.126l.06-.009a.3.3 0 0 0 .033.104c.014.023.027.03.033.032h.004l.002-.002c.003-.005.007-.018 0-.044zm-.032-.094q.017.04.032.093l-.058.015q-.014-.047-.03-.086zm.012-.276a.3.3 0 0 0-.043.158.3.3 0 0 0 .031.118l-.056.022c-.016-.042-.033-.086-.035-.138a.4.4 0 0 1 .049-.187zm.123.059a.3.3 0 0 1-.014.09.1.1 0 0 1-.022.03.05.05 0 0 1-.043.007.1.1 0 0 1-.032-.023.2.2 0 0 1-.025-.039.7.7 0 0 1-.043-.13l.058-.014a.6.6 0 0 0 .04.118l.015.026.005.005a.01.01 0 0 0-.01.002q-.002.001.002-.006a.2.2 0 0 0 .009-.066zm0-.014v.014h-.06V9.46zm.23-.456c-.116.036-.172.101-.2.18a.8.8 0 0 0-.03.276h-.06c0-.096 0-.203.033-.297a.34.34 0 0 1 .24-.216zm.1-.178q-.017 0-.032.017a.2.2 0 0 0-.028.053.4.4 0 0 0-.018.076v.007l-.03-.003-.03-.003V8.97l.001-.006a1 1 0 0 1 .02-.088.2.2 0 0 1 .04-.072.1.1 0 0 1 .077-.038zm.114.15-.03.003v-.007a.4.4 0 0 0-.02-.076.2.2 0 0 0-.028-.052q-.017-.018-.036-.018v-.06c.034 0 .061.016.08.038.02.02.032.047.041.071a.4.4 0 0 1 .018.067l.004.022v.008zm.222.498c0-.104 0-.203-.03-.287-.028-.08-.084-.147-.201-.183l.018-.057a.34.34 0 0 1 .24.22 1 1 0 0 1 .033.307zm.179-.065a.7.7 0 0 1-.044.13.2.2 0 0 1-.024.039.1.1 0 0 1-.032.023.05.05 0 0 1-.043-.007.1.1 0 0 1-.023-.03.3.3 0 0 1-.013-.09h.06a.2.2 0 0 0 .009.066q.004.008.002.006a.01.01 0 0 0-.01-.002q-.003.001.004-.005l.016-.026a.6.6 0 0 0 .04-.118zm-.045.282a.4.4 0 0 0 .032-.118.3.3 0 0 0-.043-.158l.054-.027a.4.4 0 0 1 .049.187c-.002.052-.02.096-.036.138zm-.031.093a1 1 0 0 1 .031-.093l.056.022-.03.086zm.19-.066a.3.3 0 0 1-.041.126.12.12 0 0 1-.069.06.064.064 0 0 1-.073-.029.12.12 0 0 1-.007-.09l.058.014c-.007.026-.003.04 0 .044l.002.002h.004q.012-.001.034-.032a.3.3 0 0 0 .033-.104zm-.072.294c.022-.04.04-.07.046-.112a.35.35 0 0 0-.031-.175l.056-.022a.4.4 0 0 1 .034.206.4.4 0 0 1-.053.132zm-.058.132c.014-.055.038-.096.058-.132l.052.03a.5.5 0 0 0-.052.117zm.219-.09a.3.3 0 0 1-.124.16.1.1 0 0 1-.036.012.06.06 0 0 1-.038-.006c-.028-.017-.028-.05-.021-.076l.058.015c-.005.02.003.014-.006.009q-.005-.001 0-.001l.015-.006a.24.24 0 0 0 .096-.128zm-.079.353a.4.4 0 0 0 .052-.134.43.43 0 0 0-.03-.22l.057-.02a.5.5 0 0 1 .032.25.5.5 0 0 1-.058.153zm.057.237a.1.1 0 0 1-.072-.027.1.1 0 0 1-.027-.066.25.25 0 0 1 .044-.146l.05.033a.2.2 0 0 0-.034.109q.001.02.01.027.006.009.029.01zm.208-.186a.6.6 0 0 1-.07.119.18.18 0 0 1-.138.067v-.06c.04 0 .068-.018.093-.046a.5.5 0 0 0 .061-.106zm.044-.072h-.002l-.01.013-.032.059-.054-.026q.017-.038.036-.067c.019-.029.032-.04.062-.04zm.444.396v1.326h-.06v-1.326zm-.195-.027a.17.17 0 0 1 .18 0l-.031.052a.1.1 0 0 0-.057-.018.13.13 0 0 0-.063.019zm-.015 1.353v-1.326h.06v1.326zm.18.03h-.15v-.06h.15z"/><path fill="#fff" fill-rule="evenodd" d="M19.237 12.106v-.864c-.03-.024-.084-.018-.12 0v.864zm2.172 0c.048-.258.234-.372.42-.468v.468z" clip-rule="evenodd"/><path fill="#000" d="m19.238 11.245.019-.023.01.009v.014zm0 .864h.03v.03h-.03zm-.12-.864h-.03v-.018l.017-.009zm0 .864v.03h-.03v-.03zm2.712-.468-.014-.027.044-.022v.049zm-.42.468v.03h-.036l.006-.035zm.42 0h.03v.03h-.03zm-2.562-.864v.864h-.06v-.864zm-.163-.027a.2.2 0 0 1 .074-.019.12.12 0 0 1 .078.023l-.038.046q-.01-.009-.038-.009a.1.1 0 0 0-.05.013zm-.017.891v-.864h.06v.864zm.15.03h-.12v-.06h.12zm2.606-.471c-.186.095-.36.204-.405.447l-.059-.011c.051-.274.25-.393.436-.49zm-.044.441v-.468h.06v.468zm-.39-.03h.42v.06h-.42z"/><path fill="#fff" fill-rule="evenodd" d="m20.245 9.53.108.09h.27l.108-.097v-.12c-.042.012-.06.018-.09.06a.3.3 0 0 0-.156-.174.3.3 0 0 0-.15.18c-.03-.042-.054-.06-.09-.06zm-.708 2.573c-.048-.264-.234-.372-.42-.462v.462z" clip-rule="evenodd"/><path fill="#000" d="M20.354 9.617v.03h-.011l-.008-.007zm-.108-.09-.02.023-.01-.009v-.014zm.378.09.02.023-.009.007h-.011zm.108-.096h.03v.014l-.01.009zm0-.12-.008-.029.038-.01v.04zm-.09.06.024.018-.034.047-.019-.055zm-.156-.174-.014-.026.013-.007.014.006zm-.15.18.029.009-.018.058-.036-.05zm-.09-.06h-.03v-.03h.03zm-1.128 2.232h-.03v-.047l.043.02zm.42.462.03-.005.006.035h-.036zm-.42 0v.03h-.03v-.03zm1.217-2.46-.108-.09.038-.047.108.09zm.289.006h-.27v-.06h.27zm.128-.103-.108.096-.04-.045.108-.096zm.01-.143v.12h-.06v-.12zm-.145.043a.2.2 0 0 1 .05-.05.2.2 0 0 1 .057-.022l.016.058a.2.2 0 0 0-.042.016.1.1 0 0 0-.032.033zM20.5 9.26a.33.33 0 0 1 .171.192l-.057.02a.27.27 0 0 0-.14-.158zm-.192.199a.33.33 0 0 1 .165-.198l.028.053a.27.27 0 0 0-.135.162zm-.061-.082a.1.1 0 0 1 .064.02.2.2 0 0 1 .05.053l-.049.035a.2.2 0 0 0-.035-.039.05.05 0 0 0-.03-.009zm-.03.15v-.12h.06v.12zm-1.085 2.085c.187.09.386.204.436.484l-.059.01c-.045-.248-.218-.35-.403-.44zm-.043.49v-.463h.06v.462zm.45.03h-.42v-.06h.42z"/><path fill="#fff" stroke="#000" stroke-width="0.06" d="m20.294 9.911-.048-.114v-.15c.036 0 .06.018.09.06a.3.3 0 0 1 .15-.18.3.3 0 0 1 .156.174c.03-.042.048-.048.09-.054v.15l-.048.114z"/><path fill="#fff" stroke="#000" stroke-width="0.06" d="m20.283 10.307-.156-.198v-.192c.06 0 .09.03.132.096.042-.138.12-.162.228-.228.114.06.192.09.228.222.048-.066.078-.084.138-.09v.192l-.162.198z"/><path fill="#fff" stroke="#000" stroke-width="0.06" d="M20.241 10.699s-.192-.162-.198-.252v-.21c.072.006.138.024.192.114.048-.174.12-.222.252-.3.138.078.21.126.252.3.06-.09.12-.108.198-.12v.216a.9.9 0 0 1-.198.252z"/><path fill="#fff" stroke="#000" stroke-width="0.06" d="M20.163 11.416s-.264-.282-.27-.396v-.324c.096.012.192.078.264.216.06-.27.156-.456.33-.588.18.132.276.318.336.588.072-.138.162-.204.258-.216v.324c-.018.114-.264.396-.264.396z"/><path fill="#fff" stroke="#000" stroke-width="0.06" d="M20.163 11.843s-.222-.222-.27-.318v-.324c.096.012.192.078.264.21a.84.84 0 0 1 .33-.552c.18.132.276.282.336.552.072-.132.162-.198.258-.21v.324c-.06.096-.264.318-.264.318z"/><path fill="#fff" stroke="#000" stroke-width="0.06" d="M20.072 12.097c.06-.282.12-.492.426-.702.312.21.366.42.432.702z"/><path fill="#fff" stroke="#000" stroke-width="0.06" d="M19.91 12.251v-.408c.144.06.27.138.318.228.048-.228.15-.324.276-.462.126.138.21.24.264.462.048-.09.174-.174.312-.228v.408z"/><path fill="#fff" fill-rule="evenodd" d="M22.58 14.43H9.416v.486H22.58zM8.642 15.558H23.36v.75h.39v.75H8.252v-.75h.39z" clip-rule="evenodd"/><path fill="#000" d="M9.417 14.428v-.03h-.03v.03zm13.164 0h.03v-.03h-.03zm-13.164.486h-.03v.03h.03zm13.164 0v.03h.03v-.03zm.78.642h.03v-.03h-.03zm-14.718 0v-.03h-.03v.03zm14.718.75h-.03v.03h.03zm.39 0h.03v-.03h-.03zm0 .75v.03h.03v-.03zm-15.498 0h-.03v.03h.03zm0-.75v-.03h-.03v.03zm.39 0v.03h.03v-.03zm.774-1.848H22.58v-.06H9.417zm.03.456v-.486h-.06v.486zm13.134-.03H9.417v.06H22.58zm-.03-.456v.486h.06v-.486zm.81 1.098H8.643v.06H23.36zm.03.78v-.75h-.06v.75zm.36-.03h-.39v.06h.39zm.03.78v-.75h-.06v.75zm-15.528.03H23.75v-.06H8.253zm-.03-.78v.75h.06v-.75zm.42-.03h-.39v.06h.39zm-.03-.72v.75h.06v-.75z"/><path fill="#fff" fill-rule="evenodd" d="M22.363 14.059H9.643v.372h12.72zm.612.858H9.031v.636h13.944z" clip-rule="evenodd"/><path fill="#000" d="M9.644 14.057v-.03h-.03v.03zm12.72 0h.03v-.03h-.03zm-12.72.372h-.03v.03h.03zm12.72 0v.03h.03v-.03zm-13.332.486v-.03h-.03v.03zm13.944 0h.03v-.03h-.03zm-13.944.636h-.03v.03h.03zm13.944 0v.03h.03v-.03zM9.644 14.087h12.72v-.06H9.644zm.03.342v-.372h-.06v.372zm12.69-.03H9.644v.06h12.72zm-.03-.342v.372h.06v-.372zm-13.302.888h13.944v-.06H9.032zm.03.606v-.636h-.06v.636zm13.914-.03H9.032v.06h13.944zm-.03-.606v.636h.06v-.636z"/><path fill="#fff" stroke="#000" stroke-width="0.06" d="M11.023 14.059h.96v3h-.96z"/><path fill="#fff" fill-rule="evenodd" d="M11.774 14.059h-.534l-.006 3h.54zm4.686 0h-.96v3h.96z" clip-rule="evenodd"/><path fill="#000" d="M11.24 14.057v-.03h-.03v.03zm.533 0h.03v-.03h-.03zm-.54 3h-.03v.03h.03zm.54 0v.03h.03v-.03zm3.726-3v-.03h-.03v.03zm.96 0h.03v-.03h-.03zm-.96 3h-.03v.03h.03zm.96 0v.03h.03v-.03zm-5.22-2.97h.534v-.06h-.534zm.024 2.97.006-3h-.06l-.006 3zm.51-.03h-.54v.06h.54zm-.03-2.97v3h.06v-3zm3.756.03h.96v-.06h-.96zm.03 2.97v-3h-.06v3zm.93-.03h-.96v.06h.96zm-.03-2.97v3h.06v-3z"/><path fill="#fff" fill-rule="evenodd" d="M16.263 14.059h-.54v3h.54zm4.71 0h-.96v3h.96z" clip-rule="evenodd"/><path fill="#000" d="M15.721 14.057v-.03h-.03v.03zm.54 0h.03v-.03h-.03zm-.54 3h-.03v.03h.03zm.54 0v.03h.03v-.03zm3.75-3v-.03h-.03v.03zm.96 0h.03v-.03h-.03zm-.96 3h-.03v.03h.03zm.96 0v.03h.03v-.03zm-5.25-2.97h.54v-.06h-.54zm.03 2.97v-3h-.06v3zm.51-.03h-.54v.06h.54zm-.03-2.97v3h.06v-3zm3.78.03h.96v-.06h-.96zm.03 2.97v-3h-.06v3zm.93-.03h-.96v.06h.96zm-.03-2.97v3h.06v-3z"/><path fill="#fff" stroke="#000" stroke-width="0.06" d="M20.223 14.059h.54v3h-.54z"/><path fill="#000" d="M10.22 13.802H21.8v-.06H10.22zm1.009 2.928h.552v-.06h-.552zm0-.378h.552v-.06h-.552zm0-.372h.552v-.06h-.552zm0-.378h.552v-.06h-.552zm0-.372h.552v-.06h-.552zm0-.378h.552v-.06h-.552zm0-.372h.552v-.06h-.552zm4.5 2.25h.516v-.06h-.516zm0-.378h.516v-.06h-.516zm0-.372h.516v-.06h-.516zm0-.378h.516v-.06h-.516zm0-.372h.516v-.06h-.516zm0-.378h.516v-.06h-.516zm0-.372h.516v-.06h-.516zm4.488 2.25h.552v-.06h-.552zm0-.378h.552v-.06h-.552zm0-.372h.552v-.06h-.552zm0-.378h.552v-.06h-.552zm0-.372h.552v-.06h-.552zm0-.378h.552v-.06h-.552zm0-.372h.552v-.06h-.552z"/></g></g><defs><clipPath id="a"><path fill="#fff" d="M0 0h32v24H0z"/></clipPath></defs></svg>