<svg xmlns="http://www.w3.org/2000/svg" width="32" height="24" fill="none" viewBox="0 0 32 24"><g clip-path="url(#a)"><mask id="b" width="32" height="24" x="0" y="0" maskUnits="userSpaceOnUse" style="mask-type:luminance"><path fill="#fff" d="M32 0H0v24h32z"/></mask><g mask="url(#b)"><path fill="#fff" d="M32 0H0v24h32z"/><path fill="#E31D1C" fill-rule="evenodd" d="M0 0v24h32V0z" clip-rule="evenodd"/><mask id="c" width="32" height="24" x="0" y="0" maskUnits="userSpaceOnUse" style="mask-type:luminance"><path fill="#fff" fill-rule="evenodd" d="M0 0v24h32V0z" clip-rule="evenodd"/></mask><g mask="url(#c)"><path fill="#FFC84A" fill-rule="evenodd" d="m16.009 9.962.05.005c.057-.196.158-.518.288-.822.205-.482.8-.752.8-.752s-.294.331-.371.856a8 8 0 0 0-.07.852l.042.014c.103-.177.276-.459.472-.717.317-.418.959-.537.959-.537s-.365.25-.567.741a8 8 0 0 0-.265.78l.061.036c.142-.15.364-.372.6-.57.403-.336 1.056-.308 1.056-.308s-.413.162-.72.595a8 8 0 0 0-.417.67l.065.06c.172-.112.422-.267.68-.398.468-.237 1.097-.062 1.097-.062s-.438.065-.835.418a8 8 0 0 0-.528.526q.03.04.056.082a7 7 0 0 1 .717-.209c.511-.117 1.08.205 1.08.205s-.441-.043-.912.204a7 7 0 0 0-.594.353l.048.126c.195-.019.445-.037.693-.036.524 0 1.006.442 1.006.442s-.42-.14-.934-.007a7 7 0 0 0-.614.195q.012.078.021.157c.186.026.411.062.63.114.511.119.881.657.881.657s-.377-.232-.908-.216c-.21.005-.418.024-.595.045q-.007.087-.018.172c.165.067.359.15.544.246.467.239.695.85.695.85s-.31-.315-.829-.43a7 7 0 0 0-.54-.093 3 3 0 0 1-.07.192c.138.097.292.213.438.335.4.338.485.986.485.986s-.23-.378-.71-.605a7 7 0 0 0-.473-.2q-.058.093-.123.183c.105.12.22.256.326.397.314.42.251 1.07.251 1.07s-.14-.42-.556-.75a7 7 0 0 0-.393-.286q-.081.08-.167.152c.07.137.144.29.21.445.203.483-.015 1.098-.015 1.098s-.034-.441-.359-.862a7 7 0 0 0-.295-.354q-.105.062-.215.116c.036.143.072.301.1.46.09.516-.262 1.067-.262 1.067s.066-.438-.155-.92a7 7 0 0 0-.204-.404q-.12.035-.24.062c.002.144 0 .303-.008.46-.028.523-.495.98-.495.98s.163-.412.056-.932a7 7 0 0 0-.107-.438 3 3 0 0 1-.242.002 7 7 0 0 1-.119.449c-.154.501-.717.832-.717.832s.257-.36.28-.89a7 7 0 0 0 0-.454 3 3 0 0 1-.238-.057 7 7 0 0 1-.22.416c-.263.453-.886.65-.886.65s.332-.294.472-.806a6 6 0 0 0 .107-.458 3 3 0 0 1-.21-.11 7 7 0 0 1-.318.369c-.358.382-1.01.433-1.01.433s.39-.21.642-.678c.081-.15.155-.305.217-.446a3 3 0 0 1-.163-.144 7 7 0 0 1-.42.299c-.441.284-1.085.176-1.085.176s.429-.11.786-.503c.123-.134.238-.274.336-.401a3 3 0 0 1-.12-.174c-.152.07-.327.145-.505.209-.493.178-1.096-.072-1.096-.072s.443-.011.88-.313c.161-.112.316-.233.448-.341a3 3 0 0 1-.068-.18 7 7 0 0 1-.575.097c-.52.063-1.052-.317-1.052-.317s.434.089.927-.107c.2-.08.396-.171.557-.253a3 3 0 0 1-.02-.16 7 7 0 0 1-.63-.046c-.52-.065-.945-.562-.945-.562s.4.191.926.12a7 7 0 0 0 .646-.12q.006-.075.016-.147a7 7 0 0 1-.648-.199c-.492-.18-.794-.76-.794-.76s.347.276.875.326c.255.024.512.029.71.027l.041-.117a7 7 0 0 1-.627-.36c-.44-.286-.602-.919-.602-.919s.275.347.779.514c.264.088.536.154.735.197l.048-.074a7 7 0 0 1-.56-.535c-.357-.384-.362-1.037-.362-1.037s.183.403.632.688c.25.158.515.296.7.386l.058-.057a7 7 0 0 1-.448-.678c-.261-.454-.12-1.092-.12-1.092s.089.434.462.812c.22.224.463.428.624.557l.055-.034a8 8 0 0 1-.296-.789c-.152-.501.13-1.09.13-1.09s-.012.442.266.894c.172.28.372.543.5.704q.018-.008.037-.013a8 8 0 0 1-.101-.863c-.027-.523.39-1.027.39-1.027s-.12.426.041.932c.1.317.233.624.317.81l.049-.006c.011-.203.038-.542.096-.871.092-.516.61-.913.61-.913s-.21.389-.168.918c.027.33.086.66.127.86" clip-rule="evenodd"/><path fill="#F7FCFF" fill-rule="evenodd" d="m-.792 13.922 2.615-1.061a1.56 1.56 0 0 1 1.188.005l3.63 1.511c.411.171.875.159 1.277-.034l2.928-1.405c.42-.202.908-.206 1.331-.01l3.068 1.417c.413.19.889.192 1.303.003l3.139-1.431a1.56 1.56 0 0 1 1.303.003l3.099 1.43c.406.188.874.192 1.284.012l3.386-1.491a1.56 1.56 0 0 1 1.158-.04l3.036 1.091v10.014H-.881z" clip-rule="evenodd"/><mask id="d" width="34" height="12" x="-1" y="12" maskUnits="userSpaceOnUse" style="mask-type:luminance"><path fill="#fff" fill-rule="evenodd" d="m-.792 13.922 2.615-1.061a1.56 1.56 0 0 1 1.188.005l3.63 1.511c.411.171.875.159 1.277-.034l2.928-1.405c.42-.202.908-.206 1.331-.01l3.068 1.417c.413.19.889.192 1.303.003l3.139-1.431a1.56 1.56 0 0 1 1.303.003l3.099 1.43c.406.188.874.192 1.284.012l3.386-1.491a1.56 1.56 0 0 1 1.158-.04l3.036 1.091v10.014H-.881z" clip-rule="evenodd"/></mask><g mask="url(#d)"><path stroke="#015989" stroke-width="2" d="m-.791 16.246 2.615-1.061a1.56 1.56 0 0 1 1.188.005l3.63 1.511a1.56 1.56 0 0 0 1.276-.034l2.929-1.405c.42-.202.908-.205 1.331-.01l3.067 1.417c.414.191.89.192 1.304.003l3.139-1.431a1.56 1.56 0 0 1 1.303.003l3.099 1.43c.406.188.874.192 1.284.012l3.386-1.491a1.56 1.56 0 0 1 1.158-.04l3.036 1.091M-.791 19.574l2.615-1.06a1.56 1.56 0 0 1 1.188.004l3.63 1.511a1.56 1.56 0 0 0 1.276-.034l2.929-1.405c.42-.202.908-.205 1.331-.01l3.067 1.417c.414.191.89.192 1.304.003l3.139-1.43c.414-.19.89-.189 1.303.002l3.099 1.43c.406.188.874.193 1.284.012l3.386-1.49a1.56 1.56 0 0 1 1.158-.041l3.036 1.091"/><path fill="#015989" fill-rule="evenodd" d="m-.791 22.227 1.092-.443a5.56 5.56 0 0 1 4.228.018l2.113.88c.411.17.875.158 1.276-.034l1.23-.59a5.56 5.56 0 0 1 4.74-.035l1.358.627c.413.19.889.192 1.303.003l1.469-.67a5.56 5.56 0 0 1 4.639.01l1.433.662c.406.188.874.192 1.284.012l1.924-.848a5.56 5.56 0 0 1 4.123-.143l1.533.55v3.316H-.607z" clip-rule="evenodd"/></g><path fill="#FFC84A" fill-rule="evenodd" d="M9.78 3.42h1.86c.468 0 1.526-.717 2.137-.478.612.239 1.641 1.01 1.641 1.01s1.7-1.342 2.713-1.342 2.842-.15 2.842-.15-.429 1.114-1.635 1.303c-1.207.189-2.65 1.112-2.65 1.112h1.96c.3 0 .69.451.69.451s-.805.547-1.207.547h-.845s-.855.733-1.91.577-1.902-1.124-1.902-1.124-.923-.132-.923-.291c0 0-.109-.05-.16-.05-.29.009-.483.06-.58.05.531-.208.74-.39.74-.39s.366-.344.644-.344c.28 0 1.21.574 1.21.574l.223-.23-1.154-.882c-2.353.247-3.695-.344-3.695-.344" clip-rule="evenodd"/></g></g></g><defs><clipPath id="a"><path fill="#fff" d="M0 0h32v24H0z"/></clipPath></defs></svg>