<svg xmlns="http://www.w3.org/2000/svg" width="32" height="24" fill="none" viewBox="0 0 32 24"><g clip-path="url(#a)"><mask id="b" width="32" height="24" x="0" y="0" maskUnits="userSpaceOnUse" style="mask-type:luminance"><path fill="#fff" d="M32 0H0v24h32z"/></mask><g mask="url(#b)"><path fill="#fff" d="M32 0H0v24h32z"/><path fill="#5196ED" fill-rule="evenodd" d="M0 0v24h32V0z" clip-rule="evenodd"/><mask id="c" width="32" height="24" x="0" y="0" maskUnits="userSpaceOnUse" style="mask-type:luminance"><path fill="#fff" fill-rule="evenodd" d="M0 0v24h32V0z" clip-rule="evenodd"/></mask><g fill-rule="evenodd" clip-rule="evenodd" mask="url(#c)"><path fill="#AF0100" d="M0 12v6h32v-6z"/><path fill="#F7FCFF" d="M0 6v6h32V6z"/><path fill="#FECA00" d="M0 0v6h32V0z"/><path fill="#5EAA22" d="m0 0 19 12L0 24z"/><path fill="#F7FCFF" d="M7.304 16.501s-3.583-1.223-3.456-5.052C3.974 7.621 7.623 6.87 7.623 6.87c-1.278-.922-5.85.159-5.996 4.58-.147 4.42 4.315 5.402 5.677 5.051m.108-6.692.112-.654-.475-.464.657-.095L8 8l.294.596.657.095-.476.464.112.654L8 9.5zm.112 1.346-.112.654L8 11.5l.587.31-.112-.655.476-.464-.657-.095L8 10l-.294.596-.657.095zm-.112 2.654.112-.654-.475-.464.657-.095L8 12l.294.596.657.095-.476.464.112.654L8 13.5zm0 2 .112-.654-.475-.464.657-.095L8 14l.294.596.657.095-.476.464.112.654L8 15.5z"/></g></g></g><defs><clipPath id="a"><path fill="#fff" d="M0 0h32v24H0z"/></clipPath></defs></svg>