<svg xmlns="http://www.w3.org/2000/svg" width="32" height="24" fill="none" viewBox="0 0 32 24"><g clip-path="url(#a)"><mask id="b" width="32" height="24" x="0" y="0" maskUnits="userSpaceOnUse" style="mask-type:luminance"><path fill="#fff" d="M32 0H0v24h32z"/></mask><g mask="url(#b)"><path fill="#fff" d="M32 0H0v24h32z"/><path fill="#C51918" fill-rule="evenodd" d="M0 0v24h32V0z" clip-rule="evenodd"/><path fill="#5EAA22" fill-rule="evenodd" d="M0 0v24L32 0z" clip-rule="evenodd"/><path fill="#272727" stroke="#FFD018" stroke-width="2.5" d="m.637 27.95.723.808.901-.602L38.522 3.953l1.2-.8-.963-1.074-5.32-5.936-.724-.807-.901.602L-4.447 20.14l-1.2.8.963 1.074z"/><path fill="#F7FCFF" fill-rule="evenodd" d="m12.089 16.916-1.09 1.895-.694-2.134-2.162-.688 1.801-1.1-.217-2.233 1.778 1.367 1.842-1.02-.516 2.273 1.477 1.701zm10-6.551-1.09 1.895-.694-2.134-2.162-.687 1.801-1.101-.217-2.233 1.778 1.368 1.842-1.021-.516 2.274 1.477 1.7z" clip-rule="evenodd"/></g></g><defs><clipPath id="a"><path fill="#fff" d="M0 0h32v24H0z"/></clipPath></defs></svg>