<svg xmlns="http://www.w3.org/2000/svg" width="32" height="24" fill="none" viewBox="0 0 32 24"><g clip-path="url(#a)"><mask id="b" width="32" height="24" x="0" y="0" maskUnits="userSpaceOnUse" style="mask-type:luminance"><path fill="#fff" d="M32 0H0v24h32z"/></mask><g mask="url(#b)"><path fill="#fff" d="M32 0H0v24h32z"/><path fill="#3D58DB" fill-rule="evenodd" d="M0 0v24h32V0z" clip-rule="evenodd"/><mask id="c" width="32" height="24" x="0" y="0" maskUnits="userSpaceOnUse" style="mask-type:luminance"><path fill="#fff" fill-rule="evenodd" d="M0 0v24h32V0z" clip-rule="evenodd"/></mask><g mask="url(#c)"><path fill="#C51918" stroke="#F7FCFF" stroke-width="2" d="M0 5h-1v14h34V5z"/><path fill="#F7FCFF" fill-rule="evenodd" d="M10 17a5 5 0 1 0 0-10 5 5 0 0 0 0 10" clip-rule="evenodd"/><path fill="#C51918" fill-rule="evenodd" d="m9.995 13.868-2.717 1.89.959-3.167-2.637-2 3.308-.067 1.087-3.126 1.086 3.126 3.309.068-2.637 1.999.958 3.167z" clip-rule="evenodd"/></g></g></g><defs><clipPath id="a"><path fill="#fff" d="M0 0h32v24H0z"/></clipPath></defs></svg>