<svg xmlns="http://www.w3.org/2000/svg" width="32" height="24" fill="none" viewBox="0 0 32 24"><g clip-path="url(#a)"><mask id="b" width="32" height="24" x="0" y="0" maskUnits="userSpaceOnUse" style="mask-type:luminance"><path fill="#fff" d="M32 0H0v24h32z"/></mask><g mask="url(#b)"><path fill="#fff" d="M32 0H0v24h32z"/><path fill="#F7FCFF" fill-rule="evenodd" d="M0 0v24h32V0z" clip-rule="evenodd"/><mask id="c" width="32" height="24" x="0" y="0" maskUnits="userSpaceOnUse" style="mask-type:luminance"><path fill="#fff" fill-rule="evenodd" d="M0 0v24h32V0z" clip-rule="evenodd"/></mask><g mask="url(#c)"><path fill="#3D58DB" fill-rule="evenodd" d="M16 18.22c3.203 0 5.8-2.758 5.8-6.16 0-3.4-2.597-6.158-5.8-6.158s-5.799 2.758-5.799 6.159 2.596 6.158 5.8 6.158" clip-rule="evenodd"/><mask id="d" width="12" height="14" x="10" y="5" maskUnits="userSpaceOnUse" style="mask-type:luminance"><path fill="#fff" fill-rule="evenodd" d="M16 18.22c3.203 0 5.8-2.758 5.8-6.16 0-3.4-2.597-6.158-5.8-6.158s-5.799 2.758-5.799 6.159 2.596 6.158 5.8 6.158" clip-rule="evenodd"/></mask><g mask="url(#d)"><path fill="#E31D1C" fill-rule="evenodd" d="M22.002 12.533s-.326-2.903-2.736-3.061-3.06 2.13-3.2 2.735c-.14.606-.491 2.223-3.03 2.223-2.537 0-2.766-4.11-2.766-4.11V5.472h11.732z" clip-rule="evenodd"/></g><path fill="#272727" fill-rule="evenodd" d="m7.299 2.055.915.827-4.24 4.952-.915-.827zm1.509 1.339.915.827-4.088 4.88-.915-.827zm2.417 2.183-.915-.827-4.1 4.917.915.827zm14.139-3.87-.916.824 1.588 1.863.915-.824zm2.821 3.427-.915.824 1.587 1.863.916-.824zm-6.757.08.915-.824 1.587 1.863-.915.824zm3.736 2.603-.915.824 1.588 1.863.915-.824zm-2.169-3.984.915-.824 4.419 5.38-.915.825zm3.06 10.413-.923-.828-1.6 1.87.922.828zm-2.692 3.29-.922-.827-1.601 1.87.923.828zm4.683-1.5.923.827-1.6 1.87-.924-.828zM26.41 20.23l-.923-.827-1.601 1.87.923.827zm-2.444-2.25.923.828-1.67 1.997-.924-.828zm3.665-2.5-.923-.827-1.671 1.997.923.828zm-21.224-.588.915-.826 4.085 4.68-.915.826zm.953 4.093.915-.825L10 20.056l-.915.825zm-3.05-2.292-.915.825L7.5 22.261l.916-.825zm.65-.539.916-.825 1.496 1.754-.915.825z" clip-rule="evenodd"/></g></g></g><defs><clipPath id="a"><path fill="#fff" d="M0 0h32v24H0z"/></clipPath></defs></svg>