<svg xmlns="http://www.w3.org/2000/svg" width="32" height="24" fill="none" viewBox="0 0 32 24"><g clip-path="url(#a)"><mask id="b" width="32" height="24" x="0" y="0" maskUnits="userSpaceOnUse" style="mask-type:luminance"><path fill="#fff" d="M32 0H0v24h32z"/></mask><g mask="url(#b)"><path fill="#fff" d="M32 0H0v24h32z"/><mask id="c" width="32" height="24" x="0" y="0" maskUnits="userSpaceOnUse" style="mask-type:luminance"><path fill="#fff" d="M32 0H0v24h32z"/></mask><g mask="url(#c)"><path fill="#2E42A5" fill-rule="evenodd" d="M0 0v24h32V0z" clip-rule="evenodd"/><mask id="d" width="32" height="24" x="0" y="0" maskUnits="userSpaceOnUse" style="mask-type:luminance"><path fill="#fff" fill-rule="evenodd" d="M0 0v24h32V0z" clip-rule="evenodd"/></mask><g mask="url(#d)"><path fill="#F7FCFF" d="m-2.004 13 3.961 1.737L18.09 1.889l2.09-2.582-4.236-.58-6.58 5.536-5.297 3.73z"/><path fill="#F50100" d="m-1.462 14.216 2.018 1.008L19.429-.934h-2.833z"/><path fill="#F7FCFF" d="m20.005 13-3.961 1.737L-.09 1.889-2.18-.693l4.236-.58 6.58 5.536 5.297 3.73z"/><path fill="#F50100" d="m19.87 13.874-2.018 1.008-8.037-6.918-2.382-.773L-2.38-.684H.454l9.806 7.688 2.605.927z"/><path fill="#F50100" fill-rule="evenodd" d="M9.985 0h-2v6H0v2h7.985v6h2V8H18V6H9.985z" clip-rule="evenodd"/><mask id="e" width="22" height="18" x="-2" y="-2" maskUnits="userSpaceOnUse" style="mask-type:luminance"><path fill="#fff" d="M20-2H-2v18h22z"/><path fill="#000" fill-rule="evenodd" d="M9.985 0h-2v6H0v2h7.985v6h2V8H18V6H9.985z" clip-rule="evenodd"/></mask><g mask="url(#e)"><path fill="#F7FCFF" d="M7.985 0v-1.5h-1.5V0zm2 0h1.5v-1.5h-1.5zm-2 6v1.5h1.5V6zM0 6V4.5h-1.5V6zm0 2h-1.5v1.5H0zm7.985 0h1.5V6.5h-1.5zm0 6h-1.5v1.5h1.5zm2 0v1.5h1.5V14zm0-6V6.5h-1.5V8zM18 8v1.5h1.5V8zm0-2h1.5V4.5H18zM9.985 6h-1.5v1.5h1.5zm-2-4.5h2v-3h-2zm1.5 4.5V0h-3v6zM0 7.5h7.985v-3H0zm1.5.5V6h-3v2zm6.485-1.5H0v3h7.985zm1.5 7.5V8h-3v6zm.5-1.5h-2v3h2zM8.485 8v6h3V8zM18 6.5H9.985v3H18zM16.5 6v2h3V6zM9.985 7.5H18v-3H9.985zM8.485 0v6h3V0z"/></g><mask id="f" width="8" height="10" x="21" y="11" maskUnits="userSpaceOnUse" style="mask-type:luminance"><path fill="#fff" d="M29 11h-8v10h8z"/></mask><g mask="url(#f)"><path fill="#fff" d="M21.058 14.723V11.05h7.802v3.672c0 2.352-.91 3.91-1.835 4.879a6.3 6.3 0 0 1-1.292 1.04 4 4 0 0 1-.447.238 2 2 0 0 1-.186.07l-.011-.002-.042-.013a2 2 0 0 1-.144-.056 5 5 0 0 1-.478-.237 6.8 6.8 0 0 1-1.39-1.041c-.997-.97-1.977-2.528-1.977-4.878"/><path stroke="#0B50A0" stroke-width="0.1" d="M21.058 14.723V11.05h7.802v3.672c0 2.352-.91 3.91-1.835 4.879a6.3 6.3 0 0 1-1.292 1.04 4 4 0 0 1-.447.238 2 2 0 0 1-.186.07l-.011-.002-.042-.013a2 2 0 0 1-.144-.056 5 5 0 0 1-.478-.237 6.8 6.8 0 0 1-1.39-1.041c-.997-.97-1.977-2.528-1.977-4.878Z"/><path stroke="#F7FCFF" stroke-width="0.1" d="M21.058 14.723V11.05h7.802v3.672c0 2.352-.91 3.91-1.835 4.879a6.3 6.3 0 0 1-1.292 1.04 4 4 0 0 1-.447.238 2 2 0 0 1-.186.07l-.011-.002-.042-.013a2 2 0 0 1-.144-.056 5 5 0 0 1-.478-.237 6.8 6.8 0 0 1-1.39-1.041c-.997-.97-1.977-2.528-1.977-4.878Z"/><mask id="g" width="8" height="10" x="21" y="11" maskUnits="userSpaceOnUse" style="mask-type:luminance"><path fill="#fff" d="M21.058 14.723V11.05h7.802v3.672c0 2.352-.91 3.91-1.835 4.879a6.3 6.3 0 0 1-1.292 1.04 4 4 0 0 1-.447.238 2 2 0 0 1-.186.07l-.011-.002-.042-.013a2 2 0 0 1-.144-.056 5 5 0 0 1-.478-.237 6.8 6.8 0 0 1-1.39-1.041c-.997-.97-1.977-2.528-1.977-4.878"/><path stroke="#fff" stroke-width="0.1" d="M21.058 14.723V11.05h7.802v3.672c0 2.352-.91 3.91-1.835 4.879a6.3 6.3 0 0 1-1.292 1.04 4 4 0 0 1-.447.238 2 2 0 0 1-.186.07l-.011-.002-.042-.013a2 2 0 0 1-.144-.056 5 5 0 0 1-.478-.237 6.8 6.8 0 0 1-1.39-1.041c-.997-.97-1.977-2.528-1.977-4.878Z"/></mask><g mask="url(#g)"><path fill="#F50100" d="M29.5 10.5h-9v3.4h9z"/><path fill="#F50100" d="M24.512 14.602c.288 0 .864-.314 1.008-.386.528-.314.912-.024 1.224.12.336.145.96.314 1.344 0 .384-.313.6-.29.864-.29.048-.36.048-.723.048-1.132v-.29c-.336-.072-.504.024-.864.338-.36.313-.768.241-1.296.048-.504-.217-1.008-.603-1.512 0-.144.169-.48.41-.816.41-.36 0-.672-.241-.816-.41-.528-.603-1.008-.217-1.512 0-.528.193-.96.265-1.32-.048-.336-.314-.504-.41-.864-.338v.29c0 .41.024.771.072 1.133.264 0 .456-.024.84.29.384.313 1.032.144 1.344 0 .336-.145.72-.435 1.248-.121.144.072.696.386 1.008.386"/><path fill="#FFD100" fill-rule="evenodd" d="M22.084 12.049s.217.01.474.275c.256.265 1.202.097 1.202-.063s-.574-.256-.354-.53c.22-.273.594-.273.894-.13.086 0 .077.935.273.883.622-.162 1.625-.485 1.92-.346.386.182.683.136.584-.125-.098-.26-.351-.424-.838-.281s-.372.281-.793.281-1.143.228-.822-.281c.287-.457.63-.466.76-.274.067.098-.479.315-.479.416 0 .14 1.407-.274 1.587-.274s.677-.01.726.132.348.273.12.406-.605.216-.346.386c.26.17.916.247.944.424.03.178.311.442.198.442s-.318.25-.509.173c-.19-.076-.213-.142-.03-.204.183-.061.181-.32.03-.32-.15 0-.137-.02-.48-.11-.344-.09-.799-.191-.771 0 .027.191.26.602-.153.641s-.606.196-.686.07c-.08-.127-.367-.296-.142-.35.226-.054.442.184.523.145.081-.038.257-.177.102-.342-.154-.164-.454-.17-.218-.293s.095-.217-.354.038c-.45.255-.7.472-1.094.442-.394-.031-.571.11-.698.068s-.744.457-.922.33c-.178-.126-.752-.175-.649-.33.104-.156.242-.236.397-.156.154.08.308.16.412.08s.435-.453.359-.508-.343-.15-.771-.15c-.429 0-.439-.284-.54-.414s.144-.151.144-.151" clip-rule="evenodd"/><path fill="#0B50A0" d="M24.512 17c.288 0 .864-.314 1.008-.386.528-.313.912-.024 1.224.12.336.145.96.314 1.344 0 .384-.313.6-.289.864-.289.048-.361.048-.723.048-1.133v-.29c-.336-.072-.504.025-.864.338-.36.314-.768.242-1.296.049-.504-.217-1.008-.603-1.512 0-.144.168-.48.41-.816.41-.36 0-.672-.242-.816-.41-.528-.603-1.008-.217-1.512 0-.528.192-.96.265-1.32-.049-.336-.313-.504-.41-.864-.337v.29c0 .41.024.77.072 1.132.264 0 .456-.024.84.29.384.313 1.032.144 1.344 0 .336-.145.72-.434 1.248-.12.144.072.696.385 1.008.385m0 2.3c.288 0 .864-.313 1.008-.385.528-.313.912-.024 1.224.12.336.145.96.314 1.344 0 .384-.313.6-.289.864-.289.048-.361.048-.723.048-1.133v-.29c-.336-.072-.504.025-.864.338-.36.314-.768.241-1.296.048-.504-.217-1.008-.602-1.512 0-.144.17-.48.41-.816.41-.36 0-.672-.24-.816-.41-.528-.602-1.008-.217-1.512 0-.528.193-.96.266-1.32-.048-.336-.313-.504-.41-.864-.337v.289c0 .41.024.771.072 1.133.264 0 .456-.024.84.29.384.313 1.032.144 1.344 0 .336-.145.72-.434 1.248-.121.144.072.696.386 1.008.386m0 2.301c.288 0 .864-.314 1.008-.386.528-.314.912-.024 1.224.12.336.145.96.314 1.344 0 .384-.313.6-.29.864-.29.048-.36.048-.723.048-1.132v-.29c-.336-.072-.504.024-.864.338-.36.313-.768.241-1.296.048-.504-.217-1.008-.603-1.512 0-.144.169-.48.41-.816.41-.36 0-.672-.241-.816-.41-.528-.603-1.008-.217-1.512 0-.528.193-.96.265-1.32-.048-.336-.314-.504-.41-.864-.338v.29c0 .41.024.771.072 1.133.264 0 .456-.024.84.29.384.313 1.032.144 1.344 0 .336-.145.72-.435 1.248-.121.144.072.696.386 1.008.386"/><path fill="#059334" stroke="#FFD100" stroke-width="0.2" d="m25.083 18.545-.05-.027-.048.029-.417.247.123-.517.013-.057-.043-.04-.405-.374h.589l.024-.066.173-.47.206.476.026.06h.494l-.36.38-.04.043.019.057.17.51zm-2-2-.05-.027-.048.029-.417.247.123-.517.013-.057-.043-.04-.405-.374h.589l.024-.065.173-.471.206.476.026.06h.494l-.36.38-.04.043.019.057.17.51zm4 0-.05-.027-.048.029-.417.247.123-.517.013-.057-.043-.04-.405-.374h.589l.024-.065.173-.471.206.476.026.06h.494l-.36.38-.04.043.019.057.17.51z"/></g></g><path fill="#FFD100" d="M20.338 20.635c.092.197.75.455 1.515.123.521-.233.858-.565 1.18-1.155.091-.148.137-.332-.077-.442-.168-.099-.444-.21-.567-.308-.06-.049-.122-.086-.168-.123.03.025.061.05.092.087.306.294-.015.724-.352.983-.245.184-.69.639-1.332.209-.138-.099-.46.307-.291.626m9.308 0c-.107.197-.766.455-1.516.123-.52-.233-.857-.565-1.194-1.155-.077-.148-.123-.332.092-.442.168-.099.444-.21.566-.308a2 2 0 0 1 .169-.123.6.6 0 0 0-.092.087c-.306.294.015.724.337.983.245.184.704.639 1.347.209.138-.099.444.307.291.626"/><path fill="#FFD100" d="M24.992 21.69c1.225 0 3.108-.443 4.119-1.991.168-.258 0-.393-.2-.48a2.4 2.4 0 0 1-.612-.356c.245.197.2.332.03.553-.78 1.045-1.852 1.573-3.337 1.573s-2.557-.528-3.338-1.573c-.168-.22-.214-.356.016-.553-.123.11-.399.283-.613.357-.199.086-.367.22-.199.479 1.01 1.548 2.91 1.99 4.134 1.99"/><path fill="#F50100" d="M22.16 19.614c-.031-.123-.23-.074-.291.073-.077-.086-.154-.172-.215-.27-.183-.221-.214-.369.046-.578.123-.098.368-.208.536-.085.352.233.168.614-.076.86m5.649 0c.03-.123.245-.074.306.073.076-.086.153-.172.214-.27.184-.221.215-.369-.061-.578-.107-.098-.352-.208-.536-.085-.337.233-.168.614.077.86"/><path fill="#059334" d="M23.424 9.363c-.12-.164-.447-.237-.584-.091-.052.036-.12.036-.172.054-.086 0-.196.046-.162.229.093 0 .093.045.145.045.034-.018.123.317.295.298.19 0 .358.085.392.122.052.055.12.2.034.274a.385.385 0 0 0 0 .566c.224.182.791.456 1.427-.073.619-.512 1.581-.22 1.65-.037.086.183.12.292.138.383.017.073.48.183.55.238.086.054.206.036.172-.128-.07-.511-.361-.584-.396-.822.172.019.292.019.361-.054.052-.073.12-.201.19-.238.05-.036.05-.073-.018-.054-.086.018-.137.054-.292.036-.366-.042-.276-1.427-1.486-1.696-.748-.166-1.68.975-1.936 1.088l-.016.006a.36.36 0 0 1-.292-.146"/></g></g></g></g><defs><clipPath id="a"><path fill="#fff" d="M0 0h32v24H0z"/></clipPath></defs></svg>