<svg xmlns="http://www.w3.org/2000/svg" width="32" height="24" fill="none" viewBox="0 0 32 24"><g clip-path="url(#a)"><mask id="b" width="32" height="24" x="0" y="0" maskUnits="userSpaceOnUse" style="mask-type:luminance"><path fill="#fff" d="M32 0H0v24h32z"/></mask><g mask="url(#b)"><path fill="#fff" d="M32 0H0v24h32z"/><path fill="#4EC7EE" fill-rule="evenodd" d="M0 0v24h32V0z" clip-rule="evenodd"/><mask id="c" width="32" height="24" x="0" y="0" maskUnits="userSpaceOnUse" style="mask-type:luminance"><path fill="#fff" fill-rule="evenodd" d="M0 0v24h32V0z" clip-rule="evenodd"/></mask><g mask="url(#c)"><path fill="#FFE402" d="M4.09 23.236c-.064.47.237.805.742 1.02.68.29 1.364.018 1.994-.68l-.816-.737c-.28.31-.482.43-.639.428q.46-.328 1.175-.808l.229-.332c.184-.79-.388-1.217-1.26-1.217-.514 0-.925.102-1.185.32-.429.36-.355.932.095 1.23q.053.037.11.064c-.254.214-.408.434-.445.712"/><path stroke="#FFE402" stroke-width="1.1" d="M4.565 22.495s.125-.277.063-.42"/><path fill="#FFE402" d="M8.57 23.236c.063.47-.238.805-.743 1.02-.679.29-1.364.018-1.994-.68l.817-.737c.28.31.482.43.638.428a51 51 0 0 0-1.175-.808l-.229-.332c-.184-.79.388-1.217 1.26-1.217.514 0 .925.102 1.186.32.428.36.355.932-.096 1.23a1 1 0 0 1-.109.064c.253.214.407.434.445.712"/><path fill="#FFE402" d="m8.596 22.269-1.002.452c-.141-.312-.183-.595-.066-.866l1.01.438c.033-.078.033-.081.058-.024M4.09.764c-.064-.47.237-.805.742-1.02.68-.29 1.364-.019 1.994.68l-.816.736C5.73.85 5.528.73 5.37.733q.46.327 1.175.808l.229.332c.184.789-.388 1.216-1.26 1.216-.514 0-.925-.101-1.185-.32-.429-.359-.355-.932.095-1.23q.053-.036.11-.064c-.254-.213-.408-.434-.445-.711"/><path fill="#FFE402" d="M8.57.764c.063-.47-.238-.805-.743-1.02-.679-.29-1.364-.019-1.994.68l.817.736c.28-.31.482-.43.638-.427q-.459.327-1.175.808l-.229.332c-.184.789.388 1.216 1.26 1.216.514 0 .925-.101 1.186-.32.428-.359.355-.932-.096-1.23a1 1 0 0 0-.109-.064c.253-.213.407-.434.445-.711"/><path fill="#FFE402" fill-rule="evenodd" d="M5.094 20.063c-.631.018-1.024.148-1.024.757 0 .67.652.88 1.345.88.628 0 1.336-.39 1.336-1.088 0-.424-.54-1.281-1.9-3.139-.047-.044-.073-.066-.094-.066a.9.9 0 0 1 .42-.1c.066 0 .152.034.238.077v.728h1.44v-.55c0-.621-.919-1.355-1.679-1.355-.663 0-1.195.316-1.465.77-.267.448-.063.879.32 1.221.57.786 1.012 1.436 1.29 1.864a5 5 0 0 0-.227.001m.067.507-.057-.014c.014.014.066.076.066.264 0 .102-.005.173-.011.224a.53.53 0 0 1-.102-.669l.003-.006-.02-.04.008-.005c.032-.016.058-.03.012.045zm-.057-.014-.019-.006.008.004zm.547.056q0-.027-.018-.036l.007.007a.1.1 0 0 1 .01.03" clip-rule="evenodd"/><path fill="#FFE402" fill-rule="evenodd" d="M7.565 20.063c.631.018 1.024.148 1.024.757 0 .67-.652.88-1.345.88-.628 0-1.335-.39-1.335-1.088 0-.424.54-1.281 1.9-3.139.046-.044.072-.066.093-.066a.9.9 0 0 0-.42-.1.6.6 0 0 0-.238.077v.728h-1.44v-.55c0-.621.92-1.355 1.679-1.355.663 0 1.196.316 1.465.77.267.448.063.879-.32 1.221a46 46 0 0 0-1.29 1.864c.103-.001.159-.001.227.001m-.067.507.057-.014c-.013.014-.066.076-.066.264 0 .102.005.173.012.224a.53.53 0 0 0 .101-.669l-.003-.006.02-.04-.008-.005c-.032-.016-.058-.03-.012.045zm.057-.014.019-.006-.008.004zm-.546.056q0-.027.017-.036l-.006.007a.1.1 0 0 0-.011.03" clip-rule="evenodd"/><path fill="#FFE402" fill-rule="evenodd" d="M5.094 13.356c-.631-.018-1.024-.148-1.024-.757 0-.67.652-.88 1.345-.88.628 0 1.336.39 1.336 1.088 0 .424-.54 1.281-1.9 3.139-.047.044-.073.066-.094.066.083.046.228.1.42.1a.6.6 0 0 0 .238-.077v-.728h1.44v.55c0 .621-.919 1.355-1.679 1.355-.663 0-1.195-.316-1.465-.77-.267-.448-.063-.879.32-1.221a46 46 0 0 0 1.29-1.864 5 5 0 0 1-.227-.001m.067-.507-.057.014c.014-.014.066-.076.066-.264 0-.102-.005-.173-.011-.224a.53.53 0 0 0-.102.669l.003.005-.02.042.008.004c.032.016.058.03.012-.046zm-.057.014-.019.006.008-.004zm.547-.056q0 .027-.018.036l.007-.007a.1.1 0 0 0 .01-.03" clip-rule="evenodd"/><path fill="#FFE402" fill-rule="evenodd" d="M7.565 13.356c.631-.018 1.024-.148 1.024-.757 0-.67-.652-.88-1.345-.88-.628 0-1.335.39-1.335 1.088 0 .424.54 1.281 1.9 3.139.046.044.072.066.093.066a.9.9 0 0 1-.42.1.6.6 0 0 1-.238-.077v-.728h-1.44v.55c0 .621.92 1.355 1.679 1.355.663 0 1.196-.316 1.465-.77.267-.448.063-.879-.32-1.221a46 46 0 0 1-1.29-1.864c.103.001.159.001.227-.001m-.067-.507.057.014c-.013-.014-.066-.076-.066-.264 0-.102.005-.173.012-.224a.53.53 0 0 1 .101.669l-.003.005.02.042-.008.004c-.032.016-.058.03-.012-.046zm.057.014.019.006-.008-.004zm-.546-.056q0 .027.017.036l-.006-.007a.1.1 0 0 1-.011-.03" clip-rule="evenodd"/><path fill="#FFE402" fill-rule="evenodd" d="M5.094 10.645c-.631.018-1.024.148-1.024.757 0 .67.652.88 1.345.88.628 0 1.336-.39 1.336-1.088 0-.424-.54-1.281-1.9-3.139-.047-.044-.073-.066-.094-.066a.9.9 0 0 1 .42-.1c.066 0 .152.034.238.077v.728h1.44v-.55c0-.621-.919-1.355-1.679-1.355-.663 0-1.195.316-1.465.77-.267.448-.063.879.32 1.221.57.786 1.012 1.437 1.29 1.864-.103-.001-.159 0-.227.001m.067.507-.057-.014c.014.014.066.076.066.264 0 .102-.005.173-.011.224a.53.53 0 0 1-.102-.669l.003-.005-.02-.042.008-.004c.032-.016.058-.03.012.046zm-.057-.014-.019-.006.008.004zm.547.056q0-.027-.018-.036l.007.008a.1.1 0 0 1 .01.028" clip-rule="evenodd"/><path fill="#FFE402" fill-rule="evenodd" d="M7.565 10.645c.631.018 1.024.148 1.024.757 0 .67-.652.88-1.345.88-.628 0-1.335-.39-1.335-1.088 0-.424.54-1.281 1.9-3.139.046-.044.072-.066.093-.066a.9.9 0 0 0-.42-.1.6.6 0 0 0-.238.077v.728h-1.44v-.55c0-.621.92-1.355 1.679-1.355.663 0 1.196.316 1.465.77.267.448.063.879-.32 1.221a46 46 0 0 0-1.29 1.864c.103-.001.159 0 .227.001m-.067.507.057-.014c-.013.014-.066.076-.066.264 0 .102.005.173.012.224a.53.53 0 0 0 .101-.669l-.003-.005.02-.042-.008-.004c-.032-.016-.058-.03-.012.046zm.057-.014.019-.006-.008.004zm-.546.056q0-.027.017-.036l-.006.008a.1.1 0 0 0-.011.028" clip-rule="evenodd"/><path fill="#FFE402" fill-rule="evenodd" d="M5.094 3.938C4.463 3.92 4.07 3.79 4.07 3.181c0-.67.652-.88 1.345-.88.628 0 1.336.39 1.336 1.088 0 .424-.54 1.281-1.9 3.139-.047.044-.073.066-.094.066.083.046.228.1.42.1a.6.6 0 0 0 .238-.077V5.89h1.44v.55c0 .621-.919 1.355-1.679 1.355-.663 0-1.195-.316-1.465-.77-.267-.448-.063-.879.32-1.221a46 46 0 0 0 1.29-1.864 5 5 0 0 1-.227-.001m.067-.507-.057.014c.014-.014.066-.076.066-.264 0-.102-.005-.173-.011-.224a.53.53 0 0 0-.102.669l.003.005-.02.042.008.004c.032.016.058.03.012-.046zm-.057.014-.019.006.008-.004zm.547-.056q0 .027-.018.036l.007-.007a.1.1 0 0 0 .01-.03" clip-rule="evenodd"/><path fill="#FFE402" fill-rule="evenodd" d="M7.565 3.938c.631-.018 1.024-.148 1.024-.757 0-.67-.652-.88-1.345-.88-.628 0-1.335.39-1.335 1.088 0 .424.54 1.281 1.9 3.139.046.044.072.066.093.066a.9.9 0 0 1-.42.1.6.6 0 0 1-.238-.077V5.89h-1.44v.55c0 .621.92 1.355 1.679 1.355.663 0 1.196-.316 1.465-.77.267-.448.063-.879-.32-1.221a46 46 0 0 1-1.29-1.864c.103.001.159.001.227-.001m-.067-.507.057.014c-.013-.014-.066-.076-.066-.264 0-.102.005-.173.012-.224a.53.53 0 0 1 .101.669l-.003.005.02.042-.008.004c-.032.016-.058.03-.012-.046zm.057.014.019.006-.008-.004zm-.546-.056q0 .027.017.036l-.006-.007a.1.1 0 0 1-.011-.03m11.977-.604.41 1.528s.005.347-.387.347c-.393 0-.412-.347-.412-.347zM22.45 8.62c0 1.989-1.518 3.6-3.39 3.6s-3.39-1.612-3.39-3.6 1.518-3.6 3.39-3.6 3.39 1.612 3.39 3.6m-1.87-4 .056-1.58-.82 1.347s-.082.338.293.453a.35.35 0 0 0 .472-.22m1.56-.831-.515 1.495s-.19.29-.515.071-.147-.518-.147-.518zm.296 2.455.93-1.28-1.433.659s-.257.234-.01.538.513.083.513.083m1.775.234-1.28.93s-.322.129-.463-.238a.38.38 0 0 1 .177-.508zm-1.124 2.205 1.496-.515-1.551-.283s-.345.044-.318.435c.027.392.373.363.373.363m1.373 1.213-1.58.056s-.34-.074-.252-.456.431-.323.431-.323zm-2.135 1.205 1.528.41-1.128-1.102s-.31-.156-.507.183a.35.35 0 0 0 .107.51m.49 1.767-1.34-.838s-.24-.25.046-.518c.287-.268.538-.027.538-.027zm-2.413-.214 1.038 1.194-.32-1.544s-.17-.304-.522-.132-.195.482-.195.482m-.554 1.709-.643-1.445s-.06-.342.328-.403a.38.38 0 0 1 .46.278zM18 12.794l.166 1.573.624-1.448s.035-.346-.353-.407c-.387-.061-.436.282-.436.282m-1.428 1.063.302-1.552s.148-.314.5-.142.218.492.218.492zm-.637-2.371-.742 1.397 1.327-.852s.222-.267-.065-.535c-.286-.267-.52-.01-.52-.01m-1.784.043 1.118-1.119s.299-.177.495.162c.196.34-.095.53-.095.53zm.784-2.355-1.396.743 1.576.036s.334-.098.245-.48c-.088-.382-.425-.3-.425-.3m-1.525-.986 1.553-.302s.346.02.319.411-.375.387-.375.387zm1.94-1.525-1.573-.166 1.286.912s.331.106.472-.26-.185-.486-.185-.486m-.734-1.682 1.445.643s.273.215.026.52c-.247.304-.529.101-.529.101zm2.415-.143L15.837 3.8l.53 1.484s.211.277.537.058c.325-.22.127-.505.127-.505m.308-1.79.839 1.34s.106.33-.27.445c-.374.115-.494-.211-.494-.211z" clip-rule="evenodd"/><path fill="#FFE402" fill-rule="evenodd" d="m12.222 10.675-.038-.154.07.14zm.095.33a7 7 0 0 1-.095-.33l-.43.17.064.16h-.046l-.018.008a2 2 0 0 1-.038-.371v-.987l.43.866a3 3 0 0 1-.082-.637v-1.23L12.6 9.9l-.473.148.186.594h-.01l-.05.02.177.354.17.544c-.159-.292-.24-.486-.24-.555zm.547 1.386q-.356-.79-.547-1.386h-.46l.468 1.173-.174-.185a4 4 0 0 1-.359-.98l-.381.19-.076-.081v.119l-.017.008.017.035v.135a1.4 1.4 0 0 1-.075-.414V8.66l.494.994V7.78l.348.872V6.285l1.39 4.444-.097.032q-.193-.58-.193-.877h-.55L12.6 9.9l.395.99-.095.032a1 1 0 0 1-.046-.28h-.541l.117.374.614 1.237-.025.01q-.26-.412-.419-.703l.241.77.178-.067.025.038zm.191-.072-.19.072-.232.116-.308-.33.147.37-.034-.03a8 8 0 0 1-.287-.524l-.74-.79-.076.038v.043l.61 1.229h-.06l-.004.004c-.271-.448-.453-.807-.546-1.098v.803L9.15 10.666l2.783 3.31a8.84 8.84 0 0 0 3.28 2.437l-2.519-.053 2.56.722-1.324.975 2.288-.703.624.176c.84.237 1.307.475 1.338.547l.117.279.299.05c.654.108 1.86-.061 3.414-.406a35 35 0 0 0 1.468-.358 8 8 0 0 0 .382-.11l.071-.025c.026-.01.026-.01.084-.043.05-.006.088-.012.112-.032.069-.055.044-.226-.05-.87-.434-.115-.495-.132-.51-.112l-.007.012q-.224.047-.689-.012c2.586-1.272 4.284-2.546 5.098-3.856l1.489-2.398-.902.658.325-1.045-1.285.826q.248-.33.383-.656l.968-2.34-1.527 1.425.828-2.731-1.966 2.634-8.05 5.924-.125-.03c-1.981-.459-3.373-1.859-4.201-4.267l-.413.135.005.017-.097.032-.006-.017-.4.13.007.017-.097.031-.005-.017-.04.013q.201.652.438 1.221l-.254.097.02.038-.02.01zm.019-.007-.019.007.04.061-.395.198-.066-.07-.13.064-.032-.026.014.035.018-.01q.035.027.087.062l-.063.032-.09-.149-.003-.003h-.49l.11.223-.071-.052-.103-.167-.057.053-.489-.348v.29c0 .521.366.915.996 1.238l-.296.321 3.29 2.345-.112-.003q.162.07.328.136l.285.113-.571.42.963.272.768-.236 2.733 1.077-.881-.628q.161 0 .313-.004a1 1 0 0 0-.164-.225 2 2 0 0 1-.21-.018l-.03.182-.922-.656q.53-.183 1.027-.383c1.364-.014 2.182-.088 2.303-.178l.21-.156.255.066q.367.093.674.157l.175.293.402-.195-.1-.014 5.055-3.688-.423-.393c.535-.275.884-.637 1.029-1.103l.124-.398-.545.397-.104-.162-.525-.163c-.049.156-.207.312-.487.455q.42-.375.7-.746l-.793.51 1.044-.974-.651-.452q.084-.192.142-.38l.083-.275-.368.344-.548-.277.253-.514-.475.35-1.125 1.508-.383-.321c-1.028 2.085-2.877 3.74-5.568 4.963l-.973-.226-.278.204.028-.248c-1.834 0-3.186-1.36-4.072-4.236l-.413.135.393 1.256-.393.149-.024-.061.394-.15a13 13 0 0 1-.467-1.162l-.399.13.472 1.182-.034.012.026-.012c-.293-.477-.478-.866-.561-1.15l-.04.012q.217.63.485 1.185l-.052.02.006.014-.24.12zm.25-.095-.25.095.031.063-.01.005.037.058-.366.21-.066-.07-.109.055.097.06-.384.22-.248-.177.123.248.125-.072.058.042-.15.086a20 20 0 0 1-.228-.356l-.16-.114-.34.319.705.753.402-.376.056-.11 1.792 1.277.663.707a7.7 7.7 0 0 1-2.327-1.87l-.444.48.01.005 2.805 1.433-.044-.048q.405.213.842.385l-.484.893-.135-.002.098.07.037-.068.677.015-.31.229 1.159.456.04-.012q.408-.126.8-.26l-.2-.143.324-.238q.485.003.902-.002.61-.244 1.174-.516h2.028l.24.405.136.026.127.214.213-.156a8 8 0 0 1-.34-.058l-.257-.43h.617l-.716-.167-.077-.13c2.127-1.01 3.632-2.004 4.512-2.957q.51-.142.894-.339l-.184-.17.985-.633-.193-.3-1.66 1.21-.208-.484q.42-.302.752-.597-.235.121-.589.227l.496-.463-1.505.968c.938-.866 1.572-1.658 1.898-2.394l-.067-.046.123-.165-.2-.1-1.265 1.18.718-1.457-.22-.111c-.135.443-.469.965-1.006 1.556l-.12-.101-.68.908.17.153-5.004 3.682-.438-.101q-.627.285-1.315.538l.064-.56-.842.62c-1.614-.577-2.857-1.748-3.718-3.485l.113-.057-.01-.022-.12.045-.024-.05.086-.044-.09.035.004.009-.05.025zm.017.04-.236.118.06.12-.354.202-.045-.049-.078.045.065.037-.391.224.284.202.195-.38-.088-.046.058-.033 1.628 1.736 2.243 1.599-.545.4.765.017.29.574.433-.32-.346-.247q.35.007.67.009l.704-.518h1.373q.442-.213.857-.442l1.053.244.118.198h.12l-.1-.166-.138-.032-.027-.046 3.88-2.83.488-.12q.119-.027.232-.06.057-.06.11-.123l.6-.385-.184-.172q-.172.276-.415.557l-.175.112-.094-.22-.562.41-1.992.484q.334-.332.633-.686l.637-.41.218.286q.467-.287.858-.568l-.067-.156.23-.214q-.135.04-.288.077l.058.137-.704.657-.212-.278.132-.085.005-.003-.005.003-.26-.234.058-.085.27.244 1.768-2.368-.165-.115c-.179.432-.65.938-1.418 1.495a10 10 0 0 0 .216-.413l.025-.052-.233.218-.275-.23q-.318.35-.731.732l.184.166-.083.062.063.056-.09.083.29.38q-.227.315-.482.615l-1.331.856.699-.17q-1.218 1.211-2.914 2.15l-1.239-.288-.991.73h-.67q-.39 0-.756-.061l.202-.068q.21.063.43.114l.032-.278q-.228.083-.462.164a7 7 0 0 1-.316-.104l-.16.117c-1.549-.361-2.755-1.571-3.612-3.575m0 0 .054-.027-.016-.034-.055.021zm3.37 3.795-.029-.02.271-.2q.136.032.274.055-.254.084-.516.165m8.266-4.091.055-.08-.311-.28.09-.056.279.252a10 10 0 0 0 .455-.744q-.33.24-.735.492l-.025-.023.445-.415.363-.267-.04-.034-.323.301-.499.367.054.048-.075.07.01.01-.011.006zm0 0 .183.24-.093.06-.157-.207zm-8.266 4.091.568.404-.276-.005-.1-.002-.2-.395zm2.035 1.45-.01.066.102-.001zm3.065-.333-.16-.216-.24.051-.065.256.19.048a1 1 0 0 0 .274-.139" clip-rule="evenodd"/></g></g></g><defs><clipPath id="a"><path fill="#fff" d="M0 0h32v24H0z"/></clipPath></defs></svg>