<svg xmlns="http://www.w3.org/2000/svg" width="32" height="24" fill="none" viewBox="0 0 32 24"><g clip-path="url(#a)"><mask id="b" width="32" height="24" x="0" y="0" maskUnits="userSpaceOnUse" style="mask-type:luminance"><path fill="#fff" d="M32 0H0v24h32z"/></mask><g mask="url(#b)"><path fill="#fff" d="M32 0H0v24h32z"/><path fill="#F50101" fill-rule="evenodd" d="M32 0H0v6h32zm0 18H0v6h32z" clip-rule="evenodd"/><path fill="#F7FCFF" fill-rule="evenodd" d="M0 6h32v12H0z" clip-rule="evenodd"/><path fill="#52AB0B" fill-rule="evenodd" d="M21.515 12.513c.075.867-3.126-.36-3.126-.012 0 .347 3.429.957 3.423 1.734s-4.066-.222-3.155.128c.91.35 2.865 1.186 2.643 1.708-.475 1.113-3.626-.773-3.888-.401-.423.6 2.325 1.999 2.302 2.132-.045.257-1.877-.402-2.302.13-.344-.097-.504-.56-.61-.622l-.677-8.724s.608 8.214-.168 8.45-2.932.954-2.995.596c-.023-.134 2.596-1.362 2.173-1.962-.312-.442-3.472 1.125-3.674.218-.898-.648 2.91-1.208 2.91-1.87s-3.484.784-3.067-.138 3.205-1.252 3.257-1.38c.095-.233-3.1.364-3.1 0 0-.687 1.912-.822 3.1-1.441.07-.707-2.88.695-3.1.129-.219-.566 3.771-2.033 3.674-2.147-.155-.18-3.37.634-2.84.206 1.03-.83 3.038-1.958 3.5-2.26 0 0 .056-.113.116-.074l.125-.081s0 .71-.01.156 4.71 1.87 4.763 2.486c.063.718-2.916-.542-2.846.164.606.376 2.328 1.101 3.04 1.42.322.145-2.379-.306-2.322-.084.146.564 2.776.634 2.854 1.54" clip-rule="evenodd"/></g></g><defs><clipPath id="a"><path fill="#fff" d="M0 0h32v24H0z"/></clipPath></defs></svg>