<svg xmlns="http://www.w3.org/2000/svg" width="32" height="24" fill="none" viewBox="0 0 32 24"><g clip-path="url(#a)"><mask id="b" width="32" height="24" x="0" y="0" maskUnits="userSpaceOnUse" style="mask-type:luminance"><path fill="#fff" d="M32 0H0v24h32z"/></mask><g mask="url(#b)"><path fill="#fff" d="M32 0H0v24h32z"/><path fill="#E31D1C" fill-rule="evenodd" d="M0 0v24h32V0z" clip-rule="evenodd"/><mask id="c" width="32" height="24" x="0" y="0" maskUnits="userSpaceOnUse" style="mask-type:luminance"><path fill="#fff" fill-rule="evenodd" d="M0 0v24h32V0z" clip-rule="evenodd"/></mask><g mask="url(#c)"><path fill="#2E42A5" fill-rule="evenodd" d="M0 0v12h32V0z" clip-rule="evenodd"/><path fill="#000" fill-rule="evenodd" d="M4.799 11.052s1.206.751 4.003.751c2.796 0 4.28-.75 4.28-.75S10.89 9.776 8.93 9.776c-1.961 0-4.13 1.275-4.13 1.275" clip-rule="evenodd"/><path fill="#FFD83D" d="m4.87 6.743-.216.126.072.124h8.653l.055-.174-.239-.076.239.076v-.003l.002-.006.006-.02.02-.071q.026-.095.062-.257a5 5 0 0 0 .108-.845c.027-.648-.08-1.493-.71-2.04-.64-.558-1.454-.471-2.155-.296-.24.06-.483.135-.711.205l-.31.095c-.322.094-.59.156-.805.156s-.451-.057-.729-.145q-.127-.04-.267-.087c-.2-.067-.416-.139-.633-.196-.658-.173-1.419-.239-2.262.239-.439.248-.69.594-.808.974-.117.372-.102.76-.04 1.102a4.1 4.1 0 0 0 .396 1.141l.04.075.011.02.004.006v.002h.001z"/><path stroke="#000" stroke-width="0.5" d="m4.654 6.869.216-.126zm0 0 .072.124h8.653l.055-.174m-8.78.05v-.001l-.001-.002-.004-.006-.011-.02-.04-.075a4.4 4.4 0 0 1-.396-1.14c-.062-.342-.077-.731.04-1.103.118-.38.37-.726.808-.974.843-.478 1.604-.412 2.262-.239.217.057.434.13.633.196l.267.087c.278.088.514.145.729.145s.483-.062.804-.156l.311-.095c.228-.07.472-.145.71-.205.702-.175 1.516-.262 2.157.296.63.547.736 1.392.71 2.04a5.2 5.2 0 0 1-.19 1.174l-.007.02-.001.005-.001.003m0 0-.239-.076z"/><path fill="#FFD83D" d="m3.886 6.908.117.221zl.002-.001.005-.003.017-.009.064-.03a5 5 0 0 1 .244-.103c.214-.084.531-.195.954-.305.846-.22 2.11-.437 3.802-.437s2.957.217 3.803.437c.422.11.74.221.954.305a5 5 0 0 1 .307.133l.018.009.005.003h.001l-.115.222.116-.221.195.103-.077.206-1.185 3.168-.082.22zm0 0-.193.102.075.205 1.153 3.168.08.221.226-.067zm8.803 3.628-7.462.001.005-.001.015-.005.061-.017.238-.063c.206-.052.5-.122.854-.192.71-.14 1.652-.28 2.594-.28s1.867.14 2.558.28a15 15 0 0 1 1.06.254l.058.018.015.004z"/><path stroke="#000" stroke-width="0.5" d="m3.886 6.908.117.221zm0 0h.001l.002-.001.005-.003.017-.009.064-.03a5 5 0 0 1 .244-.103c.214-.084.531-.195.954-.305.846-.22 2.11-.437 3.802-.437s2.957.217 3.803.437c.422.11.74.221.954.305a5 5 0 0 1 .307.133l.018.009.005.003h.001l-.115.222.116-.221.195.103-.077.206-1.185 3.168-.082.22zm0 0-.193.102.075.205 1.153 3.168.08.221.226-.067m-1.34-3.63 1.34 3.63m0 0h7.462l-.004-.002-.015-.004-.059-.018-.23-.062a15 15 0 0 0-.829-.192c-.691-.14-1.616-.28-2.558-.28s-1.884.14-2.594.28a16 16 0 0 0-1.092.255l-.061.017-.015.005z"/><path fill="#FFD83D" stroke="#000" stroke-width="0.5" d="M8.874 4.265c.56 0 .923-.547.923-1.095 0-.549-.363-1.096-.923-1.096s-.922.547-.922 1.096c0 .548.363 1.095.922 1.095Z"/><path fill="#FFD83D" fill-rule="evenodd" d="M9.126 0H8.62l.065.923-.569-.078v.634l.578-.08-.074 1.454h.505L9.05 1.397l.579.082V.845L9.06.927z" clip-rule="evenodd"/><mask id="d" width="5" height="5" x="7" y="-1" maskUnits="userSpaceOnUse" style="mask-type:luminance"><path fill="#fff" d="M11.117-1h-4v5h4z"/><path fill="#000" fill-rule="evenodd" d="M9.126 0H8.62l.065.923-.569-.078v.634l.578-.08-.074 1.454h.505L9.05 1.397l.579.082V.845L9.06.927z" clip-rule="evenodd"/></mask><g mask="url(#d)"><path fill="#000" d="M8.621 0v-.5h-.536l.038.535zm.505 0 .498.035.037-.535h-.535zm-.44.923-.067.495.61.083-.044-.613zM8.117.845 8.185.35 7.617.273v.572zm0 .634h-.5v.574l.568-.078zm.578-.08.5.026.03-.603-.598.082zm-.074 1.454-.499-.025-.027.525h.526zm.505 0v.5h.526l-.027-.526zM9.05 1.397l.07-.495-.6-.085.03.606zm.579.082-.07.495.57.081V1.48zm0-.634h.5V.268l-.57.082zM9.06.927 8.563.892l-.043.618.612-.088zM8.621.5h.505v-1H8.62zm.564.388L9.12-.035l-.997.07.065.923zM8.05 1.34l.569.077.135-.99-.57-.078zm.567.138V.845h-1v.634zm.01-.575-.578.08.136.99.578-.079zm.494 1.974.073-1.453-.998-.05-.074 1.453zm.005-.525H8.62v1h.505zm-.574-.93.074 1.455.999-.05-.075-1.456zM9.7.984 9.121.902l-.14.99.579.082zM9.13.845v.634h1V.845zm.002.577.569-.082-.142-.99-.569.082zM8.627-.035l-.064.927.997.07.064-.927z"/></g></g></g></g><defs><clipPath id="a"><path fill="#fff" d="M0 0h32v24H0z"/></clipPath></defs></svg>