<svg xmlns="http://www.w3.org/2000/svg" width="32" height="24" fill="none" viewBox="0 0 32 24"><g clip-path="url(#a)"><mask id="b" width="32" height="24" x="0" y="0" maskUnits="userSpaceOnUse" style="mask-type:luminance"><path fill="#fff" d="M32 0H0v24h32z"/></mask><g mask="url(#b)"><path fill="#fff" d="M32 0H0v24h32z"/><path fill="#FECA00" fill-rule="evenodd" d="M0 0h32v24H0z" clip-rule="evenodd"/><path fill="#1F8A6E" d="M8 2H2v20h6z"/><path fill="#F56800" d="M14 2H8v20h6z"/><path fill="#B01D00" d="M30 2H14v20h16z"/><path fill="#E8AA00" d="M14 2h-2v20h2z"/><path fill="#FECA00" fill-rule="evenodd" d="M17.1 6.172s-1.273-.004-1.273 2.214v3.252s-.606.108-.606.485.128.706.367.706c.24 0 .478 1.105.24 1.105-.24 0-.479.474-.24.474.057 0 .1-.008.134-.013q.051-.012.074-.002c.031.019.031.091.031.31 0 .43-.239.605-.239.605s-.225-.063-.225.19c0 .254.225.318.225.318s.129.056-.12.176c-.247.12-.247.178-.247.178h.606l.304.555.29-.555h.598s-.301-.193-.337-.234c-.035-.04-.078-.099 0-.166a.4.4 0 0 1 .092-.051c.087-.04.189-.085.189-.22 0-.191-.382-.191-.382-.191s-.233-.42-.16-.605q.029-.077.041-.136c.026-.101.04-.159.166-.159.174 0 .274-.22.054-.474 0 0 .252.27.178.623-.074.351.077.51.159.51s.212-.12.212-.12.68.607.978.607c.299 0 .727-.487.727-.487l.614.345s.45.63.384 1.064c-.066.433-.323.675-.625.608-.301-.067-.792.07-.83.257l-.023.1c-.052.213-.129.53.108.452.278-.092.333-.163.333-.163s-.037.163.188.163c.224 0 .29-.163.29-.163s.232.163.395.163c.164 0 .347-.126.347-.126s.12.187.387.126.468-.757.274-.912c0 0 .643-.094.808-.653 0 0-.622-.009-.558-.391.064-.383.393-.629.393-.629s.946-.458 1.352-.605 1.084-.295 1.251-.295c.069 0 .117.16.183.375.096.315.23.75.513.987.479.4.152 1.314.152 1.314s-1.064.107-1.064.395.017.414.216.414c.2 0 .196-.163.196-.163s.118.163.309.163.343-.163.343-.163.051.163.301.163.249-.163.249-.163.045.163.266.163c.22 0 .673-.163.673-.163s.07.163.3.163.234-.163.234-.163.123.163.321.163c.199 0 .315-.163.315-.163s.285.163.482.163.126-.294 0-.552c-.032-.065-.069-.12-.102-.171-.1-.15-.172-.259-.003-.445.048-.053.103-.106.157-.16.205-.198.41-.398.26-.573a.8.8 0 0 0-.15-.125c-.172-.12-.348-.242-.267-.92.048-.407.14-.738.225-1.044.1-.363.192-.692.192-1.074 0-.706-.417-1.514-.417-1.514s.561-.392.561-1.189-1.253-.884-1.253-.884-1.245.32-1.794.16a8 8 0 0 0-.314-.084c-.297-.074-.388-.097-.388-.302 0-.265-.4.226-.4.226s-.314-.126-.1-.386c.213-.26.309-.363.309-.363s-.188-.214-.505-.107-.373.285-.373.285-.361-.37-.136-.639c.225-.268.51 0 .51 0s.323.17.349-.053c.026-.221 0-.398 0-.398s.812.233.583.595-.085.495-.085.495.558.034.66-.351a.8.8 0 0 0 .003-.398c.161.076.343.166.292.314-.093.274-.296.62-.296.62s.558-.033.724-.47.106.107.106.107.214-.008.534.178c.321.185 0-.285 0-.285s.666.826 1.296.728.595-.62.595-.62-.15-.258-.461-.258-.134.257-.134.257.304.173-.178 0c-.14-.05-.348-.212-.606-.413-.634-.493-1.57-1.22-2.535-1.109-1.357.157-1.83.764-1.83.764V7.23s-.229.35-.442.35c-.212 0-.803-.35-.803-.35l-.376.35s-.143-.35-.393-.35-.25.35-.25.35-.314-.154-.66-.154a.9.9 0 0 1-.357-.092c-.134-.057-.21-.09-.21.092l.001.106c.006.247.01.4-.35.447-.408.053-.723.053-.723.053s-.244-.297-.434-.297-.41.23-.41.44c0 .211.246.81.41.939.043.033.035.03 0 .014-.099-.046-.41-.19-.41.114 0 .209.052.261.09.3.037.036.06.06.01.2q-.031.09-.078.197c-.115.274-.25.592-.022.592.122 0 .238-.027.32-.046.11-.025.161-.037.09.046a3 3 0 0 1-.105.114c-.131.138-.266.279-.033.172.123-.057.226-.139.312-.206.124-.099.21-.167.26-.08.032.055.007.129-.015.192-.036.104-.062.18.2.093.092-.03.146-.054.176-.07.002.016.016.04.057.07.088.065.071.127.058.173-.014.053-.024.088.13.088.147 0 .354-.114.477-.182.12-.065.16-.087-.012.08-.107.106-.263.176-.436.254-.386.174-.856.386-1.07 1.108-.287.976-.158 1.177-.139 1.2l-.886-.97s.212-.166.212-.444-.549-.485-.549-.485.02-3.458.178-4.212c.159-.755.24-1.254.24-1.254m.805 7.365.002.002v-.001zm.963-2.824a.03.03 0 0 0-.028.032c.039-.021.038-.032.028-.032m6.667-2.79-.012-.006c-.13-.061-.241-.114-.198-.182.06-.096.164.005.21.187m.587 7.481s-.42.412-.154.502c.081.028.18.043.27.057.211.033.384.06.225.216-.228.223-.422.524-.422.8 0 .274.007.506.08.39.04-.064.207-.13.385-.202.147-.06.303-.122.404-.189.192-.127.19-.264.184-.51l-.002-.139c0-.337-.97-.925-.97-.925m-3.259-5.516c.098-.078.104-1.038.104-1.038s.344.114.344.264c0 .094-.026.147-.065.228a2 2 0 0 0-.083.191c-.076.207.13.336.32.456l.043.027c.13.082.166-.096.194-.234.015-.077.029-.14.053-.14.07 0 .59.117.982.316.342.174.677.088 1.445-.107l.366-.092c1.036-.257 1.172.129 1.278.433s-.698.724-1.278.8a3.6 3.6 0 0 1-.679.014c-.259-.013-.49-.024-.725.06-.37.131-1.525.118-1.976.113l-.143-.001c-.207 0-.246-.065-.325-.197q-.029-.05-.07-.112c-.141-.207.03-.342.14-.342s.075-.241 0-.335c-.076-.094-.023-.226.075-.304m-8.691-7.763v.36c0 .045-.02.106-.041.174-.068.215-.16.504.263.586.555.107.964.35 1.089.579.08.147.057-.098.03-.386a6 6 0 0 1-.03-.464c0-.354-.397-1.044-.678-.85-.28.195-.633 0-.633 0m0 19.385v.36s.352-.194.633 0c.281.195.678-.495.678-.849 0-.127.016-.302.03-.463.027-.288.05-.533-.03-.386-.125.229-.534.472-1.09.579-.422.081-.33.37-.262.586.021.068.04.128.04.173m15.664 0v.36s-.352-.194-.633 0c-.282.195-.678-.495-.678-.849 0-.127-.016-.302-.031-.463-.026-.288-.049-.533.03-.386.125.229.534.472 1.09.579.422.081.33.37.263.586a.7.7 0 0 0-.041.173m0-19.024v-.361s-.352.194-.633 0c-.282-.195-.678.495-.678.85 0 .126-.016.301-.031.463-.026.288-.049.533.03.386.125-.23.534-.472 1.09-.58.422-.08.33-.37.263-.585a.7.7 0 0 1-.041-.173" clip-rule="evenodd"/></g></g><defs><clipPath id="a"><path fill="#fff" d="M0 0h32v24H0z"/></clipPath></defs></svg>