<svg xmlns="http://www.w3.org/2000/svg" width="32" height="24" fill="none" viewBox="0 0 32 24"><g clip-path="url(#a)"><mask id="b" width="32" height="24" x="0" y="0" maskUnits="userSpaceOnUse" style="mask-type:luminance"><path fill="#fff" d="M32 0H0v24h32z"/></mask><g mask="url(#b)"><path fill="#fff" d="M32 0H0v24h32z"/><path fill="#F7FCFF" fill-rule="evenodd" d="M0 0h32v24H0z" clip-rule="evenodd"/><path fill="#E31D1C" d="M32.027 5.5h-32v3h32z"/><path fill="#E31D1C" fill-rule="evenodd" d="M0 0h32v3H0z" clip-rule="evenodd"/><path fill="#E31D1C" d="M31.941 11h-32v3h32zm.171 5.398h-32v3h32zm-.01 5.102h-32v3h32z"/><path fill="#3D58DB" fill-rule="evenodd" d="M0 0h16v14H0z" clip-rule="evenodd"/><path fill="#F7FCFF" fill-rule="evenodd" d="m8.132 9.213-2.92 2.026.933-3.47L4 5.552l2.904-.12L8.132 2l1.23 3.432h2.898l-2.14 2.337 1.072 3.266z" clip-rule="evenodd"/></g></g><defs><clipPath id="a"><path fill="#fff" d="M0 0h32v24H0z"/></clipPath></defs></svg>