<svg xmlns="http://www.w3.org/2000/svg" width="32" height="24" fill="none" viewBox="0 0 32 24"><g clip-path="url(#a)"><mask id="b" width="32" height="24" x="0" y="0" maskUnits="userSpaceOnUse" style="mask-type:luminance"><path fill="#fff" d="M32 0H0v24h32z"/></mask><g mask="url(#b)"><path fill="#fff" d="M32 0H0v24h32z"/><path fill="#55BA07" fill-rule="evenodd" d="M0 16h32v8H0z" clip-rule="evenodd"/><path fill="#F7FCFF" fill-rule="evenodd" d="M0 8h32v8H0z" clip-rule="evenodd"/><path fill="#3D58DB" fill-rule="evenodd" d="M0 0h32v8H0z" clip-rule="evenodd"/><path fill="#1D1D1D" fill-rule="evenodd" d="M15.25 8.239c-.523.14-.799.502-.799 1.14 0 .731.359 1.417.799 1.77zm1.25 2.89c.428-.358.772-1.03.772-1.747 0-.621-.272-.98-.772-1.13zm-.042-3.398c.818.182 1.41.74 1.41 1.645 0 .658-.313 1.459-.798 2.008l2.433 2.387.6-.197.897 1.36s-2.266 1.065-5.067 1.065c-2.8 0-4.933-1.065-4.933-1.065l.763-1.162.617.201 2.257-2.547c-.507-.55-.836-1.375-.836-2.05 0-.938.635-1.502 1.498-1.663a.625.625 0 0 1 1.159.018m-4.456 6.564-.254.353h.494zm.289.492-.436.087.436.152zm.222-.508.223.52.553-.15-.11-.21zm1.204 1.038-.813-.16-.093-.157.613-.133zm.047-.745.253.455.555-.17-.154-.203zm.456.835-.1-.188.615-.164.354.433zm1.148-.312.792-.21-.098-.18h-1.028zm.284.4-.126-.194.76-.25.404.445zm.963-.775.243.298.659-.229-.083-.155zm1.43.62-.886.098-.13-.22.67-.22zm-.057-.764.249.305.594-.305-.165-.092zm.515.681-.108-.165.566-.34.288.34zm.562-.949.36.343.349-.343-.11-.14zm.57.461.292-.29.211.29-.504.162z" clip-rule="evenodd"/></g></g><defs><clipPath id="a"><path fill="#fff" d="M0 0h32v24H0z"/></clipPath></defs></svg>