<svg xmlns="http://www.w3.org/2000/svg" width="32" height="24" fill="none" viewBox="0 0 32 24"><g clip-path="url(#a)"><mask id="b" width="32" height="24" x="0" y="0" maskUnits="userSpaceOnUse" style="mask-type:luminance"><path fill="#fff" d="M32 0H0v24h32z"/></mask><g mask="url(#b)"><path fill="#fff" d="M32 0H0v24h32z"/><path fill="#55BA07" fill-rule="evenodd" d="M0 18h32v6H0z" clip-rule="evenodd"/><path fill="#1D1D1D" fill-rule="evenodd" d="M0 6h32v12H0z" clip-rule="evenodd"/><path fill="#E11C1B" fill-rule="evenodd" d="M0 0h32v6H0z" clip-rule="evenodd"/><path fill="#fff" fill-rule="evenodd" d="M15.797 15.067c-1.792-.37-2.257-1.308-2.238-2.754 0-1.53.806-3.08 2.22-3.25 1.413-.169 2.57.359 3.178 1.095-.508-1.998-2.19-2.216-3.48-2.216-1.944-.017-3.938 1.46-3.938 4.238 0 2.42 1.757 4.24 3.994 4.286 2.795 0 3.233-1.93 3.313-2.589a5 5 0 0 0-.466.397c-.562.518-1.177 1.084-2.583.793m4.465-3.774-1.324.416 1.483.58-.207 1.554 1.005-1.069 1.458.3-.985-1.152.872-1.177-1.218.257-.86-.972z" clip-rule="evenodd"/></g></g><defs><clipPath id="a"><path fill="#fff" d="M0 0h32v24H0z"/></clipPath></defs></svg>