<svg xmlns="http://www.w3.org/2000/svg" width="32" height="24" fill="none" viewBox="0 0 32 24"><g clip-path="url(#a)"><mask id="b" width="32" height="24" x="0" y="0" maskUnits="userSpaceOnUse" style="mask-type:luminance"><path fill="#fff" d="M32 0H0v24h32z"/></mask><g mask="url(#b)"><path fill="#fff" d="M32 0H0v24h32z"/><path fill="#C51918" fill-rule="evenodd" d="M0 0h32v22a2 2 0 0 1-2 2H2a2 2 0 0 1-2-2z" clip-rule="evenodd"/><path fill="#E31D1C" fill-rule="evenodd" d="M0 0h32v24H0z" clip-rule="evenodd"/><path fill="#579D20" fill-rule="evenodd" d="M22.482 19.625 16.166 2.699h-.274L9.795 19.625l6.331-3.805zM15.466 8.22l.678-2.639.702 2.714 2.019 5.657 1.185 2.738-2.559-1.802-1.366-.819-1.344.808-2.5 1.813 1.156-2.794z" clip-rule="evenodd"/><path fill="#579D20" fill-rule="evenodd" d="m12.662 13.475 3.496 2.324 3.262-2.324 6.196-5.237H6.385zm.073-1.999-2.378-1.455h11.224l-2.042 1.293-3.396 2.577z" clip-rule="evenodd"/></g></g><defs><clipPath id="a"><path fill="#fff" d="M0 0h32v24H0z"/></clipPath></defs></svg>