<svg xmlns="http://www.w3.org/2000/svg" width="32" height="24" fill="none" viewBox="0 0 32 24"><g clip-path="url(#a)"><mask id="b" width="32" height="24" x="0" y="0" maskUnits="userSpaceOnUse" style="mask-type:luminance"><path fill="#fff" d="M32 0H0v24h32z"/></mask><g mask="url(#b)"><path fill="#fff" d="M32 0H0v24h32z"/><path fill="#D9071E" fill-rule="evenodd" d="M22 0h10v24H22z" clip-rule="evenodd"/><path fill="#3D58DB" fill-rule="evenodd" d="M0 0h12v24H0z" clip-rule="evenodd"/><path fill="#FBCD17" fill-rule="evenodd" d="M10 0h12v24H10z" clip-rule="evenodd"/><path fill="#FD1900" fill-rule="evenodd" d="m21.719 19.615-1.053.576-3.491-6.39 1.053-.574zm-11.205.154 1.053.575 3.49-6.389-1.053-.575z" clip-rule="evenodd"/><path fill="#A77B3B" fill-rule="evenodd" d="M11.378 9.39v5.551c0 1.233-1.062 2.84-1.597 3.438-.536.598-1.6 1.968-1.6 1.968V5.409c0-1.676 1.6-2.251 1.6-2.251s1.328.263 1.597 2.251v1.938c.411.324 1.784 1.316 2.67.897 1.053-.497 1.416-1.924 1.416-1.924s-.098-1.44-.53-1.44-.467-2.028 1.188-2.028c1.654 0 1.847.781 1.847 1.405 0 .326-.262.85-.51 1.35-.227.452-.443.884-.443 1.129 0 .513.387 1.508.953 1.508.397 0 2.307-.742 3.413-1.185v-1.65c.27-1.988 1.597-2.251 1.597-2.251s1.6.575 1.6 2.251v14.938s-1.064-1.37-1.6-1.968c-.535-.598-1.597-2.205-1.597-3.438V9.39zm1.772 10.443c1.082-.704 2.664-3.862 2.664-3.862l.525.122s.802 2.092 3.16 3.74c-2.513.67-3.16 2.018-3.16 2.018 0-1.078-3.189-2.018-3.189-2.018m-.174-1.999c.73 0 1.32-.56 1.32-1.25s-.59-1.25-1.32-1.25c-.729 0-1.32.56-1.32 1.25s.591 1.25 1.32 1.25m7.744-1.25c0 .69-.59 1.25-1.32 1.25-.729 0-1.32-.56-1.32-1.25s.591-1.25 1.32-1.25 1.32.56 1.32 1.25" clip-rule="evenodd"/><path fill="#FDFF00" d="m25.14 10.406.918.397-3.74 8.652-.918-.397z"/><path fill="#E1E5E8" fill-rule="evenodd" d="M11.04 7.832H21.6v7.639s-2.687.81-5.28 2.137c-1.914-1.42-5.28-2.137-5.28-2.137z" clip-rule="evenodd" opacity="0.3"/><mask id="c" width="11" height="11" x="11" y="7" maskUnits="userSpaceOnUse" style="mask-type:luminance"><path fill="#fff" fill-rule="evenodd" d="M11.04 7.832H21.6v7.639s-2.687.81-5.28 2.137c-1.914-1.42-5.28-2.137-5.28-2.137z" clip-rule="evenodd"/></mask><g mask="url(#c)"><path fill="#3D58DB" d="M21.6 12.832H11.04v5H21.6z"/><path fill="#FD1900" d="M21.6 7.832H11.04v5H21.6z"/><path fill="#FDFF00" fill-rule="evenodd" d="m15.787 10.082-.8.066.461-.622-.492-.645.805.104.308-.712.343.727.8-.067-.462.623.492.645-.804-.104-.308.712z" clip-rule="evenodd"/><path fill="#FDFF00" fill-rule="evenodd" d="M14.35 8.671s-2.15 1.308-1.433 2.247 1.619 1.059 1.619 1.059-2.2 3.3 1.67 5.184c4.145-1.82 1.966-5.184 1.966-5.184s1.275-.282 1.53-1.297c.256-1.016-1.667-2.18-1.667-2.18s1.2 1.739.926 2.18c-.274.44-1.741.89-2.754.89s-2.578-.285-2.83-1.056c-.253-.77.973-1.843.973-1.843" clip-rule="evenodd"/><path fill="#FDFF00" fill-rule="evenodd" d="m12.36 12 1.32.833-1.32.834-1.32-.834zm7.92 0 1.32.833-1.32.834-1.32-.834zm-7.96 3.3a.4.4 0 1 0 0-.8.4.4 0 0 0 0 .8m8.51-.76c-.343-.278-.87-.197-1.176.18-.306.378-.275.91.068 1.188.187.151.09-.45.372-.831.237-.321.893-.41.736-.537" clip-rule="evenodd"/></g><path fill="#048F02" fill-rule="evenodd" d="M4.736 11.53s1.054 1.246 2.047.838c.993-.407.752-1.868.752-1.868l-.752.682h-.64v.348l-.5-.348v.348zm.713 1.915s1.285 1.12 2.15.803c.866-.316.649-1.833.649-1.833l-.752.682h-.64v.348l-.5-.348v.348zm3.46 2.542c-.866.317-2.15-.803-2.15-.803h.906v-.348l.5.348v-.348h.64l.752-.682s.218 1.517-.648 1.833" clip-rule="evenodd"/><path fill="#FDFF00" fill-rule="evenodd" d="M13.98 2.25h-1v.596h-.471v1h.47V5.59h1V3.846h.573v-1h-.573z" clip-rule="evenodd"/><path fill="#DB4400" fill-rule="evenodd" d="m15.158 3.383-2.316.596 2.316.732z" clip-rule="evenodd"/></g></g><defs><clipPath id="a"><path fill="#fff" d="M0 0h32v24H0z"/></clipPath></defs></svg>