<svg xmlns="http://www.w3.org/2000/svg" width="32" height="24" fill="none" viewBox="0 0 32 24"><g clip-path="url(#a)"><mask id="b" width="32" height="24" x="0" y="0" maskUnits="userSpaceOnUse" style="mask-type:luminance"><path fill="#fff" d="M32 0H0v24h32z"/></mask><g mask="url(#b)"><path fill="#fff" d="M32 0H0v24h32z"/><path fill="#E8AA00" fill-rule="evenodd" d="M0 0h32v24H0z" clip-rule="evenodd"/><path fill="#C51918" fill-rule="evenodd" d="M4 4h24v16H4z" clip-rule="evenodd"/><mask id="c" width="24" height="16" x="4" y="4" maskUnits="userSpaceOnUse" style="mask-type:luminance"><path fill="#fff" fill-rule="evenodd" d="M4 4h24v16H4z" clip-rule="evenodd"/></mask><g mask="url(#c)"><path fill="#1E5E91" fill-rule="evenodd" d="M20.23 15.752a.75.75 0 0 0 .74-.757.75.75 0 0 0-.74-.757.75.75 0 0 0-.738.757c0 .418.33.757.739.757" clip-rule="evenodd"/><path fill="#F6C540" fill-rule="evenodd" d="M10.627 12.334c-1.937-2.251.84-6.158.84-6.158s.415 2.333 1.95 3.904c0 .111-.144.276-.291.442a2 2 0 0 0-.262.335c-.135.245.329.385.554.385.1 0 .157.147.207.279.062.162.115.303.234.124.216-.323-.216-1.034-.216-1.034l.684-.72.231-.467h-.231v-.48l-.162.133s-.178-.429-.522-.429c-.343 0-.45-.196-.45-.196h.45c.226 0-.036-.299-.225-.455-.085-.07-.214-.045-.33-.024-.143.027-.268.05-.268-.11 0-.174.137-.198.294-.224.103-.018.215-.037.304-.1.147-.107.345-.074.56-.039.113.019.231.038.349.038h.557c.201 0-.326.326-.326.326l.326.29.484.494-.242.144.5.485s-.17.276 0 .276c.07 0 .116.057.146.125.03-.068.076-.125.146-.125.17 0 0-.276 0-.276l.5-.485-.242-.144.484-.495.326-.29s-.527-.325-.326-.325h.557c.118 0 .236-.02.35-.038.214-.035.412-.068.56.038.088.064.2.083.303.1.157.027.294.05.294.226 0 .16-.124.136-.268.11-.116-.022-.245-.046-.33.023-.19.156-.451.455-.225.455h.45s-.107.196-.45.196-.522.43-.522.43l-.162-.134v.48h-.231l.231.466.684.721s-.432.711-.216 1.034c.119.179.172.038.234-.124.05-.132.106-.279.207-.279.225 0 .689-.14.554-.385-.056-.101-.16-.218-.262-.335-.147-.166-.292-.33-.292-.442 1.537-1.57 1.952-3.904 1.952-3.904s2.776 3.907.839 6.158-3.36 1.573-3.36 1.573l.794.712-.225.195h.662l-.243.163.179.078.19.083s-.512.376 0 .376q.121 0 .254-.005.145-.004.295-.005c.027 0-.033-.147-.093-.293-.058-.145-.116-.288-.09-.286.055.002.164.133.273.264.087.105.174.21.234.251.04.026.192-.027.332-.076.12-.041.231-.08.26-.066.118.06.088.182.059.297q-.012.046-.02.087c-.004.025.148-.073.308-.177.169-.11.345-.224.359-.207l.009.011c.057.07.15.18-.53.704q0 .15.006.25c.01.214.011.27-.134.27a1 1 0 0 0-.26.07c-.269.095-.632.223-.896-.07-.367-.408-.929-1.019-.929-1.019v.3l-.666-.676-.128.376-.897-1.03-.242.135s.825 2.278 1.267 2.294c.22.008-.114.22-.555.503-.447.285-1.005.641-1.212.928-.062.085-.11-.045-.146-.328-.037.283-.084.413-.146.328-.207-.287-.765-.643-1.212-.928-.44-.282-.774-.495-.555-.503.442-.016 1.267-2.294 1.267-2.294l-.242-.135-.897 1.03-.128-.376-.666.677v-.3s-.562.61-.93 1.018c-.263.293-.626.165-.895.07a1 1 0 0 0-.26-.07c-.23 0-.308-.323 0-.719.26-.333.799-.318 1.268-.305q.133.005.255.005c.51 0 0-.376 0-.376l.19-.083.178-.078-.243-.163h.662l-.225-.195.794-.712s-1.423.679-3.36-1.573" clip-rule="evenodd"/><path fill="#F6C540" fill-rule="evenodd" d="m12.433 17.032-.875-1.535s-1.144-2.638-1.144-2.958-.46-1.269-.46-.993v.993l1.93 4.349v.343h.26z" clip-rule="evenodd"/><path fill="#F6C540" d="m19.441 14.965.134-.442 1.625.49-.133.442z"/><path fill="#F6C540" d="m20.308 14.16.44.144-.43 1.378-.44-.144z"/><path fill="#F6C540" fill-rule="evenodd" d="m20.717 13.713-.095-.022-.038.152-.174-.042-.021.093.171.042-.043.173.094.021.043-.171.171.042.022-.093-.17-.041zm-5.023-8.49.048.165h.144l.048-.165q.18.054.327.123l.003-.036c.772.07 1.172.393 1.13.961-.036.47-.274.717-.671.71v.352s-.646.248-.97.248c-.322 0-.969-.248-.969-.248v-.357c-.326-.04-.521-.283-.553-.705-.043-.568.357-.89 1.13-.961l.003.038q.148-.07.33-.125m-.817 1.444-.086.025c-.178-.033-.264-.175-.284-.441-.02-.269.106-.456.404-.564-.203.26-.218.591-.034.98m.275-.072c.163-.039.352-.078.503-.091v-.97c-.62.217-.77.55-.503 1.061m.78-.082c.207.027.46.09.622.133l-.081-.045c.276-.526.116-.864-.541-1.082zm.787-.824c.207.267.217.609.016 1.01.244.004.359-.137.382-.448.02-.267-.104-.454-.398-.562" clip-rule="evenodd"/><path fill="#3D58DB" fill-rule="evenodd" d="M15.754 5.521a.323.323 0 1 0 0-.646.323.323 0 0 0 0 .646" clip-rule="evenodd"/><path fill="#F6C540" fill-rule="evenodd" d="m15.799 4.5-.097.002v.157h-.18l.002.096.177-.001v.179l.096-.002.001-.177.176-.001-.002-.095h-.174z" clip-rule="evenodd"/><path fill="#1E5E91" fill-rule="evenodd" d="M13.954 10.363s1.137-.215 1.753-.215c.553 0 1.754.215 1.754.215 0 1.36.383 2.193 0 3.122s-1.318.482-1.741 1.371c-.541-.843-1.272-.38-1.767-1.58s.301-1.753 0-2.913" clip-rule="evenodd"/><mask id="d" width="5" height="5" x="13" y="10" maskUnits="userSpaceOnUse" style="mask-type:luminance"><path fill="#fff" fill-rule="evenodd" d="M13.954 10.363s1.137-.215 1.753-.215c.553 0 1.754.215 1.754.215 0 1.36.383 2.193 0 3.122s-1.318.482-1.741 1.371c-.541-.843-1.272-.38-1.767-1.58s.301-1.753 0-2.913" clip-rule="evenodd"/></mask><g mask="url(#d)"><path fill="#5EAA22" d="M17.46 13.2h-3.507v1.702h3.508z"/><path fill="#F6C540" fill-rule="evenodd" d="M14.99 11.033c-.134-.285.704-.318.704-.318s.181.318 0 .77c-.131.33.088.3.39.26.114-.016.24-.032.362-.032.188 0 .287-.014.37.017.114.043.196.172.441.547.112.172.107.284.04.352.005.174-.184.318-.534.41l-.046-.183c.185-.049.298-.095.351-.147-.264.016-.622-.114-.622-.282 0-.248-.845-.196-1.353-.164-.13.008-.237.014-.304.014-.296 0-.069-.361.138-.69l.063-.102c.106-.171.14-.215.132-.249s-.063-.058-.132-.203m2.011-.044c-.506-.08-.79-.003-.79.28 0 .27.27.387.762.385l.05.019-.067.027.062.179c.31-.112.31-.312-.004-.41L17 11.465h-.014c-.41.004-.59-.073-.59-.195 0-.112.171-.159.577-.094z" clip-rule="evenodd"/></g></g></g></g><defs><clipPath id="a"><path fill="#fff" d="M0 0h32v24H0z"/></clipPath></defs></svg>