<svg xmlns="http://www.w3.org/2000/svg" width="32" height="24" fill="none" viewBox="0 0 32 24"><g clip-path="url(#a)"><mask id="b" width="32" height="24" x="0" y="0" maskUnits="userSpaceOnUse" style="mask-type:luminance"><path fill="#fff" d="M32 0H0v24h32z"/></mask><g mask="url(#b)"><path fill="#fff" d="M32 0H0v24h32z"/><path fill="#3D58DB" fill-rule="evenodd" d="M0 0v24h32V0z" clip-rule="evenodd"/><mask id="c" width="32" height="24" x="0" y="0" maskUnits="userSpaceOnUse" style="mask-type:luminance"><path fill="#fff" fill-rule="evenodd" d="M0 0v24h32V0z" clip-rule="evenodd"/></mask><g mask="url(#c)"><path fill="#F7FCFF" fill-rule="evenodd" d="m8 11-.817 2.944.007-3.055-1.58 2.614.83-2.94-2.227 2.091 1.594-2.606-2.71 1.412 2.239-2.08-2.99.63 2.716-1.4-3.048-.2 2.993-.615L2.125 6.78l3.048.216-2.5-1.755 2.876 1.03-1.934-2.365 2.491 1.768-1.224-2.8 1.922 2.375-.423-3.025 1.21 2.805L8 2l.408 3.028 1.21-2.805-.423 3.025 1.922-2.375-1.224 2.8 2.492-1.768L10.45 6.27l2.876-1.03-2.5 1.755 3.047-.216-2.881 1.016 2.993.614-3.049.201 2.716 1.4-2.99-.63 2.239 2.08-2.71-1.412 1.594 2.606-2.228-2.09.832 2.94-1.58-2.615.007 3.055z" clip-rule="evenodd"/><path fill="#fff" d="m-.782 24.745 34.04-23.53v7.67z"/><path fill="#E2AE57" d="m-.782 24.745 34.04-29.53v7.67z"/></g></g></g><defs><clipPath id="a"><path fill="#fff" d="M0 0h32v24H0z"/></clipPath></defs></svg>