<svg xmlns="http://www.w3.org/2000/svg" width="32" height="24" fill="none" viewBox="0 0 32 24"><g clip-path="url(#a)"><mask id="b" width="32" height="24" x="0" y="0" maskUnits="userSpaceOnUse" style="mask-type:luminance"><path fill="#fff" d="M32 0H0v24h32z"/></mask><g mask="url(#b)"><path fill="#fff" d="M32 0H0v24h32z"/><path fill="#F50100" fill-rule="evenodd" d="M0 0v24h32V0z" clip-rule="evenodd"/><mask id="c" width="32" height="24" x="0" y="0" maskUnits="userSpaceOnUse" style="mask-type:luminance"><path fill="#fff" fill-rule="evenodd" d="M0 0v24h32V0z" clip-rule="evenodd"/></mask><g fill="#FFD018" mask="url(#c)"><path fill-rule="evenodd" d="M0-.043v4.084l14 5.951L3.255-.043zm16 12.042 3-12h-6zm0 0-3 12h6zM0 19.95v4.084h3.255L14 14zM32 4.065V-.019h-3.255L18 10.017zm0 19.993v-4.083l-14-5.952 10.745 10.035zM32 9l-12 3 12 3zm-20 3L0 9v6z" clip-rule="evenodd"/><path stroke="#F50100" stroke-width="2" d="M16 17a5 5 0 1 0 0-10 5 5 0 0 0 0 10Z"/></g></g></g><defs><clipPath id="a"><path fill="#fff" d="M0 0h32v24H0z"/></clipPath></defs></svg>