<svg xmlns="http://www.w3.org/2000/svg" width="32" height="24" fill="none" viewBox="0 0 32 24"><g clip-path="url(#a)"><mask id="b" width="32" height="24" x="0" y="0" maskUnits="userSpaceOnUse" style="mask-type:luminance"><path fill="#fff" d="M32 0H0v24h32z"/></mask><g mask="url(#b)"><path fill="#fff" d="M32 0H0v24h32z"/><path fill="#4C67E8" fill-rule="evenodd" d="M10 0h12v24H10z" clip-rule="evenodd"/><path fill="#C51918" fill-rule="evenodd" d="M22 0h10v24H22zM0 0h12v24H0z" clip-rule="evenodd"/><path fill="#F8D000" fill-rule="evenodd" d="M6.014 6.884c-1.013 0-.88-.987-.88-.987l.48-1.038v1.038c0 .133.182-.134.182-.455 0-.322.218-.803.218-.803s.009-.16.015-.32c.034.082.104.153.21.26l.06.06c.124.129.108.469.093.763-.013.266-.025.495.073.495.206 0 .19-.92.19-.92l.346.92s.026.987-.987.987m0-2.82c.026-.15.022.05.015.256a.44.44 0 0 1-.015-.256m1.524 4.62c0 .802-.671 1.453-1.5 1.453-.828 0-1.5-.65-1.5-1.453s.672-1.454 1.5-1.454c.829 0 1.5.65 1.5 1.454m-3.769 2.72H2v8.571h1.77zm6.231 0H8.23v8.571H10zm-5.77.075 1.725 1.067L7.9 11.48zm1.725 8.52-1.724-1.067h3.668zm-1.724-7.104h3.615v.67H4.231zm3.615 4.993H4.231v.671h3.615zm-1.77-.372c1.02 0 1.847-.801 1.847-1.79 0-.987-.826-1.788-1.846-1.788s-1.846.801-1.846 1.789.826 1.789 1.846 1.789m-2.073-8.3s.062 1.867 1.903 1.867 2.137-1.867 2.137-1.867-.712 1.144-2.02 1.144c-1.307 0-2.02-1.144-2.02-1.144" clip-rule="evenodd"/><path fill="#C51918" d="m6.359 13.973.082-.368c.413.452.6.705.511 1.118-.098.462-.616.976-1.218 1.4-.365.256-.588.948-.407 1.169l-.173.313c-.403-.49-.08-1.416.476-1.807.51-.36.867-.737.93-1.034.04-.193.116-.444-.201-.79"/><path fill="#C51918" fill-rule="evenodd" d="M6.5 17a.5.5 0 1 0 0-1 .5.5 0 0 0 0 1m-1.124-1.348a.5.5 0 1 0 0-1 .5.5 0 0 0 0 1" clip-rule="evenodd"/></g></g><defs><clipPath id="a"><path fill="#fff" d="M0 0h32v24H0z"/></clipPath></defs></svg>