<svg xmlns="http://www.w3.org/2000/svg" width="32" height="24" fill="none" viewBox="0 0 32 24"><g clip-path="url(#a)"><mask id="b" width="32" height="24" x="0" y="0" maskUnits="userSpaceOnUse" style="mask-type:luminance"><path fill="#fff" d="M32 0H0v24h32z"/></mask><g mask="url(#b)"><path fill="#fff" d="M32 0H0v24h32z"/><path fill="#1C9975" fill-rule="evenodd" d="M0 0v24h32V0z" clip-rule="evenodd"/><mask id="c" width="32" height="24" x="0" y="0" maskUnits="userSpaceOnUse" style="mask-type:luminance"><path fill="#fff" fill-rule="evenodd" d="M0 0v24h32V0z" clip-rule="evenodd"/></mask><g mask="url(#c)"><path fill="#FECA00" fill-rule="evenodd" d="m16.02 6.855-1.634.987.373-1.925-1.36-1.44 1.842-.078.779-1.797.78 1.797h1.838l-1.357 1.518.409 1.925zm-4.637.732-1.01.61.23-1.19-.841-.89 1.139-.049.482-1.111.482 1.111h1.137l-.84.939.253 1.19zm9.197 0-1.01.61.23-1.19-.841-.89 1.14-.049.481-1.111.482 1.111h1.137l-.84.939.253 1.19zM8.766 9.61l-.811.49.185-.955-.675-.715.914-.038.387-.892.386.892h.913l-.674.753.203.955zm14.794 0-.81.49.185-.955-.675-.715.914-.038.387-.892.386.892h.913l-.674.753.203.955z" clip-rule="evenodd"/><mask id="d" width="16" height="16" x="8" y="6" maskUnits="userSpaceOnUse" style="mask-type:luminance"><path fill="#fff" fill-rule="evenodd" d="M16 22a8 8 0 1 0 0-16 8 8 0 0 0 0 16" clip-rule="evenodd"/></mask><g fill="#F7FCFF" mask="url(#d)"><path fill-rule="evenodd" d="M12.68 21.063h6.638v1.072H12.68zm-2.723-1.606h12.766v.983H9.957z" clip-rule="evenodd"/><path d="M12.62 19.02H8.715v-1h3.898c1.38-.02 2.39-.415 3.062-1.173l.336-.378.374.34c.9.814 1.797 1.21 2.706 1.21h4.304v1h-4.304c-1.044 0-2.052-.392-3.015-1.161-.853.756-2.012 1.14-3.456 1.161"/></g><path fill="#F7FCFF" fill-rule="evenodd" d="M16.033 7.61s-1.709 1.687-1.709 4.004c0 .496.079.964.202 1.394-.55-1.22-.589-2.543-.114-3.986l-.646-.213c-.484 1.468-.486 2.848-.006 4.127a8.2 8.2 0 0 0-3.307-1.129l-.075.677a7.5 7.5 0 0 1 2.903.96 5 5 0 0 0-.682-.224c-2.162-.552-4.285.231-4.285.231s1.225 2.746 3.595 3.151q.179.03.35.048h-.017c-1.13 0-2.182-.462-3.166-1.401l-.47.492c1.106 1.055 2.322 1.59 3.636 1.59 1.285 0 2.479-.512 3.57-1.52.174-.107.277-.182.293-.194l.043.036-.034.06s.108.065.302.157c1.077.834 2.424 1.46 3.49 1.46 1.314 0 2.53-.534 3.636-1.589l-.47-.492c-.984.939-2.035 1.4-3.166 1.4q-.62 0-1.214-.2c.555.03 1.168-.02 1.802-.213 2.335-.714 3.308-2.874 3.308-2.874s-1.242-.67-2.82-.678a8 8 0 0 1 1.107-.2l-.075-.677q-2.221.246-3.835 1.497c.628-1.381.677-2.886.147-4.495l-.647.213c.433 1.315.44 2.53.02 3.66a5 5 0 0 0 .115-1.068c0-2.442-1.78-4.005-1.78-4.005m.752 7.147-.025.037.03-.037zm-1.652-.16.067-.061q.092.152.181.285a8 8 0 0 0-.248-.223" clip-rule="evenodd"/></g></g></g><defs><clipPath id="a"><path fill="#fff" d="M0 0h32v24H0z"/></clipPath></defs></svg>