<svg xmlns="http://www.w3.org/2000/svg" width="32" height="24" fill="none" viewBox="0 0 32 24"><g clip-path="url(#a)"><mask id="b" width="32" height="24" x="0" y="0" maskUnits="userSpaceOnUse" style="mask-type:luminance"><path fill="#fff" d="M32 0H0v24h32z"/></mask><g mask="url(#b)"><path fill="#fff" d="M32 0H0v24h32z"/><path fill="#2993EC" fill-rule="evenodd" d="M0 0h34v24H0z" clip-rule="evenodd"/><path fill="#F1F9FF" fill-rule="evenodd" d="M6.213 11.583c0 5.293 4.382 9.584 9.787 9.584s9.787-4.29 9.787-9.584C25.787 6.291 21.405 2 16 2s-9.787 4.29-9.787 9.583m17.447 0c0 4.143-3.43 7.5-7.66 7.5s-7.66-3.357-7.66-7.5 3.43-7.5 7.66-7.5 7.66 3.358 7.66 7.5" clip-rule="evenodd"/><path fill="#E31D1C" fill-rule="evenodd" d="M7.064 11.582c0 4.833 4.001 8.75 8.937 8.75s8.936-3.918 8.936-8.75-4.001-8.75-8.936-8.75c-4.936 0-8.937 3.918-8.937 8.75m17.447 0c0 4.602-3.81 8.333-8.51 8.333s-8.511-3.73-8.511-8.333S11.3 3.249 16 3.249s8.511 3.73 8.511 8.333" clip-rule="evenodd"/><path fill="#FDDA33" fill-rule="evenodd" d="M16 2.207q-.162.335-.162.95t-.476 1.231a10 10 0 0 1-.089-1.232q0-.552.727-.949m2.236.339q-.233.289-.371.888-.139.6-.741 1.093.067-.68.19-1.22.125-.54.922-.761m1.537 1.62q.28-.547.575-.772-.827.024-1.078.516a10 10 0 0 0-.48 1.138q.704-.333.983-.881m2.418.517q-.338.151-.734.623t-1.157.637q.369-.577.724-1 .355-.425 1.167-.26m.637 2.112q.492-.37.855-.442-.753-.342-1.195-.01a10 10 0 0 0-.93.813q.778.01 1.27-.361m1.919 1.54q-.371-.018-.937.222t-1.32.043q.59-.348 1.099-.563.51-.216 1.158.298m-.395 2.155q.606-.108.963-.006-.517-.647-1.06-.55a10 10 0 0 0-1.198.3q.69.363 1.296.256M6.084 9.768q.3.217.907.325.606.106 1.13.683a10 10 0 0 1-1.228-.127q-.545-.097-.809-.88m1.537-1.582q-.566-.24-.81-.52.08.825.59 1.04.508.216 1.168.4-.381-.68-.948-.92m.406-2.414q.17.33.66.7.491.372.698 1.123a10 10 0 0 1-1.037-.671q-.443-.333-.32-1.152m2.098-.725q-.396-.472-.486-.831-.303.77.053 1.194a10 10 0 0 0 .86.887q-.031-.78-.427-1.25m1.448-1.983q.007.371.286.92.28.548.135 1.313a10 10 0 0 1-.638-1.057q-.25-.492.217-1.176m2.228.28q-.138-.6-.056-.962-.619.55-.494 1.089.124.538.363 1.18.326-.708.187-1.307" clip-rule="evenodd"/><path fill="#A7A7A7" fill-rule="evenodd" d="M14.586 5.75a.575.575 0 0 0-.561.697l.387 1.768a.57.57 0 0 0 .256.364.57.57 0 0 0-.218.386L13.063 20.61a.53.53 0 0 0 .257.53c.522.299 1.654.86 2.786.86s2.265-.561 2.787-.86a.53.53 0 0 0 .257-.53L17.762 8.965a.57.57 0 0 0-.218-.386.57.57 0 0 0 .257-.364l.387-1.768a.574.574 0 0 0-.561-.697z" clip-rule="evenodd"/><path fill="#73BE4A" d="M6.52 12.014a.32.32 0 0 1 .398-.207c.169.05.263.225.212.39-.09.286-.09.707.01 1.26.037.21.082.374.137.518.022.058.045.11.075.176l.079.17c.095.215.137.404.137.682a.316.316 0 0 1-.319.312.316.316 0 0 1-.319-.312.94.94 0 0 0-.085-.435l-.074-.158a3 3 0 0 1-.092-.215 3.4 3.4 0 0 1-.169-.631c-.114-.64-.114-1.155.01-1.55"/><path fill="#F7FCFF" fill-rule="evenodd" d="m16.212 16.178-4.114 2.803 1.451-4.698-3.994-2.965 5.011-.1 1.646-4.636 1.646 4.636 5.011.1-3.994 2.965 1.452 4.698z" clip-rule="evenodd"/><path fill="#73BE4A" d="M25.559 12.428a.32.32 0 0 0-.399-.207.31.31 0 0 0-.212.39c.09.286.09.707-.009 1.26a3 3 0 0 1-.138.519c-.022.057-.044.11-.075.175l-.079.17a1.55 1.55 0 0 0-.137.682c0 .172.143.312.319.312s.32-.14.32-.312a.94.94 0 0 1 .084-.434l.074-.159c.036-.077.064-.143.092-.215a3.4 3.4 0 0 0 .169-.631c.114-.64.114-1.155-.01-1.55"/><path stroke="#73BE4A" stroke-linecap="round" stroke-linejoin="round" d="M16.06 3.148s1.165.52.662 1.336m.19-1.336s1.165.52.662 1.336"/><path fill="#73BE4A" d="M9.26 6.357a.274.274 0 0 1 .396-.098.33.33 0 0 1 .09.43c-.161.281-.246.666-.246 1.159 0 .173-.128.312-.287.312s-.287-.14-.287-.312q-.002-.905.334-1.49"/><path fill="#73BE4A" d="M8.809 9.213c0 .172-.129.312-.287.312-.159 0-.288-.14-.288-.312v-.89q-.002-.945.307-1.489a.274.274 0 0 1 .396-.099.33.33 0 0 1 .091.43c-.142.25-.22.635-.22 1.157zm14.675-.418c0 .172.129.312.287.312.159 0 .288-.14.288-.312v-.89q.002-.945-.308-1.489a.274.274 0 0 0-.395-.099.33.33 0 0 0-.092.43c.143.25.22.635.22 1.157z"/><path fill="#73BE4A" d="M24.336 10.256c0 .172.128.312.287.312s.287-.14.287-.312v-.89c0-.63-.099-1.127-.307-1.489a.274.274 0 0 0-.396-.099.33.33 0 0 0-.091.43c.143.25.22.635.22 1.157z"/></g></g><defs><clipPath id="a"><path fill="#fff" d="M0 0h32v24H0z"/></clipPath></defs></svg>