<svg xmlns="http://www.w3.org/2000/svg" width="32" height="24" fill="none" viewBox="0 0 32 24"><g clip-path="url(#a)"><mask id="b" width="32" height="24" x="0" y="0" maskUnits="userSpaceOnUse" style="mask-type:luminance"><path fill="#fff" d="M32 0H0v24h32z"/></mask><g mask="url(#b)"><path fill="#fff" d="M32 0H0v24h32z"/><path fill="#1C7B4D" fill-rule="evenodd" d="M0 0v24h32V0z" clip-rule="evenodd"/><mask id="c" width="32" height="24" x="0" y="0" maskUnits="userSpaceOnUse" style="mask-type:luminance"><path fill="#fff" fill-rule="evenodd" d="M0 0v24h32V0z" clip-rule="evenodd"/></mask><g fill-rule="evenodd" clip-rule="evenodd" mask="url(#c)"><path fill="#E31D1C" d="M0 0v6h32V0zm0 18v6h32v-6z"/><path fill="#FECA00" d="M16.241 14.379c5.186.029 6.646-4.313 6.646-4.313-.294 3.714-2.348 6.234-6.646 6.234-4.297 0-5.875-3.264-6.645-6.519 0 0 1.46 4.57 6.645 4.598"/><path fill="#FECA00" d="m17.637 9.815.337 1.964-1.764-.928-1.763.928.337-1.964-1.427-1.534h1.972l.881-1.93.882 1.93h1.972z"/></g></g></g><defs><clipPath id="a"><path fill="#fff" d="M0 0h32v24H0z"/></clipPath></defs></svg>