<svg xmlns="http://www.w3.org/2000/svg" width="32" height="24" fill="none" viewBox="0 0 32 24"><g clip-path="url(#a)"><mask id="b" width="32" height="24" x="0" y="0" maskUnits="userSpaceOnUse" style="mask-type:luminance"><path fill="#fff" d="M32 0H0v24h32z"/></mask><g mask="url(#b)"><path fill="#fff" d="M32 0H0v24h32z"/><path fill="#C51918" fill-rule="evenodd" d="M0 0h32v22a2 2 0 0 1-2 2H2a2 2 0 0 1-2-2z" clip-rule="evenodd"/><path fill="#C51918" fill-rule="evenodd" d="M0 0h32v24H0z" clip-rule="evenodd"/><path fill="#579D20" fill-rule="evenodd" d="M6 6h20v12H6z" clip-rule="evenodd"/><path stroke="#B6EB9A" stroke-opacity="0.238111" stroke-width="2" d="M7 7h18v10H7z"/><mask id="c" width="20" height="12" x="6" y="6" maskUnits="userSpaceOnUse" style="mask-type:luminance"><path fill="#fff" fill-rule="evenodd" d="M6 6h20v12H6z" clip-rule="evenodd"/><path stroke="#fff" stroke-width="2" d="M7 7h18v10H7z"/></mask><g mask="url(#c)"><path fill="#F9FAFA" fill-rule="evenodd" d="M16.034 12.461c-.017 3.066 2.396 4.7 2.396 4.7-2.754.324-4.586-2.173-4.586-4.67S16.34 7.931 18.43 7c0 0-2.38 2.396-2.396 5.461" clip-rule="evenodd"/></g></g></g><defs><clipPath id="a"><path fill="#fff" d="M0 0h32v24H0z"/></clipPath></defs></svg>