<svg xmlns="http://www.w3.org/2000/svg" width="32" height="24" fill="none" viewBox="0 0 32 24"><g clip-path="url(#a)"><mask id="b" width="32" height="24" x="0" y="0" maskUnits="userSpaceOnUse" style="mask-type:luminance"><path fill="#fff" d="M32 0H0v24h32z"/></mask><g mask="url(#b)"><path fill="#fff" d="M32 0H0v24h32z"/><path fill="#E11C1B" fill-rule="evenodd" d="M0 0v24h32V0z" clip-rule="evenodd"/><mask id="c" width="32" height="24" x="0" y="0" maskUnits="userSpaceOnUse" style="mask-type:luminance"><path fill="#fff" fill-rule="evenodd" d="M0 0v24h32V0z" clip-rule="evenodd"/></mask><g fill-rule="evenodd" clip-rule="evenodd" mask="url(#c)"><path fill="#272727" d="M0 0v10h32V0z"/><path fill="#5EAA22" d="M0 16v8h32v-8z"/><path fill="#E11C1B" d="M4.002 11.948v-.003l-.01.002zm.628-3.82h.103l-.158-.024zm2.928 0q.079-.15.163-.298L5.432 6.314l2.7.879q.227-.317.485-.614l-1.984-1.89 2.529 1.32q.278-.265.583-.51L8.14 3.284l2.266 1.734q.317-.21.653-.398L9.905 2.14l1.914 2.101q.342-.153.7-.282l-.65-2.664 1.482 2.404q.359-.096.728-.167L13.97.776l.987 2.623q.365-.039.738-.054l.447-2.743.446 2.744q.374.015.738.056l.987-2.626-.109 2.759q.369.07.726.167l1.485-2.408-.653 2.67q.357.13.697.283l1.92-2.108-1.16 2.489q.334.186.648.396l2.276-1.741L22.53 5.51q.3.242.577.506l2.542-1.326-1.996 1.9q.255.294.48.608l2.717-.884-2.304 1.525q.083.144.158.29H22.74c-1.354-1.878-3.829-3.134-6.657-3.134-2.829 0-5.304 1.256-6.658 3.133zm3.002 0c1.282-1.323 3.297-2.175 5.562-2.175s4.28.852 5.562 2.175zm16.989 0h.103l.054-.024zm.733 3.817.007.002h-.008z"/></g></g></g><defs><clipPath id="a"><path fill="#fff" d="M0 0h32v24H0z"/></clipPath></defs></svg>