<svg xmlns="http://www.w3.org/2000/svg" width="32" height="24" fill="none" viewBox="0 0 32 24"><g clip-path="url(#a)"><mask id="b" width="32" height="24" x="0" y="0" maskUnits="userSpaceOnUse" style="mask-type:luminance"><path fill="#fff" d="M32 0H0v24h32z"/></mask><g mask="url(#b)"><path fill="#fff" d="M32 0H0v24h32z"/><path fill="#D9071E" fill-rule="evenodd" d="M22 0h10v24H22z" clip-rule="evenodd"/><path fill="#006923" fill-rule="evenodd" d="M0 0h12v24H0z" clip-rule="evenodd"/><path fill="#fff" fill-rule="evenodd" d="M10 0h12v24H10z" clip-rule="evenodd"/><path fill="#A8AC71" fill-rule="evenodd" d="M13.056 8.343c-.106.456-.037.563.477.563.027 0 .069.075.115.158.05.09.105.188.15.203-.02.024-.215.378-.216 1 0 .128.06.339.117.542.062.22.121.43.098.514-.038.136-.208-.012-.34-.127-.075-.065-.137-.12-.156-.104-.094.079-.142-.547-.171-.926-.014-.168-.023-.287-.03-.273a1 1 0 0 1-.06-.25c-.029-.19-.057-.376-.282-.376h-.58v.427s.335 0 .335.794c.006.12.162 1.164.543 1.17-.223.004-.221.049-.22.075v.005c0 .639.534.708 1.033.527.3-.108.619-.32.857-.58.337-.369.379-.846-.063-1.107-.158-.093-.328-.13-.567-.143.047-.14.002-.265-.033-.363-.029-.081-.051-.144-.007-.18.5-.405.545-.78.18-1.115-.046-.044-.092-.103-.14-.164-.088-.114-.181-.235-.299-.27q.081-.165.22-.395l-.858-.514c-.155.258-.13.46-.107.637a.8.8 0 0 1 .004.272m.932 2.666-.015.017.01-.01zm-.453.314h.001l.01-.002-.01.002zm-.436.334h-.033z" clip-rule="evenodd"/><path fill="#FCCA3D" fill-rule="evenodd" d="M14.384 7.914s-.687.533-.558 1.1c.128.568 1.481 0 1.318-.55s-.76-.55-.76-.55" clip-rule="evenodd"/><path fill="#8F4620" fill-rule="evenodd" d="M19.267 12.404s.925-2.742-.546-4.16c-1.47-1.42-3.17-1.325-3.17-1.325s-.489.364 0 .641c.49.277.285.543.285.543s-.82-.832-1.363-.346c-.544.486.507.412.396.778s-.583 1.992.106 2.812c.69.82-.651.642-.379.642.273 0 1.24.191 1.24 0 0-.19.336.743.624.743.287 0 .51-.328.51-.328s.403.328.649.328c.245 0 1.102-.215 1.102-.215l-1.62-1.364s.098-.602-.131-.732c-.23-.13 1.841 1.154 2.004 1.568.162.415.293.415.293.415" clip-rule="evenodd"/><path fill="#9FAB2F" d="M11.066 11.725s.15-.479.311-.512c.14-.029.432.23.432.23.52 2.89 1.779 4.018 3.866 4.018 2.112 0 3.392-.858 4.139-3.523 0 0 .396-.405.537-.36.152.049.343.585.343.585-.857 3.058-2.476 4.42-5.02 4.42-2.567 0-4.01-1.54-4.608-4.858"/><path fill="#2FC2DC" fill-rule="evenodd" d="M13.335 13.656s3.004.638 4.19.638-1.04.967-1.91.967q-.57 0-1.373-.69c-.096-.083-.003-.268-.296-.27-.408-.004-.915-.1-.867-.158.046-.056.64-.072.583-.133-.094-.1-.327-.354-.327-.354" clip-rule="evenodd"/><path fill="#F9AA51" d="M16.5 14.102h-1.666a.167.167 0 0 0-.167.166v.738c0 .092.075.167.167.167H16.5a.167.167 0 0 0 .167-.167v-.738a.167.167 0 0 0-.167-.166"/><path fill="#259485" d="M12.176 12.137s0-.375.254-.575c.291-.228.564 0 .564 0 1.066 1.52 2.66 2.019 4.888 1.497 0 0 .666.218.7.361.042.182-.473.613-.473.613-2.605.61-4.618-.022-5.933-1.896"/><path fill="#FCCA3D" fill-rule="evenodd" d="M16.59 12.352s-1.213.638-.808.638c.404 0 1.988.32 1.68 0-.308-.319-.871-.638-.871-.638m-1.435-.764s-.23-.666-.71-.666-.345.546-.576.546.215.385.414.385.872-.265.872-.265" clip-rule="evenodd"/></g></g><defs><clipPath id="a"><path fill="#fff" d="M0 0h32v24H0z"/></clipPath></defs></svg>