<svg xmlns="http://www.w3.org/2000/svg" width="32" height="24" fill="none" viewBox="0 0 32 24"><g clip-path="url(#a)"><mask id="b" width="32" height="24" x="0" y="0" maskUnits="userSpaceOnUse" style="mask-type:luminance"><path fill="#fff" d="M32 0H0v24h32z"/></mask><g mask="url(#b)"><path fill="#fff" d="M32 0H0v24h32z"/><path fill="#F7FCFF" fill-rule="evenodd" d="M0 0h32v24H0z" clip-rule="evenodd"/><path fill="#E31D1C" d="M32.027 5h-32v2.9h32zm0 5.2h-32v2.9h32zm.084 5h-32v2.5h32zm0 5h-32v2.7h32z"/><path fill="#E31D1C" fill-rule="evenodd" d="M0 0h32v2.5H0z" clip-rule="evenodd"/><path fill="#3D58DB" fill-rule="evenodd" d="M0 0h16v12H0z" clip-rule="evenodd"/><path fill="#FECA00" fill-rule="evenodd" d="M3.594 6.204c0 1.376.648 2.677 1.967 2.677 1.978 0 2.363-.422 3.286-1.004.219.49-.518 2.589-3.313 2.589C3.297 10.42 1.49 8.624 1.49 6.204c0-2.779 2.044-4.28 3.988-4.262 1.716 0 3.536.973 3.48 2.216-.809-.79-1.687-.79-3.148-.79s-2.216 1.46-2.216 2.836" clip-rule="evenodd"/><path fill="#FECA00" fill-rule="evenodd" d="m11 7.298-.927 1.354.045-1.64-1.545.55 1-1.3L8 5.798l1.573-.463-1-1.3 1.545.55-.045-1.64L11 4.298l.927-1.353-.045 1.64 1.545-.55-1 1.3L14 5.798l-1.573.464 1 1.3-1.545-.55.045 1.64z" clip-rule="evenodd"/></g></g><defs><clipPath id="a"><path fill="#fff" d="M0 0h32v24H0z"/></clipPath></defs></svg>