<svg xmlns="http://www.w3.org/2000/svg" width="32" height="24" fill="none" viewBox="0 0 32 24"><g clip-path="url(#a)"><mask id="b" width="32" height="24" x="0" y="0" maskUnits="userSpaceOnUse" style="mask-type:luminance"><path fill="#fff" d="M32 0H0v24h32z"/></mask><g mask="url(#b)"><path fill="#fff" d="M32 0H0v24h32z"/><path fill="#F7FCFF" fill-rule="evenodd" d="M0 0v24h32V0z" clip-rule="evenodd"/><mask id="c" width="32" height="24" x="0" y="0" maskUnits="userSpaceOnUse" style="mask-type:luminance"><path fill="#fff" fill-rule="evenodd" d="M0 0v24h32V0z" clip-rule="evenodd"/></mask><g mask="url(#c)"><path fill="#FECA00" fill-rule="evenodd" d="M0 0v8h32V0z" clip-rule="evenodd"/><path fill="#093" fill-rule="evenodd" d="M0 16v8h32v-8z" clip-rule="evenodd"/><path fill="#272727" stroke="#fff" stroke-width="2" d="M0 7h-1v10h34V7z"/></g><path fill="#F50100" fill-rule="evenodd" d="M0 0v24l18-12z" clip-rule="evenodd"/><mask id="d" width="18" height="24" x="0" y="0" maskUnits="userSpaceOnUse" style="mask-type:luminance"><path fill="#fff" fill-rule="evenodd" d="M0 0v24l18-12z" clip-rule="evenodd"/></mask><g mask="url(#d)"><path fill="#FECA00" fill-rule="evenodd" d="m8.069 14.353-3.779 3.05 1.733-4.076-2.978-2.868H6.56L8.003 7l1.532 3.459h3.51l-3.136 2.868 1.57 4.077z" clip-rule="evenodd"/><path fill="#F7FCFF" fill-rule="evenodd" d="m6.157 11.985-.641 2.14s2.163-.021 2.423.198c.783-.489 2.395-.198 2.395-.198l-.857-2.29s-1.087-.493-1.538-.223c-1.104-.25-1.782.373-1.782.373" clip-rule="evenodd"/><path fill="#000" d="M11.564 15.215a.5.5 0 0 1-.799.602l-4.18-5.551a.5.5 0 0 1 .799-.602z"/><path stroke="#000" stroke-linecap="round" stroke-linejoin="round" d="m6.974 9.84-.4-.48"/><path fill="#000" fill-rule="evenodd" d="M5.605 9.363 4.396 11.3l.605 1.046 1.382-2.054.249-.635-.25-.293zM4.04 15.109l.582.821 4.495-5.319.187.209 1.036-.975 1.656-1.802-1.656 1.354-.536-.149-.5.787H8.8l-3.67 4.087z" clip-rule="evenodd"/></g></g></g><defs><clipPath id="a"><path fill="#fff" d="M0 0h32v24H0z"/></clipPath></defs></svg>