<svg xmlns="http://www.w3.org/2000/svg" width="32" height="24" fill="none" viewBox="0 0 32 24"><g clip-path="url(#a)"><mask id="b" width="32" height="24" x="0" y="0" maskUnits="userSpaceOnUse" style="mask-type:luminance"><path fill="#fff" d="M32 0H0v24h32z"/></mask><g mask="url(#b)"><path fill="#fff" d="M32 0H0v24h32z"/><path fill="#093" fill-rule="evenodd" d="M0 0v24h32V0z" clip-rule="evenodd"/><mask id="c" width="32" height="24" x="0" y="0" maskUnits="userSpaceOnUse" style="mask-type:luminance"><path fill="#fff" fill-rule="evenodd" d="M0 0v24h32V0z" clip-rule="evenodd"/></mask><g mask="url(#c)"><path fill="#3195F9" fill-rule="evenodd" d="M0 0v24L32 0z" clip-rule="evenodd"/><path fill="#E31D1C" stroke="#F7FCFF" stroke-width="2" d="m-1.012 27.093.53.961.908-.617 34.832-23.71.702-.478-.358-.77-2.342-5.04-.491-1.056-.97.646-35.356 23.557-.765.51.444.805z"/><path fill="#FECA00" fill-rule="evenodd" d="m6.23 9.244-1.294 1.614-.314-2.045-1.928.751.752-1.928L1.4 7.323l1.615-1.294L1.4 4.735l2.046-.314-.752-1.928 1.928.751.314-2.045L6.23 2.814l1.294-1.615.314 2.045 1.928-.75-.752 1.927 2.046.314-1.615 1.294 1.615 1.294-2.046.313.752 1.928-1.928-.75-.314 2.044zm0-.715a2.5 2.5 0 1 0 0-5 2.5 2.5 0 0 0 0 5m2-2.5a2 2 0 1 1-4 0 2 2 0 0 1 4 0" clip-rule="evenodd"/></g></g></g><defs><clipPath id="a"><path fill="#fff" d="M0 0h32v24H0z"/></clipPath></defs></svg>