<svg xmlns="http://www.w3.org/2000/svg" width="32" height="24" fill="none" viewBox="0 0 32 24"><g clip-path="url(#a)"><mask id="b" width="32" height="24" x="0" y="0" maskUnits="userSpaceOnUse" style="mask-type:luminance"><path fill="#fff" d="M32 0H0v24h32z"/></mask><g mask="url(#b)"><path fill="#fff" d="M32 0H0v24h32z"/><path fill="#409100" fill-rule="evenodd" d="M22 0h10v24H22zM0 0h10v24H0z" clip-rule="evenodd"/><path fill="#fff" fill-rule="evenodd" d="M10 0h12v24H10z" clip-rule="evenodd"/><path fill="#409100" fill-rule="evenodd" d="M12.695 18.771c-1.555.253-2.046-.506-2.046-.506l.196-.16c.132-.109.575-.072 1.005-.036.21.018.418.035.585.035.242 0 .522-.037.813-.075a8 8 0 0 1 .959-.084c.599 0-1.772-.784-2.28-.303-.506.48-1.927-.223-1.927-.624 0-.274.523-.174 1-.083.223.043.435.083.58.083.456 0-.456-.89-.93-.89s.474-.206.93-.206c.26 0 .5.067.708.125.157.043.295.082.407.082.261 0-1.309-.675-1.571-.675h1.31c.45 0 .56.063.663.124.094.054.182.105.51.105.694 0 .315-.38.315-.38s-2.342-.242-2.798-.578c-.308-.227.519-.147 1.3-.072.375.037.739.072.963.072.691 0-1.46-.494-1.807-.494h1.585c.347 0 .727.112 1.127.229.441.129.905.265 1.371.265.492 0-.468-.293-1.523-.615-.852-.26-1.766-.54-2.026-.698-.268-.164-.064-.1.308.015.433.134 1.093.34 1.5.34.756 0-1.008-.743-1.487-.743s-.94-.216-.507-.416c.265-.122.956.062 1.558.223.379.101.722.193.902.193.218 0 .38.085.55.175.196.103.404.213.725.213.603 0-1.275-.804-2.055-.804s-.913-.378-.444-.378-1.05-.645-1.05-.645-.22-.457.32-.457h.73c.25 0-.25-.793-.73-.793-.479 0-.06-.24.73-.24.482 0 .763.167 1.102.366.218.13.46.272.795.393.853.31.21-.519 0-.519s-2.366-.675-2.366-.675.22-.25 0-.588c-.165-.256.523-.126.942-.046.136.025.244.046.284.046.1 0 .384.07.734.157.236.06.502.125.76.182.64.14-2.176-1.034-2.5-1.034-.325 0 .693-.193 1.292-.193.294 0 .437.046.581.094.15.049.301.099.627.099.64 0-1.208-.687-1.807-.687-.6 0-.245-.59 0-.59.095 0 .336.03.631.07.462.06 1.056.138 1.424.138.28 0 .024-.078-.348-.192-.429-.132-1.011-.31-1.108-.471-.107-.177.11-.145.49-.09q.102.017.22.032c.258.136.474.223.505.12q.016-.044.055-.066.091.003.186.004c.357 0 .192-.054-.152-.12l-.03-.009c-.522-.16-1.65-.5-1.228-.29q.125.063.272.146a7 7 0 0 0-.604-.064c-.285 0-.571-.22 0-.22h1.14c-.355 0-.854 0-.854-.279 0-.19.395-.12.76-.058.17.03.335.058.448.058.354 0 .442 0 .248-.165-.184-.158-.82-.157-1.215-.156h-.06c-.387 0 .82-.202 1.275-.202.077 0 .11 0 .11-.002l-.058-.007c-.198-.019-.857-.083-1.327-.296-.421-.19-.052-.142.43-.08.29.038.62.08.845.08.603 0-.248-.405-.889-.405-.514 0-.269-.14.05-.323.077-.044.16-.092.237-.14.23-.146.4.103.5.249.067.1.102.15.102-.004a.56.56 0 0 0-.07-.297q.024.022.07.052c.248.166 0-.435 0-.435s-.248-.165 0-.165-.08-.285-.248-.285c-.169 0 .442-.273.442-.273l.135-1.154s.333 1.258.333 1.427v.885c0 .21-.15.358-.25.456-.124.124-.171.17.25.17.757 0 .724.242.264.242-.461 0 .132.305.96.305.827 0-.695.358-1.224.358-.53 0 .53.165 1.223.165.469 0-.012.162-.455.311-.213.072-.418.141-.504.188-.138.074.201.072.56.052-.188.055-.376.113-.518.156-.173.053-.231.07-.23.078 0 .003.017.004.041.006.073.004.218.012.247.107.044.143.438-.078.811-.287l.176-.098.161-.014s.343.396.343.637c0 .141-.45.183-.932.227l-.048.004c.024-.031-.078-.015-.229.022a3.5 3.5 0 0 0-.646.11c-.155.05-.129.071-.003.076l-.034.01c-.119.036-.159.049-.158.056q.002.005.03.01c.052.01.157.03.186.125.044.143.307-.038.556-.209l.024-.016.237-.016c.27-.018.532-.036.674-.036.447 0-.446.216-.788.216-.145 0 .038.032.317.083.378.067.93.167 1.086.26.186.11-.361.068-.849.032a9 9 0 0 0-.554-.033c-.388 0-.46.318-.195.318h.983c.372 0 .76.568.615.568-.044 0-.138.03-.268.07-.3.095-.797.25-1.33.25h1.326c.343-.001 1.321 0 1.321.339 0 .21-.185.256-.428.317a2 2 0 0 0-.477.166c-.426.231 1.276.441 1.276.441s-.674.21-1.002.21.153.31 1.002.31c.657 0 .464.356.343.58a.5.5 0 0 0-.065.15c0 .06-.124.11-.304.183-.231.095-.554.227-.823.462-.31.27.066.19.491.1.232-.048.479-.1.636-.1.447 0 .637.018.491.235-.145.216-1.443.559-1.77.559h1.77c.491 0-.137.388-.77.388-.423 0-.66.16-.816.264-.077.052-.134.09-.185.09h1.28c.066 0 .137-.104.203-.2.058-.083.11-.16.15-.154.58.09.32.82 0 .82-.366 0-1.48.245-1.305.493.085.12.218.066.433-.022.229-.094.552-.226 1.01-.226.889 0 .086.248-.137.248s-1.167.18-1.481.336c-.21.104.52.069 1.247.034.361-.017.722-.034.965-.034.732 0-1.734.622-2.639.622s.602.24.905.24c.117 0 .342.03.62.067.448.06 1.03.139 1.513.139.783 0-.783.515-1.484.515h-.16c-.625-.003-1.094-.004-.792.374.168.21.728.153 1.312.093.555-.056 1.131-.116 1.416.05.511.298-1.751.272-2.728.26l-.328-.002c-.6 0 .6.223 1.634.223h.13c.923-.001 1.142-.001 1.142.303 0 .266-2.01.197-2.85.169-.16-.006-.277-.01-.33-.01-.16 0-.254.097-.35.198-.103.108-.21.22-.409.22-.163 0-.24-.105-.31-.2-.093-.128-.175-.24-.44-.057-.46.319.461 3.536.461 3.536h-2.487v-3.03s-.81-.253-2.366 0m2.858-14.754c-.003.001.006.016.04.044-.02-.03-.036-.044-.04-.044m-.865 12.007c-.393-.148.603-.155 1.064-.155.148 0 .2 0 .204.013q.001.01-.032.034a.41.41 0 0 0-.172.333c0 .284-.374.101-.727-.07a4 4 0 0 0-.337-.155m.814-1.158c-.46 0-1.457.008-1.064.156.1.038.218.095.338.154.353.172.726.354.726.07 0-.19.115-.285.173-.332.02-.017.034-.028.032-.035-.003-.013-.056-.013-.205-.013m-.83-.67c-.322-.077.492-.081.868-.081.123 0 .166 0 .167.007q-.001.004-.026.018c-.047.024-.141.074-.141.174 0 .15-.305.053-.593-.037a5 5 0 0 0-.276-.08m.809-3.169c-.522-.16-1.65-.5-1.228-.29.107.053.231.123.358.194.373.209.768.43.811.287.03-.096.174-.103.247-.107q.038-.002.041-.006c.002-.007-.057-.025-.23-.078m-1.228-1.292c-.422-.21.706.13 1.228.29.172.052.23.07.23.077-.001.004-.018.005-.042.006-.073.004-.218.012-.247.107-.043.143-.438-.078-.811-.287a9 9 0 0 0-.358-.193m1.228-.964c-.522-.159-1.65-.5-1.228-.29.107.054.231.123.358.194.373.21.768.43.811.287.03-.095.174-.103.247-.107q.038 0 .041-.006c.002-.007-.057-.025-.23-.078m1.128 6.847c.46 0 1.457.008 1.064.156a4 4 0 0 0-.337.153c-.353.173-.727.355-.727.072a.41.41 0 0 0-.173-.333q-.032-.025-.032-.035c.004-.013.057-.013.205-.013m1.064-.596c.393-.148-.603-.156-1.064-.156-.148 0-.201 0-.205.013q0 .01.032.035a.41.41 0 0 1 .173.333c0 .283.374.101.726-.071a4 4 0 0 1 .338-.154m.616-1.733-.01.003c-.107.025-.328.113-.578.21-.508.2-1.13.445-1.13.311 0-.1-.094-.15-.14-.175q-.026-.012-.027-.018c.002-.007.044-.007.168-.007.313 0 1.512-.277 1.717-.324m-.43-3.053c.422-.21-.707.13-1.228.29-.173.053-.231.07-.23.078 0 .003.017.004.041.005.073.004.218.012.247.108.044.142.438-.079.811-.287.127-.071.252-.14.359-.194m-1.228 1.292c.521-.16 1.65-.5 1.228-.29a9 9 0 0 0-.359.194c-.373.209-.767.43-.81.287-.03-.095-.175-.103-.248-.107q-.038-.002-.04-.006c-.002-.007.056-.025.229-.078m1.228-2.295c.422-.21-.707.13-1.228.29-.173.053-.231.07-.23.078 0 .004.017.005.041.006.073.004.218.012.247.107.044.143.438-.078.811-.287.127-.07.252-.14.359-.194m-1.571-.586c.36-.11 1.138-.344.854-.175-.072.042-.155.1-.24.157-.249.171-.512.352-.556.21-.03-.096-.134-.116-.186-.127q-.029-.004-.03-.01c-.001-.006.04-.019.158-.055m.23 3.814c-.414 0 0-.326 0-.326h.212c.073 0 .138-.03.224-.07.164-.075.402-.185.913-.185.779 0-.937.581-1.35.581" clip-rule="evenodd"/></g></g><defs><clipPath id="a"><path fill="#fff" d="M0 0h32v24H0z"/></clipPath></defs></svg>