<svg xmlns="http://www.w3.org/2000/svg" width="32" height="24" fill="none" viewBox="0 0 32 24"><g clip-path="url(#a)"><mask id="b" width="32" height="24" x="0" y="0" maskUnits="userSpaceOnUse" style="mask-type:luminance"><path fill="#fff" d="M32 0H0v24h32z"/></mask><g mask="url(#b)"><path fill="#fff" d="M32 0H0v24h32z"/><path fill="#F7FCFF" fill-rule="evenodd" d="M0 0v24h32V0z" clip-rule="evenodd"/><mask id="c" width="32" height="24" x="0" y="0" maskUnits="userSpaceOnUse" style="mask-type:luminance"><path fill="#fff" fill-rule="evenodd" d="M0 0v24h32V0z" clip-rule="evenodd"/></mask><g mask="url(#c)"><path fill="#0080EC" fill-rule="evenodd" d="M0 0v8h32V0zm0 16v8h32v-8z" clip-rule="evenodd"/><path fill="#D0AB00" fill-rule="evenodd" d="M16 8q.284 0 .555.038l-.198 1.276a2.7 2.7 0 0 0-.872.026l-.093-1.294A4 4 0 0 1 16 8m1.152.168-.348 1.244a2.71 2.71 0 0 1 1.904 2.677l1.287.11Q20 12.1 20 12c0-1.809-1.2-3.337-2.848-3.832m2.361 5.746a4 4 0 0 1-3.217 2.075v-1.296a2.7 2.7 0 0 0 1.83-1.014zm-6.936.156a4 4 0 0 0 3.194 1.924V14.7a2.7 2.7 0 0 1-1.935-1.07zm-.573-1.899L12 12a4 4 0 0 1 2.552-3.73l.334 1.26a2.71 2.71 0 0 0-1.595 2.45z" clip-rule="evenodd"/><path fill="#7CDFFF" fill-rule="evenodd" d="m15.975 8.95-2.737 4.73h5.517z" clip-rule="evenodd"/><mask id="d" width="6" height="6" x="13" y="8" maskUnits="userSpaceOnUse" style="mask-type:luminance"><path fill="#fff" fill-rule="evenodd" d="m15.975 8.95-2.737 4.73h5.517z" clip-rule="evenodd"/></mask><g mask="url(#d)"><path stroke="#E31D1C" d="M16.002 15.118a2.39 2.39 0 1 0 0-4.782 2.39 2.39 0 0 0 0 4.782Z"/><path stroke="#FFD018" d="M16.002 15.118a2.39 2.39 0 1 0 0-4.782 2.39 2.39 0 0 0 0 4.782Z"/><path stroke="#4EDD00" d="M16.002 15.118a2.39 2.39 0 1 0 0-4.782 2.39 2.39 0 0 0 0 4.782Z"/><path stroke="#3D58DB" d="M16.002 15.118a2.39 2.39 0 1 0 0-4.782 2.39 2.39 0 0 0 0 4.782Z"/><path fill="#3D58DB" d="M19.274 12.219H13.02v1.818h6.254z"/><path fill="#97C923" fill-rule="evenodd" d="m13.438 12.989 1.246-1.24.383.62.267-.756.297.567.312-.43.403.43.37-.567.316.567.363-.43.847.9.153.339-4.957.252z" clip-rule="evenodd"/></g></g></g></g><defs><clipPath id="a"><path fill="#fff" d="M0 0h32v24H0z"/></clipPath></defs></svg>