<svg xmlns="http://www.w3.org/2000/svg" width="32" height="24" fill="none" viewBox="0 0 32 24"><g clip-path="url(#a)"><mask id="b" width="32" height="24" x="0" y="0" maskUnits="userSpaceOnUse" style="mask-type:luminance"><path fill="#fff" d="M32 0H0v24h32z"/></mask><g mask="url(#b)"><path fill="#fff" d="M32 0H0v24h32z"/><path fill="#fff" d="M32 0H0v24h32z"/><path fill="#C51918" stroke="#4857A1" d="m11.616 12.322 9.317 11.18H.5V.843l19.54 10.658h-9.108z"/><mask id="c" width="22" height="24" x="0" y="0" maskUnits="userSpaceOnUse" style="mask-type:luminance"><path fill="#fff" stroke="#fff" d="m11.616 12.322 9.317 11.18H.5V.843l19.54 10.658h-9.108z"/></mask><g fill-rule="evenodd" clip-rule="evenodd" mask="url(#c)"><path fill="#F7FCFF" d="M5.83 20.01 4.605 21.6l-.057-2.007-1.926.567 1.134-1.657-1.89-.674 1.89-.674L2.622 15.5l1.926.566.057-2.006 1.225 1.59 1.225-1.59.057 2.006 1.925-.566-1.133 1.656 1.89.674-1.89.674 1.133 1.657-1.925-.567-.057 2.007zM5.801 8.14l-.64.83-.03-1.048-1.005.295.592-.865L3.73 7l.988-.351-.592-.866 1.006.296.03-1.048.639.83.64-.83.03 1.048 1.005-.296-.592.866.988.351-.988.352.592.865-1.006-.295-.03 1.048z"/><path fill="#F9FAFA" d="M5.666 7.895c2.226.009 3.413-1.254 3.413-1.254.235 1.44-1.578 2.4-3.392 2.4S2.776 7.734 2.1 6.64c0 0 1.34 1.245 3.566 1.254"/></g></g></g><defs><clipPath id="a"><path fill="#fff" d="M0 0h32v24H0z"/></clipPath></defs></svg>