<svg xmlns="http://www.w3.org/2000/svg" width="32" height="24" fill="none" viewBox="0 0 32 24"><g clip-path="url(#a)"><mask id="b" width="32" height="24" x="0" y="0" maskUnits="userSpaceOnUse" style="mask-type:luminance"><path fill="#fff" d="M32 0H0v24h32z"/></mask><g mask="url(#b)"><path fill="#fff" d="M32 0H0v24h32z"/><path fill="#2E42A5" fill-rule="evenodd" d="M0 0v24h32V0z" clip-rule="evenodd"/><mask id="c" width="32" height="24" x="0" y="0" maskUnits="userSpaceOnUse" style="mask-type:luminance"><path fill="#fff" fill-rule="evenodd" d="M0 0v24h32V0z" clip-rule="evenodd"/></mask><g mask="url(#c)"><path fill="#FECA00" fill-rule="evenodd" d="M0 16v8h32v-8z" clip-rule="evenodd"/><path fill="#fff" d="M-2.262 15.131 4.081 16.6l13.521-7.471 1.43-.837 12.844-6.716 3.043-2.12-6.96-.642-11.221 6.33-8.11 3.985z"/><path fill="#F50100" d="m-1.705 16.02 3.415 1.12L33.649-.812h-4.795z"/><path fill="#fff" d="m34.371 14.732.252 1.51-6.703.356-10.806-6.33-1.02.349L-4.08.412l8.33-1.603L15.386 4.96l8.711 4.21z"/><path fill="#F50100" d="m34.395 15.636-3.415 1.12-13.6-7.687-4.032-.859L-3.258-.54h4.795l16.597 8.543 4.408 1.03z"/><path fill="#fff" d="M13.189-1.25V-2.5h-1.25v1.25zm0 6V6h1.25V4.75zm-14.439 0V3.5H-2.5v1.25zm0 6.5H-2.5v1.25h1.25zm14.439 0h1.25V10h-1.25zm0 8h-1.25v1.25h1.25zm5.689 0v1.25h1.25v-1.25zm0-8V10h-1.25v1.25zm14.372 0v1.25h1.25v-1.25zm0-6.5h1.25V3.5h-1.25zm-14.372 0h-1.25V6h1.25zm0-6h1.25V-2.5h-1.25zm-2.5 6V6h1.25V4.75zm0-3.5h1.25V0h-1.25zm-.689 0V0h-1.25v1.25zm0 3.5h-1.25V6h1.25zm.689 2.5h1.25V6h-1.25zm-.689 0V6h-1.25v1.25zm.689 1.5V10h1.25V8.75zm-.689 0h-1.25V10h1.25zm-2.5-1.5h1.25V6h-1.25zm-11.939 0V6H0v1.25zm0 1.5H0V10h1.25zm11.939 0V10h1.25V8.75zm2.5 2.5V10h-1.25v1.25zm0 5.5h-1.25V18h1.25zm.689 0V18h1.25v-1.25zm0-5.5h1.25V10h-1.25zm2.5-4V6h-1.25v1.25zm0 1.5h-1.25V10h1.25zm11.872-1.5H32V6h-1.25zm0 1.5V10H32V8.75zM13.189 0h1.25v-2.5h-1.25zm1.25 0v-1.25h-2.5V0zm0 4.75V0h-2.5v4.75zM0 6h13.189V3.5H0zm-1.25 0H0V3.5h-1.25zM0 6V4.75h-2.5V6zm0 4V6h-2.5v4zm0 1.25V10h-2.5v1.25zM0 10h-1.25v2.5H0zm13.189 0H0v2.5h13.189zm1.25 8v-6.75h-2.5V18zm0 1.25V18h-2.5v1.25zm0-1.25h-1.25v2.5h1.25zm3.189 0h-3.189v2.5h3.189zm1.25 0h-1.25v2.5h1.25zm-1.25 0v1.25h2.5V18zm0-6.75V18h2.5v-6.75zM32 10H18.878v2.5H32zm1.25 0H32v2.5h1.25zM32 10v1.25h2.5V10zm0-4v4h2.5V6zm0-1.25V6h2.5V4.75zM32 6h1.25V3.5H32zM18.878 6H32V3.5H18.878zm-1.25-6v4.75h2.5V0zm0-1.25V0h2.5v-1.25zm0 1.25h1.25v-2.5h-1.25zm-3.189 0h3.189v-2.5h-3.189zm3.189 4.75v-3.5h-2.5v3.5zM16.378 0h-.689v2.5h.689zm-1.939 1.25v3.5h2.5v-3.5zM15.689 6h.689V3.5h-.689zm.689 0h-.689v2.5h.689zm1.25 2.75v-1.5h-2.5v1.5zM15.689 10h.689V7.5h-.689zm-1.25-2.75v1.5h2.5v-1.5zM13.189 6H1.25v2.5h11.939zM0 7.25v1.5h2.5v-1.5zM1.25 10h11.939V7.5H1.25zm13.189-1.25v-1.5h-2.5v1.5zm0 2.5v5.5h2.5v-5.5zm1.25 6.75h.689v-2.5h-.689zm1.939-1.25v-5.5h-2.5v5.5zM16.378 10h-.689v2.5h.689zm1.25-2.75v1.5h2.5v-1.5zM30.75 6H18.878v2.5H30.75zM32 8.75v-1.5h-2.5v1.5zM18.878 10H30.75V7.5H18.878z"/><path fill="#F50100" fill-rule="evenodd" d="M17.692-1.332h-3.384v7.333H0v4h14.308v9.334h3.384V10H34V6H17.692z" clip-rule="evenodd"/><path fill="#2E42A5" fill-rule="evenodd" d="M16.05 10.602a2.75 2.75 0 1 0 0-5.5 2.75 2.75 0 0 0 0 5.5" clip-rule="evenodd"/><path fill="#FECA00" fill-rule="evenodd" d="m16.1 8.693-1.298.903.458-1.513L14 7.127l1.58-.032.52-1.493.52 1.493 1.58.032-1.26.956.458 1.513zm-9-.117-1.082.753.382-1.261-1.05-.797 1.317-.026L7.1 6l.432 1.245 1.318.026-1.05.797.381 1.26zm18 0-1.082.753.382-1.261-1.05-.797 1.317-.026L25.1 6l.432 1.245 1.318.026-1.05.797.381 1.26zm-9-4.801-1.082.753.382-1.261-1.05-.796 1.317-.027.433-1.245.432 1.245 1.318.027-1.05.796.381 1.26zm0 10.602-1.082.752.382-1.26-1.05-.797 1.317-.027.433-1.244.432 1.244 1.318.027-1.05.796.381 1.261z" clip-rule="evenodd"/></g></g></g><defs><clipPath id="a"><path fill="#fff" d="M0 0h32v24H0z"/></clipPath></defs></svg>