<svg xmlns="http://www.w3.org/2000/svg" width="32" height="24" fill="none" viewBox="0 0 32 24"><g clip-path="url(#a)"><mask id="b" width="32" height="24" x="0" y="0" maskUnits="userSpaceOnUse" style="mask-type:luminance"><path fill="#fff" d="M32 0H0v24h32z"/></mask><g mask="url(#b)"><path fill="#fff" d="M32 0H0v24h32z"/><path fill="#2E42A5" fill-rule="evenodd" d="M0 0v24h32V0z" clip-rule="evenodd"/><mask id="c" width="18" height="14" x="0" y="0" maskUnits="userSpaceOnUse" style="mask-type:luminance"><path fill="#fff" d="M18 0H0v14h18z"/></mask><g mask="url(#c)"><path fill="#2E42A5" d="M18 0H0v14h18z"/><path fill="#F7FCFF" d="m-2.004 13 3.961 1.737L18.09 1.889l2.09-2.582-4.236-.58-6.58 5.536-5.297 3.73z"/><path fill="#F50100" d="m-1.462 14.216 2.018 1.008L19.429-.934h-2.833z"/><path fill="#F7FCFF" d="m20.005 13-3.961 1.737L-.09 1.889-2.18-.693l4.236-.58 6.58 5.536 5.297 3.73z"/><path fill="#F50100" d="m19.87 13.874-2.018 1.008-8.037-6.918-2.382-.773L-2.38-.684H.454l9.807 7.688 2.604.927z"/><path fill="#F50100" fill-rule="evenodd" d="M9.985 0h-2v6H0v2h7.985v6h2V8H18V6H9.985z" clip-rule="evenodd"/><path fill="#F7FCFF" fill-rule="evenodd" d="M6.485 0h5v4.5H18v5h-6.515L11.5 14h-5l-.015-4.5H0v-5h6.485zm1.5 6H0v2h7.985v6h2V8H18V6H9.985V0h-2z" clip-rule="evenodd"/></g><path fill="#F50100" fill-rule="evenodd" d="m24.1 7.471-.26 1.514 1.36-.714 1.36.714-.26-1.514L27.4 6.4l-1.52-.22-.68-1.38-.68 1.377L23 6.4zm-4 5.6-.26 1.514 1.36-.714 1.36.714-.26-1.514L23.4 12l-1.52-.22-.68-1.378-.68 1.377L19 12zm3.327 6.393-.337 1.964 1.763-.927 1.763.927-.336-1.964 1.426-1.39-1.971-.287-.882-1.786-.882 1.786-1.971.287zm3.412-4.883.26-1.512L26 11.997l1.518-.22.68-1.376.679 1.376 1.518.22-1.099 1.072.26 1.512-1.358-.714z" clip-rule="evenodd"/><path fill="#F7FCFF" d="m23.84 8.984-.197-.034-.068.4.358-.189zm.26-1.514.197.034.018-.104-.075-.073zm1.1.8.093-.178-.093-.049-.093.05zm1.36.714-.093.177.358.189-.068-.4zM26.3 7.47l-.14-.143-.075.073.018.104zm1.1-1.072.14.143.29-.283-.401-.058zm-1.52-.22-.18.088.047.094.104.015zM25.2 4.8l.18-.089-.18-.363-.18.363zm-.68 1.377.029.198.104-.015.047-.094zM23 6.398l-.029-.198-.4.058.29.283zm-3.16 8.186-.197-.034-.068.4.358-.189zm.26-1.514.197.034.018-.104-.075-.073zm1.1.8.093-.178-.093-.049-.093.05zm1.36.714-.093.177.358.189-.068-.4zm-.26-1.514-.14-.143-.075.073.018.104zm1.1-1.072.14.143.29-.283-.401-.058zm-1.52-.22-.18.088.047.094.104.015zM21.2 10.4l.18-.089-.18-.363-.18.363zm-.68 1.377.029.198.104-.015.047-.094zm-1.52.221-.029-.198-.4.058.29.283zm4.09 9.429-.197-.034-.069.4.359-.19zm.337-1.964.197.034.018-.104-.076-.073zm1.426 1.037.093-.177-.093-.05-.093.05zm1.764.927-.093.177.358.188-.068-.4zm-.337-1.964-.14-.143-.075.073.018.104zm1.426-1.39.14.143.29-.283-.4-.058zm-1.971-.287-.18.089.047.094.104.015zM24.853 16l.18-.089-.18-.363-.18.363zm-.881 1.786.028.198.104-.015.047-.094zM22 18.073l-.029-.198-.4.058.29.283zm5.099-5.006.197.034.018-.104-.076-.073zm-.26 1.513-.197-.034-.068.4.359-.19zM26 11.996l-.029-.198-.4.059.29.282zm1.519-.22.028.197.104-.015.047-.094zm.679-1.376.179-.089-.18-.363-.179.363zm.679 1.376-.18.088.047.094.104.015zm1.518.22.14.143.29-.282-.401-.059zm-1.099 1.071-.14-.143-.075.073.018.104zm.26 1.513-.093.177.358.188-.068-.4zm-1.358-.714.093-.178-.093-.048-.093.048zm-4.16-4.848.26-1.514-.395-.068-.26 1.514zm1.069-.926-1.36.715.186.354 1.36-.715zm1.546.715-1.36-.715-.186.354 1.36.715zm-.55-1.303.26 1.514.394-.068-.26-1.514zm1.157-1.25-1.1 1.073.28.286 1.1-1.072zm-1.409.121 1.52.22.058-.395-1.52-.22zm-.83-1.487.68 1.378.358-.177-.68-1.378zM24.7 6.266l.68-1.378-.36-.177-.68 1.378zm-1.671.33 1.52-.221-.058-.396-1.52.221zm1.21.731-1.1-1.072-.279.286 1.1 1.072zm-4.201 7.291.26-1.514-.395-.068-.26 1.514zm1.069-.926-1.36.715.186.354 1.36-.715zm1.546.715-1.36-.715-.186.354 1.36.715zm-.55-1.303.26 1.514.394-.068-.26-1.514zm1.157-1.25-1.1 1.073.28.286 1.1-1.072zm-1.409.121 1.52.22.058-.395-1.52-.22zm-.83-1.487.68 1.378.358-.177-.68-1.378zm-.321 1.378.68-1.378-.36-.177-.68 1.378zm-1.671.33 1.52-.221-.058-.396-1.52.221zm1.21.731-1.1-1.072-.279.286 1.1 1.072zm3.048 8.534.337-1.964-.394-.068-.337 1.964zm1.473-1.138-1.763.927.186.354 1.763-.927zm1.95.927-1.764-.927-.186.354 1.764.927zm-.627-1.753.337 1.963.394-.067-.337-1.964zm1.484-1.568-1.427 1.39.28.287 1.426-1.39zm-1.86.055 1.97.286.058-.395-1.971-.287zm-1.033-1.896.882 1.787.358-.177-.881-1.787zm-.523 1.787.882-1.787-.36-.177-.88 1.787zm-2.122.395L24 17.984l-.057-.396-1.972.287zm1.537 1.05-1.426-1.39-.28.286 1.427 1.39zm3.336-6.287-.26 1.513.395.067.259-1.512zm-1.042-.894 1.1 1.072.278-.287-1.098-1.071zm1.63-.561-1.519.22.058.396 1.518-.22zm.528-1.267-.679 1.376.359.177.679-1.376zm1.038 1.376-.679-1.376-.359.177.68 1.376zm1.368.111-1.518-.22-.058.396 1.518.22zm-.988 1.412 1.099-1.07-.28-.287-1.098 1.071zm.317 1.336-.26-1.513-.394.068.26 1.512zm-1.648-.503 1.358.714.186-.354-1.358-.715zm-1.172.714 1.358-.714-.186-.354-1.359.714z"/></g></g><defs><clipPath id="a"><path fill="#fff" d="M0 0h32v24H0z"/></clipPath></defs></svg>