<svg xmlns="http://www.w3.org/2000/svg" width="32" height="24" fill="none" viewBox="0 0 32 24"><g clip-path="url(#a)"><mask id="b" width="32" height="24" x="0" y="0" maskUnits="userSpaceOnUse" style="mask-type:luminance"><path fill="#fff" d="M32 0H0v24h32z"/></mask><g mask="url(#b)"><path fill="#fff" d="M32 0H0v24h32z"/><path fill="#F50101" fill-rule="evenodd" d="M0 0v24h32V0z" clip-rule="evenodd"/><mask id="c" width="32" height="24" x="0" y="0" maskUnits="userSpaceOnUse" style="mask-type:luminance"><path fill="#fff" fill-rule="evenodd" d="M0 0v24h32V0z" clip-rule="evenodd"/></mask><g mask="url(#c)"><path fill="#F7FCFF" fill-rule="evenodd" d="M0 0v8h32V0z" clip-rule="evenodd"/><path fill="#5EAA22" fill-rule="evenodd" d="M0 16v8h32v-8z" clip-rule="evenodd"/><path fill="#F50101" d="M12 0H0v24h12z"/><path fill="#F7FCFF" fill-rule="evenodd" d="M10.77 2.033c.01-.092-.107-.127-.153-.048-.363.617-1.273 2.083-2.77 4v-.917a17 17 0 0 0-.598-.573V3.58l.824-.745L6.94 2l-1.192.834.901.745v.916c0 .44-.546.573-.546.573l-.1.808c-1.393-1.808-2.262-3.219-2.63-3.85-.047-.08-.166-.042-.152.051.11.737.443 2.373 1.36 4.12h-.246v-.033a.087.087 0 0 0-.087-.087H2.14a.087.087 0 0 0-.087.087V7.49c0 .048.04.087.087.087h2.11a.087.087 0 0 0 .086-.087v-.697h.266c.09.208.296.355.538.359q.254.39.551.777c-.457-.045-3.478-.302-3.478.797 0 .656.735 1.003 1.656 1.183l-2.207 1.995c-.065.059-.014.16.072.14.72-.179 2.606-.729 4.402-1.954h.056c.505 0 .857-.22 1.102-.516 1.826 1.49 3.893 2.18 4.79 2.426.093.025.143-.095.064-.15a27 27 0 0 1-4.052-3.49l.044-.052q.513-.61.902-1.238a.6.6 0 0 0 .246-.277h.265v.697c0 .048.04.087.087.087h2.11a.087.087 0 0 0 .086-.087V6.164a.087.087 0 0 0-.087-.087H9.64a.1.1 0 0 0-.058.022 12.4 12.4 0 0 0 1.189-4.066M9.554 6.196v-.04l-.02.04zm-3.913.365a.487.487 0 0 1-.489.483.487.487 0 0 1-.489-.483c0-.268.22-.484.49-.484s.488.216.488.484m2.61 0c0 .267.218.483.488.483s.49-.216.49-.483a.487.487 0 0 0-.49-.484.486.486 0 0 0-.489.484" clip-rule="evenodd"/></g></g></g><defs><clipPath id="a"><path fill="#fff" d="M0 0h32v24H0z"/></clipPath></defs></svg>