<svg xmlns="http://www.w3.org/2000/svg" width="32" height="24" fill="none" viewBox="0 0 32 24"><g clip-path="url(#a)"><mask id="b" width="32" height="24" x="0" y="0" maskUnits="userSpaceOnUse" style="mask-type:luminance"><path fill="#fff" d="M32 0H0v24h32z"/></mask><g mask="url(#b)"><path fill="#fff" d="M32 0H0v24h32z"/><path fill="#F7FCFF" fill-rule="evenodd" d="M8 0h17v24H8z" clip-rule="evenodd"/><path fill="#F50101" fill-rule="evenodd" d="M24 0h8v24h-8zM0 0h8v24H0z" clip-rule="evenodd"/><path fill="#A2BB6A" d="m15.742 8.747.033.362c-.998.1-1.538-.387-1.538-1.4 0-1.005.528-1.539 1.52-1.545l.002.364c-.803.005-1.174.38-1.174 1.181 0 .794.359 1.118 1.157 1.038m.442 0-.034.362c.999.1 1.538-.387 1.538-1.4 0-1.005-.527-1.539-1.52-1.545l-.002.364c.804.005 1.174.38 1.174 1.181 0 .794-.358 1.118-1.156 1.038"/><path fill="#E31D1C" fill-rule="evenodd" d="M15.14 17.123c-.287.103-2.234 0-2.234 0v.542h1.29c.431 0 .594.077.743.148.127.06.244.115.506.115.51 0 .5-.38.493-.696l-.002-.11c0-.134.021-.208.037-.267.024-.085.038-.134-.037-.28-.126-.246-1.328-.213-1.328 0 0 .1.182.205.344.299.182.104.34.194.188.249m1.75 0c.286.103 2.233 0 2.233 0v.542h-1.29c-.431 0-.594.077-.743.148a1 1 0 0 1-.506.115c-.51 0-.5-.38-.493-.696l.002-.11c0-.134-.021-.208-.037-.267-.024-.085-.038-.134.037-.28.126-.246 1.329-.213 1.329 0 0 .1-.183.205-.345.299-.182.104-.34.194-.188.249" clip-rule="evenodd"/><path fill="#00A854" fill-rule="evenodd" d="M16.407 17.176s1.52-.15 1.863-.699c.343-.547.915-1.483 1.117-1.709.2-.227.214.323.214.323s.332.471.332-.13c0-.603-.236-.182-.546-1.088s-.485-1.794-.398-1.929c.087-.134.294.135.294 0v-.398l.318.398.332-.126s.273.585.441.767c.169.18.267-.243.218-.64-.05-.399-.66-.399-.66-.399s-.78-.42-.78-.596.338-.124.338-.124l-.103-.546s.278.332.412.166-.198-.456-.198-.456h.529v-.256l.244.137-.244-.558s-.717.108-.847 0-.54-.529-.54-.529v-.2h-.237l.236-.4v-.637l.859.17v-.47s1.208.588.99 1.063c-.217.474-.217 1.003-.217 1.003v.421s.037-.129.218-.129.388.094.388.385c0 .29.369-.12.369-.12v1.21s.087.131.276 0c.19-.13.107-.028-.463.738-.57.767-.365.769-.182.58.182-.187.922-.72.645-.454-.276.267-.294.826 0 .64.295-.185.238-.317.238 0 0 .318-.519 1.4-.701 1.57s-.353.273-.57.444c-.218.17-.462.371-.462.493 0 .123.462-.13.462-.13l-.218.776h.423s-.336 1.03-.998 1.03h-1.293c-.133 0-.734.284-.734.284l-.44.125s.701.067.938.277c.236.21 0 .357 0 .357s-.649-.064-1.133-.21c-.484-.147-.73.13-.73-.147z" clip-rule="evenodd"/><path fill="#C51918" fill-rule="evenodd" d="M20.783 8.908c0 .1-.078.182-.174.182a.18.18 0 0 1-.174-.182c0-.1.078-.181.174-.181s.174.081.174.181m-.87.728c0 .1-.078.181-.174.181a.18.18 0 0 1-.174-.181c0-.1.078-.182.174-.182s.174.081.174.182m.87-.182a.18.18 0 0 0 .174-.182c0-.1-.078-.182-.174-.182a.18.18 0 0 0-.174.182c0 .1.078.182.174.182m-.348 2.727c0 .1-.078.182-.174.182a.18.18 0 0 1-.174-.182c0-.1.078-.182.174-.182s.174.082.174.182m-.87 2.364a.18.18 0 0 0 .174-.182c0-.1-.077-.182-.174-.182a.18.18 0 0 0-.173.182c0 .1.078.182.174.182m1.392.363c0 .1-.078.182-.174.182a.18.18 0 0 1-.174-.182c0-.1.078-.181.174-.181s.174.081.174.181m.174-.181a.18.18 0 0 0 .174-.182c0-.1-.078-.182-.174-.182a.18.18 0 0 0-.174.182c0 .1.078.182.174.182m0-2.728c0 .1-.078.182-.174.182a.18.18 0 0 1-.174-.182c0-.1.078-.181.174-.181s.174.08.174.181" clip-rule="evenodd"/><path fill="#00A854" fill-rule="evenodd" d="M15.686 16.855s-2.764-.546-2.915-1.603c-.15-1.057-.149-2.183-.149-2.183l-.256.688s-.013-.936.513-1.604c.525-.668-.657.442-.657.442s.598-.944.848-1.034-1.002.592-1.002.592.358-.793.637-1.017-.637.425-.637.425.207-.786.455-.973c.248-.188-.81.973-.81.973s.558-1.795.872-1.963c.315-.168-.517.33-.517.33s.51-.769.966-1.15c.456-.382-.825.162-.668.162 0 0 .463-.523.73-.67s-1.028.507-1.028.507.928-1.024 1.207-1.175c.278-.15-1.367.814-1.367.814s.097-.447.138-.766c.041-.32-.762.875-.653 1.948.11 1.073-.437-.82-.437-.82s-.22.41.314 1.488l-.579-.812s.08.736.265 1.134-.526-.66-.526-.66-.137.66 0 .66c0 0 .812 1.086.842 1.402.03.317-.912-1.13-1.039-1.13s-.196.465 0 .465c.197 0 .568.665.568.665s-.483-.349-.586-.37c-.104-.02.081.208.215.37 0 0-.378.308-.35.541.03.234 1.03.283 1.466 1.39 0 0-.902-.476-1.116-.476s.345.497.526.662c.18.164-.278-.165-.402 0-.124.164.686.866.839.866h-.592s.198.279.471.279c.274 0 1.251.44 1.251.581 0 .143-.824-.182-.977-.182s1.076 1.16 1.729 1.204 1.065.22 1.347.22h.48l-1.33.678h.442c.577 0 1.018.16 1.245-.172s.227-.726.227-.726" clip-rule="evenodd"/><path fill="#E8AA00" fill-rule="evenodd" d="m16.087 8.907.041-.024v.047c.193.106.677.355.992.355.401 0 .946-.402.946-.402l.911 1.287s-.614 1.286-.144 2.858-.025 2.783-2.113 2.918c0 0-.412.078-.592.203v.115q-.001-.043-.041-.082-.04.039-.042.082v-.115c-.18-.125-.592-.203-.592-.203-2.088-.135-2.582-1.346-2.113-2.918.47-1.572-.144-2.859-.144-2.859l.911-1.286s.545.402.946.402c.315 0 .8-.249.992-.355v-.047z" clip-rule="evenodd"/><mask id="c" width="10" height="12" x="11" y="6" maskUnits="userSpaceOnUse" style="mask-type:luminance"><path fill="#fff" d="M20.177 6.883h-9v11h9z"/><path fill="#000" fill-rule="evenodd" d="m16.087 8.907.041-.024v.047c.193.106.677.355.992.355.401 0 .946-.402.946-.402l.911 1.287s-.614 1.286-.144 2.858-.025 2.783-2.113 2.918c0 0-.412.078-.592.203v.115q-.001-.043-.041-.082-.04.039-.042.082v-.115c-.18-.125-.592-.203-.592-.203-2.088-.135-2.582-1.346-2.113-2.918.47-1.572-.144-2.859-.144-2.859l.911-1.286s.545.402.946.402c.315 0 .8-.249.992-.355v-.047z" clip-rule="evenodd"/></mask><g mask="url(#c)"><path fill="#E8AA00" d="M16.128 8.881h1v-1.76l-1.512.902zm-.041.024-.493.87.493.28.493-.28zm.041.024h-1v.59l.517.285zm1.938-.048.816-.578-.59-.832-.82.606zm.911 1.287.903.43.253-.529-.34-.479zm-2.257 5.777-.064-.998-.062.004-.06.011zm-.592.203-.568-.823-.432.298v.525zm-.041.033.7-.714-.7-.687-.7.687zm-.042-.034h1v-.524l-.431-.298zm-.591-.202.186-.983-.06-.011-.062-.004zm-2.258-5.777-.816-.578-.339.48.253.529zm.912-1.287.594-.804-.82-.606-.59.832zm1.937.048.483.875.517-.285v-.59zm0-.048.512-.858-1.512-.902v1.76zm.083 0-.512-.858.001-.001-.003.002-.02.011.986 1.74.04-.023.013-.007.005-.003h.001l.001-.001zm1 .048V8.88h-2v.048zm-1.483.875c.114.063.32.172.555.268.203.083.556.212.92.212v-2c.043 0 .047.006 0-.006a2 2 0 0 1-.163-.058 4 4 0 0 1-.346-.167zm1.476.48c.468 0 .894-.211 1.098-.322a4 4 0 0 0 .426-.265l.009-.007.003-.002.002-.001c0-.001.001-.001-.593-.806l-.594-.804.002-.001v-.001q.002 0 0 0l-.006.005a2 2 0 0 1-.362.197c-.05.018-.04.007.015.007zm.129-.825.911 1.287 1.632-1.156-.91-1.287zm1.727.71c-.902-.431-.902-.431-.903-.43v.002l-.002.003-.004.008-.01.023-.03.068q-.035.083-.084.224a5.33 5.33 0 0 0-.069 3.246l1.916-.573a3.33 3.33 0 0 1 .084-2.13l.009-.019q0-.001 0 0l-.002.003-.001.002v.002zm-1.102 3.144c.198.66.119 1.014.015 1.178-.086.136-.355.4-1.234.456l.128 1.996c1.21-.078 2.232-.489 2.797-1.385.549-.868.482-1.907.21-2.818zm-1.155 2.632-.187-.983h-.002l-.002.001-.007.002q-.009 0-.021.004a4 4 0 0 0-.279.067c-.125.036-.42.122-.662.289l1.137 1.645c-.048.033-.07.038-.038.025q.038-.014.102-.033a2 2 0 0 1 .146-.035zm.408.318v-.116h-2v.116zm-1.741.632a.9.9 0 0 1-.259-.632h2c0-.407-.219-.676-.341-.796zm0-1.428c-.123.12-.342.389-.342.796h2c0 .35-.188.563-.258.632zm1.658.796v-.116h-2v.116zm-1.591-.318-.187.982h-.002.006a2 2 0 0 1 .243.068c.033.013.01.008-.037-.025l1.137-1.645a2.3 2.3 0 0 0-.663-.289 4 4 0 0 0-.278-.067l-.021-.005h-.007l-.003-.001h-.002zm-3.072-3.205c-.272.91-.338 1.95.21 2.818.566.896 1.588 1.307 2.797 1.385l.129-1.996c-.88-.057-1.148-.32-1.235-.456-.103-.164-.182-.517.016-1.178zm.814-2.572-.902.43-.002-.002v-.002l-.002-.002q0-.003 0 0l.008.018q.014.031.042.11c.036.105.084.266.12.468.075.405.1.954-.078 1.552l1.917.573a5.33 5.33 0 0 0-.183-3.538l-.01-.023-.004-.008-.002-.003v-.002s-.001-.001-.904.43m.095-1.864-.91 1.286 1.631 1.156.912-1.287zm1.762-.02c.055 0 .064.01.014-.007a1 1 0 0 1-.162-.074 2 2 0 0 1-.207-.128h.002v.001l.002.001-.594.804-.594.805.002.002.004.002.009.007.12.083c.075.049.181.115.306.183.204.11.63.32 1.098.32zm.51-.231a4 4 0 0 1-.346.167 1.4 1.4 0 0 1-.163.058c-.047.012-.043.006-.001.006v2c.364 0 .718-.13.92-.212a6 6 0 0 0 .555-.268zm1.482.876v-.05h-2v.048zm-1-.048-.512.86h.002l.001.001.004.003.013.007.04.023.987-1.74-.02-.011-.004-.002h.001z"/></g><mask id="e" width="9" height="10" x="12" y="7" maskUnits="userSpaceOnUse" style="mask-type:luminance"><path fill="#fff" fill-rule="evenodd" d="m16.087 8.907.041-.024v.047c.193.106.677.355.992.355.401 0 .946-.402.946-.402l.911 1.287s-.614 1.286-.144 2.858-.025 2.783-2.113 2.918c0 0-.412.078-.592.203v.115q-.001-.043-.041-.082-.04.039-.042.082v-.115c-.18-.125-.592-.203-.592-.203-2.088-.135-2.582-1.346-2.113-2.918.47-1.572-.144-2.859-.144-2.859l.911-1.286s.545.402.946.402c.315 0 .8-.249.992-.355v-.047z" clip-rule="evenodd"/><mask id="d" width="10" height="12" x="11" y="6" maskUnits="userSpaceOnUse" style="mask-type:luminance"><path fill="#fff" d="M20.177 6.883h-9v11h9z"/><path fill="#000" fill-rule="evenodd" d="m16.087 8.907.041-.024v.047c.193.106.677.355.992.355.401 0 .946-.402.946-.402l.911 1.287s-.614 1.286-.144 2.858-.025 2.783-2.113 2.918c0 0-.412.078-.592.203v.115q-.001-.043-.041-.082-.04.039-.042.082v-.115c-.18-.125-.592-.203-.592-.203-2.088-.135-2.582-1.346-2.113-2.918.47-1.572-.144-2.859-.144-2.859l.911-1.286s.545.402.946.402c.315 0 .8-.249.992-.355v-.047z" clip-rule="evenodd"/></mask><g mask="url(#d)"><path fill="#fff" d="M16.128 8.881h1v-1.76l-1.512.902zm-.041.024-.493.87.493.28.493-.28zm.041.024h-1v.59l.517.285zm1.938-.048.816-.578-.59-.832-.82.606zm.911 1.287.903.43.253-.529-.34-.479zm-2.257 5.777-.064-.998-.062.004-.06.011zm-.592.203-.568-.823-.432.298v.525zm-.041.033.7-.714-.7-.687-.7.687zm-.042-.034h1v-.524l-.431-.298zm-.591-.202.186-.983-.06-.011-.062-.004zm-2.258-5.777-.816-.578-.339.48.253.529zm.912-1.287.594-.804-.82-.606-.59.832zm1.937.048.483.875.517-.285v-.59zm0-.048.512-.858-1.512-.902v1.76zm.083 0-.512-.858.001-.001-.003.002-.02.011.986 1.74.04-.023.013-.007.005-.003h.001l.001-.001zm1 .048V8.88h-2v.048zm-1.483.875c.114.063.32.172.555.268.203.083.556.212.92.212v-2c.043 0 .047.006 0-.006a2 2 0 0 1-.163-.058 4 4 0 0 1-.346-.167zm1.476.48c.468 0 .894-.211 1.098-.322a4 4 0 0 0 .426-.265l.009-.007.003-.002.002-.001c0-.001.001-.001-.593-.806l-.594-.804.002-.001v-.001q.002 0 0 0l-.006.005a2 2 0 0 1-.362.197c-.05.018-.04.007.015.007zm.129-.825.911 1.287 1.632-1.156-.91-1.287zm1.727.71c-.902-.431-.902-.431-.903-.43v.002l-.002.003-.004.008-.01.023-.03.068q-.035.083-.084.224a5.33 5.33 0 0 0-.069 3.246l1.916-.573a3.33 3.33 0 0 1 .084-2.13l.009-.019q0-.001 0 0l-.002.003-.001.002v.002zm-1.102 3.144c.198.66.119 1.014.015 1.178-.086.136-.355.4-1.234.456l.128 1.996c1.21-.078 2.232-.489 2.797-1.385.549-.868.482-1.907.21-2.818zm-1.155 2.632-.187-.983h-.002l-.002.001-.007.002q-.009 0-.021.004a4 4 0 0 0-.279.067c-.125.036-.42.122-.662.289l1.137 1.645c-.048.033-.07.038-.038.025q.038-.014.102-.033a2 2 0 0 1 .146-.035zm.408.318v-.116h-2v.116zm-1.741.632a.9.9 0 0 1-.259-.632h2c0-.407-.219-.676-.341-.796zm0-1.428c-.123.12-.342.389-.342.796h2c0 .35-.188.563-.258.632zm1.658.796v-.116h-2v.116zm-1.591-.318-.187.982h-.002.006a2 2 0 0 1 .243.068c.033.013.01.008-.037-.025l1.137-1.645a2.3 2.3 0 0 0-.663-.289 4 4 0 0 0-.278-.067l-.021-.005h-.007l-.003-.001h-.002zm-3.072-3.205c-.272.91-.338 1.95.21 2.818.566.896 1.588 1.307 2.797 1.385l.129-1.996c-.88-.057-1.148-.32-1.235-.456-.103-.164-.182-.517.016-1.178zm.814-2.572-.902.43-.002-.002v-.002l-.002-.002q0-.003 0 0l.008.018q.014.031.042.11c.036.105.084.266.12.468.075.405.1.954-.078 1.552l1.917.573a5.33 5.33 0 0 0-.183-3.538l-.01-.023-.004-.008-.002-.003v-.002s-.001-.001-.904.43m.095-1.864-.91 1.286 1.631 1.156.912-1.287zm1.762-.02c.055 0 .064.01.014-.007a1 1 0 0 1-.162-.074 2 2 0 0 1-.207-.128h.002v.001l.002.001-.594.804-.594.805.002.002.004.002.009.007.12.083c.075.049.181.115.306.183.204.11.63.32 1.098.32zm.51-.231a4 4 0 0 1-.346.167 1.4 1.4 0 0 1-.163.058c-.047.012-.043.006-.001.006v2c.364 0 .718-.13.92-.212a6 6 0 0 0 .555-.268zm1.482.876v-.05h-2v.048zm-1-.048-.512.86h.002l.001.001.004.003.013.007.04.023.987-1.74-.02-.011-.004-.002h.001z"/></g></mask><g mask="url(#e)"><path fill="#67BAFF" d="M16.086 8.73h-2.782v3.819h2.782z"/><path fill="#fff" d="M18.87 8.73h-2.783v3.819h2.782z"/><path fill="#C51918" d="M19.913 12.914h-6.957v4.364h6.957z"/><path fill="#C9A951" d="M17.435 12.279h-.348V9.664h.348z"/><path fill="#C9A951" d="m17.293 11.09-.17.303-.6-.335.17-.304zm0-.727-.17.303-.6-.335.17-.304z"/><path fill="#C9A951" d="m17.219 11.09.17.303.6-.335-.17-.304zm0-.727.17.303.6-.335-.17-.304z"/><path fill="#FBCD17" fill-rule="evenodd" d="M17.73 13.706s.241-.276.241-.138 0 .371-.12.371c-.122 0-.685-.11-.9-.371-.215-.26-.67-.713-1.254-.607-.584.107-1.278.865-1.449.865-.17 0-.545.584-.273 1.04.273.457.737.315.737.447 0 .133.116.148.55.148s.594.153.97.153c.377 0-.124-.005.482-.153s1.065-.594.712-.594h-.712c-.245 0-.789.176-.789 0 0-.177.12-.554.455-.366.334.19 1.262.333 1.591 0 .329-.332.444-.533.387-.933-.058-.4-.508-.285-.508-.285z" clip-rule="evenodd"/><path fill="#D18219" fill-rule="evenodd" d="M15.376 9.574c-.21.184-.075.854-.418.854-.344 0-.827-.502-.95-.17-.12.33 0 .219 0 .501s-.29 1.066-.145 1.198c.146.133.295.482.27.318-.026-.163-.137-.403-.09-.664-.045-.269.245-.528.245-.528s-.032.28-.054.384c0 0-.096.21-.057.35 0 0 .098.394.139.421 0 0 .026-.933.056-1.086s.243.173.314.136c0 0 .024.638-.013.714 0 0-.075.15-.047.199 0 0 .07.174.129.124 0 0 .002-.004.032-.174 0 0-.035-.103.02-.336 0 0 .057-.515.08-.403 0 0-.01.243.018.368 0 0 .043.31.052.345 0 0 .21.299.215.173 0 0-.2-.24-.158-.423 0 0-.115-.517.046-.632 0 0 .427-.198.452-.536 0 0 .062-.385.073-.561 0 0-.093-.052.1-.143 0 0 .311-.12.117-.286" clip-rule="evenodd"/></g></g></g><defs><clipPath id="a"><path fill="#fff" d="M0 0h32v24H0z"/></clipPath></defs></svg>