<svg xmlns="http://www.w3.org/2000/svg" width="32" height="24" fill="none" viewBox="0 0 32 24"><g clip-path="url(#a)"><mask id="b" width="32" height="24" x="0" y="0" maskUnits="userSpaceOnUse" style="mask-type:luminance"><path fill="#fff" d="M32 0H0v24h32z"/></mask><g mask="url(#b)"><path fill="#fff" d="M32 0H0v24h32z"/><path fill="#F7FCFF" fill-rule="evenodd" d="M0 0v24h32V0z" clip-rule="evenodd"/><mask id="c" width="32" height="24" x="0" y="0" maskUnits="userSpaceOnUse" style="mask-type:luminance"><path fill="#fff" fill-rule="evenodd" d="M0 0v24h32V0z" clip-rule="evenodd"/></mask><g mask="url(#c)"><path fill="#BF2714" fill-rule="evenodd" d="M0 0v6h32V0zm0 18v6h32v-6z" clip-rule="evenodd"/><mask id="d" width="12" height="12" x="10" y="6" maskUnits="userSpaceOnUse" style="mask-type:luminance"><path fill="#fff" fill-rule="evenodd" d="M16 18a6 6 0 1 0 0-12 6 6 0 0 0 0 12" clip-rule="evenodd"/></mask><g mask="url(#d)"><path fill="#5277B9" fill-rule="evenodd" d="M10.549 13.765a.197.197 0 0 1 .286-.23l.374.217a.2.2 0 0 0 .182.008l.922-.432a.2.2 0 0 1 .199.019l.996.719 1.378-.742a.2.2 0 0 1 .172-.007l1.037.45a.2.2 0 0 0 .164-.003l.93-.448a.2.2 0 0 1 .159-.005l1.151.46c.052.02.11.018.16-.007l.892-.44a.2.2 0 0 1 .179.001l.818.429c.059.03.13.03.188-.003l.425-.242a.197.197 0 0 1 .287.222l-.088.335H10.645zm-.004 1.184a.197.197 0 0 1 .29-.227l.34.205a.2.2 0 0 0 .187.008l.877-.426a.2.2 0 0 1 .204.02l.956.715 1.324-.739a.2.2 0 0 1 .176-.007l.99.446a.2.2 0 0 0 .169-.004l.887-.443a.2.2 0 0 1 .163-.005l1.1.455c.054.022.114.02.165-.007l.85-.435a.2.2 0 0 1 .184.002l.777.422a.2.2 0 0 0 .194-.003l.39-.23c.15-.088.334.05.29.219l-.084.33H10.636zm.197.789a.197.197 0 0 1 .289-.226l.34.204a.2.2 0 0 0 .187.008l.877-.425a.2.2 0 0 1 .204.02l.956.714 1.324-.739a.2.2 0 0 1 .176-.007l.99.446a.2.2 0 0 0 .169-.004l.887-.443a.2.2 0 0 1 .164-.005l1.1.455c.053.022.113.02.165-.007l.85-.435a.2.2 0 0 1 .183.002l.778.422c.06.033.134.032.193-.003l.39-.23a.197.197 0 0 1 .29.22l-.084.328H10.832zm1.18.785a.197.197 0 0 1 .29-.226l.34.204a.2.2 0 0 0 .187.008l.877-.425a.2.2 0 0 1 .204.02l.956.714 1.324-.738a.2.2 0 0 1 .176-.008l.99.446a.2.2 0 0 0 .169-.004l.887-.442a.2.2 0 0 1 .163-.006l1.1.455c.054.022.114.02.165-.006l.85-.436a.2.2 0 0 1 .184.002l.777.422a.2.2 0 0 0 .194-.003l.39-.23a.197.197 0 0 1 .29.22l-.084.328H12.013zm-1.574.984a.197.197 0 0 1 .29-.226l.34.204a.2.2 0 0 0 .187.009l.877-.426a.2.2 0 0 1 .204.02l.956.715 1.323-.739a.2.2 0 0 1 .177-.008l.99.446a.2.2 0 0 0 .168-.003l.888-.443a.2.2 0 0 1 .163-.006l1.1.456c.053.022.114.02.165-.007l.85-.436a.2.2 0 0 1 .183.002l.778.422c.06.033.134.032.194-.003l.39-.229a.197.197 0 0 1 .29.219l-.085.329H10.44z" clip-rule="evenodd"/><path fill="red" d="M14.422 14.137v1c-.844 0-1.441-.518-1.732-1.439l-.023-.15V9.445h1v4.022c.167.48.401.67.755.67m2.77 0v1c.845 0 1.442-.518 1.732-1.439l.024-.15V9.445h-1v4.022c-.167.48-.401.67-.756.67"/><path fill="red" fill-rule="evenodd" d="M16.725 6.909s-1.659-.434-1.659.666v3.462L17 11.61V8.78s-.967-.59-.967-1.053.692-.82.692-.82" clip-rule="evenodd"/><path stroke="#000" d="m13.934 12.888.63-.806m-.055.78-.605-.811m.935.837.63-.806m-.055.78-.604-.811m.894.837.63-.806m-.054.78-.605-.811m.935.837.63-.806m-.056.78-.604-.811m.935.837.63-.806m-.055.78-.605-.811"/><path fill="#FA8F21" fill-rule="evenodd" d="m13.455 7.093 1.196 2.339.148-2.339-.148-.46zm-.6 1.996-.862-.914.862-1.028 1.812 2.897v.737l-.871-.737V9.09zm-1.898.704 1.572.753.123-1.163-1.31-1.119zm1.652 1.931-2.07-.211v-1.46l2.07.796zm-2.125 1.434-.246-1.241 2.332.116v1.125zm3.283-2.04v-.7l.873.7-.095.37zm8.114.799-.246 1.24H19.55v-1.124zm-2.37-.193 2.068-.211v-1.46l-2.069.796zm1.652-1.93-1.573.752-.123-1.163 1.31-1.119zm-1.899-.705.862-.914-.862-1.028-1.812 2.897v.737l.871-.737V9.09zm-.6-1.996-1.196 2.339-.148-2.339.148-.46zm-.312 4.026v-.7l-.872.7.094.37z" clip-rule="evenodd"/></g></g></g></g><defs><clipPath id="a"><path fill="#fff" d="M0 0h32v24H0z"/></clipPath></defs></svg>