<svg xmlns="http://www.w3.org/2000/svg" width="32" height="24" fill="none" viewBox="0 0 32 24"><g clip-path="url(#a)"><mask id="b" width="32" height="24" x="0" y="0" maskUnits="userSpaceOnUse" style="mask-type:luminance"><path fill="#fff" d="M32 0H0v24h32z"/></mask><g mask="url(#b)"><path fill="#fff" d="M32 0H0v24h32z"/><path fill="#E11C1B" d="M30 0H2a2 2 0 0 0-2 2v20a2 2 0 0 0 2 2h28a2 2 0 0 0 2-2V2a2 2 0 0 0-2-2"/><path fill="#1D1D1D" fill-rule="evenodd" d="m0 0 32 24H0z" clip-rule="evenodd"/><path fill="#EEEEF6" fill-rule="evenodd" d="M7.083 18.267h1.332l.633-1.494.745 1.484 1.364.074-1.166 1.27.599 1.529-1.482-.852-1.37.86.517-1.486zm-4-4h1.332l.633-1.494.745 1.484 1.364.074-1.166 1.27.599 1.529-1.482-.852-1.37.86.517-1.486zm4-2h1.332l.633-1.494.745 1.484 1.364.074-1.166 1.27.599 1.529-1.482-.852-1.37.86.517-1.485z" clip-rule="evenodd"/><path fill="#EEEEF6" fill-rule="evenodd" d="m9.71 16.564.916-.03.33-.944.372.939.842.08-.758.537.611.95-1.06-.397-.92.41.485-.937zm2-2 .916-.03.33-.944.372.939.842.08-.758.537.611.95-1.06-.397-.92.41.485-.937z" clip-rule="evenodd"/><path fill="#FBCD17" fill-rule="evenodd" d="M21.084 2s-3.089.616-2.222 4.91h-.44s.035-.224-.388-.356c-.424-.13-.34-.082-.558 0s-1.548 0-1.548 0v.165l.94.406s-.022.339.371.526c.394.188.68.278.68.278s.058.374-.311.374-1.852-.48-2.38.7C14.702 10.184 14 11.051 14 11.051h.79l-.211.264h.89l-.24.136s1.101-.012 1.187-.136 0 .337 0 .337 1.067-.487 1.126-.601l.498.342.142-.579.535.237.145-.551s1.512 2.529 2.659 2.384v-.42l1.046.42.133-.187s1.265.516 1.654.563l-.278-.563h.278l-.278-1.045h.278l-.555-.838.155-.226-.103-.298s2.036.648 1.944 1.68c-.092 1.031-.998 1.448-.998 1.448s-.87.266-1.655.209c0 0 .623.736 1.942.486s1.756-1.528 1.756-1.528.605 1.256.107 1.917c-.498.66-2.714 1.124-2.714 1.124s.802.47 1.562.35c.76-.121 1.943-.783 2.172-1.863s-.79-3.072-1.253-3.299l-.183-.69.416.166-.852-2.085.413.09-1.206-1.5.332-.102-1.666-1.197.498-.132s-1.231-.624-2.636.132l.013-.261-.369.062.022-.287.367-.556-.55-.212s.444-.67.378-.66c0 0-.497.142-.468.083 0 0 .25-.645.184-.628 0 0-.576.196-.49.098l.22-.394z" clip-rule="evenodd"/></g></g><defs><clipPath id="a"><path fill="#fff" d="M0 0h32v24H0z"/></clipPath></defs></svg>