<svg xmlns="http://www.w3.org/2000/svg" width="32" height="24" fill="none" viewBox="0 0 32 24"><g clip-path="url(#a)"><mask id="b" width="32" height="24" x="0" y="0" maskUnits="userSpaceOnUse" style="mask-type:luminance"><path fill="#fff" d="M32 0H0v24h32z"/></mask><g mask="url(#b)"><path fill="#fff" d="M32 0H0v24h32z"/><path fill="#BF2714" fill-rule="evenodd" d="M0 0v24h32V0z" clip-rule="evenodd"/><mask id="c" width="32" height="24" x="0" y="0" maskUnits="userSpaceOnUse" style="mask-type:luminance"><path fill="#fff" fill-rule="evenodd" d="M0 0v24h32V0z" clip-rule="evenodd"/></mask><g mask="url(#c)"><path fill="#3D58DB" fill-rule="evenodd" d="M0-2v14h32V-2z" clip-rule="evenodd"/></g><path fill="#F7FCFF" fill-rule="evenodd" d="M0 0v24l18-12z" clip-rule="evenodd"/><mask id="d" width="18" height="24" x="0" y="0" maskUnits="userSpaceOnUse" style="mask-type:luminance"><path fill="#fff" fill-rule="evenodd" d="M0 0v24l18-12z" clip-rule="evenodd"/></mask><g fill="#FECA00" fill-rule="evenodd" clip-rule="evenodd" mask="url(#d)"><path d="m13.605 10.92 1.276.493.759-.893.02 1.194 1.174.382-1.236.42.082 1.098-.814-.841-1.28.243.755-.969zm-12 6 1.173.52.862-.92-.083 1.22 1.277.356-1.339.446.185 1.072-.933-.766-1.161.168.652-.942zm0-12 1.298.48.737-.88.042 1.18 1.152.396-1.214.406.06 1.112-.808-.806-1.286.208.777-.982zm6.516 9.615a2.5 2.5 0 1 0 0-5 2.5 2.5 0 0 0 0 5"/><path d="m7.826 8.24.134 1.606a.224.224 0 0 0 .443.007l.177-1.6a.38.38 0 1 0-.754-.013m-.418.776.207.698c.02.065.084.106.158.093a.11.11 0 0 0 .083-.135l-.166-.701a.16.16 0 0 0-.195-.116.13.13 0 0 0-.087.16m1.123.728c-.017.06.018.12.084.138a.133.133 0 0 0 .154-.088l.232-.69a.13.13 0 0 0-.097-.169.16.16 0 0 0-.183.114zm2.077-.703L9.49 10.276a.224.224 0 0 0 .307.318l1.335-1.01a.381.381 0 1 0-.524-.543m-.34 2.62 1.669-.129a.381.381 0 1 1-.013.754l-1.664-.182a.224.224 0 0 1 .008-.443m.866 2.659-1.296-1.13a.224.224 0 0 0-.319.308l1.072 1.345q.017.023.036.043a.381.381 0 1 0 .507-.567m-2.682-.351.099 1.685a.381.381 0 1 1-.754-.013l.212-1.68a.224.224 0 0 1 .443.008m-2.631.91 1.101-1.34a.224.224 0 0 0-.307-.318l-1.318 1.116a.381.381 0 1 0 .524.543m.324-2.726-1.68.139a.381.381 0 1 1 .013-.755l1.674.174a.224.224 0 0 1-.008.442m-.995-2.63 1.424 1.1a.224.224 0 0 0 .319-.307l-1.2-1.318a.38.38 0 1 0-.543.524m4.189.416.347-.64a.13.13 0 0 1 .19-.044c.067.048.085.14.041.211l-.378.613a.11.11 0 0 1-.154.036.135.135 0 0 1-.046-.176m1.758 1.17-.698.208a.135.135 0 0 0-.092.157c.014.06.074.097.134.083l.701-.166a.16.16 0 0 0 .116-.195.13.13 0 0 0-.16-.087m-.923 1.931.641.347a.13.13 0 0 1 .043.19.16.16 0 0 1-.21.042l-.614-.379a.11.11 0 0 1-.036-.154.135.135 0 0 1 .176-.046M9.004 14.8l-.207-.699a.135.135 0 0 0-.157-.092.11.11 0 0 0-.084.134l.166.702a.16.16 0 0 0 .195.116.13.13 0 0 0 .087-.161m-1.93-.923-.348.64a.13.13 0 0 1-.19.044.16.16 0 0 1-.041-.212l.378-.613a.11.11 0 0 1 .154-.036.136.136 0 0 1 .046.177m-1.76-1.17.7-.208a.135.135 0 0 0 .091-.157.11.11 0 0 0-.134-.083l-.701.165a.16.16 0 0 0-.116.195.13.13 0 0 0 .16.088m.924-1.931-.641-.348a.13.13 0 0 1-.043-.189.16.16 0 0 1 .21-.042l.614.379a.11.11 0 0 1 .036.153.135.135 0 0 1-.176.046m3.727-.168c-.053.03-.072.099-.038.158.037.057.11.076.171.046l.653-.324a.13.13 0 0 0 .05-.188.16.16 0 0 0-.21-.05zm.266 1.71c.018-.066.08-.101.139-.085l.695.19a.16.16 0 0 1 .109.199.13.13 0 0 1-.164.081l-.69-.232a.134.134 0 0 1-.089-.153m-.724 1.35a.113.113 0 0 0-.159-.038.133.133 0 0 0-.046.17l.325.653a.13.13 0 0 0 .187.05.16.16 0 0 0 .05-.21zm-1.71.265c.066.018.1.08.085.139l-.19.695a.16.16 0 0 1-.2.109.13.13 0 0 1-.08-.164l.23-.69a.133.133 0 0 1 .155-.089m-1.35-.724c.053-.03.072-.099.038-.158a.133.133 0 0 0-.171-.047l-.653.325a.13.13 0 0 0-.05.188.16.16 0 0 0 .21.049zm-.266-1.71c-.018.066-.08.101-.139.085l-.695-.19a.16.16 0 0 1-.109-.2.13.13 0 0 1 .164-.08l.691.231a.133.133 0 0 1 .088.154m.725-1.35c.03.053.098.072.158.038a.133.133 0 0 0 .046-.171l-.324-.653a.13.13 0 0 0-.188-.05.16.16 0 0 0-.05.21z"/></g></g></g><defs><clipPath id="a"><path fill="#fff" d="M0 0h32v24H0z"/></clipPath></defs></svg>