<svg xmlns="http://www.w3.org/2000/svg" width="32" height="24" fill="none" viewBox="0 0 32 24"><g clip-path="url(#a)"><mask id="b" width="32" height="24" x="0" y="0" maskUnits="userSpaceOnUse" style="mask-type:luminance"><path fill="#fff" d="M32 0H0v24h32z"/></mask><g mask="url(#b)"><path fill="#fff" d="M32 0H0v24h32z"/><path fill="#2F8D00" fill-rule="evenodd" d="M8 0h24v24H8z" clip-rule="evenodd"/><path fill="#F7FCFF" fill-rule="evenodd" d="M0 0h8v24H0z" clip-rule="evenodd"/><path fill="#F1F9FF" fill-rule="evenodd" d="M22.43 15.305s-4.467 1.164-8.011-1.211c-3.545-2.375-1.763-7.848-1.763-7.848-1.849.27-4.753 7.015-.072 10.398 4.68 3.384 9.164.132 9.845-1.34m-4.956-6.44-2.372 1.16 2.502.445.338 2.445 1.417-2.082 2.788.188-2.184-1.63 1.163-2.175-2.175.995-1.615-1.518z" clip-rule="evenodd"/></g></g><defs><clipPath id="a"><path fill="#fff" d="M0 0h32v24H0z"/></clipPath></defs></svg>