<svg xmlns="http://www.w3.org/2000/svg" width="32" height="24" fill="none" viewBox="0 0 32 24"><g clip-path="url(#a)"><mask id="b" width="32" height="24" x="0" y="0" maskUnits="userSpaceOnUse" style="mask-type:luminance"><path fill="#fff" d="M32 0H0v24h32z"/></mask><g mask="url(#b)"><path fill="#fff" d="M32 0H0v24h32z"/><path fill="#C00" d="M8 0H0v8h8z"/><path fill="#08672F" d="M8 1.04V0h-.978L0 6.96V8h.978z"/><path fill="#08672F" d="M0 1.04V0h.978L8 6.96V8h-.998z"/><path fill="#fff" d="M0 3.01 7.999 3 8 4.99.001 5z"/><path fill="#fff" d="M3 .001 4.99 0 5 7.999 3.01 8zM0 8h8v8H0z"/><path fill="#000" fill-rule="evenodd" d="M6.559 9.057c0-.033.004-.068.01-.081.014-.032.041-.03.053.002a1 1 0 0 1 .018.134.8.8 0 0 0 .085.314c.038.077.068.12.161.235l.05.061-.093-.003a.5.5 0 0 1-.11-.011c-.014-.008-.018 0-.023.047-.004.061-.032.11-.075.134-.025.015-.034.014-.057-.003A.22.22 0 0 1 6.5 9.75c-.008-.042-.01-.045-.03-.034a.5.5 0 0 1-.186.008.5.5 0 0 1 .057-.076.9.9 0 0 0 .217-.591M1.07 11.952a.2.2 0 0 1 .033-.078c.029-.039.054-.048.04-.015a.16.16 0 0 0 .02.158.22.22 0 0 1 .02.202c-.03.063-.094.065-.133.003q-.048-.074-.007-.177a1 1 0 0 0 .027-.093m3.667-.061a.2.2 0 0 1 .033-.078c.029-.039.054-.047.04-.015a.16.16 0 0 0 .02.158.22.22 0 0 1 .02.202c-.03.063-.094.066-.133.003q-.048-.074-.007-.177a1 1 0 0 0 .027-.093m-1.852.037a.2.2 0 0 1 .032-.078c.03-.038.054-.047.04-.015a.16.16 0 0 0 .02.158.22.22 0 0 1 .021.202c-.03.063-.094.066-.134.003q-.046-.073-.006-.177a1 1 0 0 0 .027-.093m3.5.26c-.05.037-.103.046-.143.024q-.047-.024-.008.029a.14.14 0 0 0 .07.043 1 1 0 0 1 .098.034q.1.042.17-.003c.09-.061.03-.167-.091-.165a.15.15 0 0 0-.096.037m.266.124a.3.3 0 0 0-.01.081.9.9 0 0 1-.216.591.5.5 0 0 0-.056.076c0 .012.164.006.186-.008.02-.01.022-.007.029.034.01.057.04.111.077.137.023.016.032.017.057.003.043-.024.07-.073.075-.135.005-.046.01-.055.024-.047a.5.5 0 0 0 .11.011l.092.004-.05-.061a1 1 0 0 1-.16-.236.8.8 0 0 1-.086-.313 1 1 0 0 0-.018-.134c-.011-.032-.039-.034-.054-.003m-3.591-.087a.14.14 0 0 0-.051.039c-.06.088.081.18.18.12.108-.066.111-.067.163-.049.044.015.047.015.037-.004-.018-.036-.045-.052-.152-.09-.123-.041-.127-.041-.177-.016m-.561.06c.04.022.093.013.143-.024a.15.15 0 0 1 .096-.038c.121-.002.18.104.09.165q-.068.046-.17.003a1 1 0 0 0-.098-.034.14.14 0 0 1-.07-.043q-.038-.054.009-.028m.41.1a.3.3 0 0 0-.01.082.9.9 0 0 1-.217.591.5.5 0 0 0-.057.076.5.5 0 0 0 .186-.008c.02-.011.022-.008.03.034.01.057.04.111.076.136.024.017.033.018.058.003.043-.023.07-.072.075-.134.005-.047.009-.055.023-.047.01.004.06.01.11.01l.092.004-.05-.06a1 1 0 0 1-.16-.236.8.8 0 0 1-.085-.314 1 1 0 0 0-.018-.134c-.012-.032-.04-.034-.054-.002m2.003-.197a.14.14 0 0 0-.05.038c-.06.088.08.181.18.121.107-.066.11-.067.163-.05.044.015.046.015.037-.003-.018-.036-.046-.052-.153-.09-.122-.041-.127-.041-.177-.016m-.561.06c.04.022.093.013.143-.025a.15.15 0 0 1 .096-.037c.122-.002.18.104.09.165q-.068.045-.17.003a1 1 0 0 0-.098-.034.14.14 0 0 1-.07-.043q-.038-.054.009-.028m.41.1a.3.3 0 0 0-.01.082.9.9 0 0 1-.217.59.5.5 0 0 0-.056.077c0 .012.164.005.186-.008.02-.011.022-.008.029.034.01.057.04.11.077.136.023.017.032.018.057.003.043-.023.07-.073.075-.135.005-.046.01-.055.024-.046a.5.5 0 0 0 .11.01l.091.004-.049-.061a1 1 0 0 1-.16-.235.8.8 0 0 1-.086-.314 1 1 0 0 0-.018-.134c-.011-.032-.039-.034-.054-.003m-3.516-.1a.14.14 0 0 0-.05.04c-.06.087.08.18.18.12.107-.066.11-.068.163-.05.044.015.046.015.037-.004-.018-.035-.046-.051-.153-.089-.122-.042-.127-.041-.177-.017m1.579-3.2a.3.3 0 0 0-.01.082.9.9 0 0 1-.216.591.5.5 0 0 0-.057.076c0 .012.164.006.186-.008.02-.01.022-.007.03.034.009.057.04.111.076.137.023.016.032.017.057.002.044-.023.071-.072.076-.134.004-.047.009-.055.023-.047.01.005.06.01.11.011l.092.003-.05-.06a1 1 0 0 1-.16-.236.8.8 0 0 1-.086-.313 1 1 0 0 0-.017-.134c-.012-.032-.04-.034-.054-.003m1.843.045a.2.2 0 0 1 .01-.081c.014-.031.041-.03.053.002a1 1 0 0 1 .018.135.8.8 0 0 0 .085.313c.038.077.068.12.16.235l.05.061-.092-.003a.5.5 0 0 1-.11-.011c-.014-.008-.018 0-.023.047-.004.062-.032.111-.075.134-.025.015-.034.014-.058-.002a.22.22 0 0 1-.076-.137c-.008-.041-.01-.045-.03-.034a.5.5 0 0 1-.186.008c0-.005.026-.038.057-.076a.9.9 0 0 0 .217-.591m-3.638-.02a.3.3 0 0 0-.01.08 1 1 0 0 1-.061.328l.004.366c.01.056.04.11.076.136.024.016.033.018.058.003.043-.024.07-.073.075-.135.005-.046.009-.055.023-.047.01.005.06.01.11.012l.092.003-.05-.061a1 1 0 0 1-.16-.235.8.8 0 0 1-.085-.314 1 1 0 0 0-.018-.134c-.012-.032-.039-.034-.054-.003m4.696 4.522a.2.2 0 0 1 .033-.077c.028-.039.054-.048.04-.015a.16.16 0 0 0 .02.158.22.22 0 0 1 .02.201c-.03.064-.094.066-.134.004q-.046-.074-.006-.177a1 1 0 0 0 .027-.094m.175.297a.14.14 0 0 0-.05.04c-.06.087.08.18.18.12.107-.066.11-.068.162-.05.044.015.047.015.038-.004-.019-.035-.046-.051-.153-.089-.123-.042-.127-.041-.177-.017m-.561.061c.04.022.093.013.143-.025a.15.15 0 0 1 .096-.037c.121-.002.18.104.09.165q-.068.045-.17.003a1 1 0 0 0-.098-.034.14.14 0 0 1-.07-.043q-.038-.053.009-.029m.43.091a.3.3 0 0 0-.01.08.9.9 0 0 1-.217.587.5.5 0 0 0-.057.075.5.5 0 0 0 .186-.008c.02-.011.022-.008.03.034.01.056.04.11.076.135.024.016.032.017.057.003.044-.024.071-.072.076-.134.004-.046.009-.054.023-.046.01.004.06.01.11.01l.092.004-.05-.06a1 1 0 0 1-.16-.233.8.8 0 0 1-.086-.311 1 1 0 0 0-.017-.133c-.012-.032-.04-.034-.054-.003m-3.787-.375a.2.2 0 0 1 .032-.078c.03-.039.054-.047.04-.015a.16.16 0 0 0 .02.158.22.22 0 0 1 .02.202c-.029.063-.093.066-.133.003q-.047-.074-.006-.177a1 1 0 0 0 .027-.093m.175.297a.14.14 0 0 0-.051.039c-.06.087.08.18.18.12.108-.066.111-.067.163-.05.044.016.046.016.037-.003-.018-.036-.046-.052-.153-.09-.122-.041-.126-.041-.176-.016m-.562.06c.04.022.094.013.144-.025a.15.15 0 0 1 .095-.037c.122-.002.18.104.09.165-.043.03-.103.032-.169.003a1 1 0 0 0-.098-.034.14.14 0 0 1-.07-.043q-.039-.054.008-.028m.43.092a.3.3 0 0 0-.009.08.9.9 0 0 1-.216.586.5.5 0 0 0-.057.075c0 .012.164.006.186-.008.02-.01.022-.007.029.034.01.056.04.11.077.135.023.016.032.018.057.003.043-.023.071-.072.075-.133.005-.046.01-.055.024-.047a.5.5 0 0 0 .11.011l.092.003-.05-.06a1 1 0 0 1-.16-.233.8.8 0 0 1-.086-.31 1 1 0 0 0-.018-.134c-.011-.031-.038-.033-.053-.002m1.809-.486a.2.2 0 0 1 .032-.078c.03-.039.054-.047.04-.015a.16.16 0 0 0 .02.158.22.22 0 0 1 .021.202c-.03.063-.094.066-.134.003q-.047-.074-.006-.177a1 1 0 0 0 .027-.093m.175.297a.14.14 0 0 0-.05.038c-.06.088.08.181.18.121.107-.066.11-.067.162-.05.044.015.047.015.038-.004-.019-.035-.046-.051-.153-.088-.123-.042-.127-.042-.177-.018m-.561.06c.04.022.093.013.143-.025a.15.15 0 0 1 .096-.037c.121-.002.18.104.09.165q-.068.045-.17.003a1 1 0 0 0-.098-.034.14.14 0 0 1-.07-.043q-.037-.053.009-.029m.43.092a.3.3 0 0 0-.01.08.9.9 0 0 1-.217.586.5.5 0 0 0-.056.075c0 .012.164.006.186-.008.02-.01.022-.007.029.034.01.056.04.11.077.135.023.016.032.017.057.003.043-.023.07-.072.075-.134.005-.046.01-.054.023-.046.01.005.06.01.11.011l.092.003-.049-.06a1 1 0 0 1-.16-.233.8.8 0 0 1-.086-.31 1 1 0 0 0-.018-.134c-.011-.031-.039-.033-.053-.002m1.782-3.866a.2.2 0 0 1 .033-.078c.029-.038.054-.047.04-.014a.16.16 0 0 0 .02.157.22.22 0 0 1 .02.202c-.03.064-.094.066-.133.004q-.048-.074-.007-.178a1 1 0 0 0 .027-.093m.175.297a.14.14 0 0 0-.05.039c-.06.088.08.18.18.12.107-.066.11-.067.162-.049.045.015.047.015.038-.004-.019-.035-.046-.052-.153-.089-.123-.042-.127-.042-.177-.017m-.561.06c.04.023.093.014.143-.024a.15.15 0 0 1 .096-.038c.121-.002.18.104.09.165q-.068.046-.17.003a1 1 0 0 0-.098-.034.14.14 0 0 1-.07-.042q-.038-.054.009-.03m.41.1a.3.3 0 0 0-.01.082.9.9 0 0 1-.217.591.5.5 0 0 0-.057.076c0 .012.165.006.187-.008.02-.01.021-.007.029.034.01.057.04.111.077.137.023.016.032.017.057.002.043-.023.07-.072.075-.134.005-.047.01-.055.023-.047.01.005.06.01.11.011l.092.003-.049-.06a1 1 0 0 1-.16-.236.8.8 0 0 1-.086-.313 1 1 0 0 0-.018-.135c-.011-.032-.039-.033-.054-.002m-3.767-.383a.2.2 0 0 1 .032-.078c.03-.039.054-.047.04-.015a.16.16 0 0 0 .02.158.22.22 0 0 1 .02.202c-.029.063-.093.065-.133.003q-.047-.074-.006-.177a1 1 0 0 0 .027-.093m.175.296a.14.14 0 0 0-.051.04c-.06.087.08.18.18.12.108-.066.111-.067.163-.05.044.015.046.015.037-.004-.018-.035-.046-.051-.153-.089-.122-.041-.126-.041-.176-.017m-.562.061c.04.022.094.013.144-.025a.15.15 0 0 1 .095-.037c.122-.002.18.104.091.165-.044.03-.104.031-.17.003a1 1 0 0 0-.098-.034.14.14 0 0 1-.07-.043q-.039-.053.008-.029m.41.1a.3.3 0 0 0-.01.081.9.9 0 0 1-.216.592.5.5 0 0 0-.057.076.5.5 0 0 0 .186-.008c.02-.011.022-.008.03.034.01.056.04.11.076.136.024.017.032.018.057.003.044-.024.071-.073.076-.135.004-.046.009-.055.023-.046.01.004.06.01.11.01l.092.004-.05-.061a1 1 0 0 1-.16-.235.8.8 0 0 1-.086-.314 1 1 0 0 0-.017-.134c-.012-.032-.04-.034-.054-.003m1.829-.495a.2.2 0 0 1 .033-.077c.028-.039.054-.048.04-.015a.16.16 0 0 0 .019.158.22.22 0 0 1 .021.201c-.03.064-.094.066-.134.004q-.046-.074-.006-.177a1 1 0 0 0 .027-.094m.175.297a.14.14 0 0 0-.05.04c-.06.087.08.18.18.12.107-.066.11-.068.162-.05.044.015.047.015.038-.004-.019-.035-.046-.051-.153-.089-.123-.041-.127-.041-.177-.017m-.561.061c.04.022.093.013.143-.025a.15.15 0 0 1 .096-.037c.121-.002.18.104.09.165q-.068.045-.17.003a1 1 0 0 0-.098-.034.14.14 0 0 1-.07-.043q-.038-.053.009-.029m.41.1a.3.3 0 0 0-.01.081.9.9 0 0 1-.217.592.5.5 0 0 0-.057.075c0 .012.165.006.187-.008.02-.01.021-.007.029.034.01.057.04.111.077.137.023.016.032.017.057.003.043-.024.07-.073.075-.135.005-.046.009-.055.023-.047.01.005.06.01.11.011l.092.004-.049-.061a1 1 0 0 1-.16-.235.8.8 0 0 1-.086-.314 1 1 0 0 0-.018-.134c-.012-.032-.039-.034-.054-.003m-2.712 1.789c0-.032.004-.068.01-.081.014-.031.042-.03.053.003a1 1 0 0 1 .018.134.8.8 0 0 0 .085.313c.038.077.068.12.161.235l.05.062-.093-.004a.5.5 0 0 1-.11-.01c-.014-.009-.018 0-.023.046-.004.062-.032.111-.075.135-.025.014-.034.013-.057-.003a.22.22 0 0 1-.077-.137l-.004-.366a1 1 0 0 0 .062-.327" clip-rule="evenodd"/><path fill="#C00" d="M0 24h8v-8H0z"/><path fill="#0092C8" d="M8 0h24v24H8z"/><path fill="#FFCF00" stroke="#650000" stroke-width="0.1" d="M2.475 17.767c-.08-.097-.001-.274.07-.198-.038-.073.023-.13.05-.094-.012-.059.046-.098.075-.044-.01-.065.076-.104.098-.032.002-.064.086-.115.105-.02.016-.074.11-.083.118.02.028-.06.098-.056.102.032.03-.041.11.02.096.093.049-.011.108.093.049.17.105-.06.13.132.066.219.033.021.036.003.065.018a.5.5 0 0 0 .13.054c.045 0 .205-.005.238-.01.033-.006.078-.024.131-.043.056-.02.138-.02.212-.039.058-.007 1.707.028 1.755.023s.116-.053.113-.112-.059-.101-.113-.106a3 3 0 0 0-.387.005.35.35 0 0 0-.16.075c-.018.011-.047.056-.072.086-.023.02-.088.023-.088-.003 0-.018-.005.003-.02.01-.022.014-.115.017-.11 0 .006-.02-.001-.026-.026-.005a.3.3 0 0 1-.17.006c.013-.025.013-.024-.025-.003-.025.011-.127.02-.134-.002 0-.017-.012-.009-.027-.004-.115.032-.126-.005-.108-.02.019-.017.046-.108.017-.103-.03.006-.212.043-.274.054-.062.01-.51 0-.572-.006-.062-.005-.132-.067-.135-.154-.007-.14.102-.176.167-.197s.23-.053.296-.053.253.024.304.003.206-.08.25-.085c.065-.007.25.017.338.128-.046.022-.067.035-.015.015.047-.01.25-.055.298-.067.164-.007.121.02.041.04-.027.09-.268.216-.345.232s-.239.005-.275-.002c-.037-.003-.21-.012-.272-.055a.8.8 0 0 0-.372-.119c-.076.002-.296.026-.295.107-.001.141.204.149.292.143.087-.005.306-.016.368-.042a.9.9 0 0 1 .27-.033c.072 0 .179.017.212.011.033-.005.11-.006.146-.033a.37.37 0 0 1 .196-.054c.08 0 .676-.024.756-.019.116 0 .198.133.2.247 0 .053-.024.132-.045.144.036.003.126.014.156.02.056.012.146.077.157.136a.4.4 0 0 0-.173-.072c-.012 0-1.312-.003-1.415-.002.278.035.49.26.544.39.047.079.164.047.208.036.043-.01.094-.058.13-.095.037-.038.094-.047.12-.038.057-.005.067.059.045.09-.022.033.004.02.062.02a.17.17 0 0 1 .144.07c-.033.033-.05.007-.002.012s.105.097.07.123c-.031.016-.04.01 0 .015.06.006.076.047.084.119-.051.01-.026-.007 0 .02.025.026.062.144-.03.149-.032-.016-.032-.02-.025.017s-.011.126-.062.126c-.07.015-.135-.026-.142-.074-.008-.048-.007.092-.107.114-.095.023-.145-.034-.152-.06-.008-.027-.004-.006-.04-.012-.037-.005-.083-.005-.103-.069 0-.037.007-.086.072-.093.03-.005.038-.045.016-.05s-.004-.086.044-.064c.047.021.156.026.182.053.026.026.033-.021-.007-.064s-.285-.128-.35-.096c-.153.081-.41.07-.453.059-.044-.01-.17.018-.23-.176a.43.43 0 0 0-.316-.306c-.414-.041-.391-.01-.123.003-.002.037-.012.113.032.124.073-.01.225-.044.261-.012s.073.058.066.133c-.007.074.004.053-.03.085-.032.032-.017.096.034.117.05.021.073.048.105.08.033.032-.014.096-.043.074-.03-.021-.03-.021-.033.021s-.04.124-.102.13c-.013-.006-.01-.028-.008-.044.004-.038-.012.046-.031.07-.012.015-.115.045-.145.03.013-.034.006-.02-.02-.004-.025.01-.16.03-.1-.038.016-.024-.02.031-.04.04-.018.012-.098.019-.098-.013-.025.023-.085.023-.095.005-.018-.021-.02.016-.052.021-.033.006-.105-.005-.108-.048-.004-.042.007-.015-.033-.01-.098.068-.146-.027-.146-.059s-.004-.069.007-.09-.068-.028-.043-.07c.027-.051.055-.089.109-.08.026.006.022-.01.011-.031s.03-.032.077-.01c.047.02.08.074.094.122.015.048.128.01.176.016.047.005.05-.08.021-.107s-.109-.122-.142-.154-.01-.144.018-.17c.17-.121.077-.16.015-.15a.66.66 0 0 0-.272.137c-.052.058-.448.345-.485.377s-.09.04-.111.003c-.022-.038-.037-.01-.033.042.029.201-.142.265-.172.263a.15.15 0 0 1-.073-.034c-.021.113-.115.124-.2.113-.002-.013.015-.038.006-.029-.028.039-.114.035-.189.029-.005-.023.026-.052.011-.036-.025.05-.067.04-.137.035 0-.01.032-.045.017-.024-.03.035-.094.024-.143.025-.006-.008.026-.063-.003-.027-.027.031-.085.037-.14.028-.01-.026.011-.026.017-.043.015-.026-.007 0-.025 0s-.044.006-.055-.021-.005.027-.015.041c-.01.013-.023.042-.06.053-.036.01-.13.021-.145-.027-.02-.022-.03-.069-.015-.096s-.07.052-.106.059c-.107.022-.12-.154-.073-.17.048-.016.04-.043.015-.064s-.04-.107-.007-.133.109-.042.157-.01c.028.02.088.09.076.036-.008-.032.013-.074.036-.092.02-.02.083-.024.1.018.038.098.065.14.112.138.101-.029.238-.062.278-.062.051-.013.324-.04.324-.067-.163.06-.23-.018-.248-.013-.018.006-.063-.017-.063-.032 0-.032.041-.028-.017-.017-.035-.003-.066-.005-.096-.043-.004-.02.04-.088.055-.144-.038-.011-.121.06-.148.123-.02-.024-.027-.002-.096.016a.15.15 0 0 1-.114-.007c-.029-.016-.143-.107-.088-.119-.014-.007-.031-.011-.042-.015-.04-.018-.078-.053-.067-.062-.01-.017.012-.017-.004-.02-.022-.005-.076-.046-.062-.062-.014-.01-.047-.025-.06-.032-.026-.016-.052-.072-.055-.098-.024.002-.074-.045-.051-.059-.039-.03-.071-.08-.046-.095-.022-.019-.038-.053-.022-.04-.023-.03-.016-.062.002-.062s.011-.085-.022-.085-.085.027-.124 0c-.031-.025-.058-.138-.03-.186.03-.048.088-.101.118-.096s.014.016.007-.032.041-.084.073-.096c.038-.018.113-.005.135.016s.03.022.03-.016c0-.026.027-.04.052-.046.042-.01.075.002.09.02.022.034.036.074.007.106-.03.032-.004.005.043-.006.03-.01.086.003.095.038.013.037.022.101-.01.133-.033.032-.08.112-.055.139.025.026.105.143.124.16.018.015.04.052.069.047s.062-.01.088-.016c.1-.021.147-.033.017-.028.029-.044.09-.056.116-.064-.023-.037.064-.116.064-.126Zm0 2.898c-.08-.097-.001-.273.07-.198-.038-.072.023-.13.05-.093-.012-.06.046-.098.075-.044-.01-.066.076-.104.098-.032.002-.065.086-.116.105-.021.016-.073.11-.083.118.02.028-.06.098-.055.102.032.03-.04.11.02.096.093.049-.01.108.093.049.17.105-.06.13.132.066.22.033.02.036.002.065.018s.082.042.13.054c.045 0 .205-.006.238-.011s.078-.024.131-.043c.056-.019.138-.02.212-.038.058-.008 1.707.028 1.755.022.047-.005.116-.053.113-.111-.004-.06-.059-.101-.113-.107a3 3 0 0 0-.387.006.35.35 0 0 0-.16.074c-.018.012-.047.057-.072.087-.023.02-.088.023-.088-.004 0-.017-.005.004-.02.01-.022.014-.115.018-.11 0 .006-.02-.001-.025-.026-.005a.3.3 0 0 1-.17.006c.013-.025.013-.023-.025-.003-.025.012-.127.02-.134-.001 0-.018-.012-.01-.027-.004-.115.032-.126-.005-.108-.021s.046-.108.017-.102l-.274.053c-.062.01-.51 0-.572-.005a.16.16 0 0 1-.135-.155c-.007-.14.102-.175.167-.197.066-.02.23-.053.296-.053s.253.025.304.003c.051-.02.206-.08.25-.085.065-.006.25.017.338.129-.046.022-.067.035-.015.015.047-.01.25-.055.298-.067.164-.008.121.019.041.04-.027.09-.268.216-.345.232s-.239.004-.275-.003c-.037-.003-.21-.012-.272-.055a.8.8 0 0 0-.372-.118c-.076.001-.296.026-.295.106-.001.142.204.15.292.144.087-.006.306-.016.368-.043a.9.9 0 0 1 .27-.033c.072 0 .179.017.212.012s.11-.007.146-.033a.37.37 0 0 1 .196-.055c.08 0 .676-.024.756-.018.116-.001.198.133.2.246 0 .053-.024.132-.045.144.036.004.126.015.156.021.056.012.146.077.157.136a.4.4 0 0 0-.173-.073l-1.415-.002c.278.035.49.26.544.39.047.08.164.047.208.037s.094-.059.13-.096.094-.047.12-.037c.057-.006.067.058.045.09s.004.02.062.02a.17.17 0 0 1 .144.07c-.033.032-.05.006-.002.011.048.006.105.097.07.123-.031.016-.04.01 0 .016.06.005.076.046.084.119-.051.01-.026-.007 0 .02.025.026.062.144-.03.148-.032-.016-.032-.019-.025.017.007.038-.011.127-.062.127-.07.014-.135-.027-.142-.075-.008-.047-.007.093-.107.115-.095.022-.145-.035-.152-.061-.008-.027-.004-.006-.04-.011s-.083-.006-.103-.07c0-.037.007-.086.072-.092.03-.006.038-.046.016-.05-.022-.006-.004-.086.044-.065.047.021.156.027.182.053.026.027.033-.02-.007-.063s-.285-.128-.35-.096c-.153.08-.41.069-.453.058-.044-.01-.17.019-.23-.175a.43.43 0 0 0-.316-.307c-.414-.041-.391-.01-.123.004-.002.037-.012.113.032.124.073-.01.225-.045.261-.013s.073.059.066.133.004.053-.03.085c-.032.032-.017.096.034.117.05.022.073.048.105.08.033.032-.014.096-.043.075-.03-.022-.03-.022-.033.021s-.04.123-.102.129c-.013-.005-.01-.027-.008-.044.004-.037-.012.046-.031.07-.012.015-.115.046-.145.03.013-.034.006-.02-.02-.004-.025.01-.16.03-.1-.037.016-.025-.02.03-.04.04-.018.011-.098.018-.098-.014-.025.024-.085.024-.095.006-.018-.022-.02.016-.052.02-.033.006-.105-.004-.108-.047s.007-.016-.033-.01c-.098.068-.146-.027-.146-.06 0-.031-.004-.068.007-.09.011-.02-.068-.027-.043-.07.027-.05.055-.088.109-.079.026.006.022-.01.011-.032-.011-.02.03-.031.077-.01s.08.074.094.122c.015.048.128.01.176.016.047.005.05-.08.021-.106-.029-.027-.109-.123-.142-.155s-.01-.143.018-.17c.17-.121.077-.16.015-.149a.66.66 0 0 0-.272.136c-.052.059-.448.346-.485.378s-.09.04-.111.002c-.022-.037-.037-.01-.033.043.029.2-.142.265-.172.262a.15.15 0 0 1-.073-.033c-.021.112-.115.123-.2.112-.002-.013.015-.038.006-.028-.028.038-.114.034-.189.028-.005-.023.026-.052.011-.035-.025.049-.067.04-.137.035 0-.01.032-.046.017-.025-.03.035-.094.024-.143.025-.006-.008.026-.063-.003-.026-.027.03-.085.036-.14.028-.01-.026.011-.027.017-.043.015-.027-.007 0-.025 0s-.044.005-.055-.021-.005.026-.015.04c-.01.013-.023.043-.06.053-.036.011-.13.022-.145-.026-.02-.022-.03-.07-.015-.096.015-.027-.07.051-.106.059-.107.021-.12-.155-.073-.17.048-.017.04-.043.015-.065-.026-.02-.04-.106-.007-.133.033-.026.109-.041.157-.01.028.02.088.09.076.037-.008-.033.013-.074.036-.092.02-.02.083-.025.1.017.038.098.065.14.112.139.101-.03.238-.062.278-.062.051-.013.324-.041.324-.068-.163.06-.23-.017-.248-.012s-.063-.017-.063-.032c0-.032.041-.028-.017-.018-.035-.003-.066-.005-.096-.043-.004-.02.04-.087.055-.144-.038-.01-.121.06-.148.124-.02-.024-.027-.002-.096.015a.15.15 0 0 1-.114-.006c-.029-.016-.143-.108-.088-.12-.014-.007-.031-.011-.042-.014-.04-.018-.078-.053-.067-.063-.01-.016.012-.016-.004-.02-.022-.005-.076-.046-.062-.062-.014-.01-.047-.024-.06-.032-.026-.016-.052-.071-.055-.098-.024.003-.074-.044-.051-.058-.039-.03-.071-.08-.046-.096-.022-.018-.038-.052-.022-.04-.023-.03-.016-.061.002-.061s.011-.085-.022-.085-.085.026-.124 0c-.031-.026-.058-.139-.03-.187.03-.048.088-.1.118-.096.029.006.014.017.007-.031s.041-.084.073-.096c.038-.019.113-.006.135.016s.03.021.03-.016c0-.026.027-.04.052-.047.042-.01.075.002.09.02.022.034.036.075.007.107-.03.032-.004.005.043-.006.03-.01.086.003.095.038.013.037.022.1-.01.133-.033.032-.08.111-.055.138s.105.144.124.16c.018.016.04.053.069.047l.088-.015c.1-.022.147-.033.017-.029.029-.043.09-.056.116-.064-.023-.037.064-.115.064-.126Z"/><path fill="#FFCF00" fill-rule="evenodd" d="M19.491 2.248c.387-.097 1.011-.128 1.346-.07.067.013.188.024.31.036.198.018.396.037.367.064-.07.067-.308.701-.308.824 0 .044 1.574 1.137 1.64 1.137.088 0 .22.159.184.22a2 2 0 0 1-.215.22c-.097.09-.254.563-.405 1.088.056-.077.158-.156.343-.281.229-.154 2.256-1.692 2.845-2.159.066-.048-.101-.08-.449-.075a3.8 3.8 0 0 0-.874.12c-.469.116-.818-.248-.968-.404a1 1 0 0 0-.066-.064c-.131-.088-.32-.361-.32-.462 0-.023.127-.005.294.04.387.11.73.105 1.17-.01a3.4 3.4 0 0 1 1.261-.07l.058.01q.118.019.163.02c.028.19.218.81.254.838.07.061 1.622.674 1.741.687.176.022.246.093.246.242 0 .146-.18.282-.435.33-.299.058-1.046.922-1.57 1.812-.351.599-.545 1.044-.545 1.26 0 .22.132 1.061.268 1.7.084.38.106.445.15.383.048-.061.18-.07 1.06-.07h1.01l.344-.595c.189-.33.338-.608.33-.612a20 20 0 0 0-1.14-.093 43 43 0 0 1-1.134-.083c-.004-.01.211-.41.48-.895l.488-.88.993.167.31.052c.417.07.754.126.807.137.097.018.132 0 .211-.137a1 1 0 0 0 .055-.121v.02c-.012.286-.04 1.007-.35 1.604l-.76 1.45v1h-.176a1 1 0 0 0-.176.008c0 .006.015.089.035.205v.002l.031.176c.035.203.053.34.04.358-.014.022-.128.04-.251.04l-.229.004-.127.334c-.224.498-.8 1.428-1.288 2.075l-.106.137.246.114c.348.159.708.538.946.996.184.361.193.388.193.771 0 .375-.101.855-.184.86l-1.063.163-.485.074c-.835.128-1.539.225-1.57.216-.092-.035-.312-.405-.386-.648l-.029-.089a4 4 0 0 0-.064-.193c-.009-.035-.18.027-.532.207a7.2 7.2 0 0 1-1.776.64 7.77 7.77 0 0 1-4.313-.265c-.422-.154-1.28-.577-1.75-.868-.813-.502-1.147-.797-2.506-2.22-.44-.459-.554-.551-.853-.701-.303-.15-.391-.172-.655-.172-.246 0-.312-.013-.365-.084-.11-.154-.066-.334.145-.563 0 0 .066-.148.044-.163l-.515-.335c-.396-.203 1.038-2.59 1.632-3.216.29-.309.303-.326.303-.538 0-.423.269-1.256.554-1.74.132-.22.146-.26.102-.361-.084-.186 0-.291.536-.675 1.064-.762 1.684-1.229 1.701-1.282.031-.097-.43-.061-.787.062-.712.251-1.354.308-1.662.15-.14-.07-.356-.317-.356-.41 0-.013.145-.013.326 0 .133.01.108-.21.085-.401a2 2 0 0 1-.015-.18c0-.062.004-.11.013-.11.004 0 .062.02.138.048l.047.018c.312.11.787.083 1.394-.084.299-.084.677-.163.835-.18 0 0 .897-.168.765-.027-.07.075-.145.264-.215.533a9 9 0 0 0-.106.423l.135.027c.178.037.51.105.885.18.668.136 1.06.198 1.156.18.167-.035.273.036.273.181 0 .123-.088.198-.44.361a4 4 0 0 0-.55.335c-.36.273-1.01.952-1.288 1.348-.228.326-.228.326-.228.666 0 .37.088.934.202 1.321l.07.243.123-.33c.172-.472.392-.895.678-1.292.197-.273.233-.348.175-.37-.092-.035 0-.392.08-.44.079-.049.606-.516 1.169-1.044l1.02-.96v-.256c0-.247.004-.256.136-.282a2 2 0 0 1 .3-.027c.127-.004.206-.048.421-.242.141-.132.246-.256.224-.273-.017-.018-.193-.044-.39-.049-.287-.013-.48.013-.937.12-.646.153-.963.167-1.262.065-.207-.07.101-.194.295-.246 0 0-.458-.789-.387-.767.606.185.857.194 1.38.062m10.314 4.207c-.009-.023-.011.016-.015.099.016-.044.022-.08.015-.099m-3.926-4.07c-.016-.018-.018.003-.012.048.04 0 .042-.013.012-.049m-3.53 3.6c-.193.694-.36 1.404-.36 1.404l.153-.335c.084-.185.207-.938.207-1.053zm.393-1.587-.004-.003zm-.004-.003c-.091-.058-1.607-1.125-1.607-1.125l-.053.176c-.05.165 1.24.757 1.582.913q.062.03.078.036m-5.709-.35c.923.19.941.194.77.243l-.442.125-.539.152-.853.238.031-.119c.097-.405.211-.797.233-.797.018 0 .374.07.8.158m-1.539.89.088-.317c.053-.172.101-.34.11-.37.013-.027.013-.053.009-.053-.013 0-1.438 1.044-1.473 1.075-.009.013.114-.018.281-.062.168-.048.458-.132.642-.18zm6.424 2.652-.11.362a9 9 0 0 0-.295 1.44c-.044.353-.079.454-.229.7a3 3 0 0 0-.215.415c-.117.27-.13.078-.15-.538a7.7 7.7 0 0 1 .163-1.96c.093-.419.66-.78.721-.652zM16.37 9.015c.035-.15.022-.242-.066-.502-.132-.393-.242-.9-.246-1.155.008-.439-.037-.468-.203-.048-.281.63-.343.903-.343 1.555 0 .357.022.67.057.78.049.167.07.19.185.19h.132v.55c0 .458-.009.55-.066.55-.092 0-.083.05.048.362.211.507 1.32 1.687 1.21 1.471-.361-.744-.88-2.255-.796-3.097.026-.26.066-.56.088-.656m9.426.802c.057.224.057.264-.022.493l-.028.083c-.052.157-.132.397-.227.503-.207.23-.211.234-.264.137-.211-.401-.29-1.419-.158-2.11.057-.305.281-1.115.307-1.115.01 0 .036.163.066.361.058.405.229 1.278.326 1.648M12.874 8.416l.286.973s-.391-.815-.4-.898zm2.572 1.379c0 .022-.18.04-.4.04h-.4l-1.094.016c.007-.028.313-.154.669-.3l.216-.09c.411.021.819.048.86.1.083.11.15.216.15.234m-1.009-.334-.165-.008c-.358-.018-.682-.035-.72-.064l1.283-.26.49-.1c-.018.064-.453.252-.888.432m-.815 1.475-.286-.45c0-.365-.018-.498-.097-.683-.052-.127-.122-.28-.14-.28a7 7 0 0 0-.142.514 65 65 0 0 1-.197.744l-.33 1.208.132.048c.075.027.334.163.576.308.246.146.48.265.519.265.14 0 .158-.18.07-.555a4 4 0 0 1-.096-.732zm7.962.365a4.9 4.9 0 0 0 .571 1.494c.137.238.242.44.233.45-.044.039-.492.11-.532.087-.061-.04-.307-.572-.474-1.03-.19-.516-.36-1.23-.33-1.362.013-.062.11-.282.211-.489l.18-.374.035.431c.018.238.062.595.106.793m3.504.062c.009-.075-.04-.119-.211-.207-.229-.115-.84.26-.84.26.14.291.523.797.624.797.027 0 .198-.132.387-.295.365-.317.405-.423.172-.445-.119-.013-.14-.03-.132-.11m-.55.96-.114.08c-.154.106-1.165.603-1.187.586-.009-.009.101-.405.237-.881l.215-.309c.044.085.17.115.3.147.113.028.229.056.294.122zm-2.013.79c.017-.023.136-.367.264-.759.123-.396-.282-.092-.335.265-.03.233.014.55.07.493m-4.792-.79a6 6 0 0 1-.22.608c-.018.023-.11 0-.207-.048-.145-.075-.18-.119-.229-.313-.052-.216-.052-.233.058-.423.14-.238.347-.4.58-.458.237-.057.25-.057.229.005-.01.022-.062.179-.13.386zm1.437.635a3.8 3.8 0 0 1-.312-.815c-.061-.3-.092-.366-.171-.388-.176-.048-.194-.026-.308.357l-.142.457v.003l-.082.263-.106.339.449.092c.241.049.545.106.672.12l.229.026zm.488-.833.457.22-.202.23a1.6 1.6 0 0 0-.277.431c-.04.11-.083.216-.1.234-.08.088-.572-1.058-.572-1.326 0-.093.162-.04.694.211m1.416 1.322c.277-.022.527-.04.55-.04.087-.008-.559-.498-1.043-.793a3 3 0 0 0-.316-.18c-.009 0-.097.088-.194.194-.197.211-.334.458-.373.67l-.027.136.449.026c.246.013.677.005.954-.013" clip-rule="evenodd"/><path fill="#000" d="m20.837 2.177.049-.245-.007-.001zm.677.101-.169-.184-.003.002zM23.03 4.46l.208.139.005-.007.005-.008zm-.215.22-.169-.184-.001.001zm-.405 1.088-.24-.069.443.215zm3.188-2.44-.148-.202-.007.006zm-2.291-.36.18-.173-.004-.004zm0 0-.18.174.004.004zm-.092-.486.069-.24-.005-.002zm1.17-.009-.062-.242h-.002zm1.261-.07.04-.247-.01-.001zm.475.868.165-.188-.009-.007zm1.741.687.031-.248h-.003zm-2.035 5.344-.245.052v.002zm.149.383-.197-.154-.007.01zm2.07-.07v.25h.145l.072-.125zm.673-1.207-.176.177.028.028.036.018zm-2.273-.176-.223.111.037.075.074.037zm.968-1.776.041-.246-.174-.03-.086.155zm2.11.357-.05.245h.005zm.211-.137.216.126.003-.005zm-.295 1.503.222.116v-.001zm-.76 1.45-.222-.117-.028.055v.061zm0 1v.25h.25v-.25zm-.317.215-.246.043v.002zm0 0 .247-.039v-.006zm0 0-.247.04.003.01zm0 0 .247-.043-.002-.007zm.07.534-.2-.15-.007.01-.007.012zm-.25.04v-.25h-.005zm-.229.004-.004-.25-.169.003-.06.158zm-.127.334.228.103.003-.007.003-.007zm-1.288 2.075.198.153.001-.002zm-.106.137-.198-.153-.19.248.283.132zm.246.114-.105.227h.002zm.946.996.222-.114zm.009 1.63-.014-.25-.024.002-.024.006zm-3.118.454-.089.234.01.003.01.003zm-.386-.648.238-.073v-.003zm-.029-.089.238-.076v-.003zm0 0 .237-.08-.003-.008zm0 0-.239.076.005.012zm-.064-.193-.242.06.004.02.008.019zm-.532.207.112.224.002-.001zm-6.089.375-.086.235h.001zm-5.109-3.789.112-.223-.001-.001zm-1.02-.255-.203.145.003.004zm.145-.564.184.169.028-.03.017-.038zm-.471-.498.136-.21-.01-.007-.012-.006zm1.632-3.216.181.172.001-.001zm.857-2.278-.214-.129-.001.002zm.102-.361.229-.1-.002-.003zm2.237-1.957.238.08V3.97zm-.787.062-.082-.236zm-1.662.15.115-.222-.002-.002zm.19-1.053.088-.234h-.002zm.048.017-.086.235.003.001zm2.229-.264.028.249.009-.001.009-.002zm.55.507.24.065.001-.002zm-.106.423h-.25v.25h.25zm1.02.207.05-.245h-.001zm1.156.18.045.247.007-.002zm-.167.542-.105-.226h-.002zM16.422 6.35l.177.177.016-.015.012-.018zm0 0-.176-.176-.016.015-.012.018zm-.026 1.987.24-.07zm.07.243-.24.07.21.725.265-.708zm.123-.33.235.087v-.002zm3.122-4.107.171.182.079-.074v-.108zm.136-.537-.043-.247-.006.001zm.3-.027v.25h.008zm.421-.242.168.186.003-.004zm.224-.273-.176.176.01.01.01.009zm-.39-.049-.012.25h.006zm-.937.12-.056-.244h-.002zm-.967-.181.066.24.313-.085-.163-.28zm-.387-.767-.075.239h.002zm11.694 4.27.235-.089-.003-.006zM25.88 2.383l.192-.16-.005-.006-.005-.006zM21.99 7.39l-.244-.057.47.161zm.36-1.405.25.002-.49-.068zm-.207 1.07.227.105.001-.002zm.207-1.053L22.099 6v.002zm.393-1.603.177-.177-.026-.026-.033-.018zm-1.61-1.128.143-.205-.284-.2-.1.333zm1.528 1.09-.104.227.004.001zm0 0 .104-.228-.004-.002zM17.8 4.288l-.069-.24-.006.002zm-.98.278.066.24h.001zm-.854.238-.242-.063-.109.42.418-.116zm.031-.119.242.063.001-.005zm-.418-.066-.239-.074-.002.007zm-.088.317.066.241.137-.037.038-.137zm.198-.687-.224-.112-.01.02-.006.023zM14.224 5.27l-.165-.188-.024.022-.019.027zm.281-.062.064.242.006-.002zm.642-.18.064.241h.002zm6.657 2.92-.24-.072v.002zm.11-.36.239.072.029-.094-.044-.089zm-.634 2.502-.213-.13-.003.004zm-.215.414.23.1.005-.013.004-.013zm-.15-.538.25-.008v-.003zm.163-1.96-.244-.054v.001zm.721-.652-.225.108v.002zm-5.43 1.66-.243-.056v.002zm-.311-1.656-.25-.005v.01zm-.203-.048.229.102.004-.01zm-.286 2.335.24-.07-.001-.006zm.317.19h.25v-.25h-.25zm-.018 1.462.231-.096V11.2zm1.21 1.471-.226.11.003.004zm8.696-2.458.235.083.001-.001zm.022-.493.242-.062v-.002zm-.277 1.08.185.166h.001zm-.264.136-.221.116.001.003zm.215-2.864.248-.035v-.003zm-12.31 1.22-.225.108.465-.178zm-.286-.973.24-.07-.095-.324-.282.185zm-.114.075-.137-.21-.127.084.015.152zm1.886 1.343v-.25h-.004zm-1.094.017-.242-.064-.085.319.33-.005zm1.745-.29.2-.151-.004-.004zm-1.745-.172-.05-.245-.546.11.445.335zm1.772-.36.241.067.108-.392-.399.08zm-1.988 1.457h-.25v.073l.04.062zm.286.45.25-.006-.002-.07-.037-.058zm-.383-1.133-.23.096v.003zm-.809 2.186-.24-.066-.061.221.215.08zm.132.048-.086.235h.003zm.576.308-.129.215h.002zm.59-.29.243-.057-.001-.005zm7.856-.754.245-.048-.001-.006zm.805 1.943.167.186.01-.01zm-.532.088-.136.21.007.005.007.004zm-.805-2.392.244.057v-.005zm.211-.489.225.11v-.002zm.18-.374.25-.02-.075-.92-.4.831zm.035.431.25-.018v-.002zm3.399.648.114-.222-.002-.002zm.21.207-.247-.03v.003zm-1.05.054-.13-.213-.193.118.098.204zm1.183.056-.028.249h.004zm-.796.93.142.206zm.114-.08.143.206.245-.17-.21-.212zm-1.301.666-.177.176.01.01.01.009zm.237-.881-.205-.143-.024.034-.011.04zm.215-.309.22-.116-.19-.364-.236.338zm-.9.555.237.078.001-.004zm-.264.758.177.177.01-.01.008-.01zm-.07-.493-.248-.037v.004zm-4.942.313-.177-.177-.01.01-.009.01zm.22-.609-.238-.078v.002zm-.427.56-.115.222.003.002zm-.229-.313-.242.06zm.058-.423-.216-.127v.002zm.58-.458-.059-.243zm.229.005.23.098.003-.007.002-.008zm-.13.386-.239-.08v.002zm0 0 .237.079v-.002zm0 0-.239-.08v.002zm1.044.063-.245.05.002.006zm-.48-.031.24.073v-.002zm-.14.457.238.076v-.001zm-.189.605-.239-.074-.081.263.27.056zm.449.092-.051.245h.001zm.672.12.029-.25h-.003zm.229.026-.029.248.46.053-.208-.414zm.716-1.067.188.166.218-.247-.297-.144zm-.457-.22.109-.225h-.002zm.255.45.187.166zm-.378.665-.177-.177-.009.01zm2.089.167v.25h.024zm-.55.04.016.25h.004zm-.493-.833-.132.212.002.002zm-.51.013.183.171.002-.002zm-.373.67.245.048v-.002zm-.027.137-.245-.048-.054.28.285.017zm.449.026-.015.25h.001zm.759-11.53c-.373-.063-1.033-.03-1.449.075l.122.485c.358-.09.947-.117 1.242-.066zm.292.035a4 4 0 0 1-.285-.033l-.099.49c.084.017.222.03.337.04zm.51.498a.26.26 0 0 0 .016-.365c-.05-.054-.111-.072-.12-.075a1 1 0 0 0-.125-.027c-.078-.012-.185-.022-.28-.031l-.048.498c.101.01.193.018.255.027.035.005.044.008.038.006q-.005 0-.023-.01a.244.244 0 0 1-.049-.393zm-.225.64c0 .014-.002.013.004-.014l.023-.086a4 4 0 0 1 .216-.554c.014-.026.009-.01-.014.012l-.343-.365a.5.5 0 0 0-.08.11l-.054.108a4.4 4.4 0 0 0-.236.665.6.6 0 0 0-.016.123zm1.39.886c.035 0 .061.008.067.01l.02.006q.007.004 0 0l-.047-.027-.187-.12a29 29 0 0 1-1.27-.89l-.038-.031.006.007.021.027a.24.24 0 0 1 .038.131h-.5c0 .078.036.13.04.137a.3.3 0 0 0 .06.069l.063.052c.046.037.111.085.186.14a29 29 0 0 0 1.322.906l.111.06.032.012c.01.003.038.011.076.011zm.401.594a.32.32 0 0 0 .016-.272.57.57 0 0 0-.21-.256.4.4 0 0 0-.207-.066v.5a.2.2 0 0 1-.053-.009l-.013-.006.004.003.008.01c.008.008.006.01.002 0a.1.1 0 0 1-.008-.045.2.2 0 0 1 .027-.107zm-.263.281a4 4 0 0 0 .15-.145 1 1 0 0 0 .104-.121l-.416-.277c.007-.01.009-.011-.005.004l-.043.046a3 3 0 0 1-.128.124zm-.333.972c.074-.26.15-.504.217-.691q.051-.142.09-.225c.031-.066.042-.071.027-.057l-.34-.367a.7.7 0 0 0-.14.211 3 3 0 0 0-.108.269c-.072.202-.151.458-.227.722zm-.037-.557c-.178.12-.32.223-.407.342l.406.292c.025-.034.087-.09.28-.22zm2.829-2.148c-.59.468-2.61 2-2.83 2.148l.28.414c.238-.16 2.272-1.703 2.86-2.17zm-.29.371q.254-.001.333.014l.014.003-.015-.006a.235.235 0 0 1-.119-.25c.018-.09.078-.133.084-.138l.296.403a.266.266 0 0 0 .017-.428.3.3 0 0 0-.11-.057l-.082-.02a2.6 2.6 0 0 0-.425-.02zm-.819.112a3.6 3.6 0 0 1 .819-.112l-.007-.5a4 4 0 0 0-.931.126zm-1.207-.473c.074.077.22.231.418.347.203.118.474.205.79.126l-.12-.486a.54.54 0 0 1-.418-.072 1.5 1.5 0 0 1-.31-.262zm-.024-.03-.016-.01.005.004.035.036.36-.347-.044-.045a.4.4 0 0 0-.063-.053zm-.433-.67c0 .086.034.165.057.211.026.056.062.114.099.168.07.101.172.222.276.292l.278-.416a.7.7 0 0 1-.143-.16 1 1 0 0 1-.07-.124c-.001-.005.003.007.003.03zm.609-.202a2 2 0 0 0-.24-.05 1 1 0 0 0-.109-.006.3.3 0 0 0-.097.02.26.26 0 0 0-.163.238h.5a.25.25 0 0 1-.15.226.2.2 0 0 1-.064.015q-.016 0 .015.002.062.008.18.039zm1.042-.009c-.403.105-.7.107-1.038.01l-.137.482c.437.124.826.116 1.302-.008zm1.355-.076a3.7 3.7 0 0 0-1.353.076l.123.484a3.2 3.2 0 0 1 1.17-.064zm.068.01-.058-.01-.079.495.058.009zm.128.019-.034-.004-.094-.015-.079.494c.068.01.144.024.198.025zm.406.892a.2.2 0 0 1 .054.063l-.002-.004-.024-.065a5 5 0 0 1-.076-.23 4 4 0 0 1-.115-.442l-.495.072c.017.116.077.336.132.515a6 6 0 0 0 .12.349l.04.075a.3.3 0 0 0 .053.057zm1.612.634c.017.001.023.005.004-.001l-.058-.019-.2-.07a29 29 0 0 1-1.32-.53l-.05-.024c-.021-.01-.003-.003.02.017l-.33.376c.032.027.07.047.08.052l.07.034.203.088a28 28 0 0 0 1.367.531l.078.025.08.017zm.468.49a.47.47 0 0 0-.131-.347.56.56 0 0 0-.334-.143l-.062.496q.044.007.054.011l-.01-.008a.1.1 0 0 1-.018-.028l.001.02zm-.638.576c.156-.03.303-.088.417-.175a.51.51 0 0 0 .221-.4h-.5c0-.037.02-.031-.023.002a.5.5 0 0 1-.209.082zm-1.401 1.692c.254-.432.563-.858.842-1.18.14-.162.27-.293.377-.385q.081-.069.134-.102c.039-.023.053-.026.048-.025l-.094-.49a.7.7 0 0 0-.216.09q-.096.06-.197.147a4 4 0 0 0-.43.437 9 9 0 0 0-.895 1.255zm-.51 1.134c0-.053.028-.177.12-.387.086-.2.217-.452.39-.747l-.431-.253c-.179.304-.32.575-.418.8-.094.216-.162.423-.162.587zm.262 1.648a20 20 0 0 1-.183-.994 6 6 0 0 1-.08-.654h-.5c0 .133.037.419.086.732.05.321.119.696.188 1.02zm-.299.29s.016-.023.049-.045a.235.235 0 0 1 .32.06c.009.014.011.022.009.015a3 3 0 0 1-.08-.322l-.488.108c.04.18.07.314.1.392a.4.4 0 0 0 .04.08.28.28 0 0 0 .139.112.27.27 0 0 0 .24-.03.3.3 0 0 0 .079-.08zm1.264-.175c-.437 0-.7.002-.858.013a1 1 0 0 0-.21.03.36.36 0 0 0-.189.123l.394.309a.2.2 0 0 1-.042.037q-.024.014-.023.012a1 1 0 0 1 .103-.012c.139-.01.382-.012.825-.012zm1.01 0h-1.01v.5h1.01zm.127-.47-.343.595.433.25.343-.595zm.434-.264a.25.25 0 0 1-.137-.234.2.2 0 0 1 .009-.053l.004-.015.002-.004-.003.007-.008.016-.065.125a20 20 0 0 1-.236.422l.433.25a20 20 0 0 0 .316-.575 1 1 0 0 0 .038-.09q.005-.013.01-.06a.25.25 0 0 0-.138-.236zm-1.042-.066a46 46 0 0 1 1.034.079l.061.007h.006a.2.2 0 0 1-.04-.012.2.2 0 0 1-.083-.054l.353-.354a.27.27 0 0 0-.139-.071l-.031-.005-.076-.009-.252-.022a47 47 0 0 0-.801-.058zm-1.23-.11a.3.3 0 0 0 .088.026 1 1 0 0 0 .097.01l.247.019c.207.015.489.035.798.055l.032-.5a78 78 0 0 1-1.112-.08h.005l.012.003.016.004c.005.002.021.006.04.016zm.372-1.239a58 58 0 0 0-.448.826l-.043.091a.3.3 0 0 0-.018.07c0 .004-.01.07.025.14l.447-.223c.035.07.025.136.025.14q-.004.027-.007.036l-.007.021q-.004.007 0 0l.023-.047.1-.189c.086-.16.207-.381.34-.623zm.488-.881-.488.881.437.242.488-.88zm1.254.042-.994-.167-.083.493.994.167zm.31.052-.31-.052-.083.493.31.052zm.814.139c-.058-.012-.402-.07-.814-.139l-.083.493c.42.07.75.126.799.136zm-.054-.017-.034.054c-.006.007 0-.003.018-.014a.15.15 0 0 1 .066-.022h.011l-.011-.002-.09.492a.4.4 0 0 0 .29-.045.6.6 0 0 0 .182-.212zm.036-.08a1 1 0 0 1-.04.085l.44.24c.027-.05.053-.106.071-.159zm.484.114.001-.02-.5-.02v.02zm-.377 1.709c.338-.652.366-1.427.377-1.71l-.5-.02c-.01.29-.04.96-.32 1.5zm-.76 1.45.76-1.45-.443-.231-.76 1.449zm.028.884v-1h-.5v1zm-.426.25h.176v-.5h-.176zm.074-.24a.25.25 0 0 1-.145.226c-.023.01-.041.014-.045.015l-.014.003h-.003.006l.016-.001.111-.003v-.5a3 3 0 0 0-.19.007l-.038.007a.25.25 0 0 0-.198.245zm.031.161-.025-.143-.006-.04-.002-.008v.003l.001.006.001.02h-.5c0 .017.002.03.002.03l.001.011a4 4 0 0 0 .036.207zm0 .002v-.002l-.492.086v.002zm.031.177-.03-.177-.493.085.03.177zm-.006.55c.044-.06.05-.123.051-.132l.003-.057q-.001-.046-.008-.1a5 5 0 0 0-.04-.261l-.492.085a4 4 0 0 1 .04.285l.001-.012q0-.01.007-.032a.2.2 0 0 1 .037-.076zm-.451.14c.072 0 .145-.005.205-.015a1 1 0 0 0 .096-.022.4.4 0 0 0 .062-.027.3.3 0 0 0 .102-.098l-.429-.256a.23.23 0 0 1 .083-.082l.026-.012-.017.003a1 1 0 0 1-.128.009zm-.224.004.229-.004-.01-.5-.228.004zm.102.173.127-.334-.467-.178-.128.334zm-1.323 2.137c.495-.657 1.082-1.603 1.317-2.123l-.456-.206c-.214.476-.779 1.389-1.26 2.028zm-.107.139.106-.137-.396-.306-.106.137zm.154-.265-.246-.115-.211.454.246.114zm1.062 1.107c-.255-.49-.65-.92-1.064-1.108l-.207.455c.281.128.606.458.827.883zm.221.886c0-.185 0-.32-.035-.455a2 2 0 0 0-.186-.43l-.445.228c.096.188.13.258.146.325.017.064.02.134.02.332zm-.421 1.109a.3.3 0 0 0 .218-.122.5.5 0 0 0 .064-.116c.03-.071.053-.16.073-.25.039-.183.066-.415.066-.62h-.5c0 .167-.023.363-.055.515a1 1 0 0 1-.047.165c-.007.017-.008.015 0 .005a.2.2 0 0 1 .037-.036.2.2 0 0 1 .117-.04zm-1.04.161.754-.115.224-.035.11-.018-.123-.485c.012-.003.02-.004-.003 0l-.061.01-.223.034-.752.115zm0 0h.002l-.076-.494h-.001zm-.483.074.484-.074-.075-.494-.485.074zm-1.677.21a.4.4 0 0 0 .133.007l.106-.012.348-.045c.285-.04.671-.096 1.09-.16l-.076-.494a78 78 0 0 1-1.42.203l-.103.01h-.003l.023.002q.01 0 .04.008zm-.556-.815a2.3 2.3 0 0 0 .341.648 1 1 0 0 0 .074.08.4.4 0 0 0 .121.08l.178-.468c.034.013.049.03.042.023l-.024-.027a1.8 1.8 0 0 1-.254-.483zm-.029-.087.03.09.476-.153-.029-.089zm-.055-.17q-.001-.006.004.01l.013.04.038.12.477-.152a4 4 0 0 0-.072-.215zm-.188.33q.26-.131.37-.172c.04-.016.054-.018.05-.018l-.017.002a.24.24 0 0 1-.227-.18l.485-.121a.26.26 0 0 0-.201-.193.3.3 0 0 0-.119-.001 1 1 0 0 0-.15.043q-.15.059-.419.196zm-1.835.661a7.4 7.4 0 0 0 1.833-.659l-.224-.447a7 7 0 0 1-1.72.619zm-4.453-.273a8 8 0 0 0 4.453.273l-.11-.488a7.5 7.5 0 0 1-4.173-.255zm-1.796-.89c.482.298 1.355.729 1.795.89l.172-.47c-.404-.147-1.246-.562-1.704-.846zm-2.556-2.26c1.362 1.425 1.714 1.74 2.556 2.26l.263-.426c-.785-.484-1.101-.76-2.457-2.18zm-.784-.65c.14.07.226.12.328.204.107.088.236.215.456.445l.362-.345a6 6 0 0 0-.502-.487 2 2 0 0 0-.42-.264zm-.543-.146a1 1 0 0 1 .25.022c.066.017.143.05.295.124l.221-.448a2 2 0 0 0-.39-.16 1.4 1.4 0 0 0-.376-.038zm-.565-.184a.42.42 0 0 0 .255.163c.086.019.191.021.31.021v-.5q-.089 0-.14-.003a.4.4 0 0 1-.06-.006c-.006-.002.002 0 .015.008l.015.012.006.006zm.162-.883a1 1 0 0 0-.252.418.54.54 0 0 0 .087.46l.407-.29-.011-.022q-.003-.004.002-.025a.54.54 0 0 1 .134-.202zm.09.217a.24.24 0 0 1-.108-.183.2.2 0 0 1 .002-.042l-.007.02-.015.04-.006.013-.001.003.228.102.229.1.001-.002.003-.006a1 1 0 0 0 .033-.086 1 1 0 0 0 .026-.09.3.3 0 0 0 .006-.083.26.26 0 0 0-.118-.205zm-.515-.336.515.336.273-.42-.515-.335zm1.588-3.598c-.32.337-.839 1.113-1.225 1.82a6.6 6.6 0 0 0-.459.989 1.5 1.5 0 0 0-.085.402c-.003.108.018.305.204.4l.228-.445c.086.045.066.123.068.06a1 1 0 0 1 .06-.258c.08-.241.233-.563.422-.909.38-.694.875-1.425 1.15-1.714zm.234-.365c0 .104-.006.101-.01.109-.02.036-.07.092-.225.257l.364.343c.134-.143.238-.25.296-.353a.65.65 0 0 0 .075-.356zm.589-1.867c-.155.263-.3.61-.407.944-.105.329-.182.672-.182.923h.5c0-.172.058-.457.158-.77.1-.31.231-.622.362-.843zm.087-.135c.008.018.005.014.003.002a.1.1 0 0 1 .002-.034l-.005.01-.015.032c-.016.03-.038.068-.071.123l.429.257c.06-.1.117-.196.142-.285a.4.4 0 0 0-.026-.304zm.62-.977c-.26.186-.447.329-.55.46a.5.5 0 0 0-.116.262.5.5 0 0 0 .048.258l.455-.205c-.011-.026-.004-.02-.006 0s-.01.02.01-.005c.051-.064.174-.166.45-.363zm1.61-1.158a.2.2 0 0 1 .03-.058l.01-.014-.008.008-.077.065q-.11.09-.326.254c-.288.217-.707.522-1.238.903l.29.407c.533-.382.956-.69 1.248-.91q.22-.166.343-.267a2 2 0 0 0 .142-.128c.004-.005.042-.044.06-.102zm-.468.377c.157-.054.34-.09.476-.1a.6.6 0 0 1 .123 0c.01.001-.02-.001-.058-.03a.225.225 0 0 1-.074-.243l.477.151a.28.28 0 0 0-.095-.303.4.4 0 0 0-.157-.067 1 1 0 0 0-.254-.007 2.6 2.6 0 0 0-.601.127zm-1.858.136c.217.112.512.133.816.106a4.4 4.4 0 0 0 1.043-.242l-.166-.472a4 4 0 0 1-.922.216c-.272.024-.452-.006-.542-.052zm-.492-.632c0 .098.048.182.072.222q.05.081.115.155c.08.092.194.2.308.256l.224-.447a.4.4 0 0 1-.064-.046 1 1 0 0 1-.154-.176q-.01-.015-.008-.014l.003.012q.004.01.004.038zm.594-.25a4 4 0 0 0-.249-.01q-.05 0-.094.004a.4.4 0 0 0-.063.011.25.25 0 0 0-.188.245h.5a.25.25 0 0 1-.111.207c-.03.02-.056.027-.063.03-.018.004-.03.005-.025.004h.044c.051 0 .126.002.212.008zm-.181-.122.014.134q.004.062.001.089c-.002.024-.005.003.018-.029a.18.18 0 0 1 .148-.071l-.037.498a.33.33 0 0 0 .294-.134.44.44 0 0 0 .075-.216c.01-.11-.006-.243-.016-.329zm-.017-.21c0 .068.01.148.017.21l.497-.058a2 2 0 0 1-.014-.151zm.263-.36a.254.254 0 0 0-.245.187.4.4 0 0 0-.013.068 1 1 0 0 0-.005.106h.5q0-.04.002-.051c0-.006 0 .004-.005.02a.25.25 0 0 1-.234.17zm.223.064-.097-.035-.08-.024a.2.2 0 0 0-.046-.005v.5a.3.3 0 0 1-.069-.01l.001.001.026.009.094.034zm.002 0-.174.47h.001zm.046.018-.048-.018-.171.47.047.017zm1.241-.09c-.594.164-1.006.173-1.244.089l-.166.471c.386.137.923.093 1.543-.078zm.874-.188c-.177.02-.57.103-.875.188l.134.482c.293-.082.657-.158.797-.173zm.975.393a.3.3 0 0 0 .08-.168.27.27 0 0 0-.107-.243.3.3 0 0 0-.122-.054l-.081-.011c-.09-.006-.21.005-.314.017a7 7 0 0 0-.438.066l-.008.002h-.002l.045.246.046.246h.002l.007-.002.124-.021c.08-.013.183-.03.282-.04.104-.013.183-.018.224-.015h.003a.2.2 0 0 1-.068-.034.23.23 0 0 1-.09-.209c.007-.075.048-.117.052-.122zm-.156.425q.051-.193.098-.31a1 1 0 0 1 .041-.088l.017-.027-.365-.342a.9.9 0 0 0-.157.271 3 3 0 0 0-.117.37zm-.097.36c0 .018-.002.033-.002.033l-.002.008v.005-.003l.005-.023.021-.088c.019-.075.045-.178.075-.29l-.483-.13a14 14 0 0 0-.1.396l-.006.028-.003.012-.001.008-.002.01s-.002.015-.002.034zm-.064-.218-.1-.02-.037-.007-.006-.002h-.007l-.009-.002-.027-.001v.5l-.027-.002h-.008l-.006-.002h-.003l.03.006.099.02zm.883.18c-.374-.075-.706-.143-.883-.18l-.101.49c.177.037.51.105.886.18zm1.062.18c.013-.003.002 0-.06-.005a4 4 0 0 1-.22-.029q-.282-.044-.781-.146l-.1.49q.504.103.804.15.15.024.252.033c.06.005.134.01.195-.001zm.568.426a.43.43 0 0 0-.185-.366.5.5 0 0 0-.39-.06l.104.49a.1.1 0 0 1 .032-.003q-.001.002-.023-.01a.1.1 0 0 1-.033-.039q-.007-.02-.005-.012zm-.585.588c.174-.08.312-.152.406-.23a.5.5 0 0 0 .132-.159.4.4 0 0 0 .047-.199h-.5l.001-.009.007-.019c.006-.012.01-.011-.005.001a1.6 1.6 0 0 1-.298.162zm-.503.307c.131-.1.363-.24.505-.308l-.214-.452a4 4 0 0 0-.594.362zm-1.235 1.293c.263-.376.896-1.036 1.235-1.293l-.303-.398c-.382.29-1.05.987-1.341 1.404zm-.183.522c0-.185.003-.222.015-.257.014-.041.045-.089.168-.265l-.41-.287c-.104.15-.188.265-.231.39-.045.131-.042.264-.042.419zm.192 1.25a5.2 5.2 0 0 1-.192-1.25h-.5c0 .397.092.984.212 1.392zm.07.244-.07-.242-.48.139.07.242zm-.35-.348-.124.33.469.175.123-.33zm.708-1.35c-.3.416-.53.86-.71 1.352l.47.17a5 5 0 0 1 .645-1.23zm.288.01a.22.22 0 0 1-.134-.176.2.2 0 0 1 .005-.068q.004-.014.001-.006c-.015.03-.058.099-.16.24l.405.293a2.3 2.3 0 0 0 .207-.319.37.37 0 0 0 .04-.197.28.28 0 0 0-.184-.234zm.039-.888a.4.4 0 0 0-.106.104 1 1 0 0 0-.05.092 1 1 0 0 0-.062.19.8.8 0 0 0-.017.211c.002.036.01.085.033.136.025.052.074.12.163.155l.18-.467a.2.2 0 0 1 .11.1c.012.025.012.04.012.037q-.002-.01.008-.067a.5.5 0 0 1 .029-.09l.007-.015-.01.012a.2.2 0 0 1-.036.029zM18.52 4.92a41 41 0 0 1-1.023.927 2 2 0 0 1-.106.086l.261.427c.04-.025.105-.078.168-.132q.11-.091.271-.237c.214-.19.488-.44.771-.706zm1.02-.96-1.02.96.342.365 1.02-.96zm-.079-.073v.255h.5v-.255zm.337-.528c-.027.006-.08.016-.129.038a.33.33 0 0 0-.164.157.5.5 0 0 0-.04.171 3 3 0 0 0-.004.162h.5l.002-.128.002-.015-.01.028a.18.18 0 0 1-.083.082l-.007.002.032-.006zm.348-.03c-.103 0-.254.014-.342.03l.087.492a2 2 0 0 1 .255-.023zm.255-.179c-.108.097-.164.14-.2.161a.1.1 0 0 1-.063.017l.017.5a.6.6 0 0 0 .293-.083c.089-.05.18-.126.288-.223zm.235.108a.24.24 0 0 1-.075-.272l.007-.014-.019.024a2 2 0 0 1-.152.158l.343.364a3 3 0 0 0 .194-.202 1 1 0 0 0 .07-.1.3.3 0 0 0 .036-.093.26.26 0 0 0-.091-.255zm-.24.006a2 2 0 0 1 .3.028q.01.002 0 0l-.021-.01a.2.2 0 0 1-.06-.043l.355-.353a.3.3 0 0 0-.108-.066l-.055-.015a1 1 0 0 0-.11-.02 3 3 0 0 0-.29-.02zm-.875.113c.45-.104.617-.125.869-.113l.023-.5c-.32-.014-.539.018-1.005.126zm-1.399.059c.37.125.747.096 1.4-.06l-.115-.486c-.639.152-.896.15-1.124.072zm.31-.725a1.5 1.5 0 0 0-.363.145.5.5 0 0 0-.093.073.3.3 0 0 0-.09.178.29.29 0 0 0 .092.247.4.4 0 0 0 .144.082l.161-.474c-.011-.003.01.001.036.026a.21.21 0 0 1 .064.182.2.2 0 0 1-.05.109q-.014.013-.002.003c.044-.027.142-.063.233-.088zm-.247-.764a.256.256 0 0 0-.33.216c-.007.06.01.111.012.12.012.04.03.083.048.119.036.078.09.18.143.278a17 17 0 0 0 .203.363l.015.026.004.006v.002l.218-.124.216-.126-.001-.002-.004-.006-.014-.025-.198-.352a5 5 0 0 1-.146-.289l-.004-.012.003.016q.005.012.002.062a.244.244 0 0 1-.316.206zm1.245.058a2 2 0 0 1-.587.081c-.172-.007-.362-.048-.66-.14l-.145.48c.309.093.547.15.783.16.24.01.46-.027.73-.096zm10.607 4.356c-.002-.005-.018-.049-.058-.088a.252.252 0 0 0-.424.121l-.007.04c-.004.03-.006.073-.007.11l.5.02q0-.031.002-.05v-.018.005l-.003.014-.01.03a.249.249 0 0 1-.456.004zm-.01.275q.016-.046.026-.101a.33.33 0 0 0-.014-.168l-.468.176a.2.2 0 0 1-.012-.087l-.005.015zM26.06 2.212a.256.256 0 0 0-.399.025.3.3 0 0 0-.042.096.3.3 0 0 0-.006.084l.006.052.495-.072-.001-.006v.012q0 .009-.005.034a.246.246 0 0 1-.365.156.2.2 0 0 1-.046-.037zm-.198.47a.3.3 0 0 0 .102-.013.26.26 0 0 0 .15-.382.4.4 0 0 0-.044-.063l-.384.32c.005.005-.002-.002-.01-.016-.003-.006-.041-.07-.021-.16a.24.24 0 0 1 .201-.185h.015zM21.988 7.39l.244.058v-.002l.002-.006.005-.024.1-.407c.066-.263.155-.612.25-.957l-.48-.133a41 41 0 0 0-.334 1.29l-.022.091-.006.024-.001.006v.003zm-.073-.44-.154.336.454.208.154-.334zm.184-.948-.004.043-.014.109a9 9 0 0 1-.114.617q-.037.15-.053.181l.456.206c.032-.07.06-.174.083-.272a9 9 0 0 0 .123-.662c.012-.084.023-.172.023-.222zm0-.018V6l.5.004v-.017zm.76-1.806-.003-.002-.236.441.004.002zm-.256.429.021.012.02.01.029.01a.25.25 0 0 0 .246-.417l-.354.353a.25.25 0 0 1-.072-.199.25.25 0 0 1 .224-.226c.05-.005.088.007.095.009a.3.3 0 0 1 .048.02l.01.005.003.002zM21.131 3.27l-.144.204h.001l.003.003.013.01.048.033a291 291 0 0 0 1.551 1.086l.27-.421-.003-.002-.005-.003-.08-.055a80 80 0 0 1-.741-.519l-.53-.373-.174-.122-.048-.034-.013-.009-.003-.002h-.001zm.187.248.053-.177-.48-.143-.052.176zm1.446.614a21 21 0 0 1-.926-.448 5 5 0 0 1-.441-.255 1 1 0 0 1-.1-.077c-.006-.007.001-.001.01.017a.2.2 0 0 1 .01.15l-.478-.145a.3.3 0 0 0 .022.22c.023.045.053.08.077.106.05.05.114.1.178.143.131.09.309.189.49.284.366.192.78.381.95.46zm.084.04-.084-.04-.208.455.05.023.015.007.005.002h.002zm-4.982.356c.02-.006.048-.013.072-.022l.05-.022a.3.3 0 0 0 .089-.073.26.26 0 0 0-.064-.38.4.4 0 0 0-.114-.05 12 12 0 0 0-.82-.18l-.1.489c.471.097.688.142.77.168.025.007.01.005-.014-.01-.01-.007-.06-.04-.086-.11a.24.24 0 0 1 .035-.237.2.2 0 0 1 .07-.058l.013-.007-.037.01zm-.442.126.45-.128-.15-.477-.435.123zm-.538.152.538-.152-.135-.482-.54.152zm-.854.238.853-.238-.134-.482-.853.238zm-.278-.423-.03.12.483.125.031-.12zm.475-.984a.25.25 0 0 0-.21.111.3.3 0 0 0-.029.05l-.029.072a12 12 0 0 0-.208.756l.486.116c.048-.2.1-.395.142-.539a3 3 0 0 1 .06-.186l.002-.006-.003.006a.3.3 0 0 1-.049.059.25.25 0 0 1-.162.06zm.85.163a73 73 0 0 0-.807-.16l-.012-.002-.031-.001v.5c-.02 0-.038-.004-.029-.002l.009.001.046.009q.064.011.172.033l.552.112zm-1.742.751-.088.317.482.134.088-.317zm.11-.372c-.008.03-.056.196-.108.365l.478.147c.054-.174.102-.343.112-.374zm.25.266a.25.25 0 0 1-.245-.21.2.2 0 0 1-.001-.051.1.1 0 0 1 .013-.048l.448.223a.36.36 0 0 0 .035-.195.25.25 0 0 0-.25-.219zm-1.308 1.013.057-.043.17-.125a180 180 0 0 1 1.204-.877l.007-.005-.002.002-.006.003-.018.01-.024.009c-.007.002-.038.013-.08.013v-.5a.3.3 0 0 0-.105.023l-.02.01-.035.022-.05.036q-.065.045-.167.12a131 131 0 0 0-1.172.858c-.035.027-.074.055-.089.068zm.053-.491-.226.056-.008.001h.01a.2.2 0 0 1 .088.012.248.248 0 0 1 .126.373l-.416-.278a.253.253 0 0 0 .182.39c.037.005.07 0 .076-.001l.08-.016c.056-.012.132-.032.215-.054zm.642-.181c-.188.05-.482.134-.648.182l.14.48c.167-.048.454-.131.635-.179zm.341-.092-.343.092.13.483.344-.093zm6.618 3.327.11-.36-.479-.146-.11.36zm-.286 1.4c.069-.535.159-.967.287-1.402l-.48-.14a9 9 0 0 0-.303 1.478zm-.263.798c.078-.128.136-.234.178-.362a2.3 2.3 0 0 0 .085-.436l-.496-.064c-.021.174-.04.268-.064.344-.024.073-.058.14-.13.26zm-.19.36.004-.01.013-.03.046-.092a6 6 0 0 1 .13-.231l-.433-.252c-.047.081-.097.17-.139.25a1.5 1.5 0 0 0-.099.216zm-.638-.604.015.388a2 2 0 0 0 .029.258c.006.027.02.09.063.146a.27.27 0 0 0 .347.07.35.35 0 0 0 .12-.125 1 1 0 0 0 .055-.109l-.46-.198-.024.05c-.01.018.008-.021.06-.051a.23.23 0 0 1 .3.059c.028.038.031.07.027.05a1.4 1.4 0 0 1-.017-.18q-.008-.143-.015-.375zm.168-2.022c-.14.651-.2 1.343-.168 2.025l.5-.023c-.03-.64.025-1.287.157-1.896zm1.19-.708a.3.3 0 0 0-.252-.166.5.5 0 0 0-.182.028c-.097.035-.2.098-.294.172-.183.144-.398.384-.462.673l.488.108c.029-.13.144-.28.283-.389a.6.6 0 0 1 .152-.092c.017-.006.007 0-.02-.002a.2.2 0 0 1-.163-.115zm.114.232-.114-.233-.45.22.115.233zm-6.071 1.115c.043.13.062.198.068.246a.3.3 0 0 1-.009.12l.487.114a.8.8 0 0 0 .018-.3 2 2 0 0 0-.09-.34zm-.26-1.23c.006.294.125.828.26 1.23l.474-.16c-.13-.382-.23-.86-.233-1.078zm.28.04c.042-.104.07-.168.09-.202.01-.02.01-.015-.002-.002a.2.2 0 0 1-.06.042.23.23 0 0 1-.287-.075.2.2 0 0 1-.025-.048c-.003-.01-.001-.01.001.014q.006.061.003.222l.5.01a3 3 0 0 0-.005-.28.6.6 0 0 0-.023-.121.3.3 0 0 0-.042-.085.27.27 0 0 0-.14-.103.28.28 0 0 0-.283.078.5.5 0 0 0-.075.105 2 2 0 0 0-.116.261zm-.325 1.463c0-.319.016-.53.06-.732.045-.203.123-.41.262-.721l-.457-.204a4.2 4.2 0 0 0-.293.817 3.8 3.8 0 0 0-.072.84zm.046.704a1.4 1.4 0 0 1-.03-.24 6 6 0 0 1-.016-.464h-.5c0 .183.006.357.016.5.01.135.026.269.053.356zm-.054.015h-.019l.009.002q.013.003.034.013a.2.2 0 0 1 .056.051q.003.007 0 0l-.01-.027-.014-.048-.48.14c.012.042.025.087.042.126.016.04.042.09.086.136a.4.4 0 0 0 .296.107zm.132 0h-.132v.5h.132zm.25.801v-.55h-.5v.55zm-.316.8a.29.29 0 0 0 .253-.149.5.5 0 0 0 .05-.175c.011-.098.013-.252.013-.476h-.5c0 .234-.002.356-.01.418-.004.037-.007.02.01-.011a.21.21 0 0 1 .184-.106zm.279.015-.072-.178-.02-.058a.1.1 0 0 1-.002.053.22.22 0 0 1-.158.165c-.018.004-.03.004-.027.004v-.5c-.024 0-.133-.002-.22.08a.3.3 0 0 0-.087.268 1 1 0 0 0 .045.161q.03.08.08.2zm.756 1.682-.004-.008-.008-.023a.25.25 0 0 1 .035-.2.245.245 0 0 1 .267-.098.2.2 0 0 1 .053.023c.005.003-.012-.009-.06-.055a8.4 8.4 0 0 1-.775-.898 2.4 2.4 0 0 1-.264-.422l-.461.192c.065.156.19.346.323.526a9 9 0 0 0 .83.962c.044.042.097.09.142.119.011.007.04.024.078.035a.255.255 0 0 0 .314-.316.3.3 0 0 0-.025-.064zm-.822-3.236c-.047.47.074 1.098.24 1.679.168.589.392 1.166.58 1.552l.45-.218a10 10 0 0 1-.55-1.471c-.162-.571-.26-1.121-.223-1.492zm.093-.686a8 8 0 0 0-.093.686l.497.05c.027-.262.065-.546.083-.626zm9.884 1.432c.038-.112.071-.212.076-.32.004-.109-.02-.21-.048-.317l-.485.123c.03.117.034.149.033.173a.7.7 0 0 1-.048.178zm-.027.08.026-.079-.47-.166q-.015.039-.03.087zm-.278.59c.078-.086.135-.208.174-.303.043-.102.078-.21.104-.287l-.475-.158c-.026.08-.056.17-.09.254a.7.7 0 0 1-.086.161zm-.67.09q.01.02.027.047a.3.3 0 0 0 .063.074.28.28 0 0 0 .32.035.6.6 0 0 0 .132-.106q.052-.054.127-.139l-.37-.334-.14.147c-.004.004.003-.002.019-.01a.22.22 0 0 1 .264.055l.007.008-.002-.003-.007-.013zm-.184-2.277a5 5 0 0 0-.053 1.23c.03.399.105.796.236 1.044l.442-.233c-.08-.153-.15-.465-.18-.848a4.4 4.4 0 0 1 .046-1.099zm.553-1.317a.25.25 0 0 0-.229.144l-.022.051-.038.11a10 10 0 0 0-.264 1.012l.491.094a10 10 0 0 1 .277-1.036q.006-.013 0-.001a.24.24 0 0 1-.215.126zm.313.573a14 14 0 0 0-.06-.35l-.011-.045c-.003-.007-.009-.026-.02-.047a.25.25 0 0 0-.221-.131v.5a.25.25 0 0 1-.233-.164q-.004-.012-.002-.002l.013.065.04.25zm.32 1.622a20 20 0 0 1-.319-1.619l-.495.07c.058.414.231 1.295.33 1.676zM13.4 9.32l-.286-.974-.48.141.286.974zm-.889-.802a.4.4 0 0 0 .017.073l.018.052.05.123a34 34 0 0 0 .276.603l.046.094.012.026.004.007v.002l.226-.108.226-.108-.002-.002-.003-.007-.012-.026-.178-.38a13 13 0 0 1-.178-.402l-.009-.025c-.003-.01.002.003.005.025zm.226-.31-.114.074.274.419.114-.075zm2.31 1.877c.115 0 .223-.004.306-.012a1 1 0 0 0 .119-.018.4.4 0 0 0 .075-.026.26.26 0 0 0 .15-.233h-.5a.25.25 0 0 1 .132-.217c.02-.01.033-.012.029-.011l-.054.007c-.062.006-.153.01-.258.01zm-.4 0h.4v-.5h-.4zm-1.092.017 1.095-.017-.008-.5-1.094.017zm.57-.782c-.177.073-.345.143-.47.197a3 3 0 0 0-.16.074 1 1 0 0 0-.107.07.27.27 0 0 0-.078.127l.483.128c-.02.074-.068.114-.069.115-.01.01-.02.015-.02.015l.019-.01q.043-.021.133-.06c.119-.053.281-.12.46-.193zm.217-.089-.217.09.19.462.218-.09zm1.151.176a.3.3 0 0 0-.143-.098 1 1 0 0 0-.098-.027 2 2 0 0 0-.221-.03 13 13 0 0 0-.58-.04l-.027.5c.206.01.405.022.557.037q.115.012.172.023.028.006.027.007l-.02-.01a.2.2 0 0 1-.06-.052zm.203.389c0-.057-.02-.102-.021-.106l-.02-.04-.041-.07a3 3 0 0 0-.118-.169l-.398.302a2 2 0 0 1 .116.171l-.002-.004-.007-.02a.2.2 0 0 1-.009-.064zm-1.437-.093.165.009.026-.5-.165-.008zm-.858-.113c.05.038.106.05.118.053l.076.014q.076.01.178.018c.134.01.308.02.486.028l.026-.5c-.18-.008-.348-.017-.474-.026a2 2 0 0 1-.173-.02c-.014-.003.023.003.064.033zm1.385-.705-1.284.26.1.49 1.283-.26zm.488-.1-.488.1.099.49.489-.1zm-.74.908c.216-.09.438-.184.61-.264.084-.04.162-.078.222-.114a1 1 0 0 0 .09-.06.4.4 0 0 0 .05-.047.3.3 0 0 0 .06-.11l-.483-.133a.2.2 0 0 1 .06-.1l-.008.005-.022.014a2 2 0 0 1-.182.092c-.16.075-.372.165-.59.255zm-1.409.928.286.45.422-.268-.286-.45zm-.116-.718c.06.137.077.228.077.584h.5c0-.375-.017-.548-.117-.78zm.09-.128a.25.25 0 0 1-.182-.083c-.009-.01-.012-.017-.01-.012l.024.046c.024.048.052.113.077.174l.462-.191a4 4 0 0 0-.089-.202q-.021-.045-.046-.086a.4.4 0 0 0-.035-.05.26.26 0 0 0-.2-.096zm.1.328.125-.468.004-.012-.002.006-.008.015a.25.25 0 0 1-.219.13v-.5a.25.25 0 0 0-.238.171l-.015.043-.032.113c-.025.091-.058.22-.098.373zm-.198.745c.074-.273.143-.533.198-.745l-.483-.129c-.056.212-.124.472-.197.743zm-.33 1.208.33-1.208-.482-.13-.33 1.206zm-.022-.252-.132-.049-.173.47.132.048zm.618.328a8 8 0 0 0-.362-.205 2 2 0 0 0-.26-.124l-.166.47.005.003.013.005a2 2 0 0 1 .173.087c.1.054.222.122.34.193zm.39.229c.04 0 .066.01.055.007l-.02-.008-.103-.05a6 6 0 0 1-.324-.179l-.254.43c.127.076.251.144.35.195a2 2 0 0 0 .194.087c.01.003.053.018.102.018zm-.173-.248c.043.184.051.286.046.331-.003.021-.005-.002.022-.032a.15.15 0 0 1 .105-.051v.5a.35.35 0 0 0 .27-.119.43.43 0 0 0 .1-.239 1.6 1.6 0 0 0-.056-.504zm-.103-.783c.005.229.05.579.104.788l.485-.124a3.7 3.7 0 0 1-.09-.675zm-.01-.388.01.388.5-.01-.01-.389zm9.002 1.73a4.6 4.6 0 0 1-.544-1.418l-.49.097a5.1 5.1 0 0 0 .6 1.569zm.193.75a.25.25 0 0 0 .057-.269l-.02-.05-.055-.112a9 9 0 0 0-.175-.319l-.435.248a9 9 0 0 1 .209.387q.005.014.003.006l-.008-.032a.25.25 0 0 1 .07-.212zm-.831.13c.047.026.092.031.102.033l.05.003.084-.004a2.6 2.6 0 0 0 .465-.086l.046-.019a.3.3 0 0 0 .074-.048l-.335-.371c.025-.022.046-.032.048-.033l.004-.002-.04.01a2 2 0 0 1-.343.053h.01a.2.2 0 0 1 .078.027zm-.588-1.164c.086.236.192.49.285.692.046.1.09.19.129.26a1 1 0 0 0 .09.141c.011.013.035.04.07.063l.27-.42a.2.2 0 0 1 .043.035q.004.005-.001-.002l-.034-.057a4 4 0 0 1-.113-.23 9 9 0 0 1-.27-.653zm-.339-1.504a.5.5 0 0 0-.008.148q.005.067.017.144c.016.102.042.227.074.36.065.268.158.584.256.852l.47-.171a8 8 0 0 1-.24-.798 4 4 0 0 1-.066-.32 1 1 0 0 1-.012-.099c-.002-.029.002-.023-.003-.002zm.23-.542a8 8 0 0 0-.143.31 2 2 0 0 0-.087.237l.488.104c0 .006.001-.003.014-.036l.044-.106c.037-.085.084-.188.134-.29zm.18-.373-.18.375.45.216.18-.374zm.51.52-.036-.432-.498.04.035.433zm.1.76a7 7 0 0 1-.1-.758l-.499.037c.018.244.063.614.11.829zm2.935.13q.059.031.089.05l.024.016a.14.14 0 0 1-.037-.11l.497.058a.36.36 0 0 0-.112-.307 1 1 0 0 0-.233-.151zm-.726.039.13.213.006-.003.017-.01a3 3 0 0 1 .282-.145c.083-.036.163-.065.23-.08.077-.016.085-.001.063-.012l.224-.448a.6.6 0 0 0-.392-.028 2 2 0 0 0-.326.11 3 3 0 0 0-.333.171l-.023.013-.006.004-.002.001zm.624.546c.072 0 .112.036.095.024l-.039-.034a3 3 0 0 1-.455-.645l-.45.218a3.5 3.5 0 0 0 .553.781c.03.03.066.063.102.088a.34.34 0 0 0 .194.068zm.224-.234a6 6 0 0 1-.316.252q-.012.008-.006.005l.019-.009c.006-.002.037-.014.08-.014v.5a.3.3 0 0 0 .131-.034l.05-.03q.046-.03.103-.074c.074-.057.169-.134.266-.217zm.311-.007.032.005c.004 0-.014-.003-.038-.021a.2.2 0 0 1-.07-.115.2.2 0 0 1 .005-.095c.005-.014.003 0-.046.051a3 3 0 0 1-.195.182l.328.379q.14-.123.232-.22a.7.7 0 0 0 .148-.213.33.33 0 0 0 .017-.185.3.3 0 0 0-.114-.18.5.5 0 0 0-.252-.086zm-.357-.386a.33.33 0 0 0 .107.3c.051.041.105.059.14.068s.074.014.106.018l.055-.497-.037-.006.015.006q.015.006.04.026a.2.2 0 0 1 .068.11c.005.026.002.042.003.03zm-.272 1.272.114-.08-.285-.41-.114.08zm-1.486.576a.25.25 0 0 0 .15.055.3.3 0 0 0 .096-.014l.055-.02q.053-.022.132-.058a19 19 0 0 0 .779-.384c.113-.06.22-.118.273-.154l-.284-.412c-.023.016-.1.06-.221.123a18 18 0 0 1-.867.421l-.016.007.006-.002.017-.004a.2.2 0 0 1 .046-.003c.012 0 .08.002.146.055zm.153-1.145a53 53 0 0 0-.226.816l-.02.102a.3.3 0 0 0 .006.09.25.25 0 0 0 .066.118l.354-.353a.25.25 0 0 1 .071.196v.007q0-.01.01-.041l.047-.185c.043-.158.105-.375.173-.612zm.25-.382-.215.308.41.285.215-.308zm.563.046-.086-.022-.058-.02c-.033-.013-.011-.012.007.022l-.442.233a.47.47 0 0 0 .242.207c.075.031.16.051.219.066zm.413.188a.6.6 0 0 0-.22-.133c-.067-.025-.139-.042-.193-.055l-.118.486c.06.014.103.025.139.038.037.014.043.022.038.018zm.255.256-.255-.256-.354.354.255.255zm-2.164.13a29 29 0 0 1-.23.675l-.015.04-.002.003.005-.01.02-.029.391.312a.3.3 0 0 0 .046-.082l.023-.058.063-.174c.048-.14.11-.325.174-.522zm.15.378a.4.4 0 0 1 .06-.155.4.4 0 0 1 .079-.098c.01-.007 0 .003-.028.01a.207.207 0 0 1-.245-.144q-.007-.032-.005-.036c0-.004 0 .01-.012.048l.477.149a.7.7 0 0 0 .035-.186.33.33 0 0 0-.088-.24.3.3 0 0 0-.285-.076.4.4 0 0 0-.154.079.95.95 0 0 0-.328.576zm-.353.28a.24.24 0 0 1 .277-.038.2.2 0 0 1 .087.09c.005.01-.002-.002-.008-.047a1.2 1.2 0 0 1-.002-.289l-.496-.065c-.018.141-.014.302.003.423a.7.7 0 0 0 .05.188.3.3 0 0 0 .124.139.264.264 0 0 0 .319-.047zm-4.658.173a.3.3 0 0 0 .045-.06l.037-.081q.023-.058.054-.144c.042-.114.093-.264.145-.423l-.476-.153a13 13 0 0 1-.186.532l-.012.028.002-.004.008-.014q.006-.009.029-.034zm-.496-.001c.061.03.127.056.188.07q.045.012.11.013a.28.28 0 0 0 .216-.102l-.39-.312a.23.23 0 0 1 .163-.086q.027.002.015 0a.4.4 0 0 1-.078-.03zm-.36-.476a.8.8 0 0 0 .12.289c.07.093.159.145.237.185l.23-.444c-.067-.034-.068-.043-.064-.038l-.01-.021a1 1 0 0 1-.027-.092zm.084-.61c-.049.085-.106.181-.12.296-.015.11.014.22.037.313l.485-.12-.024-.11c-.004-.021-.002-.024-.003-.019 0 .005-.002.004.006-.013.009-.02.024-.047.052-.095zm.737-.575a1.2 1.2 0 0 0-.736.574l.43.255a.7.7 0 0 1 .426-.343zm.524.331.015-.05a.3.3 0 0 0 0-.126.26.26 0 0 0-.136-.173.3.3 0 0 0-.127-.031.6.6 0 0 0-.128.015l-.147.034.118.486.13-.03c.036-.008.034-.005.018-.005a.24.24 0 0 1-.215-.18.2.2 0 0 1-.001-.098l.002-.01zm-.128.382.087-.262.035-.105-.46-.197-.138.406zm-.081.243.08-.243-.474-.158-.08.244zm.645-.203c.058.254.176.564.332.872l.447-.226a3.6 3.6 0 0 1-.292-.758zm.005-.203a.13.13 0 0 1-.052-.03c-.018-.017-.022-.03-.017-.02l.024.077q.015.062.038.17l.49-.1a2 2 0 0 0-.096-.35.4.4 0 0 0-.098-.143.4.4 0 0 0-.155-.086zm-.002.188c.03-.098.05-.163.067-.21l.018-.043q.006-.01-.004.004a.15.15 0 0 1-.108.052q-.02-.002-.01 0l.039.009.134-.482a.6.6 0 0 0-.185-.027.34.34 0 0 0-.249.122.6.6 0 0 0-.104.192 4 4 0 0 0-.077.24zm-.142.46.142-.459-.478-.146-.142.457zm0 .002-.478-.15v.002zm-.083.263.082-.263-.477-.149-.082.264zm-.105.34.105-.34-.477-.148-.106.339zm.26-.228-.448-.092-.101.49.448.092zm.648.116a10 10 0 0 1-.65-.116l-.098.49c.238.048.555.108.697.123zm.232.026-.229-.026-.058.497.23.026zm-.48-.092.228.453.446-.225-.229-.453zm1.276-.95-.457-.221-.217.45.457.22zm-.123.62.202-.23-.375-.33-.202.228zm-.23.35c.026-.07.128-.237.229-.35l-.373-.333a1.9 1.9 0 0 0-.326.514zm-.159.326a.3.3 0 0 0 .063-.092q.017-.032.032-.069c.02-.048.044-.107.065-.165l-.471-.17a3 3 0 0 1-.07.177q-.005.004 0 0 0-.003.006-.01.005-.008.021-.025zm-.998-1.503c0 .064.013.134.028.196q.024.1.062.215a6 6 0 0 0 .392.908c.03.052.067.11.106.153a.3.3 0 0 0 .11.084.26.26 0 0 0 .309-.063l-.372-.334a.24.24 0 0 1 .27-.058c.023.01.038.022.044.027l.01.01-.013-.018-.031-.051a4 4 0 0 1-.18-.371 6 6 0 0 1-.17-.444 2 2 0 0 1-.063-.233l-.002-.021zm1.05-.015a5 5 0 0 0-.579-.247.5.5 0 0 0-.23-.026.3.3 0 0 0-.18.105.3.3 0 0 0-.061.183h.5a.2.2 0 0 1-.046.127.2.2 0 0 1-.127.078c-.041.007-.056-.006-.003.01.087.027.244.095.514.222zm1.86 1.258c-.035 0-.301.02-.57.04l.04.5c.138-.012.269-.022.368-.029l.162-.01zm-1.173-.33c.234.143.51.334.715.49.103.079.183.144.23.188.027.025.029.03.022.02l-.016-.03a.244.244 0 0 1 .197-.337l.05.498a.256.256 0 0 0 .21-.366.3.3 0 0 0-.03-.05.7.7 0 0 0-.093-.102 4 4 0 0 0-.268-.219 10 10 0 0 0-.756-.518zm-.186-.143a.3.3 0 0 1-.076-.013q-.013-.003-.013-.005l.007.004.06.033c.054.03.127.074.206.123l.265-.424a7 7 0 0 0-.303-.177l-.062-.027a.3.3 0 0 0-.084-.014zm-.009.112a4 4 0 0 1 .156-.161l-.002.002-.022.014a.25.25 0 0 1-.123.033v-.5a.25.25 0 0 0-.158.055l-.03.024-.053.051c-.038.039-.087.09-.137.145zm-.312.547c.028-.152.135-.357.31-.545l-.365-.341c-.22.235-.386.523-.437.794zm-.027.138.026-.136-.49-.095-.027.136zm.218-.27-.449-.027-.03.5.45.026zm.923-.014a10 10 0 0 1-.925.014l-.027.499c.26.014.701.004.984-.014z"/><path fill="#0091C8" d="M31.621 16.12v5.367H8.441V15.79c.023.09.378.203.63.293.456.16.49.16.936-.136.605-.398.982-.386 1.667.046 1.028.647 1.302.659 1.61.09.228-.443.742-.443 1.621.012.377.193.766.34.88.34.103 0 .354-.181.548-.397.434-.5.685-.466 1.804.182.902.534 1.21.568 1.302.125.125-.557.228-.648.753-.648.32.011.8.148 1.29.375.423.205.857.364.937.364.092 0 .194-.16.24-.352a.93.93 0 0 1 .308-.512c.309-.193.628-.113 1.633.398 1.005.5 1.29.454 1.29-.216 0-.205.218-.34.549-.34.102 0 .525.204.948.465.913.545 1.164.545 1.244-.011.08-.569.457-.58 1.439-.069.73.398 1.551.559 1.551.32"/><path stroke="#fff" stroke-linecap="round" stroke-linejoin="round" stroke-width="0.5" d="M8.527 15.985c.023.091.262.227.513.318.455.16.49.16.934-.136.603-.398.98-.387 1.663.045 1.025.648 1.298.66 1.605.091.228-.443.74-.443 1.618.012.376.193.763.34.877.34.102 0 .353-.181.547-.397.432-.5.683-.466 1.799.182.9.534 1.207.568 1.298.125.126-.557.228-.648.752-.648.319.011.797.148 1.287.375.421.205.854.364.934.364.091 0 .194-.16.24-.353a.93.93 0 0 1 .307-.511c.307-.193.626-.114 1.628.398 1.003.5 1.287.454 1.287-.216 0-.205.217-.341.547-.341.103 0 .524.204.945.466.912.545 1.162.545 1.242-.012.08-.568.456-.58 1.435-.068.729.398 1.412.535 1.412.296"/><path fill="#fff" fill-rule="evenodd" d="M24.54 20.838c-.314.212-.694.385-.834.385-.13 0-.543-.134-.89-.298l-.65-.308-.412.212a8 8 0 0 1-.704.317c-.174.068-.304.154-.304.193 0 .144.347.077.824-.173.531-.28.835-.26 1.355.057.715.463.943.443 1.735-.115.498-.356.845-.366 1.69-.039.63.231.705.241 1.03.116l.358-.135-.38-.01c-.205-.01-.693-.144-1.062-.298-.38-.164-.802-.289-.932-.289s-.51.173-.824.385m-10.244.096c.531.376.857.366 1.366-.048.499-.404.629-.404 1.377-.096.65.27.9.289 1.246.125.217-.096.228-.096.087.058-.325.347-.52.366-1.192.106-.738-.27-.89-.25-1.648.24-.25.155-.488.29-.531.29s-.336-.155-.64-.338c-.607-.375-.845-.404-1.322-.182-.185.077-.412.125-.51.086-.14-.048-.065-.115.304-.289.65-.308.975-.298 1.463.049" clip-rule="evenodd"/></g></g><defs><clipPath id="a"><path fill="#fff" d="M0 0h32v24H0z"/></clipPath></defs></svg>