<svg xmlns="http://www.w3.org/2000/svg" width="32" height="24" fill="none" viewBox="0 0 32 24"><g clip-path="url(#a)"><mask id="b" width="32" height="24" x="0" y="0" maskUnits="userSpaceOnUse" style="mask-type:luminance"><path fill="#fff" d="M32 0H0v24h32z"/></mask><g mask="url(#b)"><path fill="#fff" d="M32 0H0v24h32z"/><path fill="#2E42A5" fill-rule="evenodd" d="M0 0v24h32V0z" clip-rule="evenodd"/><mask id="c" width="18" height="14" x="0" y="0" maskUnits="userSpaceOnUse" style="mask-type:luminance"><path fill="#fff" d="M18 0H0v14h18z"/></mask><g mask="url(#c)"><path fill="#2E42A5" d="M18 0H0v14h18z"/><path fill="#F7FCFF" d="m-2.006 13 3.961 1.737L18.088 1.889l2.09-2.582-4.236-.58-6.58 5.536-5.297 3.73z"/><path fill="#F50100" d="m-1.463 14.216 2.018 1.008L19.428-.934h-2.833z"/><path fill="#F7FCFF" d="m20.004 13-3.961 1.737L-.09 1.889-2.18-.693l4.236-.58 6.58 5.536 5.297 3.73z"/><path fill="#F50100" d="m19.869 13.874-2.018 1.008-8.037-6.918-2.382-.773-9.813-7.875H.453l9.807 7.688 2.605.927z"/><path fill="#F50100" fill-rule="evenodd" d="M9.985 0h-2v6H0v2h7.985v6h2V8H18V6H9.985z" clip-rule="evenodd"/><path fill="#F7FCFF" fill-rule="evenodd" d="M6.485 0h5v4.5H18v5h-6.515L11.5 14h-5l-.015-4.5H0v-5h6.485zm1.5 6H0v2h7.985v6h2V8H18V6H9.985V0h-2z" clip-rule="evenodd"/></g><path fill="#5EAA22" fill-rule="evenodd" d="M20.616 10.756s.098 1.095-.118 1.715c-.217.62-.327.98-.327.584 0-.397-.152-.71-.274-.71s-.026.392-.149.392-.546.068-.546-.162-.056.618.22.694c.274.075-.134.31-.317.238 0 0 .75.244 1.044.451 0 0 .88 1.1 1.705.966 0 0-1.122-.387-.924-1.128.197-.74.924-.847.924-.847s.34.114.33.413.25-.093.25-.093.042-.378-.004-.47.78-.27.833-.659c0 0-.845.039-.903-.061s.261-.257.161-.451c-.1-.195-1.591 1.11-1.591 1.11s.515-.888.515-1.365-.131-.803-.515-.803c-.385 0-.314.186-.314.186m7.767.261.003.002c.055-.055.397-.37.684-.12.314.272-.158.537-.158.537s.22.213.472.213.314-.213.314-.213.02.475.84.655c0 0 .293-.421 0-.651 0 0 .347-.072.322-.352 0 0-.285.097-.488-.126s-.598-.326-.886-.274c-.73-.264-1.058.252-1.103.33" clip-rule="evenodd"/><path fill="#96877D" fill-rule="evenodd" d="M23.404 13.414s.85 1.598.319 1.928c-.531.331 2.524.096 2.811 0 .288-.095-.058-.599-.377-.739-.32-.14-1.631-.605-1.98-.955-.35-.351-.136-.476.145-.822s1.322-.485 1.322-.809c0-.323.66-1.658 1.121-1.76.462-.1.213-.258.107-.258-.107 0-.744.657-.986.538-.242-.118-.272-.11 0-.397.271-.286.475-.616.117-.379-.36.238-.95.613-1.235.613-.284 0-1.297-.128-1.17.163.125.292.178.797.724 1.139s.308.591-.145.92c-.454.33-.773.818-.773.818" clip-rule="evenodd"/><path fill="#FFD018" d="m29.038 11.3-1.618 3.246s-.047.917 1.11.306c1.157-.61 1.111-1.044 1.445-1.044.333 0 .44-.185.44-.185l-.223-.175s-.026-.319.115-.39c0 0-.276-.152-.316-.025s-.234-.266-.123-.266c0 0-.244.394-.295.548 0 0-.352-.143-.336-.807.017-.663-.199-1.207-.199-1.207m-7.702-.511s-.824.192-.735.391c.089.2.22-.005-.184.235 0 0-.709.548-.863.489s.11.138.11-.489c0-.626-.412-.116 0-.534.411-.419.555-.092.753-.333.198-.24.02-.113.557-.113s.362.354.362.354m2.514 3.226s-2.307 1.813-2.768 1.948.948-.037 1.293-.277c.344-.239 1.475-1.671 1.475-1.671"/><path fill="#5EAA22" fill-rule="evenodd" d="M28.425 17.196s.221 1.428-.357 1.287c-.578-.14-.818-.213-.818-.213s.212.665.515.665c0 0 .516 1.006.318 1.324 0 0 .889-.721.745-1.295-.143-.573.23.095.23.095s.327.157.564-.019c.236-.177-.003-.098-.24-.434-.236-.336-.178-1.28-.897-1.769s-.887-.473-.887-.473-.53-.866-.213-.809c0 0 2.275.78 2.335.98.059.2.662.163.36-.408-.301-.572-1.928-.916-2.121-1.078-.194-.16-.014-.772-.361-.905-.348-.133-1.297-1.078-1.297-1.534s-.446-.67-.835-.67-1.12-.112-1.429-.112-.597.517-.298.517c.298 0 .043.968-.457 1.18s-.886.515-1.457.515.808.493 1.028.298c.22-.194.147-.484.886-.813.738-.33 1.442-.525 1.353-.263-.09.263.138.701.486.543.348-.16.46-.56.46-.28s.533 1.717.94 2.278 1.447 1.392 1.447 1.392" clip-rule="evenodd"/><path fill="#FFD018" d="M23.571 11.945s-.27.431 0 .431.706 0 .44-.215c-.264-.216-.44-.216-.44-.216m.904-.008s0 .286.188.286.355.287.355 0c0-.286.26-.191-.142-.286-.401-.095-.401 0-.401 0M25.63 12s-.181.136-.09.379c.09.242.294.723 0 .723-.296 0-.538.173-.308.173s.64.173.64 0 .167.285.167 0v-.59c0-.167.166-.215 0-.45-.167-.235-.41-.235-.41-.235m.418 1.672s.377 1.185.581 1.338c.205.153.297 1.44.387 1.58s1.315.847 1.315 1.226c0 .38.377-.291.188-.667-.188-.375-.782-1.174-1.21-1.349-.426-.174-.372-.596-.462-.893-.09-.296.532.24 0-.433-.53-.673-.517-.312-.367-.312s.299-.08.15-.184c-.15-.104-.582-.306-.582-.306m-3.993 2.445s-1.224 2.16-1.442 2.272-.381.135-.493 0c-.111-.134-.123.36 0 .496s.493.136.698-.105c0 0 .032.608.352 1.066s.453.332.453.591c0 .26.075.602.173.602s.173.816 0 .816.4.067.65-.137c.251-.204.358-.36.305-.36-.054 0-.696-.338-.696-.577 0-.24-.432-.426-.432-.782 0-.355-.225-.777-.225-.945 0-.169.192.065.398-.095.205-.16.259-.57.259-.57s-.324.218-.432.109c-.109-.109-.45-.323-.225-.69.225-.369.657-1.69.657-1.69"/><path fill="#5EAA22" fill-rule="evenodd" d="M24.174 9.3s-.439.196-.293.485c.146.29.199.418.293.354s.75-.186.602-.512c-.147-.326-.455-.326-.455-.326z" clip-rule="evenodd"/><path fill="#FFD018" d="M25.695 9.145s-.579-.256-.386 0 .44.391.617.391c.178 0 .546-.053.362-.156s-.593-.235-.593-.235"/><path fill="#5EAA22" fill-rule="evenodd" d="M19.98 15.799a.017.017 0 0 0-.027-.016c-.12.116-.481.499-.328.832.183.397.366.535.366.535s.112.609.342.774c0 0 .31-.015.325-.489 0 0 .525-.154.68.174 0 0-.103.037-.103.315 0 .28.238.581.238.581s.109-.961.598-1.581c.49-.62.63-.742.63-.742v-.698s-1.013.825-1.228 1.51c0 0-.51.018-.717-.07s.259-.232 0-.544c-.258-.312-.14.44-.423.235-.443-.123-.383-.65-.352-.816" clip-rule="evenodd"/><path fill="#5EAA22" fill-rule="evenodd" d="M22.188 15.195h5.184v3.168s-.422 2.588-2.68 3.863c0 0-2.187-1.292-2.504-3.863z" clip-rule="evenodd"/><mask id="d" width="6" height="8" x="22" y="15" maskUnits="userSpaceOnUse" style="mask-type:luminance"><path fill="#fff" fill-rule="evenodd" d="M22.188 15.195h5.184v3.168s-.422 2.588-2.68 3.863c0 0-2.187-1.292-2.504-3.863z" clip-rule="evenodd"/></mask><g mask="url(#d)"><path fill="#58A5FF" fill-rule="evenodd" d="m24.652 15.023-2.265 4.701 3.072-2.79 2.114 3.505v-5.416l-2.114 1.733z" clip-rule="evenodd"/><path fill="#FFD018" d="M24.58 18.415a.169.169 0 1 1 .338 0v3.018a.169.169 0 0 1-.338 0z"/><path fill="#FFD018" d="M23.992 19.156a.166.166 0 0 1 0-.332h1.527a.166.166 0 1 1 0 .332zm.825 2.331-.13.106c-.194-.234-.37-.347-.525-.347-.229 0-.415-.19-.566-.553l.156-.064c.128.306.268.45.41.45.216 0 .433.139.655.408"/><path fill="#FFD018" fill-rule="evenodd" d="M23.444 20.118h-.003v.817l.003.001.613-.252v-.003z" clip-rule="evenodd"/><path fill="#FFD018" d="m24.678 21.487.13.106c.193-.234.37-.347.524-.347.23 0 .415-.19.567-.553l-.156-.064c-.128.306-.268.45-.41.45-.216 0-.434.139-.655.408"/><path fill="#FFD018" fill-rule="evenodd" d="M26.05 20.118h.002v.817l-.002.001-.613-.252v-.003z" clip-rule="evenodd"/><path fill="#fff" d="M25.084 17.059h-.676v1.007h.676z"/></g></g></g><defs><clipPath id="a"><path fill="#fff" d="M0 0h32v24H0z"/></clipPath></defs></svg>