<svg xmlns="http://www.w3.org/2000/svg" width="32" height="24" fill="none" viewBox="0 0 32 24"><g clip-path="url(#a)"><mask id="b" width="32" height="24" x="0" y="0" maskUnits="userSpaceOnUse" style="mask-type:luminance"><path fill="#fff" d="M32 0H0v24h32z"/></mask><g mask="url(#b)"><path fill="#fff" d="M32 0H0v24h32z"/><path fill="#EF0000" fill-rule="evenodd" d="M8 0h24v24H8z" clip-rule="evenodd"/><path fill="#2F8D00" fill-rule="evenodd" d="M0 0h12v24H0z" clip-rule="evenodd"/><mask id="c" width="16" height="16" x="4" y="4" maskUnits="userSpaceOnUse" style="mask-type:luminance"><path fill="#fff" fill-rule="evenodd" d="M11.906 19.806c-4.26 0-7.715-3.496-7.715-7.807 0-4.312 3.454-7.808 7.715-7.808S19.62 7.687 19.62 12s-3.454 7.807-7.714 7.807" clip-rule="evenodd"/></mask><g fill="#FFE017" mask="url(#c)"><path fill-rule="evenodd" d="M11.43 4h1v2.699h-1zm0 13.492h1v2.506h-1z" clip-rule="evenodd"/><path d="m4.315 12.404-.28-.717q4.626-1.848 6.994-2.384 3.477-.788 7.641-1.166l.068.768q-4.116.375-7.543 1.15c-1.533.348-3.829 1.13-6.88 2.349"/><path d="m19.14 7.663-.227.736q-3.498-1.102-5.69-.954l-.051-.77q2.35-.156 5.968.988m.808 4.118-.431.636c-1.189-.825-2.654-1.24-4.404-1.24v-.77q2.849-.002 4.835 1.374"/><path d="m19.302 12.012.197.745q-3.843 1.041-7.218 1.18-3.397.14-7.922-1.182l.212-.741q4.415 1.289 7.68 1.153 3.285-.135 7.051-1.155"/><path d="m19.013 15.635-1.205 1.234c-2.288-2.286-4.303-3.921-6.032-4.903q-2.638-1.5-6.876-3.04l.58-1.633q4.36 1.583 7.135 3.16c1.88 1.068 4.009 2.795 6.397 5.182m-13.554.702-.456-.618a9 9 0 0 1 1.188-.722c.85-.432 1.703-.701 2.517-.726l.118-.002v.772l-.096.001c-.685.02-1.438.259-2.198.644a8.5 8.5 0 0 0-1.073.65"/><path d="m5.813 16.602.191-.746c2.54.669 4.499 1.002 5.865 1.002 1.362 0 3.389-.393 6.067-1.182l.213.74c-2.742.808-4.83 1.213-6.28 1.213q-2.164 0-6.056-1.027m-.991-6.909L6.03 8.46l1.768 1.774-1.207 1.232z"/><path d="m14.836 15.85.898-1.479 2.803 1.745-.897 1.477z"/></g><path fill="#F9E813" fill-rule="evenodd" d="M4.191 11.999c0 4.311 3.454 7.807 7.715 7.807s7.714-3.496 7.714-7.807c0-4.312-3.454-7.808-7.714-7.808S4.19 7.687 4.19 12m14.477.096c0 3.726-2.985 6.747-6.667 6.747s-6.667-3.02-6.667-6.747S8.318 5.349 12 5.349s6.667 3.02 6.667 6.747" clip-rule="evenodd"/><path fill="#fff" d="M7.656 7.184v6.26q.618 3.717 4.166 3.717 3.547 0 4.165-3.717v-6.26z"/><path fill="#C51918" d="M7.086 6.605h9.474v6.888l-.008.047c-.458 2.752-2.08 4.2-4.73 4.2-2.648 0-4.27-1.448-4.728-4.2l-.008-.047z"/><path fill="#F7FCFF" d="M9.252 8.71h5.14v4.442s-.382 2.293-2.57 2.293c-2.189 0-2.57-2.293-2.57-2.293z"/><path fill="#F9E813" fill-rule="evenodd" d="M8 7.086h.723v.482H8z" clip-rule="evenodd"/><path fill="#060101" fill-rule="evenodd" d="M7.62 7.277h1.332v.241H7.62z" clip-rule="evenodd"/><path fill="#F9E813" fill-rule="evenodd" d="M7.62 7.469h.722v.24h-.723zm.76 0h.724v.24H8.38zm-.76.578h.48v.723h-.48zm.952 0h.482v.723h-.482zm-.381 0h.241v.723h-.24z" clip-rule="evenodd"/><path fill="#060101" fill-rule="evenodd" d="M7.62 7.855h1.332v.241H7.62zm0 .579h1.332v.24H7.62z" clip-rule="evenodd"/><path fill="#F9E813" fill-rule="evenodd" d="M7.809 7.664h.24v.241h-.24zm.763 0h.241v.241h-.24zm-.381-.195h.241v.482h-.24zm3.429-.383h.722v.482h-.723z" clip-rule="evenodd"/><path fill="#060101" fill-rule="evenodd" d="M11.238 7.277h1.334v.241h-1.334z" clip-rule="evenodd"/><path fill="#F9E813" fill-rule="evenodd" d="M11.238 7.469h.723v.24h-.723zm.762 0h.723v.24H12zm-.762.578h.482v.723h-.482zm.953 0h.482v.723h-.482zm-.382 0h.24v.723h-.24z" clip-rule="evenodd"/><path fill="#060101" fill-rule="evenodd" d="M11.238 7.855h1.334v.241h-1.334zm0 .579h1.334v.24h-1.334z" clip-rule="evenodd"/><path fill="#F9E813" fill-rule="evenodd" d="M11.428 7.664h.24v.241h-.24zm.763 0h.241v.241h-.24zm-.382-.195h.24v.482h-.24zm3.238-.383h.723v.482h-.723z" clip-rule="evenodd"/><path fill="#060101" fill-rule="evenodd" d="M14.666 7.277h1.333v.241h-1.333z" clip-rule="evenodd"/><path fill="#F9E813" fill-rule="evenodd" d="M14.666 7.469h.723v.24h-.723zm.762 0h.723v.24h-.723zm-.762.578h.482v.723h-.482zm.954 0h.481v.723h-.482zm-.382 0h.241v.723h-.24z" clip-rule="evenodd"/><path fill="#060101" fill-rule="evenodd" d="M14.666 7.855h1.333v.241h-1.333zm0 .579h1.333v.24h-1.333z" clip-rule="evenodd"/><path fill="#F9E813" fill-rule="evenodd" d="M14.857 7.664h.241v.241h-.24zm.763 0h.24v.241h-.24zm-.382-.195h.241v.482h-.24zm-.191 3.086h.723v.482h-.723z" clip-rule="evenodd"/><path fill="#060101" fill-rule="evenodd" d="M14.666 10.746h1.333v.241h-1.333z" clip-rule="evenodd"/><path fill="#F9E813" fill-rule="evenodd" d="M14.666 10.941h.723v.241h-.723zm.762 0h.723v.241h-.723zm-.762.579h.482v.722h-.482zm.954 0h.481v.722h-.482zm-.382 0h.241v.722h-.24z" clip-rule="evenodd"/><path fill="#060101" fill-rule="evenodd" d="M14.666 11.324h1.333v.241h-1.333zm0 .578h1.333v.241h-1.333z" clip-rule="evenodd"/><path fill="#F9E813" fill-rule="evenodd" d="M14.857 11.133h.241v.24h-.24zm.763 0h.24v.24h-.24zm-.382-.192h.241v.482h-.24zM8 10.555h.723v.482H8z" clip-rule="evenodd"/><path fill="#060101" fill-rule="evenodd" d="M7.62 10.746h1.332v.241H7.62z" clip-rule="evenodd"/><path fill="#F9E813" fill-rule="evenodd" d="M7.62 10.941h.722v.241h-.723zm.76 0h.724v.241H8.38zm-.76.579h.48v.722h-.48zm.952 0h.482v.722h-.482zm-.381 0h.241v.722h-.24z" clip-rule="evenodd"/><path fill="#060101" fill-rule="evenodd" d="M7.62 11.324h1.332v.241H7.62zm0 .578h1.332v.241H7.62z" clip-rule="evenodd"/><path fill="#F9E813" fill-rule="evenodd" d="M7.809 11.133h.24v.24h-.24zm.763 0h.241v.24h-.24zm-.381-.192h.241v.482h-.24zm.272 3.964.465-.553.369.31-.465.553z" clip-rule="evenodd"/><path fill="#060101" fill-rule="evenodd" d="m8.367 15.318.857-1.021.185.155-.857 1.021z" clip-rule="evenodd"/><path fill="#F9E813" fill-rule="evenodd" d="m8.514 15.444.464-.553.185.155-.465.553zm.49-.585.465-.554.184.155-.465.553zm-.047.956.31-.37.554.465-.31.37zm.613-.731.31-.37.554.466-.31.369zm-.246.292.155-.185.554.465-.155.185z" clip-rule="evenodd"/><path fill="#060101" fill-rule="evenodd" d="m8.809 15.693.857-1.021.184.155-.857 1.021zm.443.371.857-1.021.185.155-.857 1.021z" clip-rule="evenodd"/><path fill="#F9E813" fill-rule="evenodd" d="m8.785 15.423.155-.185.185.155-.155.185zm.488-.586.155-.185.185.155-.155.185zm-.393.168.156-.185.369.31-.155.185zm6.099-.54.464.554-.369.31-.465-.554z" clip-rule="evenodd"/><path fill="#060101" fill-rule="evenodd" d="m14.585 14.297.857 1.021-.184.155-.858-1.021z" clip-rule="evenodd"/><path fill="#F9E813" fill-rule="evenodd" d="m14.438 14.422.465.554-.184.155-.465-.554zm.491.586.464.554-.184.154-.465-.553zm-.934-.215.31.37-.554.464-.31-.37zm.611.73.31.37-.554.464-.31-.369zm-.244-.293.155.185-.553.465-.155-.185z" clip-rule="evenodd"/><path fill="#060101" fill-rule="evenodd" d="M14.144 14.672 15 15.693l-.185.155-.857-1.021zm-.444.371.857 1.021-.184.155-.857-1.021z" clip-rule="evenodd"/><path fill="#F9E813" fill-rule="evenodd" d="m14.413 14.691.155.185-.185.155-.154-.185zm.49.586.155.185-.184.155-.155-.185zm-.098-.417.155.184-.37.31-.155-.185z" clip-rule="evenodd"/><path fill="#013399" fill-rule="evenodd" d="M12.559 9.203h-1.32v.962s.097.496.66.496c.562 0 .66-.496.66-.496zm-.75.386a.19.19 0 0 1-.19.192.19.19 0 0 1-.19-.192c0-.107.085-.193.19-.193s.19.086.19.193m-.19.963c.105 0 .19-.086.19-.192a.19.19 0 0 0-.19-.193.19.19 0 0 0-.19.193c0 .106.085.193.19.193m.762-.192a.19.19 0 0 1-.19.193.19.19 0 0 1-.19-.193c0-.107.085-.193.19-.193s.19.086.19.193m-.476-.193c.105 0 .19-.086.19-.193a.19.19 0 0 0-.19-.193.19.19 0 0 0-.19.193c0 .107.085.193.19.193m.476-.578a.19.19 0 0 1-.19.192.19.19 0 0 1-.19-.192c0-.107.085-.193.19-.193s.19.086.19.193m.178 1.734h-1.32v.962s.097.496.66.496c.562 0 .66-.496.66-.496zm-.75.386a.19.19 0 0 1-.19.192.19.19 0 0 1-.19-.192c0-.107.085-.193.19-.193s.19.086.19.193m-.19.964c.105 0 .19-.087.19-.193a.19.19 0 0 0-.19-.193.19.19 0 0 0-.19.193c0 .106.085.193.19.193m.762-.193a.19.19 0 0 1-.19.193.19.19 0 0 1-.19-.193c0-.107.085-.193.19-.193s.19.086.19.193m-.476-.193c.105 0 .19-.086.19-.193a.19.19 0 0 0-.19-.193.19.19 0 0 0-.19.193c0 .107.085.193.19.193m.476-.578a.19.19 0 0 1-.19.192.19.19 0 0 1-.19-.192c0-.107.085-.193.19-.193s.19.086.19.193m1.892-.386h-1.32v.962s.098.496.66.496.66-.496.66-.496zm-.748.386a.19.19 0 0 1-.191.192.19.19 0 0 1-.19-.192c0-.107.085-.193.19-.193s.19.086.19.193m-.191.964c.105 0 .19-.087.19-.193a.19.19 0 0 0-.19-.193.19.19 0 0 0-.19.193c0 .106.085.193.19.193m.762-.193a.19.19 0 0 1-.19.193.19.19 0 0 1-.191-.193c0-.107.085-.193.19-.193a.19.19 0 0 1 .19.193m-.476-.193c.105 0 .19-.086.19-.193a.19.19 0 0 0-.19-.193.19.19 0 0 0-.19.193c0 .107.085.193.19.193m.476-.578a.19.19 0 0 1-.19.192.19.19 0 0 1-.191-.192c0-.107.085-.193.19-.193a.19.19 0 0 1 .19.193m-3.249-.386h-1.32v.962s.097.496.66.496c.562 0 .66-.496.66-.496zm-.75.386a.19.19 0 0 1-.19.192.19.19 0 0 1-.19-.192c0-.107.085-.193.19-.193a.19.19 0 0 1 .19.193m-.19.964c.106 0 .19-.087.19-.193a.19.19 0 0 0-.19-.193.19.19 0 0 0-.19.193c0 .106.085.193.19.193m.762-.193a.19.19 0 0 1-.19.193.19.19 0 0 1-.19-.193c0-.107.085-.193.19-.193s.19.086.19.193m-.476-.193c.105 0 .19-.086.19-.193a.19.19 0 0 0-.19-.193.19.19 0 0 0-.19.193c0 .107.085.193.19.193m.476-.578a.19.19 0 0 1-.19.192.19.19 0 0 1-.19-.192c0-.107.085-.193.19-.193s.19.086.19.193m1.893 1.735h-1.32v.962s.097.496.66.496c.562 0 .66-.496.66-.496zm-.75.386a.19.19 0 0 1-.19.193.19.19 0 0 1-.19-.193c0-.107.085-.193.19-.193s.19.086.19.193m-.19.964c.105 0 .19-.087.19-.193a.19.19 0 0 0-.19-.193.19.19 0 0 0-.19.193c0 .106.085.193.19.193m.762-.193a.19.19 0 0 1-.19.193.19.19 0 0 1-.19-.193c0-.107.085-.193.19-.193s.19.086.19.193m-.476-.193c.105 0 .19-.086.19-.193a.19.19 0 0 0-.19-.192.19.19 0 0 0-.19.192c0 .107.085.193.19.193m.476-.578a.19.19 0 0 1-.19.193.19.19 0 0 1-.19-.193c0-.107.085-.193.19-.193s.19.086.19.193" clip-rule="evenodd"/></g></g><defs><clipPath id="a"><path fill="#fff" d="M0 0h32v24H0z"/></clipPath></defs></svg>