<svg xmlns="http://www.w3.org/2000/svg" width="32" height="24" fill="none" viewBox="0 0 32 24"><g clip-path="url(#a)"><mask id="b" width="32" height="24" x="0" y="0" maskUnits="userSpaceOnUse" style="mask-type:luminance"><path fill="#fff" d="M32 0H0v24h32z"/></mask><g mask="url(#b)"><path fill="#fff" d="M32 0H0v24h32z"/><path fill="#F7FCFF" fill-rule="evenodd" d="M0 0v24h32V0z" clip-rule="evenodd"/><mask id="c" width="32" height="24" x="0" y="0" maskUnits="userSpaceOnUse" style="mask-type:luminance"><path fill="#fff" fill-rule="evenodd" d="M0 0v24h32V0z" clip-rule="evenodd"/></mask><g mask="url(#c)"><path stroke="#272727" stroke-width="0.35" d="M19.826 12a3.825 3.825 0 1 1-7.65 0 3.825 3.825 0 0 1 7.65 0Z"/><path fill="#272727" fill-rule="evenodd" d="M13 12a3 3 0 1 0 6 0 3 3 0 0 0-6 0m5.65 0a2.65 2.65 0 1 1-5.3 0 2.65 2.65 0 0 1 5.3 0" clip-rule="evenodd"/><path fill="#F05234" fill-rule="evenodd" d="M0 0v8h32V0z" clip-rule="evenodd"/><path fill="#3D58DB" fill-rule="evenodd" d="M0 16v8h32v-8z" clip-rule="evenodd"/><path fill="#73BE4A" d="m14.616 10.004.284.411c-.66.457-.958.993-.715 1.903.242.902.809 1.349 1.752 1.382l-.018.5c-1.162-.04-1.947-.517-2.245-1.631-.296-1.106.1-1.982.942-2.565"/><path fill="#FBCD17" fill-rule="evenodd" d="m16 12.314-.88.599.296-1.024-.842-.653 1.065-.034.362-1.003.361 1.003 1.065.034-.841.653.297 1.024z" clip-rule="evenodd"/><path stroke="#73BE4A" stroke-width="0.5" d="M17.167 10.176s1.126.78.721 2.291c-.405 1.512-1.984 1.567-1.984 1.567"/></g></g></g><defs><clipPath id="a"><path fill="#fff" d="M0 0h32v24H0z"/></clipPath></defs></svg>