<svg xmlns="http://www.w3.org/2000/svg" width="32" height="24" fill="none" viewBox="0 0 32 24"><g clip-path="url(#a)"><mask id="b" width="32" height="24" x="0" y="0" maskUnits="userSpaceOnUse" style="mask-type:luminance"><path fill="#fff" d="M32 0H0v24h32z"/></mask><g mask="url(#b)"><path fill="#fff" d="M32 0H0v24h32z"/><path fill="#4857A1" fill-rule="evenodd" d="M0 0v24h32V0z" clip-rule="evenodd"/><mask id="c" width="32" height="24" x="0" y="0" maskUnits="userSpaceOnUse" style="mask-type:luminance"><path fill="#fff" fill-rule="evenodd" d="M0 0v24h32V0z" clip-rule="evenodd"/></mask><g fill-rule="evenodd" clip-rule="evenodd" mask="url(#c)"><path fill="#C51918" d="M0 0v8h32V0z"/><path fill="#F7FCFF" d="M0 16v8h32v-8z"/><path fill="#F6C540" d="m11.456 3.805-.113-.453q.145.045.312.09l-.001-.005c1.32.12 3.36.803 3.74 1.529.147.28 0 .52-.19.833q-.045.07-.088.146-.144.245-.266.466c-.297.53-.528.944-.88 1.156l.007 1.201-5.895-.05-.008-1.214c-.301-.225-.517-.611-.786-1.093q-.123-.221-.266-.466l-.088-.146c-.191-.314-.337-.553-.19-.833.285-.546 1.579-1.077 2.765-1.357.233-.083.477-.16.718-.235l.108.078a6 6 0 0 1 .272-.03l.136.302h.48s.29.86.29 1.338-.29.874-.29.874v.33l.158.015q0-.044.008-.09c.028-.158.115-.274.194-.26.078.014.12.153.092.31l-.018.074c.311.042.66.101.99.162.125-.244.279-.485.425-.715.378-.594.71-1.115.4-1.427a.9.9 0 0 0-.302-.164 9.6 9.6 0 0 0-1.426-.244l-.015-.079zm2.24 2.88.27.057v.172c.585-.45.998-1.448 1.035-1.774.023-.197-.29-.424-.78-.63.232.44-.078.876-.468 1.423-.146.206-.304.428-.448.67l.143.03a.5.5 0 0 1 .018-.148c.042-.155.138-.263.216-.243s.106.163.064.318a.5.5 0 0 1-.05.125m-3.012-.417V5.9s-.251-.28-.29-.864c-.028-.418.058-.91.11-1.155-.375.047-.77.121-1.152.212-.254.071-.456.152-.546.242-.31.312.022.833.4 1.427.142.222.29.455.413.69.213-.046.427-.089.627-.123a1 1 0 0 1-.018-.1c-.014-.16.04-.295.12-.301s.155.116.17.276v.083zm-2.158-.335c-.399-.56-.714-1.003-.452-1.453-.574.222-.96.463-.938.66.036.308.406 1.216.94 1.695.037-.01.243-.068.535-.143a.5.5 0 0 1-.057-.122c-.05-.152-.028-.296.048-.32s.178.078.227.23a.5.5 0 0 1 .027.15l.117-.028a10 10 0 0 0-.447-.669"/><path fill="#2E42A5" d="M11.653 3.507a.644.644 0 0 1-.653.637.644.644 0 0 1-.652-.637c0-.351.292-.636.652-.636s.652.285.652.636M11 8.233c.28 0 .508-.13.508-.29s-.228-.29-.508-.29-.507.13-.507.29.227.29.507.29m-2.536-.072a.217.217 0 1 1-.435 0 .217.217 0 0 1 .435 0m5.797 0a.217.217 0 1 1-.435 0 .217.217 0 0 1 .435 0"/><path fill="#C5363C" d="M9.913 8.014c0 .12-.162.218-.362.218s-.363-.098-.363-.218.163-.217.363-.217.362.097.362.217m3.044 0c0 .12-.163.218-.363.218s-.362-.098-.362-.218.162-.217.362-.217.363.097.363.217"/><path fill="#F7FCFF" d="M12.232 6.204c0 .16-.065.29-.145.29s-.145-.13-.145-.29.065-.29.145-.29.145.13.145.29m-2.181-.045c.05.152.027.296-.049.32s-.178-.078-.227-.23-.028-.296.048-.32.178.078.228.23m-1.705.786c.076-.025.097-.168.048-.32-.05-.153-.151-.256-.227-.231s-.098.168-.049.32c.05.152.152.256.228.231m5.734-.197c-.085.136-.208.212-.276.17-.068-.043-.054-.188.03-.323.085-.136.21-.212.277-.17.068.043.054.187-.03.323"/><path fill="#fff" d="M9.769 3.79q.062.046.144.048a.245.245 0 1 0-.22-.355.244.244 0 0 0-.35.065.245.245 0 0 0-.4.211.244.244 0 0 0-.432.117.245.245 0 0 0-.432.1.244.244 0 0 0-.376.122.245.245 0 0 0-.35.177.246.246 0 0 0-.294.236.245.245 0 0 0-.285.29.246.246 0 0 0-.295.24c0 .104.064.192.154.228a.245.245 0 0 0 .144.29.245.245 0 0 0 .228.307.244.244 0 1 0 .164-.054.244.244 0 0 0-.063-.418.245.245 0 0 0-.145-.29.25.25 0 0 0 .003-.112.246.246 0 0 0 .295-.236.247.247 0 0 0 .286-.199.246.246 0 0 0 .282-.163.24.24 0 0 0 .253-.021.24.24 0 0 0 .041.09.245.245 0 0 0 .188.39.244.244 0 0 0 .063.416.245.245 0 0 0 .145.29.245.245 0 1 0 .328-.165.245.245 0 0 0-.145-.29.245.245 0 0 0-.227-.307.244.244 0 0 0 .043-.335.24.24 0 0 0 0-.29.24.24 0 0 0 .045-.107.244.244 0 0 0 .436-.174.244.244 0 0 0 .397-.02.244.244 0 0 0 .375-.08m-1.45.482c.08 0 .152-.04.197-.1a.25.25 0 0 0-.197-.1.045.045 0 1 0 0-.09.045.045 0 0 0 0 .09.24.24 0 0 0-.144.047.25.25 0 0 0-.096-.143.25.25 0 0 0 .042.196.24.24 0 0 0-.041.2.25.25 0 0 0 .096-.146q.062.046.143.046m0 .09a.25.25 0 0 0-.198.1c.045.06.117.1.198.1a.045.045 0 1 0 0 .09.045.045 0 0 0 0-.09c.08 0 .152-.04.197-.1a.25.25 0 0 0-.197-.1m0 0a.045.045 0 1 0 0-.09.045.045 0 0 0 0 .09m-.143-.136a.3.3 0 0 1-.055-.054.3.3 0 0 1 .054-.053.3.3 0 0 1 0 .107m.67 1.168a.244.244 0 0 0-.33.165.244.244 0 0 0 .33-.165m-.146-.29a.244.244 0 0 0-.328.165.244.244 0 0 0 .328-.164m-.227-.307h-.01a.24.24 0 0 0-.154.055h.01a.24.24 0 0 0 .154-.055M7.17 5.812h-.01a.24.24 0 0 0-.154.054h.01q.089-.001.154-.054m-.063-.418a.245.245 0 0 1-.329.165.245.245 0 0 1 .33-.165m-.145-.29a.245.245 0 0 1-.328.165.245.245 0 0 1 .328-.164m-.187-.302c.02.095.095.17.19.19a.25.25 0 0 0-.19-.19m.485-.046a.245.245 0 0 1-.2-.24V4.51c.114.021.2.121.2.241zm.286-.199a.245.245 0 0 1-.192-.282.245.245 0 0 1 .192.282m.282-.163a.245.245 0 0 1-.123-.296.245.245 0 0 1 .123.296m.734-.33a.24.24 0 0 1-.05-.188.24.24 0 0 1 .05.189m.383-.304q.008.075.053.131a.24.24 0 0 0-.053-.131m.45.11a.244.244 0 0 1-.05-.322.244.244 0 0 1 .05.322m.375-.08a.245.245 0 0 1-.075-.307.245.245 0 0 1 .075.308m-2.465.77a.045.045 0 1 0 0-.09.045.045 0 0 0 0 .09m-.29.237a.045.045 0 1 0 0-.09.045.045 0 0 0 0 .09m-.29.29a.045.045 0 1 0 0-.09.045.045 0 0 0 0 .09m.145.29a.045.045 0 1 0 0-.09.045.045 0 0 0 0 .09m.145.29a.045.045 0 1 0 0-.09.045.045 0 0 0 0 .09m.19.39a.045.045 0 1 1-.09 0 .045.045 0 0 1 .09 0m.39-1.695a.045.045 0 1 0 0-.09.045.045 0 0 0 0 .09m.342-.142a.045.045 0 1 0 0-.09.045.045 0 0 0 0 .09m.817-.262a.045.045 0 1 0 0-.09.045.045 0 0 0 0 .09m.435-.176a.045.045 0 1 0 0-.09.045.045 0 0 0 0 .09m.362-.056a.045.045 0 1 0 0-.09.045.045 0 0 0 0 .09m.363-.088a.045.045 0 1 0 0-.09.045.045 0 0 0 0 .09M8.465 5.09a.045.045 0 1 0 0-.09.045.045 0 0 0 0 .09m.145.29a.045.045 0 1 0 0-.09.045.045 0 0 0 0 .09m.145.29a.045.045 0 1 0 0-.09.045.045 0 0 0 0 .09m6.377.434a.045.045 0 1 0 0-.09.045.045 0 0 0 0 .09m-.245-.045a.245.245 0 1 0 .4-.19.245.245 0 0 0 .227-.307.245.245 0 0 0 .145-.29.245.245 0 0 0-.142-.467.245.245 0 0 0-.578-.527.245.245 0 0 0-.351-.177.245.245 0 0 0-.376-.122.245.245 0 0 0-.432-.1.245.245 0 0 0-.433-.116l.001-.022a.245.245 0 0 0-.4-.19.245.245 0 0 0-.35-.065.245.245 0 1 0-.075.308.245.245 0 0 0 .374.08.245.245 0 0 0 .397.02v.022a.245.245 0 0 0 .437.152q.01.06.044.107a.24.24 0 0 0 0 .29.244.244 0 0 0 .043.335.245.245 0 0 0-.227.308.245.245 0 0 0-.145.29.245.245 0 1 0 .329.164.245.245 0 0 0 .145-.29.245.245 0 0 0 .062-.417.245.245 0 0 0 .188-.39.24.24 0 0 0 .041-.09.24.24 0 0 0 .254.022.245.245 0 0 0 .281.163.245.245 0 0 0 .286.199.245.245 0 0 0 .295.236.24.24 0 0 0 .003.113.245.245 0 0 0-.145.29.245.245 0 0 0-.062.417.245.245 0 0 0-.236.244m-.771-1.83c.013.06.047.112.095.147a.25.25 0 0 0-.04-.2.24.24 0 0 0 .041-.197.25.25 0 0 0-.095.143.24.24 0 0 0-.144-.047.045.045 0 1 0 0-.09.045.045 0 0 0 0 .09.25.25 0 0 0-.198.1c.045.06.117.1.198.1a.045.045 0 0 0 0 .09.25.25 0 0 0-.198.1c.045.06.117.1.198.1a.045.045 0 1 0 0 .09.045.045 0 0 0 0-.09c.08 0 .153-.04.197-.1a.25.25 0 0 0-.197-.1.045.045 0 0 0 0-.09.24.24 0 0 0 .143-.046m0 0a.3.3 0 0 0 .054-.054.3.3 0 0 0-.053-.053.3.3 0 0 0-.001.107m-.341 1.333a.245.245 0 0 0-.329-.165.245.245 0 0 0 .329.165m.145-.29a.245.245 0 0 0-.329-.164.245.245 0 0 0 .329.164m.062-.417a.24.24 0 0 0-.154-.055h-.01a.24.24 0 0 0 .155.055zM12.52 3.79a.244.244 0 0 0 .076-.308.244.244 0 0 0-.075.308m.376.08a.244.244 0 0 0 .05-.323.244.244 0 0 0-.05.322m.45-.111a.24.24 0 0 1-.054.131.24.24 0 0 1 .053-.131m.383.305a.24.24 0 0 0 .05-.189.24.24 0 0 0-.05.189m.734.329a.245.245 0 0 0 .123-.296.245.245 0 0 0-.123.296m.281.163a.245.245 0 0 0 .193-.282.245.245 0 0 0-.193.282m.581.435a.25.25 0 0 0 .19-.19.25.25 0 0 0-.19.19m-.095-.48v.003c0 .12-.086.22-.2.24V4.75c0-.12.086-.22.2-.24m.098.593a.244.244 0 0 1 .329.164.244.244 0 0 1-.329-.164m-.145.29a.244.244 0 0 1 .329.164.244.244 0 0 1-.329-.165m.092.472a.24.24 0 0 1-.154-.055h.01q.089.002.154.054zm0-.2a.045.045 0 1 0 0-.09.045.045 0 0 0 0 .09m.145-.29a.045.045 0 1 0 0-.09.045.045 0 0 0 0 .09m.145-.29a.045.045 0 1 0 0-.09.045.045 0 0 0 0 .09m-.29-.29a.045.045 0 1 0 0-.09.045.045 0 0 0 0 .09m-.29-.237a.045.045 0 1 0 0-.09.045.045 0 0 0 0 .09m-.29-.198a.045.045 0 1 0 0-.09.045.045 0 0 0 0 .09m-.342-.142a.045.045 0 1 0 0-.09.045.045 0 0 0 0 .09m-.817-.262a.045.045 0 1 0 0-.09.045.045 0 0 0 0 .09m-.435-.176a.045.045 0 1 0 0-.09.045.045 0 0 0 0 .09m-.361-.056a.045.045 0 1 0 0-.09.045.045 0 0 0 0 .09m-.363-.088a.045.045 0 1 0 0-.09.045.045 0 0 0 0 .09m1.449 1.449a.045.045 0 1 0 0-.09.045.045 0 0 0 0 .09m-.145.29a.045.045 0 1 0 0-.09.045.045 0 0 0 0 .09m-.145.29a.045.045 0 1 0 0-.09.045.045 0 0 0 0 .09"/><path fill="#F6C540" d="m11.101 2.152-.215.004v.353h-.396l.005.214h.392v.403l.215-.004v-.399h.39l-.005-.214h-.385z"/><path fill="#C51918" d="M5.785 8.734h10.4v8.834s-.314 4.4-5.2 4.4c-4.885 0-5.2-4.4-5.2-4.4z"/><path fill="#E8AA00" d="M8.924 9.04c-.095 0-.242.068-.437.145-.194.078-.399.245-.2.413.2.168.486.536.486.398s.341-.271.341-.204c0 .066-.106.204.171.204s.42.082.125.082c-.296 0-.328.135-.52.135s-.602-.136-.602-.217.237.397.485.397.388.233.512.117c.125-.117.11-.117.31-.117.201 0 .128-.47.128-.47s-.704-.884-.799-.884m4.013.001c.095 0 .242.068.437.145.194.078.399.245.2.413-.2.168-.486.536-.486.398s-.341-.271-.341-.204c0 .066.105.204-.171.204-.277 0-.42.082-.125.082.296 0 .328.135.52.135s.602-.136.602-.217-.237.397-.485.397-.388.233-.512.117c-.125-.117-.11-.117-.31-.117-.201 0-.128-.47-.128-.47s.704-.884.799-.884"/><path fill="#F7FCFF" d="M14.212 10.001c.2.465-1.328 2.192-1.328 2.192h-.171c-.072 0-.206-.177-.367-.39a6 6 0 0 0-.36-.446c-.237-.255-.112-.47.005-.67.036-.061.071-.121.095-.18a1 1 0 0 0 .066-.24c.008-.056.017-.12.067-.266.074-.215.33-.492.509-.684.069-.074.126-.136.156-.176.095-.128.023-.127-.176-.125h-.09c-.264 0-.77.125-.921.27s-.31.176-.543.176-.09.157.123.263c-.229.043-.375.424-.461.763-.047-.339-.15-.72-.38-.763.213-.106.357-.263.123-.263-.232 0-.391-.031-.542-.176s-.658-.27-.923-.27h-.088c-.2-.002-.272-.003-.176.125.03.04.087.102.156.176.178.192.434.47.508.684.05.147.059.21.067.267s.016.11.067.238c.023.06.058.12.094.181.117.2.242.415.006.67-.126.136-.25.3-.36.446-.162.213-.295.39-.367.39H8.83s-1.528-1.727-1.33-2.192c.077-.18.201-.349.304-.489.163-.222.273-.371.053-.371-.357 0-1.782.903-1.782 2.94s.132 3.196.437 4.008c.209.554.018 1.092-.125 1.493-.066.187-.121.343-.121.459 0 .362.56.044.56-.183 0-.107.077.053.158.222.089.186.182.38.182.236 0-.154.09-.317.168-.46.062-.114.118-.215.118-.29s.079-.072.167-.07c.111.005.238.01.238-.145 0-.104.04-.125.091-.15.083-.044.193-.1.193-.567 0-.346.07-.223.149-.083.073.13.155.275.199.083.004-.018.05-.099.107-.198.082-.144.188-.329.222-.422a3.2 3.2 0 0 1-.513 1.035c-.164.21-.448.665-.448.665s.265.147.448 0c.103-.083.11-.005.117.08.006.066.013.137.067.137q.051.002.095.01.03.007.057.008c-.062.156-.117.406.068.239.131-.12.224-.168.285-.2.07-.037.1-.052.1-.13 0-.077.028-.05.073-.01.04.036.09.083.146.083.072 0 .087-.1.108-.244.015-.097.032-.215.072-.336l.026-.081c.08-.25.117-.366.208-.051.042.147.117.251.182.342.09.123.16.222.107.37q-.032.087-.075.194c-.096.24-.214.535-.214.768 0 .138-.126.326-.244.503-.139.208-.267.4-.17.477.18.143-.038.625-.22.873-.181.247-.151.55.124.55.151 0 .233.054.307.103.061.041.117.079.203.079a.44.44 0 0 0 .289-.093s.116.176.31.176c.193 0 .232-.176.232-.176l.144.176.01-.77v.77l.44-.176s.04.176.234.176c.193 0 .31-.176.31-.176s.1.093.289.093c.085 0 .14-.038.202-.079a.5.5 0 0 1 .307-.104c.276 0 .306-.302.124-.55-.182-.247-.4-.73-.22-.872.097-.078-.031-.27-.17-.477-.118-.177-.243-.365-.243-.503 0-.233-.118-.528-.214-.768q-.044-.106-.075-.194c-.053-.148.017-.247.106-.37.065-.09.14-.195.182-.342.091-.316.129-.199.208.05l.026.082c.04.121.058.239.072.336.022.144.037.244.108.244.056 0 .107-.047.146-.083.045-.04.074-.067.074.01 0 .078.029.093.1.13.06.032.153.08.285.2.184.167.13-.083.068-.239q.026-.001.057-.007.042-.01.095-.011c.054 0 .06-.071.066-.138.008-.084.015-.162.117-.08.184.148.448 0 .448 0s-.284-.455-.448-.664a3.2 3.2 0 0 1-.512-1.035c.033.093.139.278.222.422.056.1.102.18.106.198.045.192.127.047.2-.083.08-.14.148-.263.148.083 0 .467.11.523.193.566.05.026.09.047.09.151 0 .154.128.15.24.146.088-.003.167-.006.167.07 0 .075.055.175.117.288.079.144.168.307.168.461 0 .145.094-.05.182-.236.081-.169.158-.33.158-.221 0 .226.56.544.56.181 0-.114-.055-.271-.121-.458-.143-.4-.333-.939-.125-1.493.306-.812.437-1.97.437-4.007S14.212 9.14 13.855 9.14c-.22 0-.11.149.053.371.103.14.227.31.304.49m-1.208 7.858c0-.051.035.006.068.09-.042.001-.068-.016-.068-.09m-4.362.09c.042.001.068-.016.068-.09 0-.051-.035.006-.068.09m.177-1.935"/><path fill="#E8AA00" d="M8.19 19.2c0-.14.359-.466.359-.466v.028c.05.04.371.306.371.435 0 .08-.041.197-.077.297-.026.075-.05.14-.05.174 0 .022.01.006.028-.025.044-.077.14-.243.275-.132.18.148.178.365.177.503v.024c0 .043 0 .043-.006.022-.012-.044-.05-.181-.17-.181-.177 0-.304.159-.304.159v.272s.023.225.127.112c.105-.112.128.139 0 .139-.064 0-.131.069-.197.136-.062.065-.124.128-.18.128v-.022c-.055-.005-.1-.06-.145-.117-.05-.062-.1-.125-.165-.125-.127 0-.105-.25 0-.139.105.113.127-.112.127-.112v-.272s-.127-.16-.303-.16c-.12 0-.159.138-.171.182-.006.02-.006.021-.006-.022v-.024c0-.138-.002-.355.177-.503.135-.111.231.055.276.132.018.03.027.047.027.024a.6.6 0 0 0-.067-.172c-.048-.098-.104-.214-.104-.294m4.782-.001c0-.14.36-.466.36-.466v.028c.05.04.372.306.372.435 0 .08-.042.197-.077.297a.7.7 0 0 0-.05.174c0 .022.009.006.027-.025.044-.077.14-.243.276-.132.178.148.177.365.177.503v.024c0 .043 0 .043-.006.022-.013-.044-.051-.181-.171-.181-.176 0-.303.159-.303.159v.272s.022.225.127.112c.105-.112.127.139 0 .139-.065 0-.132.069-.197.136-.063.065-.124.128-.182.128v-.022c-.054-.005-.099-.06-.144-.117-.05-.062-.1-.125-.165-.125-.127 0-.105-.25 0-.139.105.113.127-.112.127-.112v-.272s-.127-.16-.303-.16c-.12 0-.159.138-.17.182-.007.02-.007.021-.007-.022v-.024c0-.138-.002-.355.177-.503.135-.111.231.055.276.132.018.03.027.047.027.024a.6.6 0 0 0-.067-.172c-.048-.098-.104-.214-.104-.294"/><path fill="#E8AA00" d="M7.83 18.36c.32 0 .386-.61.386-.61s.268-.278.268-.073c0 .11-.076.248-.134.353-.051.092-.088.158-.047.158h.444c.365 0-.065.172-.263.248-.09.035-.153.053-.214.07a2 2 0 0 0-.25.088c-.197.085-.28.644-.19.823.091.18-.09.104-.166 0-.042-.057-.072.022-.115.133-.034.088-.075.197-.137.272-.118.144-.117.016-.114-.258v-.147c0-.242.05-.245.121-.248a.2.2 0 0 0 .131-.042c.104-.083.116-.125.147-.233q.014-.053.042-.134c.075-.218-.327.126-.44.29-.07.098-.117.109-.19.125a.7.7 0 0 0-.18.063c-.126.064-.092-.062-.05-.216.024-.089.05-.186.05-.262 0-.13.079-.097.18-.054.06.025.127.054.19.054.162 0 .245-.069.349-.153l.016-.013c.083-.068-.097-.047-.312-.023l-.224.023c-.165.013-.176.003-.217-.034a.7.7 0 0 0-.204-.124c-.31-.134.199-.076.421 0 .124.043.228.014.351-.02.099-.026.209-.056.351-.056m6.215 0c-.32 0-.385-.61-.385-.61s-.269-.278-.269-.073c0 .11.076.248.135.353.05.092.087.158.047.158h-.444c-.366 0 .064.172.262.248.09.035.153.053.214.07.074.021.144.041.25.088.197.085.281.644.19.823-.09.18.091.104.166 0 .042-.057.072.022.115.133.034.088.076.197.137.272.118.144.117.016.114-.258v-.147c0-.242-.049-.245-.121-.248a.2.2 0 0 1-.131-.042c-.103-.083-.116-.125-.147-.233q-.014-.053-.042-.134c-.075-.218.327.126.44.29.07.098.118.109.19.125a.7.7 0 0 1 .18.063c.126.064.092-.062.05-.216a1 1 0 0 1-.05-.262c0-.13-.079-.097-.18-.054-.059.025-.126.054-.19.054-.161 0-.245-.069-.348-.153l-.017-.013c-.083-.068.098-.047.313-.023l.223.023c.165.013.176.003.217-.034a.7.7 0 0 1 .205-.124c.31-.134-.2-.076-.422 0-.124.043-.228.014-.351-.02a1.3 1.3 0 0 0-.35-.056"/><path fill="#C51918" d="M9.047 12.34h3.875v3.534s-.416 1.76-1.937 1.76-1.938-1.76-1.938-1.76z"/><path fill="#F7FCFF" d="M11.508 12.29h-1.015v2.028H9.044v.725h1.45v2.608h1.014v-2.608h1.449v-.725h-1.45z"/><path fill="#F7FCFF" d="M9.7 13.31c.098 0 .144-.081.093-.154a.097.097 0 0 0-.136-.017l-.056-.016a.1.1 0 0 0-.06 0c-.024.009-.037-.015-.026-.165.01-.042.068-.068.202-.068.244 0 .344.026.344.05v.358l-.119.107c-.057.05-.016.139.064.139h.055v.274q-.112.087-.2.086c-.218 0-.34-.082-.344-.178l.003-.063.02.006a.1.1 0 0 0 .061.001l.009-.002q.01-.005.015-.003t.002.03l-.001.027c-.001.045.039.083.089.084.05 0 .091-.035.092-.08.004-.159-.085-.25-.232-.219-.087-.026-.148-.023-.196.03-.034.04-.04.072-.043.19.007.2.218.34.525.34a.55.55 0 0 0 .353-.153.08.08 0 0 0 .028-.06v-.392a.08.08 0 0 0-.036-.065l.01-.008a.08.08 0 0 0 .026-.057v-.393c0-.167-.173-.212-.525-.212-.208 0-.344.06-.38.206-.021.248.052.396.234.354a.5.5 0 0 0 .13.024m2.546-.154c-.052.073-.005.155.092.155a.5.5 0 0 0 .13-.024c.181.042.255-.106.234-.354-.036-.145-.172-.206-.38-.206-.352 0-.525.045-.525.212v.393q.001.033.026.057l.01.008a.08.08 0 0 0-.036.065v.393q0 .034.028.059.175.151.352.153c.307 0 .519-.14.526-.34-.004-.117-.009-.15-.044-.19-.047-.053-.108-.056-.195-.03-.147-.03-.236.06-.232.219 0 .045.042.08.092.08.05-.001.09-.039.089-.084l-.001-.027q-.002-.029.002-.03.004-.002.015.003l.008.002a.1.1 0 0 0 .063 0l.018-.007.003.063c-.003.096-.126.178-.344.178q-.088.001-.199-.085v-.275h.054c.081 0 .121-.088.064-.14l-.118-.106v-.359c0-.023.1-.049.344-.049.134 0 .191.026.202.068.011.15-.002.174-.026.166a.1.1 0 0 0-.06 0l-.056.015-.01-.007a.1.1 0 0 0-.126.024m.305.5h-.004zm-.213 2.263c-.097 0-.143-.082-.092-.154a.097.097 0 0 1 .136-.017l.056-.016a.1.1 0 0 1 .06 0c.024.008.037-.016.026-.166-.011-.041-.068-.067-.202-.067-.244 0-.344.026-.344.049v.358l.118.107c.057.052.017.14-.064.14h-.054v.274q.11.086.2.085c.217 0 .34-.081.343-.177l-.003-.063-.019.006a.1.1 0 0 1-.062 0l-.008-.002q-.011-.004-.015-.002t-.002.03v.027c.002.045-.038.082-.088.083s-.091-.035-.092-.08c-.004-.158.085-.25.232-.218.087-.026.148-.023.195.03.035.04.04.072.044.189-.007.2-.219.34-.526.34a.55.55 0 0 1-.352-.152.08.08 0 0 1-.028-.06v-.392q.002-.041.035-.065l-.009-.008a.08.08 0 0 1-.026-.058v-.392c0-.168.173-.213.525-.213.208 0 .344.062.38.207.02.248-.053.396-.234.353a.5.5 0 0 1-.13.024m-2.637 0c.097 0 .143-.082.092-.154a.097.097 0 0 0-.136-.017l-.056-.016a.1.1 0 0 0-.06 0c-.024.008-.037-.016-.026-.166.01-.041.068-.067.202-.067.244 0 .344.026.344.049v.358l-.119.107c-.057.052-.016.14.064.14h.055v.274q-.112.086-.2.085c-.218 0-.34-.081-.344-.177l.003-.063.02.006a.1.1 0 0 0 .061 0l.009-.002q.01-.004.015-.002t.002.03l-.001.027c-.001.045.039.082.089.083s.091-.035.092-.08c.004-.158-.085-.25-.232-.218-.087-.026-.148-.023-.196.03-.034.04-.04.072-.043.189.007.2.218.34.525.34a.55.55 0 0 0 .353-.152.08.08 0 0 0 .028-.06v-.392a.08.08 0 0 0-.036-.065l.01-.008a.08.08 0 0 0 .026-.058v-.392c0-.168-.173-.213-.525-.213-.208 0-.344.062-.38.207-.021.248.052.396.234.353a.5.5 0 0 0 .13.024"/></g></g></g><defs><clipPath id="a"><path fill="#fff" d="M0 0h32v24H0z"/></clipPath></defs></svg>