<svg xmlns="http://www.w3.org/2000/svg" width="32" height="24" fill="none" viewBox="0 0 32 24"><g clip-path="url(#a)"><mask id="b" width="32" height="24" x="0" y="0" maskUnits="userSpaceOnUse" style="mask-type:luminance"><path fill="#fff" d="M32 0H0v24h32z"/></mask><g mask="url(#b)"><path fill="#fff" d="M32 0H0v24h32z"/><path fill="#FECA00" fill-rule="evenodd" d="M0 0v24h32V0z" clip-rule="evenodd"/><mask id="c" width="32" height="24" x="0" y="0" maskUnits="userSpaceOnUse" style="mask-type:luminance"><path fill="#fff" fill-rule="evenodd" d="M0 0v24h32V0z" clip-rule="evenodd"/></mask><g fill-rule="evenodd" clip-rule="evenodd" mask="url(#c)"><path fill="#3CA5D9" d="M0 0v14h32V0z"/><path fill="#5A962A" d="M0 18v6h32v-6z"/><path fill="#FFDC17" d="M24.082 11.866a4 4 0 0 1-.186 0l-.604 1.974-.128-2.056a4 4 0 0 1-.182-.042l-1.047 1.78.355-2.027a4 4 0 0 1-.17-.083l-1.43 1.49.815-1.888a4 4 0 0 1-.146-.12l-1.738 1.122 1.233-1.649q-.06-.075-.116-.152l-1.95.695 1.58-1.32a4 4 0 0 1-.077-.177l-2.055.23 1.843-.923a4 4 0 0 1-.034-.19l-2.05-.245 2.007-.477a4 4 0 0 1 .01-.195l-1.937-.705 2.063-.006q.025-.095.057-.188l-1.72-1.127 2.01.464q.046-.085.098-.169l-1.41-1.49 1.848.912q.065-.073.135-.142L20.129 3.39l1.587 1.308q.08-.054.164-.106l-.586-1.96 1.24 1.636a4 4 0 0 1 .184-.066l-.114-2.042.826 1.877q.096-.013.193-.021L23.989 2l.366 2.017q.097.009.192.022l.827-1.879-.114 2.047q.09.03.18.065l1.244-1.64-.588 1.967q.08.051.16.105l1.593-1.314-1.032 1.781q.067.067.13.138l1.859-.916-1.42 1.498q.049.08.095.163l2.022-.467-1.732 1.135q.03.09.054.18l2.078.006-1.952.71q.008.093.01.186l2.023.481-2.066.246q-.014.092-.033.183l1.857.93-2.069-.233a4 4 0 0 1-.074.17l1.59 1.329-1.96-.699q-.054.075-.112.147l1.24 1.658-1.747-1.128q-.069.06-.141.117l.82 1.898-1.437-1.496a4 4 0 0 1-.165.082l.356 2.033-1.049-1.783-.18.042-.128 2.059zm-.136-1.451c1.4 0 2.536-1.12 2.536-2.5s-1.136-2.498-2.536-2.498-2.536 1.118-2.536 2.499c0 1.38 1.135 2.499 2.536 2.499m1.458-2.426a1.43 1.43 0 1 1-2.858 0 1.43 1.43 0 0 1 2.858 0"/></g></g></g><defs><clipPath id="a"><path fill="#fff" d="M0 0h32v24H0z"/></clipPath></defs></svg>