<svg xmlns="http://www.w3.org/2000/svg" width="32" height="24" fill="none" viewBox="0 0 32 24"><g clip-path="url(#a)"><mask id="b" width="32" height="24" x="0" y="0" maskUnits="userSpaceOnUse" style="mask-type:luminance"><path fill="#fff" d="M32 0H0v24h32z"/></mask><g mask="url(#b)"><path fill="#fff" d="M32 0H0v24h32z"/><path fill="#67BD23" d="M32 0H0v24h32z"/><path fill="#fff" fill-rule="evenodd" d="M14.439 4.073c-.13.198-.236.482-.236.614v.039c-.002.15-.006.43.172.237.194-.211.382-.459.34-.65-.04-.191-.146-.438-.277-.24m-1.815.454c0-.274.336-.482.427-.482s0 .243-.166.346c-.122.076-.026.114.09.159.04.016.084.033.122.053.14.076-.046.273-.26.337-.213.064-.213-.14-.213-.413m-.332.332c-.12.284-.348.838-.138 1.28l.072.152c.173.376.315.682.631.639.336-.046.491-.648.543-.848l.008-.033c.041-.153.209-.41.253-.247.022.082.01.24 0 .394-.012.153-.022.303 0 .374.044.142.25.774.713.626.243-.078.4-.252.524-.389.111-.123.195-.216.291-.183.078.027.157.127.243.236.138.174.295.374.5.336.264-.049.455-.333.576-.514q.047-.07.08-.112c.081-.1.12-.04.173.041q.026.041.059.083c.09.108.27.181.391 0 .122-.182.303-.734.069-.645l-.015.006c-.234.089-.562.214-.677-.017-.119-.236-.44-.967-.28-.967.162 0 .428 0 .373-.261s.498.585.599.762c.02.034.059.107.11.201.219.4.658 1.204.746 1.272.095.071.174 1.475.195 2.108a2 2 0 0 0-.286-.014c-.374 0-.674.042-.916.075-.267.037-.464.065-.616.017-.085-.027-.187-.044-.275-.06-.212-.035-.351-.06-.024-.174.093-.033.2-.06.31-.088.442-.112.95-.24.91-.812-.05-.715-.145-1.03-.683-.935s-.707.522-.707.935c0 .347-.046.351-.19.365q-.043.004-.097.012l-.082.012c-.276.037-.86.116-1.23.653-.353.509-.31-.24-.289-.604l.007-.15c0-.208-.072-.393-.235-.763l-.012-.028c-.16-.364-.345-.785-.605-.384-.267.412.048.994.162 1.085.113.09.7 1.37.124 2.004-.577.633-1.393 1.256-1.613 1.056s-.35-.324-.101-.485c.04-.026.107-.058.188-.097.418-.2 1.237-.593 1.083-1.43a7.5 7.5 0 0 0-.244-.993c-.05-.157-.064-.202-.01-.202l.045.002c.105.007.215.014.094-.308-.139-.37-.337-.788-.703-.378-.367.41-.22.665 0 .921.219.257.592.713.165 1.12-.131.125-.251.25-.354.358-.233.244-.38.398-.38.255 0-.206-.062-.481-.173-.24q-.031.07-.064.157c-.092.24-.21.544-.518.674-.382.16-1.238.796-1.238.796s-.563.501-.304.458.926-.233 1.108-.389.622-.265.622-.265.512.966 1.048.81 1.726-1.46 1.726-1.46.736 1.01 1.562 1.077 1.031-.205.801-.381c-.061-.047-.15-.098-.244-.152-.256-.147-.551-.317-.438-.494.155-.242.475-.322 1.022-.41q.12-.019.24-.035c.456-.062.862-.117.975-.526.06-.215.256-.358.382-.45l.06-.044.002.147c0 .38-.015 1.646-.065 1.787s.258.05.348-.101l.006-.01c.09-.151.216-.364.216-.685 0-.05 0-.124.002-.213.005-.485.016-1.427-.076-1.641-.108-.254-.073-.501 0-.438.034.03.26.461.505.932.287.55.602 1.155.67 1.227.077.082.112-.12.147-.322.022-.124.043-.25.075-.308.083-.155.15-.275.15 0l.001.086c.007.319.022.949-.521 1.31q-.286.191-.493.336c-.294.204-.48.332-.596.362-.173.043-.146.37.063.37l.057.002c.283.009 1.102.035 1.598-.907.474-.9.18-3.739.105-4.449a3 3 0 0 1-.015-.16 1 1 0 0 0-.049-.193c-.063-.212-.158-.53-.09-.691.056-.13.088-.112.125-.093.029.016.06.032.107-.02.105-.118.231-.287 0-.583a1.7 1.7 0 0 1-.198-.37c-.1-.226-.176-.4-.311-.214-.21.288-.309 1.126-.207 1.533.101.407.548 3.65.274 3.38-.162-.16-.31-.465-.473-.797a8 8 0 0 0-.367-.693c-.33-.534-.974-1.613-.797-1.934.052-.094.096-.157.13-.206.083-.119.108-.155.048-.347a1 1 0 0 0-.223-.359 1.5 1.5 0 0 1-.211-.303c-.135-.274-.419-.448-.419-.19 0 .259-.144.527-.233.264-.09-.264-.567-.827-.8-.633-.145.122-.113.194-.084.257.017.037.032.072.009.112l-.034.065c-.052.105-.106.214-.175.05q-.02-.05-.041-.118c-.075-.228-.177-.543-.5-.242-.384.36-.426.73-.213.943.214.212.535.719.374.951-.16.232-.46.405-.606.158a1.2 1.2 0 0 1-.165-.874c.064-.351.162-1.426-.26-1.302-.42.124-.376.746-.276 1.024s.156.738.078.894l-.008.018c-.085.172-.308.622-.544.469-.245-.159-.427-.61-.314-1.032.114-.422.039-1.093-.306-.888-.346.205-.733.861-.733 1.197s-.137.741-.278.494l-.023-.04c-.141-.245-.334-.58-.23-.915.112-.352-.078-.767-.198-.482m-6.631-.62c-.02.026-.005.043.027.08.04.045.105.12.167.275.05.125.065.308.077.452.014.182.024.3.095.153.126-.262.192-.831 0-.96-.193-.128-.324-.057-.366 0m2.497.545c-.38 0-.328-.556-.328-.556s0-.053.167-.053c.115 0 .126.061.137.115.005.025.01.049.024.064.02.022.022-.001.025-.033.004-.04.01-.093.053-.093.078 0 .094.081.094.211s.107.027.107-.085c0-.111.1-.126.189-.126.088 0-.089.556-.468.556m-2.071 6.1c-.047-.532.076-1.043.305-1.043s.228.509.228.509.129 1.044 1.184 1.09 1.76-1.785 1.76-1.785c.06-.308.042-.693.042-.693-.069-.146-.108 0-.187.294-.067.25-.163.61-.331.988-.352.789-1.086.772-1.548.761h-.053c-.457-.01-.826-.77-.867-1.164-.04-.393.093-.702.093-.702s.363-.38.35.284c-.012.665.317.774.907.82.59.047 1.025-.858 1.118-1.201.092-.343-.469.19-.469.19-.152.144-.484.01-.65-.347-.165-.357.166-.779.437-1.07.272-.29.58-.052.58-.052a.83.83 0 0 1 .56.34c.198.15-.017-.673-.017-.673-.137-.346-.304-1.452-.304-1.452a3 3 0 0 1-.08-.41c-.045.077-.057.248-.057.248s.262 1.142-.113 1.497c-.183.173-.277.262-.375.266-.102.005-.21-.084-.43-.266-.428-.355-.45 0-.45.426v1.718c0 .265-.167.262-.317.26-.077-.002-.15-.003-.192.032.027-.28.056-.781.056-.781.014-.236-.3-1.183-.3-1.183-.277-.235-.603-.827-.603-.827-.075-.44-.235-.208-.235-.208 0 .309-.098.966-.6.772s-.22-1.99-.22-1.99.202.02.22.477.262.798.262.798c.127.332.171-.731.171-.731.002-.435.537-.824.537-.824.297-.16.29.52.29.52.142.45-.012.787-.012.787-.019.443.303.219.303.219.227-.012-.169-1.292-.169-1.292-.192-.454-.086-.854-.086-.854.02-.243.32-.306.32-.306.206.02.208.934.208.934 0 .573.158 1.086.297 1.193s-.023-.323-.14-.443c-.073-.077-.053-.252-.028-.458.014-.116.029-.242.029-.366 0-.344.206-.182.433-.004l.005.004c.18.14.166.371.152.619a4 4 0 0 0-.007.205c0 .32.16.536.424.74.225.175.215-.097.207-.305l-.003-.099c0-.154-.123-.387-.243-.617q-.054-.1-.102-.198c-.114-.23-.058-.314.053-.482q.04-.059.088-.137c.163-.273.457.02.57.274l.019.042c-.016-.175-.02-.302-.02-.302-.07-.204.52-.658.52-.658.366-.082.433 1.113.433 1.113.13.426-.306.258-.306.258-.214-.018.23 1.736.23 1.736.032.6.324.282.324.282.225-.089.24.488.24.488.151.23.438-.551.438-.551.2-.286.515.366.515.366.15.202.46-.375.46-.375.176-.113.13.063.073.287a1.8 1.8 0 0 0-.072.394c0 .306-.05.33-.377.479l-.012.006c-.339.155-.444-.104-.444-.104-.08-.097-.647.238-.647.238-.213.08-.345-.096-.345-.096-.092-.12-.09.379-.088 1.013v.002l.001.332c0 .78-1.184 1.758-2.281 1.948s-1.615-.669-1.662-1.2M7.174 9.87c.007.127.022.04.037-.122-.026.023-.041.06-.037.122M5.992 8.397c.481-.423.82-.342.82-.342s.105 0 .242.146c.137.147-.338.443-.65.535-.212.062-.47.192-.718.317q-.18.09-.343.167c-.334.153.168-.4.65-.823m-.59 1.77s-.469.766-.391 1.261.401.598.617.547c.215-.052.314-.547.314-.547s-.148-.34-.314-.156c0 0-.272.115-.221-.202s-.005-.903-.005-.903m3.193-1.865s-.315.099-.158.245c.158.147.4.165.4 0 0-.164-.242-.245-.242-.245m6.318-.75s-.032.558.347.545c.38-.014.537-.575.448-.572-.088.003-.187.02-.184.132.004.111-.1.22-.104.089-.004-.13-.023-.21-.101-.208-.044.002-.047.056-.05.095-.002.032-.003.054-.024.034-.015-.015-.02-.039-.026-.063-.012-.054-.026-.114-.14-.11-.168.006-.166.059-.166.059m4.43-.797c-.379.013-.346-.544-.346-.544s-.002-.053.165-.059c.114-.004.128.056.14.11.006.025.011.048.026.063.021.02.023-.002.025-.034.002-.04.006-.093.05-.094.077-.003.096.077.1.207s.109.023.105-.089.095-.129.184-.132c.088-.003-.07.559-.449.572m-8.71 2.837c-.173-.092-.155-.16 0-.301.154-.141.342.065.53.3.159.199.06.358-.03.505l-.05.082c-.093.17-.346.139-.252 0 .095-.14-.025-.494-.198-.586m12.698-.809c-.154.141-.173.209 0 .3.173.093.095.48 0 .62-.095.139.17.292.263.122l.017-.03c.09-.163.196-.354.123-.642-.078-.304-.248-.511-.403-.37m2.198-3.248c-.173-.092-.155-.16 0-.3.154-.141.325.065.403.37.073.287-.033.479-.124.642l-.016.03c-.093.17-.358.016-.263-.123.095-.14.173-.527 0-.619m-6.562-1.12c-.155.142-.173.21 0 .301.172.092.373.676.278.815-.095.14.159.17.252 0s.188-.579 0-.815c-.188-.235-.376-.442-.53-.3m-2.248 3.42c-.214.096-.337.152-.225.23.113.077.378.096.378 0l.003-.057c.01-.106.022-.255-.157-.174m-2.064 1.912c.228 0 .407-.04.407-.04s.31.04.555.04.201.216-.09.354c-.266.126-.284.208-.318.375l-.01.047c-.044.2-.077.34-.295.27-.208-.064-.408-.566-.514-.831l-.017-.04c-.08-.199.001-.193.15-.181q.06.005.133.006m-2.704-4.9c.085 0 .19-.526 0-.6-.189-.075-.739.017-.672.239a.8.8 0 0 0 .128.22c.11.155.224.314.082.481-.21.248-.855.792-.957.855l-.043.026c-.13.077-.383.227-.205.227.064 0 .141.005.222.01.174.013.364.026.47-.01.078-.026.2-.17.335-.328.129-.15.268-.313.39-.4.25-.176.303-.528.25-.577a.4.4 0 0 0-.094-.048c-.116-.049-.284-.12-.23-.237.074-.161.134-.057.134 0 0 .056.105.142.19.142m-.142 1.756-.198.072s-.114 0-.154-.138c-.017-.06.01-.133.033-.197.03-.084.055-.152-.033-.152-.154 0-.269.259-.321.415s.189.346.321.43c.133.082.298-.084.442-.233s-.09-.197-.09-.197m9.169 4.695c-.195-.26-.11-.845.068-1.21.138-.285.133-.128.124.16a9 9 0 0 0-.006.275c0 .347.103.466.246.633q.056.062.118.142c.202.263.372 0 .372-.16 0-.158.359-.895.618-1.175.26-.28.475-.112.475 0s.252.476.544.56c.291.084.396-.672.396-.672V7.57c0-.662-.165-.789-.305-.897q-.05-.036-.091-.08a6 6 0 0 0-.236-.229c-.209-.197-.478-.45-.588-.612-.138-.202-.133-.582-.128-.964l.002-.213c0-.447.617.199.763.447.094.16.067.267.036.388a1 1 0 0 0-.036.224c0 .245.187.187.187 0q0-.053-.009-.152c-.02-.292-.057-.822.154-.907.2-.08.24.026.356.325q.049.13.124.308c.146.336.107.492.059.685a1.6 1.6 0 0 0-.059.416c0 .363.267.683.451.904.064.076.118.14.148.191.118.2-.118-1.289-.322-1.583-.203-.294-.092-.98.204-1.35.223-.279.368.076.51.424.045.112.09.224.139.313.162.305-.005.525-.128.69q-.04.05-.069.094c-.05.079-.012.179.043.325.065.171.154.406.154.745 0 .63.251 1.26.622 1.768.352.48.43 1.041.508 1.602l.012.091c.084.591.09-.928 0-1.693-.089-.765-.38-3.456-.262-4.151.077-.455.162-.252.287.05.066.16.144.348.238.48l.057.08c.218.303.235.326.103.532-.075.117-.142.1-.189.088-.042-.01-.067-.017-.067.083 0 .062.034.35.083.755.117.976.316 2.636.316 3.496 0 1.22-.649 1.695-1.21 1.904s-.865 0-.865-.209c0-.11-.079-.046-.183.04-.093.076-.207.169-.303.169-.203 0-.134-.24 0-.478.082-.144.064-.156.038-.175-.017-.011-.038-.025-.038-.079 0-.137 0-.276.204-.276s.383 0 .187.276c-.12.169-.111.17-.03.18.05.005.13.015.226.074.134.083.145.085.159.087.01.002.023.004.107.052.185.106.63-.268 1.06-.67.305-.284.15-.35-.01-.42a.45.45 0 0 1-.17-.1 4 4 0 0 1-.269-.418c-.141-.235-.292-.485-.36-.536-.055-.042-.034.1-.007.282.032.213.072.482.007.577-.12.176-.392.401-.517.401-.124 0 0-2.253 0-2.253s-.698-.969-.587-.605c.111.363-.11 2.704-.427 3.073-.316.368-.973-.104-1.135-.368-.162-.265-.356-.008-.43.264-.073.273-.234.868-.625 1.112-.293.182-.512-.238-.685-.57-.058-.112-.11-.213-.16-.279m2.153-3.263s-.654.44-.764.579-.148.24 0 .317c.149.077.745-.208.965-.448s.387-.47.304-.617-.505.17-.505.17m-1.077-.999c-.264-.311.14-.443.14-.443s.214 0 .445.19c.127.105.114.007.095-.142-.016-.122-.037-.278.01-.386.106-.24.467.04.56.338.065.209-.007.217-.116.229a.5.5 0 0 0-.154.035c-.117.05-.079.28-.04.517.02.12.04.241.04.341 0 .296-.715-.367-.98-.679" clip-rule="evenodd"/><path fill="#fff" d="m14.202 4.726-.25-.003v.003zm0 0 .25.003v-.003zm-.794 1.323-.241-.065v.002zm3.982-.276.229-.1-.004-.01-.005-.01zm0 0-.228.102.004.01.005.008zm.94 3.38-.045.246.305.056-.01-.31zm-5.42-.803.238-.075-.001-.004zm0 0-.239.076.001.004zm-1.38 1.685-.234-.09-.003.011zm0 0 .233.09.004-.01zm-1.756 1.47-.149-.201-.009.007-.008.007zm1.425-.196.221-.117-.091-.172-.19.047zm2.775-.65.202-.147-.18-.247-.207.226zm4.36-1.415.25-.007-.014-.497-.391.307zm.509.925.25.003v-.003zm0 0-.25-.003v.003zm.429-1.147-.222.115v.001zm0 0 .226-.108-.005-.008zm0 0-.226.108.005.01zm0 0 .222-.116-.002-.002zm.029 2.33.14.206.003-.001zm0 0-.14-.208-.007.005zm0 0 .143.205.003-.003zm1.163-4.976-.24.069v.003zm0 0 .24-.069v-.003zm-.773 2.145.224-.11-.003-.007-.004-.007zm0 0-.225.11.004.007.004.007zM7.83 4.228l.249.024v-.024zM6.62 10.35h-.25v.015l.002.015zm2.943-.695.233.09.008-.02.004-.021zm.043-.693.25-.011-.002-.05-.022-.046zm-2.894.177-.18-.172-.031.032-.018.042zm2.274-1.376-.153.198.049.038.06.01zm.56.34-.215.128.025.043.04.03zm-.017-.672.242-.064-.004-.014-.006-.015zm-.304-1.453.247-.037-.003-.016-.004-.015zm-.081-.41.248-.034-.101-.73-.364.64zm-.057.248-.249-.019-.003.038.009.037zm-2.12 1.97.236-.08-.022-.066-.053-.045zm-.603-.828L6.117 7l.007.041.02.037zm-.235-.208-.206-.141-.044.064v.077zm-.82-1.219.025-.248-.235-.024-.037.234zm.482 1.276.233-.09-.011-.03-.019-.026zm.171-.731.25.01v-.01zm.537-.824-.119-.22-.015.008-.013.01zm.29.52-.25-.003-.001.04.012.038zm-.012.787-.227-.103-.02.044-.002.048zm.303.219-.012-.25-.072.004-.058.04zm-.169-1.292.239-.074-.004-.012-.005-.011zm-.086-.854.242.064.006-.022.001-.022zm.32-.306.025-.249-.039-.004-.038.008zm.337 1.226-.244-.054-.003.012-.001.013zm0 0 .244.054.003-.012.001-.012zm.62.253-.25-.014v.014zm0 0 .25.014v-.014zm.377-.076-.232.093.004.012.006.012zm0 0 .232-.093-.005-.012-.006-.011zm.608-.543-.228.101v.002zm.02.042-.228.103.477-.125zm-.02-.302.25-.01-.002-.035-.012-.034zm.52-.657-.056-.244-.054.012-.043.033zm.433 1.112-.25.014.002.03.009.03zm-.306.258.09-.233-.033-.013-.035-.003zm.23 1.736.25-.014-.002-.024-.006-.024zm.324.282-.092-.233-.053.022-.04.042zm.24.488-.25.007.003.07.038.06zm.437-.551-.204-.144-.019.027-.011.03zm.516.366-.225.109.01.02.014.02zm.46-.375-.134-.21-.055.034-.03.058zm.073.287-.242-.063v.002zm0 0 .232.092.006-.015.004-.017zm0 0-.232-.093-.006.015-.004.015zm-.905.775.232-.094-.015-.036-.025-.03zm-.647.238.087.234.021-.007.02-.012zm-.345-.096.2-.15-.002-.003zm-.088 1.015h-.25v.002zM6.811 8.055l-.058.243.029.007h.03zm-1.125.998.108.225.004-.002zm0 0 .099.23.01-.005zm0 0-.1-.23-.012.006zm0 0 .092.232.01-.004.01-.005zm0 0-.093-.233-.016.007-.016.009zm0 0 .112.223.011-.006zm-.284 1.114.249-.024-.071-.746-.391.64zm.54 1.261.245.05.016-.078-.032-.072zm-.314-.156.097.23.051-.021.037-.041zm2.967-2.97.08-.237-.077-.026-.078.024zm6.318-.75.25.015v-.023zm4.083-1.341.25.014v-.023zm-7.864 3.885-.213-.132-.001.003zm0 0 .213.131.001-.002zm3.93-.39.032-.247-.044-.006-.043.01zm-4.573-3.638-.127-.215-.002.001zm0 0 .128.215.002-.002zm.017.238.025-.249h-.008zm0 0-.025.249h.008zm1.105.369v.25h.044l.041-.015zm.198-.072.05-.245-.07-.014-.065.024zm9.36 3.644.25.012v-.004zm0 0-.25-.011v.011zm0 0 .25.008v-.008zm2.764-.396.247.035.003-.017V9.85zm-1.349-5.063.25.003v-.003zm0 0-.25-.004v.004zm1.454.112-.234.09.002.004zm0 0 .233-.09-.002-.005zm1.115-.005.237-.08-.003-.007-.003-.007zm0 0-.237.08.002.007.003.007zm1.53 1.853-.248.03v.003zm0 0-.247.033.001.01zm0 0 .249-.032-.002-.011zm0 0 .249-.03v-.002zm-.78 3.452.214-.129-.001-.002zm0 0 .213-.131-.005-.008zm0 0-.214.13.006.009zm-.877-1.53.25.015.005-.089-.052-.071zm-1.895-.635.14.208.01-.008zm-.938-1.442v-.25h-.04l-.037.013zm-7.74-1.906v-.005a.3.3 0 0 1 .011-.059q.014-.055.041-.13a1.5 1.5 0 0 1 .142-.283l-.418-.274a2 2 0 0 0-.19.38 1.1 1.1 0 0 0-.086.371zm0 .042v-.042h-.5v.036zm-.262.064c-.014.015-.016.015-.007.009a.2.2 0 0 1 .102-.023.2.2 0 0 1 .143.068c.023.026.03.048.03.049 0 0-.004-.015-.006-.054v-.113l-.5-.006c-.001.036-.002.09 0 .143a.7.7 0 0 0 .03.185c.015.046.081.216.275.227a.32.32 0 0 0 .19-.052.5.5 0 0 0 .11-.094zm.28-.427c0-.002.002.007-.005.033a.5.5 0 0 1-.048.104c-.052.09-.134.189-.227.29l.367.34c.101-.11.211-.24.29-.376.076-.127.153-.306.112-.497zm.176-.156c.02-.029-.01.034-.101.04a.18.18 0 0 1-.126-.041l-.006-.007.008.014.017.04a1 1 0 0 1 .032.11l.489-.106a.95.95 0 0 0-.153-.368.35.35 0 0 0-.291-.141c-.15.009-.24.115-.287.185zm-1.596-.415a.4.4 0 0 0-.127.023 1 1 0 0 0-.096.044 1 1 0 0 0-.192.136c-.118.107-.262.29-.262.529h.5c0-.035.025-.093.097-.158a.5.5 0 0 1 .118-.078c.006-.003-.009.004-.038.004zm-.034.808a.74.74 0 0 0 .277-.324.46.46 0 0 0 .042-.212.28.28 0 0 0-.285-.272v.5a.22.22 0 0 1-.213-.193c-.003-.034.007-.045-.003-.023a.25.25 0 0 1-.082.1zm.048-.286L13 4.29c-.02-.01-.002-.005.02.02a.22.22 0 0 1 .039.23.2.2 0 0 1-.04.058c-.006.007-.01.008-.003.004l-.264-.424a.37.37 0 0 0-.152.164.28.28 0 0 0 .058.311.4.4 0 0 0 .129.089c.032.015.069.03.095.04zm.15.066a1 1 0 0 0-.15-.066l-.182.466a1 1 0 0 1 .094.04zm-.306.797a.8.8 0 0 0 .383-.244.42.42 0 0 0 .103-.249.33.33 0 0 0-.18-.304l-.238.44a.15.15 0 0 1-.055-.055.2.2 0 0 1-.027-.097c.002-.05.025-.07.013-.055a.33.33 0 0 1-.142.085zm-.535-.653c0 .066 0 .138.004.203.004.064.012.14.037.212.025.073.079.17.191.224.109.053.22.039.303.014l-.143-.48c-.023.008.008-.008.057.016.052.025.066.066.064.062a.4.4 0 0 1-.01-.077 3 3 0 0 1-.003-.174zm.006 1.504c-.073-.152-.076-.34-.036-.542s.118-.391.178-.533l-.46-.195c-.06.143-.157.373-.208.63-.051.255-.063.566.075.855zm.073.155-.073-.155-.451.215.07.15zm.37.496a.1.1 0 0 1-.067-.007.2.2 0 0 1-.075-.065c-.072-.089-.137-.226-.228-.424l-.454.21c.082.178.174.382.295.53a.7.7 0 0 0 .249.202q.161.075.348.05zm.335-.663a2.4 2.4 0 0 1-.148.436.7.7 0 0 1-.115.18c-.038.039-.062.046-.072.047l.068.496a.62.62 0 0 0 .367-.2c.087-.092.153-.203.202-.306.1-.206.156-.429.182-.527zm.008-.033-.008.033.484.126.008-.033zm.736-.249a.34.34 0 0 0-.093-.16.28.28 0 0 0-.24-.073.33.33 0 0 0-.15.067.5.5 0 0 0-.078.076 1 1 0 0 0-.174.337l.483.13a.5.5 0 0 1 .075-.147q.009-.01 0 0c-.004.002-.03.023-.078.03a.22.22 0 0 1-.179-.054.2.2 0 0 1-.049-.075zm.008.477c.005-.075.011-.16.013-.237a1 1 0 0 0-.021-.24l-.483.13.003.026q.002.03 0 .074a4 4 0 0 1-.011.212zm-.01.282-.001-.011-.001-.066q.002-.088.012-.205l-.5-.035c-.004.074-.01.157-.012.23a.8.8 0 0 0 .024.234zm.397.462c-.055.017-.088.01-.116-.003a.34.34 0 0 1-.12-.11 1.3 1.3 0 0 1-.162-.35l-.477.148c.022.074.095.303.236.496a.8.8 0 0 0 .308.267.64.64 0 0 0 .484.028zm.415-.318c-.127.14-.243.263-.415.318l.153.476c.316-.1.513-.326.633-.459zm.56-.252a.4.4 0 0 0-.371.068c-.072.053-.14.13-.189.184l.371.335q.042-.047.072-.078a.4.4 0 0 1 .042-.038c.008-.006.003 0-.016.005a.13.13 0 0 1-.074-.003zm.356.317c-.041-.052-.09-.115-.14-.167a.6.6 0 0 0-.217-.15l-.164.473c-.012-.005-.015-.009-.01-.004l.03.027c.03.032.063.074.108.13zm.258.245c-.001 0-.018.007-.071-.036a1.4 1.4 0 0 1-.187-.21l-.393.31c.065.083.156.2.264.287a.58.58 0 0 0 .478.14zm.414-.407c-.062.093-.128.19-.207.272-.08.083-.149.124-.207.135l.09.492a.9.9 0 0 0 .477-.28c.114-.118.203-.252.262-.34zm.094-.131c-.031.038-.065.089-.094.13l.415.28c.034-.05.053-.079.066-.095zm.577.063c-.012-.017-.03-.048-.052-.075a.4.4 0 0 0-.126-.103.3.3 0 0 0-.254-.003.4.4 0 0 0-.145.118l.387.315c.01-.012-.001.007-.037.023a.2.2 0 0 1-.167-.002c-.038-.019-.055-.043-.05-.036l.024.035zm.04.058-.04-.058-.42.272c.017.025.044.067.077.108zm-.007.021-.009.011.002-.001.006-.004a.1.1 0 0 1 .033-.006q.008.003-.003-.002a.1.1 0 0 1-.022-.02l-.383.323a.55.55 0 0 0 .344.195.46.46 0 0 0 .447-.217zm.365-.272s-.048.02-.113-.006a.2.2 0 0 1-.108-.11c-.007-.02-.004-.027-.005-.01a.4.4 0 0 1-.009.063c-.026.124-.09.276-.13.335l.415.279c.082-.122.168-.337.205-.512a.6.6 0 0 0-.002-.314.314.314 0 0 0-.431-.192zm-.015.006.015-.006-.178-.467-.016.006zm-.99-.138a.47.47 0 0 0 .256.235.6.6 0 0 0 .289.03c.164-.018.336-.085.445-.127l-.179-.467a1.4 1.4 0 0 1-.32.097.2.2 0 0 1-.044.001q-.014-.001-.013-.002c.008.003.014.011.013.01zm-.056-1.329a.29.29 0 0 0-.277.208.5.5 0 0 0-.012.192c.013.1.05.22.089.329.079.224.194.476.256.6l.447-.223a6 6 0 0 1-.232-.544 1.3 1.3 0 0 1-.064-.226c-.003-.028.003-.013-.007.02a.21.21 0 0 1-.2.144zm.129.04c.005.026-.004.01.012-.02.015-.028.037-.036.032-.034a.2.2 0 0 1-.06.01 1 1 0 0 1-.113.004v.5c.067 0 .228.004.363-.051a.43.43 0 0 0 .218-.19.46.46 0 0 0 .037-.322zm1.06.588a8 8 0 0 0-.371-.568c-.072-.1-.15-.202-.212-.265l-.066-.055a.27.27 0 0 0-.197-.048.26.26 0 0 0-.221.228.4.4 0 0 0 .007.12l.489-.103c-.002-.01.004.013 0 .048a.24.24 0 0 1-.319.19.2.2 0 0 1-.04-.021q-.015-.012-.006-.004c.03.029.085.1.158.201.14.196.299.445.343.524zm.113.205c-.052-.094-.092-.169-.113-.205l-.435.247.109.197zm0 0-.44.24h.001zm.677 1.191c.024.018.028.03.004-.003l-.066-.1a10 10 0 0 1-.196-.332c-.146-.257-.31-.556-.42-.756l-.438.24c.11.2.274.502.424.764.075.13.146.253.206.349q.045.071.083.126a.5.5 0 0 0 .101.11zm.293 2.3c-.01-.32-.035-.833-.07-1.276a11 11 0 0 0-.059-.588 2 2 0 0 0-.037-.21 1 1 0 0 0-.028-.091c-.007-.017-.034-.085-.099-.135l-.302.399a.2.2 0 0 1-.063-.078l.006.023q.012.051.028.16c.02.145.039.341.056.559.034.435.059.94.069 1.253zm-.535.244c.147 0 .215.005.24.01l.091-.492a2 2 0 0 0-.33-.018zm-.882.073a6 6 0 0 1 .882-.073v-.5c-.393 0-.707.044-.95.078zm-.725.007a1 1 0 0 0 .353.035c.115-.006.242-.024.372-.042l-.069-.495a4 4 0 0 1-.33.038.5.5 0 0 1-.176-.013zm-.242-.05q.141.021.242.05l.15-.477c-.105-.033-.224-.052-.308-.067zm-.066-.658c-.082.03-.16.06-.215.096a.3.3 0 0 0-.114.119.27.27 0 0 0 .03.297c.046.056.104.08.126.09q.047.017.083.025c.048.012.106.022.156.03l.084-.493-.123-.023-.012-.003q.004.001.02.011a.233.233 0 0 1 .077.3.2.2 0 0 1-.041.055l-.017.013s.006-.004.027-.013q.03-.013.085-.032zm.333-.094a4 4 0 0 0-.333.094l.166.472c.08-.029.176-.053.29-.082zm.721-.552a.4.4 0 0 1-.036.22.36.36 0 0 1-.127.133c-.134.089-.326.14-.558.199l.123.484c.21-.053.492-.121.712-.267a.86.86 0 0 0 .294-.32.9.9 0 0 0 .09-.484zm-.39-.707a.45.45 0 0 1 .207-.003c.023.008.041.02.062.053.025.04.05.109.073.224q.03.17.048.433l.499-.035a4 4 0 0 0-.056-.49 1.2 1.2 0 0 0-.14-.396.6.6 0 0 0-.333-.265.9.9 0 0 0-.446-.014zm-.5.69c0-.177.037-.335.112-.453.07-.11.186-.201.388-.237l-.086-.493a1.04 1.04 0 0 0-.722.46 1.34 1.34 0 0 0-.192.722zm-.416.613c.027-.003.086-.007.142-.025a.35.35 0 0 0 .194-.147.5.5 0 0 0 .069-.207q.011-.1.011-.235h-.5c0 .084-.003.136-.007.168-.005.036-.009.027.006.004a.15.15 0 0 1 .076-.06q.01 0 0 0l-.04.004zm-.08.01q.038-.007.08-.01l-.049-.498c-.027.003-.068.007-.113.014zm-.09.013.09-.014-.082-.493-.075.011zm-1.058.548c.303-.44.781-.51 1.059-.548l-.068-.496c-.274.037-.963.124-1.403.76zm-.744-.762c-.01.17-.029.484.008.69.01.052.027.12.06.18a.32.32 0 0 0 .25.17.36.36 0 0 0 .267-.095 1 1 0 0 0 .159-.183l-.412-.285a.5.5 0 0 1-.07.087c-.014.012.026-.03.104-.022a.18.18 0 0 1 .139.083c.005.01 0 .007-.005-.025-.024-.133-.012-.376 0-.571zm.007-.134-.007.134.5.029c.003-.06.007-.123.007-.163zm-.214-.663c.167.38.214.515.214.663h.5c0-.271-.098-.504-.256-.864zm-.012-.028.012.028.458-.201-.012-.028zm-.167-.348c.055-.084.067-.061.022-.052-.064.013-.092-.028-.07-.005.023.023.056.07.097.15q.057.114.118.255l.458-.201c-.04-.09-.084-.192-.133-.285a1.1 1.1 0 0 0-.183-.269.42.42 0 0 0-.385-.135c-.158.031-.267.153-.343.27zm.109.752c.01.01-.011-.009-.05-.076a1 1 0 0 1-.09-.219c-.05-.175-.046-.338.031-.457l-.419-.273c-.19.293-.162.627-.092.868.035.124.085.236.135.326.045.08.105.169.173.222zm.152 2.368c.375-.411.35-.999.257-1.426a3 3 0 0 0-.188-.583 2 2 0 0 0-.099-.201 1 1 0 0 0-.049-.077.4.4 0 0 0-.073-.08l-.312.39c-.021-.016-.028-.03-.021-.019l.021.035q.03.053.075.15c.056.13.116.303.157.49.085.394.065.763-.137.985zm-1.965 1.073c.166.152.388.103.513.06.148-.051.31-.145.47-.255.322-.223.684-.55.982-.878l-.37-.336a5.7 5.7 0 0 1-.897.803c-.144.1-.263.164-.348.193-.107.037-.07-.009-.014.043zm-.07-.88a.6.6 0 0 0-.206.21.38.38 0 0 0-.016.317.6.6 0 0 0 .134.2c.047.052.104.104.158.153l.336-.37a2 2 0 0 1-.128-.123c-.033-.035-.036-.046-.033-.039a.12.12 0 0 1-.007.091c-.009.02-.012.011.034-.02zm.217-.113c-.074.036-.159.076-.216.113l.271.42a2 2 0 0 1 .161-.082zm.945-1.159c.058.315-.06.542-.254.728-.205.196-.477.329-.69.431l.215.451c.205-.098.55-.261.82-.52.282-.27.497-.657.401-1.18zm-.237-.962c.052.165.145.456.237.962l.492-.09a8 8 0 0 0-.252-1.023zm.23-.528a.28.28 0 0 0-.22.099.3.3 0 0 0-.064.217c.004.04.014.079.022.107l.032.105.477-.15-.028-.092c-.007-.024-.006-.026-.005-.017 0 .005.002.023-.003.048a.2.2 0 0 1-.049.103c-.067.08-.154.08-.163.08zm.06.003c-.013-.001-.037-.003-.06-.003v.5l.027.002zm-.156.029a.6.6 0 0 1 .037.126c.002.019-.008-.024.028-.077a.18.18 0 0 1 .115-.076h.004L12.96 7.9l-.033.499c.02.001.075.006.13-.002a.33.33 0 0 0 .226-.138.38.38 0 0 0 .055-.261 1 1 0 0 0-.066-.245zm-.283-.3c.075-.083.109-.087.102-.085-.022.003-.033-.01-.017.003a.5.5 0 0 1 .093.136q.055.11.105.246l.468-.176a3 3 0 0 0-.129-.3 1 1 0 0 0-.206-.28.47.47 0 0 0-.4-.122c-.152.027-.28.124-.389.245zm.003.593c-.108-.127-.153-.205-.161-.272-.006-.049.002-.146.158-.32l-.373-.334c-.21.236-.312.472-.281.717.028.227.167.405.277.534zm.148 1.463a.85.85 0 0 0 .258-.44.8.8 0 0 0-.034-.438c-.085-.249-.265-.461-.372-.585l-.38.325c.114.132.23.276.279.422a.33.33 0 0 1 .017.173.35.35 0 0 1-.113.181zm-.345.35c.103-.108.219-.23.345-.35l-.345-.362c-.136.13-.26.259-.362.366zm-.811.082c0 .032.003.091.033.152.038.077.115.14.218.151a.3.3 0 0 0 .17-.033.5.5 0 0 0 .085-.055c.084-.066.195-.183.305-.297l-.362-.346c-.123.13-.202.211-.25.248q-.014.01-.002.003a.2.2 0 0 1 .105-.017.23.23 0 0 1 .178.122.2.2 0 0 1 .018.053l.002.019zm.304-.136c.01-.02.012-.021.006-.014a.2.2 0 0 1-.104.06.22.22 0 0 1-.191-.047.2.2 0 0 1-.037-.047l.004.015.01.047a1 1 0 0 1 .008.122h.5a1 1 0 0 0-.067-.391.4.4 0 0 0-.087-.12.28.28 0 0 0-.25-.066.3.3 0 0 0-.173.111.6.6 0 0 0-.073.12zm-.058.143c.023-.06.04-.105.058-.143l-.454-.21c-.025.056-.05.118-.07.173zm-.654.814c.42-.177.569-.591.654-.814l-.467-.18c-.098.256-.185.451-.381.534zm-1.335.566.15.2.001-.001.007-.005.027-.02.1-.073c.086-.061.203-.144.332-.232.265-.182.554-.366.718-.435l-.194-.46c-.218.091-.549.306-.806.482a17 17 0 0 0-.445.314l-.028.021-.008.006-.003.002zm-.345.212c-.003 0 .01-.003.034 0a.224.224 0 0 1 .189.221c0 .036-.01.06-.012.065-.004.01-.004.005.013-.016a1 1 0 0 1 .057-.07 3 3 0 0 1 .21-.206l.015-.015.004-.004h.001l-.166-.187-.166-.187-.002.002-.005.005-.02.017a4 4 0 0 0-.241.24q-.046.052-.088.105a.6.6 0 0 0-.076.13c-.01.026-.072.184.053.313a.3.3 0 0 0 .169.083.4.4 0 0 0 .112-.003zm.986-.333a.7.7 0 0 1-.151.082 4.4 4.4 0 0 1-.835.25l.081.494a4.8 4.8 0 0 0 .955-.286c.096-.042.2-.096.276-.16zm.784-.075-.06-.242h-.002l-.005.001-.016.005a3 3 0 0 0-.242.075 1.5 1.5 0 0 0-.459.236l.326.38a1.1 1.1 0 0 1 .299-.145 3 3 0 0 1 .217-.066l.002-.001zm.979.57c-.05.015-.112.009-.198-.039a1.1 1.1 0 0 1-.27-.232 2.4 2.4 0 0 1-.29-.416l-.22.117-.221.118v.001l.002.003.005.01a2 2 0 0 0 .091.152c.061.094.15.221.258.345.107.121.243.25.401.339a.75.75 0 0 0 .582.082zm1.796-1.22-.185-.168-.003.003-.047.05a15 15 0 0 1-.6.605 7 7 0 0 1-.548.478c-.186.143-.328.227-.413.252l.14.48c.183-.053.39-.19.578-.336.197-.151.402-.335.588-.51a15 15 0 0 0 .66-.67l.01-.011.004-.003zm1.582.827c-.327-.026-.666-.247-.943-.499a4 4 0 0 1-.437-.475l-.202.147-.202.147.001.002.002.003.008.01.027.036q.036.046.102.123c.087.102.212.238.365.377.297.27.74.588 1.239.628zm.63.067c.024.019-.01.004-.01-.054-.001-.065.041-.086.02-.072-.053.034-.239.092-.64.06l-.04.498c.425.034.754-.01.953-.139a.42.42 0 0 0 .206-.349.44.44 0 0 0-.186-.34zm-.217-.133c.1.057.17.098.216.133l.305-.397c-.078-.06-.184-.12-.272-.17zm-.525-.845a.39.39 0 0 0-.04.351.6.6 0 0 0 .164.227c.116.105.28.198.4.267l.25-.434a2 2 0 0 1-.315-.204c-.033-.03-.033-.04-.029-.027a.11.11 0 0 1-.008.088zm1.193-.523a4 4 0 0 0-.704.16c-.198.072-.372.18-.489.363l.422.268c.037-.059.101-.112.238-.162.143-.052.338-.091.613-.135zm.246-.035q-.119.015-.246.035l.08.494q.115-.018.234-.034zm.768-.346c-.032.116-.097.18-.215.23-.136.057-.315.083-.553.116l.068.495c.218-.03.47-.062.679-.15a.82.82 0 0 0 .503-.557zm.476-.585c-.113.082-.389.273-.476.585l.482.134a.4.4 0 0 1 .104-.164c.056-.057.12-.104.184-.151zm.052-.039-.052.039.294.404q.034-.024.067-.05zm.407.344-.003-.154-.5.013.003.14zm-.08 1.871a1 1 0 0 0 .03-.159q.009-.082.016-.196c.008-.148.015-.335.02-.527.01-.384.014-.798.014-.99h-.5c0 .189-.004.598-.014.977-.005.19-.011.37-.02.511q-.006.106-.013.172c-.005.053-.01.06-.004.044zm-.102-.312c.002-.004-.003.005-.024.02a.2.2 0 0 1-.058.028q-.01.002-.003.001a.2.2 0 0 1 .062.011c.04.016.096.055.122.127a.2.2 0 0 1 .003.125l-.47-.168a.3.3 0 0 0-.004.21.3.3 0 0 0 .17.173c.103.04.208.016.26 0a.66.66 0 0 0 .372-.273zm.006-.01-.006.01.43.254.006-.01zm.18-.558c0 .248-.093.412-.18.558l.43.255c.093-.157.25-.42.25-.813zm.003-.216-.002.216h.5l.002-.21zm-.055-1.54.004.014.009.044q.01.057.019.146c.01.118.017.264.021.423.008.318.004.67.002.913l.5.006c.002-.242.006-.603-.002-.931a7 7 0 0 0-.024-.458 1.3 1.3 0 0 0-.07-.353zm.393-.724a.28.28 0 0 0-.226-.069.28.28 0 0 0-.193.127.44.44 0 0 0-.062.217c-.007.127.02.29.088.45l.46-.197a.6.6 0 0 1-.05-.227c.003-.032.008-.01-.018.03a.22.22 0 0 1-.151.095.22.22 0 0 1-.176-.049zm.563 1.004-.333-.633A9 9 0 0 0 19 7.986l-.022-.033c-.005-.006-.022-.03-.047-.051l-.328.377q-.018-.017-.023-.024l-.006-.007.004.006.03.052q.043.075.112.203c.09.169.207.393.33.629zm.63 1.172c.01.01.008.011-.008-.014l-.05-.084a12 12 0 0 1-.157-.283c-.122-.227-.271-.514-.415-.79l-.444.231c.144.275.295.565.42.796a12 12 0 0 0 .224.399 1 1 0 0 0 .065.087zm-.281-.194q-.028.165-.048.229-.005.01 0 0a.2.2 0 0 1 .051-.054.22.22 0 0 1 .18-.035.2.2 0 0 1 .098.054l-.365.342a.3.3 0 0 0 .153.09.28.28 0 0 0 .226-.045.3.3 0 0 0 .092-.105.5.5 0 0 0 .037-.083c.031-.09.052-.215.068-.307zm.1-.383a.8.8 0 0 0-.064.193c-.014.06-.026.13-.036.19l.492.086a4 4 0 0 1 .046-.221q.007-.021.003-.012zm.62.118a.8.8 0 0 0-.022-.21.3.3 0 0 0-.112-.158.27.27 0 0 0-.28-.012.3.3 0 0 0-.095.081l-.044.062a2 2 0 0 0-.067.119l.441.236.05-.09.007-.01-.01.011a.23.23 0 0 1-.142.056.24.24 0 0 1-.142-.04c-.068-.047-.084-.11-.084-.11-.005-.014 0-.003 0 .065zm.002.08-.001-.08h-.5l.001.092zm-.633 1.524c.67-.446.64-1.221.633-1.523l-.5.011c.008.335.006.82-.41 1.096zm-.488.334q.207-.145.488-.334l-.277-.416q-.29.194-.496.339zm-.679.398a1.1 1.1 0 0 0 .304-.146c.104-.065.23-.152.375-.252l-.285-.411a10 10 0 0 1-.355.24.7.7 0 0 1-.16.084zm.002-.121a.1.1 0 0 1 .061.028q.01.011.012.016l.001.005v.003l-.005.015a.1.1 0 0 1-.024.03.1.1 0 0 1-.047.024l-.121-.485c-.262.066-.318.327-.299.476.021.165.15.388.422.388zm.065.001-.065-.001v.5h.05zm1.37-.773c-.218.413-.497.601-.744.691a1.6 1.6 0 0 1-.626.082l-.015.5c.145.004.462.016.813-.112.358-.13.736-.4 1.014-.928zm.078-4.307c.037.355.128 1.234.151 2.134.012.45.006.901-.03 1.291-.038.398-.105.703-.2.882l.443.233c.143-.27.216-.659.255-1.068.039-.418.044-.89.032-1.35a29 29 0 0 0-.154-2.174zm-.017-.185.017.186.497-.053-.011-.108-.003-.03V6.56v.01zm-.038-.122.032.111.007.028-.001-.017h.5a.6.6 0 0 0-.022-.138l-.037-.128zm-.08-.86c-.067.155-.044.341-.02.469.025.141.069.287.1.39l.479-.143a3 3 0 0 1-.088-.338 1 1 0 0 1-.015-.136c0-.038.005-.05.004-.047zm.471-.216a.4.4 0 0 0-.082-.033.3.3 0 0 0-.198.018.34.34 0 0 0-.129.113.6.6 0 0 0-.063.117l.46.196c.01-.025.015-.03.013-.026-.002.002-.022.03-.066.052a.2.2 0 0 1-.142.014c-.025-.007-.043-.018-.027-.01zm-.197.034a.17.17 0 0 1 .12-.048.2.2 0 0 1 .07.011l.007.003-.234.441a.33.33 0 0 0 .17.045.33.33 0 0 0 .24-.12zm-.01-.263c.087.112.077.159.076.163-.002.018-.015.043-.066.1l.373.333a.7.7 0 0 0 .187-.35c.03-.185-.032-.37-.176-.554zm-.23-.423c.051.117.125.289.23.423l.394-.308a1.6 1.6 0 0 1-.166-.316zm.12-.167c.009-.013.01-.013.005-.008a.2.2 0 0 1-.06.027.2.2 0 0 1-.108-.008.14.14 0 0 1-.047-.03c-.005-.004.004.004.025.045q.028.055.065.141l.458-.2c-.024-.055-.05-.116-.078-.17a.7.7 0 0 0-.116-.169.33.33 0 0 0-.31-.096.42.42 0 0 0-.238.173zm-.167 1.325c-.04-.16-.044-.436-.008-.719.018-.138.045-.269.077-.379a.8.8 0 0 1 .098-.227l-.404-.295a1.3 1.3 0 0 0-.173.38c-.042.14-.073.299-.094.457-.04.31-.042.657.02.904zm-.144 3.617c.024.024.07.063.139.08a.27.27 0 0 0 .232-.048.3.3 0 0 0 .092-.119.5.5 0 0 0 .028-.088c.02-.095.024-.228.022-.364-.005-.284-.04-.686-.085-1.101-.09-.826-.228-1.755-.284-1.977l-.485.12c.046.185.182 1.081.272 1.911.045.413.077.796.082 1.056.002.137-.003.216-.01.248l.004-.009a.2.2 0 0 1 .06-.074.23.23 0 0 1 .193-.04.2.2 0 0 1 .092.05zm-.522-.864c.08.164.162.33.244.476.08.143.172.283.278.388l.352-.355a1.3 1.3 0 0 1-.195-.28q-.108-.196-.23-.449zm-.355-.672c.127.206.241.439.355.672l.45-.22c-.113-.228-.237-.484-.38-.715zm-.803-2.186a.55.55 0 0 0-.06.28c.001.087.018.179.04.267.047.177.13.375.222.57.186.389.436.802.6 1.069l.426-.263c-.164-.266-.401-.66-.575-1.023a3 3 0 0 1-.188-.48.7.7 0 0 1-.026-.151c0-.037.006-.04 0-.027zm.144-.228c-.035.05-.085.122-.144.228l.438.242c.046-.082.083-.137.116-.184zm.014-.128.021.08c.002.012 0 .008.002-.002s.005-.015.001-.007l-.038.057.41.286c.033-.047.097-.132.118-.242a.66.66 0 0 0-.037-.323zm-.176-.275c.093.111.146.18.176.275l.477-.15c-.064-.203-.182-.34-.27-.445zm-.244-.353c.076.154.171.267.244.353l.383-.32a1.2 1.2 0 0 1-.178-.253zm.056-.3c0-.035.01.05-.084.102-.083.046-.144.004-.122.016q.017.005.066.057a.6.6 0 0 1 .084.125l.449-.22a.93.93 0 0 0-.37-.406c-.065-.035-.205-.088-.346-.01-.152.082-.177.242-.177.336zm-.72.344a.5.5 0 0 0 .07.14.32.32 0 0 0 .169.125c.194.059.318-.089.352-.137a.87.87 0 0 0 .129-.472h-.5a.5.5 0 0 1-.016.125c-.01.04-.021.059-.021.058s.012-.018.042-.035a.2.2 0 0 1 .158-.018.2.2 0 0 1 .092.062c.007.01.005.01-.002-.009zm-.402-.521c-.036.03-.069.01-.038.022a.6.6 0 0 1 .16.113c.14.132.252.305.28.386l.473-.161c-.062-.182-.233-.422-.411-.59a1 1 0 0 0-.326-.216.45.45 0 0 0-.459.062zm-.018-.038-.006-.015v.003a.1.1 0 0 1 .003.048.1.1 0 0 1-.012.034q-.002 0 .033-.032l-.32-.384a.5.5 0 0 0-.195.303c-.02.125.03.224.042.249zm-.002.34c.095-.165.012-.318.002-.34l-.455.206.005.01v.004-.006l-.004-.014a.17.17 0 0 1 .02-.11zm-.026.051.026-.05-.433-.25c-.016.027-.03.057-.041.079zm-.63.037c.021.048.06.128.135.182a.29.29 0 0 0 .333.001c.06-.042.097-.1.113-.127.02-.033.037-.069.049-.093l-.448-.221-.03.057c-.01.018-.002-.004.03-.026a.21.21 0 0 1 .243.002.1.1 0 0 1 .04.04q.004.007-.003-.01zm-.048-.138c.013.04.03.093.049.138l.46-.195-.034-.098zm-.09-.137c.064-.06.087-.06.073-.057a.1.1 0 0 1-.072-.02l.01.013.024.048q.027.064.055.153l.475-.155c-.018-.055-.042-.13-.073-.2a.7.7 0 0 0-.151-.226.4.4 0 0 0-.35-.107.66.66 0 0 0-.333.186zm-.209.583c-.042-.042-.065-.101-.048-.191.019-.097.09-.236.257-.392l-.342-.365c-.218.204-.36.43-.406.661a.7.7 0 0 0 .187.641zm.404 1.27a.55.55 0 0 0 .081-.39 1.2 1.2 0 0 0-.108-.342c-.1-.21-.25-.412-.377-.538l-.352.354c.087.086.203.243.278.399a.7.7 0 0 1 .063.19c.007.05-.005.055.003.043zm-1.027.143a.48.48 0 0 0 .278.225.5.5 0 0 0 .32-.016.95.95 0 0 0 .429-.352l-.412-.284a.46.46 0 0 1-.188.166c-.023.008-.022.002-.008.006.019.006.02.017.012.002zm-.196-1.046c-.078.424.028.76.196 1.046l.43-.253a.96.96 0 0 1-.134-.703zm.057-1.017c.005-.001-.017.005-.045-.009-.023-.011-.026-.024-.017-.008a.7.7 0 0 1 .054.267c.018.27-.02.604-.05.767l.492.09a4 4 0 0 0 .056-.89 1.2 1.2 0 0 0-.114-.476.47.47 0 0 0-.203-.2.43.43 0 0 0-.314-.02zm-.112.7a1 1 0 0 1-.045-.45c.023-.162.083-.228.157-.25l-.141-.48c-.347.103-.475.41-.51.66s.007.516.069.689zm.067 1.09a.7.7 0 0 0 .06-.263q.008-.132-.007-.275a2.4 2.4 0 0 0-.12-.553l-.47.17a1.9 1.9 0 0 1 .098.628c-.003.059-.012.076-.009.07zm-.008.017.008-.017-.448-.223-.008.018zm-.904.567c.134.087.28.09.405.037a.7.7 0 0 0 .251-.199c.118-.141.207-.324.248-.405l-.448-.222c-.045.09-.11.219-.184.307a.4.4 0 0 1-.044.046q-.018.014-.017.012a.08.08 0 0 1 .06.005zm-.419-1.306c-.071.265-.049.533.027.759.074.221.208.428.392.547l.272-.42a.56.56 0 0 1-.19-.285.83.83 0 0 1-.018-.47zm.062-.608c.017-.01.013-.004-.007-.003a.1.1 0 0 1-.062-.02c-.016-.012.005-.004.024.076.036.148.03.379-.017.555l.483.13a1.75 1.75 0 0 0 .02-.804.62.62 0 0 0-.208-.356.4.4 0 0 0-.247-.081.5.5 0 0 0-.241.073zm-.61.982c0-.097.066-.297.2-.518.132-.218.29-.393.41-.464l-.255-.43c-.224.133-.434.389-.582.635-.147.242-.274.539-.274.777zm-.745.618a.44.44 0 0 0 .127.145.31.31 0 0 0 .255.047.35.35 0 0 0 .175-.113.6.6 0 0 0 .079-.127c.07-.154.108-.378.108-.57h-.5c0 .144-.03.291-.062.361l-.006.012a.16.16 0 0 1 .081-.047.2.2 0 0 1 .154.026c.026.018.031.032.023.018zm-.023-.04.023.04.434-.248-.024-.04zm-.25-1.114c-.075.235-.04.46.023.646.062.183.158.349.227.468l.433-.249a2 2 0 0 1-.186-.379.53.53 0 0 1-.021-.335zm.27-.31c.007-.019.006-.007-.014.011a.19.19 0 0 1-.258-.006q-.012-.016-.003 0a.5.5 0 0 1 .004.305l.477.15a1 1 0 0 0-.022-.654.5.5 0 0 0-.085-.136.31.31 0 0 0-.452-.026.5.5 0 0 0-.109.161zm-6.646-.801-.01-.01-.003-.004.006.008.014.026a.22.22 0 0 1-.023.214l-.401-.3a.28.28 0 0 0-.034.286c.025.057.07.104.074.109zm.21.346a1.1 1.1 0 0 0-.21-.346l-.377.329a.6.6 0 0 1 .123.203zm.094.525c-.01-.13-.026-.357-.094-.525l-.464.186c.033.083.047.222.06.379zm-.38.064q-.01.018-.005.012l.013-.017a.234.234 0 0 1 .302-.028.2.2 0 0 1 .08.099c.006.016.004.017 0-.018l-.01-.112-.499.04.012.13a.6.6 0 0 0 .03.14c.008.019.034.085.103.133a.26.26 0 0 0 .287.007.3.3 0 0 0 .096-.094l.042-.074zm.087-.643c-.027-.018-.017-.03-.005.02q.018.069.014.191a1.3 1.3 0 0 1-.095.432l.45.218a1.7 1.7 0 0 0 .144-.628 1.2 1.2 0 0 0-.028-.334.52.52 0 0 0-.203-.315zM5.86 4.39a.1.1 0 0 1-.024.023l-.014.005.008.002q.015.002.057.028l.277-.416a.6.6 0 0 0-.413-.109.44.44 0 0 0-.292.168zm1.969-.16-.25-.024v.012a1 1 0 0 0-.002.103c.001.064.008.153.03.247a.7.7 0 0 0 .155.3c.096.104.23.167.395.167v-.5c-.026 0-.027-.006-.029-.007a.2.2 0 0 1-.035-.08.6.6 0 0 1-.015-.195V4.25s0 .002-.25-.022m.167-.304c-.102 0-.2.015-.28.066a.3.3 0 0 0-.13.18.3.3 0 0 0-.007.054v.002l.25.001h.25v.007l-.006.046a.2.2 0 0 1-.02.056.2.2 0 0 1-.07.076c-.038.024-.052.012.013.012zm.382.318c-.003-.015-.016-.111-.083-.192a.38.38 0 0 0-.299-.126v.5c.008 0-.002.002-.02-.005a.16.16 0 0 1-.09-.093c-.002-.004-.002-.006.001.01zm-.04-.06a.2.2 0 0 1 .04.066l.002.005-.002-.011-.49.094a.33.33 0 0 0 .087.189zm-.405.114v.008l.003-.016a.24.24 0 0 1 .092-.132.245.245 0 0 1 .276-.003.2.2 0 0 1 .034.028l-.363.344a.27.27 0 0 0 .162.084.26.26 0 0 0 .262-.14c.02-.041.026-.08.028-.089l.004-.035zm.302-.319a.29.29 0 0 0-.274.19c-.022.058-.027.118-.028.129l.498.049.002-.016-.007.022a.21.21 0 0 1-.192.127zm.344.461a.7.7 0 0 0-.034-.242.325.325 0 0 0-.31-.219v.5a.18.18 0 0 1-.158-.105q-.004-.016 0 .005l.002.061zm-.393-.085q0-.015.004-.02s.006-.015.027-.034a.2.2 0 0 1 .08-.042.23.23 0 0 1 .189.032.22.22 0 0 1 .092.14v.01h-.5q-.001.047.017.112a.27.27 0 0 0 .333.188.3.3 0 0 0 .12-.065.44.44 0 0 0 .138-.32zm.438-.376a.54.54 0 0 0-.236.047.35.35 0 0 0-.202.33h.5a.15.15 0 0 1-.08.12l-.013.005.031-.002zm-.467 1.056c.322 0 .527-.233.625-.402a.9.9 0 0 0 .105-.27.4.4 0 0 0 .004-.156.3.3 0 0 0-.063-.133.27.27 0 0 0-.204-.095v.5a.23.23 0 0 1-.176-.081.2.2 0 0 1-.048-.098c-.006-.03 0-.045-.003-.031a.4.4 0 0 1-.047.113c-.063.109-.136.153-.193.153zM6.39 9.591a.44.44 0 0 0-.349.186.9.9 0 0 0-.147.32 2.4 2.4 0 0 0-.057.809l.498-.044a1.9 1.9 0 0 1 .04-.633.5.5 0 0 1 .063-.148c.015-.02 0 .01-.048.01zm.23.759h.25v-.01l-.005-.089a2 2 0 0 0-.03-.21.8.8 0 0 0-.105-.26.4.4 0 0 0-.34-.19v.5c-.052 0-.078-.035-.074-.03.006.01.02.038.03.09a1 1 0 0 1 .023.197v.002zm1.194.841c-.429-.019-.656-.233-.786-.444a1.3 1.3 0 0 1-.16-.424v-.005l-.249.032-.248.03v.003l.001.004.01.055q.009.053.034.14c.033.115.09.269.186.426.198.323.563.655 1.19.683zm1.748-1.536-.233-.09-.002.004-.027.067a4.7 4.7 0 0 1-.429.789 2.5 2.5 0 0 1-.5.558c-.186.143-.371.216-.557.208l-.022.5c.34.014.64-.124.883-.312a3 3 0 0 0 .61-.673 5.2 5.2 0 0 0 .51-.961zm.043-.693-.25.011v.003l.002.055v.156a3 3 0 0 1-.04.42l.49.097c.035-.175.046-.365.05-.505a4 4 0 0 0-.002-.242V8.95zm.055.359a7 7 0 0 1 .069-.24l.006-.017.003-.006-.002.003-.004.006a.225.225 0 0 1-.344.013c-.011-.013-.014-.02-.009-.011l.452-.214a.4.4 0 0 0-.058-.094.275.275 0 0 0-.407-.03.4.4 0 0 0-.073.099 1 1 0 0 0-.061.164q-.026.087-.055.197zm-.345 1.024c.177-.397.278-.773.345-1.024l-.483-.13c-.067.251-.16.593-.319.95zm-1.782.91c.226.005.567.015.898-.093.347-.113.677-.352.884-.817l-.457-.203c-.144.324-.358.472-.582.545-.238.078-.496.074-.732.068zm-.053 0h.053l.011-.5h-.053zm-1.11-1.39c.025.243.144.569.316.836.087.135.194.267.322.368.127.1.287.18.472.184l.011-.5c-.043 0-.101-.02-.173-.076a1 1 0 0 1-.211-.246 1.6 1.6 0 0 1-.239-.617zm.341-.727-.23-.098v.003l-.003.004-.024.066a1.8 1.8 0 0 0-.084.753l.498-.052a1.3 1.3 0 0 1 .073-.578zm.601.29c.004-.178-.015-.335-.08-.452a.36.36 0 0 0-.373-.192.53.53 0 0 0-.24.105 1 1 0 0 0-.085.073l-.002.002-.001.002.18.172.18.174.026-.022c.025-.019.028-.014.008-.011a.14.14 0 0 1-.13-.06c-.001-.001.02.044.017.198zm.676.565c-.3-.023-.46-.062-.548-.129-.063-.047-.133-.143-.128-.437l-.5-.01c-.007.37.081.662.327.847.22.165.52.205.81.228zm.857-1.017a2.3 2.3 0 0 1-.332.664c-.184.25-.368.366-.525.353l-.04.499c.434.034.763-.279.967-.555.214-.29.36-.63.413-.831zm-.227.255.172.182.001-.001.02-.019a3 3 0 0 1 .22-.181l.062-.04c.02-.01.006.002-.03.004a.215.215 0 0 1-.206-.141.2.2 0 0 1-.01-.064q.001-.011-.002.005l.483.13a.4.4 0 0 0 0-.24.285.285 0 0 0-.287-.19.4.4 0 0 0-.176.052 1 1 0 0 0-.122.075 3 3 0 0 0-.29.24l-.005.005-.002.002zm-.876-.242a1 1 0 0 0 .446.48c.172.085.42.116.602-.056l-.344-.363c.03-.029.036.007-.038-.029a.5.5 0 0 1-.213-.242zm.48-1.345c-.139.15-.309.348-.421.566s-.189.499-.06.779l.454-.21c-.035-.077-.03-.184.05-.34.08-.155.21-.312.343-.454zm.763.118.15-.2-.008-.006a1 1 0 0 0-.077-.047.8.8 0 0 0-.202-.075.65.65 0 0 0-.626.21l.366.341c.067-.071.118-.07.158-.061a.3.3 0 0 1 .087.036l.002.002-.002-.002zm.56.34.214-.127v-.002l-.002-.002-.014-.022-.035-.047a1 1 0 0 0-.132-.134 1.14 1.14 0 0 0-.549-.253l-.085.493a.64.64 0 0 1 .376.208l.013.016-.001-.002zm-.017-.672-.242.063v.001l.002.006.027.111c.016.072.035.164.048.249a1 1 0 0 1 .015.162v.004l.001-.007.008-.022a.22.22 0 0 1 .246-.121.2.2 0 0 1 .061.027l-.3.4c.04.03.185.123.34.025a.3.3 0 0 0 .112-.134.4.4 0 0 0 .027-.1 1.2 1.2 0 0 0-.015-.31 4 4 0 0 0-.086-.407l-.002-.008v-.003zm-.304-1.453-.248.038v.003l.002.01.027.168.073.423c.058.313.138.702.217.903l.465-.185c-.057-.145-.13-.482-.19-.809a21 21 0 0 1-.099-.585V5.94zm-.329-.376c.021.149.05.308.088.444l.481-.136a3 3 0 0 1-.073-.376zm.191.214.25.019V5.83a1 1 0 0 1 .02-.126c.006-.018.008-.02.004-.014l-.434-.247a.8.8 0 0 0-.074.236l-.015.114v.003zm.06 1.679c.15-.143.218-.343.25-.522.033-.183.034-.38.024-.556a4 4 0 0 0-.09-.655V5.76l-.244.055-.243.056.002.01a2 2 0 0 1 .03.16c.018.106.038.25.046.403.009.155.006.31-.017.44-.025.136-.065.211-.102.247zm-.535.334a.53.53 0 0 0 .295-.12c.072-.055.152-.132.24-.214l-.344-.364a3 3 0 0 1-.199.18c-.044.033-.042.02-.015.019zm-.6-.323c.104.087.198.165.28.219.08.054.188.11.32.104l-.023-.5c.029 0 .031.014-.022-.021a3 3 0 0 1-.237-.187zm-.042.233q-.002-.16.009-.271l.013-.084.006-.021a.1.1 0 0 1-.048.04.12.12 0 0 1-.07.014c-.008-.002 0-.002.025.013q.037.02.106.076l.32-.385c-.115-.095-.24-.177-.372-.198a.4.4 0 0 0-.23.032.4.4 0 0 0-.158.149.8.8 0 0 0-.09.314 3 3 0 0 0-.011.321zm0 1.718V7.739h-.5v1.718zm-.572.51c.056 0 .208.01.337-.059.17-.09.235-.263.235-.451h-.5c0 .042-.007.051-.003.044l.013-.02.02-.015c.01-.005.012-.002-.008 0l-.034.001h-.05zm-.026-.027a.1.1 0 0 1-.041.025l-.007.002.026-.001h.048l.01-.5c-.034 0-.09-.002-.143.005a.4.4 0 0 0-.215.087zm-.105-.972-.25-.015v.006l-.001.016a37 37 0 0 1-.054.75l.498.048a19 19 0 0 0 .055-.768l.001-.017v-.005zm-.3-1.183-.238.08v.002l.013.037a15 15 0 0 1 .14.453c.038.131.074.266.1.381a2 2 0 0 1 .035.197v.018l.5.03c.006-.1-.02-.237-.047-.355a7 7 0 0 0-.108-.41 15 15 0 0 0-.159-.512zm-.603-.827-.22.12.005.008.055.095c.036.061.087.146.148.24.116.177.284.412.452.555l.324-.381a2.3 2.3 0 0 1-.357-.449 6 6 0 0 1-.185-.303l-.003-.005zm-.235-.208.205.142v.002l-.002.001-.008.01-.02.014a.19.19 0 0 1-.176-.006.13.13 0 0 1-.043-.039c-.002-.001.016.028.032.126l.493-.084a.8.8 0 0 0-.104-.31.34.34 0 0 0-.304-.166.36.36 0 0 0-.217.097.5.5 0 0 0-.06.067v.003h-.002s0 .002.206.143m-.69 1.006c.175.067.35.072.506-.005.147-.073.24-.2.297-.317.111-.229.137-.515.137-.684h-.5c0 .14-.024.337-.087.465-.03.062-.056.082-.068.087-.004.002-.03.016-.105-.013zm-.13-2.225-.247-.038v.006l-.012.076a8 8 0 0 0-.07.875c-.003.244.008.51.06.735.024.112.062.226.12.324.06.1.149.197.279.247l.18-.467c.005.002-.007 0-.029-.036a.6.6 0 0 1-.063-.178 2.8 2.8 0 0 1-.046-.616 7 7 0 0 1 .075-.888zm.47.468c-.01-.262-.075-.443-.176-.562a.46.46 0 0 0-.222-.146l-.044-.008h-.002l-.026.248-.026.25-.001-.001h-.003l-.025-.005-.02-.007-.013-.008c.005.006.05.064.058.26zm.012.808.203-.146-.027-.042a1.4 1.4 0 0 1-.188-.62l-.5.02a1.83 1.83 0 0 0 .306.93l.001.002h.001zm.171-.731-.25-.01v.01a6 6 0 0 1-.057.598l-.01.046-.005.016.006-.011a.2.2 0 0 1 .025-.033.23.23 0 0 1 .213-.066.2.2 0 0 1 .134.084c.01.013.01.02.006.007l-.467.179q.016.047.051.1a.27.27 0 0 0 .428.037.4.4 0 0 0 .066-.104c.037-.09.057-.227.07-.333a7 7 0 0 0 .04-.497v-.012zm.537-.824-.147-.202-.001.001-.002.001-.007.005a1 1 0 0 0-.09.073 2 2 0 0 0-.208.205c-.144.163-.331.428-.332.74l.5.001c0-.122.082-.27.206-.41a1.7 1.7 0 0 1 .228-.211zm.29.52.25.002v-.036a2 2 0 0 0-.04-.343.64.64 0 0 0-.153-.305.37.37 0 0 0-.22-.11.4.4 0 0 0-.246.052l.237.44c.005-.002-.014.01-.05.005a.13.13 0 0 1-.075-.034q-.011-.015 0 .004a.4.4 0 0 1 .02.062 1 1 0 0 1 .026.256v.004zm-.012.787.229.102v-.003a1 1 0 0 0 .032-.084 1.5 1.5 0 0 0-.01-.878l-.478.15a1 1 0 0 1 .01.579l-.01.029-.001.005v-.003zm.303.219c-.142-.206-.143-.205-.142-.206l.002-.001-.002.001-.014.008c-.017.008-.019.005-.005.005a.13.13 0 0 1 .105.057c.016.023 0 .018.003-.072l-.5-.022a.6.6 0 0 0 .082.371c.083.125.21.167.315.166A.5.5 0 0 0 7.195 7l.027-.017s.001-.001-.142-.206m-.169-1.292-.239.074.001.003.003.01.053.18a8 8 0 0 1 .108.428c.034.158.059.302.063.4.002.054-.003.07-.001.066a.19.19 0 0 1 .169-.12l.025.5c.186-.01.262-.16.285-.236a.7.7 0 0 0 .021-.23 3 3 0 0 0-.074-.487 9 9 0 0 0-.174-.657v-.003l-.001-.002zm-.086-.854-.241-.064v.001l-.001.003-.006.026-.012.065q-.015.083-.019.222c-.003.182.022.432.135.699l.46-.195a1.23 1.23 0 0 1-.074-.695s0 .002-.242-.062m.32-.306-.052-.245h-.001l-.003.001-.072.021a1 1 0 0 0-.152.07.56.56 0 0 0-.289.438l.498.04c.001-.006.003-.022.046-.048a.3.3 0 0 1 .08-.033h-.003zm.208.934h.25v-.013l-.004-.14a5 5 0 0 0-.024-.335 2 2 0 0 0-.073-.37.6.6 0 0 0-.087-.178.35.35 0 0 0-.245-.147l-.05.498a.16.16 0 0 1-.108-.055c-.003-.003.004.006.015.039.021.064.038.16.05.27a4 4 0 0 1 .026.43zm.449.994c.013.01-.002.003-.032-.06a1.4 1.4 0 0 1-.08-.227 2.8 2.8 0 0 1-.087-.707h-.5c0 .308.042.601.105.836.03.117.068.224.111.313a.66.66 0 0 0 .179.242zm-.471-.07.004.005.012.017q.015.023.033.056a1 1 0 0 1 .073.182c.003.014-.001.003.001-.022a.2.2 0 0 1 .03-.088.235.235 0 0 1 .285-.098c.02.008.032.017.033.018l-.304.397a.4.4 0 0 0 .078.046c.032.013.09.032.163.017.185-.038.21-.214.213-.246a.4.4 0 0 0-.01-.13 1.5 1.5 0 0 0-.12-.31 1 1 0 0 0-.131-.191zm-.097-.661c-.012.097-.026.21-.025.31a.5.5 0 0 0 .122.35l.36-.346c.019.02.023.036.022.034a.2.2 0 0 1-.004-.045c0-.059.008-.136.021-.244zm.027-.337a3 3 0 0 1-.027.337l.496.059c.014-.114.03-.255.03-.396zm.837-.2a3 3 0 0 0-.177-.133.7.7 0 0 0-.219-.107.36.36 0 0 0-.177-.001.32.32 0 0 0-.178.12.53.53 0 0 0-.086.32h.5q0-.045.003-.052c.002-.007 0 .01-.018.033a.2.2 0 0 1-.095.063.14.14 0 0 1-.069.002q-.01-.003.01.005l.048.03q.063.045.15.113zm.005.003-.005-.004-.308.394.004.003zm.248.83c.007-.117.016-.266-.007-.404a.66.66 0 0 0-.241-.426l-.309.393c.027.022.046.05.057.114.012.074.008.164 0 .295zm-.008.191q.001-.089.008-.191l-.5-.028a4 4 0 0 0-.008.219zm.328.543c-.233-.18-.328-.332-.328-.543h-.5c0 .427.225.709.521.938zm-.196-.099q.004.081.002.144c0 .046-.005.063-.005.063a.1.1 0 0 1 .029-.046.2.2 0 0 1 .111-.057.15.15 0 0 1 .076.007l-.017-.012-.307.395c.066.05.179.124.316.105a.33.33 0 0 0 .265-.231.7.7 0 0 0 .032-.21 2 2 0 0 0-.003-.176zm-.003-.108.003.108.5-.018-.003-.09zm-.215-.5c.062.117.118.223.159.319a.6.6 0 0 1 .056.181h.5c0-.132-.05-.269-.097-.38-.05-.116-.116-.24-.175-.353zm-.104-.204q.051.103.104.204l.443-.233-.1-.192zm.069-.731c-.048.071-.124.179-.149.309a.66.66 0 0 0 .08.422l.448-.221a.4.4 0 0 1-.037-.103v-.004q-.002 0 .014-.031a1 1 0 0 1 .06-.096zm.08-.127-.08.127.416.276q.042-.06.094-.146zm1.014.3a1.07 1.07 0 0 0-.358-.442.5.5 0 0 0-.332-.086.45.45 0 0 0-.323.228l.43.257c.012-.021.002.005-.04.011-.03.004-.036-.01-.009.009a.4.4 0 0 1 .093.09.7.7 0 0 1 .082.136zm.018.041-.019-.042-.455.206.019.042zm-.248-.199-.25.01v.007l.002.018a7 7 0 0 0 .02.288l.498-.043a8 8 0 0 1-.02-.285v-.005zm.52-.657-.152-.199-.001.001-.002.001-.006.005-.091.075a3 3 0 0 0-.21.192 1.6 1.6 0 0 0-.216.259.7.7 0 0 0-.079.165.4.4 0 0 0 0 .238l.474-.16a.14.14 0 0 1 .006.06v.005-.003l.004-.008.016-.028c.031-.05.084-.11.148-.175a3 3 0 0 1 .257-.227l.004-.003zm.434 1.112.25-.014v-.001l-.001-.003V5.35l-.004-.04a5 5 0 0 0-.08-.57 1.7 1.7 0 0 0-.16-.458c-.071-.125-.233-.317-.494-.258l.11.487c-.078.018-.093-.056-.05.02.039.066.075.177.105.315a4 4 0 0 1 .073.537l.002.01v.001zm-.306.258-.09.234h.002a1 1 0 0 0 .097.03c.05.011.134.026.223.015a.38.38 0 0 0 .304-.203c.066-.13.048-.278.009-.407l-.478.147c.026.084.002.075.023.033a.13.13 0 0 1 .074-.064l.008-.002H9.89a.3.3 0 0 1-.068-.016h.001zm.23 1.736.242-.062-.004-.018-.014-.055-.047-.196a16 16 0 0 1-.127-.591 5 5 0 0 1-.085-.568 1 1 0 0 1 0-.132c0-.01-.001.016-.025.049a.22.22 0 0 1-.192.086l.044-.498a.28.28 0 0 0-.258.12.4.4 0 0 0-.062.154 1 1 0 0 0-.006.256c.013.178.05.408.093.627a17 17 0 0 0 .197.884l.001.004zm.324.282-.184-.17h.001v-.001q.001 0 0 0l-.01.01c-.017.011-.006-.003.028-.005a.15.15 0 0 1 .082.02c.027.015.038.033.04.035a.1.1 0 0 1-.014-.042 1 1 0 0 1-.017-.143l-.5.027a.9.9 0 0 0 .098.41.4.4 0 0 0 .145.147c.065.038.134.05.196.046a.45.45 0 0 0 .237-.092 1 1 0 0 0 .079-.07l.002-.001v-.001s.001-.001-.183-.17m.24.488.25-.007v-.01l-.007-.095a2 2 0 0 0-.035-.224.7.7 0 0 0-.12-.269.356.356 0 0 0-.42-.116l.184.465a.14.14 0 0 1-.096 0 .13.13 0 0 1-.06-.038c-.002-.002.011.017.025.075a1 1 0 0 1 .029.208v.018zm.437-.551-.234-.086v.001l-.003.006-.008.021a3 3 0 0 1-.136.3 1 1 0 0 1-.077.12l-.009.01q0-.002.022-.014a.2.2 0 0 1 .078-.015c.086.003.13.057.14.07l-.418.275c.046.07.133.151.263.155a.36.36 0 0 0 .24-.09 1 1 0 0 0 .2-.272 3 3 0 0 0 .163-.357l.01-.027.003-.008V7.68l.001-.001zm.516.366.225-.11-.001-.002-.004-.007-.012-.024-.044-.08a2 2 0 0 0-.153-.225.7.7 0 0 0-.276-.217.38.38 0 0 0-.252-.004.4.4 0 0 0-.203.16l.41.287c.003-.006-.01.014-.045.026a.13.13 0 0 1-.08.002c-.01-.004.012.004.059.062a1.3 1.3 0 0 1 .149.237l.002.004zm.46-.375-.22-.118-.002.003-.041.07a2 2 0 0 1-.105.151l-.052.057-.019.016a.14.14 0 0 1 .08-.01.16.16 0 0 1 .1.057l-.402.298a.346.346 0 0 0 .45.1c.1-.05.18-.14.232-.203a2 2 0 0 0 .183-.273l.012-.02.003-.007.001-.002zm.315.35c.014-.055.03-.114.04-.167a.7.7 0 0 0 .019-.18.3.3 0 0 0-.04-.143.28.28 0 0 0-.188-.139.3.3 0 0 0-.174.014.5.5 0 0 0-.106.054l.27.421q.018-.01.004-.004a.2.2 0 0 1-.098.004.22.22 0 0 1-.144-.106c-.022-.038-.023-.069-.024-.072 0-.007.001.004-.008.049q-.012.057-.035.143zm-.065.33c0-.076.028-.189.065-.33l-.484-.126c-.032.12-.08.303-.08.457zm-.522.707c.078-.036.153-.07.213-.103a.6.6 0 0 0 .184-.143c.12-.14.125-.311.125-.46h-.5c0 .158-.018.151-.006.136.002-.002-.005.007-.044.03-.04.022-.095.047-.18.086zm-.013.006.013-.006-.208-.454-.013.005zm-.547-.33-.231.094v.002l.002.003.003.007a.5.5 0 0 0 .183.212c.151.1.355.12.59.012l-.208-.455a.2.2 0 0 1-.097.027l-.008-.001h-.001l-.006-.006q0-.001 0 0l.002.003.001.003.001.002v.002zm-.647.237.128.215.005-.003.077-.044a4 4 0 0 1 .19-.097c.072-.034.135-.06.178-.072.023-.006.027-.004.017-.004-.002 0-.079 0-.14-.072l.384-.321a.31.31 0 0 0-.241-.107.6.6 0 0 0-.152.022 2 2 0 0 0-.26.102 4 4 0 0 0-.305.161l-.006.004h-.001zm-.345-.096-.2.15.001.001.016.02a.6.6 0 0 0 .152.124c.11.062.273.106.463.035l-.174-.468c-.023.008-.032.004-.042-.002l-.018-.013-.003-.003.001.001.002.002v.001l.002.002zm.162 1.013c0-.32-.002-.595.008-.775q.004-.067.01-.106l.005-.038a.1.1 0 0 1-.016.034.234.234 0 0 1-.305.076.2.2 0 0 1-.062-.052l.396-.305a.3.3 0 0 0-.094-.082.266.266 0 0 0-.358.096q-.028.049-.037.082a1.2 1.2 0 0 0-.038.267c-.011.198-.01.491-.009.805zm0 .002-.5-.002v.002zm.001.332v-.332l-.5.002v.33zM7.791 12.33c.6-.104 1.21-.42 1.671-.809.45-.38.818-.883.818-1.386h-.5c0 .276-.224.652-.64 1.004-.406.342-.936.612-1.434.698zm-1.953-1.425c.028.323.195.729.514 1.03.329.31.812.503 1.44.395l-.086-.493c-.47.081-.794-.061-1.01-.265a1.2 1.2 0 0 1-.36-.711zm1.086-1.02.005.053a.26.26 0 0 0 .124.206.25.25 0 0 0 .32-.05c.032-.036.045-.073.048-.08l.01-.036c.013-.048.022-.132.03-.206l-.499-.047q-.005.059-.01.097l-.005.035.006-.02a.248.248 0 0 1 .462.002c.01.028.01.047.01.038l-.002-.022zm.126-.328a.38.38 0 0 0-.126.328l.499-.03c0-.01.001 0-.005.018a.15.15 0 0 1-.046.066zm-.239-1.503.058-.243h-.003l-.036-.007a1 1 0 0 0-.302.019c-.19.042-.431.148-.7.385l.329.376c.212-.186.38-.25.48-.274a.5.5 0 0 1 .125-.01H6.76l-.005-.002h-.003zm.425-.025a.8.8 0 0 0-.258-.187.5.5 0 0 0-.161-.038h-.005v.5h-.003l-.026-.002q-.006-.001.001.001c.01.004.041.02.087.068zm-.762.946a2 2 0 0 0 .572-.286.9.9 0 0 0 .222-.227.4.4 0 0 0 .06-.195.33.33 0 0 0-.092-.238l-.365.342a.17.17 0 0 1-.043-.115.1.1 0 0 1 .01-.05l-.004.005-.019.02-.066.056c-.118.087-.288.17-.416.208zm-.676.3c.255-.128.49-.245.676-.3l-.141-.48c-.238.07-.518.212-.76.333zm-.35.171c.112-.052.232-.112.35-.171l-.224-.447q-.18.091-.335.163zm.38-1.238c-.247.216-.503.47-.658.655A2 2 0 0 0 5.067 9a.5.5 0 0 0-.076.165.27.27 0 0 0 .246.33.4.4 0 0 0 .123-.015q.046-.013.087-.033l-.208-.455q-.02.01-.019.008l.013-.002a.23.23 0 0 1 .248.268c-.007.032-.018.041.002.01q.021-.032.07-.091a6 6 0 0 1 .604-.6zm-.57 3.18c-.027-.171.043-.429.15-.68a4 4 0 0 1 .204-.405l.003-.006-.213-.131-.213-.13-.002.003-.005.008-.016.028a4 4 0 0 0-.219.438c-.108.256-.234.63-.184.953zm.312.343a.2.2 0 0 1-.161-.031c-.049-.034-.121-.115-.152-.311l-.494.077c.047.299.176.516.362.645a.7.7 0 0 0 .56.106zm.372-.304-.245-.05v.003l-.003.012a1.4 1.4 0 0 1-.06.197.6.6 0 0 1-.067.13c-.025.032-.027.018.003.011l.116.487a.5.5 0 0 0 .283-.202c.057-.078.1-.166.13-.242a2 2 0 0 0 .088-.294v-.002zm-.129.011c.002-.002-.006.009-.028.018a.15.15 0 0 1-.078.009.1.1 0 0 1-.043-.016q-.007-.005 0 .002a.3.3 0 0 1 .05.077l.228-.1.23-.101-.001-.001-.001-.002-.002-.005a.8.8 0 0 0-.138-.21.43.43 0 0 0-.243-.138.38.38 0 0 0-.345.133zm-.653-.409a.5.5 0 0 0 .04.324.36.36 0 0 0 .254.182.47.47 0 0 0 .27-.034l-.096-.23-.097-.23.002-.001.002-.001-.006.002c-.01.002-.004-.001.013.002a.15.15 0 0 1 .098.072c.019.036.005.047.014-.006zm.242-.863-.249.024v.005l.008.086c.004.058.01.138.013.228.007.185.007.389-.014.52l.494.08a3.4 3.4 0 0 0 .02-.62 8 8 0 0 0-.02-.319l-.002-.02v-.005l-.001-.003zm3.206-1.803.008.01.016.03a.17.17 0 0 1-.022.161l-.006.007.017-.01a.3.3 0 0 1 .05-.022l-.076-.238-.075-.239h-.001l-.002.001-.02.007a1 1 0 0 0-.187.097.4.4 0 0 0-.157.22.35.35 0 0 0 .114.342zm-.021.183q-.002-.016.012-.051a.15.15 0 0 1 .046-.057c.035-.027.063-.025.058-.025a.1.1 0 0 1-.036-.01.2.2 0 0 1-.06-.04l-.34.366a.67.67 0 0 0 .422.184.4.4 0 0 0 .26-.078.36.36 0 0 0 .138-.289zm.008-.245-.081.236h.001a.3.3 0 0 1 .078.045l.005.005a.1.1 0 0 1-.011-.04h.5c0-.213-.154-.34-.231-.392a.8.8 0 0 0-.18-.09l-.001-.001zm6.656-.455c-.025 0-.027-.005-.028-.007a.2.2 0 0 1-.038-.08.6.6 0 0 1-.022-.193l-.25-.014-.25-.015v.036a1.2 1.2 0 0 0 .04.324c.027.09.074.204.166.296.1.1.235.158.4.152zm.466-.072a.23.23 0 0 1-.18-.076.2.2 0 0 1-.051-.096c-.007-.03-.002-.045-.004-.03a.4.4 0 0 1-.043.114c-.06.11-.13.158-.188.16l.018.5c.322-.012.519-.252.61-.425a.9.9 0 0 0 .097-.272.4.4 0 0 0-.002-.157.3.3 0 0 0-.068-.131.27.27 0 0 0-.207-.087zm.057-.127a.15.15 0 0 1-.075.123l-.014.006.032-.002-.018-.5a.54.54 0 0 0-.234.054.35.35 0 0 0-.19.337zm-.604.107a.4.4 0 0 0 .02.112c.014.04.046.103.116.147a.27.27 0 0 0 .224.03.3.3 0 0 0 .117-.07.44.44 0 0 0 .127-.326l-.5.018.003-.02a.1.1 0 0 1 .027-.036.2.2 0 0 1 .079-.045.23.23 0 0 1 .189.026.22.22 0 0 1 .097.137v.01zm.157.033a.18.18 0 0 1-.16-.1q-.006-.015-.001.005l.004.062.5-.018a.7.7 0 0 0-.042-.24.325.325 0 0 0-.318-.208zm.192-.14.001-.015q.002-.001-.006.022a.21.21 0 0 1-.187.133l-.017-.5a.29.29 0 0 0-.267.2c-.02.058-.022.119-.023.13zm-.45.197q.015.017.05.039a.256.256 0 0 0 .373-.11.3.3 0 0 0 .024-.09l.003-.035-.5-.032v.008l.003-.015a.24.24 0 0 1 .259-.184.24.24 0 0 1 .14.063zm-.094-.186c.002.01.008.037.018.065.011.03.032.078.077.121l.35-.356c.03.028.04.057.043.065l.002.005-.002-.011zm.112.085c.008 0-.002 0-.02-.005a.16.16 0 0 1-.094-.09c-.002-.004-.002-.006.002.01l.488-.111c-.004-.014-.02-.11-.09-.189a.38.38 0 0 0-.303-.115zm-.174-.191.25-.01v.013l-.004.04a.2.2 0 0 1-.019.057.2.2 0 0 1-.066.079c-.037.025-.052.014.013.012l-.017-.5a.5.5 0 0 0-.278.075.3.3 0 0 0-.124.185l-.005.044v.012zm4.083-1.342-.25-.014v.036a1.2 1.2 0 0 0 .041.324.7.7 0 0 0 .165.295c.1.1.236.159.4.153l-.017-.5c-.026.001-.028-.005-.029-.006a.2.2 0 0 1-.038-.08.6.6 0 0 1-.022-.194zm.157-.309a.5.5 0 0 0-.277.075.3.3 0 0 0-.125.185l-.005.045v.011s0 .002.25-.007l.25-.009v.013l-.004.04a.2.2 0 0 1-.018.056.2.2 0 0 1-.067.08c-.037.025-.052.013.014.011zm.393.304c-.003-.014-.02-.11-.09-.188a.38.38 0 0 0-.303-.116l.018.5c.007 0-.002.001-.02-.005a.16.16 0 0 1-.095-.09l.002.01zm-.042-.06c.029.03.04.058.043.066l.002.006-.003-.012-.488.112c.003.009.009.037.019.065.01.03.032.077.076.12zm-.4.13-.001.008.003-.016a.24.24 0 0 1 .088-.135.245.245 0 0 1 .275-.013q.027.018.035.027l-.351.356q.016.016.049.04a.256.256 0 0 0 .373-.11c.02-.042.023-.082.024-.09l.003-.036zm.29-.33a.29.29 0 0 0-.267.2c-.021.058-.023.12-.024.13l.5.031v-.015l-.005.021a.21.21 0 0 1-.187.133zm.36.45a.7.7 0 0 0-.043-.241.325.325 0 0 0-.318-.208l.018.5a.18.18 0 0 1-.161-.1q-.005-.016 0 .004l.004.062zm-.396-.072.003-.02s.005-.016.026-.035a.2.2 0 0 1 .079-.045.23.23 0 0 1 .189.025.22.22 0 0 1 .097.138l.001.009-.5.017a.4.4 0 0 0 .02.112.3.3 0 0 0 .116.148.27.27 0 0 0 .224.029.3.3 0 0 0 .117-.07.44.44 0 0 0 .128-.325zm.425-.39a.54.54 0 0 0-.235.054.35.35 0 0 0-.19.336l.5-.017a.15.15 0 0 1-.076.123q-.021.008-.013.006l.031-.003zm-.43 1.07c.321-.01.518-.25.61-.423a.9.9 0 0 0 .096-.273.4.4 0 0 0-.002-.157.3.3 0 0 0-.067-.13.27.27 0 0 0-.207-.088l.017.5a.23.23 0 0 1-.18-.075.2.2 0 0 1-.05-.097c-.008-.03-.003-.045-.005-.03a.4.4 0 0 1-.043.114c-.059.111-.13.158-.187.16zm-8.889 2.102a1 1 0 0 0-.12.128.4.4 0 0 0-.084.213.34.34 0 0 0 .096.25.6.6 0 0 0 .16.115l.234-.441-.03-.018q-.008-.006 0 .002a.1.1 0 0 1 .026.04q.015.036.014.077c-.003.05-.025.073-.017.063l.058-.06zm.895.33a1.8 1.8 0 0 0-.33-.34.5.5 0 0 0-.256-.1.4.4 0 0 0-.309.11l.337.37a.1.1 0 0 1-.065.019c-.021-.002-.021-.01.005.01q.083.059.227.243zm-.014.791c.04-.064.115-.18.141-.316a.57.57 0 0 0-.127-.475l-.391.312a.14.14 0 0 1 .028.048.04.04 0 0 1 0 .02.2.2 0 0 1-.022.054 1 1 0 0 1-.055.094zm-.043.071q.016-.029.043-.07l-.426-.264c-.016.027-.037.06-.055.093zm-.677-.26c-.052.075-.105.213-.022.351.073.12.198.15.269.154.153.01.334-.07.43-.245l-.438-.24c.003-.005.01-.016.038-.014a.17.17 0 0 1 .13.088.18.18 0 0 1 .006.186zm-.11-.226c-.002 0 .01.006.03.035a.4.4 0 0 1 .07.196c0 .027-.007.018.01-.006l.413.281a.5.5 0 0 0 .076-.28.8.8 0 0 0-.045-.251c-.049-.144-.151-.327-.319-.416zm12.933-.949-.03-.018q-.008-.007 0 .002a.1.1 0 0 1 .026.04q.015.036.014.077c-.002.05-.025.074-.017.063l.059-.06-.337-.369a1 1 0 0 0-.121.129.4.4 0 0 0-.084.213.34.34 0 0 0 .096.25.6.6 0 0 0 .16.115zm.09.98a1 1 0 0 0 .142-.448.7.7 0 0 0-.023-.267.43.43 0 0 0-.209-.265l-.235.442c-.033-.018-.038-.043-.035-.033a.3.3 0 0 1 .004.084.6.6 0 0 1-.058.206zm-.163-.139a.11.11 0 0 1 .076-.052.1.1 0 0 1 .057.006.1.1 0 0 1 .042.05.15.15 0 0 1-.012.135l-.414-.281a.35.35 0 0 0-.036.338.42.42 0 0 0 .462.243.4.4 0 0 0 .263-.197zm.017-.03-.017.03.438.242.016-.03zm.1-.459c.047.186-.012.3-.1.46l.437.242c.093-.168.247-.436.147-.825zm.008-.247a.1.1 0 0 1-.08.02c-.037-.005-.048-.023-.036-.01.01.01.03.035.051.079q.032.065.057.158l.484-.123a1.04 1.04 0 0 0-.238-.467.44.44 0 0 0-.262-.135.4.4 0 0 0-.313.108zm1.86-3.918a1 1 0 0 0-.12.128.4.4 0 0 0-.084.213.34.34 0 0 0 .096.25.6.6 0 0 0 .16.115l.234-.441-.03-.018q-.008-.006 0 .001a.1.1 0 0 1 .026.041q.015.035.014.077c-.003.05-.025.073-.017.062l.058-.059zm.814.493a1.04 1.04 0 0 0-.238-.467.44.44 0 0 0-.263-.134.4.4 0 0 0-.313.108l.337.37a.1.1 0 0 1-.078.019c-.038-.005-.05-.022-.037-.01.01.01.03.036.051.08q.031.064.056.158zm-.147.825c.093-.167.246-.436.147-.825l-.485.124c.048.185-.011.3-.1.459zm-.016.03.016-.03-.437-.242-.017.03zm-.689-.385a.35.35 0 0 0-.036.338.416.416 0 0 0 .462.243.38.38 0 0 0 .263-.196l-.438-.242a.11.11 0 0 1 .076-.052.1.1 0 0 1 .057.006.1.1 0 0 1 .042.05.15.15 0 0 1-.013.134zm.09-.257c-.034-.018-.04-.043-.036-.033a.3.3 0 0 1 .004.084.6.6 0 0 1-.058.206l.413.281a1 1 0 0 0 .143-.448.7.7 0 0 0-.024-.267.43.43 0 0 0-.208-.264zm-6.328-1.26-.03-.019q-.009-.006 0 .002a.1.1 0 0 1 .026.041q.015.035.013.077c-.002.05-.024.073-.016.062l.058-.059-.337-.37a1 1 0 0 0-.121.129.4.4 0 0 0-.083.213.34.34 0 0 0 .095.25.6.6 0 0 0 .16.115zm.368 1.175a.4.4 0 0 0 .064-.184.7.7 0 0 0-.002-.156 1.6 1.6 0 0 0-.203-.596.63.63 0 0 0-.227-.24l-.235.442c-.02-.01-.005-.009.032.054a1.1 1.1 0 0 1 .138.441c-.001.01-.001-.012.02-.042zm-.174-.26c.002-.005.01-.015.038-.014a.17.17 0 0 1 .13.088.18.18 0 0 1 .006.186l-.414-.28c-.051.075-.104.213-.021.351.072.12.197.15.268.154.154.01.335-.07.431-.245zm.024-.539c.037.048.06.134.051.257a.8.8 0 0 1-.075.282l.438.24c.065-.118.121-.298.136-.483.014-.183-.01-.42-.16-.608zm-.167-.272a.1.1 0 0 1-.066.02c-.02-.002-.02-.01.006.009q.083.06.227.243l.39-.312a1.8 1.8 0 0 0-.329-.34.5.5 0 0 0-.256-.1.4.4 0 0 0-.31.11zm-2.498 3.26.006.005q.007.005.02.02c.015.021.036.06.039.112a.2.2 0 0 1-.03.119.1.1 0 0 1-.028.033c-.001.001.01-.007.047-.026l.13-.061-.206-.455a3 3 0 0 0-.15.07 1 1 0 0 0-.14.087.32.32 0 0 0-.122.259.32.32 0 0 0 .15.247zm-.015.205c0-.052.02-.1.05-.135a.2.2 0 0 1 .065-.046c.018-.008.02-.004-.005-.004a.3.3 0 0 1-.065-.01l-.03-.01-.285.41a.7.7 0 0 0 .366.11.5.5 0 0 0 .203-.032.31.31 0 0 0 .201-.283zm.004-.077c-.001.017-.004.048-.004.077h.5v-.01l.003-.026zm.196.074c.027-.012.004.005-.046-.003a.19.19 0 0 1-.137-.106c-.012-.027-.01-.042-.01-.025 0 .014 0 .03-.003.06l.498.041a1 1 0 0 0 .006-.108.4.4 0 0 0-.035-.172.31.31 0 0 0-.232-.183.42.42 0 0 0-.248.04zm-1.76 1.644-.055-.243h-.004a1 1 0 0 1-.094.016 2 2 0 0 1-.254.018v.5a2.4 2.4 0 0 0 .458-.046h.003zm.555-.209a4 4 0 0 1-.52-.038h-.003l-.032.247-.032.248h.004l.01.002.18.02c.111.01.259.021.393.021zm.017.83a.9.9 0 0 0 .238-.16.5.5 0 0 0 .145-.238.34.34 0 0 0-.106-.335.44.44 0 0 0-.294-.097v.5c.033 0 .006.008-.033-.025a.17.17 0 0 1-.051-.081.15.15 0 0 1-.003-.076c.007-.028.017-.029-.005-.008a.4.4 0 0 1-.105.068zm-.18.2c.019-.093.024-.1.029-.106.004-.006.03-.037.151-.095l-.214-.451c-.144.068-.261.142-.34.25s-.1.227-.116.3zm-.011.05.01-.05-.489-.102-.01.045zm-.614.455a.5.5 0 0 0 .253.022.38.38 0 0 0 .23-.138.6.6 0 0 0 .091-.181c.017-.053.03-.11.04-.158l-.489-.107a1 1 0 0 1-.036.138l.004-.005a.12.12 0 0 1 .068-.04c.02-.004.021.003-.012-.008zm-.672-.977c.053.13.134.335.231.516.049.09.105.183.17.261.06.073.149.162.27.2l.15-.477c.018.006.005.008-.034-.04a1 1 0 0 1-.115-.18 5 5 0 0 1-.207-.466zm-.016-.04.016.04.465-.186-.017-.04zm.402-.524c-.033-.002-.082-.006-.126-.005a.36.36 0 0 0-.205.067.31.31 0 0 0-.12.267c.004.07.026.138.05.194l.463-.185c-.017-.043-.014-.048-.013-.033 0 .01 0 .035-.012.067a.2.2 0 0 1-.132.12l-.013.003.07.004zm.112.006q-.054 0-.112-.006l-.038.499c.039.003.092.007.15.007zM11.86 4.479a.12.12 0 0 1-.056-.042q-.009-.016-.003-.003.011.036.004.118a.5.5 0 0 1-.026.125c-.005.015-.006.012.003 0a.2.2 0 0 1 .04-.038.22.22 0 0 1 .13-.042v.5a.29.29 0 0 0 .233-.125.5.5 0 0 0 .063-.121 1 1 0 0 0 .037-.542.42.42 0 0 0-.242-.295zm-.342-.066a.14.14 0 0 1-.019.113l-.007.008.006-.004.02-.01a.8.8 0 0 1 .317-.046l.025.005.183-.465a.8.8 0 0 0-.291-.043 1.2 1.2 0 0 0-.298.043.74.74 0 0 0-.287.14.38.38 0 0 0-.127.404zm.092.148a.7.7 0 0 1-.092-.148l-.478.145c.036.12.117.23.163.294zm.07.788q.091-.105.117-.24a.5.5 0 0 0-.016-.24c-.039-.127-.122-.24-.17-.308l-.408.29q.043.058.07.102.026.044.03.063c.004.01.001.01.003.002.001-.007.004-.005-.007.008zm-1.017.906c.043-.026.116-.084.19-.144.08-.066.18-.15.282-.239.199-.174.426-.383.545-.523l-.381-.323a6 6 0 0 1-.493.47 11 11 0 0 1-.395.326l-.01.007zm-.046.028.046-.028-.261-.426-.04.024zm-.333-.238c-.013 0 .013-.002.052.014a.235.235 0 0 1 .113.314l-.02.03q-.01.011.001 0c.04-.032.116-.078.187-.12l-.255-.43c-.06.035-.175.102-.25.165a.5.5 0 0 0-.068.066.3.3 0 0 0-.07.175.27.27 0 0 0 .163.26.4.4 0 0 0 .147.026zm.24.012a3 3 0 0 0-.24-.012v.5q.08.001.205.01zm.371.001a.5.5 0 0 1-.128.01q-.11-.001-.244-.011l-.034.498c.085.006.185.013.277.013a1 1 0 0 0 .289-.036zm.226-.253c-.069.08-.127.15-.178.201l-.057.053c-.016.013-.012.006.01 0l.159.473a.5.5 0 0 0 .143-.082q.054-.044.104-.095c.064-.066.134-.149.2-.226zm.436-.441c-.154.108-.316.3-.436.44l.38.325c.137-.16.253-.293.344-.357zm.223-.192a.2.2 0 0 1-.058-.098q-.003-.019-.002-.006a.42.42 0 0 1-.163.296l.288.408a.92.92 0 0 0 .375-.688.5.5 0 0 0-.01-.114.3.3 0 0 0-.088-.163zm-.02 0 .047.021.002.001q-.003 0-.01-.006l-.018-.016.341-.365a.4.4 0 0 0-.099-.064l-.068-.03zm-.36-.571a.35.35 0 0 0-.007.28c.034.08.09.133.132.166.08.062.185.105.235.126l.195-.46-.08-.036a.3.3 0 0 1-.043-.025c-.008-.007.01.004.022.036a.16.16 0 0 1 0 .121zm.61.104a.4.4 0 0 0-.031-.148.32.32 0 0 0-.139-.154.28.28 0 0 0-.31.026.44.44 0 0 0-.13.172l.454.208c.012-.027.009-.005-.025.02a.22.22 0 0 1-.226.014.18.18 0 0 1-.081-.083.1.1 0 0 1-.011-.055zm-.059-.108a.1.1 0 0 1 .03.005l-.004-.003q-.004-.003.006.008.006.007.015.029a.2.2 0 0 1 .013.069h-.5c0 .087.037.153.063.19a.5.5 0 0 0 .097.1.47.47 0 0 0 .28.102zm-.255 2.313.198-.072-.17-.47-.198.071zm-.479-.303a.44.44 0 0 0 .329.311.4.4 0 0 0 .06.007h.005v-.5h.002l.026.002a.1.1 0 0 1 .05.029l.008.011zm.037-.352c-.01.03-.028.08-.04.132a.45.45 0 0 0 .003.22l.48-.14a.1.1 0 0 1 .005.03v-.004l.008-.026.015-.042zm.203.183c-.004 0-.057 0-.111-.044a.2.2 0 0 1-.078-.153c-.001-.026.004-.04.001-.029l-.015.043.47.17.026-.076a.4.4 0 0 0 .017-.126.3.3 0 0 0-.106-.217.32.32 0 0 0-.204-.068zm-.084.244a1 1 0 0 1 .095-.21.2.2 0 0 1 .038-.046c.004-.004-.013.012-.049.012v-.5a.42.42 0 0 0-.264.098.7.7 0 0 0-.144.165c-.071.11-.121.236-.15.323zm.217.138a1 1 0 0 1-.178-.143.2.2 0 0 1-.036-.05c-.002-.004.009.02-.003.055l-.474-.158a.42.42 0 0 0 .016.298.7.7 0 0 0 .127.191c.091.1.206.183.283.231zm.13-.194c-.077.08-.135.137-.183.168-.023.015-.028.013-.017.012a.1.1 0 0 1 .07.014l-.265.424c.195.123.387.033.486-.032.104-.068.2-.168.268-.239zm.089-.023-.051.245h-.002l.006.001.005.002-.01-.006a.1.1 0 0 1-.031-.035.18.18 0 0 1-.016-.168l.01-.016.359.347a.38.38 0 0 0 .116-.284.33.33 0 0 0-.137-.243.5.5 0 0 0-.198-.088h-.002zm9.012 3.375c-.103.211-.177.48-.198.733-.02.241 0 .53.154.736l.401-.298c-.04-.055-.075-.188-.057-.396a1.7 1.7 0 0 1 .15-.556zm.599.277c.002-.07.004-.14.004-.196q0-.043-.004-.087a.4.4 0 0 0-.023-.107.27.27 0 0 0-.235-.177.27.27 0 0 0-.157.04.3.3 0 0 0-.066.056 1 1 0 0 0-.118.194l.45.219q.023-.049.036-.07c.01-.017.01-.016.003-.007-.004.004-.017.019-.04.033a.238.238 0 0 1-.34-.112c-.01-.022-.01-.035-.008-.023l.002.045-.004.176zm-.006.268q0-.14.006-.268l-.5-.016a8 8 0 0 0-.006.284zm.186.47a1 1 0 0 1-.14-.191.64.64 0 0 1-.046-.279h-.5c0 .2.03.354.093.49.06.13.146.227.214.306zm.126.153q-.07-.09-.126-.154l-.379.327q.055.062.109.131zm-.076-.007-.001.007a.1.1 0 0 1-.015.035l.002-.002a.1.1 0 0 1 .033-.015.1.1 0 0 1 .056-.002c.035.008.032.024.001-.016l-.396.304a.5.5 0 0 0 .287.2.39.39 0 0 0 .326-.076.58.58 0 0 0 .207-.435zm.685-1.346c-.155.167-.322.446-.446.69-.064.125-.12.248-.162.353q-.03.079-.051.15a.6.6 0 0 0-.026.153h.5c0 .017-.003.016.006-.016q.012-.038.037-.104a4 4 0 0 1 .141-.309c.12-.235.262-.463.367-.577zm.908.17c0-.197-.16-.348-.33-.39-.202-.049-.408.036-.578.22l.366.34a.3.3 0 0 1 .09-.07c.013-.005.012-.002.003-.004a.05.05 0 0 1-.025-.016.12.12 0 0 1-.026-.08zm.363.32a.6.6 0 0 1-.261-.192.8.8 0 0 1-.105-.16c-.003-.008.003.005.003.032h-.5a.4.4 0 0 0 .026.137 1 1 0 0 0 .049.107c.037.067.088.14.148.21.114.133.29.285.501.347zm.327-.432-.248-.034v.005l-.004.02a2 2 0 0 1-.073.294.5.5 0 0 1-.076.155c-.015.017.018-.024.074-.008l-.139.48c.202.059.357-.045.444-.146a1 1 0 0 0 .169-.315 2.2 2.2 0 0 0 .1-.415v-.001zm-.25-2.281v2.28h.5V7.57zm-.207-.7a.35.35 0 0 1 .13.148c.037.081.077.237.077.552h.5c0-.348-.043-.586-.123-.76-.085-.186-.203-.276-.279-.335zm-.123-.107a1 1 0 0 0 .122.108l.306-.396-.06-.051zm-.224-.217c.104.099.184.174.224.217l.367-.34c-.055-.059-.15-.148-.248-.24zm0 0 .343-.364zm-.622-.653c.069.101.178.219.285.327.11.112.233.228.337.326l.343-.364a14 14 0 0 1-.324-.313 2 2 0 0 1-.229-.258zm-.173-1.109c-.002.188-.005.393.012.576.016.178.054.377.16.533l.413-.282c-.031-.047-.06-.138-.075-.296a5 5 0 0 1-.01-.524zm.002-.21-.002.21.5.007q.002-.107.002-.216zm1.23.321c-.09-.153-.303-.4-.497-.553a1 1 0 0 0-.163-.109.5.5 0 0 0-.214-.062.33.33 0 0 0-.284.142.45.45 0 0 0-.072.262h.5c0-.035.008-.013-.018.024a.17.17 0 0 1-.14.072c-.025 0-.03-.008-.005.005q.031.016.085.058c.151.12.32.32.377.415zm.062.577c.014-.055.038-.145.037-.246a.66.66 0 0 0-.1-.33l-.43.253c.027.047.03.072.03.086a.4.4 0 0 1-.021.112zm-.028.162c0-.051.01-.094.028-.162l-.485-.125c-.016.066-.043.165-.043.287zm-.314 0c0 .006-.001-.003.01-.02a.16.16 0 0 1 .109-.065.2.2 0 0 1 .113.017.2.2 0 0 1 .069.058c.02.032.013.045.013.01h-.5a.5.5 0 0 0 .072.269c.063.094.176.16.31.14a.35.35 0 0 0 .237-.163.46.46 0 0 0 .067-.246zM23.28 5.5c.005.069.008.11.008.134h.5c0-.045-.005-.109-.01-.169zm.31-1.157a.47.47 0 0 0-.256.278c-.038.098-.055.21-.064.31-.016.202 0 .426.01.569l.499-.035a3.5 3.5 0 0 1-.01-.494.6.6 0 0 1 .031-.169c.014-.036.015-.01-.024.005zm.682.467a4 4 0 0 0-.082-.202.7.7 0 0 0-.114-.182.38.38 0 0 0-.245-.125.5.5 0 0 0-.242.042l.187.464c.034-.014.03-.006.006-.008a.13.13 0 0 1-.074-.035c-.002-.002.007.007.027.052.02.042.04.097.07.174zm.12.3q-.072-.171-.12-.3l-.467.18q.05.13.129.318zm.073.844c.023-.094.053-.213.05-.356-.003-.145-.04-.3-.122-.489l-.46.199a.8.8 0 0 1 .082.302.8.8 0 0 1-.036.223zm-.052.355c0-.147.025-.247.052-.355l-.486-.12c-.028.115-.066.264-.066.475zm.393.744a3 3 0 0 1-.27-.365.76.76 0 0 1-.123-.38h-.5c0 .244.089.459.19.633.103.173.229.323.32.432zm.17.224c-.042-.072-.112-.155-.17-.224l-.384.32c.07.083.107.13.125.159zm-.741-1.314c.023.034.067.142.117.324A7 7 0 0 1 24.54 7.3c.004.062 0 .072.004.056a.2.2 0 0 1 .026-.067.243.243 0 0 1 .378-.048.2.2 0 0 1 .028.035l-.43.255a.3.3 0 0 0 .048.063.257.257 0 0 0 .406-.049.3.3 0 0 0 .034-.091.8.8 0 0 0 .004-.191 7 7 0 0 0-.205-1.11c-.048-.174-.11-.362-.188-.475zm.214-1.648a1.8 1.8 0 0 0-.341.821c-.043.276-.03.6.127.827l.41-.284c-.046-.068-.08-.233-.043-.467.034-.222.123-.442.237-.584zm.936.486c-.035-.086-.073-.18-.114-.266a1.2 1.2 0 0 0-.15-.248.42.42 0 0 0-.326-.166c-.16.002-.273.103-.346.194l.39.313c.038-.048.026-.008-.038-.007-.065 0-.086-.04-.063-.012q.03.033.082.14.049.107.102.24zm.128.29a3 3 0 0 1-.128-.29l-.463.188c.044.109.095.234.15.337zm-.15.957c.059-.077.159-.205.21-.365a.74.74 0 0 0-.06-.592l-.441.235c.048.09.043.15.026.203a.8.8 0 0 1-.133.217zm-.056.078c.012-.019.03-.042.057-.078l-.399-.302c-.024.032-.054.072-.08.111zm.066.103-.05-.146v.001a.1.1 0 0 1-.016.042l-.421-.269a.43.43 0 0 0-.053.319c.015.079.047.163.072.23zm.17.833c0-.386-.103-.656-.17-.833l-.468.176c.063.166.137.366.137.657zm.574 1.62c-.347-.474-.575-1.055-.575-1.62h-.5c0 .694.276 1.375.671 1.915zm.553 1.715c-.076-.55-.159-1.175-.553-1.715l-.404.295c.309.423.383.919.462 1.49zm.013.092-.013-.092-.495.07.013.09zm-.496-1.63c.043.369.064.93.063 1.326 0 .204-.007.343-.014.393-.003.022-.002-.008.018-.044a.246.246 0 0 1 .425-.009c.018.032.02.056.015.032l-.011-.068-.495.069q.007.06.018.105c.004.018.015.07.041.115.009.014.025.04.053.065a.255.255 0 0 0 .394-.073c.027-.05.034-.103.036-.117a4 4 0 0 0 .02-.468c0-.406-.02-.988-.066-1.384zm-.26-4.222c-.035.202-.037.524-.025.885.012.367.04.797.075 1.227.07.859.165 1.726.21 2.11l.497-.058a63 63 0 0 1-.209-2.093 26 26 0 0 1-.074-1.203c-.012-.364-.006-.639.018-.784zm.764-.003a4 4 0 0 0-.094-.214 1 1 0 0 0-.055-.098.4.4 0 0 0-.102-.108.28.28 0 0 0-.279-.026.32.32 0 0 0-.15.15c-.04.077-.065.185-.085.299l.493.084q.014-.078.025-.119c.008-.03.012-.038.01-.035l-.017.025a.22.22 0 0 1-.28.035c-.028-.02-.037-.038-.03-.028l.022.041q.032.069.08.185zm.21.43a2.4 2.4 0 0 1-.21-.43l-.462.191c.063.152.151.369.265.529zm.057.078-.057-.079-.407.29.058.08zm.11.814c.058-.091.154-.234.114-.417a.6.6 0 0 0-.088-.201q-.055-.085-.136-.196l-.406.292c.056.078.093.13.118.17.026.04.025.048.023.04v-.027l.001-.012a1 1 0 0 1-.047.081zm-.46.195c.019.005.108.032.212.003.11-.03.19-.108.248-.198l-.42-.27q-.015.017-.005.008a.1.1 0 0 1 .043-.022c.04-.01.072.002.045-.005zm.244-.16c0-.017 0-.014-.002 0a.22.22 0 0 1-.226.162c-.02-.002-.034-.006-.017-.002l.124-.484a.4.4 0 0 0-.073-.013.28.28 0 0 0-.296.225.5.5 0 0 0-.01.113zm.08.727-.08-.71v-.016h-.5c0 .049.01.154.024.277l.06.508zm.319 3.525c0-.88-.202-2.557-.318-3.525l-.497.06c.118.983.315 2.624.315 3.465zm-1.373 2.138a2.06 2.06 0 0 0 .925-.653c.272-.348.448-.828.448-1.485h-.5c0 .563-.149.93-.342 1.177-.195.25-.452.398-.705.492zm-1.202-.443c0 .237.171.419.388.496.218.078.498.065.814-.053l-.174-.469c-.245.091-.398.078-.472.051-.075-.027-.056-.054-.056-.025zm.225.233.063-.05c.02-.015.017-.01.002-.004a.22.22 0 0 1-.222-.046.2.2 0 0 1-.068-.125v-.008h.5a.32.32 0 0 0-.097-.238.28.28 0 0 0-.298-.048.5.5 0 0 0-.114.067c-.028.02-.058.045-.082.065zm-.46.226a.55.55 0 0 0 .285-.095c.067-.042.131-.095.175-.131l-.316-.387q-.073.06-.125.095l-.035.019.015-.001zm-.218-.85c-.07.123-.144.281-.158.426a.4.4 0 0 0 .072.284.37.37 0 0 0 .303.14v-.5c-.002 0 .051 0 .094.056.035.046.027.085.028.068a.4.4 0 0 1 .025-.085q.026-.064.07-.144zm.114.154c.005.003-.001 0-.008-.007a.2.2 0 0 1-.074-.122.2.2 0 0 1-.004-.064c.003-.025.01-.037.004-.024l-.032.062.435.246q.033-.06.056-.11a.4.4 0 0 0 .034-.12.29.29 0 0 0-.129-.274zm-.147-.286a.35.35 0 0 0 .05.188c.038.06.089.092.097.098l.282-.413c-.009-.006.023.013.046.05a.15.15 0 0 1 .025.077zm.454-.526a.5.5 0 0 0-.235.053.4.4 0 0 0-.168.174c-.056.114-.05.25-.05.3h.5l.003-.09-.004.01a.1.1 0 0 1-.047.048c-.018.01-.023.005 0 .005zm.391.67a.7.7 0 0 0 .124-.256.35.35 0 0 0-.01-.177.3.3 0 0 0-.111-.152.45.45 0 0 0-.226-.08c-.058-.005-.121-.005-.168-.005v.5c.054 0 .09 0 .117.003l.015.002a.1.1 0 0 1-.04-.02.2.2 0 0 1-.061-.088.2.2 0 0 1-.007-.078q.004-.016-.003.003l-.038.06zm-.205-.213-.012-.001h-.003.008l.024.009a.23.23 0 0 1 .141.242.2.2 0 0 1-.014.053l.003-.005.058-.084-.408-.29a2 2 0 0 0-.075.112.4.4 0 0 0-.06.151.27.27 0 0 0 .17.285.4.4 0 0 0 .108.024zm.329.11a.8.8 0 0 0-.329-.11l-.06.496a.4.4 0 0 1 .06.011q.027.006.065.029zm.065.053.01.002.023.006.01.005-.108-.065-.264.425c.067.041.11.067.14.083a.4.4 0 0 0 .056.024q.042.014.056.014zm.193.082a.6.6 0 0 0-.193-.082l-.077.494h-.006l-.016-.005-.015-.005.015.008.043.024zm.765-.635c-.215.2-.422.383-.594.502a1 1 0 0 1-.196.11c-.051.019-.025-.006.025.023l-.249.434c.142.081.294.05.391.015.105-.037.213-.1.314-.171.204-.142.435-.346.65-.547zm.062-.007.051.022.027.014-.007-.007a.14.14 0 0 1-.036-.12q.007-.023.004-.016l-.028.038a1 1 0 0 1-.073.076l.34.366a1 1 0 0 0 .2-.24.4.4 0 0 0 .037-.314.4.4 0 0 0-.171-.206c-.052-.033-.112-.058-.147-.073zm-.261-.168c.047.055.103.09.145.113s.086.042.116.055l.197-.46-.074-.034c-.018-.01-.014-.01-.004 0zm-.293-.452c.054.09.108.18.157.257.045.072.094.146.136.195l.38-.325a2 2 0 0 1-.094-.137l-.15-.248zm-.297-.466c-.013-.01-.01-.01.016.024q.032.041.078.112c.06.094.131.212.203.33l.428-.258c-.07-.116-.145-.242-.212-.344a3 3 0 0 0-.097-.141.6.6 0 0 0-.114-.121zm.391.046a2 2 0 0 1-.024-.197q0-.01 0 0a.24.24 0 0 1-.221.194.22.22 0 0 1-.146-.043l.302-.398a.28.28 0 0 0-.18-.058.26.26 0 0 0-.22.141.3.3 0 0 0-.033.113l-.002.068c.002.07.017.17.03.253zm-.033.755a.5.5 0 0 0 .072-.212c.007-.062.007-.127.003-.187a4 4 0 0 0-.042-.356l-.494.073c.016.11.032.219.037.31a1 1 0 0 1 0 .102c-.004.028-.007.014.01-.012zm-.724.51a.5.5 0 0 0 .234-.067 1.6 1.6 0 0 0 .49-.443l-.413-.282a1.1 1.1 0 0 1-.312.283c-.035.02-.03.009.001.009zm0-2.503-.25-.014v.007l-.001.019-.016.328c-.01.213-.022.496-.03.78-.007.282-.011.57-.005.788.003.108.008.207.019.282.005.036.012.08.027.122a.3.3 0 0 0 .05.09.26.26 0 0 0 .206.101v-.5c.101 0 .162.06.184.087s.03.05.03.053c.004.009.002.005-.002-.021a2 2 0 0 1-.015-.228c-.005-.204-.002-.48.006-.76a43 43 0 0 1 .045-1.095l.001-.02v-.005zm-.348-.678c-.005-.016-.002-.014-.001 0a.2.2 0 0 1-.004.054.23.23 0 0 1-.065.119.23.23 0 0 1-.248.053c-.026-.01-.038-.022-.032-.017.026.02.086.086.17.188a9 9 0 0 1 .296.388l.022.029.005.008.002.001.203-.145.203-.146v-.001l-.002-.002-.006-.009-.023-.03a12 12 0 0 0-.313-.41 2 2 0 0 0-.245-.262.4.4 0 0 0-.096-.057.27.27 0 0 0-.287.055.27.27 0 0 0-.074.138.3.3 0 0 0-.005.085.5.5 0 0 0 .022.107zm-.476 3.309A1 1 0 0 0 24.36 11a4 4 0 0 0 .11-.39 12 12 0 0 0 .243-1.954c.005-.142.006-.272.002-.38a1.2 1.2 0 0 0-.038-.284l-.478.146.001.003.002.01.005.033q.005.044.008.112c.004.09.003.207-.002.341a12 12 0 0 1-.23 1.86 3 3 0 0 1-.093.333.6.6 0 0 1-.069.145zm-1.538-.401c.11.182.357.396.617.518.25.117.647.202.92-.117l-.379-.326c-.041.049-.13.083-.33-.01a1.1 1.1 0 0 1-.402-.326zm.025.2a.7.7 0 0 1 .054-.142.3.3 0 0 1 .047-.066c.004-.004-.03.026-.09.013-.053-.01-.06-.043-.036-.005l.426-.26a.45.45 0 0 0-.287-.224.4.4 0 0 0-.334.093c-.136.113-.221.304-.263.46zm-.735 1.258c.257-.16.42-.422.527-.653.108-.234.171-.47.208-.605l-.483-.13c-.037.136-.09.334-.18.526-.09.196-.202.354-.336.437zm-1.039-.667c.082.157.195.378.335.531.07.078.168.16.295.198.139.041.28.018.409-.062l-.264-.425-.013.007h.008c-.002 0-.024-.01-.066-.055-.086-.095-.17-.25-.26-.425zm-.138-.245c.034.046.076.126.138.245l.444-.231a2.5 2.5 0 0 0-.181-.312zm1.787-2.678s.008-.01.034-.033q.035-.031.09-.075a14 14 0 0 1 .581-.417h.002l-.14-.209-.14-.207-.001.001-.006.004-.098.067-.241.17c-.09.064-.186.135-.267.199a1.4 1.4 0 0 0-.207.19zm-.082-.06c-.015-.008-.002-.005.013.018a.14.14 0 0 1 .025.092c-.002.021-.009.027 0 .013l.044-.064-.393-.31a.6.6 0 0 0-.15.315.36.36 0 0 0 .063.237c.046.068.11.113.168.143zm.666-.395c-.078.086-.25.2-.431.286-.088.041-.168.07-.227.085a.3.3 0 0 1-.055.009c-.012 0 .012-.003.047.015l-.23.444a.4.4 0 0 0 .198.04 1 1 0 0 0 .16-.023c.1-.025.212-.067.32-.118.208-.097.445-.245.587-.4zm.27-.325c-.027-.048.012-.062-.04.03a1.7 1.7 0 0 1-.23.295l.369.338c.112-.122.226-.258.3-.391.066-.12.146-.323.036-.518zm-.287.046.15.2.003-.002.011-.008a2 2 0 0 1 .173-.108.4.4 0 0 1 .097-.04c.006-.001-.012.003-.042-.005a.18.18 0 0 1-.105-.083l.435-.246c-.103-.182-.296-.173-.375-.159a1 1 0 0 0-.242.09 2 2 0 0 0-.232.145l-.016.011-.004.003-.002.002zm-.938-1.442-.077-.237h-.002l-.003.001-.028.01-.062.03a.7.7 0 0 0-.178.13.45.45 0 0 0-.129.306.56.56 0 0 0 .15.365l.38-.324c-.04-.048-.03-.059-.03-.036 0 .025-.013.037-.008.032a.3.3 0 0 1 .063-.038l.004-.002h-.001l-.001.001zm.605-.003a1.1 1.1 0 0 0-.4-.213 1 1 0 0 0-.2-.034h-.005v.5h-.005l.011.001a.6.6 0 0 1 .28.132zm-.312.083.01.085v.01s0-.017.008-.041a.224.224 0 0 1 .254-.146.2.2 0 0 1 .05.018q.005.003-.01-.009l-.318.386a.4.4 0 0 0 .182.096.276.276 0 0 0 .316-.184.4.4 0 0 0 .016-.164c-.002-.038-.008-.08-.013-.116zm.03-.519a.7.7 0 0 0-.05.293c0 .084.012.168.02.226l.495-.065a2 2 0 0 1-.016-.17c0-.053.006-.077.008-.083zm1.026.365a1 1 0 0 0-.373-.504.53.53 0 0 0-.32-.1.38.38 0 0 0-.333.24l.457.2a.1.1 0 0 1-.03.035.13.13 0 0 1-.066.024c-.027.001-.024-.01.012.015.07.047.147.146.176.239zm-.326.552c.022-.003.068-.007.111-.02a.34.34 0 0 0 .18-.115.35.35 0 0 0 .071-.227.7.7 0 0 0-.036-.19l-.477.149c.013.042.013.057.013.054 0-.006 0-.05.037-.096a.16.16 0 0 1 .08-.057h-.004l-.03.005zm-.082.015.027-.008.055-.007-.056-.497c-.043.005-.134.013-.226.054zm.107.247a2 2 0 0 1-.035-.287c0-.033.004-.04 0-.032a.14.14 0 0 1-.072.072l-.2-.458a.36.36 0 0 0-.195.21.6.6 0 0 0-.033.207c0 .119.023.259.041.37zm.043.382c0-.125-.024-.269-.043-.382l-.494.081c.021.127.037.226.037.301zm-1.42-.517c.142.168.399.423.624.602.107.084.233.173.346.213a.36.36 0 0 0 .277-.004c.146-.07.173-.215.173-.294h-.5c0-.005.004-.106.11-.157.076-.036.132-.007.108-.016a1 1 0 0 1-.203-.134 4.6 4.6 0 0 1-.554-.534z"/><path fill="#fff" fill-rule="evenodd" d="M13.934 15.854c-.813.099-4.923.082-6.15-.214-.275-.059-.118 1.196.06 1.484s1.575.577 2.062.644c.418.057 2.028-.033 3.702-.127l.831-.046c1.466-.08 3.606.06 4.726.133.362.023.617.04.708.04.343 0 .318.115.266.348l-.014.063c-.058.275.25.865.385.92s1.144 0 1.693-.212c.313-.12.35-.104.432-.067.061.028.149.067.4.067.377 0 .397-.54.41-.922.008-.209.014-.37.075-.37.07 0 .162.205.248.396.132.291.25.552.25.013 0-.893-1.05-2.063-1.394-1.97-.24.066-.637-.006-.906-.055-.115-.021-.207-.038-.253-.038-.068 0-.047-.016-.003-.052.058-.047.158-.128.158-.25 0-.214-.204-.244-.374-.244s-.26.139-.26.245.128.214.128.214l-.375-.005c-1.383-.018-6.101-.08-6.805.005m6.941 1.89s.108-.062.36-.372c.277-.342.375-.232.477-.118.053.058.107.118.187.118.236 0 .547 0 .75.172s-.267.408-.404.408c-.067 0-.117-.042-.168-.085s-.103-.087-.174-.087c-.083 0-.154.061-.211.11-.039.034-.072.062-.099.062-.023 0-.075-.03-.141-.067-.123-.07-.296-.169-.438-.169-.089 0-.139.029-.139.029" clip-rule="evenodd"/><path fill="#fff" d="m7.784 15.64.058-.244-.007-.001zm13.33.214v.25h.681l-.52-.44zm-13.389.029c.645.155 2.007.233 3.284.262 1.28.029 2.528.009 2.955-.043l-.06-.496c-.386.047-1.6.068-2.884.039-1.289-.03-2.595-.108-3.178-.249zm.332 1.11a1.2 1.2 0 0 1-.092-.286 3.5 3.5 0 0 1-.072-.475 1.6 1.6 0 0 1 .005-.38c.008-.044.015-.045.003-.029a.18.18 0 0 1-.169.06l.103-.488a.33.33 0 0 0-.336.131.6.6 0 0 0-.093.235 2 2 0 0 0-.011.51c.014.183.044.377.082.546.036.16.086.328.154.438zm1.883.527a10 10 0 0 1-1.116-.232 5 5 0 0 1-.555-.182 1 1 0 0 1-.172-.086c-.044-.028-.048-.04-.04-.027l-.426.262a.6.6 0 0 0 .199.188c.072.046.157.087.246.124.178.075.397.144.618.203.443.12.924.21 1.178.245zm3.654-.128c-.837.047-1.656.092-2.318.12-.674.026-1.154.033-1.336.008l-.068.495c.236.032.77.022 1.424-.004.667-.027 1.49-.073 2.326-.12zm.832-.046-.832.046.028.499.83-.046zm4.755.132c-1.115-.072-3.272-.213-4.756-.132l.028.5c1.447-.08 3.572.058 4.696.131zm.692.04c-.08 0-.323-.016-.692-.04l-.032.499c.355.023.623.04.724.04zm.51.652c.012-.053.027-.12.033-.182a.44.44 0 0 0-.04-.248.4.4 0 0 0-.233-.189.9.9 0 0 0-.27-.033v.5a1 1 0 0 1 .117.01l-.02-.012a.14.14 0 0 1-.05-.085l-.001.008-.008.047-.016.076zm-.014.06.014-.06-.488-.108-.015.065zm.235.638c.032.012.04.027.027.013l-.042-.053a1.4 1.4 0 0 1-.117-.211 1.4 1.4 0 0 1-.088-.245.4.4 0 0 1-.015-.141l-.489-.104a.84.84 0 0 0 .018.362c.028.114.071.231.12.336.048.106.104.207.161.288q.044.063.093.116c.03.03.078.075.143.101zm1.51-.214c-.244.093-.607.158-.937.19a5 5 0 0 1-.424.025q-.086 0-.134-.004c-.042-.003-.037-.007-.015.003l-.189.462c.056.024.122.03.164.034q.077.005.177.005c.131 0 .295-.01.47-.027.345-.034.761-.104 1.068-.222zm.624-.062c-.017-.008-.055-.026-.101-.037a.5.5 0 0 0-.158-.01c-.095.011-.21.049-.366.109l.18.466a1.3 1.3 0 0 1 .24-.077l-.015-.002c-.007-.002-.01-.004.014.007zm.297.045c-.113 0-.18-.009-.218-.017-.035-.008-.053-.016-.08-.028l-.205.456c.036.016.092.041.178.06.083.018.187.029.325.029zm.161-.681c-.007.199-.016.396-.06.542a.3.3 0 0 1-.059.124c-.008.009-.016.015-.042.015v.5a.55.55 0 0 0 .4-.166.8.8 0 0 0 .181-.331c.065-.22.073-.484.08-.666zm.324-.61a.29.29 0 0 0-.259.165.5.5 0 0 0-.045.153 3 3 0 0 0-.02.291l.5.019q.005-.163.014-.235c.004-.026.006-.02-.003-.002a.2.2 0 0 1-.051.061.22.22 0 0 1-.136.047zm.476.542c-.042-.092-.092-.203-.14-.29a1 1 0 0 0-.093-.134.33.33 0 0 0-.243-.119v.5a.2.2 0 0 1-.126-.044l-.005-.004.003.003.007.01q.009.012.021.035c.036.063.075.15.12.249zm-.228.116a2 2 0 0 1-.01.186q-.001.014-.002.013l.003-.007.009-.019a.2.2 0 0 1 .07-.074.23.23 0 0 1 .161-.033c.048.008.08.029.093.038.024.018.03.033.021.019l-.029-.05a4 4 0 0 1-.088-.19l-.456.207c.032.07.067.148.1.213q.026.05.057.097c.017.026.049.07.096.105a.3.3 0 0 0 .125.054.27.27 0 0 0 .19-.039.32.32 0 0 0 .13-.186c.023-.084.03-.2.03-.334zm-1.078-1.728c-.033.009-.04-.004 0 .012a.7.7 0 0 1 .146.089c.125.094.274.242.417.426.292.375.515.837.515 1.2h.5c0-.528-.303-1.099-.621-1.507a3 3 0 0 0-.51-.519 1.2 1.2 0 0 0-.261-.153.5.5 0 0 0-.318-.03zm-1.017-.051c.133.024.31.056.484.073.169.017.366.023.533-.022l-.132-.483a1.1 1.1 0 0 1-.352.008 6 6 0 0 1-.443-.068zm-.208-.034.015.001.047.007.146.026.09-.492-.158-.028a1 1 0 0 0-.14-.014zm-.16-.497c-.008.007-.026.02-.04.035l-.034.036a.256.256 0 0 0 .126.413c.046.013.09.013.108.013v-.5c-.016 0 .005-.002.037.008a.244.244 0 0 1 .118.379l-.016.018.015-.013zm.065-.055c0-.012.006-.014-.004-.001l-.023.024-.038.032.314.39c.027-.023.089-.071.141-.138a.5.5 0 0 0 .11-.306zm-.124.006q.054 0 .095.005.04.007.049.012c.004.002-.004 0-.013-.014s-.007-.021-.007-.008h.5a.5.5 0 0 0-.076-.267.46.46 0 0 0-.19-.162.85.85 0 0 0-.358-.066zm-.01-.005-.001.008v.001l.002-.003h.002q0-.002.007-.002v-.5a.505.505 0 0 0-.51.495zm-.122.214.161-.19h.001l-.007-.007a.3.3 0 0 1-.038-.047c-.002-.004.004.007.004.03h-.5a.5.5 0 0 0 .119.302 1 1 0 0 0 .094.099l.002.002.001.001zm-.379.245.379.005v-.5l-.372-.004zm-6.771.003c.16-.019.57-.031 1.138-.037a135 135 0 0 1 1.979-.002c1.439.007 2.963.027 3.654.036l.007-.5c-.691-.009-2.217-.029-3.659-.036a136 136 0 0 0-1.986.002c-.557.006-1 .018-1.193.04zm7.076 1.113a3 3 0 0 1-.25.276l-.046.04-.004.004.001-.002-.001.002-.004.002-.01.007-.022.018-.033.039a.44.44 0 0 0-.012.269l.433-.25a.44.44 0 0 1-.012.268l-.034.039c-.01.01-.02.016-.02.018l-.012.007-.003.002q-.002.002 0 0l.01-.006.027-.02q.032-.024.083-.07c.069-.064.166-.166.297-.328zm.858-.128c-.021-.024-.063-.073-.114-.111a.4.4 0 0 0-.249-.084.47.47 0 0 0-.27.099q-.112.082-.225.224l.388.315a.8.8 0 0 1 .13-.134c.025-.018.017-.005-.015-.004a.1.1 0 0 1-.06-.016l.013.011.03.034zm.001.035q.019 0 .034.007l.012.005-.015-.013-.032-.034-.372.334c.034.038.162.201.373.201zm.911.232a1 1 0 0 0-.484-.207c-.155-.025-.312-.024-.427-.024v.5c.121 0 .238 0 .347.018q.163.026.24.094zm-.564.848c.085 0 .177-.03.244-.058.076-.031.16-.076.233-.13a.57.57 0 0 0 .2-.245.36.36 0 0 0-.113-.415l-.323.38a.14.14 0 0 1-.03-.143c.005-.014.01-.017.003-.01l-.034.03a.6.6 0 0 1-.18.09q-.022.003 0 .001zm-.33-.144c.036.031.155.144.33.144v-.5q.015 0 .025.004l.01.004-.013-.01-.03-.024zm-.013-.028-.023-.003-.008-.003q.002 0 .014.01l.03.024.322-.382c-.038-.032-.158-.146-.335-.146zm-.048.05.037-.031.025-.018c.013-.008.006 0-.014 0v-.5a.5.5 0 0 0-.245.072c-.056.034-.103.075-.13.098zm-.262.122a.33.33 0 0 0 .186-.062c.03-.02.06-.046.076-.06l-.326-.38-.024.021-.008.007.005-.003.014-.008a.2.2 0 0 1 .077-.015zm-.265-.1c.031.018.067.038.099.054l.058.026c.017.006.058.02.108.02v-.5q.035.002.047.005l.017.005-.006-.003-.03-.016-.045-.026zm-.314-.136c.02 0 .06.008.126.037.063.027.125.063.188.099l.248-.434c-.06-.034-.145-.083-.235-.123a.8.8 0 0 0-.327-.079zm-.355-.097a.44.44 0 0 0 .197.125.3.3 0 0 0 .105-.015l.019-.007.008-.004-.003.001h-.001a.1.1 0 0 1 .03-.003v-.5a.6.6 0 0 0-.248.054l-.005.002h.002l.026-.012a.3.3 0 0 1 .105-.015.44.44 0 0 1 .198.125z"/></g></g><defs><clipPath id="a"><path fill="#fff" d="M0 0h32v24H0z"/></clipPath></defs></svg>