<svg xmlns="http://www.w3.org/2000/svg" width="32" height="24" fill="none" viewBox="0 0 32 24"><g clip-path="url(#a)"><mask id="b" width="32" height="24" x="0" y="0" maskUnits="userSpaceOnUse" style="mask-type:luminance"><path fill="#fff" d="M32 0H0v24h32z"/></mask><g mask="url(#b)"><path fill="#fff" d="M32 0H0v24h32z"/><path fill="#3D58DB" fill-rule="evenodd" d="M0 0v24h32V0z" clip-rule="evenodd"/><mask id="c" width="32" height="24" x="0" y="0" maskUnits="userSpaceOnUse" style="mask-type:luminance"><path fill="#fff" fill-rule="evenodd" d="M0 0v24h32V0z" clip-rule="evenodd"/></mask><g mask="url(#c)"><path fill="#579D20" fill-rule="evenodd" d="M0 24h32V0z" clip-rule="evenodd"/><path fill="#FECA00" d="m-.782 24.747-1.804-2.497L33.675-1.953 35.479.543z"/><path fill="#F7FCFF" fill-rule="evenodd" d="M3.653 6.547 5.017 5.6l1.428.85-.5-1.524.998-1.09H5.59l-.573-1.603-.574 1.602-1.355.056 1 1.035zm5.658 0 1.364-.946 1.428.85-.5-1.524.999-1.09h-1.354l-.573-1.603-.574 1.602-1.355.056 1.001 1.035z" clip-rule="evenodd"/><path fill="#F7FCFF" fill-rule="evenodd" d="m6.648 9.457 1.363-.946 1.428.85-.5-1.524.999-1.09H8.585L8.01 5.144l-.573 1.601-1.355.056 1 1.035zm-1.631 2.146-1.364.946.436-1.62-1.001-1.035 1.355-.056.574-1.601.573 1.601h1.353l-.998 1.091.5 1.524zm5.658 0-1.364.946.436-1.62-1-1.035 1.354-.056.574-1.601.573 1.601h1.354l-1 1.091.501 1.524z" clip-rule="evenodd"/></g></g></g><defs><clipPath id="a"><path fill="#fff" d="M0 0h32v24H0z"/></clipPath></defs></svg>