<svg xmlns="http://www.w3.org/2000/svg" width="32" height="24" fill="none" viewBox="0 0 32 24"><g clip-path="url(#a)"><mask id="b" width="32" height="24" x="0" y="0" maskUnits="userSpaceOnUse" style="mask-type:luminance"><path fill="#fff" d="M32 0H0v24h32z"/></mask><g mask="url(#b)"><path fill="#fff" d="M32 0H0v24h32z"/><path fill="#F7FCFF" fill-rule="evenodd" d="M0 0v24h32V0z" clip-rule="evenodd"/><mask id="c" width="32" height="24" x="0" y="0" maskUnits="userSpaceOnUse" style="mask-type:luminance"><path fill="#fff" fill-rule="evenodd" d="M0 0v24h32V0z" clip-rule="evenodd"/></mask><g fill-rule="evenodd" clip-rule="evenodd" mask="url(#c)"><path fill="#E31D1C" d="M0 0v12h32V0z"/><path fill="#F1F9FF" d="M8.869 10.59S6.043 9.452 6.043 6.373s2.826-4.18 2.826-4.18c-1.373-.347-5.017-.036-5.017 4.18s3.589 5.01 5.017 4.215m.724-.51.81-.49.83.49-.204-.955.674-.753h-.913l-.386-.892-.387.892-.914.038.675.715zm3.757-.544-.81.49.184-.955-.675-.715.914-.039.387-.892.387.892h.912l-.673.754.202.954zM11.288 5.77l.81-.489.829.49-.203-.956.674-.753h-.913l-.387-.892-.386.892-.914.039.675.714zM9.37 7.222l-.81.49.185-.955-.675-.715.914-.039.386-.891.387.891h.913l-.674.754.203.955zm4.548.446.81-.49.83.49-.203-.955.673-.754h-.912l-.387-.891-.387.891-.914.039.675.715z"/></g></g></g><defs><clipPath id="a"><path fill="#fff" d="M0 0h32v24H0z"/></clipPath></defs></svg>