<svg xmlns="http://www.w3.org/2000/svg" width="32" height="24" fill="none" viewBox="0 0 32 24"><g clip-path="url(#a)"><mask id="b" width="32" height="24" x="0" y="0" maskUnits="userSpaceOnUse" style="mask-type:luminance"><path fill="#fff" d="M32 0H0v24h32z"/></mask><g mask="url(#b)"><path fill="#fff" d="M32 0H0v24h32z"/><path fill="#2E42A5" fill-rule="evenodd" d="M0 0v24h32V0z" clip-rule="evenodd"/><mask id="c" width="32" height="24" x="0" y="0" maskUnits="userSpaceOnUse" style="mask-type:luminance"><path fill="#fff" fill-rule="evenodd" d="M0 0v24h32V0z" clip-rule="evenodd"/></mask><g mask="url(#c)"><path fill="#F7FCFF" fill-rule="evenodd" d="M0 0v8h32V0z" clip-rule="evenodd"/><path fill="#C51918" fill-rule="evenodd" d="M0 16v8h32v-8z" clip-rule="evenodd"/><path fill="#2E42A5" fill-rule="evenodd" d="M13.74 5.037s-2.105-.994-4.723-.994-4.722.994-4.722.994.234 3.995.604 6.11c.158.904.918 2.222 1.606 2.846.784.71 2.512 1.553 2.512 1.553.5-.344 1.436-.5 2.631-1.553 1.196-1.054 1.493-2.845 1.493-2.845z" clip-rule="evenodd"/><path fill="#C51918" d="m13.462 4.906.876.438-.601 6.023q-.317 1.91-1.582 3.023a6.8 6.8 0 0 1-1.382.954c-.27.142-1.401.724-1.391.72-.113.054-.2.102-.27.15l-.108.075-.118-.058c-1.171-.57-2.263-1.338-2.806-1.83-.741-.672-1.523-2.047-1.69-3-.248-1.423-.472-3.384-.628-6.057l.787-.412c.156 2.653.343 4.768.588 6.166.145.827.865 2.095 1.522 2.691.486.44 1.269.93 2.345 1.46q.095-.056.216-.114c.003-.001.734-.326.989-.459a6.4 6.4 0 0 0 1.288-.89c.748-.659 1.215-1.547 1.404-2.676z"/><path fill="#fff" fill-rule="evenodd" d="M5.543 11.025s.19.584.543 1.24c.518.136.835.129.935.017.29-.325 1.321-.463 1.514-.186.118.17.536.29.992.133l-.051.009c.08-.03.265-.103.38-.148l.092-.037a1.5 1.5 0 0 1 .427-.108.9.9 0 0 1 .48.096c.359.171.803.251 1.105.2.37-.645.634-1.216.634-1.216l-1.756-1.684-.697.757-1.16-1.653-.97 1.653-.744-.757zm1.015 1.99a6 6 0 0 1-.23-.335c.45.082.754.039.924-.151.08-.09.318-.177.589-.213.126-.018.247-.022.34-.013q.064.006.1.019c.007.002.007.002 0-.009l-.002-.002c.207.296.769.454 1.299.262l-.051.009c.143-.044.401-.146.494-.182l.032-.013a1.2 1.2 0 0 1 .343-.09.63.63 0 0 1 .33.067c.318.152.688.243 1.015.245q-.104.17-.215.333c-.254.06-.646-.018-.963-.191a.75.75 0 0 0-.437-.1c-.117.01-.23.045-.382.11l-.083.038c-.1.046-.26.119-.329.147l.058-.011c-.397.152-.744.04-.843-.124-.177-.292-1.103-.149-1.364.186-.07.089-.28.105-.625.019m.345.41.059.059c.903.88 2.02 1.312 2.02 1.312s1.33-.402 2.084-1.25q.098-.108.193-.233a2 2 0 0 1-.84-.247.46.46 0 0 0-.268-.063 1 1 0 0 0-.289.087l-.023.01c-.077.035-.31.14-.45.188l.058-.012c-.467.195-.963.041-1.157-.25a.3.3 0 0 0-.078-.017 1.2 1.2 0 0 0-.287.012c-.23.035-.43.12-.497.205-.111.143-.286.206-.525.199" clip-rule="evenodd"/><path fill="#FECA00" fill-rule="evenodd" d="M7.146 5.887h-.703l.546-.51-.546-.54h.703l.297-.524.298.524h.702l-.518.507.46.543h-.644l-.298.553zm3.315 0h-.703l.545-.51-.545-.54h.703l.297-.524.298.524h.702l-.518.507.46.543h-.644l-.298.553zM8.6 7.567h-.704l.546-.51-.546-.54H8.6l.296-.525.299.524h.701l-.518.508.46.543h-.643l-.299.553z" clip-rule="evenodd"/></g></g></g><defs><clipPath id="a"><path fill="#fff" d="M0 0h32v24H0z"/></clipPath></defs></svg>