<svg xmlns="http://www.w3.org/2000/svg" width="32" height="24" fill="none" viewBox="0 0 32 24"><g clip-path="url(#a)"><mask id="b" width="32" height="24" x="0" y="0" maskUnits="userSpaceOnUse" style="mask-type:luminance"><path fill="#fff" d="M32 0H0v24h32z"/></mask><g mask="url(#b)"><path fill="#fff" d="M32 0H0v24h32z"/><path fill="#3D58DB" fill-rule="evenodd" d="M0 0v24h32V0z" clip-rule="evenodd"/><mask id="c" width="32" height="24" x="0" y="0" maskUnits="userSpaceOnUse" style="mask-type:luminance"><path fill="#fff" fill-rule="evenodd" d="M0 0v24h32V0z" clip-rule="evenodd"/></mask><g mask="url(#c)"><path fill="#F7FCFF" fill-rule="evenodd" d="M0 0v8h32V0z" clip-rule="evenodd"/><path fill="#E31D1C" fill-rule="evenodd" d="M0 16v8h32v-8z" clip-rule="evenodd"/><path fill="#E31D1C" d="m15.603 6.031.498-.053-.048-.447H5.877l-.032.467v.016l-.004.046-.011.176a125 125 0 0 0-.142 2.688c-.065 1.54-.108 3.342.004 4.184.219 1.642 1.219 5.33 5.087 7l.202.087.2-.09c3.675-1.642 4.904-4.951 5.187-6.995.143-1.031.07-2.836-.03-4.336a82 82 0 0 0-.231-2.737l-.005-.043-.001-.012V5.98z"/><path stroke="#fff" d="m16.1 5.978-.497.053zm0 0-.047-.447H5.877l-.032.467m10.256-.02v.004l.001.012.005.043.074.77c.047.509.106 1.207.157 1.967.1 1.5.173 3.305.03 4.336-.283 2.044-1.512 5.353-5.186 6.996l-.2.09-.203-.088c-3.868-1.67-4.868-5.358-5.087-7-.112-.842-.069-2.645-.004-4.184a130 130 0 0 1 .142-2.688l.011-.176.003-.046.001-.012v-.004m0 0 .5.033"/><mask id="d" width="12" height="16" x="5" y="5" maskUnits="userSpaceOnUse" style="mask-type:luminance"><path fill="#fff" d="m15.603 6.031.498-.053-.048-.447H5.877l-.032.467v.016l-.004.046-.011.176a125 125 0 0 0-.142 2.688c-.065 1.54-.108 3.342.004 4.184.219 1.642 1.219 5.33 5.087 7l.202.087.2-.09c3.675-1.642 4.904-4.951 5.187-6.995.143-1.031.07-2.836-.03-4.336a82 82 0 0 0-.231-2.737l-.005-.043-.001-.012V5.98z"/><path stroke="#fff" d="m16.1 5.978-.497.053zm0 0-.047-.447H5.877l-.032.467m10.256-.02v.004l.001.012.005.043.074.77c.047.509.106 1.207.157 1.967.1 1.5.173 3.305.03 4.336-.283 2.044-1.512 5.353-5.186 6.996l-.2.09-.203-.088c-3.868-1.67-4.868-5.358-5.087-7-.112-.842-.069-2.645-.004-4.184a130 130 0 0 1 .142-2.688l.011-.176.003-.046.001-.012v-.004m0 0 .5.033"/></mask><g fill-rule="evenodd" clip-rule="evenodd" mask="url(#d)"><path fill="#F7FCFF" d="M10.256 6.59s.207.314.3.796c.092.48.108 1.324.108 1.324l-1.96-.242v1.486l2.003-.255-.032 1.41s-.6.061-1.09 0c-.492-.063-1.46-.323-1.46-.323v1.7s.983-.314 1.46-.386c.475-.073 1.09 0 1.09 0v2.088h.813V12.1s.889-.078 1.419.006 1.033.38 1.033.38v-1.7s-.51.254-.99.317-1.462.005-1.462.005l.033-1.41s.665-.068 1.038-.018.84.274.84.274V8.468s-.455.248-.813.293c-.359.045-1.11-.051-1.11-.051s.014-.87.091-1.294c.077-.423.295-.826.295-.826z"/><path fill="#2E42A5" d="M6.896 16.245s.44-.943 1.155-1.122 1.465.56 1.465.56.458-1.495 1.574-1.495 1.508 1.496 1.508 1.496.476-.561 1.16-.561c.686 0 1.32 1.122 1.32 1.122s-2.045 3.714-4.09 3.714-4.092-3.714-4.092-3.714"/></g></g></g></g><defs><clipPath id="a"><path fill="#fff" d="M0 0h32v24H0z"/></clipPath></defs></svg>