<svg xmlns="http://www.w3.org/2000/svg" width="32" height="24" fill="none" viewBox="0 0 32 24"><g clip-path="url(#a)"><mask id="b" width="32" height="24" x="0" y="0" maskUnits="userSpaceOnUse" style="mask-type:luminance"><path fill="#fff" d="M32 0H0v24h32z"/></mask><g mask="url(#b)"><path fill="#fff" d="M32 0H0v24h32z"/><path fill="#F7FCFF" fill-rule="evenodd" d="M0 0v24h32V0z" clip-rule="evenodd"/><mask id="c" width="32" height="24" x="0" y="0" maskUnits="userSpaceOnUse" style="mask-type:luminance"><path fill="#fff" fill-rule="evenodd" d="M0 0v24h32V0z" clip-rule="evenodd"/></mask><g mask="url(#c)"><path fill="#56C6F5" fill-rule="evenodd" d="M0 12v12h32V12z" clip-rule="evenodd"/><path fill="#006923" fill-rule="evenodd" d="M10.254 9.03a.6.6 0 0 0-.056-.214c-.257-.479-.174-1.078-.174-1.078s-.307.702-.487 1.362c-.189-.307-.255-.615-.255-.615s-.122 1.937.252 2.396c.374.46.624.661.624.661s.028-.804-.08-1.434c.076-.262.145-.55.17-.797.05-.037.179-.134.34-.266-.067.377-.07.581-.07.581s1.41-1.024 1.446-1.566c.035-.542.423-1.006.423-1.006s-.32.22-.687.514c.097-.455.397-.814.397-.814s-1.602 1.096-1.734 1.674c-.057.251-.09.454-.11.603m.068 3.331c-.153-.29-.822-1.506-1.288-1.612-.53-.12-.928-.576-.928-.576s.833 1.754 1.383 1.975c.441.176.732.247.83.268-.017.236-.02.4-.02.4s.26-.189.658-.628.377-2.38.377-2.38-.157.584-.581.924c-.284.229-.391 1.088-.43 1.63m-1.251-.183c.605-.004 1.536 1.48 1.536 1.48s-.36.02-.99-.08-1.613-1.79-1.613-1.79.462.393 1.067.39m2.95 3.456s.36-1.891-.18-2.332c-.539-.44-.634-1.1-.634-1.1s-.48 2.098 0 2.64c.479.544.814.792.814.792m-2.176-.51c.352.417 1.475 0 1.475 0s.247.224-.643-.589-2.7-.3-2.214-.3c.488 0 1.03.471 1.382.889m.832 2.22c.653.553 2.064-.762 2.064-.762s-.364-.44-1.037-.764-3.156 0-3.156 0l1.105.492s-1.23.481-.903.454 1.274.027 1.927.58" clip-rule="evenodd"/><path fill="#093" fill-rule="evenodd" d="M19.213 16.2s-.561-.944 0-1.4c.562-.456.784-.152.784-.676s.057-.368.332-.628c.276-.26.08-.892.45-.576s.439-.29.439.968V12.04c0-.707-.439-.54-.439-1.014s-.438-1.182 0-1.182c.439 0 .696.527.696.527s.431.734.431 0-.767-.516-1.127-1.326-.303.09-.782-.953c-.48-1.044-1.05-1.375-.525-1.375h.857c.45 0 1.146-.374 1.146 0v.789c0 .586.431.586.431.586s.234-1.173.529-.586c.294.586.093 1.54.309 1.54.215 0 .037-.986.507-.231.47.754 0 1.265 0 1.556s-.507 1.004-.507 1.004.099.349.507 0 .795-.697.795-.349c0 .35.796.457 0 1.014-.795.556-.288 1.114-.795 1.114s-1.105.734-1.345.734-1.137.563-.688.563c.448 0 .907-1.125 1.217-.563.309.563.305-.091.56.236s.511 2.1.256 1.388c-.256-.712-.657-.712-1.345-.712s-2.026.052-1.576.382.955-.33 1.145 0 .136.66.431.33c.296-.33.586 0 .838 0 .251 0-.252.37 0 .687.251.318.812.74.251.74-.56 0-.849-.448-1.089 0-.24.449-.25 1.227-.688.614-.439-.614-1.221-.302-1.221-.614 0-.31.171-.361-.306-.361-.478 0-.478-.379-.478-.379" clip-rule="evenodd"/><path fill="#C51918" fill-rule="evenodd" d="M21.516 9.453c0 .138-.108.25-.242.25a.246.246 0 0 1-.242-.25c0-.138.108-.25.242-.25s.242.112.242.25m-11.177.55a.246.246 0 0 0 .242-.25.246.246 0 0 0-.242-.25.246.246 0 0 0-.242.25c0 .138.108.25.242.25m.242 1.05c0 .138-.109.25-.242.25a.246.246 0 0 1-.242-.25c0-.138.108-.25.242-.25.133 0 .242.112.242.25m.145 2.55a.246.246 0 0 0 .242-.25.246.246 0 0 0-.242-.25.246.246 0 0 0-.242.25c0 .138.108.25.242.25m1.935 2.5a.246.246 0 0 0 .242-.25.246.246 0 0 0-.242-.25.246.246 0 0 0-.242.25c0 .138.109.25.242.25m9.29-3.8a.246.246 0 0 0 .242-.25.246.246 0 0 0-.242-.25.246.246 0 0 0-.241.25c0 .138.108.25.241.25m-.532 1.75c0 .138-.108.25-.242.25a.246.246 0 0 1-.242-.25c0-.138.109-.25.242-.25.134 0 .242.112.242.25m-2.274 2.45a.246.246 0 0 0 .242-.25.246.246 0 0 0-.242-.25.246.246 0 0 0-.242.25c0 .138.108.25.242.25m-6.145.05c0 .138-.108.25-.242.25a.246.246 0 0 1-.242-.25c0-.138.108-.25.242-.25s.242.112.242.25" clip-rule="evenodd"/><path fill="#FECA00" fill-rule="evenodd" d="M18.038 19.824c0-.205-3.1-2.342-3.933-2.813s-4.896-3.066-3.79-7.007h-.167S9.4 14.86 14.56 17.879c2.35 1.576 2.467 1.945 2.467 1.945s1.012.204 1.012 0" clip-rule="evenodd"/><path fill="#FECA00" fill-rule="evenodd" d="M13.924 19.824c0-.205 3.1-2.342 3.933-2.813s4.896-3.066 3.789-7.007h.167s.75 4.856-4.41 7.875c-2.35 1.576-2.467 1.945-2.467 1.945s-1.012.204-1.012 0" clip-rule="evenodd"/><path fill="#56C6F5" fill-rule="evenodd" d="M16.048 16.889c2.165 0 3.92-2.802 3.92-5.536s-1.755-4.15-3.92-4.15-3.92 1.416-3.92 4.15 1.756 5.536 3.92 5.536" clip-rule="evenodd"/><path fill="#fff" fill-rule="evenodd" d="M14.314 9.54s.603-.533.302-.533a1.3 1.3 0 0 1-.207-.024c-.32-.051-.735-.118-.735.556V10.7h-.09a.1.1 0 1 0 0 .2h.079l-.06 1.128-.115.01a.11.11 0 0 0-.098.116l.008.085a.107.107 0 0 0 .116.098l.072-.007c-.027.514-.05.964-.05 1.019 0 .135.92.083.92.083s-.03-.542-.06-1.173l.06-.005a.107.107 0 0 0 .098-.116l-.007-.085a.11.11 0 0 0-.117-.098l-.05.005-.05-1.06h.119a.1.1 0 0 0 0-.2h-.126c-.006-.149-.01-.26-.01-.317z" clip-rule="evenodd"/><path fill="#000" fill-rule="evenodd" d="M13.871 11h.323v.43h-.323zm-.097 1.5h.538v1h-.538z" clip-rule="evenodd"/><path fill="#fff" fill-rule="evenodd" d="M16.346 9.54s.604-.533.302-.533a1.3 1.3 0 0 1-.207-.024c-.32-.051-.735-.118-.735.556V10.7h-.09a.1.1 0 0 0 0 .2h.079l-.06 1.128-.115.01a.11.11 0 0 0-.098.116l.008.085a.107.107 0 0 0 .116.098l.073-.007c-.027.514-.05.964-.05 1.019 0 .135.918.083.918.083l-.06-1.173.062-.005a.11.11 0 0 0 .098-.116l-.008-.085a.11.11 0 0 0-.116-.098l-.05.005c-.02-.378-.037-.76-.05-1.06h.118a.1.1 0 1 0 0-.2h-.126c-.006-.149-.01-.26-.01-.317z" clip-rule="evenodd"/><path fill="#000" fill-rule="evenodd" d="M15.903 11h.323v.43h-.323zm-.096 1.5h.537v1h-.537z" clip-rule="evenodd"/><path fill="#fff" fill-rule="evenodd" d="M18.281 9.54s.604-.533.302-.533a1.3 1.3 0 0 1-.206-.024c-.32-.051-.736-.118-.736.556V10.7h-.089a.1.1 0 0 0 0 .2h.078l-.06 1.128-.114.01a.11.11 0 0 0-.098.116l.007.085a.11.11 0 0 0 .117.098l.072-.007c-.027.514-.05.964-.05 1.019 0 .135.919.083.919.083s-.029-.542-.06-1.173l.061-.005a.11.11 0 0 0 .098-.116l-.007-.085a.11.11 0 0 0-.117-.098l-.05.005c-.019-.378-.037-.76-.05-1.06h.119a.1.1 0 1 0 0-.2h-.127c-.005-.149-.009-.26-.009-.317z" clip-rule="evenodd"/><path fill="#000" fill-rule="evenodd" d="M17.839 11h.323v.43h-.323zm-.097 1.5h.538v1h-.538z" clip-rule="evenodd"/><path fill="#E8AA00" fill-rule="evenodd" d="M18.516 6.402h-5.129v.766l-.034.003s-2.513 1.953-1.816 4.878c.698 2.925 3.468 5.095 3.468 5.095l.14-.505s-2.64-3.59-2.64-5.024.498-2.78 1.025-2.99c.317-.125.372-.1.459-.06.057.027.128.06.299.06.428 0 .857-.306.857-.306s.298.307.574.307c.277 0 .281-.307.281-.307V7.302h.031V8.32s.004.307.28.307c.277 0 .575-.307.575-.307s.429.307.857.307c.171 0 .242-.034.3-.06.086-.04.14-.066.458.06.527.209 1.025 1.555 1.025 2.99 0 1.434-2.64 5.023-2.64 5.023l.14.505s2.77-2.17 3.468-5.095c.697-2.925-1.816-4.878-1.816-4.878l-.162-.014z" clip-rule="evenodd"/><path fill="#FFD018" d="M13.387 6.402v-.5h-.5v.5zm5.13 0h.5v-.5h-.5zm-5.13.766.045.498.455-.04v-.458zm-.034.003-.044-.498-.147.013-.116.09zm1.652 9.972-.308.394.59.462.2-.722zm.14-.504.482.133.064-.234-.144-.196zm0-8.32.358-.348-.3-.309-.35.25zm.855 0 .5.006V8.32zm0-1.017v-.5h-.5v.5zm.031 0h.5v-.5h-.5zm0 1.017h-.5v.006zm.856 0 .29-.407-.35-.25-.299.309zm0 8.32-.403-.297-.144.196.065.234zm.14.505-.483.133.2.722.59-.462zm1.651-9.973.307-.395-.116-.09-.146-.013zm-.162-.014h-.5v.457l.456.04zm-5.129-.255h5.13v-1h-5.13zm.5.266v-.766h-1v.766zm-.49.501.035-.003-.09-.996-.034.003zm-1.373 4.264c-.308-1.291.088-2.372.582-3.152a5.6 5.6 0 0 1 .97-1.145l.082-.069.003-.002-.308-.394-.307-.395-.002.002-.002.002a3 3 0 0 0-.125.105 6.6 6.6 0 0 0-1.155 1.36c-.588.928-1.1 2.286-.71 3.92zm2.981 5.21.308-.393-.004-.004-.02-.016-.082-.068a12 12 0 0 1-1.295-1.295c-.755-.88-1.566-2.081-1.888-3.434l-.973.232c.375 1.573 1.298 2.918 2.102 3.854a13 13 0 0 0 1.41 1.408l.122.101.008.006.002.002.002.001zm-.342-.638-.14.505.964.267.14-.505zm-2.658-4.89c0 .476.208 1.056.458 1.6.26.563.6 1.165.936 1.711a32 32 0 0 0 1.334 1.997l.007.009.001.002.404-.295.402-.297-.001-.002-.005-.007-.021-.029a27 27 0 0 1-.376-.532 31 31 0 0 1-.893-1.369 16 16 0 0 1-.88-1.607c-.244-.533-.366-.94-.366-1.18zm1.34-3.454c-.266.106-.466.324-.611.538a3.5 3.5 0 0 0-.386.796 6.6 6.6 0 0 0-.343 2.12h1c0-.664.116-1.302.287-1.788.085-.243.18-.434.27-.567.096-.142.156-.17.153-.17zm.855-.048c-.06-.028-.191-.092-.387-.079-.148.01-.303.062-.467.127l.369.93a2 2 0 0 1 .147-.053c.03-.009.033-.007.018-.006a.2.2 0 0 1-.087-.01l-.028-.009.012.006zm.088.013-.07-.005h.001l-.019-.008-.423.906c.033.015.101.048.197.072q.138.035.314.035zm.857.193-.291-.407h.001l-.007.004-.038.025a2 2 0 0 1-.148.08.9.9 0 0 1-.374.105v1c.322 0 .615-.112.804-.202a3 3 0 0 0 .311-.176l.021-.014.007-.005.003-.002s.002-.001-.29-.408m.575-.193c.02 0 .018.004-.01-.008a1 1 0 0 1-.094-.055 1 1 0 0 1-.11-.09l-.005-.004h.001l.001.002-.358.348-.359.349.002.001.002.002.005.006.016.015a2 2 0 0 0 .23.19c.127.089.379.244.678.244zm.28.193-.5-.007v-.018l.002-.007q-.001-.002.008-.025a.23.23 0 0 1 .075-.088.24.24 0 0 1 .134-.048v1a.76.76 0 0 0 .456-.145.8.8 0 0 0 .242-.298.9.9 0 0 0 .083-.34v-.018zm-.5-1.017V8.32h1V7.302zm.531-.5H16v1h.03zm-.5.5V8.32h1V7.302zm.5 1.017-.5.006v.019a1 1 0 0 0 .012.104 1 1 0 0 0 .071.235.8.8 0 0 0 .242.298.76.76 0 0 0 .456.145v-1c.03 0 .082.01.134.048a.23.23 0 0 1 .075.088l.009.025V8.3l.001.005v.006zm.28.807c.3 0 .552-.155.68-.244a2 2 0 0 0 .23-.19l.015-.015.006-.006.002-.002s.001-.001-.357-.35l-.359-.348.001-.001.001-.001-.004.003a1 1 0 0 1-.11.091.6.6 0 0 1-.095.055c-.028.012-.03.008-.01.008zm.576-.807-.291.407.002.001.002.002.007.005.021.014.07.045c.06.036.142.083.241.13.19.09.482.203.805.203v-1a.9.9 0 0 1-.374-.105 2 2 0 0 1-.194-.11l.002.001zm.857.807q.175 0 .314-.035c.095-.024.164-.057.196-.072l-.423-.906-.02.008h.003l-.015.002-.055.003zm.51-.107.012-.006-.028.01a.3.3 0 0 1-.086.01c-.015-.002-.013-.004.018.005q.043.012.146.052l.37-.929a1.6 1.6 0 0 0-.467-.127.74.74 0 0 0-.388.079zm.062.071c-.003 0 .057.028.154.17.09.133.184.324.27.567.17.486.286 1.124.286 1.788h1a6.6 6.6 0 0 0-.343-2.12 3.5 3.5 0 0 0-.386-.796c-.145-.214-.345-.432-.612-.538zm.71 2.525c0 .241-.121.648-.366 1.181a16 16 0 0 1-.88 1.608 31 31 0 0 1-1.268 1.9l-.021.03-.006.006-.001.002.403.297.402.296.001-.001.002-.002.006-.009.109-.15c.073-.104.178-.252.304-.434.25-.363.586-.865.922-1.413.335-.546.676-1.148.935-1.712.25-.543.458-1.123.458-1.599zm-2.621 5.157.14.505.963-.267-.14-.505zm.621.372.308.393h.002l.002-.003.008-.006.027-.021.096-.08a13 13 0 0 0 1.409-1.408c.804-.936 1.727-2.281 2.102-3.854l-.973-.232c-.322 1.353-1.133 2.555-1.888 3.434a12 12 0 0 1-1.295 1.295l-.082.068-.02.016-.004.004zm3.954-4.98c.39-1.633-.122-2.991-.71-3.919a6.6 6.6 0 0 0-1.155-1.36l-.125-.105-.003-.002-.001-.001-.308.394-.307.395.002.001.015.013q.023.017.067.056a5.6 5.6 0 0 1 .97 1.144c.495.781.89 1.862.582 3.153zm-2.257-5.491-.162-.014-.09.996.163.014zm-.707-.27v.754h1v-.755z"/><path fill="#8FC753" fill-rule="evenodd" d="M13.104 13.788s.314-.844.864-.563.502 1.262 1.002.912c.5-.349.217-.912.958-.912.742 0 .633.912 1.077.912.445 0 .483-.912.98-.912.498 0 1.002.563 1.002.563l-2.942 4.003z" clip-rule="evenodd"/><path fill="#fff" fill-rule="evenodd" d="m7.929 18.46-.317-.427s1.313 0 1.49.308c.05.087.073.154.09.204.042.13.05.155.406.155.496 0 0-.492-.206-.667-.207-.175-.08-.481.206-.481.11 0 .303-.026.54-.057.377-.05.867-.114 1.316-.114.73 0 .125.652.125.652s.945 0 .71-.271c-.234-.272.788-.602 1.23-.602.412 0 2.266.093 2.516.105.26-.012 2.199-.105 2.61-.105.442 0 1.465.33 1.23.602-.235.27.71.27.71.27s-.605-.651.126-.651c.448 0 .938.064 1.316.114.236.031.429.057.54.057.286 0 .412.306.206.48-.207.176-.702.668-.207.668.356 0 .365-.026.407-.155.017-.05.039-.117.089-.204.172-.297 1.398-.308 1.485-.308a.26.26 0 0 1-.03-.123c0-.138.107-.25.241-.25s.242.112.242.25-.108.25-.242.25a.24.24 0 0 1-.209-.123l-.313.422.326.404a.24.24 0 0 1 .196-.103c.134 0 .242.112.242.25s-.108.25-.242.25a.246.246 0 0 1-.242-.25q0-.043.013-.081c-.185-.09-.504-.23-.712-.23h-.577c.145 0 .945.528.703.757l-.041.039c-.238.226-.548.52-.84.36-.31-.17-.496-.399-.496-.399l-.242-.756s-1.43-.369-1.43-.114c0 .256-.003.38-.51.38-.284 0-.558-.047-.8-.09a3 3 0 0 0-.497-.063c-.197 0-.503.061-.729.106a2 2 0 0 1-.278.048c-.108 0-.687-.026-.29-.267.396-.24.488-.492.488-.492s-1.588.236-2.216.25l-.028.001h-.028c-.623-.014-2.12-.25-2.12-.25s.092.25.489.49c.396.242-.182.268-.29.268-.04 0-.146-.021-.279-.048-.226-.045-.531-.106-.729-.106-.138 0-.307.03-.497.063-.242.043-.516.09-.8.09-.506 0-.51-.124-.51-.38 0-.255-1.43.114-1.43.114l-.242.756s-.186.229-.495.399c-.293.16-.603-.134-.84-.36l-.041-.039c-.242-.229.557-.756.703-.756h-.578c-.306 0-.858.303-.858.303zm-.687-.3a.246.246 0 0 0 .242-.25.246.246 0 0 0-.242-.25.246.246 0 0 0-.242.25c0 .138.108.25.242.25m0 1.1a.246.246 0 0 0 .242-.25.246.246 0 0 0-.242-.25.246.246 0 0 0-.242.25c0 .138.108.25.242.25" clip-rule="evenodd"/><path fill="#FFD018" fill-rule="evenodd" d="M15.894 2.031h.2v.215h.246v.2h-.246v.364a.595.595 0 0 1 .486.592c0 .331-.26.6-.58.6a.59.59 0 0 1-.581-.6c0-.294.205-.539.475-.59v-.366h-.226v-.2h.226z" clip-rule="evenodd"/><path fill="#E31D1C" fill-rule="evenodd" d="M13.747 5.227c-.28 0-.87.3-.87.3l.459 1.017 2.769-.103 2.768.103.46-1.017s-.591-.3-.87-.3c-.124 0-.14-.072-.157-.153-.022-.104-.048-.222-.304-.222-.181 0-.31.03-.413.054-.157.037-.259.061-.405-.054l-.018-.014c-.236-.187-.482-.381-.879-.381-.08 0-.138.075-.182.196-.044-.121-.104-.196-.183-.196-.397 0-.642.194-.879.38l-.018.015c-.146.115-.247.091-.405.054-.103-.024-.231-.054-.413-.054-.256 0-.281.118-.304.222-.017.08-.033.153-.156.153" clip-rule="evenodd"/><path fill="#FFD018" fill-rule="evenodd" d="m15.608 3.57-.194.068q-.77.267-1.334.179c-.773-.12-1.783.283-1.656.872.055.259.217.746.385 1.16.234.573.397.863.588.863.025 0 .284.014.37.019l.028.001c.281.014.53.022.767.02.69-.002 1.117-.07 1.27-.277l.044-.06-.021-.074q-.272-.934-.25-2.559zm-2.9 1.054c-.063-.289.727-.603 1.33-.51q.563.086 1.275-.13-.004 1.444.237 2.348c-.138.072-.5.118-.989.12a13 13 0 0 1-.751-.02l-.383-.02-.012-.012a1 1 0 0 1-.095-.144 5 5 0 0 1-.243-.524 8 8 0 0 1-.37-1.108m3.747-1.054.195.068q.77.267 1.334.179c.773-.12 1.782.283 1.656.872a8.5 8.5 0 0 1-.386 1.16c-.233.573-.396.863-.588.863-.024 0-.284.014-.37.019l-.028.001c-.28.014-.529.022-.767.02-.689-.002-1.116-.07-1.269-.277l-.045-.06.022-.074q.271-.934.25-2.559zm2.901 1.054c.062-.289-.727-.603-1.33-.51q-.562.086-1.276-.13.004 1.444-.237 2.348c.138.072.5.118.99.12.232.002.475-.006.751-.02l.383-.02.011-.012a1 1 0 0 0 .095-.144c.072-.127.156-.309.244-.524.162-.398.318-.87.37-1.108" clip-rule="evenodd"/><path fill="#5E5E5E" fill-rule="evenodd" d="M12.837 6.472c0-.056-.032-.156-.101-.342-.097-.256-.163-.334-.303-.42-.07-.043-.098-.08-.131-.21a2 2 0 0 0-.148-.4.5.5 0 0 1-.03-.181c0-.09.023-.16.084-.291a2 2 0 0 0 .055-.12.5.5 0 0 0 .04-.183v-.386c0-.225.009-.238.12-.223l.033.005.066.012a.13.13 0 0 0 .07-.009c.04-.018.069-.053.138-.157.033-.05.068-.044.194.017l.04.019c.128.059.217.06.293-.032.116-.142.193-.133.334.004.07.068.105.093.15.1h.003c.047.007.05.008.183-.073.009.018.028.026.06.033a.5.5 0 0 0 .148.007c.035-.006.06-.017.076-.05q.084-.004.2-.004v-.1q-.147 0-.247.005l-.018-.016c-.036-.032-.093-.082-.12-.074q-.006.002-.028.023c-.023.02-.057.05-.088.07-.131.08-.136.083-.156.08-.017-.003-.042-.02-.097-.074-.177-.172-.316-.189-.474.004-.04.05-.087.048-.18.005l-.038-.018c-.167-.081-.242-.091-.314.017-.058.086-.082.115-.098.122l-.002.002h-.001c-.004.002-.008.001-.052-.007l-.026-.005-.037-.005c-.183-.025-.229.045-.229.322v.386q0 .063-.032.144a2 2 0 0 1-.053.115c-.067.143-.095.226-.095.335 0 .091.012.152.038.219l.034.076.03.068c.029.07.054.146.08.244.04.155.084.214.176.27.122.075.173.135.261.37a3 3 0 0 1 .094.29c-.014.01-.012.019-.007.04l.005.013.003.003.02.018-.004-.002.023.029c.095.124.214.124.328.004l-.069-.07c-.075.079-.126.079-.183.004zm6.279 0c0-.056.031-.156.101-.342.097-.256.162-.334.302-.42.071-.043.099-.08.132-.21a2 2 0 0 1 .148-.4.5.5 0 0 0 .03-.181c0-.09-.023-.16-.085-.291a2 2 0 0 1-.054-.12.5.5 0 0 1-.04-.183v-.386c0-.225-.01-.238-.12-.223l-.033.005-.066.012a.13.13 0 0 1-.07-.009c-.04-.018-.069-.053-.139-.157-.032-.05-.068-.044-.193.017l-.04.019c-.128.059-.217.06-.293-.032-.116-.142-.193-.133-.334.004-.07.068-.105.093-.15.1h-.003c-.047.007-.05.008-.183-.073-.009.018-.029.026-.06.033a.5.5 0 0 1-.148.007c-.035-.006-.06-.017-.077-.05l-.198-.004v-.1q.147 0 .245.005l.019-.016c.036-.032.093-.082.12-.074q.005.002.028.023c.022.02.054.048.084.067l.004.003c.131.08.136.083.156.08.017-.003.042-.02.096-.074.178-.172.317-.189.475.004.04.05.087.048.18.005l.038-.018c.167-.081.242-.091.314.017.058.086.082.115.098.122l.002.002h.001c.004.002.008.001.051-.007l.027-.005.037-.005c.183-.025.228.045.228.322v.386q0 .063.033.144c.012.03.017.04.052.115.068.143.095.226.095.335a.6.6 0 0 1-.037.219l-.034.076-.03.068c-.03.07-.055.146-.08.244-.04.155-.084.214-.176.27-.122.075-.173.135-.261.37a3 3 0 0 0-.095.29c.014.01.013.019.008.04l-.006.013-.002.003-.012.012-.009.006.005-.002-.023.029c-.095.124-.214.124-.328.004l.069-.07c.075.079.126.079.183.004z" clip-rule="evenodd"/><path fill="#272727" d="m13.774 17.887.061-.496q1.612.197 2.154.197.818.037 1.948-.119l.069.495q-1.175.162-2.029.124c-.377 0-1.108-.067-2.203-.201"/></g></g></g><defs><clipPath id="a"><path fill="#fff" d="M0 0h32v24H0z"/></clipPath></defs></svg>