<svg xmlns="http://www.w3.org/2000/svg" width="32" height="24" fill="none" viewBox="0 0 32 24"><g clip-path="url(#a)"><mask id="b" width="32" height="24" x="0" y="0" maskUnits="userSpaceOnUse" style="mask-type:luminance"><path fill="#fff" d="M32 0H0v24h32z"/></mask><g mask="url(#b)"><path fill="#fff" d="M32 0H0v24h32z"/><path fill="#F7FCFF" fill-rule="evenodd" d="M0 0h32v24H0z" clip-rule="evenodd"/><path fill="#272727" fill-rule="evenodd" d="M0 0v8h32V0z" clip-rule="evenodd"/><path fill="#4E8B1D" fill-rule="evenodd" d="M0 16v8h32v-8z" clip-rule="evenodd"/><path fill="#E31D1C" stroke="#F7FCFF" stroke-width="2" d="M0 7h-1v10h34V7z"/><path fill="#3D58DB" fill-rule="evenodd" d="m0 0 20 12L0 24z" clip-rule="evenodd"/><path fill="#FECA00" fill-rule="evenodd" d="m6.648 14.41-2.02 2.1-.21-2.986-2.576-1.586 2.686-.843.439-2.958 1.86 2.342 2.711-.727-1.401 2.776L9.5 15.204z" clip-rule="evenodd"/></g></g><defs><clipPath id="a"><path fill="#fff" d="M0 0h32v24H0z"/></clipPath></defs></svg>