<svg xmlns="http://www.w3.org/2000/svg" width="32" height="24" fill="none" viewBox="0 0 32 24"><g clip-path="url(#a)"><mask id="b" width="32" height="24" x="0" y="0" maskUnits="userSpaceOnUse" style="mask-type:luminance"><path fill="#fff" d="M32 0H0v24h32z"/></mask><g mask="url(#b)"><path fill="#fff" d="M32 0H0v24h32z"/><path fill="#FBCD17" fill-rule="evenodd" d="M0 0v24h32V0z" clip-rule="evenodd"/><path fill="#73BE4A" fill-rule="evenodd" d="M0 0v8h32V0zm0 16v8h32v-8z" clip-rule="evenodd"/><path fill="#C51918" fill-rule="evenodd" d="M0 0v24l10-12z" clip-rule="evenodd"/><path fill="#272727" fill-rule="evenodd" d="M17.002 13.87 15.132 15l.426-2.204L14 11.146l2.11-.088L17.001 9l.892 2.058H20l-1.554 1.738.468 2.204zm8 0L23.132 15l.426-2.204L22 11.146l2.11-.088L25.001 9l.892 2.058H28l-1.554 1.738.468 2.204z" clip-rule="evenodd"/></g></g><defs><clipPath id="a"><path fill="#fff" d="M0 0h32v24H0z"/></clipPath></defs></svg>