<svg xmlns="http://www.w3.org/2000/svg" width="32" height="24" fill="none" viewBox="0 0 32 24"><g clip-path="url(#a)"><mask id="b" width="32" height="24" x="0" y="0" maskUnits="userSpaceOnUse" style="mask-type:luminance"><path fill="#fff" d="M32 0H0v24h32z"/></mask><g mask="url(#b)"><path fill="#fff" d="M32 0H0v24h32z"/><path fill="#F7FCFF" fill-rule="evenodd" d="M0 0v24h32V0z" clip-rule="evenodd"/><mask id="c" width="32" height="24" x="0" y="0" maskUnits="userSpaceOnUse" style="mask-type:luminance"><path fill="#fff" fill-rule="evenodd" d="M0 0v24h32V0z" clip-rule="evenodd"/></mask><g mask="url(#c)"><path fill="#3D58DB" fill-rule="evenodd" d="M0 0v8h32V0zm0 16v8h32v-8z" clip-rule="evenodd"/><path stroke="#E8AA00" d="M19.425 11.857a3.642 3.642 0 1 1-7.283 0 3.642 3.642 0 0 1 7.283 0Z"/><path fill="#1E601B" fill-rule="evenodd" d="M13.811 9.664s-.953 1.568-.953 2.644 1.14 2.429 2.935 2.429c1.75 0 3.007-1.045 3.045-2.43.038-1.383-.941-2.368-.941-2.368s.554 1.992.277 2.8-1.174 1.783-2.381 1.66c-1.208-.125-2.353-1.611-2.353-2.091s.371-2.644.371-2.644" clip-rule="evenodd"/><path stroke="#188396" d="M14.16 12.328h3.207"/><path stroke="#E8AA00" d="M14.459 11.805h2.76m-.169.607h-2.456l1.24-2.057z"/></g></g></g><defs><clipPath id="a"><path fill="#fff" d="M0 0h32v24H0z"/></clipPath></defs></svg>