<svg xmlns="http://www.w3.org/2000/svg" width="32" height="24" fill="none" viewBox="0 0 32 24"><g clip-path="url(#a)"><mask id="b" width="32" height="24" x="0" y="0" maskUnits="userSpaceOnUse" style="mask-type:luminance"><path fill="#fff" d="M32 0H0v24h32z"/></mask><g mask="url(#b)"><path fill="#fff" d="M32 0H0v24h32z"/><path fill="#E31D1C" fill-rule="evenodd" d="M0 0v24h32V0z" clip-rule="evenodd"/><mask id="c" width="32" height="24" x="0" y="0" maskUnits="userSpaceOnUse" style="mask-type:luminance"><path fill="#fff" fill-rule="evenodd" d="M0 0v24h32V0z" clip-rule="evenodd"/></mask><g mask="url(#c)"><path fill="#2E42A5" fill-rule="evenodd" d="M0 12v12h32V12z" clip-rule="evenodd"/></g><path fill="#F7FCFF" fill-rule="evenodd" d="M0-2v28l20-14z" clip-rule="evenodd"/><mask id="d" width="20" height="28" x="0" y="-2" maskUnits="userSpaceOnUse" style="mask-type:luminance"><path fill="#fff" fill-rule="evenodd" d="M0-2v28l20-14z" clip-rule="evenodd"/></mask><g mask="url(#d)"><path fill="#FBCD17" fill-rule="evenodd" d="M8.126 10.189c1.437 0 2.601-.938 2.601-2.095C10.727 6.938 9.563 6 8.126 6s-2.602.938-2.602 2.094c0 1.157 1.165 2.095 2.602 2.095" clip-rule="evenodd"/><path fill="#DA610A" fill-rule="evenodd" d="M8.353 6.387c-.213 0-.364.137-.364.342v.023a.4.4 0 0 0-.018.116c-.003.11.037.2.123.284a.2.2 0 0 1 .007.056c-.005-.018-.026-.033-.065-.061-.056-.041-.15-.109-.29-.252-.203-.205-.356-.285-.546-.253a1 1 0 0 0-.182.057c-.108.039-.208.048-.391.013-.51-.098-1.07-.002-1.676.279l.21.453c.517-.24.974-.317 1.372-.241.274.052.464.035.654-.034a1 1 0 0 1 .096-.034c-.007 0-.003.005.023.029q.025.023.084.083.086.087.178.158c-.118.031-.112.053-.09.13q.015.044.027.125c.014.12-.01.18.011.21.023.033.103.026.355.015a10 10 0 0 0 .853-.092c.14-.023.177-.031.236-.074l.052-.066a24 24 0 0 1 1.638-.183c.013 0 .013 0 .074-.013l.042-.018q.004 0 0 0l.123-.29-.127-.154c-.076-.023-.084-.026-.092-.026h-.004l-.017-.001h-.122c-.083 0-.148-.008-.243-.024l-.088-.017c-.39-.071-.752-.071-1.518.043l-.043-.033a4 4 0 0 1 .433-.044c.096-.005.096-.005.15-.006h.023l-.003-.5zm-.415 1.447.048-.01.047-.01-.028.006z" clip-rule="evenodd"/><path fill="#56C6F5" stroke="#E31D1C" d="m7.925 8.582.08.013.081-.013c.993-.163 1.647-.144 2.026-.017.437.147.919.105 1.426-.066a9.3 9.3 0 0 0-.243 2.034c0 .727.14 1.314.268 1.83l.01.04c.125.505.229.923.229 1.403 0 .43-.143.656-.343.798-.23.163-.616.268-1.188.268-.806 0-1.56.217-2.254.641l-.012-.008-.01.008a4.25 4.25 0 0 0-2.255-.641c-.572 0-.957-.105-1.189-.268-.2-.142-.342-.368-.342-.798 0-.48.104-.898.229-1.402l.01-.042c.127-.515.268-1.102.268-1.829q0-.957-.243-2.034c.507.171.99.213 1.426.066.379-.127 1.032-.146 2.026.017Z"/><path fill="#F7FCFF" fill-rule="evenodd" d="m8.785 10.623-.772-.685-.771.685h.229v.396l-1.2.747v1.829h-.229v.342h4v-.342h-.286v-1.829L8.5 10.983v-.36z" clip-rule="evenodd"/><path fill="#3B3B3B" d="m8.013 9.937.083-.094-.083-.073-.083.073zm.772.686v.125h.329l-.246-.219zm-1.543 0-.083-.094-.246.219h.329zm.229 0h.125v-.125H7.47zm0 .395.066.106.059-.037v-.07zm-1.2.747-.067-.106-.058.037v.07zm0 1.829v.125h.125v-.125zm-.229 0v-.125h-.125v.125zm0 .343h-.125v.125h.125zm4 0v.125h.125v-.125zm0-.343h.125v-.125h-.125zm-.286 0h-.125v.125h.125zm0-1.829h.125v-.07l-.059-.036zM8.5 10.982h-.125v.07l.059.036zm0-.36v-.124h-.125v.125zm-.569-.592.772.686.166-.187-.772-.686zm-.605.686.771-.686-.166-.187-.771.686zm.146-.218h-.229v.25h.229zm-.125.125v.395h.25v-.396zm.058.289-1.2.747.133.212 1.2-.747zm-1.258.853v1.829h.25v-1.829zm.125 1.704h-.229v.25h.229zm-.354.125v.343h.25v-.343zm.125.468h.229v-.25h-.229zm.229 0h3.485v-.25H6.271zm3.485 0h.286v-.25h-.286zm.411-.125v-.343h-.25v.343zm-.125-.468h-.286v.25h.286zm-.16.125v-1.829h-.25v1.829zm-.06-1.935-1.257-.783-.132.212 1.257.783zm-1.198-.677v-.36h-.25v.36zm.16-.484H8.5v.25h.286z"/><path fill="#FBCD17" d="M7.951 17.019c1.061 0 1.792-.116 2.168-.314a.5.5 0 0 1 .456-.255c.826.03 1.466-.318 1.97-1.083.543-.827.652-2.001.298-3.543l.9-.207c.406 1.766.273 3.192-.427 4.257-.628.954-1.484 1.464-2.528 1.499-.533.395-1.468.569-2.837.569-1.324 0-2.305-.258-2.935-.804-1.43-.338-2.339-.908-2.696-1.753-.38-.901-.38-2.152-.025-3.764l.901.199c-.318 1.442-.318 2.514-.026 3.205.204.483.797.877 1.801 1.15l.933.2-.045.235c.455.266 1.15.409 2.092.409"/><path fill="#73BE4A" fill-rule="evenodd" d="M4.767 9.177a.5.5 0 0 0 .277.65l.016.007-.024.05a.502.502 0 0 0 .478.718l-.011.056c-.103.505.479.757.8.5a.48.48 0 0 0 .47-.385l.056-.24.023.007c.472.142.79-.378.582-.73a.499.499 0 0 0-.584-.719l-.516.158a.5.5 0 0 0-.217-.01.5.5 0 0 0-.188-.134L5.417 8.9a.5.5 0 0 0-.65.277m2.062 1.356.122-.518-.63.364z" clip-rule="evenodd"/><path fill="#FBCD17" fill-rule="evenodd" d="M6.205 10.477a.5.5 0 1 0 0-1 .5.5 0 0 0 0 1" clip-rule="evenodd"/><path fill="#F7FCFF" fill-rule="evenodd" d="M10.24 10.073c-.008-.336-.045-1.104-.216-1.104s-.197.777-.2 1.11c-.296.096-.518.35-.518.35h1.471s-.232-.264-.536-.356" clip-rule="evenodd"/><path fill="#73BE4A" d="m2.55 12.57.246.043q-.298 1.721-.007 2.458c.224.57 1.546 1.336 1.92 1.336v.25c-.47 0-1.888-.82-2.153-1.495-.213-.543-.213-1.404-.006-2.592m10.83-.062-.246.041q.27 1.614-.117 2.516c-.309.725-1.502 1.649-1.815 1.649v.25c.421 0 1.7-.99 2.045-1.801q.415-.978.133-2.655m-6.987 4.917.047-.245q1.196.229 1.625.229t1.539-.229l.05.245q-1.13.234-1.588.234t-1.673-.234"/></g></g></g><defs><clipPath id="a"><path fill="#fff" d="M0 0h32v24H0z"/></clipPath></defs></svg>