<svg xmlns="http://www.w3.org/2000/svg" width="32" height="24" fill="none" viewBox="0 0 32 24"><g clip-path="url(#a)"><mask id="b" width="32" height="24" x="0" y="0" maskUnits="userSpaceOnUse" style="mask-type:luminance"><path fill="#fff" d="M32 0H0v24h32z"/></mask><g mask="url(#b)"><path fill="#fff" d="M32 0H0v24h32z"/><path fill="#F7FCFF" fill-rule="evenodd" d="M0 0h32v24H0z" clip-rule="evenodd"/><path fill="#409100" fill-rule="evenodd" d="M9.001 13.247 7.754 14l.285-1.47L7 11.432l1.406-.06L9.001 10l.595 1.372H11L9.964 12.53l.312 1.47zm14 0L21.754 14l.284-1.47L21 11.432l1.406-.06.595-1.371.595 1.372H25l-1.036 1.159.312 1.469z" clip-rule="evenodd"/><path fill="#E31D1C" fill-rule="evenodd" d="M0 0v8h32V0z" clip-rule="evenodd"/><path fill="#272727" fill-rule="evenodd" d="M0 16v8h32v-8z" clip-rule="evenodd"/></g></g><defs><clipPath id="a"><path fill="#fff" d="M0 0h32v24H0z"/></clipPath></defs></svg>