<svg xmlns="http://www.w3.org/2000/svg" width="32" height="24" fill="none" viewBox="0 0 32 24"><g clip-path="url(#a)"><mask id="b" width="32" height="24" x="0" y="0" maskUnits="userSpaceOnUse" style="mask-type:luminance"><path fill="#fff" d="M32 0H0v24h32z"/></mask><g mask="url(#b)"><path fill="#fff" d="M32 0H0v24h32z"/><path fill="#3D58DB" fill-rule="evenodd" d="M0 0h32v24H0z" clip-rule="evenodd"/><path fill="#C51918" stroke="#FFD018" stroke-width="2" d="M0 5h-1v14h34V5z"/><path fill="#FFD018" d="M7.149 9.333c-.12 0-.217-.272-.217-.606 0-.335.097-.606.217-.606h17.41c.12 0 .218.271.218.606s-.097.606-.217.606z"/><path fill="#F7FCFF" fill-rule="evenodd" d="m24.096 8.602 1.01-1.29 1.79 1.29-1.79 1.324z" clip-rule="evenodd"/><path fill="#FFD018" d="M7.149 13.333c-.12 0-.217-.272-.217-.606 0-.335.097-.606.217-.606h17.41c.12 0 .218.271.218.606s-.097.606-.217.606z"/><path fill="#F7FCFF" fill-rule="evenodd" d="m24.096 12.602 1.01-1.29 1.79 1.29-1.79 1.324z" clip-rule="evenodd"/><path fill="#FFD018" d="M4.346 15.82c-.16 0-.291-.307-.291-.687s.13-.688.29-.688H27.69c.16 0 .291.308.291.688s-.13.688-.29.688z"/><path fill="#F7FCFF" fill-rule="evenodd" d="M8.816 12.054s2.842-5.98 6.906-5.98 7 5.98 7 5.98-3.586 5.902-6.953 5.902c-3.366 0-6.953-5.902-6.953-5.902" clip-rule="evenodd"/><mask id="c" width="15" height="12" x="8" y="6" maskUnits="userSpaceOnUse" style="mask-type:luminance"><path fill="#fff" fill-rule="evenodd" d="M8.816 12.054s2.842-5.98 6.906-5.98 7 5.98 7 5.98-3.586 5.902-6.953 5.902c-3.366 0-6.953-5.902-6.953-5.902" clip-rule="evenodd"/></mask><g fill-rule="evenodd" clip-rule="evenodd" mask="url(#c)"><path fill="#272727" d="M15.923 5.68s-.927 1.126-.618 2.2 1.03.96 1.03 1.906-.333 1.91 0 1.91c.332 0 .447.653.143 1.095-.304.443-.573.457-.555 1.177s1.592 1.427.83 1.427-1.768.74-1.448.74 1.993.576 1.993 1.333v1.363H8.57V5.68z"/><path fill="#F7FCFF" d="M11.817 9.922h-.434v1.77h.434zm1.282 0h-.435v1.77h.435zm-1.075 0h.434v1.77h-.434zm1.715 0h-.434v1.77h.434zm.207 0h.434v1.77h-.434zm1.075 0h-.435v1.77h.435zm-3.638 2.538h.434v1.77h-.434zm1.716 0h-.435v1.77h.435zm-1.075 0h.434v1.77h-.434zm1.715 0h-.434v1.77h.434zm.207 0h.434v1.77h-.434zm1.075 0h-.435v1.77h.435z"/><path fill="#272727" d="M16.977 9.922h-.434v1.77h.434zm1.282 0h-.435v1.77h.435zm-1.075 0h.434v1.77h-.434zm1.715 0h-.434v1.77h.434zm.207 0h.434v1.77h-.434zm1.075 0h-.434v1.77h.434zm-3.638 2.538h.434v1.77h-.434zm1.716 0h-.435v1.77h.435zm-1.075 0h.434v1.77h-.434zm1.715 0h-.434v1.77h.434zm.207 0h.434v1.77h-.434zm1.075 0h-.434v1.77h.434z"/><path fill="#3D58DB" d="M13.231 7.07c-.608.19-.887 1.785-.819 2.17.068.387.275-.048.275-.048s.42.915.464 1.162.265-.372.265-.372.73.503.83 1.063c.098.56.247-.641.247-.641l.166-.03-.105-.593.315.27-.097-.552s.238.31.177-.032l-.094-.532-.082-.467.312-.055s-1.245-1.53-1.854-1.342"/></g><path fill="#3D58DB" fill-rule="evenodd" d="M26.088 13.694c-.632.08-1.184 1.603-1.184 1.995s.279 0 .279 0 .256.974.256 1.224.326-.32.326-.32.631.622.631 1.191.355-.588.355-.588h.168v-.603l.264.32v-.56s.18.347.18 0v-1.015h.317s-.96-1.724-1.592-1.644m-20.495-.23c.632.08 1.183 1.603 1.183 1.995 0 .391-.278 0-.278 0s-.256.974-.256 1.224-.326-.32-.326-.32-.632.622-.632 1.19c0 .57-.355-.588-.355-.588h-.168v-.603l-.264.32v-.56s-.18.347-.18 0v-1.015H4s.96-1.723 1.593-1.643" clip-rule="evenodd"/></g></g><defs><clipPath id="a"><path fill="#fff" d="M0 0h32v24H0z"/></clipPath></defs></svg>