<svg xmlns="http://www.w3.org/2000/svg" width="32" height="24" fill="none" viewBox="0 0 32 24"><g clip-path="url(#a)"><mask id="b" width="32" height="24" x="0" y="0" maskUnits="userSpaceOnUse" style="mask-type:luminance"><path fill="#fff" d="M32 0H0v24h32z"/></mask><g mask="url(#b)"><path fill="#fff" d="M32 0H0v24h32z"/><path fill="#2E42A5" fill-rule="evenodd" d="M0 0v24h32V0z" clip-rule="evenodd"/><mask id="c" width="32" height="24" x="0" y="0" maskUnits="userSpaceOnUse" style="mask-type:luminance"><path fill="#fff" fill-rule="evenodd" d="M0 0v24h32V0z" clip-rule="evenodd"/></mask><g fill-rule="evenodd" clip-rule="evenodd" mask="url(#c)"><path fill="#F7FCFF" d="M18.79 6.2h8.048l-.784 1.503h-2.442v.808h1.872l-.763 1.4h-1.109v2.798l1.827-2.88 2.365 4.095h-.966l-.338-.448h-2.14l-1.505 2.78v.154l-.041-.077-.042.077v-.154l-1.505-2.78h-2.14l-.337.448h-.966l2.364-4.095 1.828 2.88V7.703h-2.442zm6.696 5.309-.525.807h.994zm-5.345 0 .525.807h-.994zm-3.827-.896.831-.613.832.613-.294-1.027.807-.648-1.012-.022-.333-1.013-.332 1.013-1.012.022.807.648zM28.456 10l-.83.613.292-1.027-.806-.648 1.012-.022.332-1.013.333 1.013 1.012.022-.807.648.293 1.027zm-3.376 7.802.831-.612.831.612-.293-1.026.807-.648-1.012-.022-.333-1.013-.332 1.013-1.012.022.806.648zm-5.39-.612-.83.612.293-1.026-.807-.648 1.012-.022.332-1.013.333 1.013 1.012.022-.807.648.293 1.026zm2.28 3.01.83-.613.832.612-.293-1.027.806-.648-1.012-.021-.332-1.014-.333 1.014-1.012.021.807.648z"/><path fill="#F50100" d="M8 0h4v10H8z"/><path fill="#2E42A5" d="M0 0h4v10H0z"/><path fill="#F7FCFF" d="M4 0h4v10H4z"/></g></g></g><defs><clipPath id="a"><path fill="#fff" d="M0 0h32v24H0z"/></clipPath></defs></svg>