<svg xmlns="http://www.w3.org/2000/svg" width="32" height="24" fill="none" viewBox="0 0 32 24"><g clip-path="url(#a)"><mask id="b" width="32" height="24" x="0" y="0" maskUnits="userSpaceOnUse" style="mask-type:luminance"><path fill="#fff" d="M32 0H0v24h32z"/></mask><g mask="url(#b)"><path fill="#fff" d="M32 0H0v24h32z"/><path fill="#5EAA22" stroke="#F7FCFF" stroke-width="2" d="M0-1h-1v26h34V-1z"/><path fill="#FECA00" fill-rule="evenodd" d="M0 6v4h32V6zm0 8v4h32v-4z" clip-rule="evenodd"/><path fill="#F50101" d="M16 0H0v14h16z"/><path fill="#F7FCFF" fill-rule="evenodd" d="m8.25 10.143-3.72 2.302L5.976 8.58 3 5.978h3.648l1.602-3.85 1.223 3.85h3.604l-2.532 2.603 1.246 3.674z" clip-rule="evenodd"/></g></g><defs><clipPath id="a"><path fill="#fff" d="M0 0h32v24H0z"/></clipPath></defs></svg>