<svg xmlns="http://www.w3.org/2000/svg" width="32" height="24" fill="none" viewBox="0 0 32 24"><g clip-path="url(#a)"><mask id="b" width="32" height="24" x="0" y="0" maskUnits="userSpaceOnUse" style="mask-type:luminance"><path fill="#fff" d="M32 0H0v24h32z"/></mask><g mask="url(#b)"><path fill="#fff" d="M32 0H0v24h32z"/><path fill="#F7FCFF" fill-rule="evenodd" d="M0 0h32v24H0z" clip-rule="evenodd"/><path fill="#C51918" fill-rule="evenodd" d="M0 0v8h32V0z" clip-rule="evenodd"/><path fill="#409100" fill-rule="evenodd" d="M0 16v8h32v-8z" clip-rule="evenodd"/><path fill="#FB0" fill-rule="evenodd" d="m16.02 8.629-.591.418.208-.7-.573-.442.72-.015.236-.69.237.69.72.015-.574.442.208.7zm-2.497.613-.591.417.208-.7-.574-.441.72-.015.237-.691.236.69.72.016-.573.441.208.7zm-2.533 2.256.59-.418.592.418-.209-.7.574-.442-.72-.015-.236-.69-.237.69-.72.015.574.442zm-.033 1.965-.592.418.209-.7-.574-.442.72-.015.237-.69.236.69.72.015-.574.442.209.7zm9.466.418.591-.418.591.418-.208-.7.574-.442-.72-.015-.237-.69-.236.69-.72.015.574.442zm-.172-2.8-.59.417.208-.7-.574-.442.72-.015.236-.69.237.69.72.015-.574.442.209.7zm-2.504-1.422.591-.417.591.417-.208-.7.574-.441-.72-.015-.237-.691-.236.69-.72.016.574.441zm-5.08 7.095-.184-.657q1.53-.413 3.513-.413 1.984 0 3.514.413l-.184.657q-1.435-.389-3.33-.389t-3.329.389m1.264-1.053c-.407.07-.74-.324-.74-.324l.403-.167a.65.65 0 0 1 .157-.453c.136.063.322.406.322.406h.367s-.102.47-.51.538m4.81-.256s-.334.393-.74.324c-.408-.069-.51-.538-.51-.538h.366s.187-.343.323-.406c0 0 .17.173.156.453zm-2.796.131c-.412.012-.687-.424-.687-.424l.423-.108a.65.65 0 0 1 .218-.428c.126.081.263.448.263.448l.362.05s-.166.45-.579.462" clip-rule="evenodd"/><path fill="#FB0" fill-rule="evenodd" d="M15.958 13.7s-.469 1.073-1.207 1.156-1.114-.61-1.114-.61-.049.72-.926.999c-.877.278-1.339-.833-1.339-.833s.457.409 1.165.23c.708-.177.988-.835.988-.835s.524.686 1.226.343c.701-.343 1.09-.762 1.09-1.164v-1.201s-.182-.312-.496-.312-.401.221-.401.221-.123-1.25 1.006-1.328v-.003l.031.002.032-.002v.003c1.128.078 1.006 1.328 1.006 1.328s-.088-.221-.401-.221-.495.312-.495.312v1.201c0 .402.388.821 1.089 1.164s1.226-.343 1.226-.343.28.658.988.836 1.165-.23 1.165-.23-.462 1.11-1.34.832c-.877-.278-.925-1-.925-1s-.375.694-1.114.611-1.208-1.156-1.208-1.156l-.023-1.417zm-.01-2.997c-.52 0-.626.44-.626.44.458 0 .626.2.626.2s.34-.2.681-.2c0 0-.16-.44-.681-.44" clip-rule="evenodd"/></g></g><defs><clipPath id="a"><path fill="#fff" d="M0 0h32v24H0z"/></clipPath></defs></svg>