<svg xmlns="http://www.w3.org/2000/svg" width="32" height="24" fill="none" viewBox="0 0 32 24"><g clip-path="url(#a)"><mask id="b" width="32" height="24" x="0" y="0" maskUnits="userSpaceOnUse" style="mask-type:luminance"><path fill="#fff" d="M32 0H0v24h32z"/></mask><g mask="url(#b)"><path fill="#fff" d="M32 0H0v24h32z"/><path fill="#2E42A5" fill-rule="evenodd" d="M0 0v24h32V0z" clip-rule="evenodd"/><mask id="c" width="32" height="24" x="0" y="0" maskUnits="userSpaceOnUse" style="mask-type:luminance"><path fill="#fff" fill-rule="evenodd" d="M0 0v24h32V0z" clip-rule="evenodd"/></mask><g fill-rule="evenodd" clip-rule="evenodd" mask="url(#c)"><path fill="#F7FCFF" d="m3.294 10.063-.885.548.344-.92L2 8.995h.913L3.294 8l.292.995H4.5l-.659.696.323.92zm4-4-.885.548.344-.92L6 4.995h.913L7.294 4l.292.995H8.5l-.659.696.323.92zm4.001 4-.886.548.344-.92L10 8.995h.913L11.294 8l.292.995h.914l-.659.696.323.92zm-4.001 4-.885.548.344-.92L6 12.996h.913L7.294 12l.292.995H8.5l-.659.697.323.92z"/><path fill="#FECA00" d="M24.843 5.465C20.759 7.482 7.342 16.547 7.342 16.547h22.35q-.332-.073-.627-.13c-1.64-.327-2.45-.489-4.222-4.018-1.984-3.952 0-6.934 0-6.934M6.616 17.967l-.305.76.305.835 22.754.44.63-1.16-.63-.835z"/></g></g></g><defs><clipPath id="a"><path fill="#fff" d="M0 0h32v24H0z"/></clipPath></defs></svg>