<svg xmlns="http://www.w3.org/2000/svg" width="32" height="24" fill="none" viewBox="0 0 32 24"><g clip-path="url(#a)"><mask id="b" width="32" height="24" x="0" y="0" maskUnits="userSpaceOnUse" style="mask-type:luminance"><path fill="#fff" d="M32 0H0v24h32z"/></mask><g mask="url(#b)"><path fill="#fff" d="M32 0H0v24h32z"/><path fill="#29C470" fill-rule="evenodd" d="M0 0v24h32V0z" clip-rule="evenodd"/><mask id="c" width="32" height="24" x="0" y="0" maskUnits="userSpaceOnUse" style="mask-type:luminance"><path fill="#fff" fill-rule="evenodd" d="M0 0v24h32V0z" clip-rule="evenodd"/></mask><g mask="url(#c)"><path fill="#C51918" d="M12-.324H2v26.323h10z"/><mask id="d" width="10" height="27" x="2" y="-1" maskUnits="userSpaceOnUse" style="mask-type:luminance"><path fill="#fff" d="M12-.324H2v26.323h10z"/></mask><g mask="url(#d)"><path fill="#E8AA00" fill-rule="evenodd" d="m2.595.906-.546.701L2 1.56l.53-.681V.74l.002-.013.061-.19-.037-.065-.313.312.603-.938v.32l.115.105.276-.483-.277-.465-.2.154.081.163-.055.039-.452-.755.288.196.05-.073-.275-.28.122-.135-.403-.588L2.168-2l.438.64-.113.125.269.274-.124.18-.083-.057.158.263.265-.204.338.567-.34.593L2.78.203V.075l-.198.308.084.147-.07.218zM2.05 6.63l.546-.701V5.77l.071-.218-.084-.147.198-.308v.128l.197.178.339-.593-.338-.567-.265.204-.158-.263.083.056.124-.18-.27-.273.114-.125-.438-.64-.052.045.403.588-.122.134.275.28-.05.074-.288-.197.452.755.055-.038-.08-.163.2-.154.276.465-.276.483-.115-.104v-.32l-.603.938.313-.312.037.066-.061.19-.002.012v.137L2 6.58zm.546 3.878-.546.702-.05-.05.53-.68v-.137l.002-.013.061-.19-.037-.066-.313.313.603-.938v.32l.115.105.276-.483-.277-.465-.2.154.081.162-.055.04-.452-.756.288.197.05-.074-.275-.28.122-.135-.403-.587.052-.045.438.64-.113.125.269.274-.124.179-.083-.056.158.263.265-.204.338.567-.34.592-.196-.177v-.128l-.198.308.084.146-.07.218zm-.546 5.356.546-.702v-.158l.071-.218-.084-.147.198-.308v.128l.197.178.339-.593-.338-.566-.265.203-.158-.263.083.057.124-.18-.27-.274.114-.125-.438-.64-.052.045.403.588-.122.134.275.28-.05.074-.288-.196.452.755.055-.039-.08-.163.2-.153.276.464-.276.483-.115-.104v-.32l-.603.937.313-.312.037.066-.061.19-.002.012v.137l-.53.68zm0 4.136.546-.702v-.158l.071-.218-.084-.146.198-.308v.128l.197.177.339-.592-.338-.567-.265.204-.158-.263.083.056.124-.18-.27-.273.114-.126-.438-.64-.052.046.403.588-.122.134.275.28-.05.074-.288-.197.452.755.055-.038-.08-.163.2-.154.276.465-.276.483-.115-.105v-.32l-.603.938.313-.313.037.066-.061.19-.002.013v.136l-.53.681zm9.902 0-.546-.702v-.158l-.071-.218.084-.146-.198-.308v.128l-.197.177-.339-.592.338-.567.265.204.158-.263-.083.056-.124-.18.27-.273-.114-.126.438-.64.052.046-.403.588.122.134-.275.28.05.074.288-.197-.452.755-.055-.038.08-.163-.2-.154-.276.465.276.483.115-.105v-.32l.603.938-.313-.313-.037.066.061.19.002.013v.136l.53.681zm-.546-4.838.546.701.049-.048-.53-.681v-.137l-.002-.012-.061-.19.037-.066.313.312-.603-.938v.32l-.115.105-.276-.483.277-.464.2.153-.081.163.055.039.452-.755-.288.196-.05-.073.275-.28-.122-.135.403-.588-.052-.045-.438.64.113.125-.269.274.124.18.083-.057-.158.263-.265-.203-.338.566.34.593.196-.178v-.128l.198.308-.084.147.07.218zm.546-3.952-.546-.702v-.158l-.071-.218.084-.146-.198-.308v.128l-.197.177-.339-.592.338-.567.265.204.158-.263-.083.056-.124-.18.27-.273-.114-.126.438-.64.052.046-.403.587.122.135-.275.28.05.074.288-.197-.452.755-.055-.039.08-.162-.2-.154-.276.465.276.483.115-.105v-.32l.603.938-.313-.313-.037.066.061.19.002.013v.136l.53.681zm-.546-5.281.546.701.049-.048-.53-.681v-.137l-.002-.013-.061-.19.037-.065.313.312-.603-.938v.32l-.115.105-.276-.483.277-.465.2.154-.081.163.055.038.452-.755-.288.197-.05-.073.275-.281-.122-.134.403-.588-.052-.045-.438.64.113.125-.269.274.124.18.083-.057-.158.263-.265-.204-.338.567.34.593.196-.178v-.128l.198.308-.084.147.07.218zm.546-4.322-.546-.701V.748L11.334.53l.084-.147-.198-.308v.128l-.197.178-.339-.593.338-.567.265.204.158-.263-.083.056-.124-.18.27-.273-.114-.125.438-.64.052.045-.403.588.122.134-.275.28.05.074.288-.196-.452.755-.055-.04.08-.162-.2-.154-.276.465.276.483.115-.104v-.32l.603.937-.313-.312-.037.066.061.19.002.012v.137l.53.68z" clip-rule="evenodd"/><path fill="#389F5D" fill-rule="evenodd" d="M7.307 14.566h1.554v.364h.354v.292h.424v.948h-.424v.291H8.86v.292H7.349l-.419.372-.42-.372H5.108v-.292h-.354v-.291H4.4v-.948h.354v-.292h.354v-.364h1.444l.378-.336z" clip-rule="evenodd"/><path fill="#E8AA00" d="M8.86 14.564h.25v-.25h-.25zm-1.553 0-.166.186.071.064h.095zm1.554.364h-.25v.25h.25zm.354 0h.25v-.25h-.25zm0 .292h-.25v.25h.25zm.424 0h.25v-.25h-.25zm0 .948v.25h.25v-.25zm-.424 0v-.25h-.25v.25zm0 .291v.25h.25v-.25zm-.354 0v-.25h-.25v.25zm0 .292v.25h.25v-.25zm-1.512 0v-.25h-.096l-.07.063zm-.419.372-.165.187.166.147.165-.147zm-.42-.372.166-.187-.071-.063H6.51zm-1.402 0h-.25v.25h.25zm0-.292h.25v-.25h-.25zm-.354 0h-.25v.25h.25zm0-.291h.25v-.25h-.25zm-.354 0h-.25v.25h.25zm0-.948v-.25h-.25v.25zm.354 0v.25h.25v-.25zm0-.292v-.25h-.25v.25zm.354 0v.25h.25v-.25zm0-.364v-.25h-.25v.25zm1.444 0v.25h.094l.071-.063zm.378-.335.166-.187-.165-.147-.166.146zm1.93.085H7.308v.5h1.554zm.25.614v-.364h-.5v.364zm.105-.25H8.86v.5h.354zm.25.542v-.292h-.5v.292zm.174-.25h-.424v.5h.424zm.25 1.198v-.948h-.5v.948zm-.674.25h.424v-.5h-.424zm.25.041v-.291h-.5v.291zm-.604.25h.354v-.5H8.86zm.25.042v-.292h-.5v.292zm-1.762.25H8.86v-.5H7.349zm-.253.309.419-.372-.333-.374-.418.372zm-.752-.372.42.372.332-.374-.42-.372zm-1.236.063H6.51v-.5H5.108zm-.25-.542v.292h.5v-.292zm-.104.25h.354v-.5h-.354zm-.25-.541v.291h.5v-.291zm-.104.25h.354v-.5H4.4zm-.25-1.198v.948h.5v-.948zm.604-.25H4.4v.5h.354zm-.25-.042v.292h.5v-.292zm.604-.25h-.354v.5h.354zm-.25-.114v.364h.5v-.364zm1.694-.25H5.108v.5h1.444zm.165.437.379-.335-.331-.375-.38.335zm.047-.335.377.334.332-.373-.377-.335z"/><path fill="#C51918" fill-rule="evenodd" d="M5.315 15.406v-.644h.751zm3.158 0v-.644h-.75zm-3.158 1.167v-.645l.751.645zm3.158-.645v.645h-.75z" clip-rule="evenodd"/><path fill="#E8AA00" fill-rule="evenodd" d="m6.646 14.82.259-.34.255.34zm0 .317.259.34.255-.34zm.259.802-.26.34h.515zm-.26.656.26.34.255-.34z" clip-rule="evenodd"/><path fill="#AF0100" fill-rule="evenodd" d="M6.65 14.777v.146h-.148v.2h.149v.146h.519v-.146h.149v-.2h-.15v-.146zm.52 1.604v-.145h-.52v.145h-.148v.2h.149v.146h.519v-.146h.149v-.2zm-1.516-.833.247-.341.243.34zm0 .318.247.341.243-.34zm2.3-.659-.247.34h.49zm-.247.66.247.34.244-.34z" clip-rule="evenodd"/><path fill="#E8AA00" fill-rule="evenodd" d="M5.652 15.508v.149h-.141v.204h.141v.148h.494v-.148h.142v-.204h-.142v-.15zm2.548.149v-.15h-.495v.15h-.141v.204h.141v.148H8.2v-.148h.141v-.204z" clip-rule="evenodd"/><mask id="e" width="6" height="4" x="4" y="17" maskUnits="userSpaceOnUse" style="mask-type:luminance"><path fill="#fff" fill-rule="evenodd" d="m6.217 17.25-1.772.999v1.656l1.772 1.039h1.919l1.813-1.04V18.25l-1.813-.999z" clip-rule="evenodd"/></mask><g mask="url(#e)"><path fill="#E8AA00" d="M4.47 19.098h2.762v1.823H4.47z"/><path fill="#F9E8E7" d="M7.232 17.273H4.188v1.823h3.044z"/><path fill="#E8AA00" d="m4.896 18.337.916-.552v.552zm2.336-1.064h3.044v1.823H7.232z"/><path fill="#F9E8E7" d="m9.356 18.337-.917-.552v.552zm-2.124 2.581h2.761v-1.823h-2.76z"/><path fill="#E8AA00" d="m9.285 19.856-.917.551v-.552z"/><path fill="#FCFCFC" d="m4.896 19.742.916.552v-.552z"/></g><path fill="#C51918" fill-rule="evenodd" d="M6.24 18.369h.46l.46-.146.46.146h.46v1.385h-.46l-.46.219-.46-.219h-.46z" clip-rule="evenodd"/><path fill="#C9343F" fill-rule="evenodd" d="M7.798 17.54h.25v.281h.103v.2h-.103v.108h-.25zm-2.51.874h-.25v.59h.25v-.108h.102v-.2h-.103zm.353 0h-.25v.59h.25zm-.354.73h-.25v.59h.25v-.109h.103v-.2h-.103zm.104 0h.25v.59h-.25zm3.54-.73h.25v.282h.102v.2h-.102v.108h-.25zm.604 0h-.25v.59h.25zm-.354.73h-.25v.59h.25v-.109h.102v-.2h-.102zm.104 0h.25v.59h-.25zm-.883-1.605h-.25v.59h.25zm-2.053 0H6.1v.59h.25v-.108h.103v-.2H6.35zm.104 0h.25v.59h-.25zm1.345 2.48h.25v.281h.103v.2h-.103v.108h-.25zm.604 0h-.25v.59h.25zm-2.053 0H6.1v.59h.25V20.5h.103v-.2H6.35zm.104 0h.25v.59h-.25z" clip-rule="evenodd"/><path fill="#fff" fill-rule="evenodd" d="M7.025 18.667h.07v-.198h-.353v.226H6.45v.325h.271v-.073h-.2v-.179h.24l.362.313-.362.314h-.24v-.18h.2v-.072h-.27v.325h.29v.226h.354v-.198h-.07v.125h-.213v-.175l.368-.319.368.319v.175h-.212v-.125h-.07v.198h.353v-.226h.292v-.325H7.64v.072h.2v.18H7.6l-.362-.314.362-.313h.24v.18h-.2v.072h.27v-.325h-.29v-.226h-.354v.198h.07v-.125h.212v.175l-.368.319-.368-.319v-.175h.213z" clip-rule="evenodd"/><path fill="#E8AA00" fill-rule="evenodd" d="M7.584 4.8H6.338v4h1.246zm-2.805.847h.78V7.8h-.78zm3.663 0h.779V7.8h-.78z" clip-rule="evenodd"/><path fill="#389F5D" fill-rule="evenodd" d="M6.338 5.11h-.78v3.076h.78zm-1.559.846H4v1.461h.78zm4.442 0H10v1.461h-.78zm-.857-.847h-.78v3.077h.78z" clip-rule="evenodd"/><path fill="#E1E5E8" fill-rule="evenodd" d="M6.182 5.492a.23.23 0 0 1-.234.231.23.23 0 0 1-.233-.23c0-.128.104-.231.233-.231.13 0 .234.103.234.23m-1.558.77c0 .127-.105.23-.234.23a.23.23 0 0 1-.234-.23c0-.128.105-.231.234-.231.13 0 .234.103.234.23m0 .846c0 .127-.105.23-.234.23a.23.23 0 0 1-.234-.23c0-.128.105-.23.234-.23a.23.23 0 0 1 .234.23m1.324.923c.13 0 .234-.103.234-.23a.23.23 0 0 0-.234-.232.23.23 0 0 0-.233.231c0 .128.104.231.233.231m3.663-1.539a.23.23 0 0 0 .234-.23.23.23 0 0 0-.234-.231.23.23 0 0 0-.234.23c0 .128.105.231.234.231m.234.616c0 .127-.105.23-.234.23a.23.23 0 0 1-.234-.23c0-.128.105-.23.234-.23s.234.102.234.23m-1.87.923a.23.23 0 0 0 .233-.23.23.23 0 0 0-.234-.232.23.23 0 0 0-.233.231c0 .128.104.231.233.231m.233-2.539a.23.23 0 0 1-.234.231.23.23 0 0 1-.233-.23c0-.128.104-.231.233-.231.13 0 .234.103.234.23" clip-rule="evenodd"/><path fill="#C51918" fill-rule="evenodd" d="M7.195 5.184c0 .127-.104.23-.233.23a.23.23 0 0 1-.234-.23.23.23 0 0 1 .234-.23.23.23 0 0 1 .233.23m-1.792.846c0 .127-.105.23-.234.23a.23.23 0 0 1-.233-.23c0-.127.104-.23.233-.23.13 0 .234.103.234.23m1.559 2.692a.23.23 0 0 0 .233-.23.23.23 0 0 0-.233-.231.23.23 0 0 0-.234.23c0 .128.104.231.234.231M9.065 6.03c0 .127-.104.23-.233.23a.23.23 0 0 1-.234-.23c0-.127.105-.23.234-.23s.233.103.233.23M5.17 7.645c.13 0 .234-.103.234-.23a.23.23 0 0 0-.234-.231.23.23 0 0 0-.233.23c0 .128.104.231.233.231m3.896-.23c0 .127-.104.23-.233.23a.23.23 0 0 1-.234-.23c0-.128.105-.231.234-.231s.233.103.233.23" clip-rule="evenodd"/><path fill="#C51918" fill-rule="evenodd" d="m5.606 6.392.759-.685h1.232l.864.786h1.15v.308h-1.12v.016l-.895.91H6.365l-.759-.821V6.8H4.312v-.308h1.294z" clip-rule="evenodd"/><path fill="#E8AA00" fill-rule="evenodd" d="m7.01 6.277.37.373-.388.367-.386-.367.368-.373.018-.017zm.068.902.043-.04-.044-.042.384-.364.4.406-.18.19h-.107l-.199.125zm-.086.079-.369.341-.246-.155h-.124l-.29-.307.477-.484-.481-.455.315-.306.115.09.165-.168-.05-.05.084-.08.404.41.404-.41.084.08-.05.05.166.168.114-.09.316.306-.481.455.478.484-.292.307h-.123l-.246.155zm.206-.956.005-.005-.11-.102-.014-.014.288-.266.22.222.115-.091.156.15-.395.375zm-.247.836-.342.316-.198-.125h-.107l-.18-.19.4-.406zm-.824-.941.394.374.385-.39-.288-.266-.22.222-.115-.091zM4.448 21.442c-.209-.266-.35-.445-.387-.442-.117.009-.226 1.244 1.29 2.184 0 0 .224.124.355 0 .13-.125 0-.308 0-.308-.49-.46-.948-1.042-1.258-1.434m5.104 0c.209-.265.35-.445.387-.442.117.009.226 1.244-1.29 2.184 0 0-.224.124-.355 0-.13-.125 0-.308 0-.308.49-.46.948-1.042 1.258-1.434m-.111 1.662c-.499.147-1.076.178-1.296.083a1.3 1.3 0 0 0-.224-.073c-.22-.05-.434-.05-.687-.022-.022.002-.075.009-.094.01l-.007.002-.04.004a.2.2 0 0 0-.05.006.2.2 0 0 0-.048-.006l-.04-.004-.007-.001-.094-.01a2 2 0 0 0-.687.021 1.3 1.3 0 0 0-.224.073c-.22.095-.798.064-1.296-.083 0 0 .907.364 1.445.203a1 1 0 0 1 .166-.054 1.6 1.6 0 0 1 .499-.02q-.119.057-.28.123v.044a2.4 2.4 0 0 1 .567-.14c.106.013.354.054.566.14v-.044a6 6 0 0 1-.28-.123 1.6 1.6 0 0 1 .5.02q.087.02.165.053c.539.162 1.446-.202 1.446-.202" clip-rule="evenodd"/><path fill="#389F5D" fill-rule="evenodd" d="M5.764 9.977 4.512 11.08v1.05l1.094 1.1h2.235l1.232-1.173v-.895L7.841 9.977z" clip-rule="evenodd"/><path fill="#C51918" fill-rule="evenodd" d="M6.194 10.094h-.283v.219h.283zm0 2.86h-.283v.219h.283zm.425 0h.283v.219H6.62zm.283-2.86H6.62v.219h.283zm.425 2.86h.283v.219h-.283zm.283-2.86h-.283v.219h.283z" clip-rule="evenodd"/><path fill="#E8AA00" fill-rule="evenodd" d="M6.554 10.04h-.288v.218h.288zm0 2.916h-.288v.219h.288zm.432-2.917h.289v.219h-.289zm.289 2.917h-.289v.219h.289z" clip-rule="evenodd"/><path fill="#750100" fill-rule="evenodd" d="M4.914 9.844h3.78v.584h.541v2.415h-.541v.499h-3.78v-.5h-.588v-2.414h.588zm.212.803H4.54v1.977h.587v.5h3.356v-.5h.54v-1.977h-.54v-.585H5.126z" clip-rule="evenodd"/><path fill="#389F5D" fill-rule="evenodd" d="M6.408 9.602h-.354v.364h.353zm.566 0H6.62v.364h.354zm.212 0h.354v.364h-.354zm-.779 3.645h-.353v.365h.353zm.213 0h.354v.365H6.62zm.92 0h-.354v.365h.354zm-3.545-.807v-.354h.365v.354zm0-.937v.354h.365v-.354zm0-.23v-.354h.365v.354zm5.097.813v.354h.365v-.354zm0-.23v-.353h.365v.354zm0-.937v.354h.365v-.354z" clip-rule="evenodd"/><path fill="#C51918" fill-rule="evenodd" d="m5.778 10.285-.61.531v1.718l.507.359H7.87l.506-.359v-1.718l-.57-.53z" clip-rule="evenodd"/><path fill="#E1E5E8" fill-rule="evenodd" d="m6.803 10.996-.737.63h.737z" clip-rule="evenodd"/><path fill="#E8AA00" d="m6.803 12.196-.737-.63h.737z"/><path fill="#E8AA00" fill-rule="evenodd" d="m6.74 10.996.736.63h-.737z" clip-rule="evenodd"/><path fill="#29AE66" fill-rule="evenodd" d="M6.772 11.798a.223.223 0 1 0 0-.446.223.223 0 0 0 0 .446" clip-rule="evenodd"/><path fill="#E1E5E8" d="m6.74 12.196.736-.63h-.737z"/><path fill="#C51918" fill-rule="evenodd" d="M5.204 11.352h-.638v.204h.638zm0 .371h-.638v.204h.638zm3.185-.371h.638v.204h-.638zm.638.371h-.638v.204h.638z" clip-rule="evenodd"/><path fill="#E8AA00" fill-rule="evenodd" d="M5.133 11.133h-.567v.223h.567zm0 .372h-.567v.223h.567zm-.567.372h.567v.223h-.567zm4.39-.744h-.567v.223h.567zm-.567.372h.567v.223h-.567zm.567.372h-.567v.223h.567zM9.985 1.592l-.002.405H7.024l-.002 1.84h-.928c-.162 0-.606-.311-.606-.311h-.753l-.348-.356v-.357l-.373-.443.002-.405h2.959l.002-1.84h.928c.162 0 .606.311.606.311h.753l.348.355v.357z" clip-rule="evenodd"/><path fill="#E1E5E8" fill-rule="evenodd" d="m4.014 1.592.002.405h2.959l.002 1.84h.928c.162 0 .606-.311.606-.311h.753l.348-.356v-.357l.373-.443-.002-.405H7.024L7.022.125h-.928c-.162 0-.606.311-.606.311h-.753l-.348.355v.357z" clip-rule="evenodd"/><path fill="#C51918" fill-rule="evenodd" d="M6.002.687 5.97.531l.638-.147q.117-.056.393-.314l.086.097L7.1.15q.276.258.393.314l.638.147L8.1.767 7.746.694l.034.03a.4.4 0 0 0-.08.064L7.552.766l.014-.05-.037-.007a2 2 0 0 0-.093.222l-.15-.044.061-.29L7.008.28l-.236.222q.044.04.088.092-.038.015-.072.025l-.01.003.038.185-.15.044a2 2 0 0 0-.055-.145l-.012.002a.4.4 0 0 0-.08-.064l.043-.037-.02-.031zm.026.573.086-.134-.441-.295.049-.069-.126-.095-.054.076-.175-.117-.085.134.168.112-.035.049.126.094.04-.055zm-.545.16.085-.134-.44-.295.048-.069-.125-.095-.054.076-.175-.117-.086.134.168.112-.034.049.125.094.04-.055zm-.234.48.085-.134-.44-.295.049-.069-.126-.095-.054.076-.175-.117-.085.134.167.112-.034.049.126.094.04-.055zm.007.384-.085-.134-.448.3-.04-.055-.125.095.035.048-.168.113.085.134.175-.118.054.076.126-.095-.05-.068zm.149.346.085.134-.44.296.048.068-.125.095-.054-.076-.175.118-.085-.134.167-.113-.034-.048.125-.095.04.056zm.545.16.086.134-.441.296.049.068-.126.095-.054-.076-.175.118-.085-.134.168-.113-.035-.048.126-.095.04.056zm.832.765L6.71 3.53l-.03-.007.058-.279L6.59 3.2a1.2 1.2 0 0 1-.125.275l-.54-.112-.032.157.615.141.089.06.011-.007q.118.081.316.266l.05-.056.05.056q.276-.257.393-.313l.02-.005a1 1 0 0 0 .082.059l.089-.06-.01-.03.01-.009.447-.102-.032-.157-.54.112a1.2 1.2 0 0 1-.125-.275l-.15.044.061.29-.295.277-.228-.214zm1.908-1.27.085-.135.448.3.04-.055.125.095-.034.048.167.113-.085.134-.175-.118-.054.076-.126-.095.05-.068zm-.234.48.085-.135.448.3.04-.055.125.095-.034.048.168.113-.086.134-.175-.118-.054.076-.125-.095.049-.068zm-.546.16.086-.135.448.3.04-.055.125.095-.035.048.168.113-.085.134-.175-.118-.054.076-.126-.095.05-.068zm.858-1.079.085.134.448-.3.04.055.125-.094-.035-.049.168-.112-.085-.134-.175.117-.054-.076-.126.095.05.069zm-.234-.48.085.134.448-.3.04.055.125-.094-.034-.049L9.365 1 9.28.866l-.175.117-.054-.076-.125.095.049.069zm-.546-.16.086.134.448-.3.04.055.125-.094-.035-.049L8.82.84 8.735.706 8.56.823 8.506.747 8.38.842l.05.069z" clip-rule="evenodd"/><path fill="#C51918" fill-rule="evenodd" d="M6.208 1.152 7.09.684v1.28h2.182l-.52.374v.49H7.93l-.883.468v-1.28H4.865l.52-.375v-.49z" clip-rule="evenodd"/><path fill="#29AE66" fill-rule="evenodd" d="M7.93 1.152 7.047.684v1.28H4.865l.52.374v.49h.823l.882.468v-1.28h2.182l-.52-.375v-.49z" clip-rule="evenodd"/><path fill="#29AE66" fill-rule="evenodd" d="m5.78 1.483.143-.284.367.196.1-.15.257.182-.079.117 1.085.58.066-.1.257.182-.045.067.117.063-.144.284-.151-.082-.123.183-.257-.181.101-.15-1.084-.58-.09.132-.256-.182.067-.1z" clip-rule="evenodd"/><path fill="#C51918" fill-rule="evenodd" d="m8.09 1.406-.164-.273-.352.22-.11-.142-.244.2.087.11-1.041.655-.074-.094-.243.199.05.063-.113.07.163.274.146-.092.135.174.243-.199-.11-.143 1.04-.654.098.126.244-.2-.074-.094z" clip-rule="evenodd"/></g><path fill="#F7FCFF" fill-rule="evenodd" d="M19.073 2s2.33 5.522.26 7.867S12 11.759 12 11.759s6.756 3.052 9.7-1.15S19.073 2 19.073 2" clip-rule="evenodd"/><path fill="#F7FCFF" fill-rule="evenodd" d="m14.845 5.247-.617.434.217-.727-.598-.46.75-.015.248-.717.246.717.751.016-.599.459.218.727zm.119 2.005-.617.434.218-.727-.599-.459.751-.015.247-.718.246.718.751.015-.598.46.217.726zm-2.491.59.616-.435.617.434-.217-.727.598-.459-.75-.015-.248-.718-.246.718-.751.015.598.46zm2.49 1.514-.616.434.218-.727-.599-.46.751-.015.247-.717.246.717.751.016-.598.459.217.727zm1.422-2.282L17 6.64l.617.434-.218-.728.599-.459-.751-.015L17 5.154l-.246.718-.751.015.598.46z" clip-rule="evenodd"/></g></g></g><defs><clipPath id="a"><path fill="#fff" d="M0 0h32v24H0z"/></clipPath></defs></svg>