<svg xmlns="http://www.w3.org/2000/svg" width="32" height="24" fill="none" viewBox="0 0 32 24"><g clip-path="url(#a)"><mask id="b" width="32" height="24" x="0" y="0" maskUnits="userSpaceOnUse" style="mask-type:luminance"><path fill="#fff" d="M32 0H0v24h32z"/></mask><g mask="url(#b)"><path fill="#fff" d="M32 0H0v24h32z"/><path fill="#E31D1C" fill-rule="evenodd" d="M0 0v24h32V0z" clip-rule="evenodd"/><mask id="c" width="32" height="24" x="0" y="0" maskUnits="userSpaceOnUse" style="mask-type:luminance"><path fill="#fff" fill-rule="evenodd" d="M0 0v24h32V0z" clip-rule="evenodd"/></mask><g fill-rule="evenodd" clip-rule="evenodd" mask="url(#c)"><path fill="#F7FCFF" d="M16 20a8 8 0 1 0 0-16 8 8 0 0 0 0 16"/><path fill="#E31D1C" d="M17.403 17.652s-4.217-1.15-4.217-5.678c0-4.527 4.217-5.776 4.217-5.776-1.744-.674-6.846.361-6.846 5.776 0 5.416 5.244 6.391 6.845 5.678m-.233-6.663-2.092.765 2.249.786.075 2.104 1.369-1.635 2.256.16-1.626-1.326.98-1.915-1.913.644-1.325-1.656z"/></g></g></g><defs><clipPath id="a"><path fill="#fff" d="M0 0h32v24H0z"/></clipPath></defs></svg>