<svg xmlns="http://www.w3.org/2000/svg" width="32" height="24" fill="none" viewBox="0 0 32 24"><g clip-path="url(#a)"><mask id="b" width="32" height="24" x="0" y="0" maskUnits="userSpaceOnUse" style="mask-type:luminance"><path fill="#fff" d="M32 0H0v24h32z"/></mask><g mask="url(#b)"><path fill="#fff" d="M32 0H0v24h32z"/><path fill="#E31D1C" fill-rule="evenodd" d="M0 0v24h32V0z" clip-rule="evenodd"/><mask id="c" width="32" height="24" x="0" y="0" maskUnits="userSpaceOnUse" style="mask-type:luminance"><path fill="#fff" fill-rule="evenodd" d="M0 0v24h32V0z" clip-rule="evenodd"/></mask><g mask="url(#c)"><path fill="#F7FCFF" fill-rule="evenodd" d="M16.026 16.114c-2.141-.528-3.818-2.32-3.8-4.947.02-2.46 1.508-4.538 3.862-5.101s4.427.632 4.427.632c-.651-1.536-2.911-2.615-4.764-2.612-3.45.006-7.126 2.803-7.158 7.08-.033 4.436 3.937 6.962 7.43 6.956 2.799-.005 4.126-1.92 4.401-2.735 0 0-2.257 1.255-4.398.727m4.878-5.787-2.134.784 2.407.849-.04 2.537 1.586-1.903 2.62.19L23.266 11l1.364-1.903-2.22.746-1.586-1.763z" clip-rule="evenodd"/></g></g></g><defs><clipPath id="a"><path fill="#fff" d="M0 0h32v24H0z"/></clipPath></defs></svg>