<svg xmlns="http://www.w3.org/2000/svg" width="32" height="24" fill="none" viewBox="0 0 32 24"><g clip-path="url(#a)"><mask id="b" width="32" height="24" x="0" y="0" maskUnits="userSpaceOnUse" style="mask-type:luminance"><path fill="#fff" d="M32 0H0v24h32z"/></mask><g mask="url(#b)"><path fill="#fff" d="M32 0H0v24h32z"/><path fill="#EF0000" fill-rule="evenodd" d="M0 0v24h32V0z" clip-rule="evenodd"/><mask id="c" width="32" height="24" x="0" y="0" maskUnits="userSpaceOnUse" style="mask-type:luminance"><path fill="#fff" fill-rule="evenodd" d="M0 0v24h32V0z" clip-rule="evenodd"/></mask><g fill-rule="evenodd" clip-rule="evenodd" mask="url(#c)"><path fill="#2E42A5" d="M0 0v14h18V0z"/><path fill="#FEFFFF" d="m8.729 10.812-1.482 1.849-.359-2.342-2.207.86.86-2.207-2.342-.36 1.849-1.48L3.199 5.65l2.342-.36-.86-2.207 2.207.86.36-2.341 1.48 1.848 1.483-1.848.358 2.341 2.208-.86-.86 2.208 2.342.359-1.85 1.481 1.85 1.482-2.342.359.86 2.207-2.208-.86-.359 2.342zm0-.818a2.862 2.862 0 1 0 0-5.725 2.862 2.862 0 0 0 0 5.725m2.29-2.863a2.29 2.29 0 1 1-4.58 0 2.29 2.29 0 0 1 4.58 0"/></g></g></g><defs><clipPath id="a"><path fill="#fff" d="M0 0h32v24H0z"/></clipPath></defs></svg>