<svg xmlns="http://www.w3.org/2000/svg" width="32" height="24" fill="none" viewBox="0 0 32 24"><g clip-path="url(#a)"><mask id="b" width="32" height="24" x="0" y="0" maskUnits="userSpaceOnUse" style="mask-type:luminance"><path fill="#fff" d="M32 0H0v24h32z"/></mask><g mask="url(#b)"><path fill="#fff" d="M32 0H0v24h32z"/><path fill="#FECA00" fill-rule="evenodd" d="M0 0v24h32V0z" clip-rule="evenodd"/><mask id="c" width="32" height="24" x="0" y="0" maskUnits="userSpaceOnUse" style="mask-type:luminance"><path fill="#fff" fill-rule="evenodd" d="M0 0v24h32V0z" clip-rule="evenodd"/></mask><g mask="url(#c)"><path fill="#272727" d="M32 0H0v4h32z"/><path fill="#D74800" d="M32 8H0v4h32z"/><path fill="#272727" d="M32 12H0v4h32z"/><path fill="#D74800" d="M32 20H0v4h32z"/><path fill="#F7FCFF" fill-rule="evenodd" d="M16 18a6 6 0 1 0 0-12 6 6 0 0 0 0 12" clip-rule="evenodd"/><path fill="#272727" fill-rule="evenodd" d="m13.68 8.327-1.058.347 1.058.09s.171.42 0 .746c-.043.083-.155.189-.298.325-.42.398-1.108 1.05-1.108 2.11 0 1.42 2.74 2.064 2.74 2.064v.674s.319.198-1.496.198c-1.574 0-1.476.597-1.422.924q.014.076.016.129c0 .258.756-.259 1.11-.773.187-.27.967-.256 1.768-.182.063.006.648 1.243.14 1.882-.213.269-.948.304-1.408.326-.234.01-.397.019-.382.052.012.025.15.017.352.005.251-.015.6-.036.923-.005.048.005-.141.17-.333.336-.197.171-.397.344-.34.347.063.003.432-.202.768-.388.278-.154.533-.295.571-.295.254 0 .482.031.683.059.336.046.592.08.754-.059.05-.043-.239-.112-.533-.183-.303-.072-.613-.146-.564-.195.279-.276.162-.856.07-1.313-.04-.205-.077-.385-.07-.502.024-.414.463-.197.807-.026.151.075.284.141.357.141.653 0-.158-.826-.603-1.28q-.06-.059-.107-.109c-.227-.234-.068-.202.29-.131.275.054.665.131 1.09.131.98 0 1.697-.319 1.448-1.181-.164-.57-1.063-.763-2.001-.966-.485-.104-.98-.211-1.39-.373-1.01-.398-.958-.978-.914-1.468.008-.096.017-.188.017-.274 0-.532.897-1.183.897-1.183s-.41-.686-1.089-.686c-.68 0-.743.686-.743.686m1.848 6.248v-.502s.42-.014.567.34c.147.352-.567.162-.567.162" clip-rule="evenodd"/><path fill="#D74800" fill-rule="evenodd" d="m13.076 6.713 1.014 1.202.525-.124-.252-1.213z" clip-rule="evenodd"/><path fill="#FFD018" fill-rule="evenodd" d="m14.393 6.422.065 1.807.865-.213.369-1.184z" clip-rule="evenodd"/><path fill="#D74800" fill-rule="evenodd" d="M13.577 9.44a.34.34 0 0 0 .346-.337.34.34 0 0 0-.346-.337.34.34 0 0 0-.347.337c0 .187.155.338.347.338m2.2-2.683L14.77 7.965l.212.495 1.151-.458zm2.341 9.134s1.772-.791 1.772-1.899c0-1.107-2.878-2.313-2.878-2.313s-1.693.387-.93.906c.763.518 1.786.717 1.786 1.407s.28 1.348-.288 1.348.538.551.538.551" clip-rule="evenodd"/><path fill="#FFFDFF" fill-rule="evenodd" d="M15.561 11.477s-.627.11-.597.212c.082.281.94.648 1.313.902.763.518 1.486.46 2.025.122.538-.337-2.741-1.236-2.741-1.236" clip-rule="evenodd"/></g></g></g><defs><clipPath id="a"><path fill="#fff" d="M0 0h32v24H0z"/></clipPath></defs></svg>