<svg xmlns="http://www.w3.org/2000/svg" width="32" height="24" fill="none" viewBox="0 0 32 24"><g clip-path="url(#a)"><mask id="b" width="32" height="24" x="0" y="0" maskUnits="userSpaceOnUse" style="mask-type:luminance"><path fill="#fff" d="M32 0H0v24h32z"/></mask><g mask="url(#b)"><path fill="#fff" d="M32 0H0v24h32z"/><path fill="#F7FCFF" fill-rule="evenodd" d="M0 0h32v24H0z" clip-rule="evenodd"/><path fill="#E31D1C" fill-rule="evenodd" d="M0 14.668v2h32v-2zm0 3.664v2h32v-2zm0-11v2h32v-2zM0 22v2h32v-2zm0-11v2h32v-2zM0 0v2h32V0zm0 3.668v2h32v-2z" clip-rule="evenodd"/><path fill="#2E42A5" d="M20 0H0v13h20z"/><path fill="#F7FCFF" fill-rule="evenodd" d="m1.721 2.94-.726.51.245-.907-.644-.573h.842l.282-.74.331.74h.718l-.564.573.219.906zm4 0-.726.51.245-.907-.644-.573h.842l.282-.74.331.74h.718l-.564.573.219.906zm3.274.51.726-.51.703.51-.219-.907.564-.573h-.718l-.33-.74-.283.74h-.842l.644.573zm4.726-.51-.726.51.245-.907-.644-.573h.842l.282-.74.331.74h.718l-.564.573.219.906zM.995 7.45l.726-.51.703.51-.219-.907.564-.573h-.718l-.33-.74-.283.74H.596l.644.573zm4.726-.51-.726.51.245-.907-.644-.573h.842l.282-.74.331.74h.718l-.564.573.219.906zm3.274.51.726-.51.703.51-.219-.907.564-.573h-.718l-.33-.74-.283.74h-.842l.644.573zm4.726-.51-.726.51.245-.907-.644-.573h.842l.282-.74.331.74h.718l-.564.573.219.906zM.995 11.45l.726-.509.703.509-.219-.906.564-.573h-.718l-.33-.74-.283.74H.596l.644.573zm4.726-.509-.726.509.245-.906-.644-.573h.842l.282-.74.331.74h.718l-.564.573.219.906zm3.274.509.726-.509.703.509-.219-.906.564-.573h-.718l-.33-.74-.283.74h-.842l.644.573zm4.726-.509-.726.509.245-.906-.644-.573h.842l.282-.74.331.74h.718l-.564.573.219.906zm3.274-7.49.726-.51.703.51-.219-.907.564-.573h-.718l-.33-.74-.283.74h-.842l.644.573zm.726 3.49-.726.51.245-.907-.644-.573h.842l.282-.74.331.74h.718l-.564.573.219.906zm-.726 4.509.726-.509.703.509-.219-.906.564-.573h-.718l-.33-.74-.283.74h-.842l.644.573zM3.721 4.94l-.726.51.245-.907-.644-.573h.842l.282-.74.331.74h.718l-.564.573.219.906zm3.274.51.726-.51.703.51-.219-.907.564-.573h-.718l-.33-.74-.283.74h-.842l.644.573zm4.726-.51-.726.51.245-.907-.644-.573h.842l.282-.74.331.74h.718l-.564.573.219.906zM2.995 9.45l.726-.51.703.51-.219-.907.564-.573h-.718l-.33-.74-.283.74h-.842l.644.573zm4.726-.51-.726.51.245-.907-.644-.573h.842l.282-.74.331.74h.718l-.564.573.219.906zm3.274.51.726-.51.703.51-.219-.907.564-.573h-.718l-.33-.74-.283.74h-.842l.644.573zm4.726-4.51-.726.51.245-.907-.644-.573h.842l.282-.74.331.74h.718l-.564.573.219.906zm-.726 4.51.726-.51.703.51-.219-.907.564-.573h-.718l-.33-.74-.283.74h-.842l.644.573z" clip-rule="evenodd"/></g></g><defs><clipPath id="a"><path fill="#fff" d="M0 0h32v24H0z"/></clipPath></defs></svg>