<svg xmlns="http://www.w3.org/2000/svg" width="32" height="24" fill="none" viewBox="0 0 32 24"><g clip-path="url(#a)"><mask id="b" width="32" height="24" x="0" y="0" maskUnits="userSpaceOnUse" style="mask-type:luminance"><path fill="#fff" d="M32 0H0v24h32z"/></mask><g mask="url(#b)"><path fill="#fff" d="M32 0H0v24h32z"/><path fill="#F7FCFF" fill-rule="evenodd" d="M0 0v24h32V0z" clip-rule="evenodd"/><mask id="c" width="32" height="24" x="0" y="0" maskUnits="userSpaceOnUse" style="mask-type:luminance"><path fill="#fff" fill-rule="evenodd" d="M0 0v24h32V0z" clip-rule="evenodd"/></mask><g mask="url(#c)"><path fill="#2E42A5" d="M32 2H0v3h32zm0 6H0v3h32zm0 6H0v3h32zm0 5H0v3h32z"/><path fill="#F7FCFF" d="M14 0H0v14h14z"/><path fill="#FFC125" fill-rule="evenodd" d="M4.783 2.582a.134.134 0 0 0-.143.123c-.027.353.284.674.456.852l.017.017c.027.029.055.056.09.09l.103.101c.15.148.182.287.218.442l.01.038.05.233c.078.388.188.929.428 1.105.059.043.47-.213.514-.272a1 1 0 0 1 .113-.093c.092-.068.2-.148.162-.176-.252-.185-.442-.632-.69-1.277-.133-.303-.48-.496-.768-.656-.245-.136-.448-.249-.437-.386a.13.13 0 0 0-.123-.14m4.047.1a.134.134 0 0 0-.18-.053c-.311.169-.411.605-.467.846l-.005.023-.027.125-.028.142c-.042.206-.14.308-.251.423l-.028.029q-.07.074-.168.168c-.282.277-.676.664-.693.961-.004.073.435.279.509.284.025.002.08.022.138.044.108.04.234.086.237.04.018-.312.289-.716.694-1.275.182-.276.155-.672.133-1-.02-.28-.036-.512.085-.578a.13.13 0 0 0 .051-.18m2.587 2.349c.07.018.113.09.096.162a.13.13 0 0 1-.16.096c-.133-.034-.28.146-.457.364-.207.256-.457.564-.779.641-.677.133-1.151.243-1.377.459-.034.032-.094-.088-.146-.19a1 1 0 0 0-.071-.127c-.05-.054-.231-.504-.179-.554.216-.206.767-.22 1.163-.23q.135-.003.238-.01l.039-.001c.16-.01.301-.017.473-.139l.221-.157.02-.014c.206-.138.576-.389.919-.3m-9.094.443a.134.134 0 0 0-.014.188c.23.269.677.276.925.28h.151l.145-.001c.21-.002.33.073.467.158l.033.02q.087.054.2.13c.33.218.79.523 1.084.478.072-.011.182-.484.172-.556a.7.7 0 0 1 .013-.145c.017-.114.037-.247-.01-.24-.308.047-.76-.134-1.39-.414-.309-.12-.69-.012-1.007.078-.27.078-.493.141-.583.037a.13.13 0 0 0-.186-.013" clip-rule="evenodd"/><path fill="#984111" d="m5.201 3.665-.052.054.105-.107zm.381.814-.074.015.002.004zm0 0 .074-.015-.002-.004zm1.055.74-.041-.062-.003.002zm0 0 .042.063.003-.003zM6.11 3.766l.07-.027-.001-.003zm2.041-.142-.073-.015.147.03zm.41.816.06.044.003-.003zm1.556 1.855.014.074h.003zm-1.523.268-.07.028.003.006zm0 0 .07-.028-.003-.006zm-5.209-.62v.075-.15zm.713-.57.03-.069-.002-.001zm.617-2.661a.06.06 0 0 1 .063-.054l.01-.15a.21.21 0 0 0-.223.192zm.434.794a2.4 2.4 0 0 1-.293-.35c-.092-.14-.153-.292-.141-.444l-.15-.012c-.015.2.065.386.165.539s.226.282.312.37zm.017.017-.017-.017-.107.104.017.017zm.09.089-.09-.089-.107.104c.027.03.056.057.091.092zm.103.1-.06-.058-.031-.03-.01-.01-.003-.002s-.106.001-.105.107l.105-.107c.001.106-.105.107-.105.107h.001l.003.003.01.01.03.03.06.058zm.238.479c-.036-.157-.072-.314-.238-.478l-.106.107c.134.131.162.251.198.405zm.01.038-.01-.038-.146.034.01.038zm.05.235-.05-.235-.147.034q.024.098.05.231zm.399 1.06c-.1-.074-.18-.232-.248-.437a6 6 0 0 1-.151-.623l-.148.03c.04.193.088.43.157.64.067.206.16.407.301.51zm.41-.257-.02.017-.053.04c-.044.03-.1.065-.156.097s-.111.06-.154.077a.3.3 0 0 1-.047.015H6.03q.005-.001.024.01l-.089.121q.031.019.054.02.023 0 .04-.003a.4.4 0 0 0 .077-.024c.053-.02.114-.052.174-.086a2 2 0 0 0 .229-.15.3.3 0 0 0 .045-.044zm.128-.108-.072.054a.3.3 0 0 0-.056.054l.12.09.008-.008.022-.019.067-.05zm.162-.056a.06.06 0 0 1-.022-.04c-.002-.015.003-.024.003-.024s-.004.007-.02.022a2 2 0 0 1-.123.098l.09.12c.044-.033.098-.073.136-.11a.3.3 0 0 0 .052-.064.1.1 0 0 0 .01-.058.1.1 0 0 0-.037-.065zm-.716-1.31c.124.322.235.598.347.818.112.218.229.389.37.492l.088-.121c-.111-.082-.215-.227-.324-.44a9 9 0 0 1-.34-.803zm-.733-.617c.145.08.298.166.433.268a.9.9 0 0 1 .302.352l.137-.06a1.1 1.1 0 0 0-.348-.411c-.145-.11-.308-.2-.451-.28zm-.476-.458c-.009.11.069.194.151.258.086.067.204.132.325.2l.073-.131a3 3 0 0 1-.306-.187c-.078-.061-.096-.101-.094-.129zm-.053-.06c.032.002.055.03.053.06l.15.011a.206.206 0 0 0-.193-.22zm3.907.037a.06.06 0 0 1 .08.024l.13-.073a.21.21 0 0 0-.281-.082zm-.429.797c.028-.12.066-.283.133-.436.068-.153.162-.287.296-.36l-.071-.132c-.177.096-.288.264-.362.431-.074.168-.114.344-.142.464zm-.005.024.005-.024-.146-.033-.005.023zm-.026.123.026-.123-.146-.034-.027.127zm-.029.142.017-.083.008-.042.004-.017s-.06-.089-.147-.03l.147.03c-.089.058-.147-.03-.147-.03v.001l-.001.004-.003.013-.008.042-.017.081zm-.27.46c.111-.116.223-.232.27-.46l-.147-.03c-.037.183-.122.272-.232.386zm-.028.028.027-.028-.108-.104-.027.029zm-.17.17q.098-.094.17-.17l-.108-.103q-.07.072-.167.167zm-.67.912c.007-.122.095-.277.23-.445a6 6 0 0 1 .44-.466l-.105-.107c-.14.138-.312.307-.451.479-.137.169-.254.356-.264.53zm.439.205-.025-.007-.063-.024a2 2 0 0 1-.166-.077 1 1 0 0 1-.15-.088.3.3 0 0 1-.038-.031l-.002-.003c0 .002.006.011.005.025l-.15-.008a.1.1 0 0 0 .013.055.2.2 0 0 0 .025.033.4.4 0 0 0 .061.052 2.4 2.4 0 0 0 .418.209q.03.01.061.014zm.16.048-.085-.03a.3.3 0 0 0-.075-.018l-.01.15.01.002.028.008.079.029zm.135.106c0-.013.007-.03.021-.04l.022-.011-.03-.005a2 2 0 0 1-.149-.05l-.052.14c.052.02.116.044.166.056a.3.3 0 0 0 .082.008.1.1 0 0 0 .055-.022.1.1 0 0 0 .034-.068zM8.5 4.396c-.202.28-.374.523-.496.737-.123.212-.202.403-.212.577l.15.008c.007-.137.072-.304.192-.51.118-.207.285-.444.488-.724zm.119-.951c.011.165.023.34.01.509a.9.9 0 0 1-.13.445l.125.082c.1-.153.141-.335.155-.516.013-.18 0-.367-.01-.53zm.124-.65c-.097.054-.125.165-.134.269-.01.108 0 .243.01.38l.15-.01a3 3 0 0 1-.01-.357c.008-.1.032-.136.056-.15zm.022-.076a.056.056 0 0 1-.022.077l.072.132a.206.206 0 0 0 .08-.282zm2.82 2.492a.21.21 0 0 0-.15-.252l-.037.145c.03.008.05.04.042.072zm-.25.151a.206.206 0 0 0 .25-.15l-.145-.036a.056.056 0 0 1-.068.041zm-.38.34c.09-.112.166-.206.236-.27.074-.066.117-.076.143-.07l.038-.145c-.107-.027-.204.035-.281.104-.08.073-.166.178-.253.286zm-.82.666c.178-.043.332-.149.465-.272s.251-.268.354-.395l-.116-.094a4 4 0 0 1-.34.38.9.9 0 0 1-.399.235zm-1.343.44c.1-.096.26-.173.489-.243.227-.07.511-.13.85-.196l-.029-.147c-.338.066-.63.127-.865.2-.234.071-.423.157-.549.277zm-.265-.211c.025.05.055.11.084.154.014.02.032.045.055.061a.1.1 0 0 0 .055.022.1.1 0 0 0 .071-.026l-.104-.109a.06.06 0 0 1 .044-.015c.014.001.022.007.023.007q0 .002-.019-.023a2 2 0 0 1-.075-.139zm-.06-.11.007.01.015.025.038.075.134-.068-.04-.08a.3.3 0 0 0-.044-.064zm-.175-.659a.1.1 0 0 0-.028.05.2.2 0 0 0-.004.04q0 .039.01.08c.01.055.031.121.054.186a2 2 0 0 0 .109.252q.015.027.035.052l.11-.103q0 .003-.014-.022l-.03-.06a2 2 0 0 1-.069-.17 1 1 0 0 1-.049-.165.3.3 0 0 1-.006-.05v-.003l-.014.022zm1.213-.25c-.197.004-.438.01-.658.042-.215.03-.428.087-.555.208l.104.109c.089-.085.259-.138.472-.169.21-.03.442-.036.64-.04zm.235-.01-.235.01.003.15q.136-.003.24-.01zm.04-.001-.04.002.009.15.039-.003zm.433-.125c-.153.108-.276.116-.434.125l.009.15c.16-.01.322-.018.512-.153zm.117-.084-.117.084.087.122.118-.084zm.106-.074-.106.074.088.122c.039-.029.07-.05.102-.072zm.02-.014-.02.014.084.124.02-.014zm.98-.311c-.195-.05-.392-.003-.56.069s-.318.173-.42.242l.084.124a2.4 2.4 0 0 1 .395-.228c.154-.066.314-.1.463-.062zm-9.07.655a.06.06 0 0 1 .007-.083l-.1-.113a.21.21 0 0 0-.021.293zm.869.254a2.4 2.4 0 0 1-.455-.04c-.164-.034-.314-.098-.414-.214l-.114.097c.13.153.319.227.497.264.18.038.36.04.483.043zm.024 0h-.024l-.003.15h.025zm.125 0h-.125l-.002.15h.129zm.145-.002-.084.001-.043.001h-.018s-.074.076.002.15l-.002-.15c.076.074.002.15.002.15h.061l.083-.002zm.507.17c-.137-.085-.274-.17-.507-.17l.001.15c.187 0 .293.064.427.147zm.033.02-.033-.02-.08.127.034.021zm.202.131q-.112-.076-.202-.13l-.079.127.198.128zm1.031.466c-.121.02-.29-.035-.483-.133a6 6 0 0 1-.548-.333l-.083.125c.164.109.365.242.563.342.194.098.401.174.574.148zm.11-.471-.003.026-.01.066a2 2 0 0 1-.04.179 1 1 0 0 1-.055.164.3.3 0 0 1-.023.044l-.002.002.023-.01.023.149a.1.1 0 0 0 .051-.025q.017-.015.028-.03a.4.4 0 0 0 .037-.071 2 2 0 0 0 .062-.184 2 2 0 0 0 .055-.268.3.3 0 0 0 .002-.063zm.013-.166q-.008.047-.012.089a.3.3 0 0 0-.002.077l.149-.021V6.15l.002-.029.011-.083zm.075-.155a.06.06 0 0 1-.044-.012l-.014-.02v.03c0 .042-.008.098-.017.157l.148.022a1.4 1.4 0 0 0 .02-.175c0-.024 0-.055-.01-.082a.1.1 0 0 0-.032-.049.1.1 0 0 0-.073-.02zm-1.432-.42c.315.14.59.257.824.333.233.075.436.113.608.087l-.022-.148c-.137.02-.313-.008-.54-.082a9 9 0 0 1-.81-.327zm-.955.082c.159-.045.328-.093.495-.116a.9.9 0 0 1 .463.036l.055-.14a1.1 1.1 0 0 0-.538-.045 4 4 0 0 0-.516.121zm-.66.013c.07.084.186.089.289.076.108-.014.238-.05.37-.089l-.04-.144c-.138.04-.255.072-.348.084-.099.012-.14-.004-.158-.024zm-.08-.005a.056.056 0 0 1 .08.005l.113-.097a.206.206 0 0 0-.292-.02z"/><path fill="#FFC125" fill-rule="evenodd" d="M4.756 11.246a.134.134 0 0 1-.143-.123c-.028-.353.283-.674.455-.851l.017-.018a4 4 0 0 1 .194-.191c.15-.148.182-.286.218-.442l.01-.038.049-.233c.079-.387.188-.928.428-1.104.06-.044.471.213.515.271.016.021.062.055.112.093.093.069.2.149.162.177-.25.184-.442.632-.69 1.276-.132.303-.48.496-.767.656-.246.137-.448.25-.438.387a.13.13 0 0 1-.122.14m4.047-.1a.134.134 0 0 1-.18.054c-.312-.17-.412-.605-.467-.846l-.005-.024-.027-.125-.028-.142c-.043-.205-.141-.308-.252-.423l-.027-.028q-.072-.075-.17-.171c-.287-.281-.691-.678-.691-.959 0-.128.435-.278.508-.284a1 1 0 0 0 .139-.043c.108-.04.234-.087.236-.04.018.311.29.715.695 1.274.182.276.155.672.132 1-.019.281-.035.513.086.578a.13.13 0 0 1 .051.18m2.586-2.348a.134.134 0 0 0 .096-.162.13.13 0 0 0-.16-.097c-.132.035-.279-.145-.456-.364-.207-.255-.458-.563-.78-.641-.677-.132-1.15-.243-1.376-.458-.034-.033-.094.087-.146.19a.7.7 0 0 1-.072.127c-.05.053-.23.503-.178.554.215.205.767.22 1.162.23q.136.003.238.008l.04.003c.159.009.3.016.472.138l.222.157.02.014c.205.139.575.389.918.3m-9.093-.444a.134.134 0 0 1-.014-.187c.23-.27.677-.277.924-.28l.025-.001h.127l.145.002c.21.001.33-.074.466-.158l.034-.02.2-.13c.329-.219.79-.524 1.084-.478.072.01.181.483.171.556a1 1 0 0 0 .014.144c.017.115.036.247-.01.24-.309-.047-.76.134-1.39.414-.309.121-.69.012-1.007-.078-.27-.077-.494-.14-.583-.036a.13.13 0 0 1-.186.012" clip-rule="evenodd"/><path fill="#984111" d="m5.176 10.165-.052-.054.105.107zm.38-.814-.073-.015.001-.004zm0 0 .074.015v.004zm1.056-.74-.042.062-.003-.002zm0 0 .042-.063.003.003zm-.528 1.453.07.027-.001.003zm2.04.142-.073.015.147-.03zm.41-.816.061-.044.002.003zm1.556-1.855.015-.074h.003zm-1.522-.268-.07-.028.003-.006zm0 0 .07.028-.003.006zm-5.21.62.002-.075-.002.15zm.714.57.03.069-.003.001zm.616 2.661a.06.06 0 0 0 .064.054l.01.15a.21.21 0 0 1-.223-.192zm.435-.794c-.086.09-.202.21-.294.35s-.152.291-.14.444l-.15.012c-.016-.2.065-.386.165-.539s.226-.282.311-.37zm.017-.017-.017.017-.108-.104.017-.017zm.089-.089-.089.089-.108-.104c.028-.03.056-.057.092-.092zm.103-.101-.06.06q-.019.016-.03.029l-.01.01-.003.002s-.106-.001-.105-.107l.105.107c0-.106-.105-.107-.105-.107v-.001l.003-.002.01-.01.03-.03.06-.058zm.239-.478c-.037.157-.073.314-.239.478l-.105-.107c.133-.131.162-.251.198-.405zm.009-.038-.01.038-.145-.034.009-.038zm.05-.235-.05.235-.146-.034q.022-.098.049-.231zm.4-1.06c-.1.074-.181.232-.248.437-.066.2-.112.428-.152.623l-.147-.03c.04-.193.087-.43.156-.64.068-.206.16-.407.302-.51zm.41.257-.02-.017-.054-.04a2 2 0 0 0-.155-.097 1 1 0 0 0-.155-.077.3.3 0 0 0-.047-.015h-.003l.024-.01-.09-.121a.1.1 0 0 1 .054-.02.2.2 0 0 1 .041.003q.038.008.077.024c.052.02.114.052.173.086a2 2 0 0 1 .23.15.3.3 0 0 1 .045.044zm.127.108-.071-.054a.3.3 0 0 1-.056-.054l.12-.09.008.008.022.019.067.05zm.163.056a.06.06 0 0 0-.023.04q0 .023.004.024l-.02-.022a2 2 0 0 0-.124-.098l.09-.12c.045.033.099.073.137.11a.2.2 0 0 1 .051.064.1.1 0 0 1 .012.057.1.1 0 0 1-.038.066zm-.716 1.31a9 9 0 0 1 .347-.818c.112-.218.229-.389.369-.492l.089.121c-.112.082-.216.227-.324.44-.109.21-.217.48-.341.803zm-.734.617a4 4 0 0 0 .433-.268.9.9 0 0 0 .302-.352l.138.06a1.1 1.1 0 0 1-.349.411c-.144.11-.308.2-.45.28zm-.476.458c-.008-.11.07-.194.152-.258.085-.067.203-.132.324-.2l.073.131c-.124.07-.23.129-.305.187-.078.06-.096.101-.094.129zm-.052.06a.056.056 0 0 0 .052-.06l.15-.011a.206.206 0 0 1-.192.22zm3.907-.037a.06.06 0 0 0 .08-.024l.13.073a.21.21 0 0 1-.282.082zm-.43-.797c.029.12.066.283.134.436.067.153.161.287.296.36l-.072.132c-.176-.096-.288-.264-.362-.431a2.5 2.5 0 0 1-.141-.464zm-.005-.024.006.024-.146.033-.006-.024zm-.026-.123.026.123-.146.034-.027-.127zm-.028-.142.025.125.002.013.001.004s-.059.088-.147.03l.147-.03c-.088-.058-.147.03-.147.03v-.005l-.003-.013-.025-.123zm-.27-.46c.11.116.223.232.27.46l-.147.03c-.038-.183-.123-.272-.232-.386zm-.028-.029.027.029-.108.104-.027-.029zm-.173-.172q.1.096.173.172l-.108.104-.17-.169zm-.667-.905q0 .08.059.194.06.113.162.238c.133.165.303.331.446.473l-.104.107c-.143-.14-.319-.312-.459-.486a1.6 1.6 0 0 1-.178-.263.6.6 0 0 1-.076-.263zm.438-.209h-.002l-.006.001-.021.005-.063.019a2 2 0 0 0-.163.064 1 1 0 0 0-.144.082.2.2 0 0 0-.035.034c-.007.009-.004.01-.004.004h-.15c0-.038.016-.07.033-.093a.3.3 0 0 1 .065-.064 1 1 0 0 1 .172-.099 1.5 1.5 0 0 1 .308-.103zm.16-.048-.085.03a.3.3 0 0 1-.075.018l-.01-.15.01-.002.028-.008.08-.029zm.135-.106c.001.013.007.03.022.04.011.01.021.011.022.011l-.03.005c-.04.01-.094.03-.15.05l-.052-.14c.053-.02.116-.044.167-.056a.3.3 0 0 1 .082-.008.1.1 0 0 1 .055.022.1.1 0 0 1 .034.068zm.709 1.314a9 9 0 0 1-.497-.737c-.122-.212-.202-.403-.212-.577l.15-.008c.008.137.073.304.192.51s.286.444.488.724zm.118.951c.012-.165.024-.34.01-.509a.9.9 0 0 0-.13-.445l.125-.082c.101.153.142.335.155.516.014.18.001.367-.01.53zm.125.65c-.097-.054-.125-.165-.134-.269-.01-.108 0-.243.01-.38l.149.01a3 3 0 0 0-.01.357c.009.099.033.136.057.15zm.021.076a.056.056 0 0 0-.021-.077l.072-.132a.206.206 0 0 1 .08.282zm2.82-2.492a.21.21 0 0 1-.15.252l-.037-.145a.06.06 0 0 0 .042-.072zm-.25-.151a.206.206 0 0 1 .25.15l-.145.036a.056.056 0 0 0-.068-.041zm-.38-.34c.09.112.167.206.237.27.073.066.116.076.143.07l.037.145c-.107.027-.203-.035-.28-.104a3 3 0 0 1-.253-.286zm-.82-.666c.178.043.332.149.466.272.133.123.25.268.354.395l-.116.094a4 4 0 0 0-.34-.38.9.9 0 0 0-.4-.235zm-1.342-.44c.1.096.26.173.489.243.227.07.51.13.85.196l-.029.147a9 9 0 0 1-.865-.2c-.235-.071-.423-.157-.549-.277zm-.265.211c.025-.05.055-.11.084-.154a.3.3 0 0 1 .054-.061.1.1 0 0 1 .056-.022.1.1 0 0 1 .07.026l-.103.109q.016.015.043.015c.015-.001.023-.007.023-.008l-.018.024a2 2 0 0 0-.075.139zm-.06.11.007-.01.014-.025q.017-.03.039-.075l.134.068-.041.08a.3.3 0 0 1-.043.064zm-.175.659a.1.1 0 0 1-.028-.05.2.2 0 0 1-.005-.04q0-.039.01-.08a2 2 0 0 1 .055-.186 2 2 0 0 1 .108-.252.3.3 0 0 1 .035-.052l.11.103q0-.003-.013.022l-.03.06c-.022.048-.047.11-.069.17s-.04.12-.05.165a.3.3 0 0 0-.006.05v.003l-.013-.022zm1.212.25a6 6 0 0 1-.657-.042c-.215-.03-.429-.088-.555-.208l.104-.109c.089.085.259.138.472.169.21.03.442.036.64.04zm.236.01-.236-.01.004-.15q.135.004.24.01zm.04.001-.04-.002.009-.15.039.003zm.433.125c-.153-.108-.276-.116-.434-.125l.009-.15c.16.01.321.018.511.153zm.117.084-.117-.084.087-.122.118.084zm.106.074-.106-.074.088-.122c.039.029.07.05.102.072zm.02.014-.02-.014.084-.124.02.014zm.979.311c-.195.05-.391.003-.56-.069-.168-.072-.317-.173-.419-.242l.084-.124c.103.07.241.163.395.228.154.066.314.1.462.062zm-9.07-.655a.06.06 0 0 0 .007.083l-.099.113a.21.21 0 0 1-.021-.293zm.87-.254a2.4 2.4 0 0 0-.455.04c-.164.034-.315.098-.415.214l-.113-.097c.13-.153.318-.227.497-.264.18-.038.36-.04.483-.043zm.024 0h-.025l-.002-.15h.024zm.125 0h-.125l-.003-.15h.13zm.145.002-.085-.001-.042-.001h-.018s-.074-.076.002-.15l-.002.15c.076-.074.002-.15.002-.15h.005l.139.002zm.507-.17c-.137.085-.274.17-.507.17v-.15c.188 0 .293-.064.427-.147zm.033-.02-.033.02-.08-.127.034-.021zm.202-.131q-.112.075-.202.13l-.079-.127.198-.128zm1.03-.467c-.12-.018-.29.036-.483.133a6 6 0 0 0-.547.334l-.083-.125c.164-.109.365-.242.563-.342.193-.099.4-.174.574-.148zm.11.472-.002-.026-.01-.066a2 2 0 0 0-.041-.179 1 1 0 0 0-.055-.164.3.3 0 0 0-.023-.044q-.003-.005-.002-.002c.002 0 .01.007.024.01l.023-.149q.034.008.051.025.016.015.027.03.021.031.038.071a2.4 2.4 0 0 1 .117.452c.002.02.004.044.001.063zm.014.166q-.008-.047-.012-.089a.3.3 0 0 1-.002-.077l.148.021v.011l.003.029q.003.035.011.083zm.075.155a.06.06 0 0 0-.044.012c-.012.01-.015.02-.015.02l.002-.03a2 2 0 0 0-.018-.157l.148-.022c.008.056.018.123.02.175 0 .024 0 .055-.01.082a.1.1 0 0 1-.033.049.1.1 0 0 1-.073.02zm-1.432.42c.315-.14.589-.257.823-.333.233-.075.437-.114.609-.087l-.023.148c-.136-.02-.312.008-.54.082a9 9 0 0 0-.809.327zm-.956-.082c.16.045.329.093.496.116a.9.9 0 0 0 .463-.036l.054.14c-.17.067-.357.069-.537.045s-.36-.076-.517-.121zm-.66-.013c.072-.084.186-.089.29-.076.107.013.237.05.37.089l-.04.144a3 3 0 0 0-.349-.084c-.098-.012-.14.004-.157.024zm-.08.005c.025.021.06.018.08-.005l.114.097a.206.206 0 0 1-.293.02z"/><path fill="#FFC125" fill-rule="evenodd" d="M7 2.059a.256.256 0 0 0-.254.22l-.413 2.937h1.333L7.253 2.28a.256.256 0 0 0-.254-.22m3.493 1.447a.256.256 0 0 0-.335-.024l-2.37 1.785.944.943 1.785-2.37a.256.256 0 0 0-.024-.334m1.227 3.24a.256.256 0 0 1 0 .507l-2.938.413V6.333zm-1.227 3.747c.09-.09.1-.233.024-.335l-1.785-2.37-.943.944 2.37 1.785a.256.256 0 0 0 .334-.024m-3.24 1.227a.256.256 0 0 1-.507 0l-.413-2.938h1.333zm-3.747-1.227c.09.09.233.1.334.024l2.37-1.785-.943-.943-1.785 2.37a.256.256 0 0 0 .024.334m-1.227-3.24a.256.256 0 0 1 0-.507l2.937-.413v1.333zm1.227-3.747c-.09.09-.1.233-.024.334l1.785 2.37.943-.943-2.37-1.785a.256.256 0 0 0-.334.024" clip-rule="evenodd"/><path fill="#984111" d="m6.334 5.217-.075-.01-.012.085h.087zm1.333 0v.075h.086l-.012-.085zm.123.051-.046-.06-.069.052.061.061zm.942.943-.053.053.061.06.052-.068zm.051 1.456h-.075v.086l.086-.012zm0-1.333.01-.075-.085-.012v.087zm-.05 1.456.06-.046-.053-.069-.06.061zm-.943.942-.054-.053-.06.061.068.052zm-1.456.051v-.075h-.087l.012.086zm1.333 0 .074.01.012-.085h-.086zm-1.456-.05.045.06.069-.053-.061-.06zm-.943-.943.053-.054-.06-.06-.053.068zm-.05-1.456h.074v-.087l-.085.012zm0 1.333-.011.074.085.012v-.086zm.05-1.456-.06.045.052.069.061-.061zm.943-.943.053.053.06-.06-.068-.053zm.61-2.978a.18.18 0 0 1 .18-.156v-.15a.33.33 0 0 0-.328.285zm-.413 2.938L6.82 2.29l-.148-.021-.414 2.938zm1.259-.086H6.334v.15h1.333zM7.179 2.29l.414 2.938.148-.021-.413-2.938zM7 2.134a.18.18 0 0 1 .18.156l.148-.021A.33.33 0 0 0 7 1.984zm3.204 1.409a.18.18 0 0 1 .237.017l.106-.107a.33.33 0 0 0-.433-.03zm-2.37 1.785 2.37-1.785-.09-.12-2.37 1.785zm.951.83-.942-.943-.107.106.943.943zm1.672-2.362-1.785 2.37.12.09 1.785-2.37zm-.016-.236a.18.18 0 0 1 .016.236l.12.09a.33.33 0 0 0-.03-.433zM12.016 7a.33.33 0 0 0-.285-.327l-.02.148a.18.18 0 0 1 .155.18zm-.285.328A.33.33 0 0 0 12.016 7h-.15a.18.18 0 0 1-.155.18zm-2.937.413 2.937-.413-.02-.149-2.938.414zm-.086-1.407v1.333h.15V6.334zm3.023.339-2.937-.414-.021.149 2.938.413zm-1.274 3.531a.18.18 0 0 1-.016.237l.106.106a.33.33 0 0 0 .03-.433zm-1.785-2.37 1.785 2.37.12-.09-1.785-2.37zm-.83.951.943-.942-.106-.107-.943.943zm2.362 1.672-2.37-1.785-.09.12 2.37 1.785zm.237-.016a.18.18 0 0 1-.237.016l-.09.12a.33.33 0 0 0 .433-.03zM7 12.016a.33.33 0 0 0 .327-.285l-.149-.02a.18.18 0 0 1-.179.155zm-.328-.285a.33.33 0 0 0 .327.285v-.15a.18.18 0 0 1-.179-.155zm-.414-2.937.414 2.937.148-.02-.413-2.938zm1.408-.086H6.334v.15h1.333zm-.34 3.023.414-2.937-.148-.021-.414 2.938zm-3.531-1.274a.18.18 0 0 1-.236-.016l-.107.106a.33.33 0 0 0 .433.03zm2.37-1.785-2.37 1.785.09.12 2.37-1.785zm-.951-.83.943.943.106-.106-.943-.943zm-1.672 2.362 1.785-2.37-.12-.09-1.785 2.37zm.017.237a.18.18 0 0 1-.017-.237l-.12-.09a.33.33 0 0 0 .03.433zM1.984 7a.33.33 0 0 0 .285.327l.02-.149A.18.18 0 0 1 2.135 7zm.285-.328A.33.33 0 0 0 1.984 7h.15a.18.18 0 0 1 .156-.179zm2.938-.414-2.938.414.02.148 2.939-.413zm.085 1.408V6.334h-.15v1.333zm-3.023-.34 2.938.414.02-.148-2.937-.414zm1.274-3.531a.18.18 0 0 1 .017-.236l-.107-.107a.33.33 0 0 0-.03.433zm1.785 2.37-1.785-2.37-.12.09 1.785 2.37zm.83-.951-.943.943.106.106.943-.943zM3.796 3.543l2.37 1.785.09-.12-2.37-1.785zm-.236.017a.18.18 0 0 1 .236-.017l.09-.12a.33.33 0 0 0-.433.03z"/><path fill="#FFC125" fill-rule="evenodd" stroke="#984111" stroke-width="0.15" d="M7 8.843c1.067 0 1.933-.854 1.933-1.908S8.067 5.027 7 5.027s-1.934.855-1.934 1.908c0 1.054.866 1.908 1.934 1.908Z" clip-rule="evenodd"/><path fill="#984111" d="M6.814 6.437c-.02-.012-.104-.068-.125-.08a.8.8 0 0 0-.186-.094.3.3 0 0 0-.081-.014q-.178-.001-.494.223l-.078-.107q.345-.247.572-.248.059 0 .121.02a1 1 0 0 1 .218.108l.124.081.048.027c.159 0 .169.57.056.744a.5.5 0 0 1-.117.124l-.086.064c-.04.03-.052.048-.052.07 0 .003.048.015.155.01l.073-.005a1 1 0 0 1 .11-.006v.131c-.02 0-.03 0-.1.006l-.077.005c-.188.009-.294-.017-.294-.142 0-.071.034-.12.103-.173.01-.009.07-.05.085-.063a.4.4 0 0 0 .087-.092c.035-.053.056-.192.054-.34a1 1 0 0 0-.026-.205.3.3 0 0 1-.09-.044"/><path fill="#984111" fill-rule="evenodd" d="M7.35 6.391c-.028.02-.06.04-.07.046a.3.3 0 0 1-.09.044l-.01.032a1 1 0 0 0-.016.173c-.003.148.019.287.053.34a.4.4 0 0 0 .087.092l.086.063c.068.053.103.102.103.173 0 .125-.107.151-.294.142l-.078-.005-.1-.006v-.131c.025 0 .035 0 .11.006l.074.005c.107.005.155-.007.155-.01 0-.022-.013-.04-.052-.07l-.026-.02-.06-.044a.5.5 0 0 1-.117-.124c-.113-.175-.103-.744.056-.744h.001l.047-.027.065-.043.059-.038a1 1 0 0 1 .217-.108.4.4 0 0 1 .122-.02q.227.001.572.248l-.078.107q-.317-.224-.494-.223a.3.3 0 0 0-.082.014.8.8 0 0 0-.185.093zm-.156.08-.002.003.001-.002z" clip-rule="evenodd"/><path fill="#984111" d="m7.412 7.766.061.043.046-.066-.069-.041zm-.832 0L6.547 7.7l-.086.043.062.072zm.252.052-.023-.071-.13.04.104.088zm.354-.001.054.052.082-.085-.111-.038zm-.574-.043-.039-.064-.071.043.05.066zm.771 0 .064.039.036-.058-.055-.041zm.197-.037.065.038.034-.057-.053-.04zm-1.186-.004-.04-.064-.069.043.049.065zm.623-.168a.85.85 0 0 0-.384.092l.067.134a.7.7 0 0 1 .317-.076zm.365.096a.7.7 0 0 0-.365-.096v.15q.165 0 .287.074zm.068.041-.068-.041-.078.128.069.042zm-.022.173.045-.066-.123-.085-.046.065zm-.411.25c.172 0 .307-.101.41-.25l-.123-.086q-.13.188-.287.186zm-.431-.237c.12.141.264.237.43.237v-.15q-.157.001-.316-.184zm-.063-.072.063.072.114-.097-.063-.073zm.11-.16-.086.044.067.134.086-.043zm.384.169c-.032 0-.078-.013-.137-.064l-.097.114q.118.1.234.1zm.115-.06c-.047.049-.085.06-.115.06v.15a.3.3 0 0 0 .223-.106zm-.115.1a.4.4 0 0 1 .145.022l.049-.141a.6.6 0 0 0-.194-.03zm-.163.025a.5.5 0 0 1 .163-.025v-.15q-.106 0-.208.032zm.163.066c-.1 0-.216-.057-.345-.227l-.12.09q.215.286.465.287zm.302-.221c-.101.166-.204.221-.302.221v.15q.254-.002.43-.293zm-.302-.001q.192 0 .321.1l.09-.12a.67.67 0 0 0-.411-.13zm-.366.104a.7.7 0 0 1 .366-.104v-.15a.85.85 0 0 0-.444.126zm.366-.404a1 1 0 0 0-.532.154l.079.128a.85.85 0 0 1 .453-.132zm.51.167a.8.8 0 0 0-.51-.167v.15q.242 0 .419.136zm.047.036L7.528 7.6l-.092.119.046.035zm.052.04-.052-.04-.092.118.052.04zm-.015.155.034-.057-.129-.077-.034.057zm-.03.05.03-.05-.13-.077-.029.05zm-.564.374c.244 0 .43-.151.564-.374l-.129-.077q-.178.299-.435.301zM6.425 7.9c.16.213.355.356.592.356v-.15q-.254-.001-.471-.296zm-.042-.057.042.057.12-.09-.042-.057zm-.049-.066.049.066.12-.09-.049-.065zm.09-.151-.07.043.08.127.07-.043zm.061-.038-.06.038.078.127.06-.037zm-.388-1.067a.6.6 0 0 1 .236-.047v-.15a.7.7 0 0 0-.3.062zM6 6.634c0-.044.036-.084.097-.113l-.065-.135c-.073.035-.182.113-.182.248zm.097.113C6.037 6.718 6 6.678 6 6.634h-.15c0 .135.11.213.182.249zm.236.047a.6.6 0 0 1-.236-.047l-.065.136c.085.04.191.061.3.061zm.236-.047a.6.6 0 0 1-.236.047v.15c.11 0 .216-.02.3-.061zm.097-.113c0 .044-.036.084-.097.113l.065.136c.073-.036.182-.114.182-.249zm-.097-.113c.06.03.097.07.097.113h.15c0-.135-.11-.213-.182-.248zm-.236-.047a.6.6 0 0 1 .236.047l.065-.135a.7.7 0 0 0-.301-.062zm-.327.128A.1.1 0 0 0 6 6.634h.15l-.006.027zm.02-.03a.1.1 0 0 0-.02.03l.138.059-.006.01zm.071-.05a.2.2 0 0 0-.071.05l.112.1q-.001-.001.024-.016zm.236-.048a.6.6 0 0 0-.236.047l.065.135a.4.4 0 0 1 .17-.032zm.236.047a.6.6 0 0 0-.236-.047v.15c.075 0 .135.015.17.032zm.071.05a.2.2 0 0 0-.071-.05l-.065.135q.026.014.024.015zm.02.031a.1.1 0 0 0-.02-.03l-.112.1-.006-.011zm.006.032a.1.1 0 0 0-.006-.032l-.138.059-.006-.027zm-.006.032a.1.1 0 0 0 .006-.032h-.15l.006-.026zm-.02.03a.1.1 0 0 0 .02-.03l-.138-.058.006-.01zm-.071.051a.2.2 0 0 0 .071-.05l-.112-.1-.024.015zm-.236.047a.6.6 0 0 0 .236-.047l-.065-.135a.4.4 0 0 1-.171.032zm-.236-.047a.6.6 0 0 0 .236.047v-.15a.4.4 0 0 1-.17-.032zm-.071-.05q.026.029.071.05l.065-.135q-.026-.014-.024-.015zm-.02-.03q.007.015.02.03l.112-.1q.002 0 .006.01zM6 6.633q0 .017.006.032l.138-.058.006.026zm1.43-.113a.6.6 0 0 1 .236-.047v-.15a.7.7 0 0 0-.3.062zm-.097.113c0-.044.037-.084.098-.113l-.065-.135c-.074.035-.183.113-.183.248zm.098.113c-.061-.029-.098-.069-.098-.113h-.15c0 .135.11.213.183.249zm.235.047a.6.6 0 0 1-.235-.047l-.065.136c.084.04.19.061.3.061zm.236-.047a.6.6 0 0 1-.236.047v.15c.11 0 .216-.02.3-.061zM8 6.634c0 .044-.037.084-.098.113l.065.136c.073-.036.183-.114.183-.249zm-.098-.113c.06.03.098.07.098.113h.15c0-.135-.11-.213-.183-.248zm-.236-.047a.6.6 0 0 1 .236.047l.065-.135a.7.7 0 0 0-.3-.062zm-.326.128a.1.1 0 0 0-.007.032h.15l-.005.027zm.02-.03a.1.1 0 0 0-.02.03l.138.059-.006.01zm.07-.05a.2.2 0 0 0-.07.05l.112.1s.005-.007.023-.016zm.236-.048a.6.6 0 0 0-.235.047l.064.135a.4.4 0 0 1 .171-.032zm.236.047a.6.6 0 0 0-.236-.047v.15c.075 0 .135.015.171.032zm.071.05a.2.2 0 0 0-.071-.05l-.065.135q.026.014.024.015zm.02.031a.1.1 0 0 0-.02-.03l-.112.1-.006-.011zM8 6.634a.1.1 0 0 0-.007-.032l-.138.059-.005-.027zm-.007.032A.1.1 0 0 0 8 6.634h-.15l.005-.026zm-.02.03a.1.1 0 0 0 .02-.03l-.138-.058.006-.01zm-.071.051a.2.2 0 0 0 .071-.05l-.112-.1q.002 0-.024.015zm-.236.047a.6.6 0 0 0 .236-.047l-.065-.135a.4.4 0 0 1-.17.032zm-.235-.047a.6.6 0 0 0 .235.047v-.15a.4.4 0 0 1-.17-.032zm-.072-.05q.026.029.072.05l.064-.135q-.026-.014-.023-.015zm-.02-.03q.008.015.02.03l.113-.1.006.01zm-.006-.033q0 .017.007.032l.138-.058.005.026z"/></g></g></g><defs><clipPath id="a"><path fill="#fff" d="M0 0h32v24H0z"/></clipPath></defs></svg>