<svg xmlns="http://www.w3.org/2000/svg" width="32" height="24" fill="none" viewBox="0 0 32 24"><g clip-path="url(#a)"><mask id="b" width="32" height="24" x="0" y="0" maskUnits="userSpaceOnUse" style="mask-type:luminance"><path fill="#fff" d="M32 0H0v24h32z"/></mask><g mask="url(#b)"><path fill="#fff" d="M32 0H0v24h32z"/><path fill="#14DC5A" fill-rule="evenodd" d="M0 16h32v8H0z" clip-rule="evenodd"/><path fill="#0099B5" fill-rule="evenodd" d="M0 0h32v10H0z" clip-rule="evenodd"/><path fill="#F7FCFF" stroke="#C51918" d="M-2 9.5h-.5v7h37v-7z"/><path fill="#F7FCFF" fill-rule="evenodd" d="m14.541 3.008-.673.374.192-.76-.644-.559h.842l.282-.72.331.72h.718l-.564.559.271.76zm-3.608 2.29.673-.374.755.374-.27-.76.563-.558h-.718l-.33-.72-.283.72h-.842l.644.558zM8.428 6.962l-.673.374.192-.76-.645-.558h.842l.283-.72.33.72h.719l-.564.558.27.76zm3.178 0-.673.374.192-.76-.644-.558h.842l.282-.72.331.72h.718l-.564.558.271.76zm2.98 0-.673.374.192-.76-.644-.558h.842l.282-.72.331.72h.718l-.564.558.271.76zm-.673-1.664.673-.374.755.374-.27-.76.563-.558h-.718l-.33-.72-.283.72h-.842l.644.558zm3 2.038.672-.374.756.374-.271-.76.564-.558h-.718l-.332-.72-.282.72h-.842l.645.558zm.672-2.412-.673.374.193-.76-.645-.558h.842l.282-.72.332.72h.718l-.564.558.27.76zm-.717-1.542.673-.374.755.374-.271-.76.564-.559h-.718l-.331-.72-.283.72h-.842l.645.559zm3.748 3.58-.673.374.192-.76-.645-.558h.842l.283-.72.33.72h.719l-.564.558.27.76zm-.673-1.664.673-.374.755.374-.271-.76.564-.558h-.718l-.331-.72-.283.72h-.842l.645.558zm.628-2.29-.673.374.192-.76-.645-.559h.842l.283-.72.331.72h.718l-.564.559.271.76zM5.885 8.242s-2.416-.655-2.37-3.079C3.56 2.74 6 2.11 6 2.11c-.997-.377-3.945.13-4 3.029-.054 2.899 2.956 3.47 3.885 3.103" clip-rule="evenodd"/></g></g><defs><clipPath id="a"><path fill="#fff" d="M0 0h32v24H0z"/></clipPath></defs></svg>