<svg xmlns="http://www.w3.org/2000/svg" width="32" height="24" fill="none" viewBox="0 0 32 24"><g clip-path="url(#a)"><mask id="b" width="32" height="24" x="0" y="0" maskUnits="userSpaceOnUse" style="mask-type:luminance"><path fill="#fff" d="M32 0H0v24h32z"/></mask><g mask="url(#b)"><path fill="#fff" d="M32 0H0v24h32z"/><path fill="#F7FCFF" fill-rule="evenodd" d="M0 0h32v24H0z" clip-rule="evenodd"/><path fill="#FFDC17" fill-rule="evenodd" d="M0 0h14v24H0z" clip-rule="evenodd"/><path fill="#AF0100" d="m22.782 12.75-.346.022q.123 1.779.77 2.749c.697 1.042 1.617 1.848 2.233 1.848.14 0 .172.052.126.18-.065.183-.273.362-.54.43-.444.115-1.453.174-3.01.174v.335c1.588 0 2.616-.06 3.1-.185.375-.097.673-.354.777-.644.12-.335-.061-.625-.453-.625-.457 0-1.306-.743-1.943-1.695q-.596-.888-.714-2.589m-1.635 0 .345.022q-.122 1.779-.77 2.749c-.697 1.042-1.617 1.848-2.232 1.848-.14 0-.173.052-.127.18.066.183.274.362.54.43.444.115 1.453.174 3.011.174v.335c-1.589 0-2.616-.06-3.1-.185-.375-.097-.673-.354-.777-.644-.12-.335.061-.625.453-.625.457 0 1.305-.743 1.942-1.695q.595-.888.715-2.589"/><path fill="#F4B300" fill-rule="evenodd" d="m28.067 6.797-9.141 7.126a3.3 3.3 0 0 0-1.034-.162c-1.483 0-2.724.948-2.724 2.177s1.241 2.177 2.724 2.177q.255 0 .5-.036a.96.96 0 0 1-.319-.42c-.067-.187-.04-.36.066-.477a3 3 0 0 1-.247.012c-1 0-1.773-.59-1.773-1.256s.773-1.256 1.773-1.256c1.001 0 1.773.59 1.773 1.256 0 .204-.072.4-.201.576l.073-.067c.317-.295-.395.922-1.01.922-.14 0-.173.052-.127.18.062.17.247.339.49.416 1.003-.313 1.727-1.088 1.727-2.027 0-.384-.122-.74-.333-1.05l4.913-4.169.328.34.237-.215.82.609-.342.264.7.851 1.413-1.089.024-.012-.004-.003.087-.068-.7-.851-.339.261-.917-.634.107-.098-.295-.305.444-.377.236.244.253-.23.795.63-.334.258.7.851 1.21-.933.14-.076-.02-.015.19-.148-.7-.851-.395.305-.872-.669.119-.107-.202-.209.904-.767z" clip-rule="evenodd"/><path fill="#BFBFBF" fill-rule="evenodd" d="M15.687 14.726c.262 0 .475-.169.475-.377s-.213-.376-.475-.376c-.263 0-.476.168-.476.377 0 .207.213.376.476.376m.173 3.433c.262 0 .475-.169.475-.377s-.213-.377-.475-.377c-.263 0-.476.169-.476.377s.213.377.476.377m4.713-.377c0 .208-.213.377-.476.377-.262 0-.475-.169-.475-.377s.213-.377.475-.377c.263 0 .476.169.476.377m2.81-1.842c0-.553.251-1.048.662-1.426l-5.25-4.066-.06.046.154.139-.414.428-.218-.198-.804.619.307.237-.7.851-1.398-1.078-.039-.024.004-.002-.087-.068.7-.851.339.26.917-.634-.107-.097.396-.41-.462-.358-.319.33-.243-.221-.786.636.315.242-.7.852-1.172-.904-.177-.105.02-.016-.192-.147.7-.852.396.305.872-.668-.119-.108.24-.247-.942-.729.594-.719 9.082 7.033a3.3 3.3 0 0 1 1.216-.227c1.483 0 2.724.947 2.724 2.177s-1.241 2.177-2.724 2.177q-.255 0-.5-.037a.96.96 0 0 0 .319-.42c.067-.187.04-.36-.066-.477q.12.013.247.013c1 0 1.773-.59 1.773-1.256s-.773-1.256-1.773-1.256c-1.001 0-1.773.59-1.773 1.256 0 .204.072.4.201.575l-.073-.067c-.317-.294.395.922 1.01.922.14 0 .173.052.127.18-.062.171-.247.34-.49.417-1.003-.314-1.727-1.088-1.727-2.027" clip-rule="evenodd"/><path fill="#F4B300" fill-rule="evenodd" d="M28.313 14.726c-.262 0-.475-.169-.475-.377s.213-.376.475-.376c.263 0 .476.168.476.377 0 .207-.213.376-.476.376m-.173 3.433c-.262 0-.475-.169-.475-.377s.213-.377.475-.377c.263 0 .476.169.476.377s-.213.377-.476.377m-4.713-.377c0 .208.213.377.476.377.262 0 .475-.169.475-.377s-.213-.377-.476-.377c-.262 0-.475.169-.475.377" clip-rule="evenodd"/><path fill="#AF0100" fill-rule="evenodd" d="M21.741 11.797a.13.13 0 0 0-.13.13v.54h-.48a.126.126 0 1 0 0 .25h.48v7.155c0 .072.058.13.13.13h.26a.13.13 0 0 0 .13-.13v-7.154h.738a.126.126 0 1 0 0-.251h-.739v-.54a.13.13 0 0 0-.13-.13z" clip-rule="evenodd"/><path fill="#979797" fill-rule="evenodd" d="m16.755 7.593.212.145c.493-.674.937-.809 1.388-.455.78.61.848 2.1.014 2.598-.994.595-1.498 1.754-1.058 2.385.407.583 1.388.362 2.356-.37a6 6 0 0 0 .49-.413l-.204-.158a6 6 0 0 1-.445.374c-.864.652-1.694.839-1.982.427-.343-.492.096-1.503.98-2.031.998-.598.921-2.296.013-3.008-.586-.458-1.193-.273-1.764.506m3.808 3.051.21.146c.368-.495.619-1.032.702-1.56l-.256-.038c-.077.487-.312.987-.656 1.452m6.707-3.051-.212.145c-.494-.674-.938-.809-1.39-.455-.779.61-.846 2.1-.013 2.598.995.595 1.499 1.754 1.058 2.385-.407.583-1.388.362-2.356-.37a6 6 0 0 1-.49-.413l.204-.158q.211.196.445.374c.864.652 1.694.839 1.982.427.343-.492-.096-1.503-.98-2.031-.998-.598-.921-2.296-.012-3.008.586-.458 1.192-.273 1.763.506m-3.809 3.051-.21.146c-.368-.495-.619-1.032-.702-1.56l.256-.038c.077.487.312.987.656 1.452" clip-rule="evenodd"/><path fill="#AF0100" fill-rule="evenodd" d="M21.87 20.015c.287 0 .52-.116.52-.26 0-.143-.233-.259-.52-.259-.286 0-.518.116-.518.26 0 .143.232.259.518.259m-.086-10.796c1.003 0 1.816-.136 1.816-.303s-.813-.303-1.816-.303-1.816.136-1.816.303.813.303 1.816.303" clip-rule="evenodd"/><path fill="#F4B300" fill-rule="evenodd" d="M21.886 2.04h-.26v.298h-.245v.251h.245v.733h.26V2.59h.3v-.25h-.3zm-1.951 3.617-.116-.195q.096-.039.194-.075l-.337-.74.237-.102.348.762a5 5 0 0 1 .225-.058.35.35 0 0 1-.086-.234c0-.185.135-.335.303-.335s.302.15.302.335q0 .079-.03.145.309-.04.644-.05v-.284h-.325v-.202h.325v-.24h.343v.24h.396v.202h-.396v.282q.382.006.717.053a.4.4 0 0 1-.03-.146c0-.185.135-.335.302-.335s.303.15.303.335a.35.35 0 0 1-.093.24q.146.038.279.086l.248-.545.238.102-.247.54.058.028-.13.188-.021-.01-.04.087-.238-.101.039-.085q-.568-.205-1.385-.22v.09h-.343v-.087q-.97.03-1.684.33m-.116.224.06.102-.203.087.337.74q-.098.036-.194.076l.116.195q.714-.3 1.684-.33v.088h.343v-.09q.817.015 1.385.22l-.039.084.238.102.04-.088.02.01.131-.188-.058-.028.247-.54-.238-.101-.248.544a3 3 0 0 0-.279-.085.35.35 0 0 0 .093-.241c0-.185-.136-.335-.303-.335s-.303.15-.303.335q.002.079.03.146a6 6 0 0 0-.716-.053V6.25h.396v-.202h-.396v-.24h-.343v.24h-.325v.202h.325v.284a6 6 0 0 0-.644.05.4.4 0 0 0 .03-.145c0-.185-.135-.335-.302-.335-.168 0-.303.15-.303.335 0 .091.033.174.086.234a5 5 0 0 0-.225.059l-.303-.665q.785-.323 1.876-.323 1.103 0 1.772.33l.131-.189q-.735-.36-1.903-.359-1.164 0-2.015.356m0 1.423.06.102-.203.087.337.74q-.098.037-.194.076l.116.195q.714-.3 1.684-.33v.088h.343v-.09q.817.015 1.385.22l-.039.084.238.102.04-.088.02.01.131-.188-.058-.027.247-.54-.238-.102-.248.545a3 3 0 0 0-.279-.086.35.35 0 0 0 .093-.24c0-.186-.136-.336-.303-.336s-.303.15-.303.335q.002.08.03.146a6 6 0 0 0-.716-.053v-.282h.396V7.47h-.396v-.24h-.343v.24h-.325v.202h.325v.284a6 6 0 0 0-.644.05.4.4 0 0 0 .03-.145c0-.185-.135-.335-.302-.335-.168 0-.303.15-.303.335 0 .091.033.174.086.234a5 5 0 0 0-.225.059l-.303-.664q.785-.323 1.876-.324 1.103 0 1.772.33l.131-.188q-.735-.36-1.903-.36-1.164 0-2.015.356m0 1.423.116.195q.791-.332 1.899-.332 1.103 0 1.772.33l.131-.19q-.735-.359-1.903-.358-1.164 0-2.015.355" clip-rule="evenodd"/></g></g><defs><clipPath id="a"><path fill="#fff" d="M0 0h32v24H0z"/></clipPath></defs></svg>