<svg xmlns="http://www.w3.org/2000/svg" width="32" height="24" fill="none" viewBox="0 0 32 24"><g clip-path="url(#a)"><mask id="b" width="32" height="24" x="0" y="0" maskUnits="userSpaceOnUse" style="mask-type:luminance"><path fill="#fff" d="M32 0H0v24h32z"/></mask><g mask="url(#b)"><path fill="#fff" d="M32 0H0v24h32z"/><path fill="#FFDC17" fill-rule="evenodd" d="M8 0h16v24H8z" clip-rule="evenodd"/><path fill="#5FBF2B" fill-rule="evenodd" d="M24 0h8v24h-8z" clip-rule="evenodd"/><path fill="#2E42A5" fill-rule="evenodd" d="M0 0h8v24H0z" clip-rule="evenodd"/><path fill="#5FBF2B" fill-rule="evenodd" d="m19.726 5.602-3.04 4.463 3.04 4.305 3.04-4.305zm-7.449.078L9 10.065l3.04 4.226 3.04-4.226zm.566 9.31 3.277-4.384 2.803 4.384-2.803 4.513z" clip-rule="evenodd"/></g></g><defs><clipPath id="a"><path fill="#fff" d="M0 0h32v24H0z"/></clipPath></defs></svg>