<svg xmlns="http://www.w3.org/2000/svg" width="32" height="24" fill="none" viewBox="0 0 32 24"><g clip-path="url(#a)"><mask id="b" width="32" height="24" x="0" y="0" maskUnits="userSpaceOnUse" style="mask-type:luminance"><path fill="#fff" d="M32 0H0v24h32z"/></mask><g mask="url(#b)"><path fill="#fff" d="M32 0H0v24h32z"/><path fill="#2E42A5" fill-rule="evenodd" d="M0 0v24h32V0z" clip-rule="evenodd"/><mask id="c" width="32" height="24" x="0" y="0" maskUnits="userSpaceOnUse" style="mask-type:luminance"><path fill="#fff" fill-rule="evenodd" d="M0 0v24h32V0z" clip-rule="evenodd"/></mask><g fill-rule="evenodd" clip-rule="evenodd" mask="url(#c)"><path fill="#FECA00" d="M0 0v8h32V0z"/><path fill="#E31D1C" d="M0 16v8h32v-8z"/><path fill="#F7FCFF" d="m12.737 11.858.983-.557 1.102.557-.396-1.133.824-.832h-1.048l-.484-1.073-.412 1.073h-1.23l.925.817h-1.037l-.484-1.072-.412 1.072h-1.23l.942.833-.18.726h-.785l-.483-1.072-.413 1.072H7.69l.942.833-.174.703h-.343l-.484-1.073-.412 1.073h-1.23l.942.832-.281 1.133.983-.557 1.102.557-.396-1.133.824-.832H9.11l.224-.128 1.103.558-.396-1.133.472-.477-.013.05.983-.557 1.103.558-.396-1.133.818-.827.01.01zm6.486-.043-.983-.557-1.102.557.395-1.133-.823-.832h1.048l.484-1.073.412 1.073h1.23l-.925.817h1.042l.483-1.072.413 1.072h1.23l-.942.833.18.726h.784l.484-1.072.412 1.072h1.23l-.942.833.175.703h.343l.483-1.073.413 1.073h1.23l-.942.832.28 1.133-.982-.557-1.103.557.396-1.133-.823-.832h.053l-.225-.128-1.102.558.396-1.133-.472-.477.012.05-.982-.557-1.103.558.396-1.133-.82-.83-.014.012z"/><path fill="#F7FCFF" d="m15.833 10.535-.983.557.28-1.133-.94-.832h1.229l.412-1.072.484 1.072h1.048l-.823.832.395 1.133z"/></g></g></g><defs><clipPath id="a"><path fill="#fff" d="M0 0h32v24H0z"/></clipPath></defs></svg>