<svg xmlns="http://www.w3.org/2000/svg" width="32" height="24" fill="none" viewBox="0 0 32 24"><g clip-path="url(#a)"><mask id="b" width="32" height="24" x="0" y="0" maskUnits="userSpaceOnUse" style="mask-type:luminance"><path fill="#fff" d="M32 0H0v24h32z"/></mask><g mask="url(#b)"><path fill="#fff" d="M32 0H0v24h32z"/><path fill="#2E42A5" fill-rule="evenodd" d="M0 0v24h32V0z" clip-rule="evenodd"/><mask id="c" width="18" height="14" x="0" y="0" maskUnits="userSpaceOnUse" style="mask-type:luminance"><path fill="#fff" d="M18 0H0v14h18z"/></mask><g mask="url(#c)"><path fill="#2E42A5" d="M18 0H0v14h18z"/><path fill="#F7FCFF" d="m-2.004 13 3.961 1.737L18.09 1.889l2.09-2.582-4.236-.58-6.58 5.536-5.297 3.73z"/><path fill="#F50100" d="m-1.462 14.216 2.018 1.008L19.429-.934h-2.833z"/><path fill="#F7FCFF" d="m20.005 13-3.961 1.737L-.09 1.889-2.18-.693l4.236-.58 6.58 5.536 5.297 3.73z"/><path fill="#F50100" d="m19.87 13.874-2.018 1.008-8.037-6.918-2.382-.773L-2.38-.684H.454l9.807 7.688 2.604.927z"/><path fill="#F50100" fill-rule="evenodd" d="M9.985 0h-2v6H0v2h7.985v6h2V8H18V6H9.985z" clip-rule="evenodd"/><path fill="#F7FCFF" fill-rule="evenodd" d="M6.485 0h5v4.5H18v5h-6.515L11.5 14h-5l-.015-4.5H0v-5h6.485zm1.5 6H0v2h7.985v6h2V8H18V6H9.985V0h-2z" clip-rule="evenodd"/></g></g></g><defs><clipPath id="a"><path fill="#fff" d="M0 0h32v24H0z"/></clipPath></defs></svg>