<svg xmlns="http://www.w3.org/2000/svg" width="32" height="24" fill="none" viewBox="0 0 32 24"><g clip-path="url(#a)"><mask id="b" width="32" height="24" x="0" y="0" maskUnits="userSpaceOnUse" style="mask-type:luminance"><path fill="#fff" d="M32 0H0v24h32z"/></mask><g mask="url(#b)"><path fill="#fff" d="M32 0H0v24h32z"/><path fill="#F7FCFF" fill-rule="evenodd" d="M0 0v24h32V0z" clip-rule="evenodd"/><mask id="c" width="32" height="24" x="0" y="0" maskUnits="userSpaceOnUse" style="mask-type:luminance"><path fill="#fff" fill-rule="evenodd" d="M0 0v24h32V0z" clip-rule="evenodd"/></mask><g mask="url(#c)"><path fill="#E8AA00" fill-rule="evenodd" d="M17.603 8.216c.242.138.387.49.387.49h-4.088l.282-.49s-.282-.128-.14-.128.547-.568.547-.568h-.17s-.086-.141.17-.141.46-.915.46-.915.168-.428-.243-.536-.906.358-.906.358.12-.745.282-.906c.075-.075.215-.087.344-.098.147-.013.28-.024.28-.129 0-.196.48-.348 1.267-.348s1.072.939 1.072 1.123.27 1.166.27 1.166-.27 0-.27.126c0 .127.843.673.843.673s-.63.186-.387.323M2.777 4.871c.314-.135 3.501.815 5.889 1.527 1.373.409 2.481.74 2.627.74.399 0 1.148.964.774 1.37-.376.407-.502.644-.251.644.25 0 1.516-.328 1.516-.328v3.771s-1.213.288-1.516 0c-.147-.139-.372-.147-.564-.154-.204-.008-.373-.014-.373-.176 0-.314-.698-.363-.698-.363s-.647-.213-.647-.414-.423-.768-.423-.768-1.613-.913-2.984-1.915c-.277-.202-.551-.393-.813-.576-1.036-.72-1.89-1.315-2.043-2.005-.716-.709-.988-1.141-.494-1.353m10.067 7.962s-.543.374-1.144 1.376c-.295.493-.32.927-.336 1.241-.018.325-.029.52-.325.52-.345 0-.595.075-.8.136a1.4 1.4 0 0 1-.369.077c-.274 0-.8 1.035-.537 1.274s1.366.621 1.366 0c0-.62.296-.974.835-.974.54 0 1.503-.357 1.503-1.14s1.05-.727 1.05-.727zm10.718-6.435c2.387-.712 5.574-1.662 5.888-1.527.494.212.222.644-.494 1.353-.153.69-1.007 1.284-2.042 2.005-.262.183-.536.374-.813.576-1.371 1.002-2.984 1.915-2.984 1.915s-.423.567-.423.768c0 .2-.647.414-.647.414s-.699.05-.699.363c0 .162-.168.168-.373.176-.192.007-.416.015-.563.154-.304.288-1.517 0-1.517 0v-3.77s1.266.328 1.517.328.124-.237-.251-.644c-.375-.406.375-1.37.773-1.37.146 0 1.255-.331 2.627-.74m-4.179 6.435s.543.374 1.144 1.376c.296.493.32.927.337 1.241.017.325.028.52.324.52a2.6 2.6 0 0 1 .8.136c.14.042.258.077.37.077.273 0 .8 1.035.537 1.274-.264.24-1.366.621-1.366 0 0-.62-.297-.974-.836-.974s-1.502-.357-1.502-1.14-1.05-.727-1.05-.727zm-5.842 2.61c0-.344.61-.604.61-.604l1.834-.774.024.464.023-.464 1.835.774s.61.26.61.605c0 .173.259.478.517.783.258.304.515.607.515.777 0 .301-.696.978-1.116 1.387l-.155.15c-.096.096-.2.214-.308.336-.309.35-.651.739-.938.739-.202 0-.365.14-.521.275-.144.123-.282.242-.439.242q-.012 0-.023-.011-.011.01-.024.011c-.156 0-.294-.119-.438-.242-.156-.135-.32-.275-.521-.275-.287 0-.63-.388-.938-.739-.109-.122-.213-.24-.309-.336l-.154-.15c-.42-.409-1.116-1.086-1.116-1.386 0-.171.257-.474.514-.778.259-.305.518-.61.518-.783" clip-rule="evenodd"/><path fill="#46A000" fill-rule="evenodd" d="M7.01 10.674c.04.463.172.736.172.736s.232.364.363.368q.102.252.22.515c.36.96.851 2.221 1.354 3.37a1 1 0 0 0-.143-.08c-.42-.198-.722-.22-.722-.22s-.564.024-.506.184.757.507 1.041.404l.095-.033c.131-.045.252-.087.285-.141l.2.447c-.42-.196-.72-.218-.72-.218s-.564.024-.506.184.758.507 1.041.404l.096-.034c.078-.027.153-.053.208-.08.507 1.08.996 1.942 1.345 2.16h.704s-.609-.86-1.376-2.066c.231-.164.553-.526.553-.754l.002-.101c.004-.266.008-.493-.284-.201a2.3 2.3 0 0 0-.453.604s-.015.047-.032.114l-.187-.3c.232-.162.56-.529.56-.759v-.1c.005-.267.009-.493-.284-.202-.328.328-.453.604-.453.604s-.015.049-.032.116l-.267-.444c.226-.12.64-.55.64-.81l.001-.1c.005-.266.008-.493-.284-.201-.328.328-.453.604-.453.604s-.037.118-.06.243q-.174-.3-.346-.605h.01c.171 0 .737-.538.737-.84v-.1c.005-.267.009-.493-.283-.202a2.3 2.3 0 0 0-.453.604s-.084.265-.075.423q-.237-.425-.456-.848h.004c.17 0 .736-.539.736-.84v-.102c.005-.266.009-.492-.283-.2-.329.327-.453.604-.453.604s-.076.238-.076.397a20 20 0 0 1-.425-.885q-.106-.28-.193-.52a.1.1 0 0 0 .023-.017c.109-.13.06-.91-.171-1.104l-.077-.066c-.2-.174-.372-.323-.336.088m.783 1.184s.022-.302.22-.723c.174-.373.248-.16.335.092l.033.095c.103.284-.244.983-.404 1.042-.16.058-.184-.506-.184-.506m.788 2.889a2.3 2.3 0 0 0-.723-.22s-.564.025-.505.185.757.507 1.04.404l.096-.034c.252-.087.466-.16.092-.335m-1.118-1.119s.302.022.723.22c.373.174.16.248-.092.335L8 14.216c-.284.103-.983-.244-1.042-.404-.058-.16.506-.184.506-.184m.393-.68c-.42-.197-.722-.22-.722-.22s-.564.024-.506.184.757.508 1.041.404l.095-.033c.252-.087.466-.16.092-.335m-.88-1.302s.276.124.604.453c.291.292.065.288-.201.284l-.101-.001c-.302 0-.84-.566-.84-.736s.538 0 .538 0" clip-rule="evenodd"/><path fill="#0093E1" fill-rule="evenodd" d="M28.692 10.34h-2.137s.453 0 .503.438c0 0 .01 3.693 0 3.984s-.503.389-.503.389 2.593.008 2.137 0-.556-.39-.556-.39v-3.983c0-.338.556-.438.556-.438M4.566 14.854c-.242-.624-1.736-4.449-1.736-4.449h1.48c-.257 0-.352.327-.352.327l1.035 2.954s1.002-2.412 1.002-2.84-.42-.44-.42-.44H7.5l-.465.155s-1.543 3.536-1.543 4.293c-.074.168.71.28.71.28h-2.07zm17.7-1.396 1.147-2.111.033 2.349-.355-.116-.251 1.569 1.267-2.43-.422-.158 1.568-1.698-.534 2.295-.304-.268-1.796 3.352 2.005-2.298-.387-.193 1.98-1.296-.861 2.113-.481-.347-2.035 2.562-.844-.324.844-3.001zm-.66 4.003h-.634v.482h-.499l-1.412 1.638h.78l.27.923.362-.326v.326l.708-.326.677.587.505-2.253-.34-.25.175-.153-.175-.648z" clip-rule="evenodd"/><path fill="#F7FCFF" fill-rule="evenodd" d="M12.344 8.016s.93.642 1.861.642 1.861-.642 1.861-.642.93.642 1.861.642 1.862-.642 1.862-.642v2.9c0 3-3.723 5.325-3.723 5.325s-3.902-2.135-3.722-5.36z" clip-rule="evenodd"/><mask id="d" width="8" height="9" x="12" y="8" maskUnits="userSpaceOnUse" style="mask-type:luminance"><path fill="#fff" fill-rule="evenodd" d="M12.344 8.016s.93.642 1.861.642 1.861-.642 1.861-.642.93.642 1.861.642 1.862-.642 1.862-.642v2.9c0 3-3.723 5.325-3.723 5.325s-3.902-2.135-3.722-5.36z" clip-rule="evenodd"/></mask><g fill-rule="evenodd" clip-rule="evenodd" mask="url(#d)"><path fill="#2E42A5" d="M12.08 7.824h7.84v3.02h-7.84z"/><path fill="#AF0100" d="M13.595 10.844h-.659v6.104h.66zm1.12 0h-.659v6.104h.66zm.462 0h.658v6.104h-.659zm1.778 0h-.658v6.104h.658zm.462 0h.658v6.104h-.659zm1.778 0h-.659v6.104h.66z"/></g></g></g></g><defs><clipPath id="a"><path fill="#fff" d="M0 0h32v24H0z"/></clipPath></defs></svg>