<svg xmlns="http://www.w3.org/2000/svg" width="32" height="24" fill="none" viewBox="0 0 32 24"><g clip-path="url(#a)"><mask id="b" width="32" height="24" x="0" y="0" maskUnits="userSpaceOnUse" style="mask-type:luminance"><path fill="#fff" d="M32 0H0v24h32z"/></mask><g mask="url(#b)"><path fill="#fff" d="M32 0H0v24h32z"/><path fill="#F7FCFF" fill-rule="evenodd" d="M0 0h32v24H0z" clip-rule="evenodd"/><path fill="#C51918" fill-rule="evenodd" d="M0 0v8h32V0z" clip-rule="evenodd"/><path fill="#5EAA22" fill-rule="evenodd" d="M0 16v8h32v-8z" clip-rule="evenodd"/><path fill="#272727" fill-rule="evenodd" d="m0-2 16.67 14L0 26z" clip-rule="evenodd"/><path fill="#FFD018" fill-rule="evenodd" d="M0-3.355 17.408 9.999H32v4H17.17L0 26.812V22.34L14 12 0 1.534z" clip-rule="evenodd"/><mask id="c" width="36" height="41" x="-2" y="-9" maskUnits="userSpaceOnUse" style="mask-type:luminance"><path fill="#fff" d="M34-8.355H-2v40h36z"/><path fill="#000" fill-rule="evenodd" d="M0-3.355 17.408 9.999H32v4H17.17L0 26.812V22.34L14 12 0 1.534z" clip-rule="evenodd"/></mask><g mask="url(#c)"><path fill="#272727" d="m17.408 10-1.217 1.587.539.413h.678zM0-3.355l1.217-1.587L-2-7.41v4.055zM32 10h2V8h-2zm0 4v2h2v-2zm-14.83 0v-2h-.665l-.532.397zM0 26.81h-2v3.99l3.196-2.385zm0-4.47-1.188-1.61-.812.6v1.01zM14 12l1.188 1.609 2.165-1.6-2.156-1.611zM0 1.534h-2v1.002l.803.6zm18.626 6.879L1.217-4.942l-2.434 3.174L16.19 11.587zM32 8H17.408v4H32zm2 6v-4h-4v4zm-16.83 2H32v-4H17.17zM1.195 28.414l17.17-12.811-2.393-3.206-17.17 12.812zM-2 22.34v4.471h4v-4.47zm14.812-11.949-14 10.34 2.376 3.218 14-10.34zm-14.01-7.255 14 10.466 2.396-3.204-14-10.466zM-2-3.355v4.89h4v-4.89z"/></g><path fill="#FFD018" d="m4.873 16.767.002-1.58c1.409-.31 2.342-.715 2.796-1.201 1.118-1.378.375-4.607-1.923-4.586-1.138 0-2.315.542-2.315 1.819 0 1.585.326 2.263 1.442 2.263 1.11 0 1.516.06 2.247-.936l.792.245c-.782 1.067-1.838 1.91-3.04 1.91-1.982 0-3.06-1.495-3.06-3.222 0-2.133 1.731-3.627 3.82-3.627 1.557 0 4.021 1.908 4.021 3.627s0 2.507-1.351 3.708c-.544.484-1.893 1.347-3.43 1.58"/><path fill="#FFD018" fill-rule="evenodd" d="M4.991 9.88a.143.143 0 0 0-.174.101l-.055.207-.008-.01a.143.143 0 1 0-.226.174l.098.127-.165.152a.143.143 0 0 0 .194.21l.145-.134.25.328-.274.147a.143.143 0 1 0 .135.252l.313-.168.213.286-.375.201a.143.143 0 0 0 .135.252l.411-.221q.165.225.288.4l-.263.14a.143.143 0 1 0 .135.252l.291-.156c.12.18.183.289.183.317a.143.143 0 0 0 .286 0c0-.072-.075-.224-.232-.468l.006-.012.211-.466a.143.143 0 1 0-.26-.118l-.144.318q-.135-.195-.317-.442l.15-.33a.143.143 0 0 0-.26-.117l-.084.184-.144-.192.202-.446a.143.143 0 0 0-.26-.118l-.138.305-.276-.361.11-.42a.143.143 0 0 0-.1-.174" clip-rule="evenodd"/><path fill="#FFD018" fill-rule="evenodd" d="M5.952 9.88a.143.143 0 0 1 .175.101l.054.207.008-.01a.143.143 0 1 1 .226.174l-.097.127.164.152a.143.143 0 0 1-.194.21l-.145-.134-.25.328.274.147a.143.143 0 1 1-.135.252l-.313-.168-.213.286.375.201a.143.143 0 0 1-.135.252l-.411-.221q-.165.225-.288.4l.263.14a.143.143 0 1 1-.135.252l-.29-.156c-.122.18-.184.289-.184.317a.143.143 0 0 1-.286 0c0-.072.075-.224.232-.468l-.006-.012-.211-.466a.143.143 0 1 1 .26-.118l.144.318q.135-.195.317-.442L5 11.22a.143.143 0 0 1 .26-.117l.084.184.144-.192-.202-.446a.143.143 0 0 1 .26-.118l.138.305.276-.361-.11-.42a.143.143 0 0 1 .101-.174" clip-rule="evenodd"/></g></g><defs><clipPath id="a"><path fill="#fff" d="M0 0h32v24H0z"/></clipPath></defs></svg>