<svg xmlns="http://www.w3.org/2000/svg" width="32" height="24" fill="none" viewBox="0 0 32 24"><g clip-path="url(#a)"><mask id="b" width="32" height="24" x="0" y="0" maskUnits="userSpaceOnUse" style="mask-type:luminance"><path fill="#fff" d="M32 0H0v24h32z"/></mask><g mask="url(#b)"><path fill="#fff" d="M32 0H0v24h32z"/><path fill="#C51918" fill-rule="evenodd" d="M0 0v24h32V0z" clip-rule="evenodd"/><mask id="c" width="32" height="24" x="0" y="0" maskUnits="userSpaceOnUse" style="mask-type:luminance"><path fill="#fff" fill-rule="evenodd" d="M0 0v24h32V0z" clip-rule="evenodd"/></mask><g fill-rule="evenodd" clip-rule="evenodd" mask="url(#c)"><path fill="#2E42A5" d="M0 0v14h16V0z"/><path fill="#FEFFFF" d="m3.566 7.772-1.06.64.242-1.25-.883-.934 1.196-.05.505-1.166.506 1.166h1.193l-.88.985.265 1.249zm8 0-1.06.64.242-1.25-.883-.934 1.195-.05.506-1.166.506 1.166h1.193l-.88.985.265 1.249zm-4.1-3.635-.998.602.228-1.175-.83-.88 1.124-.047.476-1.098.476 1.098h1.123l-.829.927.25 1.175zm1.08 4.287-.624.377.142-.735-.52-.55.704-.03.298-.685.297.686h.702l-.518.58.156.734zM7.41 12.83l-1.497.904.341-1.763-1.246-1.32 1.687-.071.714-1.646.714 1.646h1.685l-1.244 1.39.375 1.764z"/></g></g></g><defs><clipPath id="a"><path fill="#fff" d="M0 0h32v24H0z"/></clipPath></defs></svg>