<svg xmlns="http://www.w3.org/2000/svg" width="32" height="24" fill="none" viewBox="0 0 32 24"><g clip-path="url(#a)"><mask id="b" width="32" height="24" x="0" y="0" maskUnits="userSpaceOnUse" style="mask-type:luminance"><path fill="#fff" d="M32 0H0v24h32z"/></mask><g mask="url(#b)"><path fill="#fff" d="M32 0H0v24h32z"/><path fill="#fff" d="M32 0H0v24h32z"/><path fill="#DFDFDF" d="M11.09 21.229c-.665.201-1.625.614-2.009.845-.124.08-.112.171.08.513.135.222.27.413.293.413.034 0 .406-.15.824-.342.417-.181.95-.42 1.196-.463a3 3 0 0 0 .465-.103c.043.093.016.041.094.186.112.209.042.204.236.261.203.06.706-.183.706-.183.587-.181.914-.201 3.025-.201s2.438.02 3.024.211c0 0 .473.143.534.16.06.018.092.031.155.018.058-.013.12-.092.146-.14 0 0 .13-.278.163-.375.112.048.317.11.515.166.237.07.767.282 1.185.463.418.191.79.342.824.342.022 0 .158-.191.293-.413.271-.473.294-.432-.688-.885-1.31-.604-2.619-.876-2.743-.584-.022.056-.042.088-.073.16-.13-.027-.474-.1-.818-.15-1.061-.17-3.973-.17-5.034 0-.344.05-.577.135-.771.183-.11-.197-.088-.119-.11-.174-.09-.201-.688-.17-1.512.092"/><path fill="#171796" d="M12.05 8.793c-.023.328.045.56.223.736.08.084.148.184.148.184s-.091.1-.167.176a.88.88 0 0 0-.25.644c0 .248.072.42.265.643 0 0 .163.082.16.184-.005.102-.175.204-.175.204-.349.408-.337.876.027 1.264l.155.172h7.136l.175-.196q.505-.572.003-1.228s-.168-.12-.17-.22.159-.2.159-.2c.349-.44.341-.843-.019-1.267-.163-.188-.167-.224-.038-.312.209-.148.337-.648.243-.952-.14-.456-.743-.76-1.11-.56a2.5 2.5 0 0 0-.308.22c-.102.088-.197.156-.216.156-.015 0-.106-.072-.2-.16-.368-.332-.81-.372-1.178.004 0 0-.053.201-.13.208s-.186-.18-.186-.18c-.375-.372-.845-.356-1.228.036 0 0-.053.164-.14.144-.086-.02-.158-.212-.158-.212-.223-.216-.365-.212-.623-.216-.148-.002-.417.034-.579.155-.162.122-.134.267-.171.257-.094-.025-.197-.176-.197-.176-.364-.328-.656-.384-1.008-.188a.8.8 0 0 0-.444.68"/><path fill="#D42E12" d="M12.285 14.492s.145.07.14.161-.16.181-.16.181a1.5 1.5 0 0 0-.211.311.91.91 0 0 0 .208.941c.144.146.148.205.011.378-.06.075-.132.181-.159.236-.284.56.14 1.26.77 1.26.25 0 .44-.083.61-.272.137-.15.209-.153.33-.02.178.205.413.331.61.331.232 0 .376-.075.61-.307 0 0 .094-.182.179-.18.085 0 .163.184.163.184.352.394.709.406 1.183.032 0 0 .104-.152.193-.15s.167.157.167.157c.208.19.364.264.569.264s.356-.082.595-.326c0 0 .123-.186.197-.197s.151.141.151.141c.292.272.451.359.664.359.22 0 .375-.075.595-.28.205-.193.315-.417.288-.602-.026-.2-.2-.567-.33-.693 0 0-.129-.011-.11-.11.02-.1.171-.2.171-.2.371-.454.375-.804.008-1.253 0 0-.154-.088-.152-.189.002-.1.16-.2.16-.2.355-.437.352-.843-.008-1.24L19.533 13l-3.548.004-3.548.004-.16.185c-.371.429-.367.866.008 1.299"/><path fill="#E9D315" fill-rule="evenodd" d="M17.82 13.621c.172 0 .315.117.344.271l.006.06v.615l.735-.39a.337.337 0 0 1 .454.134.33.33 0 0 1-.086.415l-.05.033-.617.327.616.328.05.032a.33.33 0 0 1 .087.415.337.337 0 0 1-.454.135l-.735-.39v.684a.34.34 0 0 1-.35.331.345.345 0 0 1-.344-.271l-.006-.06v-.6l-.578.306a.337.337 0 0 1-.454-.135.33.33 0 0 1 .086-.415l.05-.032.617-.328-.616-.327-.05-.033a.33.33 0 0 1-.087-.415.337.337 0 0 1 .454-.135l.578.307v-.531a.34.34 0 0 1 .35-.33m-3.399-.001c.172 0 .315.117.345.271l.005.06v.615l.736-.39a.337.337 0 0 1 .453.134.33.33 0 0 1-.086.415l-.05.033-.617.327.617.328.05.032a.33.33 0 0 1 .086.415.337.337 0 0 1-.453.135l-.736-.39v.684a.34.34 0 0 1-.35.331.345.345 0 0 1-.344-.271l-.006-.06v-.6l-.578.306a.337.337 0 0 1-.453-.135.33.33 0 0 1 .086-.415l.05-.032.617-.328-.617-.327-.05-.033a.33.33 0 0 1-.086-.415.337.337 0 0 1 .453-.135l.578.307v-.531a.34.34 0 0 1 .35-.33" clip-rule="evenodd"/><path stroke="#000" stroke-width="0.3" d="M10.854 12.858h.15v.067a.24.24 0 0 1-.15-.067Zm0 0v.685l.001 1.6c.002 1.216.004 2.587.007 3.212a.4.4 0 0 0 .101.302 1 1 0 0 0 .101.09l.043.033.061.047m-.314-5.969V6.852h10.294V18.18a1 1 0 0 1 .006.09.7.7 0 0 1-.04.233.7.7 0 0 1-.158.236 1 1 0 0 1-.096.09l-.007.005c-.09.076-.236.127-.4.164-.174.04-.396.073-.658.097a19 19 0 0 1-2.04.057c-.296.002-.51.061-.672.144a1.3 1.3 0 0 0-.383.308q-.073.085-.139.172l-.003.004c-.044.057-.09.116-.138.168-.096.105-.221.204-.4.204s-.306-.098-.404-.202a3 3 0 0 1-.142-.164l-.003-.003q-.07-.089-.15-.176a1.3 1.3 0 0 0-.406-.31 1.6 1.6 0 0 0-.7-.145 10 10 0 0 1-1.94-.03 5 5 0 0 1-.686-.122c-.177-.046-.331-.102-.42-.173m0 0 .092-.117"/><path fill="#fff" d="M14.868 9.868c-.269.5-.28.724-.057 1.124.174.308.378.503.658.628.73.33 1.663.087 2.03-.529.227-.378.2-1.009-.049-1.284l-.068-.074-.064.218c-.091.31-.182.468-.363.634-.34.311-.81.381-1.293.19-.375-.151-.526-.36-.666-.94l-.034-.144z"/><path fill="#FF2500" fill-rule="evenodd" d="M18.479 3.5c0 .866-.624 1.5-1.5 1.5-.878 0-1.496-.634-1.496-1.5 0-.87.618-1.5 1.495-1.5s1.5.63 1.5 1.5M6.523 4.953v-2.02l.893 2.02h.39l.872-2.02v2.02h.529V2.047h-.613l-.977 2.234-.988-2.234H6v2.906zm3.703 0 .333-.805h1.242l.333.805h.56l-1.247-2.906h-.528L9.672 4.953zm.951-2.305-.443 1.074h.887zm3.075 2.305v-1.16l1.178-1.746h-.58l-.857 1.302-.86-1.302h-.598l1.173 1.746v1.16zm2.726-.393c-.57 0-.94-.445-.94-1.06s.37-1.06.94-1.06.946.445.946 1.06-.375 1.06-.946 1.06m3.286-2.077v2.47h-.55v-2.47h-1.077v-.436h2.705v.436zm3.022 2.47v-2.47h1.078v-.436h-2.705v.436h1.078v2.47zM27 4.513v.44h-2.119V2.047H27v.436h-1.58v.766h1.432v.43H25.42v.834z" clip-rule="evenodd"/><path fill="#DFDFDF" fill-rule="evenodd" stroke="#000" stroke-width="0.3" d="M26.777 18.801s-.34-.67.52-1 1.28.1 1.658.501c.38.4.338 1.609.338 1.609l-.936 1.497-2.872.593-1.144-.593L23 18.8l.1-2.558s.136-.98.136-1.183.623-1.776.623-1.776l.59-.584 1.67-.888.785-.393.976-1.233-.108-.982-1.112 1.416h-.942l-.98.411-.397.373-.482.015-.189-.388.527-.845.795-.8-.366-.678.542-.247-.104-.373.6.373.454-.373.087-.343-1.037-.556s1.014-.425 1.492-.381c.477.044.928.606.928.606l1.367-.225s-.366.9-.247.9h.86l-.276 1.115h1.06l-.784.86.612.335-.93.632.93.626-.865.568.487.941.767-.466.431.584-.649 1.44-1.058.75-1.01.255-.987.257-.392.257-.244-.985-1.668 1.143-.866 1.794.255 1.63.61.834 1.127.403 1.47-.276.768-.935.184-.955s-.445-.648-.768-.594-.995.5-.995.5Z" clip-rule="evenodd"/><path fill="#000" d="m25.082 12.225-.037.398c1.154.107 1.918.05 2.317-.199l.08-.056-.25-.313c-.242.193-.875.265-1.873.19zm-1.338 1.152-.037.398c1.154.107 1.918.05 2.317-.199l.08-.056-.25-.313c-.242.193-.875.265-1.873.19zm-.322 1.079-.067.394c.68.115 1.107.062 1.251-.235l.03-.08-.385-.11c-.02.071-.236.113-.675.054z"/><path fill="#000" fill-rule="evenodd" d="M25.75 9.5a.25.25 0 1 1 0-.5.25.25 0 0 1 0 .5" clip-rule="evenodd"/><path fill="#DFDFDF" fill-rule="evenodd" stroke="#000" stroke-width="0.3" d="M5.224 18.801s.34-.67-.52-1-1.28.1-1.66.501c-.378.4-.336 1.609-.336 1.609l.935 1.497L6.515 22l1.144-.593L9 18.8l-.1-2.558s-.136-.98-.136-1.183-.623-1.776-.623-1.776l-.59-.584-1.67-.888-.785-.393-.976-1.233.108-.982L5.34 10.62h.942l.98.411.397.373.482.015.189-.388-.527-.845-.795-.8.366-.678-.542-.247.105-.373-.601.373-.454-.373-.086-.343 1.036-.556s-1.014-.425-1.492-.381c-.477.044-.928.606-.928.606L3.045 7.19s.366.9.247.9h-.86l.276 1.115h-1.06l.783.86-.61.335.93.632-.93.626.864.568-.487.941-.767-.466-.431.584.649 1.44 1.059.75 1.008.255.988.257.392.257.244-.985L7.008 16.4l.866 1.794-.255 1.63-.61.834-1.127.403-1.47-.276-.769-.935-.183-.955s.445-.648.768-.594.996.5.996.5Z" clip-rule="evenodd"/><path fill="#000" d="m6.919 12.225.036.398c-1.154.107-1.918.05-2.316-.199l-.08-.056.249-.313c.242.193.876.265 1.874.19zm1.337 1.152.037.398c-1.154.107-1.918.05-2.317-.199l-.08-.056.25-.313c.242.193.875.265 1.874.19zm.321 1.079.067.394c-.68.115-1.107.062-1.25-.235l-.03-.08.384-.11c.02.071.236.113.675.054z"/><path fill="#000" fill-rule="evenodd" d="M6.25 9.5a.25.25 0 1 0 0-.5.25.25 0 0 0 0 .5" clip-rule="evenodd"/></g></g><defs><clipPath id="a"><path fill="#fff" d="M0 0h32v24H0z"/></clipPath></defs></svg>