<svg xmlns="http://www.w3.org/2000/svg" width="32" height="24" fill="none" viewBox="0 0 32 24"><g clip-path="url(#a)"><mask id="b" width="32" height="24" x="0" y="0" maskUnits="userSpaceOnUse" style="mask-type:luminance"><path fill="#fff" d="M32 0H0v24h32z"/></mask><g mask="url(#b)"><path fill="#fff" d="M32 0H0v24h32z"/><path fill="#F7FCFF" fill-rule="evenodd" d="M0 0h32v24H0z" clip-rule="evenodd"/><path fill="#E31D1C" fill-rule="evenodd" d="M0 0v8h32V0z" clip-rule="evenodd"/><path fill="#3D58DB" fill-rule="evenodd" d="M0 16v8h32v-8z" clip-rule="evenodd"/><path fill="#5EAA22" fill-rule="evenodd" d="M15.429 10 0-2v28l15.429-12H32v-4z" clip-rule="evenodd"/><mask id="c" width="36" height="38" x="-2" y="-7" maskUnits="userSpaceOnUse" style="mask-type:luminance"><path fill="#fff" d="M34-7H-2v38h36z"/><path fill="#000" fill-rule="evenodd" d="M15.429 10 0-2v28l15.429-12H32v-4z" clip-rule="evenodd"/></mask><g mask="url(#c)"><path fill="#F7FCFF" d="m0-2 1.228-1.58L-2-6.09V-2zm15.429 12L14.2 11.577l.541.421h.687zM0 26h-2v4.089l3.228-2.51zm15.429-12v-2h-.687l-.541.42zM32 14v2h2v-2zm0-4h2V8h-2zM-1.228-.423l15.429 12 2.456-3.157-15.43-12zM2 26V-2h-4v28zm12.2-13.578-15.428 12 2.456 3.157 15.429-12zM32 12H15.429v4H32zm-2-2v4h4v-4zm-14.571 2H32V8H15.429z"/></g><path fill="#272727" stroke="#FECA00" stroke-width="2" d="M.6 5.2-1 4v16l1.6-1.2 8-6 1.067-.8-1.067-.8z"/></g></g><defs><clipPath id="a"><path fill="#fff" d="M0 0h32v24H0z"/></clipPath></defs></svg>