<svg xmlns="http://www.w3.org/2000/svg" width="32" height="24" fill="none" viewBox="0 0 32 24"><g clip-path="url(#a)"><mask id="b" width="32" height="24" x="0" y="0" maskUnits="userSpaceOnUse" style="mask-type:luminance"><path fill="#fff" d="M32 0H0v24h32z"/></mask><g mask="url(#b)"><path fill="#fff" d="M32 0H0v24h32z"/><path fill="#F7FCFF" fill-rule="evenodd" d="M0 0h32v24H0z" clip-rule="evenodd"/><path fill="#5EAA22" fill-rule="evenodd" d="M0 0v24h32V0z" clip-rule="evenodd"/><mask id="c" width="32" height="24" x="0" y="0" maskUnits="userSpaceOnUse" style="mask-type:luminance"><path fill="#fff" fill-rule="evenodd" d="M0 0v24h32V0z" clip-rule="evenodd"/></mask><g mask="url(#c)"><path fill="#FF8126" d="M32 10h-5v14h5z"/><path fill="#272727" d="M27 10h-5v14h5z"/><path fill="#C51918" d="M22 10h-5v14h5z"/><path fill="#FF8126" fill-rule="evenodd" d="M24.547 4.838c.481.149 0 .377 0 .377s-.095-.093-.095-.17-.369 0-.559.282c-.18.267.152.267.501.266h.058c.197 0 .506-.017.792-.032.25-.013.483-.026.613-.026.278 0 .41 0 .777-.208.24-.136 1.029-.302 1.616-.425.316-.067.574-.12.655-.151.232-.087-.232.371-.232.371s1.789-.608 2.147-.816c.221-.129.121-.019-.043.16a4 4 0 0 0-.315.372c-.152.21.156.01.498-.214.184-.12.377-.246.514-.318.394-.208-.1.356-.317.532s.51 0 .762-.176c.185-.13.016.097-.127.287a4 4 0 0 0-.125.173l-.005.007c-.097.15-.128.198.105.198.237 0-.61.556-.61.556s.252-.034 0 .336c-.149.218-.874.438-1.462.617-.41.125-.753.23-.79.299-.067.125-.726.27-1.034.337-.11.024-.174.039-.151.039.086 0 .23.092.074.092s-.432.075-.432.075.145 0 0 .174c-.07.084-.191.07-.276.061-.093-.01-.143-.015-.036.113.095.114.13.157.122.17-.01.016-.084-.01-.198-.01-.1 0-.207-.036-.319-.074a1.2 1.2 0 0 0-.388-.086c-.247 0 0 .148.155.24l.019.01c.138.083.08.083-.17.082h-.08c-.155 0-.238-.014-.283-.022-.047-.008-.052-.009-.052.022 0 .03-.116-.012-.257-.06-.145-.052-.316-.112-.409-.112-.183 0 .388.318.388.318s-.297-.08-.458-.146c-.092-.037.025.138.13.296.08.12.152.23.123.23a.5.5 0 0 1-.127-.042c-.114-.046-.258-.104-.258-.026 0 .115.132.201.293.201s.187.18.092.18a.4.4 0 0 1-.112-.023c-.074-.021-.141-.041-.141.024 0 .042.028.073.061.11.046.05.1.108.1.217 0 .187-.24.214-.161.09s-.273-.424-.273-.278v.188c0 .132-.03.14-.077.154a.2.2 0 0 0-.104.06c-.058.062-.067.098-.072.118s-.006.024-.047.024c-.033 0-.06-.042-.097-.097-.057-.086-.136-.205-.29-.26-.148-.05-.156-.013-.17.052a.23.23 0 0 1-.097.163c-.112.08-.08.112-.044.151.021.023.044.047.044.083 0 .1-.196-.1-.196-.234 0-.135-.223-.314-.223-.214s0 .214-.114.214c-.055 0-.058.033-.06.078-.003.048-.007.109-.079.156-.07.047-.07.022-.066-.033.003-.052.008-.131-.047-.201-.069-.088-.011-.223.018-.292.019-.044.026-.06-.018-.022-.111.1-.253.1-.349.1h-.004c-.048 0-.09.052-.12.089-.03.036-.048.058-.048 0 0-.114.142-.416.41-.416.206 0 .31-.07.399-.131q.04-.028.078-.05c.115-.061 0-.142-.114-.201-.052-.027-.034-.114.003-.192.063-.034.111-.077.111-.12 0-.053-.068.027-.111.12a.6.6 0 0 1-.255.076c-.06 0-.023-.093.025-.21.04-.099.088-.214.088-.304a1 1 0 0 1 .029-.211c.015-.067.021-.095-.029-.06-.062.045-.393-.004-.62-.037-.096-.014-.174-.026-.202-.026-.043 0-.008-.067.025-.133.043-.084.085-.167-.025-.116-.173.081-.525.078-.748.076h-.088c-.13 0-.04-.098.008-.15.027-.03.04-.044-.008-.018a.83.83 0 0 1-.414.092c-.067 0-.086-.033-.108-.07-.025-.045-.054-.095-.175-.094-.22.002-.27-.001-.392-.082-.063-.042-.028-.067-.008-.081.019-.013.025-.017-.072-.017h-.6c-.298 0 .001-.196.109-.196s.232-.177 0-.098c-.149.051-.308.037-.496.02a4 4 0 0 0-.348-.02c-.355 0-.422-.138-.213-.138.21 0 .222-.1-.104-.1a1.8 1.8 0 0 1-.497-.083.8.8 0 0 0-.177-.037c-.114 0-.239-.136 0-.136.24 0 .546-.113.285-.113-.148 0-.395-.067-.61-.124a2 2 0 0 0-.378-.084c-.052 0 .03-.015.137-.034.216-.04.538-.098.127-.098-.44 0-.899-.302-1.216-.51-.13-.085-.235-.154-.306-.181-.246-.095 0-.283.071-.205s.568.198.352.093a1.2 1.2 0 0 1-.423-.377c-.07-.096-.016-.163.071-.087s.49.293.49.293-.215-.206-.387-.53c-.17-.324.172-.245.465 0s.568.31.706.324-.138-.177-.404-.324-.205-.676 0-.465c.107.11.613.319 1.108.523.457.189.904.373 1.02.472.2.172.039-.084-.136-.361l-.106-.17c-.116-.188.35.026.88.27.382.175.797.366 1.052.432.176.046.386.12.595.193.517.182 1.033.362 1.033.127 0-.33.473-.847.98-1.021.322-.111.474-.011.664.115.11.073.233.154.409.209M24 8.714c.115 0 .083-1.004.083-1.004s.338.616.338.882c0 .121-.01.157-.007.192.004.042.027.082.109.265.083.185.028.165-.123.11a1.5 1.5 0 0 0-.526-.11c-.498 0 .012-.335.126-.335" clip-rule="evenodd"/><path fill="#272727" d="m24.547 5.215-.088.09.063.06.079-.037zm4.126-.093-.088-.089.128.208zm2.484.76-.069-.104.085.228zm-3.795 1.796-.033-.12.033.245zm-1.784.826-.033.121.094-.23zm-8.91-3.46-.06.11.147-.2zm7.416 2.666.11-.06-.235.064zm.463-2.495.054.113h.002l.023-.012.055-.033a.6.6 0 0 0 .144-.123c.043-.054.092-.152.035-.259-.047-.09-.15-.144-.276-.183l-.074.24c.115.035.132.065.13.06-.012-.022.007-.035-.01-.013a.4.4 0 0 1-.082.067l-.052.03h-.002zm-.22-.17c0 .08.046.152.071.187l.055.066.004.004.002.002.088-.089.087-.089-.001-.001-.008-.009a.4.4 0 0 1-.044-.064l-.004-.008zm-.33.352a.64.64 0 0 1 .292-.23.3.3 0 0 1 .105-.026c.01 0 .004.002-.01-.005a.1.1 0 0 1-.057-.092h.25a.15.15 0 0 0-.09-.135.2.2 0 0 0-.098-.018.6.6 0 0 0-.19.043.9.9 0 0 0-.41.323zm.397.07q-.133.002-.244-.003a.7.7 0 0 1-.167-.023c-.04-.012-.024-.019-.017.004.006.019-.009.01.03-.048l-.206-.14c-.05.075-.091.167-.063.26.03.098.116.142.18.163.068.021.15.03.23.034s.171.004.257.004zm.058 0h-.058v.25h.058zm.786-.03c-.288.015-.593.03-.786.03v.25c.201 0 .514-.016.8-.031zm.619-.027c-.134 0-.372.013-.62.026l.014.25c.252-.013.48-.026.606-.026zm.716-.192a1.5 1.5 0 0 1-.389.17 1.4 1.4 0 0 1-.327.022v.25c.137 0 .253 0 .383-.029s.267-.088.456-.196zm1.652-.439c-.294.062-.64.135-.943.21a7 7 0 0 0-.414.112 1.6 1.6 0 0 0-.295.117l.123.217q.071-.04.246-.095a7 7 0 0 1 .4-.109c.298-.073.64-.145.934-.207zm.636-.145q-.046.017-.223.057l-.413.088.051.245c.158-.033.302-.063.417-.09.112-.024.206-.047.256-.066zm-.188.488.09.088.004-.004a4 4 0 0 0 .269-.304.4.4 0 0 0 .048-.088.2.2 0 0 0 .01-.079.14.14 0 0 0-.082-.107.16.16 0 0 0-.09-.01.3.3 0 0 0-.06.016l.087.234.01-.004h-.014a.11.11 0 0 1-.1-.094.1.1 0 0 1 .001-.029l.003-.01c0-.002-.003.007-.018.027l-.05.066a3 3 0 0 1-.191.205l-.004.003v.001zm2.084-.924c-.08.046-.25.12-.47.207-.216.085-.472.18-.717.27a57 57 0 0 1-.86.303l-.057.02-.015.004-.004.002.04.118.04.119.005-.002.015-.005.057-.02a58 58 0 0 0 .864-.304c.246-.09.505-.186.724-.273.217-.085.405-.166.504-.223zm.112.352.11-.12a.6.6 0 0 0 .075-.1.2.2 0 0 0 .015-.043.132.132 0 0 0-.118-.162.2.2 0 0 0-.053.006.7.7 0 0 0-.14.067l.125.216.06-.033.018-.009s-.013.004-.03.003a.118.118 0 0 1-.105-.143q.004-.019.007-.02l-.01.014-.033.04-.105.116zm-.306.36a4 4 0 0 1 .306-.36l-.184-.168c-.1.109-.231.252-.325.383zm.33-.39c-.175.113-.33.215-.424.263l-.045.02h.006a.1.1 0 0 1 .06.013.11.11 0 0 1 .057.089c.002.022-.004.037-.004.037q-.004.004.02-.032l-.203-.145a.4.4 0 0 0-.051.09.2.2 0 0 0-.011.071.14.14 0 0 0 .068.108c.036.02.07.019.087.017a.2.2 0 0 0 .048-.01 1 1 0 0 0 .082-.036c.108-.056.278-.166.446-.276zm.523-.325c-.144.076-.343.206-.524.324l.137.21c.185-.121.372-.243.504-.313zm-.18.74a3 3 0 0 0 .41-.433 1 1 0 0 0 .07-.108.3.3 0 0 0 .023-.057.2.2 0 0 0 .005-.087.14.14 0 0 0-.088-.103.2.2 0 0 0-.095-.008.5.5 0 0 0-.145.056l.117.221.061-.03a.1.1 0 0 1-.03-.007.1.1 0 0 1-.065-.076l-.002-.028.002-.009-.006.013-.049.074a2.6 2.6 0 0 1-.366.388zm.611-.376c-.106.075-.333.158-.514.201a1 1 0 0 1-.163.026h-.004.005l.022.01a.11.11 0 0 1 .04.135l-.008.013.01-.01-.157-.193a.3.3 0 0 0-.05.048.16.16 0 0 0-.036.094.14.14 0 0 0 .065.124.2.2 0 0 0 .076.026c.037.005.08.002.12-.003a1 1 0 0 0 .138-.027c.19-.045.454-.137.6-.239zm.045.465c.07-.092.153-.204.195-.276a.4.4 0 0 0 .03-.064.2.2 0 0 0 .008-.054.134.134 0 0 0-.155-.13.2.2 0 0 0-.05.015l-.073.044.143.205.034-.021q.002.001-.018.004a.116.116 0 0 1-.131-.113c0-.016.004-.027.004-.027 0-.003 0 .002-.009.016a3 3 0 0 1-.178.251zm-.12.166a4 4 0 0 1 .12-.166l-.2-.15c-.05.067-.1.135-.13.18zm-.005.007.005-.007-.21-.136-.004.007zm0 .005a1 1 0 0 1-.099-.007h-.001l.01.006q.009.006.019.018a.1.1 0 0 1 .015.03c.006.02.003.035.002.038q0 .003 0 0l.004-.007.019-.034q.014-.02.031-.05l-.21-.135c-.022.035-.047.073-.063.106a.2.2 0 0 0-.023.153c.025.082.1.109.139.119q.067.014.157.013zm-.61.68.069.105.002-.002.007-.004.027-.018a9 9 0 0 0 .365-.259c.09-.07.183-.145.239-.207a.4.4 0 0 0 .04-.054.2.2 0 0 0 .028-.088.14.14 0 0 0-.07-.13.2.2 0 0 0-.097-.023v.25c.008 0-.01.002-.032-.012a.11.11 0 0 1-.05-.094c0-.024.01-.037.007-.032l-.014.017a1.6 1.6 0 0 1-.203.174 7 7 0 0 1-.378.267l-.007.005-.002.001zm.103.407a.8.8 0 0 0 .125-.25c.017-.072.012-.148-.038-.207a.22.22 0 0 0-.138-.073.3.3 0 0 0-.065 0h-.003l.016.124.017.123h-.003l.005.001c.007 0-.007.001-.02-.015-.018-.022-.008-.037-.014-.011a.6.6 0 0 1-.088.167zm-1.528.667c.293-.09.625-.19.904-.297.139-.053.268-.11.373-.167a.7.7 0 0 0 .251-.203l-.206-.14a.5.5 0 0 1-.166.124c-.09.05-.208.101-.342.153-.268.102-.592.2-.887.29zm-.717.238c-.009.017-.018.021-.01.015l.037-.02a2 2 0 0 1 .16-.065c.139-.05.324-.106.53-.168l-.073-.24c-.204.063-.395.12-.54.172a2 2 0 0 0-.188.076l-.07.041a.2.2 0 0 0-.066.071zm-1.117.4c.153-.033.399-.087.615-.148.107-.031.211-.065.294-.1a1 1 0 0 0 .115-.058.3.3 0 0 0 .093-.094l-.22-.118c.007-.013.012-.011-.008.001l-.077.039c-.07.03-.162.06-.266.09-.207.058-.445.11-.6.144zm-.178-.208h.014q.007.001.027.008a.125.125 0 0 1 .001.231l.013-.003.123-.027-.053-.245q-.084.018-.129.03l-.042.011-.023.011a.126.126 0 0 0-.05.16c.021.047.062.062.07.065a.1.1 0 0 0 .049.009zm.074.342q.038.001.074-.007a.16.16 0 0 0 .09-.053.14.14 0 0 0 .02-.143.2.2 0 0 0-.05-.063.3.3 0 0 0-.095-.054.3.3 0 0 0-.113-.022v.25h.002l.006.001.018.005.021.01-.006-.006-.014-.023a.11.11 0 0 1 .05-.14l.014-.005h-.017zm-.432-.05.033.12h.002l.009-.002.14-.033c.087-.019.184-.035.248-.035v-.25c-.093 0-.212.022-.3.04l-.151.036-.01.003h-.003zm.096.254a.4.4 0 0 0 .086-.147.18.18 0 0 0-.032-.165.2.2 0 0 0-.1-.06.2.2 0 0 0-.043-.007h-.006v.25h-.01l-.01-.005a.08.08 0 0 1-.04-.057c-.003-.013 0-.021 0-.023 0 0-.006.016-.037.054zm-.386.105c.04.005.107.013.173.005a.32.32 0 0 0 .213-.11l-.192-.16c-.007.009-.02.018-.05.021a.5.5 0 0 1-.117-.004zm.074-.09a.4.4 0 0 1-.037-.051l.005.02a.11.11 0 0 1-.077.116l-.01.002.045.003.027-.248c-.02-.002-.049-.006-.074-.005q-.02-.002-.051.006a.143.143 0 0 0-.108.156.2.2 0 0 0 .02.064q.025.046.068.096zm.13.318a.13.13 0 0 0 .021-.09.2.2 0 0 0-.014-.048.3.3 0 0 0-.033-.053q-.034-.045-.104-.128l-.192.16c.049.059.078.094.095.117l.008.01a.1.1 0 0 1-.008-.029.12.12 0 0 1 .018-.077zm-.302.046q.071.001.121.01c.015.002.037.005.055.005q.016.001.046-.005a.14.14 0 0 0 .08-.056l-.209-.138a.12.12 0 0 1 .082-.05h.006l-.007-.002-.02-.002c-.034-.004-.088-.012-.154-.012zm-.358-.08c.106.036.234.08.358.08v-.25a1 1 0 0 1-.278-.067zm-.35-.08c.112 0 .222.037.35.08l.08-.237c-.12-.04-.27-.093-.43-.093zm.22.007-.12-.073a1 1 0 0 1-.085-.064q-.012-.012-.002 0c.004.01.02.05-.006.094-.021.035-.052.04-.046.04a.2.2 0 0 1 .04-.004v-.25a.4.4 0 0 0-.101.01.17.17 0 0 0-.108.076.15.15 0 0 0-.003.147.3.3 0 0 0 .053.068c.063.06.179.128.25.17zm.02.011-.02-.01-.128.214.02.011zm-.234.314h.155a.4.4 0 0 0 .117-.017.14.14 0 0 0 .091-.096.14.14 0 0 0-.033-.128.4.4 0 0 0-.097-.073l-.128.215.035.022q.01.009.002 0a.1.1 0 0 1-.016-.026.114.114 0 0 1 .062-.15q.013-.002-.002 0l-.039.002-.147.001zm-.081 0h.08l.001-.25h-.081zm-.304-.024c.049.009.14.024.304.024v-.25c-.146 0-.222-.013-.262-.02zm.095-.101c0-.01 0 .001-.004.016a.12.12 0 0 1-.102.082h-.007.004l.014.003.042-.246-.036-.006c-.008 0-.04-.004-.073.009a.14.14 0 0 0-.082.091c-.007.023-.006.045-.006.051zm-.424.057c.068.024.138.048.19.063a.4.4 0 0 0 .084.015c.012 0 .041 0 .072-.014a.13.13 0 0 0 .078-.121h-.25a.12.12 0 0 1 .097-.114l.012-.001-.027-.007a3 3 0 0 1-.173-.057zm-.368-.104q.041 0 .15.031c.069.02.145.047.218.073l.083-.236c-.072-.025-.154-.054-.23-.076a1 1 0 0 0-.22-.042zm.388.193.06-.109-.005-.003-.017-.01a5 5 0 0 1-.231-.14 1 1 0 0 1-.12-.091l.003.004c.002.004.017.032.009.071a.11.11 0 0 1-.066.08c-.016.006-.026.005-.02.005v-.25a.2.2 0 0 0-.073.013.14.14 0 0 0-.07.202.3.3 0 0 0 .034.045c.04.042.105.09.164.128a4 4 0 0 0 .27.164zm-.505-.03a4 4 0 0 0 .422.137l.037.01.01.003h.002l.001.001.033-.12.033-.121-.003-.001-.01-.003-.153-.044a4 4 0 0 1-.278-.094zm.28.111a3 3 0 0 1-.143-.235c-.003-.008.002.002.002.02a.115.115 0 0 1-.082.104.1.1 0 0 1-.055 0h-.002l.094-.232a.16.16 0 0 0-.107-.009.135.135 0 0 0-.098.13.2.2 0 0 0 .014.074l.024.054c.035.066.095.156.145.232zm.02.425a.13.13 0 0 0 .13-.106.2.2 0 0 0-.007-.077.4.4 0 0 0-.035-.075c-.027-.047-.068-.108-.107-.167l-.209.138c.041.062.077.116.099.154l.015.027-.003-.011c0-.006-.003-.02.001-.038a.12.12 0 0 1 .116-.095zm-.174-.052.082.032a.3.3 0 0 0 .092.02v-.25q.016.002.01 0l-.019-.006-.07-.028zm-.086-.142a.09.09 0 0 1-.063.084c-.017.005-.023 0-.001.005.036.008.09.028.15.053l.094-.232c-.053-.021-.13-.052-.193-.066a.25.25 0 0 0-.125.001.16.16 0 0 0-.112.155zm.168.076a.25.25 0 0 1-.137-.036c-.028-.02-.03-.035-.03-.04h-.25a.3.3 0 0 0 .14.247.5.5 0 0 0 .277.08zm.092.43c.07 0 .13-.036.16-.097a.2.2 0 0 0 .009-.157.265.265 0 0 0-.261-.176v.25q.023.002.023.005.002.002 0 0s-.004-.013.005-.033a.08.08 0 0 1 .064-.041zm-.148-.028c.033.01.093.029.148.029v-.25a.4.4 0 0 1-.077-.019zm.02-.096a.08.08 0 0 1-.028.057.1.1 0 0 1-.052.024l.014.003.046.012.071-.24c-.029-.008-.085-.026-.135-.025a.17.17 0 0 0-.114.043.17.17 0 0 0-.052.126zm.029.025-.03-.036q-.002-.003 0 0v.01h-.25c0 .1.071.168.095.195zm.132.302c0-.16-.085-.25-.132-.302l-.185.169a.4.4 0 0 1 .05.063q.016.024.017.07zm-.392.023c-.026.042-.067.139.007.217.061.065.146.053.185.042a.29.29 0 0 0 .2-.282h-.25q-.002.027-.01.033l-.007.007-.003.002.004-.001h.011c.01.001.032.006.052.027a.1.1 0 0 1 .026.072c-.002.016-.007.022-.003.017zm-.042-.21a.09.09 0 0 1-.046.072.1.1 0 0 1-.045.013l-.016-.002.02.011a.34.34 0 0 1 .113.122c.018.034-.001.021.016-.006l.212.134c.056-.09.023-.187-.004-.24a.6.6 0 0 0-.124-.16.44.44 0 0 0-.161-.1.17.17 0 0 0-.139.013.16.16 0 0 0-.076.142zm0 .187v-.188h-.25v.188zm-.169.274c.018-.005.085-.019.127-.083a.34.34 0 0 0 .042-.191h-.25a.3.3 0 0 1-.003.056c-.002.009-.003.005.003-.003a.1.1 0 0 1 .024-.022h.002l-.012.003zm-.045.025.02-.016.025-.009-.067-.24c-.035.01-.099.027-.161.095zm-.042.063.005-.015a.2.2 0 0 1 .037-.048l-.183-.17a.5.5 0 0 0-.075.102.3.3 0 0 0-.027.07zm-.169.119.04-.002a.2.2 0 0 0 .06-.02.14.14 0 0 0 .058-.064l.01-.033-.242-.06c-.002.009 0 0 .004-.01a.1.1 0 0 1 .044-.049c.02-.01.035-.012.035-.012h-.009zm-.201-.153a1 1 0 0 0 .06.084.2.2 0 0 0 .141.069v-.25a.1.1 0 0 1 .041.01l.005.004-.015-.02-.024-.035zm-.228-.21c.112.039.17.123.228.21l.208-.138c-.056-.085-.155-.238-.353-.308zm-.005-.042.004-.018V9.58l-.01.016a.1.1 0 0 1-.026.021c-.02.01-.034.007-.024.008a.3.3 0 0 1 .06.017l.084-.236a.6.6 0 0 0-.113-.03.2.2 0 0 0-.12.018.17.17 0 0 0-.081.09c-.01.025-.016.053-.019.065zm-.148.24c.116-.082.137-.187.148-.24l-.245-.05a.2.2 0 0 1-.014.05.1.1 0 0 1-.033.036zm-.025-.036-.01-.011q-.001-.003 0 0c.003.004.012.02.01.044s-.012.035-.01.032a.2.2 0 0 1 .035-.029l-.144-.204a.4.4 0 0 0-.084.074.175.175 0 0 0-.018.218.3.3 0 0 0 .04.047zm.078.168c0-.093-.062-.152-.078-.168l-.182.171.012.013.003.004-.003-.007-.002-.013zm-.446-.234c0 .061.022.12.044.164q.037.072.087.125a.3.3 0 0 0 .116.087.15.15 0 0 0 .138-.016.15.15 0 0 0 .061-.126h-.25s0-.046.044-.078a.1.1 0 0 1 .094-.015c.011.004.004.004-.018-.02a.3.3 0 0 1-.049-.07.1.1 0 0 1-.017-.051zm.027-.214a.1.1 0 0 1-.042.077.1.1 0 0 1-.076.017c-.01-.002-.001-.002.022.019q.031.027.053.062l.014.028.002.011h.25a.33.33 0 0 0-.053-.17.5.5 0 0 0-.1-.119.3.3 0 0 0-.131-.074.16.16 0 0 0-.127.022.15.15 0 0 0-.062.127zm-.24.339q.078.002.143-.045a.23.23 0 0 0 .076-.109c.023-.065.021-.142.021-.185h-.25l-.001.066-.006.037c-.002.005 0-.001.008-.008.01-.007.017-.006.01-.006zm.065-.04.002-.02c0-.002 0 .007-.007.018a.1.1 0 0 1-.038.036l-.021.006v-.25a.2.2 0 0 0-.086.018.16.16 0 0 0-.073.068.2.2 0 0 0-.022.067l-.004.042zm-.134.254a.3.3 0 0 0 .113-.139.4.4 0 0 0 .021-.115l-.249-.015a.2.2 0 0 1-.006.042l-.003.006-.014.012zm-.26-.145c0 .01-.002.03 0 .048q0 .016.006.042a.14.14 0 0 0 .041.065.14.14 0 0 0 .144.025.3.3 0 0 0 .069-.035l-.137-.21c-.016.011-.019.011-.013.01 0-.001.054-.02.104.023a.1.1 0 0 1 .035.067v-.004l.001-.016zm-.02-.117c.023.029.024.062.02.117l.25.015c.003-.05.014-.175-.074-.286zm.001-.418a1 1 0 0 0-.054.166.31.31 0 0 0 .053.252l.196-.154c-.002-.003-.01-.016-.003-.054a.5.5 0 0 1 .038-.112zm.18.12.007-.006-.012.007a.122.122 0 0 1-.168-.136l.002-.006-.009.02.23.099.014-.034.007-.023c.001-.004.009-.034 0-.068a.13.13 0 0 0-.137-.092.14.14 0 0 0-.059.021.3.3 0 0 0-.041.032zm-.432.132c.091 0 .281.004.433-.131l-.167-.187c-.071.064-.165.068-.266.068zm-.004 0h.004V9.4h-.004zm-.023.043.038-.043.005-.004-.02.004V9.4a.23.23 0 0 0-.149.06c-.03.027-.054.058-.068.075zm-.27-.078c0 .015 0 .045.012.074a.13.13 0 0 0 .167.078.2.2 0 0 0 .045-.026l.02-.019q.016-.016.026-.03l-.194-.157-.015.017.004-.003a.1.1 0 0 1 .031-.018.12.12 0 0 1 .149.067c.007.019.005.03.005.017zm.535-.542a.51.51 0 0 0-.404.214.7.7 0 0 0-.096.168.5.5 0 0 0-.035.16h.25q-.002-.013.018-.068a.5.5 0 0 1 .061-.108c.055-.07.124-.116.206-.116zm.329-.11c-.082.056-.16.11-.329.11v.25a.75.75 0 0 0 .47-.153zm.089-.056q-.05.029-.09.056l.141.207.068-.043zm-.113.02q.04.02.07.04.03.022.034.027c.004.005-.015-.015-.008-.052.008-.035.032-.043.017-.035l.119.22a.2.2 0 0 0 .11-.133.19.19 0 0 0-.044-.157.6.6 0 0 0-.183-.132zm-.053-.356a.5.5 0 0 0-.046.158c-.004.053.006.15.1.198l.114-.222a.07.07 0 0 1 .033.036c.004.01.002.014.003.008q0-.009.006-.029l.017-.043zm.173.163a.5.5 0 0 0 .11-.079.22.22 0 0 0 .067-.15h-.25q.002-.021.006-.027l-.002.002a.2.2 0 0 1-.05.034zm.177-.23a.15.15 0 0 0-.026-.086.13.13 0 0 0-.135-.053.2.2 0 0 0-.064.03l-.032.03a.6.6 0 0 0-.093.146l.227.106a.4.4 0 0 1 .052-.084q.004-.004 0 0s-.015.012-.04.017a.12.12 0 0 1-.119-.047c-.02-.03-.02-.058-.02-.059zm-.49.321c.09 0 .219-.04.313-.091l-.119-.22a.5.5 0 0 1-.195.061zm-.091-.382c-.022.053-.05.118-.06.17a.2.2 0 0 0 .006.117.15.15 0 0 0 .062.073.16.16 0 0 0 .082.022v-.25a.1.1 0 0 1 .087.062q.009.024.007.029v-.002l.016-.048.031-.079zm.078-.257a.4.4 0 0 1-.023.11q-.024.07-.055.147l.231.094a2 2 0 0 0 .062-.164.6.6 0 0 0 .035-.187zm.032-.24a1 1 0 0 0-.032.24h.25a.8.8 0 0 1 .026-.184zm.166.071.003-.002q0 .002-.022.008a.117.117 0 0 1-.136-.085l-.003-.028q0-.004 0 0l-.008.037.244.055.01-.049c.001-.01.008-.043-.001-.077a.134.134 0 0 0-.158-.098.2.2 0 0 0-.074.036zm-.71-.015c.112.016.255.037.378.048.06.006.12.01.171.008l.076-.007a.2.2 0 0 0 .085-.034l-.145-.203c.014-.01.024-.01.014-.009l-.036.003q-.056 0-.143-.007c-.115-.01-.25-.03-.364-.047zm-.185-.025h.005l.054.007.126.018.036-.248-.129-.018a1 1 0 0 0-.092-.009zm-.086-.315c-.015.03-.038.074-.05.113a.2.2 0 0 0-.002.102.14.14 0 0 0 .058.077c.03.02.059.023.08.023v-.25a.11.11 0 0 1 .101.077.1.1 0 0 1 .004.036l-.001.006.01-.026.023-.045zm.139.055.014-.006-.008.001h-.023a.11.11 0 0 1-.077-.055.1.1 0 0 1-.014-.057c.001-.01.003-.01-.005.008l-.026.054.223.113.032-.067a.3.3 0 0 0 .026-.087.15.15 0 0 0-.018-.088.14.14 0 0 0-.1-.068.2.2 0 0 0-.075.004.3.3 0 0 0-.055.021zm-.802.087c.11 0 .259.002.402-.007.138-.01.29-.03.4-.08l-.106-.227a1 1 0 0 1-.31.057 5 5 0 0 1-.384.007zm-.086 0h.086l.003-.25h-.09zm-.085-.36q-.02.02-.046.053a.3.3 0 0 0-.05.08c-.011.031-.03.107.028.17.048.051.115.056.152.056v-.25h-.005c.004.002.02.007.037.024q.025.032.026.062a.1.1 0 0 1-.004.03c-.001.003 0-.003.012-.017l.034-.038zm.144.177c.012-.007.013-.006.008-.005l-.013.004a.124.124 0 0 1-.127-.188l.002-.003-.014.016.184.17.02-.024.013-.016c.001-.002.016-.022.022-.051a.127.127 0 0 0-.109-.15.1.1 0 0 0-.062.007l-.043.02zm-.474.107a.95.95 0 0 0 .474-.107l-.119-.22a.7.7 0 0 1-.355.077zm-.216-.133c.009.015.03.053.066.084a.23.23 0 0 0 .15.05v-.25h-.004l.012.006.003.003-.003-.006-.007-.011zm-.066-.03a.2.2 0 0 1 .05.005l.003.004.013.02.217-.123c-.012-.02-.037-.068-.088-.104a.33.33 0 0 0-.197-.053zm-.462-.104a.5.5 0 0 0 .204.09c.07.014.151.014.258.013l-.002-.25c-.114 0-.168 0-.208-.008a.3.3 0 0 1-.114-.053zm-.01-.288c-.004.003-.018.012-.031.025a.16.16 0 0 0-.046.076c-.026.097.048.16.087.187l.138-.208c-.008-.006-.001-.004.007.01a.1.1 0 0 1-.013.116q-.006.004.001 0zm-.001.21.05.002c.014 0 .006.001-.007-.003l-.026-.012a.122.122 0 0 1-.02-.193l.005-.005q.003-.001-.001.001l.143.205.011-.008a.13.13 0 0 0 .038-.165c-.026-.048-.072-.06-.077-.062a.2.2 0 0 0-.056-.008l-.06-.001zm-.6 0h.6v-.25h-.6zm.109-.445a.53.53 0 0 0-.293.133.2.2 0 0 0-.056.077.16.16 0 0 0 .012.15.2.2 0 0 0 .11.073q.054.014.119.013v-.25a.2.2 0 0 1-.054-.004c-.008-.003.015 0 .033.029q.015.025.017.051a.1.1 0 0 1-.007.035c-.004.011-.008.013 0 .006a.3.3 0 0 1 .107-.06l.012-.003zm.04.146a.3.3 0 0 1 .05-.014c.01-.001.004.002-.01-.003a.1.1 0 0 1-.068-.066.1.1 0 0 1 .002-.069c.005-.011.007-.008-.005 0-.01.007-.014.006-.009.006v.25c.059 0 .11-.023.147-.047a.26.26 0 0 0 .094-.105.148.148 0 0 0-.094-.21.2.2 0 0 0-.094-.003.5.5 0 0 0-.093.024zm-.547.026c.182.016.369.035.547-.026l-.08-.237c-.12.04-.25.031-.445.014zm-.337-.02c.12 0 .23.01.337.02l.022-.25c-.105-.009-.226-.02-.36-.02zm-.213-.388a.3.3 0 0 0-.18.046.15.15 0 0 0-.063.123.16.16 0 0 0 .05.114.35.35 0 0 0 .164.08q.097.025.242.025v-.25a.8.8 0 0 1-.183-.018c-.046-.01-.054-.021-.047-.015a.1.1 0 0 1 .024.064.1.1 0 0 1-.038.078c-.016.013-.016.003.031.003zm-.104.15q.113 0 .155.012l.02.005q-.003 0-.012-.008a.1.1 0 0 1-.024-.033.11.11 0 0 1 .016-.115c.015-.017.028-.02.023-.019a.3.3 0 0 1-.074.008v.25q.091 0 .162-.023a.2.2 0 0 0 .077-.051.14.14 0 0 0 .024-.153.17.17 0 0 0-.078-.078.3.3 0 0 0-.078-.027 1 1 0 0 0-.21-.019zm-.53-.087c.125.035.307.086.53.086v-.25a1.7 1.7 0 0 1-.463-.077zm-.143-.033c.021 0 .06.01.143.033l.067-.24a.8.8 0 0 0-.21-.043zm0-.386a.35.35 0 0 0-.184.04.16.16 0 0 0-.072.093.16.16 0 0 0 .01.112.23.23 0 0 0 .105.105c.04.021.089.036.14.036v-.25l-.023-.006-.005-.004.003.004.007.011a.1.1 0 0 1 .003.063.1.1 0 0 1-.035.048c-.007.005-.01.004.001.002a.3.3 0 0 1 .05-.004zm.284.137q.043 0 .049.002l-.013-.005a.116.116 0 0 1-.043-.164.1.1 0 0 1 .023-.024q.006-.004-.015.006a1 1 0 0 1-.285.048v.25c.134 0 .286-.03.374-.065a.3.3 0 0 0 .07-.035.2.2 0 0 0 .043-.044.134.134 0 0 0-.057-.196.2.2 0 0 0-.05-.016.5.5 0 0 0-.096-.007zm-.642-.129c.107.029.225.06.335.085.108.024.218.044.307.044v-.25q-.092-.001-.253-.038a8 8 0 0 1-.324-.082zm-.346-.08q.026 0 .124.023.097.023.223.057l.064-.241c-.081-.022-.161-.044-.23-.06a1 1 0 0 0-.18-.028zm.115-.281-.133.025-.04.011a.1.1 0 0 0-.038.023.126.126 0 0 0-.003.19.13.13 0 0 0 .065.03l.034.003v-.25h.008l.017.005a.124.124 0 0 1 .008.232l-.004.002.007-.002.124-.023zm.149.15q.074 0 .114.003c.03.001.04.003.04.003l-.01-.003a.12.12 0 0 1-.069-.086.12.12 0 0 1 .044-.118l.012-.008q.005-.002 0 0c-.019.007-.06.016-.114.027l-.166.032.045.246c.1-.019.248-.045.316-.069l.034-.014c.006-.003.036-.018.057-.05a.13.13 0 0 0-.027-.17c-.025-.02-.053-.027-.062-.03a1 1 0 0 0-.214-.013zm-1.285-.53c.158.103.359.235.577.34s.461.19.708.19v-.25c-.193 0-.397-.066-.6-.164a5 5 0 0 1-.548-.325zm-.282-.17q.081.034.282.17l.137-.21c-.122-.08-.242-.16-.329-.193zm.208-.405c-.063-.07-.15-.064-.201-.05a.3.3 0 0 0-.142.093.21.21 0 0 0-.04.204c.027.08.098.129.175.158l.09-.233c-.046-.018-.037-.028-.03-.008a.05.05 0 0 1 .002.029l-.003.007.007-.006.008-.003h-.012a.07.07 0 0 1-.038-.022zm.206.29c.029.014.027.016.018.007a.12.12 0 0 1 .067-.203c.011-.002.012 0-.008-.003l-.061-.013a1.4 1.4 0 0 1-.211-.074c-.017-.009-.017-.011-.01-.004l-.185.168a.3.3 0 0 0 .078.057 1 1 0 0 0 .084.038 1.6 1.6 0 0 0 .264.075.3.3 0 0 0 .08.004.13.13 0 0 0 .074-.226.3.3 0 0 0-.08-.051zm-.47-.416c.073.098.226.297.47.416l.11-.225a1.06 1.06 0 0 1-.378-.34zm.254-.256a.25.25 0 0 0-.118-.06.16.16 0 0 0-.155.055.18.18 0 0 0-.034.145.3.3 0 0 0 .054.116l.2-.149c-.01-.013-.009-.018-.008-.013 0 .003.005.03-.02.06a.09.09 0 0 1-.08.032c-.014-.002-.015-.007-.003.003zm.408.388.06-.11h-.002l-.003-.002-.012-.007-.047-.025a12 12 0 0 1-.307-.178 1 1 0 0 1-.097-.066l-.164.19c.03.026.08.058.13.089a6 6 0 0 0 .317.184l.048.026.013.007.003.002h.002zm-.497-.472a2.5 2.5 0 0 0 .407.56l.002.002h.001l.087-.09.087-.09-.002-.001-.006-.006a1.4 1.4 0 0 1-.111-.125 2.2 2.2 0 0 1-.244-.367zm.655-.154a1.4 1.4 0 0 0-.243-.164.7.7 0 0 0-.231-.078.26.26 0 0 0-.123.015.2.2 0 0 0-.106.108.25.25 0 0 0-.005.14q.016.064.053.133l.221-.117a.3.3 0 0 1-.03-.072c-.003-.015.001-.011-.004.003a.07.07 0 0 1-.035.036c-.009.004-.01.001.004.003a.4.4 0 0 1 .14.05c.063.033.132.079.199.135zm.639.295a1.2 1.2 0 0 1-.639-.295l-.16.192c.315.263.614.336.773.352zm-.477-.09c.13.072.26.154.338.213l.044.036c.012.011.01.012.006.005a.1.1 0 0 1-.012-.046.12.12 0 0 1 .043-.094.1.1 0 0 1 .051-.023h.007l-.026.248q.02.002.049 0a.15.15 0 0 0 .076-.03.13.13 0 0 0 .05-.112.15.15 0 0 0-.022-.07.3.3 0 0 0-.052-.061l-.063-.052a3 3 0 0 0-.368-.233zm.15-.661a.3.3 0 0 0-.128-.08.19.19 0 0 0-.16.029.24.24 0 0 0-.079.109.4.4 0 0 0-.024.12c-.01.15.05.377.24.483l.122-.219c-.075-.041-.119-.152-.113-.25a.2.2 0 0 1 .009-.045c.004-.01.004-.004-.007.004a.06.06 0 0 1-.051.01c-.01-.002-.005-.004.012.013zm1.066.495a24 24 0 0 1-.696-.296 4 4 0 0 1-.252-.122.6.6 0 0 1-.118-.077l-.18.174a.8.8 0 0 0 .179.122q.113.061.268.13c.204.093.457.198.704.3zm1.053.493a1 1 0 0 0-.167-.105 5 5 0 0 0-.245-.117c-.185-.083-.413-.177-.641-.271l-.095.23c.228.095.452.188.634.269q.137.061.23.11a1 1 0 0 1 .121.073zm-.323-.2c.09.142.169.267.202.336l.01.022-.002-.01v-.024a.12.12 0 0 1 .073-.09c.039-.016.07-.005.075-.004l.008.003-.043-.033-.163.19a1 1 0 0 0 .075.056.2.2 0 0 0 .044.021.14.14 0 0 0 .098-.002.13.13 0 0 0 .08-.104.2.2 0 0 0-.002-.061.4.4 0 0 0-.028-.072c-.04-.085-.13-.227-.215-.362zm-.106-.17.107.17.211-.134-.105-.168zm1.039.09c-.263-.121-.518-.239-.693-.301a1 1 0 0 0-.122-.039.4.4 0 0 0-.113-.013.2.2 0 0 0-.076.024.14.14 0 0 0-.068.092.2.2 0 0 0 .005.089.3.3 0 0 0 .028.057l.213-.13q-.005-.011-.003-.005a.1.1 0 0 1 .001.045.1.1 0 0 1-.047.066.1.1 0 0 1-.034.012q-.005-.002.034.006.038.01.098.03c.162.06.405.17.672.293zm1.03.425c-.24-.064-.643-.248-1.03-.426l-.105.227c.377.173.804.37 1.073.44zm.606.195a8 8 0 0 0-.605-.195l-.063.241c.17.045.374.116.585.19zm.866.245c0 .006 0-.003.008-.013.008-.008.012-.006 0-.004a.5.5 0 0 1-.181-.013 6 6 0 0 1-.694-.215l-.082.236c.255.09.523.184.727.225.1.02.203.03.287.01a.25.25 0 0 0 .13-.074.23.23 0 0 0 .055-.152zm1.065-1.14a1.9 1.9 0 0 0-.73.485 1.5 1.5 0 0 0-.238.322.7.7 0 0 0-.097.333h.25q-.002-.083.067-.215.07-.131.199-.268c.17-.18.399-.34.63-.42zm.773.13c-.092-.061-.194-.13-.32-.163a.76.76 0 0 0-.453.033l.081.237a.5.5 0 0 1 .309-.029.9.9 0 0 1 .245.13zm.377.193a1.4 1.4 0 0 1-.377-.193l-.137.208c.11.073.245.164.44.224zm-.5 2.992-.125.004v.011l.002.031a9 9 0 0 1 0 .453c-.003.124-.01.244-.022.33a.5.5 0 0 1-.018.088q-.006.01.004-.004A.1.1 0 0 1 24 8.589v.25a.15.15 0 0 0 .117-.057.2.2 0 0 0 .037-.068.7.7 0 0 0 .031-.14c.015-.101.021-.232.025-.359a10 10 0 0 0 0-.465l-.001-.032v-.011zm.463.882a1 1 0 0 0-.059-.29 3 3 0 0 0-.12-.302 6 6 0 0 0-.159-.322l-.01-.02-.004-.006V7.65l-.11.06-.11.06v.002l.003.005.048.09c.031.061.072.144.114.236.04.091.081.189.111.278q.046.141.046.21zm-.007.181.002-.043c.003-.031.005-.074.005-.138h-.25c0 .056-.002.092-.004.119-.002.022-.005.054-.002.084zm.098.224-.083-.183-.014-.034-.001-.007-.25.022a.4.4 0 0 0 .035.118l.085.187zm-.28.28c.036.013.074.027.105.035a.3.3 0 0 0 .057.01c.02.001.053.001.087-.016a.15.15 0 0 0 .075-.095.2.2 0 0 0 .002-.081.6.6 0 0 0-.046-.133l-.228.103.028.074c0 .004-.002-.008.002-.026a.1.1 0 0 1 .053-.065c.024-.012.042-.01.043-.01l-.008-.002-.084-.03zm-.483-.103c.198 0 .363.059.483.103l.086-.235c-.121-.044-.323-.118-.569-.118zm.126-.585a.3.3 0 0 0-.103.022.8.8 0 0 0-.28.184.3.3 0 0 0-.069.103.18.18 0 0 0 .015.167c.034.053.09.077.136.09a.7.7 0 0 0 .175.019v-.25a.4.4 0 0 1-.11-.01c-.02-.006-.006-.008.008.014a.07.07 0 0 1 .01.06c-.001.002.001-.005.016-.02a.6.6 0 0 1 .188-.123c.021-.008.024-.006.014-.006z"/></g></g></g><defs><clipPath id="a"><path fill="#fff" d="M0 0h32v24H0z"/></clipPath></defs></svg>