<svg xmlns="http://www.w3.org/2000/svg" width="32" height="24" fill="none" viewBox="0 0 32 24"><g clip-path="url(#a)"><mask id="b" width="32" height="24" x="0" y="0" maskUnits="userSpaceOnUse" style="mask-type:luminance"><path fill="#fff" d="M32 0H0v24h32z"/></mask><g mask="url(#b)"><path fill="#fff" d="M32 0H0v24h32z"/><path fill="#F7FCFF" fill-rule="evenodd" d="M0 0v24h32V0z" clip-rule="evenodd"/><mask id="c" width="32" height="24" x="0" y="0" maskUnits="userSpaceOnUse" style="mask-type:luminance"><path fill="#fff" fill-rule="evenodd" d="M0 0v24h32V0z" clip-rule="evenodd"/></mask><g mask="url(#c)"><path fill="#FECA00" fill-rule="evenodd" d="M0 2v20h32V2z" clip-rule="evenodd"/><path fill="#272727" stroke="#E31D1C" stroke-width="3.5" d="M0 8.25h-1.75v7.5h35.5v-7.5z"/><path fill="#5EAA22" fill-rule="evenodd" d="M0 4V0h32v4zm0 20v-4h32v4z" clip-rule="evenodd"/></g><path fill="#F7FCFF" stroke="#272727" stroke-width="2" d="M.597-.804-1-1.992v27.951l1.587-1.151L16.918 12.96l1.102-.8-1.092-.812z"/><mask id="d" width="22" height="32" x="-2" y="-4" maskUnits="userSpaceOnUse" style="mask-type:luminance"><path fill="#fff" stroke="#fff" stroke-width="2" d="M.597-.804-1-1.992v27.951l1.587-1.151L16.918 12.96l1.102-.8-1.092-.812z"/></mask><g mask="url(#d)"><path fill="#E31D1C" fill-rule="evenodd" d="m7.48 14.275-3.78 3.05 1.734-4.076-2.979-2.868h3.516l1.442-3.46 1.532 3.46h3.51L9.32 13.249l1.57 4.077z" clip-rule="evenodd"/><path fill="#FECA00" fill-rule="evenodd" d="M5.02 8.418s-.056-.132.268-.249.423-.365.677-.182c.253.182.412-.184.485.341.073.526.274 1.355.274 1.355l3.287 2.471h-.617s-.962 1.413-.804 2.653c0 0-.663-.1-1.563-.1s-1.488.215-1.488.215l-.52-1.924s.188-.323.27-.583c.08-.26.415-.309.415-.516s-.33-.381-.165-.917c.165-.537.165-2.141.165-2.141s-.522-.23-.416-.23.348-.193.174-.193z" clip-rule="evenodd"/><path stroke="#0A0A0A" stroke-width="0.25" d="m6.723 9.683-.122.03m0 0 .01.043.037.027 2.988 2.246h-.309l-.038.055M6.601 9.713V9.71l-.002-.007-.007-.027a21 21 0 0 1-.1-.446c-.06-.274-.13-.617-.167-.884a.6.6 0 0 0-.047-.192l-.022.003a.46.46 0 0 1-.365-.069c-.05-.035-.079-.04-.096-.041a.2.2 0 0 0-.083.028l-.08.05-.072.047a1.2 1.2 0 0 1-.248.121h.149c.03 0 .07.004.106.023.046.025.08.072.08.132 0 .046-.02.082-.032.1a.3.3 0 0 1-.075.08c.048.023.096.046.135.063l.057.026.016.007.004.002h.001l.075.033v.082m3.461 3.243.104.07m-.104-.07v.001l-.003.004-.009.013-.031.048a6 6 0 0 0-.43.816c-.204.473-.4 1.093-.365 1.697a13 13 0 0 0-1.424-.082c-.46 0-.84.055-1.108.11a4 4 0 0 0-.294.073l-.473-1.749.006-.011q.031-.055.076-.144a3 3 0 0 0 .173-.408c.026-.086.094-.14.194-.215l.003-.003c.044-.033.098-.073.14-.122a.32.32 0 0 0 .084-.213.46.46 0 0 0-.064-.214l-.035-.064a1 1 0 0 1-.057-.11c-.05-.11-.087-.257-.015-.493.045-.146.077-.357.1-.584.024-.23.04-.483.05-.718a23 23 0 0 0 .02-.804v-.066l.001-.004v-.001m0 0h-.125"/></g></g></g><defs><clipPath id="a"><path fill="#fff" d="M0 0h32v24H0z"/></clipPath></defs></svg>