<svg xmlns="http://www.w3.org/2000/svg" width="56" height="56" fill="none" viewBox="0 0 56 56"><g clip-path="url(#a)"><path fill="#FFDA44" d="M15.826 53.222A27.9 27.9 0 0 0 28 56a27.9 27.9 0 0 0 12.174-2.778L42.61 28 40.174 2.778A27.9 27.9 0 0 0 28 0c-4.363 0-8.492.998-12.174 2.778L13.392 28z"/><path fill="#D80027" d="M40.174 53.22C49.54 48.693 56 39.1 56 28S49.54 7.308 40.174 2.78z"/><path fill="#0052B4" d="M15.826 53.22V2.78C6.46 7.307 0 16.9 0 28s6.46 20.692 15.826 25.22"/><path fill="#D80027" d="M28 37.74V28h7.304v3.652c0 .635-1.217 2.96-4.222 4.87-1.138.723-2.316.956-3.082 1.217m-7.305-17.043H28V28h-7.305z"/><path fill="#FF9811" d="M31.652 18.261A2.435 2.435 0 0 0 28 16.154a2.435 2.435 0 0 0-3.652 2.107H18.26v12.174c0 4.532 3.599 7.153 6.421 8.511A2.435 2.435 0 0 0 28 42.28a2.435 2.435 0 0 0 3.317-3.334c2.824-1.358 6.423-3.98 6.423-8.511V18.26zm2.435 12.174c0 .634 0 2.565-3.005 4.475-1.138.724-2.316 1.193-3.082 1.454-.766-.261-1.944-.73-3.082-1.454-3.005-1.91-3.005-3.84-3.005-4.475v-8.522h12.174z"/></g><defs><clipPath id="a"><path fill="#fff" d="M0 0h56v56H0z"/></clipPath></defs></svg>