<svg xmlns="http://www.w3.org/2000/svg" width="56" height="56" fill="none" viewBox="0 0 56 56"><g clip-path="url(#a)"><path fill="#F0F0F0" d="M28 56c15.464 0 28-12.536 28-28S43.464 0 28 0 0 12.536 0 28s12.536 28 28 28"/><path fill="#000" d="m15.826 37.74 2.435 16.519A27.9 27.9 0 0 0 28 56c12.039 0 22.302-7.598 26.258-18.26z"/><path fill="#6DA544" d="m15.826 18.26 2.435-16.519A27.9 27.9 0 0 1 28 0c12.039 0 22.302 7.599 26.258 18.26z"/><path fill="#A2001D" d="M0 28c0 12.039 7.599 22.302 18.26 26.258V1.741C7.6 5.697 0 15.961 0 28"/></g><defs><clipPath id="a"><path fill="#fff" d="M0 0h56v56H0z"/></clipPath></defs></svg>