<svg xmlns="http://www.w3.org/2000/svg" width="56" height="56" fill="none" viewBox="0 0 56 56"><g clip-path="url(#a)"><path fill="#D80027" d="M40.174 2.778A27.9 27.9 0 0 0 28 0a27.9 27.9 0 0 0-12.174 2.778L13.392 28l2.434 25.222A27.9 27.9 0 0 0 28 56a27.9 27.9 0 0 0 12.174-2.778L42.61 28z"/><path fill="#000" d="M15.826 2.78C6.46 7.307 0 16.9 0 28s6.46 20.692 15.826 25.22z"/><path fill="#496E2D" d="M40.174 2.78v50.44C49.54 48.693 56 39.1 56 28S49.54 7.308 40.174 2.78"/><path fill="#FFDA44" d="M28 18.26c-5.379 0-9.74 4.361-9.74 9.74s4.361 9.739 9.74 9.739 9.739-4.36 9.739-9.74c0-5.378-4.36-9.738-9.74-9.738m0 15.827a6.087 6.087 0 1 1 0-12.174 6.087 6.087 0 0 1 0 12.174"/><path fill="#FFDA44" d="M28 24.348a2.435 2.435 0 0 0-2.435 2.435v3.652h4.87v-3.652A2.435 2.435 0 0 0 28 24.348"/></g><defs><clipPath id="a"><path fill="#fff" d="M0 0h56v56H0z"/></clipPath></defs></svg>