<svg xmlns="http://www.w3.org/2000/svg" width="56" height="56" fill="none" viewBox="0 0 56 56"><g clip-path="url(#a)"><path fill="#0052B4" d="M0 28c0 1.918.193 3.79.56 5.6L28 35.305 55.44 33.6c.367-1.81.56-3.682.56-5.6s-.193-3.79-.56-5.6L28 20.696.56 22.4A28 28 0 0 0 0 28"/><path fill="#F0F0F0" d="M55.44 33.6H.56C3.156 46.38 14.455 56 28 56s24.845-9.62 27.44-22.4"/><path fill="#000" d="M.56 22.4h54.88C52.844 9.62 41.545 0 28 0S3.155 9.62.56 22.4"/><path fill="#FFDA44" d="M40.174 22.4H15.826l4.974-2.34-2.648-4.818 5.401 1.034.685-5.457L28 14.832l3.762-4.013.685 5.457 5.401-1.034L35.2 20.06z"/><path fill="#A2001D" d="M0 28c0 15.464 12.536 28 28 28L5.6 11.2A27.88 27.88 0 0 0 0 28m28 28c15.464 0 28-12.536 28-28a27.87 27.87 0 0 0-5.6-16.8z"/></g><defs><clipPath id="a"><path fill="#fff" d="M0 0h56v56H0z"/></clipPath></defs></svg>