<svg xmlns="http://www.w3.org/2000/svg" width="56" height="56" fill="none" viewBox="0 0 56 56"><g clip-path="url(#a)"><path fill="#0052B4" d="M56 28c0 15.464-12.536 28-28 28S0 43.464 0 28C0 28.007 28 .003 28 0c15.464 0 28 12.536 28 28"/><path fill="#F0F0F0" d="M27.925 28H28v-.075z"/><path fill="#F0F0F0" d="M28 14.609V0h-.005C12.533.003 0 12.538 0 28h14.609v-8.226L22.835 28h5.09l.075-.075v-5.09l-8.226-8.226z"/><path fill="#D80027" d="M14.166 3.652A28.13 28.13 0 0 0 3.652 14.166V28h7.305V10.957H28V3.652z"/><path fill="#D80027" d="m28 24.557-9.948-9.948h-3.444L28 28z"/><path fill="#F3F3F3" d="M47.353 32.099c.805-1.108 1.343-2.46 1.343-4.099V15.826a6.06 6.06 0 0 1-3.652 1.218 6.08 6.08 0 0 1-4.87-2.435 6.08 6.08 0 0 1-4.87 2.435 6.06 6.06 0 0 1-3.652-1.218V28c0 1.638.538 2.991 1.343 4.099z"/><path fill="#FF9811" d="M44.82 25.742c.388-.946.689-2.328.689-3.016 0-1.105-1.44-2-1.44-2s-1.442.895-1.442 2c0 .688.302 2.07.69 3.016l-.833 1.878a4.2 4.2 0 0 0 3.168 0zm-5.632-6.082c-1.012.138-2.36.568-2.956.912-.957.553-1.012 2.249-1.012 2.249s1.496.8 2.453.247c.596-.344 1.642-1.296 2.267-2.105l2.043-.218A4.2 4.2 0 0 0 40.399 18zm-2.45 7.919c.625.808 1.671 1.76 2.267 2.104.957.552 2.453-.247 2.453-.247s-.055-1.696-1.012-2.249c-.596-.344-1.944-.774-2.956-.91l-1.21-1.66a4.2 4.2 0 0 0-1.585 2.743z"/><path fill="#338AF3" d="M32.693 31.652c2.274 3.648 7.48 4.87 7.48 4.87s5.207-1.221 7.48-4.87z"/></g><defs><clipPath id="a"><path fill="#fff" d="M0 0h56v56H0z"/></clipPath></defs></svg>