<svg xmlns="http://www.w3.org/2000/svg" width="56" height="56" fill="none" viewBox="0 0 56 56"><g clip-path="url(#a)"><path fill="#D80027" d="M28 56c15.464 0 28-12.536 28-28S43.464 0 28 0 0 12.536 0 28s12.536 28 28 28"/><path fill="#000" d="M43.826 20.782H33.684A3.652 3.652 0 1 0 28 16.242a3.652 3.652 0 1 0-5.684 4.54H12.174c0 2.69 2.342 4.87 5.032 4.87h-.163a4.87 4.87 0 0 0 4.87 4.87c0 .87.23 1.687.63 2.394l-4.039 4.04 3.099 3.098 4.396-4.396q.258.096.534.149l-2.656 5.997L28 46.261l4.123-4.457-2.657-5.998q.276-.052.535-.148l4.396 4.396 3.099-3.099-4.04-4.04c.401-.706.63-1.523.63-2.394a4.87 4.87 0 0 0 4.87-4.87h-.162c2.69 0 5.032-2.18 5.032-4.869"/></g><defs><clipPath id="a"><path fill="#fff" d="M0 0h56v56H0z"/></clipPath></defs></svg>