<svg xmlns="http://www.w3.org/2000/svg" width="56" height="56" fill="none" viewBox="0 0 56 56"><g clip-path="url(#a)"><path fill="#D80027" d="M0 28C0 12.536 12.536 0 28 0s28 12.536 28 28c-1.217 0-28 3.652-28 3.652z"/><path fill="#000" d="M56 28c0 15.464-12.536 28-28 28S0 43.464 0 28"/><path fill="#FFDA44" d="m24.16 22.27 2.374 1.723-.905 2.79 2.372-1.726 2.374 1.723-.908-2.79 2.372-1.725-2.933.002-.908-2.789-.905 2.79z"/><path fill="#FFDA44" d="M35 15.876a13.9 13.9 0 0 0-7-1.871v3.651c1.76-.003 3.543.441 5.173 1.383 4.942 2.853 6.641 9.194 3.788 14.135-2.853 4.942-9.194 6.64-14.135 3.788a10.3 10.3 0 0 1-3.459-3.262l-3.049 2.013A13.9 13.9 0 0 0 21 40.124c6.685 3.86 15.264 1.562 19.124-5.124 3.86-6.685 1.561-15.264-5.124-19.124"/><path fill="#FFDA44" d="M19.926 25.565a3.65 3.65 0 0 0 1.452 4.957l11.861 6.482c-.806 1.474-.378 3.27 1.097 4.076l3.204 1.753a3.044 3.044 0 0 0 4.13-1.21l1.753-3.204z"/></g><defs><clipPath id="a"><path fill="#fff" d="M0 0h56v56H0z"/></clipPath></defs></svg>