<svg xmlns="http://www.w3.org/2000/svg" width="56" height="56" fill="none" viewBox="0 0 56 56"><g clip-path="url(#a)"><path fill="#F0F0F0" d="M28 56c15.464 0 28-12.536 28-28S43.464 0 28 0 0 12.536 0 28s12.536 28 28 28"/><path fill="#338AF3" d="M28 0C16.9 0 7.307 6.46 2.778 15.826h50.444C48.692 6.46 39.1 0 28 0m0 56c11.1 0 20.693-6.46 25.222-15.826H2.778C7.308 49.54 16.9 56 28 56"/><path fill="#FFDA44" d="m36.369 28-3.42 1.609 1.82 3.311-3.712-.71-.47 3.751L28 33.202l-2.587 2.76-.47-3.752-3.713.71 1.82-3.311L19.63 28l3.42-1.608-1.82-3.312 3.713.71.47-3.75L28 22.797l2.586-2.759.47 3.751 3.714-.71-1.821 3.312z"/></g><defs><clipPath id="a"><path fill="#fff" d="M0 0h56v56H0z"/></clipPath></defs></svg>