<svg xmlns="http://www.w3.org/2000/svg" width="56" height="56" fill="none" viewBox="0 0 56 56"><g clip-path="url(#a)"><path fill="#F0F0F0" d="M28 56c15.464 0 28-12.536 28-28S43.464 0 28 0 0 12.536 0 28s12.536 28 28 28"/><path fill="#0052B4" d="M41.584 3.512A27.9 27.9 0 0 0 28 0C12.537 0 .002 12.534 0 27.997l19.478-9.736zM0 28.003C.002 43.466 12.537 56 28 56c4.93 0 9.56-1.275 13.584-3.512L19.478 37.739z"/><path fill="#D80027" d="M43.917 4.964a28 28 0 0 0-2.334-1.451L0 27.997v.006l41.583 24.484q1.205-.67 2.334-1.45L4.793 28z"/><path fill="#A2001D" d="M48.695 26.956H45.36a2.65 2.65 0 0 0-.163-3.567 2.65 2.65 0 0 0 0-3.748l-.063.063c1.035-1.035 1.097-2.776.063-3.81l-14.99 14.99a2.614 2.614 0 0 0 3.717-.012l.289-.264 7.178-.652v3.087h2.435v-3.309l3.652-.332z"/><path fill="#FFDA44" d="M30.436 34.087 28 32.87l2.436-1.218h15.826v2.435z"/></g><defs><clipPath id="a"><path fill="#fff" d="M0 0h56v56H0z"/></clipPath></defs></svg>