<svg xmlns="http://www.w3.org/2000/svg" width="56" height="56" fill="none" viewBox="0 0 56 56"><g clip-path="url(#a)"><path fill="#0052B4" d="M56 28c0 15.464-12.536 28-28 28S0 43.464 0 28C0 28.007 28 .003 28 0c15.464 0 28 12.536 28 28"/><path fill="#F0F0F0" d="M27.925 28H28v-.075z"/><path fill="#F0F0F0" d="M28 14.609V0h-.005C12.534.003 0 12.537 0 28h14.609v-8.226L22.835 28h5.09l.075-.075v-5.09l-8.226-8.226z"/><path fill="#D80027" d="M14.166 3.652A28.13 28.13 0 0 0 3.652 14.166V28h7.305V10.957H28V3.652z"/><path fill="#D80027" d="m28 24.557-9.947-9.948h-3.444L28 28z"/><path fill="#F0F0F0" d="m16.887 32.87 1.537 3.213 3.47-.802-1.554 3.205 2.79 2.213-3.474.783.01 3.562-2.779-2.229-2.779 2.229.01-3.562-3.474-.783 2.79-2.213-1.554-3.205 3.47.802zm25.036 6.087.768 1.606 1.735-.4-.777 1.602 1.395 1.106-1.737.392.005 1.78-1.39-1.114-1.389 1.114.005-1.78-1.737-.392 1.395-1.107-.777-1.602 1.735.401zm-7.149-17.044.768 1.606 1.736-.4-.777 1.602 1.395 1.106-1.737.392.004 1.78-1.389-1.114L33.384 28l.005-1.78-1.737-.392 1.396-1.106-.777-1.603 1.735.401zm7.149-9.739.768 1.607 1.735-.402-.777 1.603 1.395 1.106-1.737.392.005 1.78-1.39-1.113-1.389 1.114.005-1.781-1.737-.392 1.395-1.106-.777-1.602 1.735.4zm6.242 7.304.768 1.607 1.735-.401-.777 1.602 1.395 1.107-1.737.391.005 1.781-1.39-1.114-1.389 1.114.005-1.78-1.737-.392 1.395-1.107-.777-1.602 1.735.4zM43.7 28l.605 1.86h1.956l-1.582 1.15.604 1.86-1.582-1.15-1.582 1.15.604-1.86-1.582-1.15h1.955z"/></g><defs><clipPath id="a"><path fill="#fff" d="M0 0h56v56H0z"/></clipPath></defs></svg>