<svg xmlns="http://www.w3.org/2000/svg" width="56" height="56" fill="none" viewBox="0 0 56 56"><g clip-path="url(#a)"><path fill="#FFDA44" d="M28 56c15.464 0 28-12.536 28-28S43.464 0 28 0 0 12.536 0 28s12.536 28 28 28"/><path fill="#338AF3" d="M28 56c8.486 0 16.09-3.776 21.225-9.74H6.775C11.908 52.225 19.512 56 28 56m28-28C56 12.536 43.464 0 28 0S0 12.536 0 28c0 2.527.337 4.975.965 7.304h54.07C55.664 32.975 56 30.527 56 28M2.226 38.957a28 28 0 0 0 1.884 3.652h47.78a28 28 0 0 0 1.885-3.653z"/><path fill="#F0F0F0" d="m12.832 17.66-5.47-2.414 5.47-2.415 2.414-5.47 2.414 5.47 5.47 2.415-5.47 2.414-2.414 5.47z"/><path fill="#D80027" d="m15.247 10.376 1.49 3.379 3.379 1.49-3.379 1.492-1.49 3.378-1.492-3.378-3.378-1.491 3.378-1.492z"/></g><defs><clipPath id="a"><path fill="#fff" d="M0 0h56v56H0z"/></clipPath></defs></svg>