<svg xmlns="http://www.w3.org/2000/svg" width="56" height="56" fill="none" viewBox="0 0 56 56"><g clip-path="url(#a)"><path fill="#D80027" d="M56 28c0-3.425-.616-6.706-1.742-9.74L28 17.045 1.742 18.26A28 28 0 0 0 0 28c0 3.425.616 6.706 1.742 9.74L28 38.955l26.258-1.217A27.9 27.9 0 0 0 56 28"/><path fill="#6DA544" d="M28 56c12.04 0 22.303-7.598 26.259-18.26H1.742C5.698 48.401 15.962 56 28.001 56"/><path fill="#338AF3" d="M1.742 18.26H54.26C50.303 7.599 40.04 0 28.001 0 15.96 0 5.698 7.599 1.742 18.26"/><path fill="#F0F0F0" d="M28.609 35.914a7.913 7.913 0 1 1 3.764-14.876 9.7 9.7 0 0 0-6.808-2.777c-5.379 0-9.739 4.36-9.739 9.74 0 5.378 4.36 9.738 9.74 9.738 2.65 0 5.05-1.06 6.807-2.777a7.9 7.9 0 0 1-3.764.951"/><path fill="#F0F0F0" d="m34.695 22.522 1.048 2.948 2.826-1.344-1.343 2.826L40.173 28l-2.947 1.049 1.343 2.825-2.826-1.343-1.048 2.947-1.048-2.947-2.826 1.343 1.344-2.825L29.217 28l2.948-1.048-1.344-2.826 2.826 1.344z"/></g><defs><clipPath id="a"><path fill="#fff" d="M0 0h56v56H0z"/></clipPath></defs></svg>