<svg xmlns="http://www.w3.org/2000/svg" width="56" height="56" fill="none" viewBox="0 0 56 56"><g clip-path="url(#a)"><path fill="#F0F0F0" d="M28 56c15.464 0 28-12.536 28-28S43.464 0 28 0 0 12.536 0 28s12.536 28 28 28"/><path fill="#FFDA44" d="M28 0C18.072 0 9.352 5.167 4.38 12.959l37.97 39.087C50.525 47.156 56 38.218 56 28 56 12.536 43.464 0 28 0"/><path fill="#0052B4" d="M56 28a27.9 27.9 0 0 0-7.305-18.86v37.72A27.9 27.9 0 0 0 56 28M34.977 52.705l2.933-.002.905-2.79.908 2.789 1.47-.001a28 28 0 0 0 2.615-1.59l-38.92-38.92a28 28 0 0 0-1.752 2.927l.345 1.062 2.933-.002-2.371 1.726.908 2.788-2.374-1.722L1.16 20A28 28 0 0 0 0 28c0 15.464 12.536 28 28 28 3.27 0 6.407-.562 9.324-1.592zM6.245 26.782l.905-2.79-2.374-1.722 2.933-.002.905-2.79.908 2.789 2.932-.002-2.371 1.725.908 2.79-2.374-1.723zm6.04 6.087.905-2.79-2.374-1.722 2.933-.002.905-2.79.908 2.789 2.933-.002-2.372 1.725.908 2.79-2.374-1.723zm6.04 6.087.905-2.79-2.374-1.722 2.933-.002.905-2.79.908 2.789 2.933-.002-2.372 1.725.908 2.79-2.374-1.723zm8.413 4.362-2.372 1.725.904-2.79-2.373-1.722 2.932-.002.905-2.79.908 2.789 2.933-.002-2.372 1.725.909 2.79zm3.668 7.812.904-2.79-2.373-1.722 2.933-.002.904-2.79.908 2.789 2.933-.002-2.371 1.725.908 2.79-2.374-1.724z"/></g><defs><clipPath id="a"><path fill="#fff" d="M0 0h56v56H0z"/></clipPath></defs></svg>