<svg xmlns="http://www.w3.org/2000/svg" width="56" height="56" fill="none" viewBox="0 0 56 56"><g clip-path="url(#a)"><path fill="#FFDA44" d="M40.174 2.778A27.9 27.9 0 0 0 28 0a27.9 27.9 0 0 0-12.174 2.778L13.392 28l2.434 25.222A27.9 27.9 0 0 0 28 56a27.9 27.9 0 0 0 12.174-2.778L42.61 28z"/><path fill="#0052B4" d="M15.826 2.78C6.46 7.307 0 16.9 0 28s6.46 20.692 15.826 25.22zm24.348 0v50.44C49.54 48.693 56 39.1 56 28S49.54 7.308 40.174 2.78"/><path fill="#000" d="m36.523 17.043 1.633.817zl-1.634-.816c-.098.197-2.231 4.536-2.58 11.164h-2.482V17.043L28 14.608l-1.826 2.435v10.348h-2.483c-.349-6.628-2.481-10.967-2.58-11.164l-3.266 1.633c.022.045 2.242 4.563 2.242 11.357v1.826h6.087v10.348h3.652V31.043h6.087v-1.826c0-3.513.608-6.41 1.118-8.221.556-1.975 1.12-3.129 1.126-3.14z"/></g><defs><clipPath id="a"><path fill="#fff" d="M0 0h56v56H0z"/></clipPath></defs></svg>