<svg xmlns="http://www.w3.org/2000/svg" width="56" height="56" fill="none" viewBox="0 0 56 56"><g clip-path="url(#a)"><path fill="#F0F0F0" d="M28 56c15.464 0 28-12.536 28-28S43.464 0 28 0 0 12.536 0 28s12.536 28 28 28"/><path fill="#D80027" d="M28 0a27.86 27.86 0 0 0-15.236 4.506l7.2 4.827-9.008 4.666 9.009 4.667-9.009 4.666 9.009 4.666-9.009 4.667 9.009 4.666-9.009 4.667 9.009 4.667-7.202 4.828A27.87 27.87 0 0 0 28 56c15.463 0 28-12.536 28-28S43.463 0 28 0"/></g><defs><clipPath id="a"><path fill="#fff" d="M0 0h56v56H0z"/></clipPath></defs></svg>