<svg xmlns="http://www.w3.org/2000/svg" width="56" height="56" fill="none" viewBox="0 0 56 56"><g clip-path="url(#a)"><path fill="#F0F0F0" d="M28 56c15.464 0 28-12.536 28-28S43.464 0 28 0 0 12.536 0 28s12.536 28 28 28"/><path fill="#D80027" d="M45.05 5.786c-10.025-7.714-24.074-7.714-34.099 0l17.05 17.049zM28 33.165 10.95 50.214c10.025 7.713 24.074 7.713 34.098 0z"/><path fill="#6DA544" d="M22.835 28 5.786 10.951c-7.713 10.025-7.713 24.074 0 34.098zm10.331 0 17.049 17.05c7.713-10.025 7.713-24.074 0-34.099z"/><path fill="#F0F0F0" d="M28 40.174c6.724 0 12.174-5.45 12.174-12.174S34.724 15.826 28 15.826 15.826 21.276 15.826 28 21.276 40.174 28 40.174"/><path fill="#D80027" d="m28 19.478 1.055 1.826h2.109l-1.055 1.826 1.055 1.826h-2.109l-1.054 1.826-1.055-1.826h-2.108l1.054-1.826-1.054-1.826h2.108zM22.641 28l1.055 1.826h2.108l-1.054 1.826 1.054 1.826h-2.108l-1.055 1.826-1.054-1.826h-2.108l1.054-1.826-1.055-1.826h2.109zm10.719 0 1.053 1.826h2.109l-1.054 1.826 1.054 1.826h-2.108l-1.055 1.826-1.054-1.826h-2.109l1.055-1.826-1.055-1.826h2.109z"/></g><defs><clipPath id="a"><path fill="#fff" d="M0 0h56v56H0z"/></clipPath></defs></svg>