<svg xmlns="http://www.w3.org/2000/svg" width="56" height="56" fill="none" viewBox="0 0 56 56"><g clip-path="url(#a)"><path fill="#F0F0F0" d="M28 56c15.464 0 28-12.536 28-28S43.464 0 28 0 0 12.536 0 28s12.536 28 28 28"/><path fill="#ACABB1" d="M49.995 22.522h-9.212a3.044 3.044 0 0 0-3.044-3.043l-2.434 4.87s2.597 7.303 2.516 7.303h3.043a3.043 3.043 0 0 0 3.044-3.043 3.043 3.043 0 0 0 3.043-3.044h-.101c1.68 0 3.145-1.362 3.145-3.043m-43.989 0h9.211a3.044 3.044 0 0 1 3.044-3.043l2.435 4.87s-2.597 7.303-2.516 7.303h-3.044a3.043 3.043 0 0 1-3.043-3.043 3.043 3.043 0 0 1-3.044-3.044h.102c-1.681 0-3.145-1.362-3.145-3.043"/><path fill="#FFDA44" d="M37.739 38.956v1.217H18.26v-1.217h-4.87v4.87h4.87v1.217h19.48v-1.217h4.869v-4.87z"/><path fill="#0052B4" d="M18.262 19.478v12.174c0 7.455 9.739 9.74 9.739 9.74s9.739-2.285 9.739-9.74V19.478L28 18.261z"/><path fill="#D80027" d="M18.26 24.349h19.48v7.304H18.26z"/><path fill="#FFDA44" d="M32.87 13.39v1.827l-1.217.609-1.217-1.218v-3.652h-4.87v3.652l-1.217 1.218-1.218-.609v-1.826h-4.87v6.087H37.74V13.39z"/></g><defs><clipPath id="a"><path fill="#fff" d="M0 0h56v56H0z"/></clipPath></defs></svg>