<svg xmlns="http://www.w3.org/2000/svg" width="56" height="56" fill="none" viewBox="0 0 56 56"><g clip-path="url(#a)"><path fill="#D80027" d="M56 28c0 15.464-12.536 28-28 28S0 43.464 0 28C0 28.007 28 .003 28 0c15.464 0 28 12.536 28 28"/><path fill="#0052B4" d="M28 13.392v9.443l-9.74-9.443zM14.609 28h8.226L14.61 17.045l-1.217 8.522z"/><path fill="#F0F0F0" d="M27.925 28H28v-.075z"/><path fill="#F0F0F0" d="M28 14.609V0h-.005C12.533.003 0 12.538 0 28h14.609v-8.226L22.835 28h5.09l.075-.075v-5.09l-8.226-8.226z"/><path fill="#D80027" d="M14.166 3.652A28.13 28.13 0 0 0 3.652 14.166v15.052h7.305V10.957h18.26V3.652z"/><path fill="#D80027" d="M29.113 25.67 18.052 14.609h-3.444l14.505 14.504z"/><path fill="#F3F3F3" d="M31.652 14.608V28c0 6.523 17.044 6.523 17.044 0V14.608z"/><path fill="#6DA544" d="M31.652 28c0 6.523 8.522 8.522 8.522 8.522s8.522-1.999 8.522-8.522z"/><path fill="#A2001D" d="m40.174 22.644-3.956 1.704V28l3.956 2.435L44.131 28v-3.652z"/><path fill="#338AF3" d="M36.217 20.696h7.913v3.652h-7.913z"/></g><defs><clipPath id="a"><path fill="#fff" d="M0 0h56v56H0z"/></clipPath></defs></svg>