<svg xmlns="http://www.w3.org/2000/svg" width="56" height="56" fill="none" viewBox="0 0 56 56"><g clip-path="url(#a)"><path fill="#F0F0F0" d="M28 55.996c15.462 0 27.996-12.535 27.996-27.996C55.996 12.538 43.46.004 28 .004 12.538.004.004 12.538.004 28S12.538 55.996 28 55.996"/><path fill="#000" d="M3.755 14.002a28 28 0 0 0-2.817 6.807l46.82 27.031a28 28 0 0 0 4.487-5.842z"/><path fill="#FFDA44" d="M41.999 3.755C30.797-2.713 16.984-.557 8.242 8.159l46.82 27.032C58.24 23.26 53.2 10.222 41.999 3.755m-27.996 48.49c11.201 6.468 25.014 4.312 33.756-4.404L.939 20.809c-3.178 11.93 1.862 24.969 13.064 31.436"/><path fill="#D80027" d="M35.911 24.957a7.912 7.912 0 1 1-14.872-3.764A9.7 9.7 0 0 0 18.262 28c0 5.378 4.36 9.738 9.738 9.738s9.737-4.36 9.737-9.738c0-2.65-1.06-5.05-2.777-6.807a7.9 7.9 0 0 1 .951 3.764"/><path fill="#D80027" d="M26.174 15.828h3.652v18.258h-3.652z"/><path fill="#D80027" d="M34.086 19.48H21.914c0 .84.732 1.521 1.572 1.521h-.05c0 .84.68 1.522 1.521 1.522 0 .84.681 1.521 1.522 1.521h3.043c.84 0 1.521-.681 1.521-1.521.84 0 1.522-.682 1.522-1.522h-.05c.84 0 1.571-.681 1.571-1.521M19.48 35.304h17.04v3.651H19.48z"/><path fill="#D80027" d="M31.652 36.52h7.304v3.652h-7.304zm-14.607 0h7.303v3.652h-7.303z"/></g><defs><clipPath id="a"><path fill="#fff" d="M0 0h56v56H0z"/></clipPath></defs></svg>