<svg xmlns="http://www.w3.org/2000/svg" width="56" height="56" fill="none" viewBox="0 0 56 56"><g clip-path="url(#a)"><path fill="#F0F0F0" d="M28 56c15.464 0 28-12.536 28-28S43.464 0 28 0 0 12.536 0 28s12.536 28 28 28"/><path fill="#FFDA44" d="M8.2 8.2C2.2 14.202-.507 22.25.078 30.097L30.095.079C22.248-.507 14.201 2.199 8.2 8.2"/><path fill="#0052B4" d="M9.998 49.445C20.999 58.701 37.445 58.153 47.8 47.8S58.702 21 49.446 9.999z"/><path fill="#000" d="m27.9 26.872 2.413-1.307-2.413-1.307a8.53 8.53 0 0 0-7.114-7.114l-1.308-2.413-1.307 2.412a8.53 8.53 0 0 0-7.114 7.115l-2.413 1.307 2.412 1.307a8.53 8.53 0 0 0 7.115 7.115L19.48 36.4l1.306-2.413a8.53 8.53 0 0 0 7.115-7.115m-8.421 3.563a4.87 4.87 0 1 1 0-9.739 4.87 4.87 0 0 1 0 9.739"/><path fill="#D80027" d="m19.478 21.913 1.054 1.826h2.11l-1.055 1.826 1.054 1.826h-2.108l-1.055 1.826-1.054-1.826h-2.109l1.055-1.826-1.055-1.826h2.109z"/></g><defs><clipPath id="a"><path fill="#fff" d="M0 0h56v56H0z"/></clipPath></defs></svg>