<svg xmlns="http://www.w3.org/2000/svg" width="56" height="56" fill="none" viewBox="0 0 56 56"><g clip-path="url(#a)"><path fill="#6DA544" d="M28 56c15.464 0 28-12.536 28-28S43.464 0 28 0 0 12.536 0 28s12.536 28 28 28"/><path fill="#FFDA44" d="M28 10.957 51.13 28 28 45.044 4.87 28z"/><path fill="#F0F0F0" d="M28 37.739c5.379 0 9.739-4.36 9.739-9.74 0-5.378-4.36-9.738-9.74-9.738-5.378 0-9.738 4.36-9.738 9.739s4.36 9.739 9.739 9.739"/><path fill="#0052B4" d="M23.13 27.391c-1.694 0-3.328.258-4.866.736.068 5.32 4.4 9.612 9.736 9.612 3.3 0 6.214-1.642 7.975-4.153-3.014-3.773-7.652-6.195-12.845-6.195m14.428 2.475a10 10 0 0 0 .18-1.866 9.74 9.74 0 0 0-18.689-3.844 20 20 0 0 1 4.081-.417c5.657 0 10.774 2.351 14.428 6.127"/></g><defs><clipPath id="a"><path fill="#fff" d="M0 0h56v56H0z"/></clipPath></defs></svg>