<svg xmlns="http://www.w3.org/2000/svg" width="56" height="56" fill="none" viewBox="0 0 56 56"><g clip-path="url(#a)"><path fill="#FFDA44" d="M47.799 47.8c-10.935 10.934-28.663 10.934-39.598 0-10.935-10.935-10.935-28.664 0-39.599.004 0 25.163-7.434 36.097 3.5C55.233 22.638 47.807 47.792 47.8 47.8"/><path fill="#D80027" d="M47.8 47.8c10.934-10.935 10.934-28.664 0-39.599-10.936-10.935-28.665-10.935-39.6 0z"/><path fill="#FF9811" d="M35.319 35.322a4.26 4.26 0 0 1-3.646-.247 4.266 4.266 0 0 1-1.63-5.802l-.35-.195c3.509-.846 6.104-4.03 6.058-7.787a7.9 7.9 0 0 0-2.704-5.856l-2.557 2.62a4.25 4.25 0 0 1 1.61 3.28 4.266 4.266 0 0 1-4.21 4.312l.005.4c-2.486-2.614-6.54-3.27-9.772-1.352a7.9 7.9 0 0 0-3.719 5.27l3.547.905a4.25 4.25 0 0 1 2.036-3.034 4.266 4.266 0 0 1 5.84 1.489l.343-.205c-1.02 3.46.439 7.3 3.716 9.14a7.9 7.9 0 0 0 6.423.585zm-7.4-7.24"/><path fill="#FFEACF" d="m38.368 18.964-1.98 7.062-5.937-1.096-3.822-7.88-10.326 3.665-.814-2.295-2.702-.333 2.036 5.737 7.106-1.817 2.02 5.69-4.913 7.25 8.336 7.11-1.58 1.852 1.063 2.507 3.95-4.632-5.127-5.245 3.919-4.594 8.734.63 1.99-10.775 2.394.442 1.64-2.173zm-10.37 9.227"/></g><defs><clipPath id="a"><path fill="#fff" d="M0 0h56v56H0z"/></clipPath></defs></svg>