<svg xmlns="http://www.w3.org/2000/svg" width="56" height="56" fill="none" viewBox="0 0 56 56"><g clip-path="url(#a)"><path fill="#F0F0F0" d="M1.322 19.479A28 28 0 0 0 0 28c0 2.972.464 5.835 1.322 8.522L28 37.74l26.678-1.218A28 28 0 0 0 56 28c0-2.971-.465-5.834-1.322-8.521L28 18.26z"/><path fill="#000" d="M56 28c0-1.661-.145-3.288-.423-4.87H.423a28.2 28.2 0 0 0 0 9.74h55.154A28 28 0 0 0 56 28"/><path fill="#338AF3" d="M28 56c12.492 0 23.072-8.182 26.678-19.478H1.322C4.928 47.818 15.508 56 28 56m0-56C15.508 0 4.928 8.182 1.322 19.478h53.356C51.072 8.182 40.492 0 28 0"/></g><defs><clipPath id="a"><path fill="#fff" d="M0 0h56v56H0z"/></clipPath></defs></svg>