<svg xmlns="http://www.w3.org/2000/svg" width="56" height="56" fill="none" viewBox="0 0 56 56"><g clip-path="url(#a)"><path fill="#FCFCFC" d="M28 56c15.464 0 28-12.536 28-28S43.464 0 28 0 0 12.536 0 28s12.536 28 28 28"/><path fill="#A2001D" d="M11.565 25.971 8.521 20.45l3.044-5.435 3.043 5.435z"/><path fill="#A2001D" d="M5.478 25.971 2.435 20.45l3.043-5.435 3.044 5.435zm6.087 15.015-3.044-5.522 3.044-5.435 3.043 5.435z"/><path fill="#A2001D" d="m5.478 40.986-3.043-5.522 3.043-5.435 3.044 5.435zm9.13-35.551-.861-1.539a28 28 0 0 0-4.331 3.162l2.149 3.899zm-3.043 39.609-2.171 3.878a28 28 0 0 0 4.327 3.166l.888-1.61z"/><path fill="#6DA544" d="M17.043 35.304v18.47A27.9 27.9 0 0 0 28 56c12.039 0 22.302-7.599 26.258-18.261z"/><path fill="#A2001D" d="M54.259 37.74A27.9 27.9 0 0 0 56 28C56 12.536 43.464 0 28 0c-3.889 0-7.592.793-10.957 2.226v35.513z"/></g><defs><clipPath id="a"><path fill="#fff" d="M0 0h56v56H0z"/></clipPath></defs></svg>