<svg xmlns="http://www.w3.org/2000/svg" width="56" height="56" fill="none" viewBox="0 0 56 56"><g clip-path="url(#a)"><path fill="#0052B4" d="M56 28c0-9.61-4.842-18.088-12.219-23.13L28 3.652 12.219 4.87C4.842 9.912 0 18.39 0 28s4.842 18.088 12.219 23.13L28 52.349l15.781-1.217C51.158 46.088 56 37.61 56 28"/><path fill="#A2001D" d="M43.782 4.87A27.87 27.87 0 0 0 28 0a27.87 27.87 0 0 0-15.78 4.87zM12.219 51.13A27.87 27.87 0 0 0 28 56a27.87 27.87 0 0 0 15.782-4.87z"/><path fill="#F0F0F0" d="M28 41.391c7.396 0 13.391-5.995 13.391-13.391S35.396 14.608 28 14.608 14.608 20.604 14.608 28 20.604 41.39 28 41.39"/><path fill="#6DA544" d="M28 38.957c6.052 0 10.957-4.906 10.957-10.957S34.052 17.044 28 17.044c-6.05 0-10.956 4.905-10.956 10.956S21.949 38.956 28 38.956"/><path fill="#F0F0F0" d="M28 35.305a7.304 7.304 0 1 0 0-14.61 7.304 7.304 0 0 0 0 14.61"/><path fill="#0052B4" d="M28 26.174 24.045 28v3.043L28 33.478l3.957-2.435V28z"/><path fill="#FFDA44" d="M24.043 24.348h7.913V28h-7.913z"/></g><defs><clipPath id="a"><path fill="#fff" d="M0 0h56v56H0z"/></clipPath></defs></svg>