<svg xmlns="http://www.w3.org/2000/svg" width="56" height="56" fill="none" viewBox="0 0 56 56"><g clip-path="url(#a)"><path fill="#F0F0F0" d="M28 56c15.464 0 28-12.536 28-28S43.464 0 28 0 0 12.536 0 28s12.536 28 28 28"/><path fill="#D80027" d="M56 28c0-11.1-6.46-20.693-15.826-25.222v50.444C49.54 48.692 56 39.1 56 28M0 28c0 11.1 6.46 20.693 15.826 25.222V2.778C6.46 7.308 0 16.9 0 28m32.87 3.652 4.87-2.434L35.305 28v-2.434L30.435 28l2.435-4.87h-2.434L28 19.48l-2.435 3.652H23.13L25.566 28l-4.87-2.436V28l-2.434 1.218 4.87 2.434-1.218 2.435h4.87v3.652h2.434v-3.652h4.87z"/></g><defs><clipPath id="a"><path fill="#fff" d="M0 0h56v56H0z"/></clipPath></defs></svg>