<svg xmlns="http://www.w3.org/2000/svg" width="56" height="56" fill="none" viewBox="0 0 56 56"><g clip-path="url(#a)"><path fill="#6DA544" d="M28 56c15.464 0 28-12.536 28-28S43.464 0 28 0 0 12.536 0 28s12.536 28 28 28"/><path fill="#FFDA44" d="m42.983 40.174.768 1.606 1.736-.4-.778 1.602 1.396 1.106-1.737.392.004 1.78-1.389-1.113-1.39 1.114.005-1.781-1.737-.392 1.396-1.106-.777-1.602 1.735.4zM35.835 23.13l.768 1.607 1.735-.402-.777 1.603 1.395 1.106-1.737.392.005 1.78-1.39-1.113-1.389 1.114.005-1.781-1.737-.392 1.395-1.106-.777-1.603 1.735.401zm7.148-9.739.768 1.607 1.735-.401-.776 1.602 1.395 1.107-1.738.391.005 1.781-1.39-1.114-1.388 1.114.004-1.78-1.737-.392 1.396-1.107-.777-1.603 1.735.402zm6.243 7.304.769 1.607 1.735-.401-.777 1.602 1.395 1.107-1.738.39.005 1.781-1.39-1.114-1.39 1.114.006-1.78-1.737-.392 1.395-1.107-.777-1.602 1.735.4zm-4.465 8.522.605 1.86h1.956l-1.583 1.15.605 1.86-1.583-1.15-1.582 1.15.604-1.86-1.582-1.15h1.956z"/><path fill="#FFDA44" d="M31.042 35.913a7.913 7.913 0 1 1 3.765-14.875 9.7 9.7 0 0 0-6.808-2.777c-5.379 0-9.74 4.36-9.74 9.739s4.361 9.739 9.74 9.739c2.65 0 5.052-1.06 6.808-2.777a7.9 7.9 0 0 1-3.765.951M17.607 10.956a4.867 4.867 0 0 0-8.433 0zm.017.028-4.233 4.233-4.233-4.233a4.87 4.87 0 1 0 8.465 0"/><path fill="#A2001D" d="M12.174 14v4.108a4.9 4.9 0 0 0 2.435 0V14z"/></g><defs><clipPath id="a"><path fill="#fff" d="M0 0h56v56H0z"/></clipPath></defs></svg>