<svg xmlns="http://www.w3.org/2000/svg" width="56" height="56" fill="none" viewBox="0 0 56 56"><g clip-path="url(#a)"><path fill="#FFDA44" d="M52.891 15.161a28 28 0 0 0-5.091-6.96 28 28 0 0 0-6.961-5.092L21.113 21.113 3.11 40.84a28 28 0 0 0 5.091 6.96 28 28 0 0 0 6.961 5.092l19.726-18.004z"/><path fill="#D80027" d="M8.201 47.8a28 28 0 0 0 3.742 3.145l39.002-39.002a28.2 28.2 0 0 0-6.887-6.887L5.057 44.057A28 28 0 0 0 8.2 47.8"/><path fill="#338AF3" d="M8.2 8.2C-.634 17.034-2.33 30.3 3.11 40.839l37.729-37.73C30.3-2.329 17.034-.633 8.2 8.2m39.6 39.6c8.833-8.834 10.53-22.101 5.09-32.639l-37.729 37.73C25.7 58.329 38.966 56.633 47.8 47.8"/><path fill="#FFDA44" d="m14.922 8.521 1.511 4.65h4.89l-3.956 2.874 1.51 4.65-3.955-2.874-3.956 2.874 1.511-4.65-3.956-2.874h4.89z"/></g><defs><clipPath id="a"><path fill="#fff" d="M0 0h56v56H0z"/></clipPath></defs></svg>