<svg xmlns="http://www.w3.org/2000/svg" width="56" height="56" fill="none" viewBox="0 0 56 56"><g clip-path="url(#a)"><path fill="#F0F0F0" d="M28 56c15.464 0 28-12.536 28-28S43.464 0 28 0 0 12.536 0 28s12.536 28 28 28"/><path fill="#0052B4" d="M52.595 14.609C48.977 7.978 42.755 2.972 35.305.963L34.086 14.61zm-49.191 0h18.509L20.695.963C13.244 2.972 7.023 7.978 3.405 14.61"/><path fill="#6DA544" d="M34.087 28v13.391h18.508A27.9 27.9 0 0 0 56 28zm-12.174 0H0a27.9 27.9 0 0 0 3.405 13.391h18.508z"/><path fill="#FFDA44" d="M3.404 41.392c3.619 6.63 9.84 11.637 17.291 13.645l1.218-11.934zm31.9 13.645c7.452-2.008 13.673-7.014 17.291-13.645l-18.508 1.711zm-1.217-11.934 18.508-1.711H34.088zm-12.174-1.711H3.404l18.509 1.711z"/><path fill="#D80027" d="M28 0a28 28 0 0 0-7.305.965v54.07c2.33.628 4.777.965 7.305.965a28 28 0 0 0 7.304-.965V.965A28 28 0 0 0 28 0"/><path fill="#FFDA44" d="m15.061 6.087.755 2.325h2.445l-1.977 1.437.755 2.325-1.978-1.437-1.978 1.437.756-2.325-1.978-1.437h2.445z"/></g><defs><clipPath id="a"><path fill="#fff" d="M0 0h56v56H0z"/></clipPath></defs></svg>