<svg xmlns="http://www.w3.org/2000/svg" width="56" height="56" fill="none" viewBox="0 0 56 56"><g clip-path="url(#a)"><path fill="#FFDA44" d="m15.178 52.899 20.57-17.151 17.15-20.57A28.1 28.1 0 0 0 40.839 3.11L20.253 20.252 3.11 40.838a28.1 28.1 0 0 0 12.068 12.06"/><path fill="#D80027" d="M47.8 47.8c8.834-8.834 10.53-22.1 5.09-32.638l-37.729 37.73C25.7 58.33 38.966 56.633 47.8 47.8"/><path fill="#6DA544" d="M8.2 8.2C-.634 17.034-2.33 30.3 3.11 40.84L40.839 3.11C30.3-2.329 17.034-.633 8.2 8.2"/></g><defs><clipPath id="a"><path fill="#fff" d="M0 0h56v56H0z"/></clipPath></defs></svg>