<svg xmlns="http://www.w3.org/2000/svg" width="56" height="56" fill="none" viewBox="0 0 56 56"><g clip-path="url(#a)"><path fill="#0052B4" d="M56 28c0 15.464-12.536 28-28 28S0 43.464 0 28C0 28.007 28 .003 28 0c15.464 0 28 12.536 28 28"/><path fill="#F0F0F0" d="M27.925 28H28v-.075z"/><path fill="#F0F0F0" d="M28 14.609V0h-.005C12.533.003 0 12.538 0 28h14.609v-8.226L22.835 28h5.09l.075-.075v-5.09l-8.226-8.226z"/><path fill="#D80027" d="M14.166 3.652A28.13 28.13 0 0 0 3.652 14.166V28h7.305V10.957H28V3.652z"/><path fill="#D80027" d="m28 24.557-9.948-9.948h-3.444L28 28z"/><path fill="#F0F0F0" d="m37.74 28 .517 1.594h1.677l-1.356.985.517 1.595-1.356-.985-1.356.985.518-1.594-1.356-.986h1.676zm-6.887 2.853 1.494.761 1.185-1.185-.262 1.655 1.493.761-1.655.263-.262 1.656-.762-1.494-1.655.262 1.185-1.185zM28 37.739l1.594-.518v-1.676l.985 1.356 1.595-.518-.985 1.356.985 1.356-1.594-.518-.985 1.356v-1.676zm2.853 6.887.761-1.494-1.185-1.185 1.655.262.761-1.494.263 1.656 1.655.262-1.493.761.262 1.656-1.185-1.185zm6.887 2.852-.519-1.594h-1.676l1.356-.986-.518-1.594 1.356.985 1.357-.985-.518 1.594 1.356.986h-1.677zm6.886-2.852-1.493-.761-1.186 1.185.262-1.656-1.493-.76 1.655-.263.263-1.656.76 1.494 1.657-.262-1.186 1.185zm2.853-6.887-1.595.518v1.676l-.985-1.356-1.594.518.985-1.356-.985-1.356 1.594.518.985-1.356v1.676zm-2.854-6.886-.76 1.493 1.185 1.185-1.656-.262-.761 1.494-.262-1.656-1.656-.262 1.493-.761-.262-1.656 1.186 1.185z"/></g><defs><clipPath id="a"><path fill="#fff" d="M0 0h56v56H0z"/></clipPath></defs></svg>