<svg xmlns="http://www.w3.org/2000/svg" width="56" height="56" fill="none" viewBox="0 0 56 56"><g clip-path="url(#a)"><path fill="#F0F0F0" d="M28 56c15.464 0 28-12.536 28-28S43.464 0 28 0 0 12.536 0 28s12.536 28 28 28"/><path fill="#D80027" d="M56 28c0 15.464-12.536 28-28 28S0 43.464 0 28s28 0 28 0z"/><path fill="#0052B4" d="M0 28C0 12.536 12.536 0 28 0v28z"/><path fill="#F0F0F0" d="m16.668 9.739 1.813 5.58h5.867L19.6 18.767l1.813 5.58-4.746-3.448-4.747 3.448 1.813-5.58-4.747-3.448h5.868z"/></g><defs><clipPath id="a"><path fill="#fff" d="M0 0h56v56H0z"/></clipPath></defs></svg>