<svg xmlns="http://www.w3.org/2000/svg" width="56" height="56" fill="none" viewBox="0 0 56 56"><g clip-path="url(#a)"><path fill="#D80027" d="M28 56c15.464 0 28-12.536 28-28S43.464 0 28 0 0 12.536 0 28s12.536 28 28 28"/><path fill="#FFDA44" d="m15.323 17.041 2.418 7.438h7.82l-6.322 4.604 2.417 7.438-6.333-4.594-6.332 4.594 2.428-7.438-6.333-4.604h7.82zm17.872 26.326-1.849-2.275-2.734 1.061 1.586-2.46-1.848-2.287 2.832.755 1.597-2.46.153 2.93 2.844.755-2.745 1.05zm3.675-6.671.875-2.8L35.35 32.2l2.93-.044.865-2.8.951 2.779 2.932-.033-2.352 1.75.94 2.778-2.395-1.695zm4.955-16.144-1.29 2.636 2.1 2.045-2.899-.416-1.29 2.625-.503-2.887-2.91-.416 2.603-1.367-.503-2.898 2.1 2.045zm-8.553-7.985-.219 2.92 2.724 1.105-2.855.7-.208 2.932-1.542-2.494-2.855.7 1.893-2.242-1.554-2.483 2.724 1.105z"/></g><defs><clipPath id="a"><path fill="#fff" d="M0 0h56v56H0z"/></clipPath></defs></svg>