<svg xmlns="http://www.w3.org/2000/svg" width="56" height="56" fill="none" viewBox="0 0 56 56"><g clip-path="url(#a)"><path fill="#F0F0F0" d="M28 56c15.464 0 28-12.536 28-28S43.464 0 28 0 0 12.536 0 28s12.536 28 28 28"/><path fill="#D80027" d="M54.258 18.26H1.742A28 28 0 0 0 0 28c0 3.425.616 6.706 1.742 9.739h52.517A28 28 0 0 0 56 27.999c0-3.424-.616-6.705-1.742-9.738"/><path fill="#0052B4" d="M28 0C19.513 0 11.91 3.776 6.774 9.74h42.451C44.09 3.775 36.486 0 28 0m21.225 46.26H6.775C11.908 52.225 19.512 56 28 56c8.486 0 16.09-3.776 21.225-9.74"/></g><defs><clipPath id="a"><path fill="#fff" d="M0 0h56v56H0z"/></clipPath></defs></svg>