<svg xmlns="http://www.w3.org/2000/svg" width="56" height="56" fill="none" viewBox="0 0 56 56"><g clip-path="url(#a)"><path fill="#F0F0F0" d="M28 56c15.464 0 28-12.536 28-28S43.464 0 28 0 0 12.536 0 28s12.536 28 28 28"/><path fill="#0052B4" d="M28 56c8.486 0 16.09-3.776 21.225-9.74H6.775C11.908 52.225 19.512 56 28 56m28-28C56 12.536 43.464 0 28 0S0 12.536 0 28c0 2.527.337 4.975.965 7.304h54.07C55.664 32.975 56 30.527 56 28"/><path fill="#D80027" d="M2.226 38.957a28 28 0 0 0 1.884 3.652h47.78a28 28 0 0 0 1.885-3.653z"/><path fill="#FFDA44" d="m20.014 29.826.453 1.395h1.467l-1.187.862.453 1.395-1.186-.862-1.187.862.453-1.395-1.186-.862h1.467zm0 18.261.453 1.395h1.467l-1.187.863.453 1.395-1.186-.863-1.187.862.453-1.394-1.186-.862h1.467zm-8.5-6.176.453 1.395h1.467l-1.187.862.453 1.395-1.186-.862-1.187.862.454-1.395-1.187-.862h1.467zm3.246-10.259.453 1.395h1.467l-1.187.862.454 1.395-1.187-.862-1.187.862.454-1.395-1.187-.862h1.467zm-5.166 5.745h1.466l.454-1.395.453 1.395h1.467l-1.187.862.453 1.395-1.186-.862-1.187.862.453-1.395zm3.979 12.25.454-1.395-1.187-.862h1.467l.453-1.395.453 1.395h1.467l-1.187.862.454 1.395-1.187-.862zm14.937-7.736-.452 1.395H26.59l1.186.862-.453 1.395 1.187-.862 1.187.862-.454-1.395 1.187-.862h-1.467zm-3.245-10.259-.453 1.395h-1.467l1.186.862-.453 1.395 1.187-.862 1.186.862-.453-1.395 1.187-.862h-1.467zm5.165 5.745h-1.466l-.453-1.395-.453 1.395H26.59l1.186.862-.453 1.395 1.187-.862 1.187.862-.454-1.395zm-3.98 12.25-.453-1.395 1.187-.862h-1.467l-.453-1.395-.453 1.395h-1.467l1.186.862-.453 1.395 1.187-.862z"/></g><defs><clipPath id="a"><path fill="#fff" d="M0 0h56v56H0z"/></clipPath></defs></svg>