<svg xmlns="http://www.w3.org/2000/svg" width="56" height="56" fill="none" viewBox="0 0 56 56"><g clip-path="url(#a)"><path fill="#FFDA44" d="M28 56c15.464 0 28-12.536 28-28S43.464 0 28 0 0 12.536 0 28s12.536 28 28 28"/><path fill="#0052B4" d="M28 56c9.187 0 17.341-4.425 22.447-11.26H5.553C10.658 51.575 18.813 56 28 56m28-28C56 12.536 43.464 0 28 0S0 12.536 0 28c0 3.311.576 6.487 1.631 9.436H54.37A28 28 0 0 0 56 28"/><path fill="#F0F0F0" d="m19.164 17.958 1.51 4.65h4.89l-3.956 2.873 1.511 4.65-3.955-2.873-3.956 2.873 1.511-4.65-3.955-2.874h4.889zm-8.396-4.87.906 2.79h2.934l-2.373 1.724.906 2.79-2.373-1.724-2.374 1.724.907-2.79-2.373-1.724H9.86z"/></g><defs><clipPath id="a"><path fill="#fff" d="M0 0h56v56H0z"/></clipPath></defs></svg>