<svg xmlns="http://www.w3.org/2000/svg" width="56" height="56" fill="none" viewBox="0 0 56 56"><g clip-path="url(#a)"><path fill="#FCFCFC" d="M28 56c15.464 0 28-12.536 28-28S43.464 0 28 0 0 12.536 0 28s12.536 28 28 28"/><path fill="#6DA544" d="M43.826 24.348h-3.652c0 6.723-5.45 12.174-12.174 12.174s-12.174-5.45-12.174-12.174h-3.652c0 7.242 4.864 13.348 11.505 15.229a4.05 4.05 0 0 0 .422 4.421l3.98-3.189 3.98 3.19a4.05 4.05 0 0 0 .401-4.464c6.567-1.927 11.364-7.997 11.364-15.187"/><path fill="#FFDA44" d="M18.262 23.13s0 6.087 6.087 6.087l1.217 1.217h2.435s1.217-3.652 3.652-3.652c0 0 0-2.434 2.435-2.434h3.652s-1.218-4.87 4.87-8.522l-2.435-1.218s-8.522 6.087-14.609 4.87v2.435h-2.435l-1.217-1.218z"/></g><defs><clipPath id="a"><path fill="#fff" d="M0 0h56v56H0z"/></clipPath></defs></svg>