<svg xmlns="http://www.w3.org/2000/svg" width="56" height="56" fill="none" viewBox="0 0 56 56"><g clip-path="url(#a)"><path fill="#FFDA44" d="M1.742 37.74C5.698 48.401 15.962 56 28.001 56s22.302-7.598 26.258-18.26l-26.258-2.435z"/><path fill="#000" d="M28 0C15.963 0 5.699 7.599 1.743 18.26l26.259 2.436 26.258-2.435C50.303 7.599 40.039 0 28.001 0"/><path fill="#D80027" d="M1.742 18.26A28 28 0 0 0 0 28c0 3.425.616 6.706 1.742 9.739h52.517A28 28 0 0 0 56 27.999c0-3.424-.616-6.705-1.742-9.738z"/></g><defs><clipPath id="a"><path fill="#fff" d="M0 0h56v56H0z"/></clipPath></defs></svg>