<svg xmlns="http://www.w3.org/2000/svg" width="56" height="56" fill="none" viewBox="0 0 56 56"><g clip-path="url(#a)"><path fill="#338AF3" d="M25.565 30.435S8.218 8.197 8.201 8.2a27.9 27.9 0 0 1 19.8-8.2c15.463 0 28 12.536 28 28z"/><path fill="#6DA544" d="M25.565 28S8.218 47.803 8.201 47.799A27.9 27.9 0 0 0 28.001 56c15.463 0 28-12.536 28-28z"/><path fill="#F0F0F0" d="M8.201 8.201c-10.935 10.935-10.935 28.664 0 39.598L28 28z"/><path fill="#D80027" d="m11.333 20.696 1.812 5.58h5.868l-4.747 3.448 1.813 5.58-4.747-3.448-4.746 3.449 1.813-5.58-4.747-3.45H9.52z"/></g><defs><clipPath id="a"><path fill="#fff" d="M0 0h56v56H0z"/></clipPath></defs></svg>