<svg xmlns="http://www.w3.org/2000/svg" width="56" height="56" fill="none" viewBox="0 0 56 56"><g clip-path="url(#a)"><path fill="#F0F0F0" d="M28 56c15.464 0 28-12.536 28-28S43.464 0 28 0 0 12.536 0 28s12.536 28 28 28"/><path fill="#496E2D" d="M33.478 55.463c11.069-2.196 19.788-10.916 21.984-21.985H33.477zM.537 33.479c2.196 11.069 10.915 19.788 21.984 21.984V33.478zm54.925-10.957C53.266 11.453 44.547 2.733 33.477.538v21.984zM22.522.538C11.452 2.733 2.732 11.453.537 22.522h21.985z"/><path fill="#FFDA44" d="M26.174 33.479h-3.652v21.984q1.788.355 3.652.476zm0-10.957V.06q-1.863.121-3.652.476v21.985z"/><path fill="#000" d="M29.826.06A28 28 0 0 0 28 0q-.92.002-1.826.06v22.462h3.652zm-3.652 55.879q.905.06 1.826.06.92 0 1.826-.06V33.478h-3.652z"/><path fill="#FFDA44" d="M22.521 26.174v-3.652H.537a28 28 0 0 0-.476 3.652zm10.958 0h22.46q-.121-1.863-.476-3.652H33.479z"/><path fill="#000" d="M33.479 29.826h22.46Q56 28.921 56 28q-.002-.92-.06-1.826H33.478zM.06 26.174Q.003 27.079 0 28q.002.92.06 1.826h22.462v-3.652z"/><path fill="#D80027" d="M28 41.391c7.396 0 13.391-5.995 13.391-13.391S35.396 14.608 28 14.608 14.608 20.604 14.608 28 20.604 41.39 28 41.39"/><path fill="#496E2D" d="M31.051 29.494c-.996-1.992-2.29-4.01-2.29-4.01s.032-.92.032-1.468a1.494 1.494 0 0 0-2.982-.129 1.178 1.178 0 0 0-.467 2.22c.187-.438.554-.78 1.007-.936q.111.09.239.16l.19.092s-.709 2-.709 3.075c0 3.022 1.992 3.953 1.992 3.953v.032l-.996.995h1.992v-1.992l.996.996c.01-.018 1.887-1.206.996-2.988M28 17.044l.453 1.394h1.467l-1.187.863.454 1.395L28 19.833l-1.187.863.454-1.395-1.187-.863h1.467zm-6.44 2.092 1.187.862 1.187-.862-.453 1.395 1.186.862h-1.466l-.454 1.395-.453-1.395h-1.467l1.187-.862zm-3.98 5.478h1.467l.453-1.395.453 1.395h1.467l-1.187.862.454 1.395-1.187-.862-1.187.862.454-1.395zm0 6.772 1.187-.863-.454-1.395 1.187.863 1.187-.863-.454 1.395 1.187.863h-1.467L19.5 32.78l-.453-1.395zm3.98 5.478.453-1.395-1.187-.862h1.467l.453-1.395.454 1.395h1.466l-1.186.862.453 1.395-1.187-.862zM28 38.956l-.453-1.394H26.08l1.187-.863-.454-1.395 1.187.862 1.187-.862-.454 1.395 1.187.863h-1.467zm6.44-2.092-1.186-.862-1.186.863.453-1.395-1.187-.862h1.467l.453-1.396.453 1.395h1.467l-1.187.863zm3.98-5.478h-1.466L36.5 32.78l-.453-1.395H34.58l1.187-.862-.454-1.395 1.187.862 1.187-.862-.453 1.395zm0-6.772-1.186.862.453 1.395-1.187-.862-1.187.862.454-1.395-1.187-.862h1.467l.453-1.395.454 1.395zm-3.98-5.478-.453 1.395 1.186.862h-1.467l-.453 1.395-.453-1.395h-1.467l1.187-.862-.454-1.395 1.187.862z"/></g><defs><clipPath id="a"><path fill="#fff" d="M0 0h56v56H0z"/></clipPath></defs></svg>