<svg xmlns="http://www.w3.org/2000/svg" width="56" height="56" fill="none" viewBox="0 0 56 56"><g clip-path="url(#a)"><path fill="#F0F0F0" d="M28 56c15.464 0 28-12.536 28-28S43.464 0 28 0 0 12.536 0 28s12.536 28 28 28"/><path fill="#D80027" d="M.965 35.304C3.55 44.897 11.103 52.45 20.696 55.035v-19.73z"/><path fill="#0052B4" d="M20.696.964C11.103 3.55 3.55 11.103.965 20.695h19.731z"/><path fill="#D80027" d="M55.036 20.695C52.45 11.103 44.897 3.55 35.305.965v19.73z"/><path fill="#0052B4" d="M35.305 55.035c9.592-2.585 17.145-10.138 19.73-19.73h-19.73z"/><path fill="#496E2D" d="M35.304 28a7.304 7.304 0 1 1-14.609 0c0-4.034 7.305-7.304 7.305-7.304s7.304 3.27 7.304 7.304"/><path fill="#0052B4" d="M20.695 28a7.304 7.304 0 1 1 14.61 0"/><path fill="#D80027" d="M23.892 24.348v4.565a4.109 4.109 0 1 0 8.217 0v-4.565z"/></g><defs><clipPath id="a"><path fill="#fff" d="M0 0h56v56H0z"/></clipPath></defs></svg>