<svg xmlns="http://www.w3.org/2000/svg" width="56" height="56" fill="none" viewBox="0 0 56 56"><g clip-path="url(#a)"><path fill="#F0F0F0" d="M28 0c15.464 0 28 12.536 28 28S43.464 56 28 56c0-1.217-3.652-28-3.652-28z"/><path fill="#496E2D" d="M28 56C12.536 56 0 43.464 0 28S12.536 0 28 0"/><path fill="#D80027" d="m34.017 22.63-2.297 3.165-3.721-1.206 2.301 3.163-2.297 3.166 3.72-1.211 2.3 3.163-.002-3.912 3.72-1.21-3.721-1.207z"/><path fill="#D80027" d="M30.324 35.914a7.913 7.913 0 1 1 3.764-14.876 9.7 9.7 0 0 0-6.808-2.777c-5.379 0-9.739 4.36-9.739 9.74 0 5.378 4.36 9.738 9.74 9.738 2.65 0 5.05-1.06 6.807-2.777a7.9 7.9 0 0 1-3.764.951"/></g><defs><clipPath id="a"><path fill="#fff" d="M0 0h56v56H0z"/></clipPath></defs></svg>