<svg xmlns="http://www.w3.org/2000/svg" width="56" height="56" fill="none" viewBox="0 0 56 56"><g clip-path="url(#a)"><path fill="#FFDA44" d="M0 28C0 12.536 12.536 0 28 0s28 12.536 28 28l-28 2.435z"/><path fill="#D80027" d="M3.747 42C8.59 50.369 17.637 56 28 56c10.364 0 19.412-5.631 24.254-14L28 40.174z"/><path fill="#0052B4" d="M52.253 42A27.87 27.87 0 0 0 56 28H0c0 5.1 1.364 9.882 3.747 14z"/><path fill="#FFDA44" d="M28 37.739c5.379 0 9.739-4.36 9.739-9.74 0-5.378-4.36-9.738-9.74-9.738-5.378 0-9.738 4.36-9.738 9.739s4.36 9.739 9.739 9.739"/><path fill="#338AF3" d="M28 34.087A6.094 6.094 0 0 1 21.913 28v-3.652A6.094 6.094 0 0 1 28 18.26a6.094 6.094 0 0 1 6.087 6.087V28A6.094 6.094 0 0 1 28 34.087"/><path fill="#000" d="M37.74 13.39h-7.305a2.435 2.435 0 0 0-4.87 0h-7.304c0 1.346 1.171 2.436 2.516 2.436h-.082a2.435 2.435 0 0 0 2.435 2.434 2.435 2.435 0 0 0 2.435 2.435h4.87a2.435 2.435 0 0 0 2.435-2.435 2.435 2.435 0 0 0 2.434-2.434h-.08c1.344 0 2.515-1.09 2.515-2.435"/></g><defs><clipPath id="a"><path fill="#fff" d="M0 0h56v56H0z"/></clipPath></defs></svg>