<svg xmlns="http://www.w3.org/2000/svg" width="56" height="56" fill="none" viewBox="0 0 56 56"><g clip-path="url(#a)"><path fill="#000" d="M0 28c0 3.425.616 6.706 1.742 9.74L28 38.957l26.258-1.217A28 28 0 0 0 56 28c0-3.424-.616-6.705-1.742-9.739L28 17.044 1.742 18.26A28 28 0 0 0 0 28.001"/><path fill="#0052B4" d="M28 0C15.963 0 5.699 7.599 1.743 18.26H54.26C50.303 7.599 40.04 0 28.001 0"/><path fill="#F0F0F0" d="M54.259 37.74H1.742C5.698 48.401 15.962 56 28.001 56s22.302-7.598 26.258-18.26"/></g><defs><clipPath id="a"><path fill="#fff" d="M0 0h56v56H0z"/></clipPath></defs></svg>