<svg xmlns="http://www.w3.org/2000/svg" width="56" height="56" fill="none" viewBox="0 0 56 56"><g clip-path="url(#a)"><path fill="#F0F0F0" d="M28 56c15.464 0 28-12.536 28-28S43.464 0 28 0 0 12.536 0 28s12.536 28 28 28"/><path fill="#D80027" d="M28 0C15.963 0 5.699 7.599 1.743 18.26H54.26C50.303 7.599 40.04 0 28.001 0"/><path fill="#000" d="M28 56c12.04 0 22.303-7.598 26.259-18.26H1.742C5.698 48.401 15.962 56 28.001 56"/><path fill="#FF9811" d="M37.74 24.956h-7.305a2.435 2.435 0 0 0-4.87 0h-7.304c0 1.345 1.171 2.435 2.516 2.435h-.082a2.435 2.435 0 0 0 2.435 2.435 2.435 2.435 0 0 0 2.435 2.435h4.87a2.435 2.435 0 0 0 2.435-2.435 2.435 2.435 0 0 0 2.434-2.435h-.08c1.344 0 2.515-1.09 2.515-2.435"/></g><defs><clipPath id="a"><path fill="#fff" d="M0 0h56v56H0z"/></clipPath></defs></svg>