<svg xmlns="http://www.w3.org/2000/svg" width="56" height="56" fill="none" viewBox="0 0 56 56"><g clip-path="url(#a)"><path fill="#338AF3" d="M25.565 25.565S8.218 47.803 8.201 47.8a27.9 27.9 0 0 0 19.8 8.2c15.463 0 28-12.536 28-28z"/><path fill="#6DA544" d="M25.565 28S8.218 8.197 8.201 8.201A27.9 27.9 0 0 1 28.001 0c15.463 0 28 12.536 28 28z"/><path fill="#D80027" d="M8.201 8.201c-10.935 10.935-10.935 28.664 0 39.598 0 .005 47.8-19.799 47.8-19.799z"/><path fill="#FFDA44" d="M14.608 16.435c-5.37 0-9.739 4.369-9.739 9.739v3.652c0 5.37 4.37 9.739 9.74 9.739s9.738-4.37 9.738-9.74v-3.651c0-5.37-4.369-9.74-9.739-9.74m6.087 13.39a6.1 6.1 0 0 1-4.26 5.808v-3.981l2.583-2.584-2.582-2.582-.002-.92v-1.218h-3.652V28L10.2 30.582l2.582 2.582v2.469a6.1 6.1 0 0 1-4.26-5.807v-3.652a6.094 6.094 0 0 1 6.086-6.087 6.094 6.094 0 0 1 6.087 6.087z"/></g><defs><clipPath id="a"><path fill="#fff" d="M0 0h56v56H0z"/></clipPath></defs></svg>