<svg xmlns="http://www.w3.org/2000/svg" width="56" height="56" fill="none" viewBox="0 0 56 56"><g clip-path="url(#a)"><path fill="#FFDA44" d="M0 28c0 3.425.616 6.706 1.742 9.74L28 40.173l26.258-2.435A28 28 0 0 0 56 28c0-3.425-.616-6.706-1.742-9.739L28 15.826 1.742 18.261A28 28 0 0 0 0 28"/><path fill="#D80027" d="M54.259 18.26C50.303 7.6 40.039 0 28.001 0 15.96 0 5.698 7.599 1.742 18.26zM1.742 37.74C5.698 48.401 15.962 56 28.001 56s22.302-7.598 26.258-18.26z"/></g><defs><clipPath id="a"><path fill="#fff" d="M0 0h56v56H0z"/></clipPath></defs></svg>