<svg xmlns="http://www.w3.org/2000/svg" width="56" height="56" fill="none" viewBox="0 0 56 56"><g clip-path="url(#a)"><path fill="#FFDA44" d="M0 28c0 3.425.616 6.706 1.742 9.74L28 40.173l26.258-2.435A27.9 27.9 0 0 0 56 28c0-3.378-.598-6.616-1.695-9.615L28 15.826l-26.305 2.56A28 28 0 0 0 0 28"/><path fill="#D80027" d="M28 56c12.04 0 22.303-7.598 26.259-18.26H1.742C5.698 48.401 15.962 56 28.001 56"/><path fill="#6DA544" d="M28 0C15.963 0 5.699 7.599 1.743 18.26H54.26C50.303 7.599 40.04 0 28.001 0"/><path fill="#0052B4" d="M28 41.391c7.396 0 13.391-5.995 13.391-13.391S35.396 14.608 28 14.608 14.608 20.604 14.608 28 20.604 41.39 28 41.39"/><path fill="#FFDA44" d="m27.997 17.63 2.417 7.44h7.836l-6.342 4.598 2.437 7.462-6.348-4.62-6.338 4.611 2.427-7.453-6.336-4.598h7.83z"/><path fill="#FFDA44" d="m37.639 29.852-7.67-2.492 4.74-6.523-1.97-1.432L28 25.93l-4.739-6.524-1.97 1.431 4.74 6.524-7.669 2.492.753 2.315 7.668-2.491v8.063h2.435v-8.063l7.669 2.491z"/></g><defs><clipPath id="a"><path fill="#fff" d="M0 0h56v56H0z"/></clipPath></defs></svg>