<svg xmlns="http://www.w3.org/2000/svg" width="56" height="56" fill="none" viewBox="0 0 56 56"><g clip-path="url(#a)"><path fill="#F0F0F0" d="M28 56c15.464 0 28-12.536 28-28S43.464 0 28 0 0 12.536 0 28s12.536 28 28 28"/><path fill="#0052B4" d="M55.763 24.348h-33.85V.666a27.8 27.8 0 0 0-7.304 2.739v20.943H.237a28.2 28.2 0 0 0 0 7.305h14.372v20.943a27.8 27.8 0 0 0 7.304 2.739V31.653h33.85a28.3 28.3 0 0 0 0-7.305"/></g><defs><clipPath id="a"><path fill="#fff" d="M0 0h56v56H0z"/></clipPath></defs></svg>