<svg xmlns="http://www.w3.org/2000/svg" width="56" height="56" fill="none" viewBox="0 0 56 56"><g clip-path="url(#a)"><path fill="#338AF3" d="M56 28c0 15.464-12.536 28-28 28S0 43.464 0 28C0 28.007 28 .003 28 0c15.464 0 28 12.536 28 28"/><path fill="#0052B4" d="M28 13.392v9.443l-9.74-9.443zM14.609 28h8.226L14.61 17.045l-1.217 8.522z"/><path fill="#F0F0F0" d="M27.925 28H28v-.075z"/><path fill="#F0F0F0" d="M28 14.609V0h-.005C12.534.003 0 12.538 0 28h14.609v-8.226L22.835 28h5.09l.075-.075v-5.09l-8.226-8.226z"/><path fill="#D80027" d="M14.166 3.652A28.13 28.13 0 0 0 3.652 14.166V28h7.305V10.957H28V3.652z"/><path fill="#D80027" d="m28 24.557-9.947-9.948h-3.444L28 28.002z"/><path fill="#F3F3F3" d="M31.652 18.261V28c0 6.523 8.522 8.522 8.522 8.522s8.522-1.999 8.522-8.522v-9.74l-8.522-2.435z"/><path fill="#D80027" d="M48.696 18.26v-3.652H31.652v3.653h7.304v7.304h-7.304V28h7.304v8.148c.735.26 1.218.373 1.218.373s.483-.113 1.217-.373V28h7.305v-2.435H41.39V18.26z"/></g><defs><clipPath id="a"><path fill="#fff" d="M0 0h56v56H0z"/></clipPath></defs></svg>