<svg xmlns="http://www.w3.org/2000/svg" width="56" height="56" fill="none" viewBox="0 0 56 56"><g clip-path="url(#a)"><path fill="#0052B4" d="M56 28c0 15.464-12.536 28-28 28S0 43.464 0 28C0 28.007 28 .003 28 0c15.464 0 28 12.536 28 28"/><path fill="#F0F0F0" d="M27.925 28H28v-.075z"/><path fill="#F0F0F0" d="M28 14.609V0h-.005C12.534.003 0 12.538 0 28h14.609v-8.226L22.835 28h5.09l.075-.075v-5.09l-8.226-8.226z"/><path fill="#D80027" d="M14.166 3.652A28.13 28.13 0 0 0 3.652 14.166V28h7.305V10.957H28V3.652z"/><path fill="#D80027" d="m28 24.557-9.947-9.948h-3.444L28 28.002z"/><path fill="#FFDA44" d="M45.044 32.87v1.217h-9.74v-1.218h-3.652v4.87h2.435v1.217h12.174V37.74h2.435v-4.87z"/><path fill="#338AF3" d="M31.652 14.608V28c0 6.523 8.522 8.522 8.522 8.522s8.522-2 8.522-8.522V14.608z"/><path fill="#F3F3F3" d="M40.174 24.597c-2.13 0-2.13 1.947-4.261 1.947-2.13 0-2.13-1.947-4.26-1.947v3.408c2.13 0 2.13 1.948 4.26 1.948s2.13-1.948 4.26-1.948 2.131 1.948 4.262 1.948 2.13-1.948 4.26-1.948v-3.408c-2.13 0-2.13 1.947-4.26 1.947s-2.131-1.947-4.262-1.947m.001-6.824c-2.13 0-2.13 1.948-4.261 1.948-2.13 0-2.13-1.948-4.26-1.948v3.41c2.13 0 2.13 1.947 4.26 1.947s2.13-1.948 4.26-1.948 2.131 1.948 4.262 1.948 2.13-1.948 4.26-1.948v-3.409c-2.13 0-2.13 1.948-4.26 1.948s-2.131-1.948-4.262-1.948"/></g><defs><clipPath id="a"><path fill="#fff" d="M0 0h56v56H0z"/></clipPath></defs></svg>