<svg xmlns="http://www.w3.org/2000/svg" width="56" height="56" fill="none" viewBox="0 0 56 56"><g clip-path="url(#a)"><path fill="#338AF3" d="M28 56c15.464 0 28-12.536 28-28S43.464 0 28 0 0 12.536 0 28s12.536 28 28 28"/><path fill="#F0F0F0" d="m28 12.174 1.209 3.72h3.911l-3.164 2.3 1.209 3.719L28 19.614l-3.165 2.299 1.21-3.72-3.165-2.3h3.912zM12.174 28l3.72-1.208V22.88l2.3 3.165 3.719-1.21L19.614 28l2.299 3.165-3.72-1.21-2.3 3.165v-3.91zM28 43.826l-1.208-3.72H22.88l3.165-2.3-1.21-3.72 3.165 2.3 3.165-2.3-1.21 3.72 3.165 2.3h-3.91zM43.825 28l-3.72 1.208v3.912l-2.3-3.165-3.72 1.209 2.3-3.164-2.3-3.165 3.72 1.209 2.3-3.165v3.912z"/></g><defs><clipPath id="a"><path fill="#fff" d="M0 0h56v56H0z"/></clipPath></defs></svg>