<svg xmlns="http://www.w3.org/2000/svg" width="56" height="56" fill="none" viewBox="0 0 56 56"><g clip-path="url(#a)"><path fill="#F0F0F0" d="M28 56c15.464 0 28-12.536 28-28S43.464 0 28 0 0 12.536 0 28s12.536 28 28 28"/><path fill="#0052B4" d="m54.783 28 .98-3.652a28 28 0 0 0-.728-3.652h-29.47V.106a28 28 0 0 0-3.652.56l-4.87 2.986-2.434-.246a28 28 0 0 0-3.653 2.38v14.91H.964a28 28 0 0 0-.727 3.652L1.217 28l-.98 3.652a28 28 0 0 0 .727 3.652h9.992v14.91c1.15.884 2.371 1.68 3.652 2.38l3.653-.246 3.652 2.985q1.787.398 3.652.56V35.304h29.47q.481-1.783.727-3.652z"/><path fill="#D80027" d="M55.763 24.348h-33.85V.666a27.8 27.8 0 0 0-7.304 2.739v20.943H.237a28.3 28.3 0 0 0 0 7.305h14.372v20.943a27.8 27.8 0 0 0 7.304 2.739V31.653h33.85a28.3 28.3 0 0 0 0-7.305"/></g><defs><clipPath id="a"><path fill="#fff" d="M0 0h56v56H0z"/></clipPath></defs></svg>