<svg xmlns="http://www.w3.org/2000/svg" width="56" height="56" fill="none" viewBox="0 0 56 56"><g clip-path="url(#a)"><path fill="#F0F0F0" d="M28 56c15.464 0 28-12.536 28-28S43.464 0 28 0 0 12.536 0 28s12.536 28 28 28"/><path fill="#0052B4" d="M5.788 10.953a27.9 27.9 0 0 0-4.823 9.743H15.53zm49.248 9.743a27.9 27.9 0 0 0-4.824-9.743l-9.742 9.743zM.965 35.305a27.9 27.9 0 0 0 4.823 9.742l9.743-9.742zM45.047 5.789A27.9 27.9 0 0 0 35.305.965V15.53zM10.953 50.212a27.9 27.9 0 0 0 9.743 4.824V40.47zM20.696.965a27.9 27.9 0 0 0-9.743 4.823l9.743 9.743zm14.609 54.071a27.9 27.9 0 0 0 9.742-4.824l-9.742-9.742zm5.165-19.731 9.742 9.742a27.9 27.9 0 0 0 4.824-9.742z"/><path fill="#D80027" d="M55.763 24.348h-24.11V.237a28.3 28.3 0 0 0-7.305 0v24.11H.237a28.3 28.3 0 0 0 0 7.305h24.11v24.111a28.3 28.3 0 0 0 7.305 0v-24.11h24.111a28.3 28.3 0 0 0 0-7.305"/><path fill="#D80027" d="m35.305 35.305 12.494 12.494a28 28 0 0 0 1.646-1.797L38.748 35.305zm-14.609 0L8.2 47.799a28 28 0 0 0 1.8 1.646l10.697-10.697zm0-14.609L8.202 8.2A28 28 0 0 0 6.556 10l10.697 10.697zm14.609 0L47.799 8.201a28 28 0 0 0-1.797-1.645L35.305 17.253z"/></g><defs><clipPath id="a"><path fill="#fff" d="M0 0h56v56H0z"/></clipPath></defs></svg>