<svg xmlns="http://www.w3.org/2000/svg" width="56" height="56" fill="none" viewBox="0 0 56 56"><g clip-path="url(#a)"><path fill="#FFDA44" d="M28 56c15.464 0 28-12.536 28-28S43.464 0 28 0 0 12.536 0 28s12.536 28 28 28"/><path fill="#A2001D" d="M12.219 4.87A27.87 27.87 0 0 1 28 0a27.87 27.87 0 0 1 15.782 4.87L28 6.087z"/><path fill="#0052B4" d="m28 28-1.787-1.787-.475.85z"/><path fill="#496E2D" d="M8.201 8.201c-10.935 10.935-10.935 28.664 0 39.598L28 28zm39.599 0c10.934 10.935 10.934 28.664 0 39.598C43.28 43.281 38.934 38.935 28 28z"/><path fill="#A2001D" d="M28 37.739c5.379 0 9.739-4.36 9.739-9.74 0-5.378-4.36-9.738-9.74-9.738-5.378 0-9.738 4.36-9.738 9.739s4.36 9.739 9.739 9.739"/><path fill="#FFDA44" d="m28 18.26 2.183 6.72h7.066l-5.716 4.153 2.183 6.719L28 31.699l-5.716 4.153 2.184-6.72-5.716-4.152h7.065z"/><path fill="#A2001D" d="M28.01 0h-.019A27.9 27.9 0 0 0 8.203 8.2h39.595A27.9 27.9 0 0 0 28.01 0M8.203 47.8A27.9 27.9 0 0 0 28.001 56a27.9 27.9 0 0 0 19.797-8.2z"/><path fill="#FFDA44" d="m28 3.044.453 1.395h1.467l-1.186.862.453 1.395L28 5.834l-1.186.862.453-1.395-1.187-.862h1.467zm-6.79 0 .453 1.395h1.467l-1.186.862.453 1.395-1.187-.862-1.186.862.453-1.395-1.187-.862h1.467zm13.58 0 .453 1.395h1.466l-1.186.862.453 1.395-1.187-.862-1.186.862.453-1.395-1.187-.862h1.467zM28 49.305l.453 1.395h1.467l-1.186.862.453 1.395L28 52.095l-1.186.862.453-1.395-1.187-.862h1.467zm-6.789 0 .454 1.395h1.466l-1.186.862.453 1.395-1.187-.862-1.186.862.453-1.395-1.187-.862h1.467zm13.579 0 .453 1.395h1.466l-1.186.862.453 1.395-1.187-.862-1.186.862.453-1.395-1.187-.862h1.467zM8.532 27.538a2.435 2.435 0 0 1-4.115 2.604c-1.302-2.057-.547-5.416-.547-5.416s3.36.755 4.662 2.812"/><path fill="#A2001D" d="M7.126 31.086a1.217 1.217 0 1 0 0-2.435 1.217 1.217 0 0 0 0 2.435"/></g><defs><clipPath id="a"><path fill="#fff" d="M0 0h56v56H0z"/></clipPath></defs></svg>