<svg xmlns="http://www.w3.org/2000/svg" width="56" height="56" fill="none" viewBox="0 0 56 56"><g clip-path="url(#a)"><path fill="#F0F0F0" d="M28 56c15.464 0 28-12.536 28-28S43.464 0 28 0 0 12.536 0 28s12.536 28 28 28"/><path fill="#D80027" d="M55.763 24.348h-24.11V.237a28.3 28.3 0 0 0-7.305 0v24.11H.237a28.3 28.3 0 0 0 0 7.305h24.11v24.111a28.3 28.3 0 0 0 7.305 0v-24.11h24.111a28.3 28.3 0 0 0 0-7.305"/><path fill="#D80027" d="M17.044 13.392V9.739h-3.652v3.653H9.739v3.652h3.653v3.652h3.652v-3.652h3.652v-3.652zm25.565 0V9.739h-3.652v3.653h-3.652v3.652h3.652v3.652h3.652v-3.652h3.652v-3.652zM17.044 38.957v-3.652h-3.652v3.652H9.739v3.652h3.653v3.652h3.652V42.61h3.652v-3.652zm25.565 0v-3.652h-3.652v3.652h-3.652v3.652h3.652v3.652h3.652V42.61h3.652v-3.652z"/></g><defs><clipPath id="a"><path fill="#fff" d="M0 0h56v56H0z"/></clipPath></defs></svg>