<svg xmlns="http://www.w3.org/2000/svg" width="56" height="56" fill="none" viewBox="0 0 56 56"><g clip-path="url(#a)"><path fill="#F0F0F0" d="M28 56c15.464 0 28-12.536 28-28S43.464 0 28 0 0 12.536 0 28s12.536 28 28 28"/><path fill="#D80027" d="M55.763 24.348h-24.11V.237a28.3 28.3 0 0 0-7.305 0v24.11H.237a28.3 28.3 0 0 0 0 7.305h24.11v24.111a28.3 28.3 0 0 0 7.305 0v-24.11h24.111a28.3 28.3 0 0 0 0-7.305"/><path fill="#FFDA44" d="m35.913 29.217 1.826 1.218v-4.87l-1.826 1.217h-6.696v-6.695l1.218-1.826h-4.87l1.217 1.826v6.695h-6.695l-1.826-1.217v4.87l1.826-1.218h6.695v6.696l-1.217 1.826h4.87l-1.218-1.826v-6.696z"/></g><defs><clipPath id="a"><path fill="#fff" d="M0 0h56v56H0z"/></clipPath></defs></svg>