<svg xmlns="http://www.w3.org/2000/svg" width="56" height="56" fill="none" viewBox="0 0 56 56"><g clip-path="url(#a)"><path fill="#F9F9F9" d="M28 56c15.464 0 28-12.536 28-28S43.464 0 28 0 0 12.536 0 28s12.536 28 28 28"/><path fill="#D80027" d="M28 56c12.039 0 22.302-7.6 26.258-18.262H1.741C5.698 48.401 15.961 56 28 56m10.956-32.87v-3.652h1.218v-2.435h-2.435v1.218h-2.435v-1.218H32.87v2.435h1.218v3.652h-2.435v-8.521h1.217v-2.435h-2.434v1.217h-1.218v-1.217h-2.435v1.217h-1.217v-1.217H23.13v2.435h1.218v8.521h-2.435v-3.652h1.217v-2.435h-2.435v1.218h-2.434v-1.218h-2.435v2.435h1.217v3.652h-2.435v9.74h26.783v-9.74z"/><path fill="#FFDA44" d="M28 31.652a3.652 3.652 0 0 0-1.217 7.096v5.078h-3.652v4.87h6.087v-9.948A3.653 3.653 0 0 0 28 31.652m0 4.87a1.217 1.217 0 1 1 0-2.435 1.217 1.217 0 0 1 0 2.435"/></g><defs><clipPath id="a"><path fill="#fff" d="M0 0h56v56H0z"/></clipPath></defs></svg>