<svg xmlns="http://www.w3.org/2000/svg" width="56" height="56" fill="none" viewBox="0 0 56 56"><g clip-path="url(#a)"><path fill="#F0F0F0" d="M0 28C0 12.536 12.536 0 28 0s28 12.536 28 28c-1.217 0-28 3.652-28 3.652z"/><path fill="#D80027" d="M56 28c0 15.464-12.536 28-28 28S0 43.464 0 28"/><path fill="#F0F0F0" d="M19.478 41.391c7.396 0 13.392-5.995 13.392-13.391s-5.996-13.392-13.392-13.392S6.087 20.604 6.087 28s5.995 13.39 13.391 13.39"/><path fill="#D80027" d="M6.087 28c0-7.396 5.995-13.392 13.391-13.392S32.87 20.604 32.87 28"/></g><defs><clipPath id="a"><path fill="#fff" d="M0 0h56v56H0z"/></clipPath></defs></svg>