<svg xmlns="http://www.w3.org/2000/svg" width="56" height="56" fill="none" viewBox="0 0 56 56"><g clip-path="url(#a)"><path fill="#F0F0F0" d="M28 56c15.464 0 28-12.536 28-28S43.464 0 28 0 0 12.536 0 28s12.536 28 28 28"/><path fill="#A2001D" d="M28 0C16.424 0 6.49 7.025 2.226 17.044h51.549C49.51 7.024 39.575 0 28 0"/><path fill="#496E2D" d="M28 56c11.576 0 21.51-7.025 25.775-17.044H2.225C6.49 48.975 16.426 56 28 56"/><path fill="#0052B4" d="M55.035 20.695H.965A28 28 0 0 0 0 28c0 2.527.337 4.975.965 7.304h54.07C55.664 32.975 56 30.527 56 28a28 28 0 0 0-.965-7.305"/></g><defs><clipPath id="a"><path fill="#fff" d="M0 0h56v56H0z"/></clipPath></defs></svg>