<svg xmlns="http://www.w3.org/2000/svg" width="56" height="56" fill="none" viewBox="0 0 56 56"><g clip-path="url(#a)"><path fill="#FFDA44" d="M37.739 1.742A28 28 0 0 0 27.999 0c-3.425 0-6.705.616-9.739 1.741L17.043 28l1.217 26.258A28 28 0 0 0 28 56c3.424 0 6.705-.616 9.739-1.742L38.956 28z"/><path fill="#D80027" d="M0 28c0 12.039 7.599 22.302 18.26 26.258V1.741C7.599 5.698 0 15.961 0 28"/><path fill="#6DA544" d="M56 28c0-12.04-7.598-22.302-18.26-26.26v52.517C48.401 50.302 56 40.038 56 28"/></g><defs><clipPath id="a"><path fill="#fff" d="M0 0h56v56H0z"/></clipPath></defs></svg>