<svg xmlns="http://www.w3.org/2000/svg" width="56" height="56" fill="none" viewBox="0 0 56 56"><g clip-path="url(#a)"><path fill="#F0F0F0" d="M28 56c15.464 0 28-12.536 28-28S43.464 0 28 0 0 12.536 0 28s12.536 28 28 28"/><path fill="#6DA544" d="M17.044 18.26h37.215C50.302 7.599 40.039 0 28 0 20.268 0 13.27 3.135 8.202 8.202z"/><path fill="#D80027" d="M17.044 37.74h37.215C50.302 48.401 40.039 56 28 56c-7.732 0-14.731-3.134-19.798-8.202z"/><path fill="#0052B4" d="M8.201 8.201c-10.935 10.935-10.935 28.664 0 39.598L28 28z"/><path fill="#DEDDE0" d="M32.87 23.13v6.088c0 3.727 4.869 4.87 4.869 4.87s4.87-1.143 4.87-4.87V23.13z"/><path fill="#786145" d="M36.522 28.122h2.434v3.53h-2.434z"/><path fill="#6DA544" d="M40.174 26.783a2.435 2.435 0 1 0-4.87 0 1.217 1.217 0 1 0 0 2.434h4.87a1.217 1.217 0 1 0 0-2.434"/></g><defs><clipPath id="a"><path fill="#fff" d="M0 0h56v56H0z"/></clipPath></defs></svg>