<svg xmlns="http://www.w3.org/2000/svg" width="56" height="56" fill="none" viewBox="0 0 56 56"><g clip-path="url(#a)"><path fill="#F0F0F0" d="M28 56c15.464 0 28-12.536 28-28S43.464 0 28 0 0 12.536 0 28s12.536 28 28 28"/><path fill="#338AF3" d="M56 28c0-11.1-6.46-20.693-15.826-25.222v50.444C49.54 48.692 56 39.1 56 28M0 28c0 11.1 6.46 20.693 15.826 25.222V2.778C6.46 7.308 0 16.9 0 28"/><path fill="#ACABB1" d="m35.317 32.735-4.735-4.734 4.507-4.507-.204-2.38-1.29-1.29L28 25.417l-5.595-5.595-1.29 1.29-.204 2.38L25.417 28l-4.734 4.734 2.582 2.582L28 30.583l4.734 4.734z"/><path fill="#6DA544" d="m34.886 21.113-2.582 2.583a6.087 6.087 0 1 1-8.608 0l-2.583-2.583A9.7 9.7 0 0 0 18.261 28c0 5.379 4.36 9.739 9.739 9.739s9.739-4.36 9.739-9.74a9.7 9.7 0 0 0-2.853-6.886"/></g><defs><clipPath id="a"><path fill="#fff" d="M0 0h56v56H0z"/></clipPath></defs></svg>