<svg xmlns="http://www.w3.org/2000/svg" width="56" height="56" fill="none" viewBox="0 0 56 56"><g clip-path="url(#a)"><path fill="#D80027" d="M12.219 51.13A27.87 27.87 0 0 0 28 56a27.87 27.87 0 0 0 15.782-4.87L28 48.695zM43.782 4.87A27.87 27.87 0 0 0 28 0a27.87 27.87 0 0 0-15.78 4.87L28 7.304z"/><path fill="#0052B4" d="M56 28c0-9.266-5.547-18.57-12.219-23.13H12.22C4.842 9.911 0 18.39 0 28s4.842 18.087 12.219 23.13H43.78C51.158 46.087 56 37.61 56 28"/><path fill="#D80027" d="M26.415 45.674c-.383-.328-9.372-8.142-9.372-17.674s8.99-17.347 9.372-17.675L28 8.967l1.584 1.358c.383.328 9.372 8.143 9.372 17.675s-8.99 17.347-9.372 17.674L28 47.033z"/><path fill="#338AF3" d="M36.522 28c0-8.522-8.522-15.826-8.522-15.826S19.48 19.478 19.48 28c0 2.607.798 5.1 1.905 7.304h13.233c1.107-2.205 1.905-4.697 1.905-7.304"/><path fill="#0052B4" d="M36.522 28c0 2.607-.798 5.1-1.905 7.304L28 36.522l-6.616-1.218C20.277 33.1 19.479 30.607 19.479 28z"/><path fill="#FFDA44" d="M28 43.826s4.104-3.519 6.616-8.521H21.383c2.512 5.002 6.616 8.521 6.616 8.521"/><path fill="#6DA544" d="M22.522 23.13h10.956L28 28.61z"/><path fill="#A2001D" d="M26.174 26.782h3.652V37.74h-3.652z"/></g><defs><clipPath id="a"><path fill="#fff" d="M0 0h56v56H0z"/></clipPath></defs></svg>