<svg xmlns="http://www.w3.org/2000/svg" width="56" height="56" fill="none" viewBox="0 0 56 56"><g clip-path="url(#a)"><path fill="#FFDA44" d="M28 0c-2.527 0-4.976.337-7.305.965L18.261 28l2.435 27.035A28 28 0 0 0 28 56c15.464 0 28-12.536 28-28S43.464 0 28 0"/><path fill="#6DA544" d="m18.26 28 2.435 27.035A28 28 0 0 0 28 56c15.464 0 28-12.536 28-28z"/><path fill="#D80027" d="M0 28c0 10.613 5.905 19.846 14.609 24.595V3.405C5.905 8.152 0 17.386 0 28"/><path fill="#D80027" d="M0 28c0 12.937 8.774 23.823 20.696 27.036V.965C8.774 4.178 0 15.064 0 28"/><path fill="#000" d="m10.58 20.695 1.813 5.58h5.868l-4.747 3.449 1.813 5.58-4.746-3.449-4.747 3.45 1.813-5.581L2.9 26.275h5.868z"/></g><defs><clipPath id="a"><path fill="#fff" d="M0 0h56v56H0z"/></clipPath></defs></svg>