<svg xmlns="http://www.w3.org/2000/svg" width="56" height="56" fill="none" viewBox="0 0 56 56"><g clip-path="url(#a)"><path fill="#F0F0F0" d="M28 56c15.464 0 28-12.536 28-28S43.464 0 28 0 0 12.536 0 28s12.536 28 28 28"/><path fill="#6DA544" d="M28 0c-4.95 0-9.6 1.286-13.635 3.54v48.92A27.87 27.87 0 0 0 28 56c15.464 0 28-12.536 28-28S43.464 0 28 0"/><path fill="#F0F0F0" d="M14.448 3.495A28 28 0 0 0 10 6.555l21.445 21.446L9.999 49.445a28 28 0 0 1 4.449 3.06L56.001 28z"/><path fill="#FFDA44" d="M12.083 4.964A28 28 0 0 0 9.627 6.87L28 28.001 9.627 49.128q1.173 1.02 2.455 1.908L51.207 28z"/><path fill="#000" d="M9.999 6.556A28 28 0 0 0 8.2 8.2L25.564 28 8.201 47.8A28 28 0 0 0 10 49.445L31.443 28z"/><path fill="#D80027" d="M8.201 8.201c-10.935 10.935-10.935 28.664 0 39.598L28 28z"/></g><defs><clipPath id="a"><path fill="#fff" d="M0 0h56v56H0z"/></clipPath></defs></svg>