<svg xmlns="http://www.w3.org/2000/svg" width="56" height="56" fill="none" viewBox="0 0 56 56"><g clip-path="url(#a)"><path fill="#D80027" d="M28 56c15.464 0 28-12.536 28-28S43.464 0 28 0 0 12.536 0 28s12.536 28 28 28"/><path fill="#F0F0F0" d="M30.89 21.183c-.636 2.646-1.766 2.142-2.321 4.45a6.087 6.087 0 0 1 2.846-11.837c-1.11 4.616.045 5.02-.524 7.387m-8.481 1.961c2.32 1.423 1.49 2.342 3.514 3.583a6.087 6.087 0 0 1-10.378-6.364c4.048 2.482 4.788 1.508 6.864 2.78m-.756 8.674c2.07-1.768 2.688-.695 4.494-2.236a6.087 6.087 0 0 1-9.26 7.904c3.612-3.083 2.914-4.088 4.766-5.668m8.016 3.397c-1.042-2.515.17-2.771-.738-4.965a6.087 6.087 0 0 1 4.655 11.249c-1.815-4.387-2.987-4.034-3.918-6.284m5.708-6.572c-2.714.213-2.584-1.018-4.95-.833a6.088 6.088 0 0 1 12.137-.951c-4.734.371-4.76 1.594-7.187 1.784"/></g><defs><clipPath id="a"><path fill="#fff" d="M0 0h56v56H0z"/></clipPath></defs></svg>