<svg xmlns="http://www.w3.org/2000/svg" width="56" height="56" fill="none" viewBox="0 0 56 56"><g clip-path="url(#a)"><path fill="#F0F0F0" d="M28 56c15.464 0 28-12.536 28-28S43.464 0 28 0 0 12.536 0 28s12.536 28 28 28"/><path fill="#338AF3" d="M28 56c11.1 0 20.693-6.46 25.222-15.826H2.778C7.308 49.54 16.9 56 28 56m0-56C16.9 0 7.307 6.46 2.778 15.826h50.444C48.692 6.46 39.1 0 28 0M17.23 18.26l.907 2.79h2.934l-2.373 1.725.906 2.79-2.373-1.724-2.374 1.724.907-2.79-2.373-1.724h2.933zm0 12.175.907 2.79h2.934l-2.373 1.724.906 2.79-2.373-1.724-2.374 1.724.907-2.79-2.373-1.724h2.933zM38.768 18.26l.907 2.79h2.933l-2.373 1.725.906 2.79-2.373-1.724-2.373 1.724.906-2.79-2.373-1.724h2.933zm0 12.175.907 2.79h2.933l-2.373 1.724.906 2.79-2.373-1.724-2.373 1.724.906-2.79-2.373-1.724h2.933zM28 24.348l.907 2.79h2.933l-2.373 1.724.907 2.79L28 29.928l-2.373 1.724.907-2.79-2.374-1.724h2.934z"/></g><defs><clipPath id="a"><path fill="#fff" d="M0 0h56v56H0z"/></clipPath></defs></svg>