<svg xmlns="http://www.w3.org/2000/svg" width="56" height="56" fill="none" viewBox="0 0 56 56"><g clip-path="url(#a)"><path fill="#F0F0F0" d="M56 28c0-3.425-.616-6.706-1.742-9.74L28 17.045 1.742 18.26A28 28 0 0 0 0 28c0 3.425.616 6.706 1.742 9.74L28 38.955l26.258-1.217A28 28 0 0 0 56 28"/><path fill="#0052B4" d="M28 56c12.04 0 22.303-7.598 26.259-18.26H1.742C5.698 48.401 15.962 56 28.001 56"/><path fill="#D80027" d="M1.742 18.26H54.26C50.303 7.599 40.04 0 28.001 0 15.96 0 5.698 7.599 1.742 18.26"/><path fill="#338AF3" d="M35.304 19.478h-4.87l.812-6.087 3.247-2.434 3.246 2.434v4.87zm-14.609 0h4.87l-.812-6.087-3.246-2.434-3.246 2.434v4.87z"/><path fill="#0052B4" d="M31.247 19.478h-6.493v-6.087L28 10.957l3.247 2.434z"/><path fill="#F0F0F0" d="M18.26 18.261v13.391a9.73 9.73 0 0 0 3.917 7.802l1.704-.426 2.15 2.164a9.75 9.75 0 0 0 3.927.002l2.455-2.044 1.41.3a9.73 9.73 0 0 0 3.916-7.798v-13.39z"/><path fill="#D80027" d="M18.26 18.26h3.896v3.896h-3.895zm7.792 0h3.895v3.896h-3.895zm7.792 0h3.895v3.896h-3.895z"/><path fill="#D80027" d="M22.156 22.156h3.896v3.896h-3.896zm7.791 0h3.896v3.896h-3.896z"/><path fill="#D80027" d="M18.26 26.05h3.896v3.896h-3.895zm3.896 3.896h3.896v3.896h-3.896zm3.896-3.896h3.895v3.896h-3.895zm7.792 0h3.895v3.896h-3.895zm-3.897 3.896h3.896v3.896h-3.896zm-3.895 3.896h3.895v3.896h-3.895zm-3.896.001h-3.644a9.7 9.7 0 0 0 1.892 3.895h1.752zm11.688 3.895h1.752a9.7 9.7 0 0 0 1.892-3.896h-3.644zm-11.688 0v1.7a9.7 9.7 0 0 0 3.896 1.757v-3.457zm7.791 0v3.457a9.7 9.7 0 0 0 3.896-1.757v-1.7z"/></g><defs><clipPath id="a"><path fill="#fff" d="M0 0h56v56H0z"/></clipPath></defs></svg>