<svg xmlns="http://www.w3.org/2000/svg" width="56" height="56" fill="none" viewBox="0 0 56 56"><g clip-path="url(#a)"><path fill="#A2001D" d="M56 28c0 15.464-12.536 28-28 28S0 43.464 0 28 28 0 28 0s28 12.536 28 28"/><path fill="#0052B4" d="M0 28C0 12.536 12.536 0 28 0s28 12.536 28 28"/><path fill="#F0F0F0" d="m37.739 35.304-9.74-1.217-9.738 1.217V20.695h19.478z"/><path fill="#0052B4" d="M28 34.087a4.87 4.87 0 1 0 0-9.74 4.87 4.87 0 0 0 0 9.74"/><path fill="#A2001D" d="M28 31.652a2.435 2.435 0 1 0 0-4.87 2.435 2.435 0 0 0 0 4.87"/><path fill="#6DA544" d="M24.348 23.13h7.304L28 26.784z"/><path fill="#FFDA44" d="M26.783 25.565h2.435v7.305h-2.435z"/><path fill="#6DA544" d="M31.895 32.139h-7.791l-5.843 3.165h19.478z"/></g><defs><clipPath id="a"><path fill="#fff" d="M0 0h56v56H0z"/></clipPath></defs></svg>