<svg xmlns="http://www.w3.org/2000/svg" width="56" height="56" fill="none" viewBox="0 0 56 56"><g clip-path="url(#a)"><path fill="#F0F0F0" d="M1.742 18.261A28 28 0 0 0 0 28c0 3.425.616 6.706 1.742 9.74L28 40.173l26.258-2.435A28 28 0 0 0 56 28a28 28 0 0 0-1.742-9.739L28 15.826z"/><path fill="#D80027" d="M28 0C15.96 0 5.697 7.599 1.74 18.26h52.517C50.302 7.599 40.038 0 28 0"/><path fill="#6DA544" d="M28 56c12.04 0 22.303-7.598 26.259-18.26H1.742C5.698 48.401 15.962 56 28 56"/></g><defs><clipPath id="a"><path fill="#fff" d="M0 0h56v56H0z"/></clipPath></defs></svg>