<svg xmlns="http://www.w3.org/2000/svg" width="56" height="56" fill="none" viewBox="0 0 56 56"><g clip-path="url(#a)"><path fill="#F0F0F0" d="M28 56c15.464 0 28-12.536 28-28S43.464 0 28 0 0 12.536 0 28s12.536 28 28 28"/><path fill="#0052B4" d="M38.543 21.913h-7.029L28 15.826l-3.514 6.087h-7.029L20.972 28l-3.515 6.087h7.029L28 40.174l3.514-6.087h7.029L35.028 28zM32.318 28l-2.159 3.74h-4.318L23.682 28l2.16-3.74h4.317zM28 20.521l.803 1.392h-1.606zm-6.477 3.74h1.607l-.803 1.391zm0 7.478.804-1.391.803 1.391zM28 35.48l-.803-1.392h1.607zm6.477-3.74H32.87l.803-1.391zm-1.607-7.478h1.607l-.804 1.391zM45.43 6.087H10.57a28.1 28.1 0 0 0-6.46 7.304h47.78a28.2 28.2 0 0 0-6.46-7.304M10.57 49.913h34.86a28.1 28.1 0 0 0 6.46-7.305H4.11a28.2 28.2 0 0 0 6.46 7.305"/></g><defs><clipPath id="a"><path fill="#fff" d="M0 0h56v56H0z"/></clipPath></defs></svg>