<svg xmlns="http://www.w3.org/2000/svg" width="56" height="56" fill="none" viewBox="0 0 56 56"><g clip-path="url(#a)"><path fill="#D80027" d="M28 56c15.464 0 28-12.536 28-28S43.464 0 28 0 0 12.536 0 28s12.536 28 28 28"/><path fill="#F0F0F0" d="m38.368 18.77-1.98 7.063-5.937-1.097-3.822-7.879-10.326 3.665-.814-2.295-2.702-.333 2.036 5.737 7.106-1.818 2.02 5.691-4.913 7.25 8.336 7.11-1.58 1.852 1.063 2.506 3.95-4.63-5.127-5.246 3.919-4.594 8.734.629 1.99-10.774 2.394.442 1.64-2.174z"/></g><defs><clipPath id="a"><path fill="#fff" d="M0 0h56v56H0z"/></clipPath></defs></svg>