<svg xmlns="http://www.w3.org/2000/svg" width="56" height="56" fill="none" viewBox="0 0 56 56"><g clip-path="url(#a)"><path fill="#F0F0F0" d="M28 56c15.464 0 28-12.536 28-28S43.464 0 28 0 0 12.536 0 28s12.536 28 28 28"/><path fill="#FF9811" d="M28 0C16.9 0 7.307 6.46 2.778 15.826h50.444C48.692 6.46 39.1 0 28 0"/><path fill="#6DA544" d="M28 56c11.1 0 20.693-6.46 25.222-15.826H2.778C7.308 49.54 16.9 56 28 56"/><path fill="#0052B4" d="M28 37.739c5.379 0 9.739-4.36 9.739-9.74 0-5.378-4.36-9.738-9.74-9.738-5.378 0-9.738 4.36-9.738 9.739s4.36 9.739 9.739 9.739"/><path fill="#F0F0F0" d="M28 34.087a6.087 6.087 0 1 0 0-12.174 6.087 6.087 0 0 0 0 12.174"/><path fill="#0052B4" d="m28 20.49 1.878 4.258 4.627-.503L31.755 28l2.75 3.756-4.627-.503L28 35.512l-1.878-4.26-4.627.504L24.245 28l-2.75-3.755 4.627.503z"/></g><defs><clipPath id="a"><path fill="#fff" d="M0 0h56v56H0z"/></clipPath></defs></svg>