<svg xmlns="http://www.w3.org/2000/svg" width="56" height="56" fill="none" viewBox="0 0 56 56"><g clip-path="url(#a)"><path fill="#F0F0F0" d="M28 56c15.464 0 28-12.536 28-28S43.464 0 28 0 0 12.536 0 28s12.536 28 28 28"/><path fill="#0052B4" d="M51.334 31.35c-2.334 0-2.334-2.133-4.667-2.133s-2.333 2.134-4.666 2.134-2.334-2.134-4.667-2.134-2.333 2.134-4.667 2.134-2.333-2.134-4.667-2.134-2.333 2.134-4.666 2.134-2.333-2.134-4.666-2.134-2.334 2.134-4.667 2.134c-2.334 0-2.334-2.134-4.668-2.134S7 31.351 4.667 31.351c-2.32 0-2.334-2.11-4.63-2.133.065 1.28.218 2.538.449 3.768 1.86.273 2.023 2.098 4.181 2.098 2.334 0 2.334-2.133 4.667-2.133s2.333 2.133 4.667 2.133 2.333-2.133 4.667-2.133 2.333 2.133 4.666 2.133S25.667 32.95 28 32.95s2.334 2.133 4.667 2.133c2.334 0 2.334-2.133 4.667-2.133s2.333 2.133 4.667 2.133 2.333-2.133 4.666-2.133 2.334 2.133 4.667 2.133c2.159 0 2.322-1.825 4.182-2.098a28 28 0 0 0 .449-3.768c-2.297.023-2.31 2.133-4.631 2.133m-4.668 5.172c-2.333 0-2.333 2.133-4.666 2.133s-2.334-2.133-4.667-2.133-2.333 2.133-4.666 2.133-2.334-2.133-4.667-2.133c-2.334 0-2.334 2.133-4.667 2.133S21 36.522 18.667 36.522 16.333 38.655 14 38.655c-2.334 0-2.334-2.133-4.667-2.133S7 38.655 4.667 38.655c-1.72 0-2.173-1.157-3.226-1.766a28 28 0 0 0 2.486 5.416c.22.053.463.084.74.084C7 42.389 7 40.255 9.332 40.255S11.666 42.39 14 42.39s2.333-2.134 4.667-2.134S21 42.39 23.333 42.39s2.333-2.134 4.667-2.134 2.333 2.134 4.666 2.134 2.334-2.134 4.667-2.134c2.334 0 2.334 2.134 4.667 2.134s2.333-2.134 4.666-2.134S49 42.39 51.333 42.39c.277 0 .52-.03.74-.084a28 28 0 0 0 2.485-5.416c-1.052.61-1.506 1.767-3.225 1.767-2.333 0-2.333-2.134-4.667-2.134m8.684-14.545c-1.706.354-1.924 2.069-4.016 2.069-2.334 0-2.334-2.134-4.667-2.134s-2.333 2.134-4.666 2.134-2.334-2.134-4.667-2.134-2.333 2.134-4.667 2.134-2.333-2.134-4.667-2.134c-1.26 0-1.84.623-2.475 1.196v3.733c.635-.573 1.215-1.195 2.475-1.195 2.334 0 2.334 2.133 4.667 2.133 2.334 0 2.334-2.133 4.667-2.133S39.667 27.78 42 27.78s2.334-2.133 4.667-2.133c2.334 0 2.334 2.133 4.667 2.133 2.159 0 2.322-1.825 4.182-2.098l.388-.003a28 28 0 0 0-.555-3.701m-2.045-5.98c-.484.407-1.043.744-1.97.744-2.334 0-2.334-2.134-4.667-2.134s-2.333 2.134-4.666 2.134-2.334-2.134-4.667-2.134-2.333 2.134-4.667 2.134-2.333-2.134-4.667-2.134c-1.26 0-1.84.623-2.475 1.196v3.733c.635-.572 1.215-1.195 2.475-1.195 2.334 0 2.334 2.133 4.667 2.133 2.334 0 2.334-2.133 4.667-2.133s2.333 2.133 4.666 2.133 2.334-2.133 4.667-2.133 2.333 2.133 4.667 2.133c1.655 0 2.137-1.072 3.11-1.696a28 28 0 0 0-1.14-2.78M46.866 7.31a4 4 0 0 0-.199-.006c-2.333 0-2.333 2.134-4.666 2.134s-2.334-2.134-4.667-2.134-2.333 2.134-4.667 2.134S30.334 7.304 28 7.304c-1.26 0-1.84.623-2.475 1.196v3.733c.635-.573 1.215-1.195 2.475-1.195 2.334 0 2.334 2.133 4.667 2.133 2.334 0 2.334-2.133 4.667-2.133S39.667 13.17 42 13.17s2.334-2.133 4.667-2.133c2.334 0 2.334 2.133 4.667 2.133q.215 0 .405-.024a28 28 0 0 0-4.873-5.837M35.157.924c-.64.577-1.219 1.21-2.49 1.21C30.334 2.133 30.334 0 28 0c-1.207 0-1.79.57-2.394 1.122v3.733c.604-.55 1.187-1.122 2.394-1.122 2.334 0 2.334 2.134 4.667 2.134 2.334 0 2.334-2.134 4.667-2.134S39.667 5.867 42 5.867c.98 0 1.547-.376 2.05-.812a27.9 27.9 0 0 0-8.893-4.13m-2.49 52.339c-2.334 0-2.334-2.134-4.667-2.134s-2.333 2.134-4.666 2.134S21 51.13 18.667 51.13c-1.787 0-2.206 1.251-3.353 1.837a27.8 27.8 0 0 0 10.38 2.938c.575-.525 1.158-1.041 2.306-1.041s1.731.516 2.305 1.041a27.8 27.8 0 0 0 10.381-2.938c-1.146-.586-1.565-1.837-3.352-1.837-2.334 0-2.334 2.134-4.667 2.134M42 45.96c-2.332 0-2.332-2.134-4.666-2.134-2.333 0-2.333 2.134-4.666 2.134S30.334 43.826 28 43.826s-2.334 2.134-4.667 2.134-2.333-2.134-4.666-2.134S16.333 45.96 14 45.96c-2.334 0-2.334-2.134-4.667-2.134-1.678 0-2.15 1.104-3.15 1.723a28 28 0 0 0 2 2.23c.315-.134.686-.22 1.15-.22 2.333 0 2.333 2.134 4.667 2.134s2.333-2.133 4.667-2.133 2.333 2.133 4.666 2.133S25.666 47.56 28 47.56s2.333 2.133 4.667 2.133S35 47.56 37.334 47.56s2.334 2.133 4.667 2.133 2.333-2.133 4.666-2.133c.465 0 .835.085 1.151.22a28 28 0 0 0 2-2.23c-1-.62-1.472-1.724-3.15-1.724-2.334 0-2.334 2.134-4.667 2.134"/><path fill="#F0F0F0" d="M27.925 28H28v-.075z"/><path fill="#0052B4" d="M28 14.609v8.226l-9.74-9.443zM14.61 28h8.225L14.61 17.045l-1.217 8.522z"/><path fill="#F0F0F0" d="M28 14.609V0h-.005C12.534.003 0 12.538 0 28h14.609v-8.226L22.835 28h5.09l.075-.075v-5.09l-8.226-8.226z"/><path fill="#D80027" d="M14.166 3.652A28.13 28.13 0 0 0 3.652 14.166V28h7.305V10.957H28V3.652z"/><path fill="#D80027" d="m28 24.557-9.948-9.948h-3.444L28 28z"/><path fill="#6DA544" d="M36.522 14.608h10.956L42 20.087z"/><path fill="#A2001D" d="M40.782 18.87h2.435v6.695h-2.435zm0 17.652h2.435v6.696h-2.435z"/><path fill="#FFDA44" d="M49.304 32.87a3.652 3.652 0 0 0-6.087-2.722V28h1.217v-2.435h-1.217v-1.217h-2.435v1.217h-1.217V28h1.217v2.148a3.652 3.652 0 0 0-4.87 5.443v2.148h12.175v-2.148a3.64 3.64 0 0 0 1.217-2.722"/><path fill="#D80027" d="M45.653 31.652a1.2 1.2 0 0 0-.811.31l-1.624 1.454h-2.435l-1.624-1.454a1.219 1.219 0 0 0-1.621 1.815l.81.726v.801h7.305v-.8l.81-.727c.152-.136.407-.434.407-.907a1.22 1.22 0 0 0-1.217-1.218"/></g><defs><clipPath id="a"><path fill="#fff" d="M0 0h56v56H0z"/></clipPath></defs></svg>