<svg xmlns="http://www.w3.org/2000/svg" width="56" height="56" fill="none" viewBox="0 0 56 56"><g clip-path="url(#a)"><path fill="#F0F0F0" d="M28 56c15.464 0 28-12.536 28-28S43.464 0 28 0 0 12.536 0 28s12.536 28 28 28"/><path fill="#A2001D" d="M28 0C15.963 0 5.699 7.599 1.743 18.26H54.26C50.303 7.599 40.04 0 28.001 0"/><path fill="#000" d="M28 56c12.04 0 22.303-7.598 26.259-18.26H1.742C5.698 48.401 15.962 56 28.001 56"/><path fill="#496E2D" d="M21.305 26.174h-5.399a2.44 2.44 0 0 1 2.355-1.826v-3.653a6.094 6.094 0 0 0-6.087 6.087v3.043h9.131a.61.61 0 0 1 .608.61v1.217H9.74v3.652h15.826v-4.87a4.265 4.265 0 0 0-4.26-4.26m9.129 5.478V20.695h-3.652v14.61h6.087v-3.653zm12.174 0V20.695h-3.653v10.957H37.74V28h-3.652v7.304h10.956v-3.652z"/></g><defs><clipPath id="a"><path fill="#fff" d="M0 0h56v56H0z"/></clipPath></defs></svg>