<svg xmlns="http://www.w3.org/2000/svg" width="56" height="56" fill="none" viewBox="0 0 56 56"><g clip-path="url(#a)"><path fill="#F0F0F0" d="M28 56c15.464 0 28-12.536 28-28S43.464 0 28 0 0 12.536 0 28s12.536 28 28 28"/><path fill="#D80027" d="M37.094 20.695h-3.663q.046.605.047 1.218c0 2.708-.677 5.334-1.857 7.202-.364.577-.976 1.39-1.795 1.94v-10.36h-3.652v10.36c-.82-.55-1.431-1.363-1.795-1.94-1.18-1.868-1.858-4.494-1.858-7.202q.002-.613.048-1.218h-3.663q-.037.602-.037 1.218c0 7.509 4.01 13.391 9.13 13.391s9.131-5.882 9.131-13.391q0-.617-.036-1.218"/><path fill="#6DA544" d="M11.565 13.391h3.652v2.435h3.652v-2.435h3.653v2.435h3.652v-2.435h3.652v2.435h3.652v-2.435h3.652v2.435h3.652v-2.435h3.652v2.435h8.787C48.693 6.46 39.101 0 28 0 16.9 0 7.307 6.46 2.778 15.826h8.787z"/><path fill="#D80027" d="M44.435 40.174v2.435h-3.652v-2.435H37.13v2.435h-3.652v-2.435h-3.652v2.435h-3.652v-2.435h-3.652v2.435H18.87v-2.435h-3.653v2.435h-3.652v-2.435H2.778C7.308 49.54 16.9 56 28 56s20.693-6.46 25.222-15.826z"/></g><defs><clipPath id="a"><path fill="#fff" d="M0 0h56v56H0z"/></clipPath></defs></svg>