<svg xmlns="http://www.w3.org/2000/svg" width="56" height="56" fill="none" viewBox="0 0 56 56"><g clip-path="url(#a)"><path fill="#F0F0F0" d="M28 56c15.464 0 28-12.536 28-28S43.464 0 28 0 0 12.536 0 28s12.536 28 28 28"/><path fill="#D80027" d="M50.214 45.049 33.165 28l17.049-17.049a28.3 28.3 0 0 0-5.165-5.165L28 22.835 10.951 5.786a28.3 28.3 0 0 0-5.165 5.165L22.836 28 5.785 45.049a28.3 28.3 0 0 0 5.165 5.165L28 33.165l17.05 17.049a28.3 28.3 0 0 0 5.165-5.165"/><path fill="#FFDA44" d="M23.13 8.522 28 9.739l4.87-1.217v-4.14l-1.948.974L28 2.435l-2.92 2.921-1.948-.974z"/><path fill="#D80027" d="M23.13 8.521v3.044c0 3.728 4.87 4.87 4.87 4.87s4.87-1.142 4.87-4.87V8.521z"/></g><defs><clipPath id="a"><path fill="#fff" d="M0 0h56v56H0z"/></clipPath></defs></svg>