<svg xmlns="http://www.w3.org/2000/svg" width="56" height="56" fill="none" viewBox="0 0 56 56"><g clip-path="url(#a)"><path fill="#FFDA44" d="M28 56c15.464 0 28-12.536 28-28S43.464 0 28 0 0 12.536 0 28s12.536 28 28 28"/><path fill="#6DA544" d="M45.047 5.788A27.87 27.87 0 0 0 28 0a27.88 27.88 0 0 0-17.047 5.788L28 22.835z"/><path fill="#000" d="M5.788 10.953A27.88 27.88 0 0 0 0 28c0 6.415 2.16 12.325 5.788 17.047L22.835 28z"/><path fill="#6DA544" d="M10.953 50.212A27.87 27.87 0 0 0 28 56a27.88 27.88 0 0 0 17.047-5.788L28 33.165z"/><path fill="#000" d="M50.212 45.047A27.87 27.87 0 0 0 56 28a27.87 27.87 0 0 0-5.788-17.047L33.165 28z"/></g><defs><clipPath id="a"><path fill="#fff" d="M0 0h56v56H0z"/></clipPath></defs></svg>