<svg xmlns="http://www.w3.org/2000/svg" width="56" height="56" fill="none" viewBox="0 0 56 56"><g clip-path="url(#a)"><path fill="#F0F0F0" d="M28 56c15.464 0 28-12.536 28-28S43.464 0 28 0 0 12.536 0 28s12.536 28 28 28"/><path fill="#000" d="M28 0C16.9 0 7.307 6.46 2.778 15.826h50.444C48.692 6.46 39.1 0 28 0"/><path fill="#496E2D" d="M28 56C16.9 56 7.307 49.54 2.778 40.174h50.444C48.692 49.54 39.1 56 28 56"/><path fill="#A2001D" d="M54.678 19.479H1.322A28 28 0 0 0 0 28a28 28 0 0 0 1.322 8.522h53.356A28 28 0 0 0 56 28a28 28 0 0 0-1.322-8.521"/><path fill="#F0F0F0" d="m36.719 12.939-3.316-1.53L28 23.641l-5.403-12.234-3.316 1.53L25.99 28l-6.708 15.06 3.316 1.53L28 32.358l5.403 12.234 3.316-1.53L30.01 28z"/><path fill="#F0F0F0" d="M30.252 14.382C28.97 12.98 28 12.174 28 12.174s-.968.806-2.252 2.208v27.236C27.032 43.02 28 43.826 28 43.826s.969-.806 2.252-2.208z"/><path fill="#A2001D" d="M21.913 19.604v16.79c1.357 2.404 3.017 4.374 4.261 5.68v-28.15c-1.244 1.307-2.905 3.277-4.26 5.68m12.173 0c-1.357-2.403-3.017-4.373-4.26-5.68v28.15c1.243-1.306 2.903-3.276 4.26-5.68z"/><path fill="#000" d="M34.087 19.605v16.79c1.373-2.434 2.435-5.311 2.435-8.395s-1.062-5.962-2.435-8.395m-12.174 0v16.79C20.54 33.96 19.48 31.084 19.48 28s1.061-5.962 2.434-8.395"/></g><defs><clipPath id="a"><path fill="#fff" d="M0 0h56v56H0z"/></clipPath></defs></svg>