<svg xmlns="http://www.w3.org/2000/svg" width="56" height="56" fill="none" viewBox="0 0 56 56"><g clip-path="url(#a)"><path fill="#D80027" d="M28 56c15.464 0 28-12.536 28-28S43.464 0 28 0 0 12.536 0 28s12.536 28 28 28"/><path fill="#FFDA44" d="m41.694 28-5.596 2.633 2.98 5.419-6.076-1.163-.77 6.138L28 36.513l-4.232 4.514-.77-6.138-6.075 1.162 2.979-5.419-5.595-2.631 5.595-2.632-2.98-5.42 6.076 1.163.77-6.137L28 19.489l4.232-4.514.77 6.137 6.076-1.162-2.98 5.42z"/><path fill="#D80027" d="M28 36.522a8.522 8.522 0 1 0 0-17.043 8.522 8.522 0 0 0 0 17.043"/><path fill="#FFDA44" d="M23.739 28q-.308 0-.608.03a4.85 4.85 0 0 0 1.14 3.1 8.5 8.5 0 0 1 1.646-2.726A6 6 0 0 0 23.739 28m2.622 4.587a4.86 4.86 0 0 0 3.276 0A6.1 6.1 0 0 0 28 29.747a6.1 6.1 0 0 0-1.638 2.84m5.855-7.021a4.867 4.867 0 0 0-8.434 0A8.47 8.47 0 0 1 28 26.712a8.47 8.47 0 0 1 4.217-1.146m-2.135 2.838a8.5 8.5 0 0 1 1.646 2.726 4.85 4.85 0 0 0 1.14-3.1 6.05 6.05 0 0 0-2.786.374"/></g><defs><clipPath id="a"><path fill="#fff" d="M0 0h56v56H0z"/></clipPath></defs></svg>