<svg xmlns="http://www.w3.org/2000/svg" width="56" height="56" fill="none" viewBox="0 0 56 56"><g clip-path="url(#a)"><path fill="#D80027" d="M0 28a27.9 27.9 0 0 0 3.405 13.391L28 43.826l24.596-2.435A27.9 27.9 0 0 0 56 28a27.9 27.9 0 0 0-3.404-13.391L28 12.174 3.405 14.609A27.9 27.9 0 0 0 0 27.999"/><path fill="#0052B4" d="M3.404 14.609h49.191C47.846 5.905 38.613 0 28 0S8.153 5.905 3.404 14.609M28 56c10.613 0 19.846-5.905 24.595-14.608H3.405C8.152 50.095 17.386 56 28 56"/><path fill="#F0F0F0" d="M37.74 33.479v-3.653h-2.436v-4.87l-2.434-2.434-2.435 2.435v-4.87L28 17.652l-2.435 2.435v4.87l-2.434-2.435-2.435 2.435v4.87H18.26v3.651h-2.435v3.653h24.348v-3.653z"/></g><defs><clipPath id="a"><path fill="#fff" d="M0 0h56v56H0z"/></clipPath></defs></svg>