<svg xmlns="http://www.w3.org/2000/svg" width="56" height="56" fill="none" viewBox="0 0 56 56"><g clip-path="url(#a)"><path fill="#D80027" d="M0 28C0 12.536 12.536 0 28 0s28 12.536 28 28"/><path fill="#FFDA44" d="m37.739 26.04-3.98 1.872 2.12 3.854-4.322-.827-.547 4.366L28 32.094l-3.01 3.21-.548-4.365-4.32.827 2.118-3.854-3.98-1.872 3.98-1.872-2.119-3.854 4.321.826.548-4.365 3.01 3.21 3.01-3.21.547 4.366 4.322-.827-2.12 3.854zM35.304 9.13h-5.478a1.826 1.826 0 0 0-3.652 0h-5.479c0 1.01.879 1.827 1.887 1.827h-.06c0 1.008.817 1.826 1.826 1.826 0 1.008.817 1.826 1.826 1.826h3.652a1.826 1.826 0 0 0 1.826-1.826 1.826 1.826 0 0 0 1.826-1.826h-.061c1.009 0 1.887-.818 1.887-1.826"/><path fill="#F0F0F0" d="M56 28c0 15.464-12.536 28-28 28S0 43.464 0 28z"/><path fill="#0052B4" d="M28 56c8.753 0 16.566-4.017 21.7-10.307-.923-.63-1.422-1.647-3.033-1.647-2.334 0-2.334 2.133-4.667 2.133s-2.333-2.133-4.666-2.133-2.334 2.133-4.667 2.133c-2.334 0-2.334-2.133-4.667-2.133s-2.333 2.133-4.667 2.133c-2.332 0-2.332-2.133-4.666-2.133-2.333 0-2.333 2.133-4.667 2.133s-2.333-2.133-4.667-2.133c-1.611 0-2.11 1.017-3.033 1.647C11.434 51.983 19.248 56 28 56m23.334-24.429c-2.334 0-2.334-2.134-4.667-2.134S44.334 31.572 42 31.572s-2.334-2.134-4.667-2.134-2.333 2.134-4.667 2.134-2.333-2.134-4.667-2.134-2.333 2.134-4.666 2.134-2.333-2.134-4.666-2.134-2.334 2.134-4.667 2.134c-2.334 0-2.334-2.134-4.668-2.134S7 31.572 4.667 31.572c-2.32 0-2.334-2.11-4.63-2.133a28 28 0 0 0 .449 3.768c1.86.274 2.023 2.098 4.181 2.098 2.334 0 2.334-2.133 4.667-2.133s2.333 2.133 4.667 2.133 2.333-2.133 4.667-2.133 2.333 2.133 4.666 2.133 2.333-2.133 4.666-2.133 2.334 2.133 4.667 2.133c2.334 0 2.334-2.133 4.667-2.133s2.333 2.133 4.667 2.133 2.333-2.133 4.666-2.133 2.334 2.133 4.667 2.133c2.159 0 2.322-1.824 4.182-2.098.23-1.23.384-2.487.449-3.767-2.297.022-2.31 2.132-4.631 2.132m-4.667 5.17c-2.333 0-2.333 2.134-4.666 2.134s-2.333-2.134-4.667-2.134-2.333 2.134-4.666 2.134-2.334-2.134-4.667-2.134c-2.334 0-2.334 2.134-4.667 2.134s-2.333-2.134-4.666-2.134-2.334 2.134-4.667 2.134c-2.334 0-2.334-2.134-4.667-2.134S7 38.876 4.668 38.876c-1.668 0-2.144-1.09-3.13-1.711a28 28 0 0 0 2.54 5.393q.269.05.59.051C7 42.609 7 40.476 9.334 40.476s2.333 2.133 4.667 2.133 2.333-2.133 4.667-2.133 2.333 2.133 4.666 2.133 2.334-2.133 4.667-2.133 2.333 2.133 4.667 2.133 2.333-2.133 4.666-2.133 2.334 2.133 4.667 2.133 2.333-2.133 4.666-2.133 2.334 2.133 4.667 2.133q.321 0 .59-.052a28 28 0 0 0 2.541-5.392c-.987.621-1.464 1.71-3.13 1.71-2.334 0-2.334-2.133-4.668-2.133"/><path fill="#F0F0F0" d="M55.913 25.789c-2.245.053-2.276 2.13-4.58 2.13-2.333 0-2.333-2.133-4.667-2.133S44.333 27.92 42 27.92s-2.334-2.134-4.667-2.134S35 27.92 32.667 27.92 30.333 25.786 28 25.786c-2.334 0-2.334 2.134-4.667 2.134S21 25.786 18.667 25.786 16.333 27.92 14 27.92c-2.334 0-2.334-2.134-4.667-2.134S7 27.92 4.666 27.92c-2.303 0-2.334-2.078-4.58-2.132a28 28 0 0 0-.044 3.733c2.29.025 2.306 2.132 4.625 2.132C7 31.653 7 29.52 9.333 29.52s2.333 2.133 4.667 2.133 2.333-2.133 4.667-2.133 2.333 2.133 4.666 2.133S25.667 29.52 28 29.52s2.333 2.133 4.667 2.133S35 29.52 37.333 29.52s2.334 2.133 4.667 2.133 2.333-2.133 4.666-2.133 2.334 2.133 4.667 2.133c2.32 0 2.335-2.107 4.626-2.132a28.5 28.5 0 0 0-.046-3.733"/></g><defs><clipPath id="a"><path fill="#fff" d="M0 0h56v56H0z"/></clipPath></defs></svg>