<svg xmlns="http://www.w3.org/2000/svg" width="56" height="56" fill="none" viewBox="0 0 56 56"><g clip-path="url(#a)"><path fill="#F0F0F0" d="M28 56c15.464 0 28-12.536 28-28S43.464 0 28 0 0 12.536 0 28s12.536 28 28 28"/><path fill="#D80027" d="M55.999 27.919H25.646c-6.026 6.026-9.67 10.679-13.391 14.4l15.826 1.426 24.558-2.435A27.9 27.9 0 0 0 56 28z"/><path fill="#FFDA44" d="M12.255 14.528H52.55C47.79 5.868 38.58 0 28 0 20.29 0 13.307 3.118 8.243 8.162z"/><path fill="#0052B4" d="M13.472 41.31c-2.517 2.517-3.49 4.626-5.31 6.447C13.231 52.848 20.246 56 28 56c10.646 0 19.904-5.942 24.64-14.69z"/><path fill="#6DA544" d="M8.201 8.12c-10.935 10.935-10.935 28.664 0 39.598L28 27.92z"/><path fill="#F0F0F0" d="M7.386 27.919a8.52 8.52 0 0 1 6.695-8.324 8.522 8.522 0 1 0 0 16.647c-3.828-.836-6.695-4.244-6.695-8.323"/><path fill="#F0F0F0" d="m13.988 20.614.453 1.395h1.467l-1.187.862.453 1.395-1.186-.862-1.187.862.453-1.395-1.187-.862h1.467zm-.001 3.653.453 1.395h1.467l-1.187.862.453 1.395-1.187-.862-1.186.862.453-1.395-1.187-.862h1.467zm.001 3.652.453 1.394h1.467l-1.187.863.453 1.395-1.186-.863-1.187.863.453-1.395-1.187-.863h1.467z"/><path fill="#F0F0F0" d="m13.987 31.57.453 1.396h1.467l-1.187.862.453 1.395-1.187-.862-1.186.862.453-1.395-1.187-.862h1.467z"/></g><defs><clipPath id="a"><path fill="#fff" d="M0 0h56v56H0z"/></clipPath></defs></svg>