<svg xmlns="http://www.w3.org/2000/svg" width="56" height="56" fill="none" viewBox="0 0 56 56"><g clip-path="url(#a)"><path fill="#F0F0F0" d="M28 56c15.464 0 28-12.536 28-28S43.464 0 28 0 0 12.536 0 28s12.536 28 28 28"/><path fill="#0052B4" d="M28 0C19.513 0 11.91 3.776 6.774 9.74h42.451C44.09 3.775 36.486 0 28 0m21.225 46.26H6.775C11.908 52.225 19.512 56 28 56c8.486 0 16.09-3.776 21.225-9.74"/><path fill="#D80027" d="M51.89 13.392H4.11A27.87 27.87 0 0 0 0 28a27.87 27.87 0 0 0 4.11 14.61h47.78A27.87 27.87 0 0 0 56 28a27.87 27.87 0 0 0-4.11-14.608"/><path fill="#F0F0F0" d="M17.226 38.774C23.176 38.774 28 33.95 28 28s-4.824-10.774-10.774-10.774S6.452 22.05 6.452 28s4.824 10.774 10.774 10.774"/><path fill="#D80027" d="m17.227 17.226 2.417 7.44h7.835l-6.341 4.598 2.436 7.462-6.347-4.62-6.339 4.612 2.427-7.454-6.336-4.598h7.83z"/></g><defs><clipPath id="a"><path fill="#fff" d="M0 0h56v56H0z"/></clipPath></defs></svg>