<svg xmlns="http://www.w3.org/2000/svg" width="56" height="56" fill="none" viewBox="0 0 56 56"><g clip-path="url(#a)"><path fill="#F0F0F0" d="M28 56c15.464 0 28-12.536 28-28S43.464 0 28 0 0 12.536 0 28s12.536 28 28 28"/><path fill="#D80027" d="M37.739 28c0 2.435-4.36 8.522-9.74 8.522-5.378 0-9.738-6.087-9.738-8.522 0-5.379 4.36-9.74 9.739-9.74s9.739 4.361 9.739 9.74"/><path fill="#0052B4" d="M37.739 28c0 5.379-4.36 9.74-9.74 9.74-5.378 0-9.738-4.361-9.738-9.74"/><path fill="#000" d="m38.322 36.608 2.582-2.582 1.722 1.722-2.582 2.582zm-4.304 4.304L36.6 38.33l1.721 1.721-2.582 2.582zm9.468.861 2.582-2.583 1.722 1.722-2.582 2.582zm-4.303 4.304 2.582-2.582 1.721 1.722-2.582 2.581zm1.721-6.886 2.582-2.582 1.722 1.722-2.582 2.582zm-4.302 4.303 2.582-2.582 1.721 1.721-2.582 2.583zm6.896-24.097-6.885-6.886 1.72-1.721 6.886 6.885zm-6.887-1.721-2.582-2.582 1.722-1.722 2.582 2.582zm4.305 4.304-2.582-2.583 1.721-1.72 2.582 2.581zm.858-9.47-2.582-2.58 1.722-1.722 2.582 2.582zm4.307 4.305L43.5 14.233l1.721-1.721 2.583 2.582zM9.926 39.186l6.885 6.885-1.721 1.721-6.886-6.885zm6.887 1.72 2.582 2.582-1.722 1.722-2.582-2.582zm-4.305-4.302 2.582 2.582-1.722 1.721-2.582-2.582zm2.582-2.584 6.885 6.886-1.721 1.721-6.886-6.885zm1.72-24.097-6.885 6.885-1.721-1.721 6.885-6.886zm2.584 2.582-6.886 6.885-1.721-1.721 6.885-6.885zm2.584 2.583-6.886 6.885-1.721-1.72 6.885-6.886z"/></g><defs><clipPath id="a"><path fill="#fff" d="M0 0h56v56H0z"/></clipPath></defs></svg>