<svg xmlns="http://www.w3.org/2000/svg" width="56" height="56" fill="none" viewBox="0 0 56 56"><g clip-path="url(#a)"><path fill="#0052B4" d="M56 28c0 15.464-12.536 28-28 28S0 43.464 0 28C0 28.007 28 .003 28 0c15.464 0 28 12.536 28 28"/><path fill="#F0F0F0" d="M27.925 28H28v-.075z"/><path fill="#F0F0F0" d="M28 14.609V0h-.005C12.533.003 0 12.538 0 28h14.609v-8.226L22.835 28h5.09l.075-.075v-5.09l-8.226-8.226z"/><path fill="#6DA544" d="M40.174 20.696a4.87 4.87 0 1 0 0-9.74 4.87 4.87 0 0 0 0 9.74"/><path fill="#D80027" d="M14.166 3.652A28.13 28.13 0 0 0 3.652 14.166V28h7.305V10.957H28V3.652z"/><path fill="#D80027" d="m28 24.557-9.948-9.948h-3.444L28 28zm3.652-9.948h17.044v7.304H31.652z"/><path fill="#FFDA44" d="M31.652 32.87v4.87h2.562a8.5 8.5 0 0 0 5.96 2.434c2.32 0 4.424-.93 5.96-2.435h2.562v-4.87z"/><path fill="#338AF3" d="M31.652 20.696V28c0 6.523 8.522 8.522 8.522 8.522s8.522-1.999 8.522-8.522v-7.304z"/><path fill="#F3F3F3" d="M40.174 24.597c-2.13 0-2.13 1.948-4.261 1.948-2.13 0-2.13-1.948-4.26-1.948v3.409c2.13 0 2.13 1.948 4.26 1.948s2.13-1.948 4.26-1.948 2.131 1.948 4.262 1.948 2.13-1.948 4.26-1.948v-3.409c-2.13 0-2.13 1.948-4.26 1.948s-2.131-1.948-4.262-1.948m.001-6.823c-2.13 0-2.13 1.948-4.261 1.948-2.13 0-2.13-1.948-4.26-1.948v3.409c2.13 0 2.13 1.948 4.26 1.948s2.13-1.948 4.26-1.948 2.131 1.948 4.262 1.948 2.13-1.948 4.26-1.948v-3.41c-2.13 0-2.13 1.949-4.26 1.949s-2.131-1.948-4.262-1.948"/></g><defs><clipPath id="a"><path fill="#fff" d="M0 0h56v56H0z"/></clipPath></defs></svg>