<svg xmlns="http://www.w3.org/2000/svg" width="56" height="56" fill="none" viewBox="0 0 56 56"><g clip-path="url(#a)"><path fill="#338AF3" d="M28 56c15.464 0 28-12.536 28-28S43.464 0 28 0 0 12.536 0 28s12.536 28 28 28"/><path fill="#FFDA44" d="M43.826 28.305H12.174c0 2.185 1.903 3.956 4.088 3.956h-.132a3.956 3.956 0 0 0 3.957 3.957 3.956 3.956 0 0 0 3.956 3.956h7.913a3.956 3.956 0 0 0 3.957-3.956 3.956 3.956 0 0 0 3.957-3.957h-.132c2.185 0 4.088-1.771 4.088-3.956"/><path fill="#338AF3" d="M38.956 23.13c0 6.052-4.905 10.957-10.957 10.957-6.05 0-10.956-4.905-10.956-10.956"/><path fill="#FFDA44" d="m36.369 23.13-3.42 1.609 1.82 3.311-3.712-.71-.47 3.751L28 28.332l-2.587 2.76-.47-3.752-3.713.71 1.82-3.312-3.42-1.608 3.42-1.608-1.82-3.312 3.713.71.47-3.751L28 17.928l2.586-2.76.47 3.752 3.714-.71-1.821 3.312z"/></g><defs><clipPath id="a"><path fill="#fff" d="M0 0h56v56H0z"/></clipPath></defs></svg>