<svg xmlns="http://www.w3.org/2000/svg" width="56" height="56" fill="none" viewBox="0 0 56 56"><g clip-path="url(#a)"><path fill="#D80027" d="M53.222 15.826C48.692 6.46 39.1 0 28 0S7.307 6.46 2.778 15.826L28 18.261zM2.778 40.174C7.308 49.54 16.9 56 28 56s20.693-6.46 25.222-15.826L28 37.74z"/><path fill="#0052B4" d="M53.222 15.826H2.778A27.9 27.9 0 0 0 0 28c0 4.363.998 8.493 2.778 12.174h50.444A27.9 27.9 0 0 0 56 28c0-4.363-.998-8.493-2.778-12.174"/><path fill="#F0F0F0" d="M28 37.739c5.379 0 9.739-4.36 9.739-9.74 0-5.378-4.36-9.738-9.74-9.738-5.378 0-9.738 4.36-9.738 9.739s4.36 9.739 9.739 9.739"/></g><defs><clipPath id="a"><path fill="#fff" d="M0 0h56v56H0z"/></clipPath></defs></svg>