<svg xmlns="http://www.w3.org/2000/svg" width="56" height="56" fill="none" viewBox="0 0 56 56"><g clip-path="url(#a)"><path fill="#D80027" d="M56 28c0 15.464-12.536 28-28 28S0 43.464 0 28c1.217 0 28-3.652 28-3.652z"/><path fill="#0052B4" d="M0 28C0 12.536 12.536 0 28 0s28 12.536 28 28"/><path fill="#FFDA44" d="M20.697 19.478a3.652 3.652 0 0 0-6.087-2.722v-2.148h1.217v-2.435H14.61v-1.217h-2.435v1.217h-1.218v2.435h1.218v2.148a3.652 3.652 0 0 0-4.87 5.443v2.148H19.48V22.2a3.64 3.64 0 0 0 1.218-2.721"/></g><defs><clipPath id="a"><path fill="#fff" d="M0 0h56v56H0z"/></clipPath></defs></svg>