<svg xmlns="http://www.w3.org/2000/svg" width="56" height="56" fill="none" viewBox="0 0 56 56"><g clip-path="url(#a)"><path fill="#FFDA44" d="M28 56c15.464 0 28-12.536 28-28S43.464 0 28 0 0 12.536 0 28s12.536 28 28 28"/><path fill="#FF9811" d="M21.913 4.87h-9.695q-.645.44-1.262.915L8.521 28l2.435 22.214q.618.475 1.262.916h9.695z"/><path fill="#6DA544" d="M0 28c0 9.05 4.295 17.096 10.957 22.214V5.785C4.295 10.904 0 18.95 0 28"/><path fill="#FFDA44" d="M45.043 17.07v.7l.026.004z"/><path fill="#A2001D" d="M53.768 35.304h-5.275l-2.232 2.435v4.87h-4.87v-2.436h2.435v-4.87H32.87v3.044h-2.435v-5.8a3.64 3.64 0 0 1-1.217-2.721V14a3.65 3.65 0 0 1 3.652-3.653V32.87h4.87l1.67-1.392a5.8 5.8 0 0 1-.453-2.26v-3.652h-3.653V18.26h7.305c0-1.218 1.826-2.435 1.826-2.435s1.826 1.217 1.826 2.435v7.304c1.354.016 3.506-.019 5.831 0a7.4 7.4 0 0 1-.961-3.652c0-2.148.927-4.08 2.403-5.416a28.1 28.1 0 0 0-9.752-11.628H25.565V51.13h18.217a28.06 28.06 0 0 0 10.95-14.776z"/></g><defs><clipPath id="a"><path fill="#fff" d="M0 0h56v56H0z"/></clipPath></defs></svg>