<svg xmlns="http://www.w3.org/2000/svg" width="56" height="56" fill="none" viewBox="0 0 56 56"><g clip-path="url(#a)"><path fill="#F0F0F0" d="M28 56c15.464 0 28-12.536 28-28S43.464 0 28 0 0 12.536 0 28s12.536 28 28 28"/><path fill="#F0F0F0" d="M6.4 10.182h43.2a28.2 28.2 0 0 0-5.499-5.09H11.899a28.2 28.2 0 0 0-5.499 5.09M0 28q.001 1.287.116 2.546h55.768q.114-1.26.116-2.546-.001-1.288-.116-2.545H.116A28 28 0 0 0 0 28m3.054 12.727h49.893a28 28 0 0 0 1.999-5.09H1.055a28 28 0 0 0 1.999 5.09M11.9 50.91h32.2a28.2 28.2 0 0 0 5.5-5.092H6.4a28.2 28.2 0 0 0 5.5 5.091M1.055 20.364h53.891a28 28 0 0 0-1.999-5.091H3.054a28 28 0 0 0-2 5.09"/><path fill="#D80027" d="M13.392 5.09H44.1A27.87 27.87 0 0 0 28.001 0c-3.653 0-10.055 1.884-14.61 5.09m13.392 10.183h26.164a28 28 0 0 0-3.347-5.09H26.783zm0 10.182h29.101a28 28 0 0 0-.938-5.091H26.783zM1.054 35.636h53.892a28 28 0 0 0 .938-5.09H.115c.158 1.747.474 3.45.938 5.09M6.4 45.818h43.2a28 28 0 0 0 3.346-5.09H3.053a28 28 0 0 0 3.347 5.09M28 56a27.87 27.87 0 0 0 16.1-5.09H11.898A27.87 27.87 0 0 0 28 56"/><path fill="#0052B4" d="M1.054 20.364a28 28 0 0 0-.938 5.09H28V0C15.183 0 4.378 8.611 1.054 20.364"/><path fill="#F0F0F0" d="m16.667 7.304 1.812 5.58h5.868L19.6 16.333l1.813 5.58-4.747-3.449-4.746 3.449 1.813-5.58-4.747-3.449h5.868z"/></g><defs><clipPath id="a"><path fill="#fff" d="M0 0h56v56H0z"/></clipPath></defs></svg>