<svg xmlns="http://www.w3.org/2000/svg" width="56" height="56" fill="none" viewBox="0 0 56 56"><g clip-path="url(#a)"><path fill="#F0F0F0" d="M0 28c0 4.363.998 8.493 2.778 12.174L28 41.39l25.222-1.217A27.9 27.9 0 0 0 56 28c0-4.363-.998-8.493-2.778-12.174L28 14.608 2.778 15.826A27.9 27.9 0 0 0 0 28"/><path fill="#6DA544" d="M28 56c11.1 0 20.693-6.46 25.222-15.826H2.778C7.308 49.54 16.9 56 28 56"/><path fill="#0052B4" d="M28 0C16.9 0 7.307 6.46 2.778 15.826h50.444C48.692 6.46 39.1 0 28 0"/><path fill="#000" d="M29.826 27.39v-6.695h-3.652v6.696l-4.411 4.411A7.3 7.3 0 0 0 28 35.304a7.3 7.3 0 0 0 6.237-3.502z"/></g><defs><clipPath id="a"><path fill="#fff" d="M0 0h56v56H0z"/></clipPath></defs></svg>