<svg xmlns="http://www.w3.org/2000/svg" width="56" height="56" fill="none" viewBox="0 0 56 56"><g clip-path="url(#a)"><path fill="#000" d="M2.778 15.826A27.9 27.9 0 0 0 0 28c0 4.363.998 8.493 2.778 12.174L28 42.61l25.222-2.435A27.9 27.9 0 0 0 56 28a27.9 27.9 0 0 0-2.778-12.174L28 13.392z"/><path fill="#496E2D" d="M2.78 40.174C7.307 49.54 16.9 56 28 56s20.692-6.46 25.22-15.826z"/><path fill="#D80027" d="M2.78 15.826h50.44C48.693 6.46 39.1 0 28 0S7.308 6.46 2.78 15.826"/><path fill="#F0F0F0" d="m34.517 22.88 2.297 3.166 3.721-1.206-2.3 3.163 2.296 3.166-3.719-1.211-2.301 3.163.002-3.912-3.72-1.21 3.722-1.207z"/><path fill="#F0F0F0" d="M28.247 35.914a7.913 7.913 0 1 1 3.764-14.876 9.7 9.7 0 0 0-6.807-2.777c-5.379 0-9.74 4.36-9.74 9.74 0 5.378 4.361 9.738 9.74 9.738 2.65 0 5.052-1.06 6.807-2.777a7.9 7.9 0 0 1-3.764.951"/></g><defs><clipPath id="a"><path fill="#fff" d="M0 0h56v56H0z"/></clipPath></defs></svg>