<svg xmlns="http://www.w3.org/2000/svg" width="56" height="56" fill="none" viewBox="0 0 56 56"><g clip-path="url(#a)"><path fill="#D80027" d="M28 56c15.464 0 28-12.536 28-28S43.464 0 28 0 0 12.536 0 28s12.536 28 28 28"/><path fill="#FFDA44" d="M44.547 22.978h-12.64L28 10.956l-3.906 12.022h-12.64l10.226 7.43-3.907 12.023L28 35l10.227 7.43-3.906-12.023zm-20.005 6.5 1.32-4.065h4.275l1.322 4.065L28 31.991zm4.804-6.5h-2.692L28 18.835zm4.183 4.996-.832-2.561h4.357zm-10.226-2.561-.832 2.56-3.524-2.56zm-.898 10.643 1.346-4.143 2.178 1.583zm7.666-2.56 2.179-1.583 1.346 4.143z"/></g><defs><clipPath id="a"><path fill="#fff" d="M0 0h56v56H0z"/></clipPath></defs></svg>