<svg xmlns="http://www.w3.org/2000/svg" width="56" height="56" fill="none" viewBox="0 0 56 56"><g clip-path="url(#a)"><path fill="#FFDA44" d="M40.174 2.778A27.9 27.9 0 0 0 28 0a27.9 27.9 0 0 0-12.174 2.778L13.392 28l2.434 25.222A27.9 27.9 0 0 0 28 56a27.9 27.9 0 0 0 12.174-2.778L42.61 28z"/><path fill="#0052B4" d="M15.826 2.78C6.46 7.307 0 16.9 0 28s6.46 20.692 15.826 25.22z"/><path fill="#D80027" d="M40.174 2.78v50.44C49.54 48.693 56 39.1 56 28S49.54 7.308 40.174 2.78"/><path fill="#FF9811" d="M37.739 22.03h-6.696a3.043 3.043 0 1 0-6.087 0h-6.695c0 1.655 1.441 2.997 3.096 2.997h-.1a2.997 2.997 0 0 0 2.997 2.996 2.996 2.996 0 0 0 2.442 2.944l-2.361 5.33a9.7 9.7 0 0 0 3.665.716 9.7 9.7 0 0 0 3.665-.715l-2.362-5.331a2.996 2.996 0 0 0 2.443-2.943 2.997 2.997 0 0 0 2.996-2.997h-.1c1.655 0 3.097-1.342 3.097-2.997"/><path fill="#0052B4" d="M28 26.174 24.045 28v3.652L28 34.087l3.957-2.435V28z"/><path fill="#D80027" d="M24.043 24.348h7.913V28h-7.913z"/></g><defs><clipPath id="a"><path fill="#fff" d="M0 0h56v56H0z"/></clipPath></defs></svg>