<svg xmlns="http://www.w3.org/2000/svg" width="56" height="56" fill="none" viewBox="0 0 56 56"><g clip-path="url(#a)"><path fill="#FFDA44" d="M28 56c15.464 0 28-12.536 28-28S43.464 0 28 0 0 12.536 0 28s12.536 28 28 28"/><path fill="#A2001D" d="M56 28c0-9.61-4.842-18.088-12.219-23.13H12.22C4.842 9.912 0 18.39 0 28s4.842 18.088 12.219 23.13H43.78C51.158 46.088 56 37.61 56 28"/><path fill="#FFDA44" d="M21.912 20.696h12.174v-4.87l-2.435 1.218L28 13.392l-3.652 3.652-2.435-1.218zM38.956 28h-6.084a2.81 2.81 0 1 0-4.909-2.727A2.808 2.808 0 1 0 23.054 28h-6.011c0 1.862 1.622 3.372 3.483 3.372h-.112a3.37 3.37 0 0 0 2.409 3.23l-2.737 2.737 2.583 2.582 3.663-3.663q.215.08.446.124l-2.214 4.998a9.1 9.1 0 0 0 3.436.67 9.1 9.1 0 0 0 3.435-.67l-2.213-4.998q.23-.045.445-.124l3.663 3.663 2.583-2.582-2.737-2.736a3.37 3.37 0 0 0 2.409-3.231h-.113c1.862 0 3.484-1.51 3.484-3.372"/><path fill="#6DA544" d="m28 29.826-3.957 1.826v3.652L28 37.74l3.956-2.435v-3.652z"/><path fill="#0052B4" d="M24.043 28h7.913v4.87h-7.913z"/></g><defs><clipPath id="a"><path fill="#fff" d="M0 0h56v56H0z"/></clipPath></defs></svg>