<svg xmlns="http://www.w3.org/2000/svg" width="56" height="56" fill="none" viewBox="0 0 56 56"><g clip-path="url(#a)"><path fill="#F0F0F0" d="M28 56c15.464 0 28-12.536 28-28S43.464 0 28 0 0 12.536 0 28s12.536 28 28 28"/><path fill="#6DA544" d="M18.26 28v26.258A27.9 27.9 0 0 0 28 56c15.464 0 28-12.536 28-28s-37.74 0-37.74 0"/><path fill="#D80027" d="M28 0a28 28 0 0 0-9.74 1.742V28H56C56 12.536 43.464 0 28 0"/></g><defs><clipPath id="a"><path fill="#fff" d="M0 0h56v56H0z"/></clipPath></defs></svg>