<svg xmlns="http://www.w3.org/2000/svg" width="56" height="56" fill="none" viewBox="0 0 56 56"><g clip-path="url(#a)"><path fill="#0052B4" d="M28 56c15.464 0 28-12.536 28-28 0-4.7-1.16-9.127-3.205-13.016L27.967 28.033 41.016 3.205A27.9 27.9 0 0 0 28 0C12.536 0 0 12.536 0 28c0 7.732 3.134 14.732 8.2 19.8C13.269 52.865 20.269 56 28 56"/><path fill="#F0F0F0" d="M52.765 15.015a28 28 0 0 0-4.999-6.782 28 28 0 0 0-6.781-4.999L8.168 47.832z"/><path fill="#FF9811" d="m8.168 47.832 44.597-32.817a28 28 0 0 0-4.999-6.781z"/><path fill="#F0F0F0" d="m24.316 16.42-3.42 1.608 1.821 3.312-3.713-.71-.47 3.75-2.587-2.758-2.586 2.759-.47-3.751-3.714.71 1.82-3.312-3.419-1.608 3.42-1.609L9.177 11.5l3.713.71.47-3.75 2.587 2.758 2.587-2.758.47 3.75 3.713-.71-1.82 3.312z"/></g><defs><clipPath id="a"><path fill="#fff" d="M0 0h56v56H0z"/></clipPath></defs></svg>