<svg xmlns="http://www.w3.org/2000/svg" width="56" height="56" fill="none" viewBox="0 0 56 56"><g clip-path="url(#a)"><path fill="#FFDA44" d="M28 56c15.464 0 28-12.536 28-28S43.464 0 28 0 0 12.536 0 28s12.536 28 28 28"/><path fill="#D80027" d="M32.258 55.678a27.85 27.85 0 0 0 12.3-5.099L28 28zM23.741.322a27.85 27.85 0 0 0-12.3 5.099L28 28zm-12.3 50.258a27.86 27.86 0 0 0 12.3 5.098L28 28zm-6.02-39.139a27.85 27.85 0 0 0-5.099 12.3L28 28zM.322 32.258a27.85 27.85 0 0 0 5.1 12.3L28 28zm55.356-8.516a27.85 27.85 0 0 0-5.099-12.3L28 28zM44.558 5.42a27.85 27.85 0 0 0-12.3-5.098L28 28zm6.022 39.138a27.86 27.86 0 0 0 5.098-12.3L28 28z"/><path fill="#D80027" d="M28 37.739c5.38 0 9.74-4.36 9.74-9.74 0-5.378-4.36-9.738-9.74-9.738-5.378 0-9.738 4.36-9.738 9.739s4.36 9.739 9.739 9.739"/><path fill="#FFDA44" d="M28 35.305a7.304 7.304 0 1 0 0-14.61 7.304 7.304 0 0 0 0 14.61"/></g><defs><clipPath id="a"><path fill="#fff" d="M0 0h56v56H0z"/></clipPath></defs></svg>