<svg xmlns="http://www.w3.org/2000/svg" width="56" height="56" fill="none" viewBox="0 0 56 56"><g clip-path="url(#a)"><path fill="#6DA544" d="M54.258 37.74A27.9 27.9 0 0 0 56 28c0-3.425-.616-6.706-1.742-9.739L28 15.826 1.742 18.261A28 28 0 0 0 0 28c0 3.425.616 6.706 1.742 9.74L28 40.173z"/><path fill="#FFDA44" d="M54.259 18.26C50.303 7.599 40.039 0 28.001 0 15.96 0 5.698 7.599 1.742 18.26z"/><path fill="#D80027" d="M28 56c12.04 0 22.304-7.6 26.26-18.261H1.742c3.956 10.662 14.22 18.26 26.259 18.26"/><path fill="#F0F0F0" d="M47.2 23.689H32.532L28 9.739l-4.533 13.95H8.799l11.867 8.621-4.533 13.95L28 37.74l11.866 8.522-4.532-13.95z"/></g><defs><clipPath id="a"><path fill="#fff" d="M0 0h56v56H0z"/></clipPath></defs></svg>