<svg xmlns="http://www.w3.org/2000/svg" width="56" height="56" fill="none" viewBox="0 0 56 56"><g clip-path="url(#a)"><path fill="#0052B4" d="M28 56c3.424 0 6.705-.616 9.739-1.742L38.956 28 37.739 1.742A28 28 0 0 0 27.999 0a28 28 0 0 0-9.739 1.742L17.043 28l1.217 26.258A27.9 27.9 0 0 0 28 56"/><path fill="#A2001D" d="M0 28c0 12.04 7.599 22.302 18.26 26.258V1.742C7.599 5.698 0 15.962 0 28M37.74 1.742v52.517C48.401 50.302 56 40.039 56 28S48.402 5.698 37.74 1.742"/><path fill="#FFDA44" d="M13.39 28h2.435v9.74h-2.434zm-9.738 0h2.435v9.74H3.652zm6.088 6.086a2.435 2.435 0 1 0 0-4.87 2.435 2.435 0 0 0 0 4.87m-.001-9.739a1.217 1.217 0 1 0 0-2.434 1.217 1.217 0 0 0 0 2.434M7.305 35.304h4.87v2.435h-4.87zm0-9.739h4.87v2.434h-4.87zM9.74 14.608l.861 2.654h2.79l-2.257 1.64.862 2.653-2.257-1.64-2.257 1.64.862-2.653-2.257-1.64h2.79z"/></g><defs><clipPath id="a"><path fill="#fff" d="M0 0h56v56H0z"/></clipPath></defs></svg>