<svg xmlns="http://www.w3.org/2000/svg" width="56" height="56" fill="none" viewBox="0 0 56 56"><g clip-path="url(#a)"><path fill="#496E2D" d="M28 56c15.464 0 28-12.536 28-28S43.464 0 28 0 0 12.536 0 28s12.536 28 28 28"/><path fill="#F0F0F0" d="M32.869 26.833c-.687 0-1.34.137-1.946.355.332-.74.555-1.563.555-2.442 0-3.479-3.479-6.087-3.479-6.087s-3.478 2.608-3.478 6.087c0 .879.223 1.702.555 2.442a5.7 5.7 0 0 0-1.946-.355c-3.478 0-6.087 3.478-6.087 3.478s2.609 3.478 6.087 3.478c2.04 0 3.779-1.195 4.87-2.185 1.09.99 2.83 2.185 4.87 2.185 3.477 0 6.086-3.478 6.086-3.478s-2.609-3.479-6.087-3.479"/><path fill="#FFDA44" d="m28 10.956.718 2.211h2.325l-1.88 1.367.717 2.211L28 15.378l-1.881 1.367.718-2.211-1.88-1.367h2.324zm-8.842 3.867 1.382 1.245 1.61-.93-.756 1.699 1.382 1.245-1.85-.195-.756 1.7-.387-1.82-1.85-.194 1.611-.93zm-6.471 6.472 1.819.387.93-1.61.194 1.849 1.82.387-1.7.756.195 1.85-1.245-1.382-1.699.756.93-1.61zm24.153-6.472-1.382 1.245-1.61-.93.756 1.699-1.382 1.245 1.85-.195.756 1.7.387-1.82 1.85-.194-1.611-.93zm6.474 6.472-1.82.387-.93-1.61-.194 1.849-1.82.387 1.7.756-.195 1.85 1.245-1.382 1.7.756-.93-1.61z"/><path fill="#F0F0F0" d="M28 43.528c2.763 0 5.31-.922 7.352-2.473H20.648A12.1 12.1 0 0 0 28 43.528m-11.16-7.304c.386.884.876 1.712 1.452 2.473h19.416a12.2 12.2 0 0 0 1.452-2.473z"/></g><defs><clipPath id="a"><path fill="#fff" d="M0 0h56v56H0z"/></clipPath></defs></svg>