<svg xmlns="http://www.w3.org/2000/svg" width="56" height="56" fill="none" viewBox="0 0 56 56"><g clip-path="url(#a)"><path fill="#338AF3" d="M28 56c15.464 0 28-12.536 28-28S43.464 0 28 0 0 12.536 0 28s12.536 28 28 28"/><path fill="#F3F3F3" d="M27.118 45.63a1.82 1.82 0 0 1-1.624-1.193 1.828 1.828 0 0 1-3.258-.84 1.828 1.828 0 0 1-3.02-1.482 1.829 1.829 0 0 1-2.66-2.057 1.82 1.82 0 0 1-1.94-.549 1.83 1.83 0 0 1-.254-1.999 1.827 1.827 0 0 1-1.636-2.939 1.826 1.826 0 0 1-1.01-3.209 1.825 1.825 0 0 1-.341-3.344 1.83 1.83 0 0 1-.94-1.781h.001a1.83 1.83 0 0 1 1.273-1.564 1.827 1.827 0 0 1 1.002-3.212 1.828 1.828 0 0 1 1.632-2.941 1.826 1.826 0 0 1 2.187-2.554 1.825 1.825 0 0 1 2.654-2.064 1.827 1.827 0 0 1 3.018-1.486 1.827 1.827 0 0 1 3.254-.849 1.827 1.827 0 0 1 3.358-.174 1.826 1.826 0 0 1 3.326.502 1.826 1.826 0 0 1 3.156 1.163 1.826 1.826 0 0 1 2.856 1.775 1.828 1.828 0 0 1 2.441 2.312 1.826 1.826 0 0 1 1.93 2.755 1.829 1.829 0 0 1 1.333 3.089 1.825 1.825 0 0 1 .683 3.293 1.83 1.83 0 0 1 1.114 1.677V28a1.83 1.83 0 0 1-1.11 1.682 1.825 1.825 0 0 1-.676 3.294 1.828 1.828 0 0 1-1.327 3.09 1.827 1.827 0 0 1-1.922 2.76 1.828 1.828 0 0 1-2.436 2.319 1.828 1.828 0 0 1-2.853 1.78 1.83 1.83 0 0 1-1.19 1.63c-.708.264 0 0 0 0a1.83 1.83 0 0 1-1.964-.46 1.827 1.827 0 0 1-3.324.51 1.83 1.83 0 0 1-1.733 1.026"/><path fill="#338AF3" d="M28 40.174c6.724 0 12.174-5.45 12.174-12.174S34.724 15.826 28 15.826 15.826 21.276 15.826 28 21.276 40.174 28 40.174"/><path fill="#BDBCC1" d="M30.665 23.868a2.43 2.43 0 0 0 .988-1.955v-1.218a2.435 2.435 0 0 0-2.435-2.434h-2.435a2.435 2.435 0 0 0-2.435 2.435v1.217c0 .802.39 1.51.988 1.954L23.13 46.262s1.217 1.217 4.87 1.217 4.869-1.217 4.869-1.217z"/><path fill="#F0F0F0" d="m28 18.26 2.114 6.51h6.846l-5.538 4.024 2.115 6.51-5.538-4.023-5.538 4.023 2.116-6.51-5.538-4.024h6.845z"/></g><defs><clipPath id="a"><path fill="#fff" d="M0 0h56v56H0z"/></clipPath></defs></svg>