<svg xmlns="http://www.w3.org/2000/svg" width="56" height="56" fill="none" viewBox="0 0 56 56"><g clip-path="url(#a)"><path fill="#F0F0F0" d="M28 56c15.464 0 28-12.536 28-28S43.464 0 28 0 0 12.536 0 28s12.536 28 28 28"/><path fill="#0052B4" d="M55.76 24.348A27.88 27.88 0 0 0 47.8 8.2 27.88 27.88 0 0 0 31.651.24v24.108zM24.348.24A27.88 27.88 0 0 0 8.201 8.2a27.88 27.88 0 0 0-7.96 16.148h24.107zM.24 31.652A27.88 27.88 0 0 0 8.201 47.8a27.88 27.88 0 0 0 16.147 7.961V31.653zM31.652 55.76A27.87 27.87 0 0 0 47.8 47.8a27.87 27.87 0 0 0 7.961-16.148H31.652z"/><path fill="#F0F0F0" d="M37.558 17.767c0-.373.303-.675.675-.675h1.447a4.15 4.15 0 0 0 4.146-4.147A4.15 4.15 0 0 0 39.68 8.8h-1.374a2.86 2.86 0 0 0-1.713-.545c-1.384 0-2.506.898-2.506 2.005 0 1.096 1.1 1.986 2.466 2.003v.008h3.127a.676.676 0 0 1 0 1.35h-1.447a4.15 4.15 0 0 0-4.146 4.146 4.15 4.15 0 0 0 4.146 4.147h5.593V18.44h-5.593a.676.676 0 0 1-.675-.674m-21.913.001c0-.373.303-.675.675-.675h1.446a4.15 4.15 0 0 0 4.147-4.147A4.15 4.15 0 0 0 17.766 8.8h-1.373a2.86 2.86 0 0 0-1.713-.545c-1.384 0-2.506.898-2.506 2.005 0 1.096 1.1 1.986 2.466 2.003l-.001.008h3.128a.676.676 0 0 1 0 1.35H16.32a4.15 4.15 0 0 0-4.146 4.146 4.15 4.15 0 0 0 4.146 4.147h5.593V18.44H16.32a.675.675 0 0 1-.675-.674m21.913 25.833c0-.372.303-.675.675-.675h1.447a4.15 4.15 0 0 0 4.146-4.146 4.15 4.15 0 0 0-4.146-4.147h-1.374a2.86 2.86 0 0 0-1.713-.544c-1.384 0-2.506.897-2.506 2.004 0 1.097 1.1 1.986 2.466 2.003v.008h3.127a.676.676 0 0 1 0 1.35h-1.447a4.15 4.15 0 0 0-4.146 4.147 4.15 4.15 0 0 0 4.146 4.146h5.593v-3.471h-5.593a.676.676 0 0 1-.675-.675m-21.913 0c0-.372.303-.675.675-.675h1.447a4.15 4.15 0 0 0 4.146-4.146 4.15 4.15 0 0 0-4.146-4.147h-1.374a2.86 2.86 0 0 0-1.713-.544c-1.384 0-2.506.897-2.506 2.004 0 1.097 1.1 1.986 2.466 2.003l-.001.008h3.128a.676.676 0 0 1 0 1.35H16.32a4.15 4.15 0 0 0-4.146 4.147 4.15 4.15 0 0 0 4.146 4.146h5.593v-3.471H16.32a.676.676 0 0 1-.675-.675"/></g><defs><clipPath id="a"><path fill="#fff" d="M0 0h56v56H0z"/></clipPath></defs></svg>