<svg xmlns="http://www.w3.org/2000/svg" width="56" height="56" fill="none" viewBox="0 0 56 56"><g clip-path="url(#a)"><path fill="#496E2D" d="M28 56c15.464 0 28-12.536 28-28S43.464 0 28 0 0 12.536 0 28s12.536 28 28 28"/><path fill="#FFDA44" d="M28 32.348c-4.662 0-8.557-3.277-9.513-7.653a9.8 9.8 0 0 0-.226 2.087c0 5.38 4.36 9.74 9.739 9.74s9.739-4.36 9.739-9.74c0-.716-.08-1.414-.226-2.087-.956 4.376-4.851 7.653-9.513 7.653"/><path fill="#FFDA44" d="m28 19.478.907 2.79h2.933l-2.373 1.724.907 2.79L28 25.058l-2.373 1.724.907-2.79-2.374-1.724h2.934z"/></g><defs><clipPath id="a"><path fill="#fff" d="M0 0h56v56H0z"/></clipPath></defs></svg>