<svg xmlns="http://www.w3.org/2000/svg" width="56" height="56" fill="none" viewBox="0 0 56 56"><g clip-path="url(#a)"><path fill="#D80027" d="M3.404 14.609 28 17.044l24.595-2.435C47.846 5.905 38.613 0 28 0S8.153 5.905 3.404 14.609"/><path fill="#FFDA44" d="M3.405 41.392 28 43.826l24.596-2.434A27.9 27.9 0 0 0 56 28l-28-2.435L0 28a27.9 27.9 0 0 0 3.405 13.392"/><path fill="#0052B4" d="M3.405 14.608A27.9 27.9 0 0 0 0 28h56c0-4.851-1.234-9.413-3.404-13.392H3.404"/><path fill="#6DA544" d="M28 56c10.613 0 19.846-5.905 24.595-14.608H3.405C8.152 50.095 17.386 56 28 56"/></g><defs><clipPath id="a"><path fill="#fff" d="M0 0h56v56H0z"/></clipPath></defs></svg>