<svg xmlns="http://www.w3.org/2000/svg" width="56" height="56" fill="none" viewBox="0 0 56 56"><g clip-path="url(#a)"><path fill="#D80027" d="M28 56c15.464 0 28-12.536 28-28S43.464 0 28 0 0 12.536 0 28s12.536 28 28 28"/><path fill="#6DA544" d="M9.738 14.608H46.26v26.783H9.738z"/><path fill="#F0F0F0" d="M32.51 35.914a7.913 7.913 0 1 1 3.763-14.876 9.7 9.7 0 0 0-6.807-2.777c-5.379 0-9.74 4.36-9.74 9.74 0 5.378 4.361 9.738 9.74 9.738 2.65 0 5.051-1.06 6.807-2.777a7.9 7.9 0 0 1-3.764.951"/></g><defs><clipPath id="a"><path fill="#fff" d="M0 0h56v56H0z"/></clipPath></defs></svg>