<svg xmlns="http://www.w3.org/2000/svg" width="56" height="56" fill="none" viewBox="0 0 56 56"><g clip-path="url(#a)"><path fill="#D80027" d="M0 28c0 3.425.616 6.706 1.742 9.74L28 38.955l26.258-1.217A28 28 0 0 0 56 28c0-3.425-.616-6.706-1.742-9.74L28 17.045 1.742 18.26A28 28 0 0 0 0 28"/><path fill="#000" d="M28 0C15.963 0 5.699 7.599 1.743 18.26H54.26C50.303 7.599 40.04 0 28.001 0"/><path fill="#496E2D" d="M54.259 37.739H1.742c3.956 10.662 14.22 18.26 26.259 18.26s22.302-7.598 26.258-18.26"/><path fill="#D80027" d="m36.37 13.391-3.42-1.608 1.821-3.312-3.713.71-.47-3.75L28 8.188 25.414 5.43l-.47 3.752-3.713-.71 1.82 3.31-3.42 1.61z"/></g><defs><clipPath id="a"><path fill="#fff" d="M0 0h56v56H0z"/></clipPath></defs></svg>