<svg xmlns="http://www.w3.org/2000/svg" width="56" height="56" fill="none" viewBox="0 0 56 56"><g clip-path="url(#a)"><path fill="#F0F0F0" d="M28 56c15.464 0 28-12.536 28-28S43.464 0 28 0 0 12.536 0 28s12.536 28 28 28"/><path fill="#D80027" d="M56 28c0-11.1-6.46-20.693-15.826-25.222v50.444C49.54 48.692 56 39.1 56 28"/><path fill="#6DA544" d="M0 28c0 11.1 6.46 20.693 15.826 25.222V2.778C6.46 7.308 0 16.9 0 28m20.695 0a7.304 7.304 0 0 0 14.61 0v-2.435h-14.61z"/><path fill="#FF9811" d="M37.74 23.13h-7.304a2.435 2.435 0 0 0-4.87 0h-7.304c0 1.345 1.171 2.435 2.516 2.435h-.081A2.435 2.435 0 0 0 23.13 28a2.435 2.435 0 0 0 2.435 2.435h4.87A2.435 2.435 0 0 0 32.87 28a2.435 2.435 0 0 0 2.434-2.435h-.08c1.344 0 2.515-1.09 2.515-2.434"/></g><defs><clipPath id="a"><path fill="#fff" d="M0 0h56v56H0z"/></clipPath></defs></svg>