<svg xmlns="http://www.w3.org/2000/svg" width="56" height="56" fill="none" viewBox="0 0 56 56"><g clip-path="url(#a)"><path fill="#F0F0F0" d="M28 56c15.464 0 28-12.536 28-28S43.464 0 28 0 0 12.536 0 28s12.536 28 28 28"/><path fill="#D80027" d="M26.783 28h29.218a28 28 0 0 0-.965-7.305H26.783zm0-14.609h25.108a28.2 28.2 0 0 0-6.46-7.304H26.782zM28 56a27.88 27.88 0 0 0 17.43-6.087H10.57A27.88 27.88 0 0 0 28 56M4.11 42.609h47.78a27.8 27.8 0 0 0 3.146-7.305H.965A27.8 27.8 0 0 0 4.11 42.61"/><path fill="#0052B4" d="M28 28V0C12.536 0 0 12.536 0 28z"/><path fill="#FFDA44" d="M18.618 23.967a6.924 6.924 0 1 1 3.294-13.015 8.522 8.522 0 1 0 0 12.184c-.98.53-2.101.831-3.294.831"/><path fill="#FFDA44" d="m20.57 12.174 1.228 2.57 2.777-.641-1.244 2.564 2.233 1.77-2.78.627.008 2.849-2.223-1.783-2.223 1.783.008-2.85-2.78-.626 2.233-1.77-1.243-2.564 2.776.641z"/></g><defs><clipPath id="a"><path fill="#fff" d="M0 0h56v56H0z"/></clipPath></defs></svg>