<svg xmlns="http://www.w3.org/2000/svg" width="56" height="56" fill="none" viewBox="0 0 56 56"><g clip-path="url(#a)"><path fill="#F0F0F0" d="M28 56c15.464 0 28-12.536 28-28S43.464 0 28 0 0 12.536 0 28s12.536 28 28 28"/><path fill="#FFDA44" d="m15.135 38.957-6.933 8.841C13.27 52.865 20.268 56 28 56c11.575 0 21.508-7.025 25.772-17.043z"/><path fill="#496E2D" d="M53.816 17.145C49.576 7.072 39.614 0 28 0 20.268 0 13.27 3.135 8.202 8.202l7.012 8.943z"/><path fill="#000" d="M6.088 20.594v14.71h48.948c.628-2.328.965-4.777.965-7.304 0-2.564-.345-5.047-.991-7.406z"/><path fill="#A2001D" d="M8.201 8.201c-10.935 10.935-10.935 28.664 0 39.598L28 28z"/><path fill="#FFDA44" d="m11.333 20.696 1.812 5.58h5.868l-4.747 3.448 1.813 5.58-4.747-3.448-4.746 3.449 1.813-5.58-4.747-3.45H9.52z"/><path fill="#F0F0F0" d="M6.027 28H16.64v4.87H6.027z"/><path fill="#000" d="m18.648 22.418-1.722-1.722-5.594 5.594-5.595-5.594-1.721 1.722 5.599 5.589-5.6 5.6 1.722 1.698 5.595-5.585 5.594 5.585 1.722-1.699-5.6-5.6z"/></g><defs><clipPath id="a"><path fill="#fff" d="M0 0h56v56H0z"/></clipPath></defs></svg>