<svg xmlns="http://www.w3.org/2000/svg" width="56" height="56" fill="none" viewBox="0 0 56 56"><g clip-path="url(#a)"><path fill="#F0F0F0" d="M28 56c15.464 0 28-12.536 28-28S43.464 0 28 0 0 12.536 0 28s12.536 28 28 28"/><path fill="#A2001D" d="M8.2 47.799a28 28 0 0 0 3.743 3.144l39-39a28.2 28.2 0 0 0-6.887-6.887l-39 39A28 28 0 0 0 8.202 47.8"/><path fill="#0052B4" d="M8.201 8.2c-8.834 8.834-10.53 22.1-5.09 32.638L40.837 3.11C30.301-2.328 17.034-.632 8.201 8.2"/><path fill="#496E2D" d="M47.8 47.799c8.833-8.833 10.528-22.1 5.09-32.637L15.162 52.89C25.7 58.328 38.966 56.632 47.8 47.799"/><path fill="#FFDA44" d="m23.13 15.826-3.137 1.476 1.67 3.039-3.406-.652-.432 3.442-2.373-2.532-2.373 2.532-.432-3.442-3.407.652 1.67-3.039-3.137-1.476 3.138-1.476-1.67-3.038 3.406.652.432-3.442 2.373 2.531 2.373-2.531.432 3.442 3.407-.652-1.671 3.039z"/></g><defs><clipPath id="a"><path fill="#fff" d="M0 0h56v56H0z"/></clipPath></defs></svg>