<svg xmlns="http://www.w3.org/2000/svg" width="56" height="56" fill="none" viewBox="0 0 56 56"><g clip-path="url(#a)"><path fill="#F0F0F0" d="M2.778 15.826A27.9 27.9 0 0 0 0 28c0 4.363.998 8.493 2.778 12.174L28 42.61l25.222-2.435A27.9 27.9 0 0 0 56 28a27.9 27.9 0 0 0-2.778-12.174L28 13.392z"/><path fill="#6DA544" d="M2.78 40.174C7.307 49.54 16.9 56 28 56s20.692-6.46 25.22-15.826z"/><path fill="#FF9811" d="M2.78 15.826h50.44C48.693 6.46 39.1 0 28 0S7.308 6.46 2.78 15.826M27.999 37.74c5.379 0 9.739-4.36 9.739-9.74 0-5.378-4.36-9.739-9.74-9.739-5.378 0-9.738 4.36-9.738 9.74 0 5.378 4.36 9.738 9.739 9.738"/></g><defs><clipPath id="a"><path fill="#fff" d="M0 0h56v56H0z"/></clipPath></defs></svg>