<svg xmlns="http://www.w3.org/2000/svg" width="56" height="56" fill="none" viewBox="0 0 56 56"><g clip-path="url(#a)"><path fill="#F0F0F0" d="M40.174 2.778A27.9 27.9 0 0 0 28 0c-4.363 0-8.492.998-12.174 2.778L13.392 28l2.434 25.222A27.9 27.9 0 0 0 28 56a27.9 27.9 0 0 0 12.174-2.778L42.61 28z"/><path fill="#6DA544" d="M15.826 2.78C6.46 7.307 0 16.9 0 28s6.46 20.692 15.826 25.22zm24.348 0v50.44C49.54 48.693 56 39.1 56 28S49.54 7.308 40.174 2.78m-4.87 33.742L28 13.392l-7.305 23.13h5.479v6.087h3.652v-6.087z"/></g><defs><clipPath id="a"><path fill="#fff" d="M0 0h56v56H0z"/></clipPath></defs></svg>