<svg xmlns="http://www.w3.org/2000/svg" width="56" height="56" fill="none" viewBox="0 0 56 56"><g clip-path="url(#a)"><path fill="#F0F0F0" d="M28 56c15.464 0 28-12.536 28-28S43.464 0 28 0 0 12.536 0 28s12.536 28 28 28"/><path fill="#338AF3" d="M28.001 0C16.9 0 7.308 6.46 2.779 15.826h50.444C48.692 6.46 39.101 0 28 0m0 56c11.102 0 20.694-6.46 25.223-15.826H2.779C7.31 49.54 16.9 56 28.001 56"/><path fill="#FFDA44" d="M28 19.479a8.522 8.522 0 1 0 0 17.043 8.522 8.522 0 0 0 0-17.043m0 13.39a4.87 4.87 0 1 1 0-9.738 4.87 4.87 0 0 1 0 9.739"/><path fill="#0052B4" d="M32.217 29.217 28 28l-4.217 1.217-1.406 2.435h11.246z"/><path fill="#338AF3" d="m27.999 21.913-2.811 4.87L27.999 28l2.812-1.217z"/><path fill="#6DA544" d="M23.782 29.217h8.435l-1.406-2.434h-5.623z"/></g><defs><clipPath id="a"><path fill="#fff" d="M0 0h56v56H0z"/></clipPath></defs></svg>