<svg xmlns="http://www.w3.org/2000/svg" width="56" height="56" fill="none" viewBox="0 0 56 56"><g clip-path="url(#a)"><path fill="#F0F0F0" d="M28 56c15.464 0 28-12.536 28-28S43.464 0 28 0 0 12.536 0 28s12.536 28 28 28"/><path fill="#D80027" d="M.965 35.304a28.02 28.02 0 0 0 9.992 14.91v-14.91zm24.6 20.589q1.204.106 2.434.107c12.937 0 23.823-8.774 27.036-20.696h-29.47zm29.47-35.197C51.822 8.774 40.936 0 27.999 0q-1.23.001-2.434.107v20.589zM10.957 5.785a28.02 28.02 0 0 0-9.992 14.91h9.992z"/><path fill="#0052B4" d="M55.763 24.348h-33.85V.666a27.8 27.8 0 0 0-7.304 2.739v20.943H.237a28.2 28.2 0 0 0 0 7.304h14.372v20.943a27.8 27.8 0 0 0 7.304 2.74V31.652h33.85a28.3 28.3 0 0 0 0-7.305"/></g><defs><clipPath id="a"><path fill="#fff" d="M0 0h56v56H0z"/></clipPath></defs></svg>