<svg xmlns="http://www.w3.org/2000/svg" width="56" height="56" fill="none" viewBox="0 0 56 56"><g clip-path="url(#a)"><path fill="#F0F0F0" d="M28 56c15.464 0 28-12.536 28-28S43.464 0 28 0 0 12.536 0 28s12.536 28 28 28"/><path fill="#0052B4" d="M55.835 31.044v-.001L25.128.146q-2.08.213-4.058.719C8.958 3.949 0 28 0 28s39.2 26.232 43.672 23.206a28 28 0 0 0 2.57-1.964l-18.2-18.198z"/><path fill="#D80027" d="M48.696 28 21.464.77C9.154 3.713 0 14.787 0 28c0 15.464 12.536 28 28 28a27.87 27.87 0 0 0 15.808-4.888L20.696 28z"/><path fill="#F0F0F0" d="m26.63 41.343-3.42-1.608 1.822-3.312-3.714.71-.47-3.751-2.586 2.759-2.587-2.76-.47 3.752-3.714-.71 1.821 3.312-3.42 1.608 3.42 1.608-1.82 3.312 3.713-.71.47 3.751 2.587-2.759 2.586 2.76.47-3.752 3.714.71-1.821-3.311zM24.348 15.53l-2.487-1.17 1.324-2.409-2.7.517-.343-2.729-1.881 2.007-1.881-2.007-.343 2.729-2.7-.517 1.324 2.409-2.487 1.17 6.087 1.217z"/><path fill="#F0F0F0" d="M25.566 15.53a7.304 7.304 0 0 1-14.609 0"/></g><defs><clipPath id="a"><path fill="#fff" d="M0 0h56v56H0z"/></clipPath></defs></svg>