<svg xmlns="http://www.w3.org/2000/svg" width="56" height="56" fill="none" viewBox="0 0 56 56"><g clip-path="url(#a)"><path fill="#0052B4" d="M28 56c15.464 0 28-12.536 28-28S43.464 0 28 0 0 12.536 0 28s12.536 28 28 28"/><path fill="#FFDA44" d="M28 56c15.464 0 28-12.536 28-28S43.464 0 28 0 0 12.536 0 28s12.536 28 28 28"/><path fill="#0052B4" d="M28 0C13.356 0 1.34 11.242.106 25.565h55.787C54.66 11.242 42.643 0 28 0m0 56c14.643 0 26.66-11.242 27.893-25.565H.106C1.341 44.758 13.356 56 28 56"/><path fill="#F0F0F0" d="m23.13 37.739-3.137 1.476 1.67 3.038-3.406-.651-.432 3.441-2.373-2.531-2.373 2.531-.432-3.441-3.407.651 1.671-3.038-3.138-1.476 3.138-1.476-1.67-3.038 3.406.651.432-3.441 2.373 2.53 2.373-2.53.432 3.441 3.407-.651-1.671 3.038z"/></g><defs><clipPath id="a"><path fill="#fff" d="M0 0h56v56H0z"/></clipPath></defs></svg>