<svg xmlns="http://www.w3.org/2000/svg" width="56" height="56" fill="none" viewBox="0 0 56 56"><g clip-path="url(#a)"><path fill="#FFDA44" d="M56 28c0 15.464-12.536 28-28 28S0 43.464 0 28C0 28.007 28 .003 28 0c15.464 0 28 12.536 28 28"/><path fill="#0052B4" d="M28 13.392v9.443l-9.74-9.443zM14.609 28h8.226L14.61 17.045l-1.217 8.522z"/><path fill="#F0F0F0" d="M27.925 28H28v-.075z"/><path fill="#F0F0F0" d="M28 14.609V0h-.005C12.533.003 0 12.538 0 28h14.609v-8.226L22.835 28h5.09l.075-.075v-5.09l-8.226-8.226z"/><path fill="#D80027" d="m28 24.557-9.948-9.948H14.61L28 28.002z"/><path fill="#D80027" d="M14.166 3.652q-1.621.924-3.097 2.048h1.149L9.18 7.906l1.16 3.57L7.304 9.27l-.323.235a28 28 0 0 0-3.329 4.66V28h7.305V10.957H28V3.652z"/><path fill="#0052B4" d="M11.96 5.048q-.453.317-.893.652L9.18 7.906 7.303 9.27l-.326.236q-1.032 1.172-1.93 2.455a5.174 5.174 0 0 0 6.914-6.913"/><path fill="#FFDA44" d="m6.979 9.506.325-.236 3.037 2.206-1.16-3.57L12.217 5.7h-1.149a28 28 0 0 0-4.09 3.806M19.353 4.87l.605 1.86h1.955l-1.582 1.15.604 1.86-1.582-1.15-1.582 1.15.604-1.86-1.582-1.15h1.956zM7.304 17.044l.605 1.86h1.955l-1.582 1.15.604 1.86-1.582-1.15-1.582 1.15.604-1.86-1.582-1.15H6.7z"/></g><defs><clipPath id="a"><path fill="#fff" d="M0 0h56v56H0z"/></clipPath></defs></svg>