<svg xmlns="http://www.w3.org/2000/svg" width="56" height="56" fill="none" viewBox="0 0 56 56"><g clip-path="url(#a)"><path fill="#0052B4" d="M56 28c0 15.464-12.536 28-28 28S0 43.464 0 28C0 28.007 28 .003 28 0c15.464 0 28 12.536 28 28"/><path fill="#F0F0F0" d="M27.925 28H28v-.075z"/><path fill="#F0F0F0" d="M28 14.609V0h-.005C12.534.003 0 12.538 0 28h14.609v-8.226L22.835 28h5.09l.075-.075v-5.09l-8.226-8.226z"/><path fill="#D80027" d="M14.166 3.652A28.13 28.13 0 0 0 3.652 14.166V28h7.305V10.957H28V3.652z"/><path fill="#D80027" d="m28 24.557-9.947-9.948h-3.444L28 28zm20.49-3.78.604 1.86h1.956l-1.582 1.15.604 1.86-1.582-1.15-1.582 1.15.604-1.86-1.582-1.15h1.955zm-6.992 13.391.907 2.79h2.934l-2.374 1.724.907 2.79-2.374-1.724-2.373 1.724.907-2.79-2.374-1.724h2.934zm.265-21.913.755 2.326h2.445l-1.978 1.436.755 2.325-1.977-1.437-1.978 1.437.755-2.325-1.977-1.436h2.444zm-6.727 8.441.906 2.79h2.934l-2.374 1.724.907 2.79-2.373-1.724L32.661 28l.907-2.79-2.374-1.724h2.934z"/></g><defs><clipPath id="a"><path fill="#fff" d="M0 0h56v56H0z"/></clipPath></defs></svg>