<svg xmlns="http://www.w3.org/2000/svg" width="56" height="56" fill="none" viewBox="0 0 56 56"><g clip-path="url(#a)"><path fill="#F0F0F0" d="M28 56c15.464 0 28-12.536 28-28S43.464 0 28 0 0 12.536 0 28s12.536 28 28 28"/><path fill="#D80027" d="M0 28c0 10.613 5.905 19.846 14.609 24.595V3.405C5.905 8.152 0 17.386 0 28"/><path fill="#D80027" d="M54.259 37.739A28 28 0 0 0 56 27.999a28 28 0 0 0-1.742-9.738H1.742A27.9 27.9 0 0 0 0 28c0 3.425.616 6.706 1.742 9.739L28 40.174z"/><path fill="#6DA544" d="M28 56c12.04 0 22.304-7.6 26.26-18.261H1.742C5.698 48.4 15.962 55.999 28 55.999"/><path fill="#D80027" d="M0 28c0 12.937 8.774 23.822 20.696 27.035V.965C8.774 4.176 0 15.062 0 28"/><path fill="#F0F0F0" d="M17.13 12.321 14.547 9.74l-1.721 1.722-1.722-1.722-2.582 2.582 1.721 1.722-1.722 1.722 2.583 2.582 1.722-1.722 1.721 1.722 2.583-2.582-1.722-1.722z"/></g><defs><clipPath id="a"><path fill="#fff" d="M0 0h56v56H0z"/></clipPath></defs></svg>