<svg xmlns="http://www.w3.org/2000/svg" width="56" height="56" fill="none" viewBox="0 0 56 56"><g clip-path="url(#a)"><path fill="#F0F0F0" d="M28 56c15.464 0 28-12.536 28-28S43.464 0 28 0 0 12.536 0 28s12.536 28 28 28"/><path fill="#D80027" d="M3.404 14.609h49.191C47.846 5.905 38.613 0 28 0S8.153 5.905 3.404 14.609M28 56c10.613 0 19.846-5.905 24.595-14.608H3.405C8.152 50.095 17.386 56 28 56"/><path fill="#FFDA44" d="M37.739 28c0 5.379-4.36 8.522-9.74 8.522-5.378 0-9.738-3.143-9.738-8.522s4.36-9.74 9.739-9.74 9.739 4.361 9.739 9.74"/><path fill="#0052B4" d="M37.739 28c0 5.379-4.36 9.74-9.74 9.74-5.378 0-9.738-4.361-9.738-9.74"/><path fill="#D80027" d="M21.913 25.565h2.435v4.87h-2.435zm9.739 0h2.435v4.87h-2.435zm-4.87-3.652h2.435v8.522h-2.435z"/></g><defs><clipPath id="a"><path fill="#fff" d="M0 0h56v56H0z"/></clipPath></defs></svg>