<svg xmlns="http://www.w3.org/2000/svg" width="56" height="56" fill="none" viewBox="0 0 56 56"><g clip-path="url(#a)"><path fill="#000" d="M47.8 47.799c-10.936 10.935-28.664 10.935-39.599 0s-10.935-28.663 0-39.598 26.942-9.213 37.876 1.722C57.012 20.857 58.734 36.864 47.8 47.799"/><path fill="#A2001D" d="M8.201 8.2C19.136-2.733 36.864-2.733 47.8 8.202s10.935 28.663 0 39.598"/><path fill="#F0F0F0" d="m21.399 37.74.453 1.394h1.467l-1.187.862.453 1.395-1.186-.862-1.187.862.453-1.395-1.186-.862h1.466zm-3.746-13.392.756 2.325h2.444l-1.977 1.437.755 2.325-1.978-1.437-1.977 1.437.755-2.325-1.978-1.437h2.445zm0 17.043.756 2.325h2.444l-1.978 1.437.756 2.325-1.978-1.437-1.977 1.437.755-2.325-1.978-1.437h2.445zM24.8 30.435l.755 2.325H28l-1.978 1.436.755 2.326-1.977-1.438-1.978 1.438.755-2.326L21.6 32.76h2.444zm-14.295 0 .755 2.325h2.445l-1.978 1.436.755 2.326-1.977-1.438-1.978 1.438.756-2.326-1.978-1.436h2.444z"/><path fill="#FFDA44" d="M46.873 20.733a7.25 7.25 0 0 0-4.625-2.117l5.23-4.068a9.71 9.71 0 0 0-7.599-2.825 7.27 7.27 0 0 0-1.87-3.201l-2.065 4.132a3.043 3.043 0 1 0-4.132 4.132l-4.132 2.066a7.27 7.27 0 0 0 3.202 1.87 9.71 9.71 0 0 0 2.823 7.599l4.57-5.875a1.8 1.8 0 0 1 1.281-.526c.488 0 .946.19 1.291.535s.535.804.535 1.291c0 .488-.19.947-.535 1.292l1.722 1.721a4.23 4.23 0 0 0 1.248-3.013 4.23 4.23 0 0 0-.846-2.548c.8.213 1.555.631 2.18 1.257a4.875 4.875 0 0 1 0 6.887l1.722 1.722a7.26 7.26 0 0 0 2.14-5.166c0-1.95-.76-3.785-2.14-5.165"/></g><defs><clipPath id="a"><path fill="#fff" d="M0 0h56v56H0z"/></clipPath></defs></svg>