<svg xmlns="http://www.w3.org/2000/svg" width="56" height="56" fill="none" viewBox="0 0 56 56"><g clip-path="url(#a)"><path fill="#F0F0F0" d="M28 56c15.464 0 28-12.536 28-28S43.464 0 28 0 0 12.536 0 28s12.536 28 28 28"/><path fill="#D80027" d="M28 0v28L8.201 47.8a27.92 27.92 0 0 0 19.8 8.2c15.463 0 28-12.536 28-28S28 0 28 0"/><path fill="#0052B4" d="M28 0C20.268 0 13.268 3.134 8.201 8.2l19.8 19.8h28C56 12.536 43.463 0 28 0"/><path fill="#FFDA44" d="m19.172 28-3.42-1.609 1.822-3.312-3.714.71-.47-3.75-2.587 2.758-2.586-2.758-.47 3.75-3.714-.71 1.821 3.312L2.434 28l3.42 1.608-1.82 3.312 3.713-.71.47 3.75 2.586-2.758 2.587 2.759.47-3.751 3.714.71-1.821-3.312zM7.467 10.957l1.138 1.59 1.864-.59-1.161 1.573 1.138 1.591-1.856-.618-1.161 1.573.014-1.955-1.855-.618 1.865-.59zm0 28.966 1.138 1.591 1.864-.59-1.161 1.573 1.138 1.59-1.856-.617-1.161 1.573.014-1.955-1.855-.619 1.865-.59zM23.698 25.44l-1.138 1.591-1.865-.59 1.162 1.573-1.138 1.59 1.855-.617 1.162 1.573-.015-1.955 1.856-.618-1.865-.59z"/></g><defs><clipPath id="a"><path fill="#fff" d="M0 0h56v56H0z"/></clipPath></defs></svg>