<svg xmlns="http://www.w3.org/2000/svg" width="56" height="56" fill="none" viewBox="0 0 56 56"><g clip-path="url(#a)"><path fill="#F0F0F0" d="M28 56c15.464 0 28-12.536 28-28S43.464 0 28 0 0 12.536 0 28s12.536 28 28 28"/><path fill="#F0F0F0" d="M0 28c0 10.613 5.905 19.846 14.609 24.595V3.405C5.905 8.152 0 17.386 0 28"/><path fill="#496E2D" d="M28 0a27.9 27.9 0 0 0-13.392 3.405v49.19A27.9 27.9 0 0 0 28 56c15.464 0 28-12.536 28-28S43.464 0 28 0"/><path fill="#F0F0F0" d="M39.971 32.63a7.913 7.913 0 1 1-5.66-14.26 9.7 9.7 0 0 0-7.145 1.735c-4.36 3.15-5.34 9.238-2.19 13.598s9.238 5.34 13.598 2.19a9.7 9.7 0 0 0 3.89-6.238 7.9 7.9 0 0 1-2.493 2.976m-.151-14.37 1.995 2.15 2.662-1.232-1.43 2.562 1.996 2.15-2.878-.567-1.429 2.563-.35-2.913-2.878-.567 2.662-1.233z"/></g><defs><clipPath id="a"><path fill="#fff" d="M0 0h56v56H0z"/></clipPath></defs></svg>