<svg xmlns="http://www.w3.org/2000/svg" width="56" height="56" fill="none" viewBox="0 0 56 56"><g clip-path="url(#a)"><path fill="#0052B4" d="M56 28c0 15.464-12.536 28-28 28S0 43.464 0 28C0 28.007 28 .003 28 0c15.464 0 28 12.536 28 28"/><path fill="#F0F0F0" d="M27.925 28H28v-.075z"/><path fill="#F0F0F0" d="M28 14.609V0h-.005C12.533.003 0 12.538 0 28h14.609v-8.226L22.835 28h5.09l.075-.075v-5.09l-8.226-8.226z"/><path fill="#D80027" d="M14.166 3.652A28.13 28.13 0 0 0 3.652 14.166V28h7.305V10.957H28V3.652z"/><path fill="#D80027" d="m28 24.557-9.948-9.948H14.61L28 28.002z"/><path fill="#ACABB1" d="m43.826 17.044-3.652 1.217-3.652-1.217L35.305 14l1.217-3.043h7.304L42.61 14z"/><path fill="#338AF3" d="M31.652 17.044v13.391c0 6.523 8.522 8.522 8.522 8.522s8.522-1.999 8.522-8.522V17.044z"/><path fill="#6DA544" d="M32.42 33.607c2.095 4.022 7.753 5.35 7.753 5.35s5.66-1.328 7.754-5.35l-7.754-12.911z"/><path fill="#FFDA44" d="m48.696 30.3-8.522-13.256L31.652 30.3v.135c0 1.207.293 2.26.768 3.173l7.754-12.062 7.754 12.062a6.8 6.8 0 0 0 .768-3.173z"/></g><defs><clipPath id="a"><path fill="#fff" d="M0 0h56v56H0z"/></clipPath></defs></svg>