<svg xmlns="http://www.w3.org/2000/svg" width="56" height="56" fill="none" viewBox="0 0 56 56"><g clip-path="url(#a)"><path fill="#F0F0F0" d="M28 56c15.464 0 28-12.536 28-28S43.464 0 28 0 0 12.536 0 28s12.536 28 28 28"/><path fill="#D80027" d="M28 0C18.84 0 10.707 4.4 5.599 11.2H50.4C45.293 4.4 37.161 0 28 0m0 56c9.16 0 17.293-4.4 22.401-11.2H5.599c5.108 6.8 13.24 11.2 22.4 11.2M0 28c0 1.918.193 3.79.56 5.6h54.88c.367-1.81.56-3.682.56-5.6s-.193-3.79-.56-5.6H.56A28 28 0 0 0 0 28"/><path fill="#0052B4" d="M8.201 8.201c-10.935 10.935-10.935 28.664 0 39.598L28 28z"/><path fill="#F0F0F0" d="m11.333 20.696 1.812 5.58h5.868l-4.747 3.448 1.813 5.58-4.747-3.448-4.746 3.449 1.813-5.58-4.747-3.45H9.52z"/></g><defs><clipPath id="a"><path fill="#fff" d="M0 0h56v56H0z"/></clipPath></defs></svg>