<svg xmlns="http://www.w3.org/2000/svg" width="56" height="56" fill="none" viewBox="0 0 56 56"><g clip-path="url(#a)"><path fill="#6DA544" d="M0 28c0 12.04 7.599 22.302 18.26 26.258L20.697 28 18.26 1.742C7.599 5.698 0 15.962 0 28"/><path fill="#D80027" d="M56.001 28c0-15.464-12.536-28-28-28-3.425 0-6.706.616-9.74 1.742v52.516A28 28 0 0 0 28.002 56c15.464 0 28-12.536 28-28"/><path fill="#FFDA44" d="M18.26 37.74c5.38 0 9.74-4.36 9.74-9.74 0-5.378-4.36-9.739-9.74-9.739-5.378 0-9.739 4.36-9.739 9.74 0 5.378 4.36 9.738 9.74 9.738"/><path fill="#D80027" d="M12.783 23.13v6.087a5.478 5.478 0 1 0 10.957 0V23.13z"/><path fill="#F0F0F0" d="M18.26 31.044a1.83 1.83 0 0 1-1.825-1.827v-2.434h3.652v2.435a1.83 1.83 0 0 1-1.826 1.826"/></g><defs><clipPath id="a"><path fill="#fff" d="M0 0h56v56H0z"/></clipPath></defs></svg>