<svg xmlns="http://www.w3.org/2000/svg" width="56" height="56" fill="none" viewBox="0 0 56 56"><g clip-path="url(#a)"><path fill="#F0F0F0" d="M28 56c15.464 0 28-12.536 28-28S43.464 0 28 0 0 12.536 0 28s12.536 28 28 28"/><path fill="#D80027" d="M28 0C16.9 0 7.307 6.46 2.778 15.826h50.444C48.692 6.46 39.1 0 28 0"/><path fill="#0052B4" d="M28 56c11.1 0 20.693-6.46 25.222-15.826H2.778C7.308 49.54 16.9 56 28 56"/><path fill="#6DA544" d="m34.887 19.896-2.582 2.582a6.087 6.087 0 1 1-8.608 0l-2.583-2.582a9.7 9.7 0 0 0-2.852 6.887c0 5.378 4.36 9.739 9.739 9.739 5.378 0 9.739-4.36 9.739-9.74a9.7 9.7 0 0 0-2.853-6.886"/><path fill="#FFDA44" d="m28 23.13.907 2.79h2.933l-2.373 1.725.907 2.79L28 28.71l-2.373 1.724.907-2.79-2.374-1.724h2.934z"/></g><defs><clipPath id="a"><path fill="#fff" d="M0 0h56v56H0z"/></clipPath></defs></svg>