<svg xmlns="http://www.w3.org/2000/svg" width="56" height="56" fill="none" viewBox="0 0 56 56"><g clip-path="url(#a)"><path fill="#F0F0F0" d="M28 56c15.464 0 28-12.536 28-28S43.464 0 28 0 0 12.536 0 28s12.536 28 28 28"/><path fill="#751A46" d="M56 28C56 12.536 43.465 0 28 0a27.87 27.87 0 0 0-14.902 4.293l6.137 2.608-8.278 3.517 8.278 3.517-8.278 3.517 8.278 3.517-8.278 3.517 8.278 3.516-8.278 3.517 8.278 3.517-8.278 3.516 8.278 3.517-8.278 3.517 8.278 3.517-6.134 2.606A27.87 27.87 0 0 0 28 56c15.463 0 28-12.536 28-28"/></g><defs><clipPath id="a"><path fill="#fff" d="M0 0h56v56H0z"/></clipPath></defs></svg>