<svg xmlns="http://www.w3.org/2000/svg" width="56" height="56" fill="none" viewBox="0 0 56 56"><g clip-path="url(#a)"><path fill="#F0F0F0" d="M28 56c15.464 0 28-12.536 28-28S43.464 0 28 0 0 12.536 0 28s12.536 28 28 28"/><path fill="#0052B4" d="M28 0C12.536 0 0 12.536 0 28c0 3.425.616 6.706 1.742 9.74h52.517A28 28 0 0 0 56 28C56 12.536 43.464 0 28 0"/><path fill="#D80027" d="M28 0C15.963 0 5.699 7.599 1.743 18.26H54.26C50.303 7.599 40.04 0 28.001 0"/><path fill="#D80027" d="M7.24 15.826v13.968c0 7.945 10.38 10.38 10.38 10.38S28 37.74 28 29.794V15.826z"/><path fill="#FFDA44" d="M11.533 18.26h12.174v-4.87l-2.435 1.218-3.652-3.652-3.652 3.652-2.435-1.217zm14.032 13.478-7.913-7.913-7.913 7.913 2.583 2.583 5.33-5.33 5.33 5.33z"/><path fill="#F0F0F0" d="M25.565 24.348h-3.692a2.435 2.435 0 1 0-4.253-2.366 2.434 2.434 0 1 0-4.253 2.366H9.74c0 1.345 1.172 2.435 2.516 2.435h-.08a2.435 2.435 0 0 0 2.434 2.435c0 1.19.855 2.18 1.984 2.391l-1.918 4.332a7.9 7.9 0 0 0 2.977.581 7.9 7.9 0 0 0 2.978-.581l-1.918-4.332a2.434 2.434 0 0 0 1.984-2.391 2.435 2.435 0 0 0 2.435-2.435h-.081c1.344 0 2.515-1.09 2.515-2.435"/></g><defs><clipPath id="a"><path fill="#fff" d="M0 0h56v56H0z"/></clipPath></defs></svg>