<svg xmlns="http://www.w3.org/2000/svg" width="56" height="56" fill="none" viewBox="0 0 56 56"><g clip-path="url(#a)"><path fill="#F0F0F0" d="M28 56c15.464 0 28-12.536 28-28S43.464 0 28 0 0 12.536 0 28s12.536 28 28 28"/><path fill="#0052B4" d="M54.258 37.739A27.9 27.9 0 0 0 56 27.999c0-3.424-.616-6.705-1.742-9.738H1.742A28 28 0 0 0 0 28c0 3.425.616 6.706 1.742 9.739L28 40.174z"/><path fill="#D80027" d="M28 56c12.04 0 22.304-7.6 26.26-18.261H1.742c3.956 10.662 14.22 18.26 26.259 18.26"/></g><defs><clipPath id="a"><path fill="#fff" d="M0 0h56v56H0z"/></clipPath></defs></svg>