<svg xmlns="http://www.w3.org/2000/svg" width="56" height="56" fill="none" viewBox="0 0 56 56"><g clip-path="url(#a)"><path fill="#FFDA44" d="M0 28a27.9 27.9 0 0 0 3.405 13.392L28 43.826l24.596-2.434A27.9 27.9 0 0 0 56 28l-28-2.435z"/><path fill="#338AF3" d="M52.596 14.609C47.846 5.905 38.613 0 28 0S8.153 5.905 3.405 14.609A27.9 27.9 0 0 0 0 28h56a27.9 27.9 0 0 0-3.404-13.391"/><path fill="#496E2D" d="M28 56c10.613 0 19.846-5.905 24.595-14.608H3.405C8.152 50.095 17.386 56 28 56"/><path fill="#FFDA44" d="m31.652 16.387 3.42 1.608-1.82 3.312 3.712-.71.47 3.75 2.587-2.758 2.587 2.759.47-3.751 3.713.71-1.82-3.312 3.419-1.608-3.42-1.609 1.821-3.312-3.713.71-.47-3.75-2.587 2.759-2.586-2.76-.47 3.752-3.714-.71 1.821 3.311z"/></g><defs><clipPath id="a"><path fill="#fff" d="M0 0h56v56H0z"/></clipPath></defs></svg>