<svg xmlns="http://www.w3.org/2000/svg" width="56" height="56" fill="none" viewBox="0 0 56 56"><g clip-path="url(#a)"><path fill="#6DA544" d="M28 56c15.464 0 28-12.536 28-28S43.464 0 28 0 0 12.536 0 28s12.536 28 28 28"/><path fill="#F0F0F0" d="M15.826 33.479a3.65 3.65 0 0 0 3.652 3.652h10.957a3.043 3.043 0 0 0 3.043 3.043h3.652a3.043 3.043 0 0 0 3.044-3.043v-3.653zm24.652-17.653v8.522a2.44 2.44 0 0 1-2.435 2.435v3.652a6.094 6.094 0 0 0 6.087-6.087v-8.522zm-26.174 8.522a2.437 2.437 0 0 1-2.435 2.435v3.652a6.094 6.094 0 0 0 6.087-6.087v-8.522h-3.652z"/><path fill="#F0F0F0" d="M35 15.826h3.652v8.522H35zm-5.48 4.87a.61.61 0 0 1-1.217 0v-4.87h-3.652v4.87a.61.61 0 0 1-1.218 0v-4.87h-3.652v4.87c0 2.35 1.912 4.26 4.261 4.26.905 0 1.744-.284 2.435-.767a4.24 4.24 0 0 0 2.972.733 2.44 2.44 0 0 1-2.363 1.86v3.653a6.094 6.094 0 0 0 6.087-6.087v-8.522H29.52z"/><path fill="#F0F0F0" d="M19.781 26.783h5.479v3.652h-5.48z"/></g><defs><clipPath id="a"><path fill="#fff" d="M0 0h56v56H0z"/></clipPath></defs></svg>