<svg xmlns="http://www.w3.org/2000/svg" width="56" height="56" fill="none" viewBox="0 0 56 56"><g clip-path="url(#a)"><path fill="#496E2D" d="M47.799 47.8c10.5-10.502 10.915-27.267 1.248-38.266L27.999 28 9.533 49.048C20.532 58.715 37.297 58.3 47.798 47.8"/><path fill="#0052B4" d="M8.2 8.2C18.701-2.3 35.467-2.716 46.466 6.952L28 28 6.952 46.466C-2.716 35.467-2.301 18.7 8.2 8.2"/><path fill="#FFDA44" d="M46.466 6.951 6.952 46.465q.599.682 1.248 1.334.652.65 1.335 1.248L49.048 9.534Q48.45 8.85 47.8 8.199q-.652-.65-1.334-1.248"/><path fill="#F0F0F0" d="m11.798 9.738.605 1.86h1.956l-1.583 1.15.605 1.86-1.583-1.15-1.582 1.15.605-1.86-1.583-1.15h1.956zm9.991 0 .604 1.86h1.956l-1.582 1.15.604 1.86-1.582-1.15-1.583 1.15.605-1.86-1.582-1.15h1.955zm-9.991 9.74.605 1.86h1.956l-1.583 1.15.605 1.86-1.583-1.15-1.582 1.15.605-1.86-1.583-1.15h1.956zm9.991 0 .604 1.86h1.956l-1.582 1.15.604 1.86-1.582-1.15-1.583 1.15.605-1.86-1.582-1.15h1.955zm-4.996-4.871.604 1.86h1.956l-1.582 1.15.604 1.86-1.582-1.15-1.583 1.15.605-1.86-1.583-1.15h1.956z"/></g><defs><clipPath id="a"><path fill="#fff" d="M0 0h56v56H0z"/></clipPath></defs></svg>