<svg xmlns="http://www.w3.org/2000/svg" width="56" height="56" fill="none" viewBox="0 0 56 56"><g clip-path="url(#a)"><path fill="#F0F0F0" d="M28 56c15.464 0 28-12.536 28-28S43.464 0 28 0 0 12.536 0 28s12.536 28 28 28"/><path fill="#FFDA44" d="M46.902 7.343A27.9 27.9 0 0 0 28 0a28 28 0 0 0-3.522.22L10.957 15.826.887 35.014a27.8 27.8 0 0 0 2.928 7.1L28.001 28z"/><path fill="#6DA544" d="m51.311 43.514-39.174 7.56A27.87 27.87 0 0 0 28 56c9.726 0 18.292-4.96 23.311-12.486"/><path fill="#D80027" d="M46.904 7.347 3.83 42.142a28 28 0 0 0 4.012 5.29L56 28c0-8.177-3.505-15.534-9.095-20.653"/><path fill="#0052B4" d="M0 28c0 2.422.308 4.773.886 7.014L24.479.22C10.677 1.952 0 13.729 0 28"/></g><defs><clipPath id="a"><path fill="#fff" d="M0 0h56v56H0z"/></clipPath></defs></svg>