<svg xmlns="http://www.w3.org/2000/svg" width="56" height="56" fill="none" viewBox="0 0 56 56"><g clip-path="url(#a)"><path fill="#FFDA44" d="M28 56c15.464 0 28-12.536 28-28S43.464 0 28 0 0 12.536 0 28s12.536 28 28 28"/><path fill="#0052B4" d="M21.912 24.348h33.85C53.972 10.61 42.225 0 27.999 0c-2.09 0-4.127.231-6.087.666zm-7.304 0V3.404C6.92 7.6 1.416 15.294.236 24.348zm0 7.304H.236c1.18 9.054 6.684 16.749 14.372 20.944zm7.304.001v23.682c1.96.434 3.997.665 6.087.665 14.226 0 25.973-10.61 27.763-24.348z"/></g><defs><clipPath id="a"><path fill="#fff" d="M0 0h56v56H0z"/></clipPath></defs></svg>