<svg xmlns="http://www.w3.org/2000/svg" width="56" height="56" fill="none" viewBox="0 0 56 56"><g clip-path="url(#a)"><path fill="#F0F0F0" d="M28 56c15.464 0 28-12.536 28-28S43.464 0 28 0 0 12.536 0 28s12.536 28 28 28"/><path fill="#D80027" d="M0 28C0 12.536 12.536 0 28 0s28 12.536 28 28"/><path fill="#F0F0F0" d="M17.044 14.609a8.52 8.52 0 0 1 6.695-8.324 8.522 8.522 0 1 0 0 16.647c-3.828-.836-6.695-4.244-6.695-8.323M28 6.695l.604 1.86h1.956l-1.583 1.15.605 1.86L28 10.415l-1.583 1.15.605-1.86-1.582-1.15h1.955z"/><path fill="#F0F0F0" d="m23.256 10.348.604 1.86h1.956l-1.583 1.15.605 1.86-1.582-1.15-1.583 1.15.605-1.86-1.583-1.15h1.956zm9.488 0 .604 1.86h1.956l-1.583 1.15.605 1.86-1.582-1.15-1.583 1.15.605-1.86-1.582-1.15h1.955zm-1.824 5.478.604 1.86h1.955l-1.582 1.15.605 1.86-1.583-1.15-1.582 1.15.605-1.86-1.583-1.15h1.956zm-5.838 0 .604 1.86h1.956l-1.583 1.15.605 1.86-1.582-1.15-1.583 1.15.605-1.86-1.582-1.15h1.955z"/></g><defs><clipPath id="a"><path fill="#fff" d="M0 0h56v56H0z"/></clipPath></defs></svg>