<svg xmlns="http://www.w3.org/2000/svg" width="56" height="56" fill="none" viewBox="0 0 56 56"><g clip-path="url(#a)"><path fill="#F0F0F0" d="M28 56c15.464 0 28-12.536 28-28S43.464 0 28 0 0 12.536 0 28s12.536 28 28 28"/><path fill="#0052B4" d="M54.258 18.26h-29.91v-7.304H9.739v7.304H1.742A28 28 0 0 0 0 28c0 3.424.616 6.705 1.742 9.739L28 40.173l26.258-2.434A28 28 0 0 0 56 27.999a28 28 0 0 0-1.742-9.739"/><path fill="#D80027" d="M28 56c12.04 0 22.303-7.598 26.259-18.26H1.742C5.698 48.401 15.962 56 28.001 56"/><path fill="#F0F0F0" d="M9.74 18.261v2.435c0 5.591 7.304 7.304 7.304 7.304s7.304-1.713 7.304-7.304v-2.435l-2.435 2.435-4.87-3.652-4.869 3.652z"/></g><defs><clipPath id="a"><path fill="#fff" d="M0 0h56v56H0z"/></clipPath></defs></svg>