<svg xmlns="http://www.w3.org/2000/svg" width="56" height="56" fill="none" viewBox="0 0 56 56"><g clip-path="url(#a)"><path fill="#F0F0F0" d="M28 56c15.464 0 28-12.536 28-28S43.464 0 28 0 0 12.536 0 28s12.536 28 28 28"/><path fill="#0052B4" d="M28 56c15.464 0 28-12.536 28-28 0-3.425-.616-6.706-1.742-9.74H1.742A28 28 0 0 0 0 28c0 15.464 12.536 28 28 28"/><path fill="#D80027" d="M28 56c12.04 0 22.303-7.598 26.259-18.26H1.742C5.698 48.401 15.962 56 28.001 56"/><path fill="#F0F0F0" d="M7.24 15.826v13.968c0 7.945 10.38 10.38 10.38 10.38S28 37.74 28 29.794V15.826z"/><path fill="#D80027" d="M9.675 15.826v13.968q.001 1.4.617 2.64h14.655q.616-1.24.618-2.64V15.826z"/><path fill="#F0F0F0" d="M22.49 25.565h-3.653V23.13h2.435v-2.435h-2.435v-2.434h-2.435v2.434h-2.434v2.435h2.434v2.435H12.75V28h3.652v2.435h2.435V28h3.652z"/><path fill="#0052B4" d="M13.614 35.833c1.569.986 3.18 1.558 4.006 1.813.825-.255 2.437-.827 4.006-1.813 1.582-.995 2.692-2.132 3.322-3.4a4.24 4.24 0 0 0-3.427-.668 4.261 4.261 0 0 0-7.802 0 4.24 4.24 0 0 0-3.426.67c.63 1.266 1.739 2.403 3.32 3.398"/></g><defs><clipPath id="a"><path fill="#fff" d="M0 0h56v56H0z"/></clipPath></defs></svg>