<svg xmlns="http://www.w3.org/2000/svg" width="56" height="56" fill="none" viewBox="0 0 56 56"><g clip-path="url(#a)"><path fill="#F0F0F0" d="M54.258 37.74A27.9 27.9 0 0 0 56 28c0-3.425-.616-6.706-1.742-9.739L28 15.826 1.742 18.261A27.9 27.9 0 0 0 0 28c0 3.425.616 6.706 1.742 9.74L28 40.173z"/><path fill="#338AF3" d="M28 56c12.04 0 22.303-7.598 26.259-18.26H1.742C5.7 48.401 15.962 56 28.001 56"/><path fill="#6DA544" d="M28 0C15.963 0 5.7 7.599 1.743 18.26H54.26C50.303 7.599 40.04 0 28.001 0"/></g><defs><clipPath id="a"><path fill="#fff" d="M0 0h56v56H0z"/></clipPath></defs></svg>