<svg xmlns="http://www.w3.org/2000/svg" width="56" height="56" fill="none" viewBox="0 0 56 56"><g clip-path="url(#a)"><path fill="#338AF3" d="M56 28c0 15.464-12.536 28-28 28S0 43.464 0 28c1.217 0 28-3.652 28-3.652z"/><path fill="#F0F0F0" d="M0 28C0 12.536 12.536 0 28 0s28 12.536 28 28"/><path fill="#6DA544" d="M39.114 19.32 28 30.436 16.885 19.321a13.3 13.3 0 0 0-2.277 7.462v3.652c0 5.864 3.79 10.86 9.048 12.668a4.05 4.05 0 0 0 .445 4.375l3.98-3.189 3.98 3.19a4.05 4.05 0 0 0 .42-4.425c5.187-1.847 8.91-6.806 8.91-12.619v-3.652c0-2.76-.84-5.329-2.277-7.462"/><path fill="#FFDA44" d="M28 40.174c-5.37 0-9.74-4.37-9.74-9.74v-3.652c0-5.37 4.37-9.738 9.74-9.738s9.739 4.368 9.739 9.738v3.653c0 5.37-4.369 9.739-9.74 9.739"/><path fill="#338AF3" d="M34.086 30.435v-3.652a6.094 6.094 0 0 0-6.087-6.087 6.094 6.094 0 0 0-6.087 6.087v3.652L28 31.652z"/><path fill="#6DA544" d="M21.912 30.435A6.094 6.094 0 0 0 28 36.522a6.094 6.094 0 0 0 6.087-6.087z"/><path fill="#FFDA44" d="M35.304 17.044a3.652 3.652 0 0 0-6.087-2.722v-2.148h1.217V9.74h-1.217V8.522h-2.435v1.217h-1.217v2.435h1.217v2.148a3.652 3.652 0 0 0-4.87 5.443v2.148h12.175v-2.148a3.64 3.64 0 0 0 1.217-2.721"/></g><defs><clipPath id="a"><path fill="#fff" d="M0 0h56v56H0z"/></clipPath></defs></svg>