<svg xmlns="http://www.w3.org/2000/svg" width="56" height="56" fill="none" viewBox="0 0 56 56"><g clip-path="url(#a)"><path fill="#FFDA44" d="M40.174 2.778A27.9 27.9 0 0 0 28 0a27.9 27.9 0 0 0-12.174 2.778L13.392 28l2.434 25.222A27.9 27.9 0 0 0 28 56a27.9 27.9 0 0 0 12.174-2.778L42.61 28z"/><path fill="#496E2D" d="m28 18.26 2.417 7.44h7.823l-6.328 4.6 2.417 7.44-6.33-4.598-6.328 4.598 2.418-7.44-6.33-4.599h7.824zM15.826 2.78C6.46 7.307 0 16.9 0 28s6.46 20.692 15.826 25.22z"/><path fill="#D80027" d="M40.174 2.78v50.44C49.54 48.693 56 39.1 56 28S49.54 7.308 40.174 2.78"/></g><defs><clipPath id="a"><path fill="#fff" d="M0 0h56v56H0z"/></clipPath></defs></svg>