<svg xmlns="http://www.w3.org/2000/svg" width="56" height="56" fill="none" viewBox="0 0 56 56"><g clip-path="url(#a)"><path fill="#F0F0F0" d="M28 56c15.464 0 28-12.536 28-28S43.464 0 28 0 0 12.536 0 28s12.536 28 28 28"/><path fill="#A2001D" d="M54.258 18.26H1.741A28 28 0 0 0 0 28c0 3.425.616 6.706 1.741 9.739h52.517A27.9 27.9 0 0 0 56 27.999c0-3.424-.616-6.705-1.742-9.738"/><path fill="#6DA544" d="M28.08 56c9.59 0 18.053-4.822 23.1-12.174H4.98C10.027 51.178 18.49 56 28.08 56m0-56c9.59 0 18.053 4.823 23.1 12.174H4.98C10.027 4.823 18.49 0 28.08 0"/><path fill="#FFDA44" d="m28 18.26 2.417 7.44h7.823l-6.328 4.6 2.417 7.44L28 33.14l-6.329 4.598 2.418-7.44-6.33-4.599h7.824z"/></g><defs><clipPath id="a"><path fill="#fff" d="M0 0h56v56H0z"/></clipPath></defs></svg>