<svg xmlns="http://www.w3.org/2000/svg" width="56" height="56" fill="none" viewBox="0 0 56 56"><g clip-path="url(#a)"><path fill="#F0F0F0" d="M28 56c15.464 0 28-12.536 28-28S43.464 0 28 0 0 12.536 0 28s12.536 28 28 28"/><path fill="#000" d="M53.816 17.145C49.576 7.072 39.614 0 28 0 20.268 0 13.27 3.135 8.202 8.202l7.012 8.943z"/><path fill="#496E2D" d="m15.294 38.754-7.092 9.044C13.27 52.866 20.268 56 28 56c11.654 0 21.643-7.12 25.86-17.246z"/><path fill="#A2001D" d="M6.088 20.595v14.71h48.948c.628-2.329.965-4.777.965-7.305 0-2.564-.345-5.046-.991-7.405z"/><path fill="#0052B4" d="M8.201 8.201c-10.935 10.935-10.935 28.664 0 39.598L28 28z"/><path fill="#FFDA44" d="m9.12 21.04 3.418 4.768 5.592-1.777-3.48 4.724 3.418 4.77-5.568-1.85L9.02 36.4l.039-5.867-5.569-1.85 5.592-1.776z"/></g><defs><clipPath id="a"><path fill="#fff" d="M0 0h56v56H0z"/></clipPath></defs></svg>