<svg xmlns="http://www.w3.org/2000/svg" width="56" height="56" fill="none" viewBox="0 0 56 56"><g clip-path="url(#a)"><path fill="#FFDA44" d="M28 56c15.464 0 28-12.536 28-28S43.464 0 28 0 0 12.536 0 28s12.536 28 28 28"/><path fill="#6DA544" d="M17.044 18.26h37.215C50.302 7.599 40.039 0 28 0 20.268 0 13.27 3.135 8.202 8.202zm0 19.48h37.215C50.302 48.401 40.039 56 28 56c-7.732 0-14.731-3.134-19.798-8.202z"/><path fill="#D80027" d="M8.201 8.201c-10.935 10.935-10.935 28.664 0 39.598L28 28z"/><path fill="#000" d="m35.555 23.13 1.208 3.72h3.912l-3.164 2.3 1.208 3.72-3.164-2.3-3.165 2.3 1.209-3.72-3.164-2.3h3.911zm12.174 0 1.208 3.72h3.912l-3.165 2.3 1.209 3.72-3.164-2.3-3.165 2.3 1.209-3.72-3.165-2.3h3.912z"/></g><defs><clipPath id="a"><path fill="#fff" d="M0 0h56v56H0z"/></clipPath></defs></svg>