<svg xmlns="http://www.w3.org/2000/svg" width="56" height="56" fill="none" viewBox="0 0 56 56"><g clip-path="url(#a)"><path fill="#D80027" d="M25.565 30.435S8.218 8.197 8.201 8.2a27.9 27.9 0 0 1 19.8-8.2c15.463 0 28 12.536 28 28z"/><path fill="#0052B4" d="M25.565 28S8.218 47.803 8.201 47.799A27.9 27.9 0 0 0 28.001 56c15.463 0 28-12.536 28-28z"/><path fill="#F0F0F0" d="M8.201 8.201c-10.935 10.935-10.935 28.664 0 39.598L28 28z"/><path fill="#FFDA44" d="M3.069 28a7.913 7.913 0 1 0 15.775 0zm7.887-3.652a2.435 2.435 0 1 0 0-4.87 2.435 2.435 0 0 0 0 4.87"/><path fill="#D80027" d="M5.479 21.305v7.913c0 4.193 5.478 5.478 5.478 5.478s5.478-1.285 5.478-5.478v-7.913z"/><path fill="#338AF3" d="M10.96 32.148c-1.017-.366-3.047-1.3-3.047-2.93v-5.479H14v5.479c0 1.635-2.03 2.567-3.04 2.93"/><path fill="#F3F3F3" d="M12.174 26.782v-1.217l-1.217-.609-1.217.609v1.217l-.61.609v2.435h3.653V27.39z"/></g><defs><clipPath id="a"><path fill="#fff" d="M0 0h56v56H0z"/></clipPath></defs></svg>