<svg xmlns="http://www.w3.org/2000/svg" width="56" height="56" fill="none" viewBox="0 0 56 56"><g clip-path="url(#a)"><path fill="#FFDA44" d="M53.222 40.174A27.9 27.9 0 0 0 56 28a27.9 27.9 0 0 0-2.778-12.174L28 14.608 2.778 15.826A27.9 27.9 0 0 0 0 28c0 4.363.998 8.493 2.778 12.174L28 41.39z"/><path fill="#000" d="M28.001 0C16.9 0 7.308 6.46 2.779 15.826h50.444C48.692 6.46 39.101 0 28 0"/><path fill="#0052B4" d="M28.001 56C16.9 56 7.308 49.54 2.779 40.174h50.444C48.692 49.54 39.101 56 28 56"/><path fill="#A2001D" d="M54.678 19.479H1.322A28 28 0 0 0 0 28a28 28 0 0 0 1.322 8.522h53.356A28 28 0 0 0 56 28a28 28 0 0 0-1.322-8.521"/><path fill="#FFDA44" d="M9.74 26.782h36.52v2.435H9.739zm4.868-4.869h26.783v2.435H14.608z"/><path fill="#F0F0F0" d="M41.565 28S35.304 35.304 28 35.304c-7.305 0-7.305-7.304-7.305-7.304s0-7.305 7.305-7.305S41.565 28 41.565 28"/><path fill="#000" d="M28 35.304C20.697 35.304 14.437 28 14.437 28s6.26-7.305 13.565-7.305"/><path fill="#F0F0F0" d="M23.13 25.565h2.436v4.87H23.13z"/><path fill="#000" d="M30.435 25.565h2.434v4.87h-2.434z"/><path fill="#0052B4" d="M9.74 30.435a2.435 2.435 0 1 0 0-4.87 2.435 2.435 0 0 0 0 4.87m36.521 0a2.435 2.435 0 1 0 0-4.87 2.435 2.435 0 0 0 0 4.87"/></g><defs><clipPath id="a"><path fill="#fff" d="M0 0h56v56H0z"/></clipPath></defs></svg>