<svg xmlns="http://www.w3.org/2000/svg" width="56" height="56" fill="none" viewBox="0 0 56 56"><g clip-path="url(#a)"><path fill="#0052B4" d="M56 28c0 15.464-12.536 28-28 28S0 43.464 0 28C0 28.007 28 .003 28 0c15.464 0 28 12.536 28 28"/><path fill="#F0F0F0" d="M27.925 28H28v-.075z"/><path fill="#F0F0F0" d="M28 14.609V0h-.005C12.533.003 0 12.538 0 28h14.609v-8.226L22.835 28h5.09l.075-.075v-5.09l-8.226-8.226z"/><path fill="#D80027" d="M14.166 3.652A28.13 28.13 0 0 0 3.652 14.166V28h7.305V10.957H28V3.652z"/><path fill="#D80027" d="m28 24.557-9.948-9.948H14.61L28 28.002z"/><path fill="#FFDA44" d="M31.652 14.608V28c0 6.523 8.522 8.522 8.522 8.522s8.522-2 8.522-8.522V14.608z"/><path fill="#FF9811" d="M38.958 19.479c0 1.345-1.09 4.87-2.435 4.87s-2.435-3.526-2.435-4.87 2.435-2.435 2.435-2.435 2.435 1.09 2.435 2.435"/><path fill="#A2001D" d="M45.417 22.13c.393-.958.699-2.36.699-3.057 0-1.12-1.461-2.03-1.461-2.03s-1.461.91-1.461 2.03c0 .698.305 2.099.698 3.058l-.843 1.904a4.26 4.26 0 0 0 3.211 0z"/><path fill="#6DA544" d="M38.348 28s-1.217 2.434-1.217 4.87h6.087C43.218 30.433 42 28 42 28l-1.826-1.218z"/><path fill="#D80027" d="M42 28v-.608a1.826 1.826 0 0 0-3.652 0V28z"/></g><defs><clipPath id="a"><path fill="#fff" d="M0 0h56v56H0z"/></clipPath></defs></svg>