<svg xmlns="http://www.w3.org/2000/svg" width="56" height="56" fill="none" viewBox="0 0 56 56"><g clip-path="url(#a)"><path fill="#FFDA44" d="M28 0a28 28 0 0 0-9.739 1.742L17.044 28l1.217 26.258A27.9 27.9 0 0 0 28.001 56c3.424 0 6.705-.616 9.738-1.742L38.957 28 37.74 1.742A28 28 0 0 0 28 0"/><path fill="#D80027" d="M56 28c0-12.039-7.598-22.302-18.26-26.258v52.517C48.401 50.302 56 40.039 56 28"/><path fill="#0052B4" d="M18.26 54.259V1.741C7.599 5.698 0 15.962 0 28c0 12.04 7.599 22.302 18.26 26.258"/></g><defs><clipPath id="a"><path fill="#fff" d="M0 0h56v56H0z"/></clipPath></defs></svg>