<svg xmlns="http://www.w3.org/2000/svg" width="56" height="56" fill="none" viewBox="0 0 56 56"><g clip-path="url(#a)"><path fill="#FFDA44" d="M28 56c15.464 0 28-12.536 28-28S43.464 0 28 0 0 12.536 0 28s12.536 28 28 28"/><path fill="#496E2D" d="M28 0c-.02 0-1.218 11.2-1.218 11.2h23.619C45.292 4.4 37.16 0 28 0m0 56c9.16 0 17.293-4.4 22.401-11.2H5.599c5.108 6.8 13.24 11.2 22.4 11.2m27.44-33.6H26.782L28 33.6h27.439c.367-1.809.56-3.682.56-5.6s-.193-3.79-.56-5.6"/><path fill="#D80027" d="M28 33.6V0C12.536 0 0 12.536 0 28c0 1.918.193 3.79.56 5.6z"/><path fill="#F0F0F0" d="m15.45 13.392 1.813 5.58h5.867l-4.746 3.448L20.196 28l-4.746-3.448L10.703 28l1.813-5.58-4.746-3.449h5.867z"/></g><defs><clipPath id="a"><path fill="#fff" d="M0 0h56v56H0z"/></clipPath></defs></svg>