<svg xmlns="http://www.w3.org/2000/svg" width="56" height="56" fill="none" viewBox="0 0 56 56"><g clip-path="url(#a)"><path fill="#F0F0F0" d="M2.778 15.826A27.9 27.9 0 0 0 0 28c0 4.363.998 8.493 2.778 12.174L28 42.61l25.222-2.435A27.9 27.9 0 0 0 56 28a27.9 27.9 0 0 0-2.778-12.174L28 13.392z"/><path fill="#6DA544" d="M2.78 40.174C7.307 49.54 16.9 56 28 56s20.692-6.46 25.22-15.826z"/><path fill="#D80027" d="M2.78 15.826h50.44C48.693 6.46 39.1 0 28 0S7.308 6.46 2.78 15.826"/><path fill="#FFDA44" d="M23.13 35.305h9.74v-4.14l-1.948.974L28 29.219l-2.921 2.921-1.948-.973zm-5.571-4.87.453 1.395h1.467l-1.187.862.453 1.395-1.186-.862-1.187.862.453-1.395-1.186-.863h1.466zm1.405-4.87.453 1.395h1.467l-1.187.863.454 1.395-1.187-.863-1.187.863.454-1.395-1.187-.863h1.467zm4.019-3.652.453 1.395h1.467l-1.187.862.453 1.395-1.186-.862-1.187.862.453-1.395-1.186-.862h1.466zm15.46 8.522-.454 1.395h-1.466l1.186.862-.453 1.395 1.187-.862 1.186.862-.453-1.395 1.187-.863h-1.467zm-1.406-4.87-.453 1.395h-1.467l1.187.863-.453 1.395 1.186-.863 1.187.863-.453-1.395 1.186-.863h-1.466zm-4.017-3.652-.454 1.395H31.1l1.186.862-.453 1.395 1.187-.862 1.186.862-.453-1.395 1.187-.862h-1.467zM28 20.087l.453 1.395h1.467l-1.187.862.454 1.395L28 22.877l-1.187.862.454-1.395-1.187-.862h1.467z"/></g><defs><clipPath id="a"><path fill="#fff" d="M0 0h56v56H0z"/></clipPath></defs></svg>