<svg xmlns="http://www.w3.org/2000/svg" width="56" height="56" fill="none" viewBox="0 0 56 56"><g clip-path="url(#a)"><path fill="#FFDA44" d="M28 56c15.464 0 28-12.536 28-28S43.464 0 28 0 0 12.536 0 28s12.536 28 28 28"/><path fill="#0052B4" d="M45.044 13.391a18.7 18.7 0 0 0-.366 3.774c0 7.387 4.404 13.78 10.714 16.658A28 28 0 0 0 56 28C56 12.536 43.464 0 28 0S0 12.536 0 28s12.536 28 28 28c9.59 0 18.053-4.823 23.1-12.174H15.826v-3.652h37.396q.573-1.187 1.036-2.435H15.826z"/><path fill="#F0F0F0" d="m20.57 14.608.605 1.86h1.956l-1.582 1.15.604 1.86-1.582-1.15-1.582 1.15.604-1.86-1.582-1.15h1.956zM12.628 28l.755 2.325h2.445l-1.978 1.437.755 2.325-1.977-1.437-1.978 1.437.755-2.325-1.977-1.437h2.444zm0-19.479.755 2.326h2.445l-1.978 1.436.755 2.325-1.977-1.437-1.978 1.437.755-2.325-1.977-1.436h2.444zM6.54 19.478l.755 2.325H9.74l-1.978 1.436.756 2.325-1.978-1.436-1.978 1.436.756-2.325-1.978-1.436h2.444z"/></g><defs><clipPath id="a"><path fill="#fff" d="M0 0h56v56H0z"/></clipPath></defs></svg>