<svg xmlns="http://www.w3.org/2000/svg" width="56" height="56" fill="none" viewBox="0 0 56 56"><g clip-path="url(#a)"><path fill="#FFDA44" d="M28 56c15.464 0 28-12.536 28-28S43.464 0 28 0 0 12.536 0 28s12.536 28 28 28"/><path fill="#D80027" d="M28 0A27.9 27.9 0 0 0 9.998 6.555L40.173 28 9.998 49.445A27.9 27.9 0 0 0 28 56c15.463 0 28-12.536 28-28S43.463 0 28 0"/><path fill="#000" d="M8.201 8.201c-10.935 10.935-10.935 28.664 0 39.598L28 28z"/><path fill="#F0F0F0" d="m7.763 21.586 4.261 4.033 5.152-2.807-2.518 5.299 4.261 4.033-5.818-.758-2.518 5.3-1.077-5.768-5.818-.758 5.152-2.807z"/></g><defs><clipPath id="a"><path fill="#fff" d="M0 0h56v56H0z"/></clipPath></defs></svg>