<svg xmlns="http://www.w3.org/2000/svg" width="56" height="56" fill="none" viewBox="0 0 56 56"><g clip-path="url(#a)"><path fill="#496E2D" d="M28 0c-2.091 0-4.128.231-6.087.666L20.695 28l1.218 27.334c1.96.435 3.996.666 6.087.666 15.464 0 28-12.536 28-28S43.463 0 28 0M7.304 9.14A27.9 27.9 0 0 0 0 28a27.9 27.9 0 0 0 7.304 18.86L8.522 28z"/><path fill="#F0F0F0" d="M40.952 21.12c1.378-3.84-.17-8.016-3.491-10.096a8.522 8.522 0 1 1-5.622 15.669 8.52 8.52 0 0 0 9.113-5.573M33.311 9.972l-1.197 1.547-1.84-.661 1.1 1.616-1.196 1.547 1.877-.548 1.101 1.616.06-1.954 1.877-.548-1.84-.66z"/><path fill="#F0F0F0" d="m36.544 15.012-1.197 1.546-1.84-.66 1.1 1.616-1.197 1.547 1.878-.548 1.1 1.616.06-1.954 1.877-.548-1.84-.66zm-8.932-3.205-1.197 1.546-1.84-.66 1.1 1.616-1.197 1.547 1.878-.548 1.101 1.616.06-1.954 1.877-.548-1.841-.66zm-.13 5.773-1.197 1.547-1.841-.66 1.1 1.616-1.196 1.546 1.877-.547 1.101 1.616.06-1.955 1.877-.547-1.84-.661zm5.494 1.97-1.197 1.547-1.841-.66 1.101 1.616-1.197 1.547 1.877-.548 1.102 1.617.059-1.955 1.877-.548-1.84-.66z"/><path fill="#D80027" d="M7.305 9.141V46.86a27.97 27.97 0 0 0 14.608 8.475V.666A27.97 27.97 0 0 0 7.305 9.141"/><path fill="#F0F0F0" d="m12.88 14.742-2.446-1.822v-2.577l2.445-1.822h3.46l2.445 1.822v2.577l-2.446 1.822z"/><path fill="#FF9811" d="M14.609 8.521h-1.73l-2.445 1.822v1.26h4.175zm.001 6.221h1.729l2.446-1.822v-1.315h-4.176z"/><path fill="#F0F0F0" d="m12.88 47.478-2.446-1.822V43.08l2.445-1.822h3.46l2.445 1.822v2.576l-2.446 1.822z"/><path fill="#FF9811" d="M14.609 41.258h-1.73l-2.445 1.822v1.26h4.175zm.001 6.22h1.729l2.446-1.822v-1.314h-4.176z"/><path fill="#496E2D" d="m12.88 31.109-2.446-1.822v-2.576l2.445-1.822h3.46l2.445 1.822v2.576l-2.446 1.822zm5.99 4.009h-1.065v-1.065h-1.872l-1.324-1.323-1.323 1.323h-1.872v1.065h-1.065v2.13h1.065v1.066h1.872l1.323 1.324 1.324-1.324h1.872v-1.065h1.065zm0-16.368h-1.065v-1.065h-1.872l-1.324-1.324-1.323 1.324h-1.872v1.065h-1.065v2.13h1.065v1.066h1.872l1.323 1.324 1.324-1.324h1.872V20.88h1.065z"/><path fill="#D80027" d="M13.392 26.782h2.434v2.435h-2.434zm1.217-5.75a1.217 1.217 0 1 0 0-2.434 1.217 1.217 0 0 0 0 2.434m0 16.37a1.217 1.217 0 1 0 0-2.435 1.217 1.217 0 0 0 0 2.435"/></g><defs><clipPath id="a"><path fill="#fff" d="M0 0h56v56H0z"/></clipPath></defs></svg>