<svg xmlns="http://www.w3.org/2000/svg" width="56" height="56" fill="none" viewBox="0 0 56 56"><g clip-path="url(#a)"><path fill="#D80027" d="M28 56c15.464 0 28-12.536 28-28S43.464 0 28 0 0 12.536 0 28s12.536 28 28 28"/><path fill="#F0F0F0" d="m26.853 22.88 2.297 3.166 3.721-1.207-2.301 3.164 2.297 3.165-3.72-1.21-2.3 3.162.002-3.911-3.72-1.211 3.722-1.206z"/><path fill="#F0F0F0" d="M20.583 35.913a7.913 7.913 0 1 1 3.764-14.875 9.7 9.7 0 0 0-6.807-2.777C12.16 18.26 7.8 22.62 7.8 28s4.361 9.739 9.74 9.739c2.65 0 5.052-1.06 6.807-2.777a7.9 7.9 0 0 1-3.764.951"/></g><defs><clipPath id="a"><path fill="#fff" d="M0 0h56v56H0z"/></clipPath></defs></svg>