<svg xmlns="http://www.w3.org/2000/svg" width="56" height="56" fill="none" viewBox="0 0 56 56"><g clip-path="url(#a)"><path fill="#F0F0F0" d="M15.161 3.11a28 28 0 0 0-6.96 5.09 28 28 0 0 0-5.092 6.961l18.004 19.726L40.84 52.891a28 28 0 0 0 6.961-5.09 28 28 0 0 0 5.091-6.962L34.887 21.113z"/><path fill="#000" d="M47.8 47.8a28 28 0 0 0 3.145-3.743L11.944 5.056a28.2 28.2 0 0 0-6.887 6.887l39.001 39a28 28 0 0 0 3.743-3.143"/><path fill="#D80027" d="M8.2 47.8c8.834 8.834 22.1 10.53 32.639 5.09L3.109 15.162C-2.329 25.7-.633 38.966 8.2 47.8M47.8 8.2C38.966-.634 25.699-2.33 15.16 3.11l37.73 37.729C58.329 30.3 56.634 17.034 47.8 8.2"/></g><defs><clipPath id="a"><path fill="#fff" d="M0 0h56v56H0z"/></clipPath></defs></svg>