<svg xmlns="http://www.w3.org/2000/svg" width="56" height="56" fill="none" viewBox="0 0 56 56"><g clip-path="url(#a)"><path fill="#338AF3" d="M56 28c0 15.464-12.536 28-28 28S0 43.464 0 28C0 28.007 28 .003 28 0c15.464 0 28 12.536 28 28"/><path fill="#0052B4" d="M13.392 28h9.443l-8.226-9.74-1.217 3.653zM28 22.835l-9.74-9.443H28z"/><path fill="#F0F0F0" d="M27.925 28H28v-.075z"/><path fill="#F0F0F0" d="M28 14.609V0h-.005C12.534.003 0 12.538 0 28h14.609v-8.226L22.835 28h5.09l.075-.075v-5.09l-8.226-8.226z"/><path fill="#D80027" d="M14.166 3.652A28.13 28.13 0 0 0 3.652 14.166V28h7.305V10.957H28V3.652z"/><path fill="#D80027" d="m28 24.557-9.948-9.948H14.61L28 28.002z"/><path fill="#FFDA44" d="m30.56 46.26.604 1.86h1.956l-1.582 1.15.604 1.86-1.582-1.15-1.582 1.15.604-1.86L28 48.12h1.956zm15.576-12.173.605 1.86h1.955l-1.582 1.15.605 1.86-1.583-1.15-1.582 1.15.605-1.86-1.583-1.15h1.956zm3.903-18.261.604 1.86h1.956l-1.582 1.15.604 1.86-1.583-1.15-1.582 1.15.605-1.86-1.583-1.15h1.956zm.967 13.392.604 1.86h1.956l-1.583 1.15.605 1.86-1.583-1.15-1.582 1.15.605-1.86-1.583-1.15h1.956zM33.364 41.886l1.743.888 1.383-1.382-.306 1.931 1.742.888-1.931.306-.306 1.932-.888-1.743-1.932.306 1.383-1.383zm0-7.304 1.743.888 1.383-1.383-.306 1.931 1.742.888-1.931.306-.306 1.932-.888-1.743-1.932.306 1.383-1.382zm6.088 4.682 1.743.888 1.383-1.383-.306 1.932 1.742.888-1.932.306-.306 1.932-.887-1.743-1.932.306 1.383-1.383zm0-15.639 1.743.888 1.383-1.383-.306 1.931 1.742.888-1.932.306-.306 1.932-.887-1.743-1.932.306 1.383-1.382zm5.899-.187 1.743.888 1.383-1.383-.306 1.932 1.743.888-1.932.306L47.676 28l-.888-1.742-1.932.306 1.383-1.383z"/></g><defs><clipPath id="a"><path fill="#fff" d="M0 0h56v56H0z"/></clipPath></defs></svg>