<svg xmlns="http://www.w3.org/2000/svg" width="56" height="56" fill="none" viewBox="0 0 56 56"><g clip-path="url(#a)"><path fill="#D80027" d="M56 28c0 15.464-12.536 28-28 28S0 43.464 0 28L28 0c15.464 0 28 12.536 28 28"/><path fill="#0052B4" d="M28 28V0C12.536 0 0 12.536 0 28z"/><path fill="#F0F0F0" d="m24.348 16.387-3.42 1.608 1.821 3.312-3.713-.71-.47 3.75-2.587-2.758-2.586 2.759-.47-3.751-3.714.71 1.82-3.312-3.419-1.608 3.42-1.609-1.821-3.312 3.713.71.47-3.75 2.587 2.759 2.587-2.76.47 3.752 3.713-.71-1.82 3.311z"/><path fill="#0052B4" d="M15.98 21.598a5.212 5.212 0 1 0 0-10.424 5.212 5.212 0 0 0 0 10.424"/><path fill="#F0F0F0" d="M15.978 19.164a2.78 2.78 0 0 1-2.777-2.777 2.78 2.78 0 0 1 2.777-2.778 2.78 2.78 0 0 1 2.778 2.778 2.78 2.78 0 0 1-2.778 2.777"/></g><defs><clipPath id="a"><path fill="#fff" d="M0 0h56v56H0z"/></clipPath></defs></svg>