<svg xmlns="http://www.w3.org/2000/svg" width="56" height="56" fill="none" viewBox="0 0 56 56"><g clip-path="url(#a)"><path fill="#FFDA44" d="M28 56c15.464 0 28-12.536 28-28S43.464 0 28 0 0 12.536 0 28s12.536 28 28 28"/><path fill="#000" d="M8.2 47.799a28 28 0 0 0 3.743 3.144l39-39a28.2 28.2 0 0 0-6.887-6.887l-39 39A28 28 0 0 0 8.202 47.8"/><path fill="#6DA544" d="M8.2 8.2C-.632 17.035-2.327 30.3 3.11 40.839L40.838 3.11C30.301-2.328 17.034-.632 8.201 8.2"/><path fill="#338AF3" d="M47.8 47.798c8.833-8.833 10.528-22.1 5.09-32.637L15.162 52.89C25.7 58.328 38.966 56.632 47.8 47.8"/></g><defs><clipPath id="a"><path fill="#fff" d="M0 0h56v56H0z"/></clipPath></defs></svg>