<svg xmlns="http://www.w3.org/2000/svg" width="56" height="56" fill="none" viewBox="0 0 56 56"><g clip-path="url(#a)"><path fill="#FFDA44" d="M48.868 46.667A27.9 27.9 0 0 0 56 28a27.9 27.9 0 0 0-7.132-18.666L28 7.304 7.132 9.335A27.9 27.9 0 0 0 0 28a27.9 27.9 0 0 0 7.132 18.667L28 48.696z"/><path fill="#000" d="M7.133 9.333h41.736C43.742 3.606 36.293 0 28 0S12.26 3.606 7.133 9.333"/><path fill="#D80027" d="m0 28 28 2.435L56 28c0-3.273-.563-6.414-1.596-9.333H1.596A28 28 0 0 0 0 28"/><path fill="#000" d="M1.596 37.333h52.809A28 28 0 0 0 56 28H0c0 3.273.563 6.414 1.596 9.333"/><path fill="#D80027" d="M48.868 46.667H7.132C12.259 52.395 19.708 56 28 56s15.741-3.605 20.868-9.333"/><path fill="#F0F0F0" d="M37.343 28A9.343 9.343 0 0 1 28 37.343 9.343 9.343 0 0 1 18.656 28 9.343 9.343 0 0 1 28 18.656 9.343 9.343 0 0 1 37.343 28"/><path fill="#000" d="M31.423 28.477 28 26.994s.8-2.659.843-2.84q.048-.2.048-.414c0-.505-.204-.961-.535-1.291l.86-.861a3.03 3.03 0 0 0-2.151-.892c-.84 0-1.602.34-2.152.892l.86.86a1.82 1.82 0 0 0-.456 1.822l-1.296 1.296h2.356s-.974 1.462-1.506 2.664c-.531 1.2.008 2.667 1.237 3.213l.71.316L28 32.87v1.218l-1.218 1.218h2.435V32.87l1.111-1.111h2.298l.033-.069a2.435 2.435 0 0 0-1.236-3.213"/></g><defs><clipPath id="a"><path fill="#fff" d="M0 0h56v56H0z"/></clipPath></defs></svg>