<svg xmlns="http://www.w3.org/2000/svg" width="56" height="56" fill="none" viewBox="0 0 56 56"><g clip-path="url(#a)"><path fill="#F0F0F0" d="M28 56c15.464 0 28-12.536 28-28S43.464 0 28 0 0 12.536 0 28s12.536 28 28 28"/><path fill="#D80027" d="M26.783 28h29.218a28 28 0 0 0-.965-7.305H26.783zm0-14.609h25.108a28.2 28.2 0 0 0-6.46-7.304H26.782zM28 56a27.88 27.88 0 0 0 17.43-6.087H10.57A27.88 27.88 0 0 0 28 56M4.11 42.61h47.78a27.8 27.8 0 0 0 3.146-7.305H.965a27.8 27.8 0 0 0 3.145 7.304"/><path fill="#0052B4" d="M12.97 4.373h2.552l-2.374 1.724.907 2.79-2.373-1.724-2.374 1.724.783-2.41a28.2 28.2 0 0 0-5.43 6.052h.817l-1.51 1.098q-.354.588-.678 1.196l.721 2.22-1.346-.977a28 28 0 0 0-.915 2.173l.795 2.447h2.933L3.105 22.41l.906 2.79-2.373-1.724-1.422 1.033A28 28 0 0 0 0 28h28V0a27.87 27.87 0 0 0-15.03 4.373M14.055 25.2l-2.373-1.724L9.308 25.2l.907-2.79-2.374-1.724h2.934l.907-2.79.906 2.79h2.934l-2.374 1.724zm-.907-10.947.907 2.79-2.373-1.724-2.374 1.725.907-2.79-2.374-1.725h2.934l.907-2.79.906 2.79h2.934zM24.098 25.2l-2.373-1.724-2.373 1.724.906-2.79-2.373-1.724h2.933l.907-2.79.906 2.79h2.934l-2.373 1.724zm-.906-10.947.906 2.79-2.373-1.724-2.373 1.725.906-2.79-2.373-1.725h2.933l.907-2.79.906 2.79h2.934zm0-8.156.906 2.79-2.373-1.724-2.373 1.724.906-2.79-2.373-1.724h2.933l.907-2.79.906 2.79h2.934z"/></g><defs><clipPath id="a"><path fill="#fff" d="M0 0h56v56H0z"/></clipPath></defs></svg>