<svg xmlns="http://www.w3.org/2000/svg" width="56" height="56" fill="none" viewBox="0 0 56 56"><g clip-path="url(#a)"><path fill="#F0F0F0" d="M28 56c15.464 0 28-12.536 28-28S43.464 0 28 0 0 12.536 0 28s12.536 28 28 28"/><path fill="#338AF3" d="M28 20.696h27.035a27.8 27.8 0 0 0-3.145-7.304H28zM10.57 49.913h34.86a28.1 28.1 0 0 0 6.46-7.305H4.11a28.2 28.2 0 0 0 6.46 7.305M28 0v6.087h17.43A27.88 27.88 0 0 0 28 0"/><path fill="#338AF3" d="M28 20.696h27.035a27.8 27.8 0 0 0-3.145-7.304H28zM0 28c0 2.527.337 4.975.965 7.304h54.07C55.664 32.975 56 30.527 56 28z"/><path fill="#FFDA44" d="m24.348 16.387-3.42 1.608 1.821 3.312-3.713-.71-.47 3.75-2.587-2.758-2.586 2.759-.47-3.751-3.714.71 1.82-3.312-3.419-1.608 3.42-1.609-1.821-3.312 3.713.71.47-3.75 2.587 2.759 2.587-2.76.47 3.752 3.713-.71-1.82 3.311z"/></g><defs><clipPath id="a"><path fill="#fff" d="M0 0h56v56H0z"/></clipPath></defs></svg>