<svg xmlns="http://www.w3.org/2000/svg" width="56" height="56" fill="none" viewBox="0 0 56 56"><g clip-path="url(#a)"><path fill="#F0F0F0" d="M1.322 19.478A28 28 0 0 0 0 28c0 2.971.465 5.834 1.322 8.521L28 37.74l26.678-1.217A28 28 0 0 0 56 28a28 28 0 0 0-1.322-8.522L28 18.261z"/><path fill="#D80027" d="M54.678 19.478 28 18.261 1.322 19.478a28 28 0 0 0-.656 2.435h54.668a28 28 0 0 0-.656-2.435M.666 34.087q.275 1.24.656 2.435h.003L28 37.739l26.678-1.217q.381-1.197.656-2.435z"/><path fill="#6DA544" d="M28 56c12.492 0 23.072-8.182 26.678-19.478H1.322C4.928 47.818 15.508 56 28 56"/><path fill="#338AF3" d="M28 0C15.508 0 4.928 8.182 1.322 19.478h53.356C51.072 8.182 40.492 0 28 0"/><path fill="#F0F0F0" d="M12.795 11.565a5.48 5.48 0 0 1 4.304-5.35 5.478 5.478 0 1 0 0 10.702 5.48 5.48 0 0 1-4.304-5.352m7.543 2.491.37 1.141h1.2l-.97.706.37 1.14-.97-.705-.971.706.37-1.142-.97-.705h1.2zm3.83 0 .37 1.141h1.2l-.97.706.37 1.14-.97-.705-.971.706.37-1.142-.97-.705h1.2zm3.831 0 .37 1.141h1.2l-.97.706.37 1.14-.97-.705-.971.706.37-1.142-.97-.705h1.2zm3.83 0 .37 1.141h1.2l-.97.706.37 1.14-.97-.705-.971.706.37-1.142-.97-.705h1.2zm3.83 0 .37 1.141h1.2l-.97.706.37 1.14-.97-.705-.971.706.37-1.142-.97-.705h1.2zm-11.491-3.985.37 1.142h1.2l-.97.705.37 1.141-.97-.705-.971.705.37-1.14-.97-.707h1.2zm3.831 0 .37 1.142h1.2l-.97.705.37 1.141-.97-.705-.971.705.37-1.14-.97-.707h1.2zm3.83 0 .37 1.142h1.2l-.97.705.37 1.141-.97-.705-.971.705.37-1.14-.97-.707h1.2zm3.83 0 .37 1.142h1.2l-.97.705.37 1.141-.97-.705-.971.705.37-1.14-.97-.707h1.2zm-7.66-3.984.37 1.141h1.2l-.97.706.37 1.141L28 8.37l-.971.705.37-1.141-.97-.706h1.2zm3.83 0 .37 1.141h1.2l-.97.706.37 1.141-.97-.705-.971.705.37-1.141-.97-.706h1.2zm3.83 0 .37 1.141h1.2l-.97.706.37 1.141-.97-.705-.971.705.37-1.141-.97-.706h1.2z"/></g><defs><clipPath id="a"><path fill="#fff" d="M0 0h56v56H0z"/></clipPath></defs></svg>