<svg xmlns="http://www.w3.org/2000/svg" width="56" height="56" fill="none" viewBox="0 0 56 56"><g clip-path="url(#a)"><path fill="#F0F0F0" d="M28 0c15.464 0 28 12.536 28 28S43.464 56 28 56c0-1.217-3.652-28-3.652-28z"/><path fill="#FFDA44" d="M28 56C12.536 56 0 43.464 0 28S12.536 0 28 0"/><path fill="#ACABB1" d="m38.722 24.365 5.262 6.961a3.653 3.653 0 1 0 1.942-1.468l-8.2-10.85-1.943 1.469-2.914 2.202 2.937 3.885zm7.575 8.003a1.218 1.218 0 1 1 1.469 1.942 1.218 1.218 0 0 1-1.469-1.942"/><path fill="#FFDA44" d="m47.747 26.564 2.937-3.885-2.914-2.202-1.942-1.468-8.201 10.849a3.653 3.653 0 1 0 1.942 1.468l5.262-6.961zm-10.254 7.51a1.217 1.217 0 1 1-1.943-1.468 1.217 1.217 0 0 1 1.943 1.467"/></g><defs><clipPath id="a"><path fill="#fff" d="M0 0h56v56H0z"/></clipPath></defs></svg>