<svg xmlns="http://www.w3.org/2000/svg" width="56" height="56" fill="none" viewBox="0 0 56 56"><g clip-path="url(#a)"><path fill="#FFDA44" d="M41.391 3.405A27.9 27.9 0 0 0 28 0a27.9 27.9 0 0 0-13.391 3.405L12.174 28l2.435 24.596A27.9 27.9 0 0 0 27.999 56c4.852 0 9.414-1.234 13.392-3.404L43.826 28z"/><path fill="#338AF3" d="M14.609 52.595V3.405C5.905 8.152 0 17.386 0 28s5.905 19.846 14.609 24.595"/><path fill="#6DA544" d="M56 28c0-10.613-5.905-19.847-14.608-24.596v49.191C50.095 47.846 56 38.613 56 28m-34.087 7.304L17.043 28l4.87-7.305L26.783 28zm12.173 0L29.216 28l4.87-7.305L38.956 28zM28 45.043l-4.87-7.304L28 30.435l4.87 7.304z"/></g><defs><clipPath id="a"><path fill="#fff" d="M0 0h56v56H0z"/></clipPath></defs></svg>