<svg xmlns="http://www.w3.org/2000/svg" width="56" height="56" fill="none" viewBox="0 0 56 56"><g clip-path="url(#a)"><path fill="#0052B4" d="M53.222 40.174A27.9 27.9 0 0 0 56 28c0-4.363-.998-8.492-2.778-12.174L28 13.392 2.778 15.826A27.9 27.9 0 0 0 0 28c0 4.363.998 8.493 2.778 12.174L28 42.61z"/><path fill="#D80027" d="M28 56c11.102 0 20.694-6.46 25.223-15.826H2.779C7.31 49.54 16.9 56 28.001 56"/><path fill="#F0F0F0" d="m48.493 33.497-1.479 1.156.642 1.763-1.556-1.05-1.48 1.156.518-1.804-1.556-1.05 1.876-.065.517-1.804.642 1.763zm-3.787-6.56-.994 1.592 1.206 1.437-1.82-.453-.995 1.591-.132-1.872-1.82-.454 1.74-.704-.131-1.872 1.206 1.438zm-5.801-4.869-.39 1.836 1.625.939-1.867.196-.39 1.836-.763-1.715-1.867.196 1.395-1.256-.763-1.714 1.625.938zm-7.119-2.589.261 1.858 1.849.326-1.687.823.261 1.858-1.304-1.35-1.687.823.881-1.657-1.303-1.35 1.848.326zm-7.573 0 .881 1.657 1.848-.326-1.303 1.35.88 1.657-1.686-.823-1.304 1.35.261-1.858-1.686-.823 1.848-.326zm-7.118 2.589 1.395 1.256 1.625-.938-.763 1.715 1.395 1.256-1.867-.197-.763 1.715-.39-1.836-1.867-.196 1.626-.939zm-5.801 4.87 1.74.703 1.206-1.438-.13 1.873 1.74.703-1.821.454-.131 1.872-.995-1.592-1.821.454 1.206-1.438zm-3.787 6.559 1.876.065.641-1.763.518 1.804 1.876.066-1.556 1.05.517 1.803L9.9 35.367l-1.556 1.049.642-1.764z"/><path fill="#FFDA44" d="M53.223 15.826C48.693 6.46 39.102 0 28 0S7.308 6.46 2.779 15.826z"/></g><defs><clipPath id="a"><path fill="#fff" d="M0 0h56v56H0z"/></clipPath></defs></svg>