<svg xmlns="http://www.w3.org/2000/svg" width="56" height="56" fill="none" viewBox="0 0 56 56"><g clip-path="url(#a)"><path fill="#0052B4" d="M56 28c0 15.464-12.536 28-28 28S0 43.464 0 28C0 28.007 28 .003 28 0c15.464 0 28 12.536 28 28"/><path fill="#F0F0F0" d="M27.925 28H28v-.075z"/><path fill="#F0F0F0" d="M28 14.609V0h-.005C12.533.003 0 12.538 0 28h14.609v-8.226L22.835 28h5.09l.075-.075v-5.09l-8.226-8.226z"/><path fill="#D80027" d="M14.166 3.652A28.13 28.13 0 0 0 3.652 14.166V28h7.305V10.957H28V3.652z"/><path fill="#FFDA44" d="m40.174 28-7.568 7.568a8.519 8.519 0 0 0 15.135 0z"/><path fill="#D80027" d="m28 24.557-9.948-9.948h-3.444L28 28z"/><path fill="#6DA544" d="M31.652 14.608V28c0 6.523 8.522 8.522 8.522 8.522s8.522-2 8.522-8.522V14.608z"/><path fill="#F0F0F0" d="M38.348 20.696H42v9.739h-3.652z"/><path fill="#A2001D" d="M40.174 22.522a1.826 1.826 0 1 0 0-3.652 1.826 1.826 0 0 0 0 3.652"/><path fill="#FFDA44" d="M34.087 17.044h2.435v2.434h-2.435zm0 5.478h2.435v2.434h-2.435zm0 5.478h2.435v2.435h-2.435zm9.739-10.956h2.435v2.434h-2.435zm0 5.478h2.435v2.435h-2.435zm0 5.478h2.435v2.435h-2.435z"/></g><defs><clipPath id="a"><path fill="#fff" d="M0 0h56v56H0z"/></clipPath></defs></svg>