<svg xmlns="http://www.w3.org/2000/svg" width="56" height="56" fill="none" viewBox="0 0 56 56"><g clip-path="url(#a)"><path fill="#000" d="M56 28q-.002-1.858-.237-3.652H24.348L8.2 8.201c-10.935 10.935-10.935 28.663 0 39.598l16.147-16.147h31.415Q55.999 29.858 56 28"/><path fill="#F0F0F0" d="m55.992 28.637-.004.162zm-.027.764-.009.16zm-.037.612-.018.235q.01-.117.018-.235m-.094-5.065.03.281zm.122 1.49.01.16zm.032.763.004.162zm-.078-1.449q.01.117.018.236-.008-.119-.018-.236"/><path fill="#D80027" d="m55.763 24.348.036.288C54.137 10.76 42.326 0 28 0 20.268 0 13.268 3.134 8.201 8.201l16.147 16.147z"/><path fill="#6DA544" d="M55.763 31.652H24.348L8.2 47.798C13.268 52.865 20.268 56 28.001 56c14.325 0 26.136-10.759 27.798-24.637q-.017.145-.036.289"/><path fill="#F0F0F0" d="m55.864 30.77-.03.282z"/><path fill="#FFDA44" d="M55.974 26.773H23.319L6.546 10.002c-.542.572-1.13 1.37-1.493 1.939l16.04 16.05L5.04 44.044c.318.565 1.01 1.402 1.497 1.947L23.32 29.208h32.658q.024-.606.022-1.218c0-.546-.015-.95-.026-1.217"/><path fill="#FFDA44" d="M6.802 33.969v-2.346a4.25 4.25 0 0 0 4.244-4.244 3.006 3.006 0 0 0-3.003-3.003 2.05 2.05 0 0 0-2.046 2.046 1.31 1.31 0 0 0 1.309 1.308.74.74 0 0 0 .739-.74h2.345a3.09 3.09 0 0 1-3.084 3.085 3.657 3.657 0 0 1-3.654-3.653 4.396 4.396 0 0 1 4.391-4.39 5.35 5.35 0 0 1 5.348 5.347 6.597 6.597 0 0 1-6.59 6.59"/></g><defs><clipPath id="a"><path fill="#fff" d="M0 0h56v56H0z"/></clipPath></defs></svg>