<svg xmlns="http://www.w3.org/2000/svg" width="56" height="56" fill="none" viewBox="0 0 56 56"><g clip-path="url(#a)"><path fill="#D80027" d="M56 28c0 15.464-12.536 28-28 28S0 43.464 0 28L28 0c15.464 0 28 12.536 28 28"/><path fill="#0052B4" d="M28 28V0C12.536 0 0 12.536 0 28z"/><path fill="#F0F0F0" d="m22.428 18.26.453 1.396h1.467l-1.187.862.454 1.395-1.187-.862-1.187.862.454-1.395-1.187-.862h1.467zM15.06 7.304l.755 2.325h2.445l-1.978 1.437.755 2.325-1.977-1.437-1.978 1.437.755-2.325-1.978-1.437h2.445zm7.304 2.435.756 2.325h2.444l-1.978 1.437.756 2.325-1.978-1.437-1.978 1.437.756-2.325-1.978-1.437h2.445zm-5.774 9.739.756 2.325h2.445l-1.978 1.437.756 2.325-1.978-1.437-1.978 1.437.755-2.325-1.977-1.437h2.444zm-6.4-6.087.756 2.325h2.444l-1.978 1.437.756 2.325-1.978-1.437-1.977 1.437.755-2.325-1.978-1.437h2.445z"/></g><defs><clipPath id="a"><path fill="#fff" d="M0 0h56v56H0z"/></clipPath></defs></svg>