<svg xmlns="http://www.w3.org/2000/svg" width="56" height="56" fill="none" viewBox="0 0 56 56"><g clip-path="url(#a)"><path fill="#F0F0F0" d="M28 56c15.464 0 28-12.536 28-28S43.464 0 28 0 0 12.536 0 28s12.536 28 28 28"/><path fill="#000" d="M8.201 47.8c-10.935-10.936-10.935-28.665 0-39.6L24.348 28z"/><path fill="#FFDA44" d="M24.347 28 3.713 14.056a28 28 0 0 0-1.689 3.474L12.471 28 2.025 38.47q.727 1.802 1.687 3.472z"/><path fill="#6DA544" d="M55.763 24.348H24.348L8.2 8.2a28 28 0 0 0-4.487 5.855L17.631 28 3.713 41.942A28 28 0 0 0 8.2 47.798l16.147-16.146h31.415a28.3 28.3 0 0 0 0-7.304"/><path fill="#0052B4" d="M10.952 50.212A27.88 27.88 0 0 0 28 56c12.936 0 23.822-8.774 27.035-20.695H25.859z"/><path fill="#D80027" d="M55.035 20.696C51.822 8.774 40.936 0 28 0a27.88 27.88 0 0 0-17.048 5.788L25.86 20.696z"/></g><defs><clipPath id="a"><path fill="#fff" d="M0 0h56v56H0z"/></clipPath></defs></svg>