<svg xmlns="http://www.w3.org/2000/svg" width="56" height="56" fill="none" viewBox="0 0 56 56"><g clip-path="url(#a)"><path fill="#496E2D" d="M28 56c15.464 0 28-12.536 28-28S43.464 0 28 0 0 12.536 0 28s12.536 28 28 28"/><path fill="#D80027" d="M38.957 28H28v28c3.273 0 6.414-.563 9.333-1.595z"/><path fill="#FF9811" d="M46.666 48.868C52.394 43.741 56 36.292 56 28H45.043z"/><path fill="#000" d="M37.334 28v26.405a28 28 0 0 0 9.333-5.537V28z"/><path fill="#FF9811" d="M51.74 18.261h-7.304a2.435 2.435 0 0 0-4.87 0h-7.304c0 1.345 1.171 2.435 2.516 2.435h-.081a2.435 2.435 0 0 0 2.434 2.435 2.435 2.435 0 0 0 2.435 2.434h4.87a2.435 2.435 0 0 0 2.435-2.434 2.435 2.435 0 0 0 2.434-2.435h-.08c1.344 0 2.515-1.09 2.515-2.435"/></g><defs><clipPath id="a"><path fill="#fff" d="M0 0h56v56H0z"/></clipPath></defs></svg>