<svg xmlns="http://www.w3.org/2000/svg" width="56" height="56" fill="none" viewBox="0 0 56 56"><g clip-path="url(#a)"><path fill="#F0F0F0" d="M28 56c15.464 0 28-12.536 28-28S43.464 0 28 0 0 12.536 0 28s12.536 28 28 28"/><path fill="#FFDA44" d="M53.32 16.035a28.1 28.1 0 0 0-5.71-8.018L28 6.087 8.389 8.017l-.186.187 7.831 7.83L28 16.4zM8.203 47.797l.31.308L28 49.913l19.486-1.808a28.1 28.1 0 0 0 5.777-8.018l-36.22-1.13z"/><path fill="#000" d="m55.722 24.052-32.591-.922L28 28l-4.87 4.87 32.574-.8a28.2 28.2 0 0 0 .017-8.018"/><path fill="#6DA544" d="M28 0C20.362 0 13.44 3.06 8.389 8.017H47.61C42.559 3.06 35.637 0 28 0"/><path fill="#D80027" d="M24.053 24.052h31.669a27.8 27.8 0 0 0-2.402-8.017H16.035zm-8.14 16.035h37.35a27.8 27.8 0 0 0 2.442-8.017H23.93z"/><path fill="#6DA544" d="M28 56a27.9 27.9 0 0 0 19.486-7.895H8.514A27.9 27.9 0 0 0 28 56"/><path fill="#000" d="M9.999 6.555A28 28 0 0 0 8.2 8.201L28.001 28 8.2 47.799a28 28 0 0 0 1.8 1.646L31.443 28z"/><path fill="#D80027" d="m11.257 20.696 1.813 5.58h5.868l-4.747 3.448 1.813 5.58-4.747-3.448-4.747 3.449 1.814-5.58-4.747-3.45h5.867z"/><path fill="#FFDA44" d="m16.245 28.457-4.725-1.674s-.349-3.275-.37-3.386a1.827 1.827 0 1 0-3.554.825l-1.325 1.333h2.356c0 2.445-1.824 2.445-1.824 4.88l1.012 2.435h6.087l1.014-2.435q.151-.353.188-.715c.875-.354 1.141-1.263 1.141-1.263"/></g><defs><clipPath id="a"><path fill="#fff" d="M0 0h56v56H0z"/></clipPath></defs></svg>