<svg xmlns="http://www.w3.org/2000/svg" width="368" height="142" fill="none" viewBox="0 0 368 142"><g clip-path="url(#a)"><rect width="368" height="142" fill="#DCE2F7" rx="12"/><mask id="b" fill="#fff"><path d="M58 42c0-8.837 7.163-16 16-16h220c8.837 0 16 7.163 16 16v107c0 8.837-7.163 16-16 16H74c-8.837 0-16-7.163-16-16z"/></mask><path fill="#F6F8FE" d="M58 42c0-8.837 7.163-16 16-16h220c8.837 0 16 7.163 16 16v107c0 8.837-7.163 16-16 16H74c-8.837 0-16-7.163-16-16z"/><path fill="#242E39" d="M53 42c0-11.598 9.402-21 21-21h220c11.598 0 21 9.402 21 21h-10c0-6.075-4.925-11-11-11H74c-6.075 0-11 4.925-11 11zm257 123H58zm-236 0c-11.598 0-21-9.402-21-21V42c0-11.598 9.402-21 21-21v10c-6.075 0-11 4.925-11 11v107c0 8.837 4.925 16 11 16M294 21c11.598 0 21 9.402 21 21v102c0 11.598-9.402 21-21 21 6.075 0 11-7.163 11-16V42c0-6.075-4.925-11-11-11z" mask="url(#b)"/><path fill="url(#c)" d="M179.84 79.294c1.755-3.058 6.145-3.059 7.901 0l22.221 38.705c1.756 3.058-.439 6.881-3.95 6.881h-44.444c-3.511 0-5.706-3.823-3.95-6.881z"/><rect width="3.42" height="14.82" x="182.08" y="94.1" fill="#fff" rx="1.71"/><circle cx="183.79" cy="115.19" r="1.71" fill="#fff"/><path stroke="#242E39" stroke-width="2" d="M58 60h252"/><rect width="44" height="8" x="74" y="42" fill="#D7DDE4" rx="4"/><circle cx="262" cy="46" r="4" fill="#D7DDE4"/><circle cx="276" cy="46" r="4" fill="#D7DDE4"/><circle cx="290" cy="46" r="4" fill="#D7DDE4"/></g><defs><linearGradient id="c" x1="183.79" x2="183.79" y1="77" y2="124.88" gradientUnits="userSpaceOnUse"><stop stop-color="#EA5C44"/><stop offset="1" stop-color="#D2513B"/></linearGradient><clipPath id="a"><rect width="368" height="142" fill="#fff" rx="12"/></clipPath></defs></svg>