<svg xmlns="http://www.w3.org/2000/svg" width="24" height="24" fill="none" viewBox="0 0 24 24"><g fill="#fff" fill-rule="evenodd" clip-path="url(#a)" clip-rule="evenodd"><path d="M6.98 9.544A2.75 2.75 0 0 1 9.692 7.25h4.616c1.343 0 2.49.97 2.712 2.294l1.617 9.628a2.75 2.75 0 0 1 2.412 2.215l.073.376a1.25 1.25 0 0 1-1.227 1.487H4.105a1.25 1.25 0 0 1-1.227-1.487l.073-.376a2.75 2.75 0 0 1 2.412-2.215zm-.093 9.613h10.227L15.54 9.793a1.25 1.25 0 0 0-1.233-1.043H9.692c-.61 0-1.131.44-1.232 1.043zm11.462 1.5H5.651a1.25 1.25 0 0 0-1.227 1.014l-.015.079h15.183l-.015-.08a1.25 1.25 0 0 0-1.228-1.013"/><path d="M7.712 9.657 6 19.5h12l-1.712-9.843A2 2 0 0 0 14.318 8H9.682a2 2 0 0 0-1.97 1.657M12.75 12a.75.75 0 0 0-1.5 0v5.5h1.5zM12 .5a.75.75 0 0 1 .75.75v3.5a.75.75 0 0 1-1.5 0v-3.5A.75.75 0 0 1 12 .5m6.75 12.75a.75.75 0 0 1 .75-.75H23a.75.75 0 0 1 0 1.5h-3.5a.75.75 0 0 1-.75-.75m2.78-9.78a.75.75 0 0 1 0 1.06l-2.5 2.5a.75.75 0 1 1-1.06-1.06l2.5-2.5a.75.75 0 0 1 1.06 0m-19.06 0a.75.75 0 0 0 0 1.06l2.5 2.5a.75.75 0 0 0 1.06-1.06l-2.5-2.5a.75.75 0 0 0-1.06 0M.25 13.25A.75.75 0 0 1 1 12.5h3.5a.75.75 0 0 1 0 1.5H1a.75.75 0 0 1-.75-.75"/></g><defs><clipPath id="a"><path fill="#fff" d="M0 0h24v24H0z"/></clipPath></defs></svg>