<svg xmlns="http://www.w3.org/2000/svg" width="24" height="24" fill="none" viewBox="0 0 24 24"><g fill="#fff" fill-rule="evenodd" clip-path="url(#a)" clip-rule="evenodd"><path d="M6.98 9.544A2.75 2.75 0 0 1 9.692 7.25h4.616c1.343 0 2.49.97 2.712 2.294l1.617 9.631a2.75 2.75 0 0 1 2.392 2.256l.106.602a1.25 1.25 0 0 1-1.23 1.467H4.094a1.25 1.25 0 0 1-1.23-1.466l.105-.603a2.75 2.75 0 0 1 2.392-2.256zm-.094 9.613h10.228L15.54 9.793a1.25 1.25 0 0 0-1.233-1.043H9.692c-.61 0-1.132.44-1.233 1.043zm11.435 1.5H5.679a1.25 1.25 0 0 0-1.231 1.034L4.393 22h15.214l-.055-.31a1.25 1.25 0 0 0-1.231-1.033"/><path d="M12 11.25a.75.75 0 0 1 .75.75v5.5h-1.5V12a.75.75 0 0 1 .75-.75M12 .5a.75.75 0 0 1 .75.75v3.5a.75.75 0 0 1-1.5 0v-3.5A.75.75 0 0 1 12 .5m6.75 12.75a.75.75 0 0 1 .75-.75H23a.75.75 0 0 1 0 1.5h-3.5a.75.75 0 0 1-.75-.75m2.78-9.78a.75.75 0 0 1 0 1.06l-2.5 2.5a.75.75 0 1 1-1.06-1.06l2.5-2.5a.75.75 0 0 1 1.06 0m-19.06 0a.75.75 0 0 0 0 1.06l2.5 2.5a.75.75 0 0 0 1.06-1.06l-2.5-2.5a.75.75 0 0 0-1.06 0M.25 13.25A.75.75 0 0 1 1 12.5h3.5a.75.75 0 0 1 0 1.5H1a.75.75 0 0 1-.75-.75"/></g><defs><clipPath id="a"><path fill="#fff" d="M0 0h24v24H0z"/></clipPath></defs></svg>