<svg xmlns="http://www.w3.org/2000/svg" width="16" height="16" fill="none" viewBox="0 0 16 16"><g clip-path="url(#a)"><path fill="#fff" d="M8 1.113c.637 0 1.23.312 1.594.832l.07.106 5.41 9.032a1.942 1.942 0 0 1-1.539 2.909l-.13.005H2.59a1.943 1.943 0 0 1-1.722-2.8l.066-.123L6.34 2.049A1.94 1.94 0 0 1 8 1.113"/><path fill="#DE4558" d="m7.885 10.265.12-.007.11.007a.944.944 0 0 1 .835.943.95.95 0 0 1-.834.943l-.12.007-.111-.007a.945.945 0 0 1-.834-.943.95.95 0 0 1 .834-.944m-.451-5.716a.846.846 0 0 1 1.403.533l.006.1v3.384l-.006.1a.846.846 0 0 1-1.68 0l-.007-.1V5.18l.006-.099a.85.85 0 0 1 .278-.533"/></g><defs><clipPath id="a"><path fill="#fff" d="M0 0h16v16H0z"/></clipPath></defs></svg>