<svg xmlns="http://www.w3.org/2000/svg" width="241" height="120" fill="none" viewBox="0 0 241 120"><g clip-path="url(#a)"><path fill="#DBE2F9" stroke="#757896" stroke-linecap="round" stroke-linejoin="round" d="M16.25 89.671v-32.3a2.93 2.93 0 0 1 2.92-2.93h53.61a2.93 2.93 0 0 1 2.92 2.93v32.3a2.93 2.93 0 0 1-2.93 2.92H19.18a2.93 2.93 0 0 1-2.56-1.5c-.03-.05-.05-.1-.08-.16l-.03-.06c-.03-.06-.06-.13-.08-.19-.04-.09-.07-.18-.09-.28-.02-.07-.03-.15-.05-.23-.01-.08-.03-.16-.03-.24v-.02c0-.08-.01-.16-.01-.24"/><path fill="#DBE2F9" stroke="#757896" stroke-linecap="round" stroke-linejoin="round" d="M38.16 54.453h34.63c1.62 0 2.93 1.31 2.93 2.93v32.3c0 .69-.24 1.32-.64 1.82z"/><path fill="#DBE2F9" stroke="#757896" stroke-linecap="round" stroke-linejoin="round" d="M16.25 89.671v-32.3a2.93 2.93 0 0 1 2.92-2.93H53.8l-17.39 17.45-19.52 19.61c-.05-.06-.1-.13-.14-.19-.05-.07-.09-.14-.13-.21-.03-.05-.05-.1-.08-.16l-.03-.06c-.03-.06-.06-.13-.08-.19-.04-.09-.07-.18-.09-.28-.02-.07-.03-.15-.05-.23-.01-.08-.03-.16-.03-.24v-.02c0-.08-.01-.16-.01-.24z"/><path fill="#DBE2F9" stroke="#757896" stroke-linecap="round" stroke-linejoin="round" d="M18.34 54.573c.26-.08.54-.12.83-.12h53.61c.29 0 .57.04.83.12l-25.88 24.83c-.98.94-2.53.94-3.51 0l-7.81-7.49z"/><path fill="#fff" stroke="#757896" stroke-linecap="round" stroke-linejoin="round" d="M175.66 15.352H71.41a4.23 4.23 0 0 0-4.23 4.23v82.49a4.23 4.23 0 0 0 4.23 4.23h104.25a4.23 4.23 0 0 0 4.23-4.23v-82.49a4.23 4.23 0 0 0-4.23-4.23"/><path stroke="#757896" stroke-linecap="round" stroke-linejoin="round" d="M105.86 85.164H83.02m81.018.008h-53.39m30.551 7.672h22.84m-81.019 0h53.39m16.021-15.352h-57.81"/><path fill="#6E7191" d="M158.23 33.65V20.98h2.91v12.67zm5.372 0V20.98h4.15c1.34 0 2.53.27 3.56.81s1.84 1.29 2.42 2.24.87 2.04.87 3.29-.29 2.32-.87 3.28c-.58.95-1.38 1.7-2.42 2.24-1.03.54-2.22.81-3.56.81zm2.92-2.76h1.23c.55 0 1.07-.09 1.54-.26s.88-.42 1.23-.74q.525-.48.81-1.14c.19-.44.29-.92.29-1.44s-.1-1-.29-1.44-.47-.82-.81-1.14c-.35-.32-.76-.57-1.23-.74-.47-.18-.98-.26-1.54-.26h-1.23v7.17z"/><path fill="#DBE2F9" fill-rule="evenodd" d="M142.91 48.452c0 5.37-2.14 10.24-5.61 13.81-.53.55-1.09 1.06-1.68 1.54-.33.27-.66.52-1.01.77-.4.28-.81.55-1.24.81-2.8 1.7-6.06 2.73-9.55 2.85-.23 0-.47.01-.7.01s-.47 0-.7-.01a19.6 19.6 0 0 1-9.55-2.85q-.63-.39-1.23-.81-.525-.375-1.02-.78c-.59-.48-1.15-.99-1.68-1.54-3.47-3.56-5.6-8.42-5.6-13.8 0-10.93 8.86-19.8 19.79-19.8s19.79 8.87 19.79 19.8z" clip-rule="evenodd"/><path fill="#6E7191" d="M123.119 51.524a7.92 7.92 0 1 0 0-15.84 7.92 7.92 0 0 0 0 15.84m14.171 10.739c-.53.55-1.09 1.06-1.68 1.54-.33.27-.66.52-1.01.77-.4.28-.81.55-1.24.81-2.8 1.7-6.06 2.73-9.55 2.85-.23 0-.47.01-.7.01s-.47 0-.7-.01a19.6 19.6 0 0 1-9.55-2.85q-.63-.39-1.23-.81-.525-.375-1.02-.78c-.59-.48-1.15-.99-1.68-1.54.28-.64.63-1.34 1.06-2.09 3.11-5.46 7.59-5.46 13.12-5.46s10.02 0 13.12 5.46q.645 1.125 1.05 2.1z"/><path fill="#fff" stroke="#757896" stroke-linecap="round" stroke-linejoin="round" d="M76.881 65.71h-.04c-.06 0-.11 0-.19-.02-3.39-.42-20.87-8.31-22.89-29.76-.55-5.89-.21-18.67-.03-21 .1-1.34 1.02-2.4 2.28-2.83l17.15-5.75c1.21-.41 2.46-.6 3.71-.6s2.51.19 3.71.6l17.14 5.75c1.26.43 2.18 1.49 2.28 2.83.18 2.33.53 15.12-.03 21-2.28 21.42-19.51 29.33-22.89 29.76-.07 0-.13.02-.19.02z"/><path fill="#DBE2F9" fill-rule="evenodd" d="M95.21 35.64c-.96 8.97-5.03 15.05-9.17 18.96-2.09 1.95-4.2 3.35-5.94 4.29-1.64.88-2.79 1.24-3.23 1.35-.44-.1-1.6-.48-3.23-1.35-1.73-.93-3.85-2.33-5.93-4.29-4.15-3.91-8.22-9.99-9.17-18.96-.55-5.04-.19-16.5-.02-18.5 0-.08.02-.12.08-.18.04-.04.12-.12.26-.16l15.47-5.2c.82-.26 1.66-.4 2.51-.4h.04c.86 0 1.7.14 2.53.4l15.47 5.2c.14.04.22.12.26.16.04.06.06.1.08.18.08 1.24.4 13.4 0 18.5z" clip-rule="evenodd"/><path stroke="#757896" stroke-linecap="round" stroke-linejoin="round" d="m67.18 31.42 7.13 8.87 14.13-16"/><path fill="#DBE2F9" stroke="#757896" stroke-linecap="round" stroke-linejoin="round" d="m166.128 74.632 7.08-.05-.09-13.43c-.04-6.86 5.5-12.49 12.37-12.53 6.86-.04 12.49 5.5 12.53 12.37l.09 13.43 7.08-.05-.09-13.43c-.07-10.77-8.89-19.48-19.66-19.41s-19.48 8.89-19.41 19.66l.09 13.43z"/><path fill="#fff" stroke="#757896" stroke-linecap="round" stroke-linejoin="round" d="m163.869 113.443 44.08-.29c3.63-.02 6.54-2.98 6.52-6.61l-.2-31.32c-.02-3.63-2.98-6.54-6.61-6.52l-44.08.29c-3.63.02-6.54 2.98-6.52 6.61l.2 31.32c.02 3.63 2.98 6.54 6.61 6.52"/><path fill="#ABB6DB" d="M191.298 88.462c.01 2-1.02 3.78-2.6 4.79l.02 3a3.015 3.015 0 1 1-6.03.04l-.02-3a5.63 5.63 0 0 1-2.66-4.76 5.64 5.64 0 0 1 5.61-5.68 5.64 5.64 0 0 1 5.68 5.61"/></g><defs><clipPath id="a"><path fill="#fff" d="M15.5 5h199.72v109.19H15.5z"/></clipPath></defs></svg>