<svg xmlns="http://www.w3.org/2000/svg" width="24" height="24" fill="none" viewBox="0 0 24 24"><g clip-path="url(#a)"><path stroke="#fff" stroke-linecap="round" stroke-linejoin="round" stroke-width="1.5" d="M18.667 17h.666c.708 0 1.386-.277 1.886-.769s.781-1.16.781-1.856v-8.75c0-.696-.281-1.364-.781-1.856A2.7 2.7 0 0 0 19.333 3H8.667c-.708 0-1.386.277-1.886.769S6 4.929 6 5.625V7"/><path fill="#fff" fill-rule="evenodd" d="M2.255 7.234a3.44 3.44 0 0 1 2.412-.984h10.666c.903 0 1.77.353 2.412.984a3.35 3.35 0 0 1 1.005 2.391v8.75c0 .899-.363 1.759-1.005 2.39a3.44 3.44 0 0 1-2.412.985H4.667a3.44 3.44 0 0 1-2.412-.984 3.35 3.35 0 0 1-1.005-2.391v-8.75c0-.899.363-1.759 1.005-2.39M9.25 10a.75.75 0 0 1 .75-.75h5a.75.75 0 0 1 0 1.5h-5a.75.75 0 0 1-.75-.75m.75 3.25a.75.75 0 0 0 0 1.5h5a.75.75 0 0 0 0-1.5zM3.25 18a.75.75 0 0 1 .75-.75h11a.75.75 0 0 1 0 1.5H4a.75.75 0 0 1-.75-.75m.659-4.659a2.25 2.25 0 1 1 3.182-3.182A2.25 2.25 0 0 1 3.91 13.34" clip-rule="evenodd"/></g><defs><clipPath id="a"><path fill="#fff" d="M0 0h24v24H0z"/></clipPath></defs></svg>