<svg xmlns="http://www.w3.org/2000/svg" width="24" height="24" fill="none" viewBox="0 0 24 24"><g stroke="#fff" stroke-linecap="round" stroke-linejoin="round" stroke-width="1.5" clip-path="url(#a)"><path d="M2 9.625a2.6 2.6 0 0 1 .781-1.856A2.7 2.7 0 0 1 4.667 7h10.666c.708 0 1.386.277 1.886.769S18 8.929 18 9.625v8.75c0 .696-.281 1.364-.781 1.856S16.041 21 15.333 21H4.667a2.7 2.7 0 0 1-1.886-.769A2.6 2.6 0 0 1 2 18.375z"/><path d="M18.667 17h.666c.708 0 1.386-.277 1.886-.769s.781-1.16.781-1.856v-8.75c0-.696-.281-1.364-.781-1.856A2.7 2.7 0 0 0 19.333 3H8.667c-.708 0-1.386.277-1.886.769S6 4.929 6 5.625V7m-1 5a2 2 0 1 0 4 0 2 2 0 0 0-4 0m7-2h2m-2 4h2m-9 4h10"/></g><defs><clipPath id="a"><path fill="#fff" d="M0 0h24v24H0z"/></clipPath></defs></svg>