<svg xmlns="http://www.w3.org/2000/svg" width="241" height="120" fill="none" viewBox="0 0 241 120"><mask id="a" width="240" height="120" x="1" y="0" maskUnits="userSpaceOnUse" style="mask-type:alpha"><path fill="#D9D9D9" d="M1 0h240v120H1z"/></mask><g mask="url(#a)"><path fill="#DBE2F9" stroke="#6E7191" stroke-miterlimit="10" d="M174.666 114.89H69.496V49.169A3.17 3.17 0 0 1 72.665 46h98.833a3.17 3.17 0 0 1 3.168 3.169z"/><path fill="#fff" stroke="#6E7191" stroke-miterlimit="10" d="M170.939 111.883H73.773V49.921c0-.453.368-.821.821-.821h95.526c.453 0 .821.368.821.82v61.963z"/><path fill="#4DADEA" d="m114.074 86.78 6.777.934v-6.468h-6.777zm0-6.369h6.777v-6.548l-6.777.934zm7.524 7.402 9.011 1.242v-7.81h-9.011zm0-14.049v6.647h9.011v-7.889z"/><path fill="#DBE2F9" stroke="#6E7191" stroke-miterlimit="10" d="M182.042 119.579H62.429a1.613 1.613 0 0 1-1.613-1.612v-3.077h122.836v3.077c0 .89-.721 1.612-1.61 1.612Z"/><path fill="#6E7191" d="M132.323 116.151h-20.178v1.085h20.178z"/><path fill="#F5F8FF" stroke="#6E7191" stroke-miterlimit="10" d="M76.32 119.475a31.32 31.32 0 0 1-16.668-27.682V85.16l16.669-7.842 16.668 7.842v6.633a31.32 31.32 0 0 1-16.668 27.682Z"/><path fill="#6E7191" d="M78.943 96.59c0-1.307-1.08-2.368-2.41-2.368-1.332 0-2.412 1.06-2.412 2.368 0 .749.354 1.414.906 1.85l-.652 4.049h4.356l-.658-4.078a2.34 2.34 0 0 0 .87-1.82m75.776-17.219h.345v-4.59h-.345c-.191 0-.344.136-.344.3v3.988c0 .167.153.302.344.302m0 6.318h.345V81.1h-.345c-.191 0-.344.136-.344.3v3.987c-.003.167.153.303.344.303"/><path fill="#fff" stroke="#6E7191" stroke-linecap="round" stroke-linejoin="round" stroke-miterlimit="10" d="M157.695 114.2h22.986c1.263 0 2.285-1.109 2.285-2.473V61.562c0-1.367-1.025-2.473-2.285-2.473h-22.986c-1.263 0-2.285 1.109-2.285 2.473v50.165c-.002 1.367 1.022 2.473 2.285 2.473"/><circle cx="166.946" cy="62.0167" r="0.516667" fill="#6E7191"/><rect width="4.47778" height="1.03333" x="168.152" y="61.5" fill="#6E7191" rx="0.516667"/><path fill="#78C257" d="M171.713 85.267h-4.593a.23.23 0 0 0-.229.23v3.674c0 .554.395 1.018.918 1.125v1.17a.69.69 0 0 0 1.378 0V90.32h.459v1.148a.69.69 0 0 0 1.378 0v-1.171a1.15 1.15 0 0 0 .918-1.126v-3.673a.23.23 0 0 0-.229-.23m-1.095-2.911.387-.903a.23.23 0 1 0-.422-.18l-.387.903a2.5 2.5 0 0 0-1.559 0l-.388-.904a.23.23 0 0 0-.301-.12.23.23 0 0 0-.12.3l.387.904a2.53 2.53 0 0 0-1.324 2.221c0 .127.102.23.229.23h4.593a.23.23 0 0 0 .229-.23c0-.958-.536-1.793-1.324-2.221m-2.12 1.532a.23.23 0 1 1 0-.46.23.23 0 0 1 0 .46m1.837 0a.23.23 0 1 1 0-.46.23.23 0 0 1 0 .46m2.756 1.378a.69.69 0 0 0-.689.689v2.296a.69.69 0 0 0 1.378 0v-2.296a.69.69 0 0 0-.689-.689m-7.347 0a.69.69 0 0 0-.689.689v2.296a.69.69 0 0 0 1.377 0v-2.296a.69.69 0 0 0-.688-.689"/><path stroke="#3B5FCA" stroke-miterlimit="10" d="M47.63 113.52a81.3 81.3 0 0 1-6.025-26.95C39.33 41.51 74.153 3.141 119.384.874c45.232-2.268 83.744 32.423 86.012 77.483a82 82 0 0 1-.445 13.636"/><path fill="url(#b)" d="M123.5 162.36c45.287 0 82-36.346 82-81.18S168.787 0 123.5 0s-82 36.346-82 81.18 36.713 81.18 82 81.18" opacity="0.4"/></g><defs><linearGradient id="b" x1="130.223" x2="112.242" y1="140.303" y2="-21.0932" gradientUnits="userSpaceOnUse"><stop stop-color="#fff" stop-opacity="0"/><stop offset="0.4085" stop-color="#E0E6FA" stop-opacity="0.4085"/><stop offset="0.7603" stop-color="#CCD7F7" stop-opacity="0.7603"/><stop offset="1" stop-color="#C5D1F6"/></linearGradient></defs></svg>