<svg xmlns="http://www.w3.org/2000/svg" width="16" height="16" fill="none" viewBox="0 0 16 16"><path fill="#3066FF" fill-rule="evenodd" d="M9 2.5a.75.75 0 0 1 .75-.75h3.75a.75.75 0 0 1 .75.75v3.75a.75.75 0 1 1-1.5 0v-3h-3A.75.75 0 0 1 9 2.5" clip-rule="evenodd"/><path fill="#3066FF" fill-rule="evenodd" d="M14.028 1.972a.75.75 0 0 1 0 1.06l-4.5 4.5a.75.75 0 0 1-1.06-1.06l4.5-4.5a.75.75 0 0 1 1.06 0" clip-rule="evenodd"/><path fill="#3066FF" fill-rule="evenodd" d="M3.25 5.25H7a.75.75 0 0 0 0-1.5H3A1.25 1.25 0 0 0 1.75 5v8A1.25 1.25 0 0 0 3 14.25h8A1.25 1.25 0 0 0 12.25 13V9a.75.75 0 0 0-1.5 0v3.75h-7.5z" clip-rule="evenodd"/></svg>