<svg xmlns="http://www.w3.org/2000/svg" width="241" height="120" fill="none" viewBox="0 0 241 120"><g clip-path="url(#a)"><path fill="#ABB6DB" stroke="#4D4B66" stroke-linecap="round" stroke-linejoin="round" d="m96.973 96.664 4.567 19.881h41.901l-4.561-19.88z"/><path fill="#ABB6DB" stroke="#4D4B66" stroke-linecap="round" stroke-linejoin="round" d="M90.506 119.974c-.092-.237-.1-.365-.1-.627 0-1.545 1.715-2.804 3.816-2.804h53.842c1.047 0 2.003.315 2.698.821.689.51 1.118 1.214 1.118 1.983 0 .262-.015.413-.106.651z"/><path fill="#ABB6DB" stroke="#4D4B66" stroke-linecap="round" stroke-linejoin="round" d="M139.799 116.544H97.894L93.33 96.666h41.904z"/><path fill="#DBE2F9" stroke="#4D4B66" stroke-linecap="round" stroke-linejoin="round" d="M86.865 119.974c-.091-.237-.1-.365-.1-.627 0-1.545 1.715-2.804 3.816-2.804h53.843c1.046 0 2.002.315 2.697.821.689.51 1.118 1.214 1.118 1.983 0 .262-.014.413-.106.651z"/><path fill="#ABB6DB" stroke="#4D4B66" stroke-linecap="round" stroke-linejoin="round" d="M41.672 96.663h143.786c3.59 0 6.7-2.855 7.538-6.924l2.702-13.177 12.831-62.373c1.487-7.296.469-9.37-6.761-13.392L57.193 3.049c-3.577 0-6.694 2.875-7.524 6.924L35.975 76.562l-3.596 12.194c3.548 7.553 4.273 7.906 9.293 7.906"/><path fill="#fff" stroke="#4D4B66" stroke-linecap="round" stroke-miterlimit="10" d="M33.559 73.51h159.724l12.831-62.37C207.276 5.462 203.582 0 198.577 0H54.779c-3.58 0-6.698 2.872-7.526 6.926z"/><path fill="#DBE2F9" stroke="#4D4B66" stroke-linecap="round" stroke-linejoin="round" d="M186.817 116.403s-13.687-14.049-24.233-2.382c0 0 1.907 4.273 6.507 3.651s17.726-1.269 17.726-1.269M39.256 93.615h143.787c3.59 0 6.697-2.858 7.538-6.925l2.704-13.18H33.56l-1.841 8.966c-1.174 5.677 2.52 11.14 7.537 11.14"/><path fill="#fff" stroke="#4D4B66" stroke-linecap="round" stroke-miterlimit="10" d="M104.451 84.049c0 2.702 1.993 4.707 4.451 4.707s4.803-2.005 5.279-4.707c.529-2.996-1.401-5.674-4.364-5.674s-5.366 2.678-5.366 5.674Z"/><path fill="#ABB6DB" stroke="#4D4B66" stroke-linecap="round" stroke-linejoin="round" d="m184.642 119.959 2.175-3.556s-7.301-4.737-12.116-2.157c-4.816 2.58-10.408 2.132-12.117-.224l2.175 5.978z"/><path fill="#DBE2F9" stroke="#4D4B66" stroke-linecap="round" stroke-linejoin="round" d="M74.753 66.074H44.55c-1.083 0-1.78-.878-1.559-1.961l3.433-16.737c.222-1.084 1.28-1.962 2.364-1.962H78.99c1.084 0 1.781.878 1.56 1.962l-3.433 16.737c-.223 1.083-1.28 1.96-2.364 1.96"/><path fill="#fff" stroke="#4D4B66" stroke-linecap="round" stroke-linejoin="round" d="M44.867 54.961h34.124l.921-4.488H45.788z"/><path fill="#ABB6DB" stroke="#4D4B66" stroke-linecap="round" stroke-linejoin="round" d="M73.064 62.762h-9.439c-.58 0-.954-.47-.835-1.051.119-.58.686-1.05 1.266-1.05h9.44c.58 0 .954.47.835 1.05-.12.58-.686 1.05-1.267 1.05m-13.25.001h-2.67c-.58 0-.954-.47-.835-1.051.12-.58.686-1.05 1.267-1.05h2.67c.58 0 .954.47.835 1.05-.12.58-.686 1.05-1.267 1.05"/><path fill="#DBE2F9" stroke="#4D4B66" stroke-linecap="round" stroke-linejoin="round" d="M61.257 25.13c-4.875-2.916-7.127-8.59-5.836-14.807l.733-3.526c6.194-2.659 12.73-2.659 17.82 0l-.739 3.558c-1.283 6.186-5.899 11.89-11.978 14.775"/><path stroke="#4D4B66" stroke-linecap="round" stroke-linejoin="round" d="M59.693 12.896 61.85 16.5l6.716-5.585M41.297 120H204.25"/><path fill="#fff" stroke="#4D4B66" stroke-linecap="round" stroke-linejoin="round" d="M136.475 60.003H93.133c-1.39 0-2.312-1.126-2.06-2.517l8.394-46.272c.252-1.39 1.584-2.517 2.974-2.517h43.341c1.391 0 2.314 1.127 2.061 2.517l-8.394 46.272c-.253 1.39-1.584 2.517-2.974 2.517"/><path fill="#DBE2F9" stroke="#4D4B66" stroke-linecap="round" stroke-linejoin="round" d="M126.755 39.308h-16.381c-2.48 0-3.708-2.535-2.327-4.817 2.681-4.43 7.632-7.536 12.746-7.536 5.113 0 8.953 3.104 10.035 7.53.559 2.284-1.592 4.823-4.073 4.823"/><path fill="#DBE2F9" stroke="#4D4B66" stroke-linecap="round" stroke-linejoin="round" d="M126.092 27.177c3.224-2.944 3.846-7.512 1.389-10.202s-7.062-2.483-10.285.462c-3.224 2.945-3.846 7.512-1.389 10.202s7.061 2.483 10.285-.462"/><path stroke="#4D4B66" stroke-linecap="round" stroke-linejoin="round" d="M100.602 45.207h10.944m2.462 0h20.373m-.789 4.35h-10.944m-2.463 0H99.812m-.789 4.347h4.241m2.463 0h27.075"/><path fill="#fff" stroke="#4D4B66" stroke-linecap="round" stroke-miterlimit="10" d="m153.709 38.63-5.167 24.88c-.294 1.416-1.68 2.564-3.096 2.564h-20.644c-1.416 0-2.326-1.148-2.032-2.564l6.137-29.55c.294-1.416 1.68-2.564 3.096-2.564h15.974z"/><path fill="#DBE2F9" stroke="#4D4B66" stroke-linecap="round" stroke-linejoin="round" d="M153.708 38.63h-4.67c-1.416 0-2.325-1.147-2.032-2.563l.97-4.67zm-11.732 9.317c.357-1.72-.748-3.113-2.466-3.113s-3.402 1.393-3.76 3.112c-.203.984.072 1.86.666 2.43l-1.947 5.325h5.624l.264-5.362c.804-.571 1.42-1.431 1.619-2.392"/><path fill="#DBE2F9" stroke="#4E4B66" stroke-linecap="round" stroke-linejoin="round" d="M196.459 20.454a1.56 1.56 0 0 1-.878.277h-10.826c-.295 0-.566-.09-.753-.277-.301-.299-.459-.893.509-2.019 0 0 1.451-1.42 1.854-4.184 0 0 .694-5.547 5.52-6.323a1 1 0 0 1 .015-.089c.147-.648.79-1.173 1.438-1.173s1.054.525.908 1.173a1 1 0 0 1-.024.09c4.476.775 2.67 6.322 2.67 6.322-.844 2.763-.032 4.184-.032 4.184.46 1.126.034 1.72-.401 2.02"/><path fill="#DBE2F9" stroke="#4E4B66" stroke-linecap="round" stroke-linejoin="round" d="M191.858 20.73c.192 0 .304.174.228.363-.385.95-1.378 1.67-2.377 1.67s-1.666-.72-1.623-1.67c.009-.19.199-.363.391-.363z"/><path fill="#DE4558" d="M197.145 13.133c1.916 0 3.82-1.553 4.252-3.47.432-1.916-.772-3.47-2.688-3.47s-3.82 1.554-4.252 3.47.772 3.47 2.688 3.47"/><path fill="#fff" d="M197.987 11.423a.61.61 0 0 1-.568.463c-.256 0-.416-.207-.358-.463a.61.61 0 0 1 .567-.463c.256.002.416.209.359.463m.048-.924h-.59c-.023 0-.037-.018-.034-.04l.52-2.854a.21.21 0 0 1 .195-.164h.611c.09 0 .144.076.121.164l-.77 2.853c-.008.023-.03.041-.053.041"/></g><defs><clipPath id="a"><path fill="#fff" d="M.5 0h240v120H.5z"/></clipPath></defs></svg>