<svg xmlns="http://www.w3.org/2000/svg" width="14" height="14" fill="none" viewBox="0 0 14 14"><path fill="#FE7A01" d="M12.03 2.152a.6.6 0 0 0-.421-.18h-.005a.6.6 0 0 0-.418.173l-.06.06a.59.59 0 0 0-.006.83 5.7 5.7 0 0 1 1.613 3.985 5.7 5.7 0 0 1-1.613 3.986.59.59 0 0 0 .007.83l.06.06c.11.11.26.172.418.172h.005a.6.6 0 0 0 .42-.18A6.96 6.96 0 0 0 14 7.02c0-1.827-.7-3.556-1.97-4.868M1.267 7.02c0-1.495.573-2.91 1.613-3.986a.59.59 0 0 0-.007-.83l-.06-.06a.6.6 0 0 0-.417-.172H2.39a.6.6 0 0 0-.42.18A6.96 6.96 0 0 0 0 7.02c0 1.828.7 3.557 1.97 4.868a.6.6 0 0 0 .421.18h.005a.6.6 0 0 0 .418-.173l.06-.06a.59.59 0 0 0 .007-.83A5.7 5.7 0 0 1 1.267 7.02"/><path fill="#FE7A01" d="M10.078 4.422a.6.6 0 0 0-.421-.18h-.004a.6.6 0 0 0-.42.175l-.028.029a.59.59 0 0 0-.006.828c.456.47.707 1.091.707 1.746s-.251 1.276-.707 1.746a.59.59 0 0 0 .006.828l.029.03c.11.111.262.174.42.174h.003a.6.6 0 0 0 .421-.18A3.72 3.72 0 0 0 11.13 7.02c0-.975-.373-1.898-1.052-2.598m-5.284.023-.03-.03a.6.6 0 0 0-.418-.173h-.004a.6.6 0 0 0-.42.18A3.72 3.72 0 0 0 2.87 7.02c0 .976.373 1.899 1.052 2.599.11.113.261.178.42.18h.004a.6.6 0 0 0 .419-.174l.029-.03a.59.59 0 0 0 .007-.829 2.5 2.5 0 0 1-.707-1.746c0-.655.251-1.275.707-1.746a.59.59 0 0 0-.007-.83M7 8.28a1.282 1.282 0 1 0 0-2.564A1.282 1.282 0 0 0 7 8.28"/></svg>