<svg xmlns="http://www.w3.org/2000/svg" width="24" height="24" fill="none" viewBox="0 0 24 24"><g fill="#fff" clip-path="url(#a)"><path fill-rule="evenodd" d="M12 3.25c-.635 0-1.289.314-1.8.954-.516.644-.825 1.547-.825 2.515v1.406a.75.75 0 0 1-1.5 0V6.719c0-1.27.402-2.514 1.153-3.452C9.782 2.325 10.845 1.75 12 1.75s2.218.575 2.972 1.517c.75.938 1.153 2.181 1.153 3.452v1.406a.75.75 0 0 1-1.5 0V6.719c0-.968-.309-1.87-.824-2.515-.512-.64-1.166-.954-1.801-.954" clip-rule="evenodd"/><path d="M6.6 8.125h10.8a6.93 6.93 0 0 1 1.35 3.682v3.682c0 1.627-.711 3.188-1.977 4.339-1.266 1.15-2.983 1.797-4.773 1.797s-3.507-.646-4.773-1.797-1.977-2.712-1.977-4.34v-3.681A6.93 6.93 0 0 1 6.6 8.125"/><path fill-rule="evenodd" d="M5.995 7.681a.75.75 0 0 1 .605-.306h10.8a.75.75 0 0 1 .605.306 7.7 7.7 0 0 1 1.495 4.126v3.682c0 1.85-.81 3.609-2.222 4.894-1.411 1.282-3.31 1.992-5.278 1.992s-3.867-.71-5.277-1.992C5.309 19.098 4.5 17.339 4.5 15.489v-3.682l.001-.046a7.7 7.7 0 0 1 1.494-4.08m.998 1.194A6.14 6.14 0 0 0 6 11.83v3.659c0 1.404.613 2.767 1.732 3.784 1.12 1.019 2.655 1.602 4.268 1.602s3.148-.583 4.268-1.602c1.12-1.017 1.732-2.38 1.732-3.784V11.83a6.14 6.14 0 0 0-.993-2.955z" clip-rule="evenodd"/><path fill-rule="evenodd" d="M0 12.625a.75.75 0 0 1 .75-.75h4.5a.75.75 0 0 1 0 1.5H.75a.75.75 0 0 1-.75-.75m18 0a.75.75 0 0 1 .75-.75h4.5a.75.75 0 0 1 0 1.5h-4.5a.75.75 0 0 1-.75-.75M6.464 17.878a.75.75 0 0 1-.28 1.023l-3.937 2.25a.75.75 0 0 1-.744-1.302l3.938-2.25a.75.75 0 0 1 1.023.279m11.072 0a.75.75 0 0 1 1.024-.28l3.937 2.25a.75.75 0 1 1-.744 1.303l-3.937-2.25a.75.75 0 0 1-.28-1.023M1.275 4.3a.75.75 0 0 1 1.05-.15l4.5 3.375a.75.75 0 1 1-.9 1.2l-4.5-3.375a.75.75 0 0 1-.15-1.05m21.45 0a.75.75 0 0 1-.15 1.05l-4.5 3.375a.75.75 0 0 1-.9-1.2l4.5-3.375a.75.75 0 0 1 1.05.15" clip-rule="evenodd"/></g><defs><clipPath id="a"><path fill="#fff" d="M0 0h24v24H0z"/></clipPath></defs></svg>