<svg xmlns="http://www.w3.org/2000/svg" width="16" height="16" fill="none" viewBox="0 0 16 16"><path fill="#fff" fill-rule="evenodd" d="M4 3.25c-.69 0-1.25.56-1.25 1.25v7c0 .69.56 1.25 1.25 1.25h1.5a.75.75 0 0 1 0 1.5H4a2.75 2.75 0 0 1-2.75-2.75v-7A2.75 2.75 0 0 1 4 1.75h6a2.75 2.75 0 0 1 2.75 2.75v5a.75.75 0 0 1-1.5 0v-5c0-.69-.56-1.25-1.25-1.25zm10.73 7.553a.75.75 0 0 1 0 1.06l-2.666 2.667a.75.75 0 0 1-1.06 0L9.67 13.197a.75.75 0 0 1 1.06-1.06l.803.802 2.137-2.136a.75.75 0 0 1 1.06 0" clip-rule="evenodd"/><path fill="#fff" fill-rule="evenodd" d="M4.117 5.333a.75.75 0 0 1 .75-.75h4.666a.75.75 0 0 1 0 1.5H4.867a.75.75 0 0 1-.75-.75m0 2.667a.75.75 0 0 1 .75-.75H8.2a.75.75 0 0 1 0 1.5H4.867a.75.75 0 0 1-.75-.75m0 2.67a.75.75 0 0 1 .75-.75h2.5a.75.75 0 0 1 0 1.5h-2.5a.75.75 0 0 1-.75-.75" clip-rule="evenodd"/></svg>