<svg xmlns="http://www.w3.org/2000/svg" width="368" height="142" fill="none" viewBox="0 0 368 142"><g clip-path="url(#a)"><rect width="368" height="142" fill="#DCE2F7" rx="12"/><mask id="b" fill="#fff"><path d="M58 42c0-8.837 7.163-16 16-16h220c8.837 0 16 7.163 16 16v107c0 8.837-7.163 16-16 16H74c-8.837 0-16-7.163-16-16z"/></mask><path fill="#F6F8FE" d="M58 42c0-8.837 7.163-16 16-16h220c8.837 0 16 7.163 16 16v107c0 8.837-7.163 16-16 16H74c-8.837 0-16-7.163-16-16z"/><path fill="#242E39" d="M53 42c0-11.598 9.402-21 21-21h220c11.598 0 21 9.402 21 21h-10c0-6.075-4.925-11-11-11H74c-6.075 0-11 4.925-11 11zm257 123H58zm-236 0c-11.598 0-21-9.402-21-21V42c0-11.598 9.402-21 21-21v10c-6.075 0-11 4.925-11 11v107c0 8.837 4.925 16 11 16M294 21c11.598 0 21 9.402 21 21v102c0 11.598-9.402 21-21 21 6.075 0 11-7.163 11-16V42c0-6.075-4.925-11-11-11z" mask="url(#b)"/><path fill="url(#c)" d="M294.84 87.294c1.755-3.058 6.145-3.059 7.901 0l22.221 38.705c1.756 3.058-.439 6.881-3.95 6.881h-44.444c-3.511 0-5.706-3.823-3.95-6.881z"/><rect width="3.42" height="14.82" x="297.08" y="102.1" fill="#fff" rx="1.71"/><circle cx="298.79" cy="123.19" r="1.71" fill="#fff"/><path stroke="#242E39" stroke-width="2" d="M58 60h252"/><path fill="#242E39" d="M147.217 91a.5.5 0 0 1 .498.546l-.437 4.718a.5.5 0 0 0 .652.522l4.032-1.305a.5.5 0 0 1 .65.412l.322 2.53a.5.5 0 0 1-.453.56l-3.568.307a.5.5 0 0 0-.375.774l2.463 3.731a.5.5 0 0 1-.173.711l-2.173 1.221a.5.5 0 0 1-.705-.24l-1.525-3.581a.5.5 0 0 0-.927.019l-1.34 3.54a.5.5 0 0 1-.705.263l-2.273-1.228a.5.5 0 0 1-.182-.711l2.417-3.734a.5.5 0 0 0-.374-.77l-3.517-.33a.5.5 0 0 1-.448-.57l.365-2.501a.5.5 0 0 1 .651-.403l3.944 1.3a.5.5 0 0 0 .655-.521l-.437-4.714a.5.5 0 0 1 .498-.546zm19 0a.5.5 0 0 1 .498.546l-.437 4.718a.5.5 0 0 0 .652.522l4.032-1.305a.5.5 0 0 1 .65.412l.322 2.53a.5.5 0 0 1-.453.56l-3.568.307a.5.5 0 0 0-.375.774l2.463 3.731a.5.5 0 0 1-.173.711l-2.173 1.221a.5.5 0 0 1-.705-.24l-1.525-3.581a.5.5 0 0 0-.927.019l-1.34 3.54a.5.5 0 0 1-.705.263l-2.273-1.228a.5.5 0 0 1-.182-.711l2.417-3.734a.5.5 0 0 0-.374-.77l-3.517-.33a.5.5 0 0 1-.448-.57l.365-2.501a.5.5 0 0 1 .651-.403l3.944 1.3a.5.5 0 0 0 .655-.521l-.437-4.714a.5.5 0 0 1 .498-.546z"/><path fill="#DA553E" d="M185.217 91a.5.5 0 0 1 .498.546l-.437 4.718a.5.5 0 0 0 .652.522l4.032-1.305a.5.5 0 0 1 .65.412l.322 2.53a.5.5 0 0 1-.453.56l-3.568.307a.5.5 0 0 0-.375.774l2.463 3.731a.5.5 0 0 1-.173.711l-2.173 1.221a.5.5 0 0 1-.705-.24l-1.525-3.581a.5.5 0 0 0-.927.019l-1.34 3.54a.5.5 0 0 1-.705.263l-2.273-1.228a.5.5 0 0 1-.182-.711l2.417-3.734a.5.5 0 0 0-.374-.77l-3.517-.33a.5.5 0 0 1-.448-.57l.365-2.501a.5.5 0 0 1 .651-.403l3.944 1.3a.5.5 0 0 0 .655-.521l-.437-4.714a.5.5 0 0 1 .498-.546z"/><path fill="#D9543E" d="M204.217 91a.5.5 0 0 1 .498.546l-.437 4.718a.5.5 0 0 0 .652.522l4.032-1.305a.5.5 0 0 1 .65.412l.322 2.53a.5.5 0 0 1-.453.56l-3.568.307a.5.5 0 0 0-.375.774l2.463 3.731a.5.5 0 0 1-.173.711l-2.173 1.221a.5.5 0 0 1-.705-.24l-1.525-3.581a.5.5 0 0 0-.927.019l-1.34 3.54a.5.5 0 0 1-.705.263l-2.273-1.228a.5.5 0 0 1-.182-.711l2.417-3.734a.5.5 0 0 0-.374-.77l-3.517-.33a.5.5 0 0 1-.448-.57l.365-2.501a.5.5 0 0 1 .651-.403l3.944 1.3a.5.5 0 0 0 .655-.521l-.437-4.714a.5.5 0 0 1 .498-.546zm19 0a.5.5 0 0 1 .498.546l-.437 4.718a.5.5 0 0 0 .652.522l4.032-1.305a.5.5 0 0 1 .65.412l.322 2.53a.5.5 0 0 1-.453.56l-3.568.307a.5.5 0 0 0-.375.774l2.463 3.731a.5.5 0 0 1-.173.711l-2.173 1.221a.5.5 0 0 1-.705-.24l-1.525-3.581a.5.5 0 0 0-.927.019l-1.34 3.54a.5.5 0 0 1-.705.263l-2.273-1.228a.5.5 0 0 1-.182-.711l2.417-3.734a.5.5 0 0 0-.374-.77l-3.517-.33a.5.5 0 0 1-.448-.57l.365-2.501a.5.5 0 0 1 .651-.403l3.944 1.3a.5.5 0 0 0 .655-.521l-.437-4.714a.5.5 0 0 1 .498-.546z"/><rect width="44" height="8" x="74" y="42" fill="#D7DDE4" rx="4"/><circle cx="262" cy="46" r="4" fill="#D7DDE4"/><circle cx="276" cy="46" r="4" fill="#D7DDE4"/><circle cx="290" cy="46" r="4" fill="#D7DDE4"/></g><defs><linearGradient id="c" x1="298.79" x2="298.79" y1="85" y2="132.88" gradientUnits="userSpaceOnUse"><stop stop-color="#EA5C44"/><stop offset="1" stop-color="#D2513B"/></linearGradient><clipPath id="a"><rect width="368" height="142" fill="#fff" rx="12"/></clipPath></defs></svg>