<svg xmlns="http://www.w3.org/2000/svg" width="24" height="24" fill="none" viewBox="0 0 24 24"><path d="M21.674 9.693a.6.6 0 0 1-.016.175l-1.295 5.18a.59.59 0 0 1-.568.447l-7.772.04H4.248a.59.59 0 0 1-.572-.447L2.381 9.887a.6.6 0 0 1-.015-.18 1.238 1.238 0 0 1 .37-2.416 1.238 1.238 0 0 1 .786 2.191l1.621 1.634c.41.413.979.65 1.56.65a2.21 2.21 0 0 0 1.758-.874l2.665-3.532A1.238 1.238 0 0 1 12 5.25a1.237 1.237 0 0 1 .893 2.089l.002.003 2.646 3.541a2.21 2.21 0 0 0 1.761.883c.588 0 1.14-.229 1.555-.644L20.49 9.49a1.234 1.234 0 0 1 .775-2.199c.681 0 1.236.555 1.236 1.237 0 .537-.346.995-.826 1.165m-1.437 7.686a.59.59 0 0 0-.59-.589H4.418a.59.59 0 0 0-.588.589v1.413a.59.59 0 0 0 .589.589h15.23a.59.59 0 0 0 .588-.589z"/></svg>