<svg xmlns="http://www.w3.org/2000/svg" width="368" height="142" fill="none" viewBox="0 0 368 142"><g clip-path="url(#a)"><rect width="368" height="142" fill="#DCE2F7" rx="12"/><path fill="#F6F8FE" stroke="#242E39" stroke-width="2" d="M101 73.195a15 15 0 0 1 7.906-13.217l69-37.035a15 15 0 0 1 14.188 0l69 37.035A15 15 0 0 1 269 73.195V187c0 8.284-6.716 15-15 15H116c-8.284 0-15-6.716-15-15z"/><path stroke="#242E39" stroke-width="2" d="M103 148.878 175 104m92 44.878L195 104"/><path fill="#D7DDE4" stroke="#B7BFD9" d="M119.5 75a7.5 7.5 0 0 1 7.5-7.5h116a7.5 7.5 0 0 1 7.5 7.5v.194l-61.754 31.515a7.5 7.5 0 0 1-6.789.015L119.5 75.192z"/><path stroke="#242E39" stroke-width="2" d="m103 67 74.706 38.264a16 16 0 0 0 14.588 0L267 67"/><circle cx="184.5" cy="70.5" r="24.5" fill="url(#b)"/><path stroke="#fff" stroke-linecap="round" stroke-linejoin="round" stroke-width="2" d="M185.539 80.348q-.267.082-.539.152a14 14 0 0 1-8.665-6.65A14 14 0 0 1 175.083 63 14 14 0 0 0 185 59.5a14 14 0 0 0 9.917 3.5c.711 2.42.756 4.988.128 7.432m-5.378 7.735h7m-3.5-3.5v7"/></g><defs><linearGradient id="b" x1="184.5" x2="184.5" y1="46" y2="95" gradientUnits="userSpaceOnUse"><stop stop-color="#618FF5"/><stop offset="1" stop-color="#2C57F6"/></linearGradient><clipPath id="a"><rect width="368" height="142" fill="#fff" rx="12"/></clipPath></defs></svg>