<svg xmlns="http://www.w3.org/2000/svg" width="18" height="18" fill="none" viewBox="0 0 18 18"><g fill="#fff" stroke="#fff" stroke-miterlimit="10" stroke-width="0.25" clip-path="url(#a)"><path d="M15.463 6.632c-3.594-3.45-9.423-3.45-13.017 0L.06 8.97l2.447 2.368c1.782 1.725 4.168 2.602 6.523 2.602a9.45 9.45 0 0 0 6.524-2.602l2.386-2.31zm-.362 4.298c-3.353 3.245-8.82 3.245-12.171 0L.906 8.97l1.963-1.9c3.352-3.245 8.819-3.245 12.171 0l2.024 1.96z"/><path d="M8.97 5.199C6.795 5.199 5.044 6.895 5.044 9s1.751 3.801 3.926 3.801c2.174 0 3.926-1.696 3.926-3.801S11.144 5.199 8.97 5.199Zm0 7.017c-1.842 0-3.322-1.432-3.322-3.216s1.48-3.216 3.322-3.216S12.292 7.216 12.292 9s-1.48 3.216-3.322 3.216Z"/></g><path stroke="#fff" d="m1.354.646 15.508 15.508"/><defs><clipPath id="a"><path fill="#fff" d="M0 4h18v10H0z"/></clipPath></defs></svg>