<svg xmlns="http://www.w3.org/2000/svg" width="24" height="24" fill="none" viewBox="0 0 24 24"><path fill="#293A53" fill-rule="evenodd" d="M22.931 10.778c-.034-.31-.395-.542-.707-.542a2.445 2.445 0 0 1-2.278-1.507 2.45 2.45 0 0 1 .615-2.72.61.61 0 0 0 .067-.83 11 11 0 0 0-1.743-1.759.61.61 0 0 0-.835.068c-.656.726-1.834.996-2.744.616a2.44 2.44 0 0 1-1.486-2.388.61.61 0 0 0-.54-.643 11 11 0 0 0-2.475-.006.61.61 0 0 0-.544.63 2.45 2.45 0 0 1-1.506 2.346c-.9.367-2.069.1-2.723-.62a.613.613 0 0 0-.83-.07 11 11 0 0 0-1.78 1.76.61.61 0 0 0 .066.835 2.44 2.44 0 0 1 .614 2.745c-.38.904-1.318 1.487-2.393 1.487a.597.597 0 0 0-.635.54 11 11 0 0 0-.005 2.502c.034.31.406.54.72.54.959-.024 1.879.57 2.264 1.508.385.937.138 2.03-.615 2.72a.61.61 0 0 0-.067.829 11 11 0 0 0 1.74 1.76.61.61 0 0 0 .838-.066c.658-.727 1.836-.997 2.742-.617a2.44 2.44 0 0 1 1.488 2.388.61.61 0 0 0 .54.642 11 11 0 0 0 2.475.007.61.61 0 0 0 .544-.63 2.45 2.45 0 0 1 1.506-2.346c.905-.37 2.07-.1 2.724.62a.615.615 0 0 0 .83.069 11 11 0 0 0 1.78-1.76.61.61 0 0 0-.066-.835 2.44 2.44 0 0 1-.617-2.743 2.46 2.46 0 0 1 2.25-1.492l.137.003a.61.61 0 0 0 .643-.539c.098-.827.1-1.669.006-2.502M12.018 15.69a3.673 3.673 0 0 1-3.669-3.668 3.673 3.673 0 0 1 3.669-3.669 3.673 3.673 0 0 1 3.668 3.669 3.67 3.67 0 0 1-3.668 3.668" clip-rule="evenodd"/></svg>