<svg xmlns="http://www.w3.org/2000/svg" width="16" height="16" fill="none" viewBox="0 0 16 16"><g clip-path="url(#a)"><path fill="#6E7191" d="M7.333 9.333v5.334H4.666a2 2 0 0 1-2-2V10a.667.667 0 0 1 .667-.667zm5.333 0a.666.666 0 0 1 .667.667v2.667a2 2 0 0 1-2 2H8.666V9.333zm-1.666-8a2.334 2.334 0 0 1 2.108 3.334h.225A1.333 1.333 0 0 1 14.666 6v.667A1.333 1.333 0 0 1 13.333 8H8.666V4.667H7.333V8H2.666a1.333 1.333 0 0 1-1.333-1.333V6a1.333 1.333 0 0 1 1.333-1.333h.225a2.33 2.33 0 0 1 2.097-3.333c1.17-.02 2.208.727 2.921 1.955l.09.162c.69-1.276 1.707-2.076 2.861-2.116zM5 2.667a1 1 0 0 0 0 2h2.095c-.494-1.27-1.3-2.014-2.095-2m5.988 0c-.786-.014-1.59.73-2.084 2H11a1 1 0 1 0-.012-2"/></g><defs><clipPath id="a"><path fill="#fff" d="M0 0h16v16H0z"/></clipPath></defs></svg>