<svg xmlns="http://www.w3.org/2000/svg" width="24" height="24" fill="none" viewBox="0 0 24 24"><path fill="#293A53" d="m21.137 5.88-.33.105-1.75.154-.497.792-.358-.112-1.394-1.26-.203-.652-.273-.7-.875-.784-1.037-.203-.021.476 1.016.987.497.581-.56.294-.456-.133-.68-.287.022-.546-.89-.371-.3 1.288-.897.203.09.721 1.17.225.204-1.149.966.14.448.266h.722l.49.988 1.31 1.33-.098.518-1.058-.133-1.82.917-1.318 1.576-.168.7h-.462l-.876-.406-.854.406.21.896.371-.427.652-.02-.042.804.539.161.54.61.882-.246 1.008.162 1.17.315.581.07.988 1.12 1.912 1.12-1.232 2.36-1.303.609-.498 1.351-1.89 1.26-.204.729c4.826-1.162 8.42-5.497 8.42-10.678 0-2.276-.687-4.376-1.864-6.127"/><path fill="#293A53" d="m13.264 17.749-.798-1.485.735-1.533-.735-.217-.827-.826-1.828-.414-.61-1.267v.756h-.265L7.36 10.628V8.87L6.204 6.987l-1.835.322h-1.24l-.623-.406.791-.63-.784.182A10.9 10.9 0 0 0 1 12c0 6.07 4.924 11 10.997 11 .469 0 .924-.042 1.38-.098l-.113-1.33s.505-1.982.505-2.045c0-.07-.505-1.778-.505-1.778M5.09 4.55l1.954-.273.903-.49 1.016.294 1.618-.091.553-.868.806.133 1.968-.182.54-.596.763-.51 1.078.16.392-.063A10.8 10.8 0 0 0 11.997 1a10.97 10.97 0 0 0-8.482 3.998h.007zm7.375-2.458 1.12-.616.722.413-1.044.791-.994.098-.448-.294zm-3.327.091.497.203.652-.203.35.616-1.499.393-.721-.42s.7-.456.721-.589"/></svg>