<svg xmlns="http://www.w3.org/2000/svg" width="24" height="24" fill="none" viewBox="0 0 24 24"><path fill="#fff" d="M24 13.945a4.26 4.26 0 0 0-2.779-3.991V9.22C21.221 4.143 17.078 0 12 0S2.779 4.143 2.779 9.221v.733C1.162 10.56 0 12.126 0 13.945a4.28 4.28 0 0 0 4.27 4.27h1.54a.733.733 0 0 0 .733-.733v-7.074a.733.733 0 0 0-.732-.732h-.708V9.22c0-3.815 3.108-6.897 6.897-6.897s6.897 3.108 6.897 6.897v.455h-.707a.733.733 0 0 0-.733.732v7.074c0 .404.328.733.732.733h.329a5.07 5.07 0 0 1-4.27 3.031 1.086 1.086 0 0 0-1.06-.859h-2.4c-.607 0-1.087.48-1.087 1.087v1.238c0 .606.48 1.086 1.086 1.086h2.4c.53 0 .986-.38 1.061-.91 2.855-.151 5.23-2.096 6.038-4.724 2.097-.277 3.714-2.07 3.714-4.218"/></svg>