<svg xmlns="http://www.w3.org/2000/svg" width="24" height="24" fill="none" viewBox="0 0 24 24"><path fill="#293A53" d="M12 1C5.927 1 1 5.92 1 11.994 1 18.074 5.927 23 12 23c6.077 0 11-4.927 11-11.006C23 5.921 18.077 1 12 1m.784 17.115a1.3 1.3 0 0 1-.887.342 1.34 1.34 0 0 1-.908-.337q-.388-.338-.388-.943 0-.538.375-.904t.921-.366q.537 0 .905.366.366.367.366.904 0 .596-.384.938m3.186-7.898q-.294.546-.7.943t-1.455 1.334a6 6 0 0 0-.464.465 2 2 0 0 0-.26.367q-.085.166-.132.333-.046.166-.141.584-.162.888-1.015.887a1.04 1.04 0 0 1-.747-.29q-.302-.29-.302-.861 0-.716.222-1.241.221-.525.588-.922.367-.396.99-.942.546-.479.79-.72.243-.244.408-.542.167-.3.166-.648 0-.683-.507-1.151-.507-.47-1.31-.47-.938 0-1.381.474-.443.473-.75 1.394-.291.964-1.1.964-.48 0-.807-.337-.328-.336-.328-.729 0-.81.52-1.642T9.774 6.09q.997-.546 2.328-.546 1.236 0 2.183.457.945.456 1.463 1.24.516.786.516 1.706 0 .724-.294 1.27"/></svg>