<svg xmlns="http://www.w3.org/2000/svg" width="16" height="16" fill="none" viewBox="0 0 16 16"><path fill="#fff" fill-rule="evenodd" d="M8 2.75a5.25 5.25 0 1 0 0 10.5 5.25 5.25 0 0 0 0-10.5M1.25 8a6.75 6.75 0 1 1 13.5 0 6.75 6.75 0 0 1-13.5 0" clip-rule="evenodd"/><path fill="#fff" fill-rule="evenodd" d="M6.75 7.5a.75.75 0 0 1 .75-.75H8a.75.75 0 0 1 .75.75v2.793a.75.75 0 0 1-.25 1.457H8a.75.75 0 0 1-.75-.75V8.207a.75.75 0 0 1-.5-.707" clip-rule="evenodd"/><path fill="#fff" d="M7.87 6a.75.75 0 1 0 0-1.5.75.75 0 0 0 0 1.5"/></svg>