<svg xmlns="http://www.w3.org/2000/svg" width="24" height="24" fill="none" viewBox="0 0 24 24"><path fill="#82829C" fill-rule="evenodd" d="M5.25 6a.75.75 0 0 0-.75.75v9.75a.75.75 0 0 1-1.5 0V6.75A2.25 2.25 0 0 1 5.25 4.5h13.5A2.25 2.25 0 0 1 21 6.75v9.75a.75.75 0 0 1-1.5 0V6.75a.75.75 0 0 0-.75-.75z" clip-rule="evenodd"/><path fill="#82829C" fill-rule="evenodd" d="M1.5 16.5a.75.75 0 0 1 .75-.75h19.5a.75.75 0 0 1 .75.75V18a2.25 2.25 0 0 1-2.25 2.25H3.75A2.25 2.25 0 0 1 1.5 18zm1.5.75V18a.75.75 0 0 0 .75.75h16.5A.75.75 0 0 0 21 18v-.75zm6.75-9a.75.75 0 0 1 .75-.75h3a.75.75 0 0 1 0 1.5h-3a.75.75 0 0 1-.75-.75" clip-rule="evenodd"/></svg>