<svg xmlns="http://www.w3.org/2000/svg" width="59" height="16" fill="none"><path fill="#20DF9E" d="M6.333 16h-.009a.3.3 0 0 1-.05-.005c-.916-.111-5.573-2.225-6.19-7.94A6.6 6.6 0 0 1 0 7.014l.011-.432C-.024 4.298.03 3.071.08 2.45c.028-.357.275-.641.617-.755L5.33.158A3.1 3.1 0 0 1 6.333 0a3.1 3.1 0 0 1 1.004.158l4.633 1.536c.343.114.59.398.618.755.05.622.102 1.85.068 4.132l.01.432q-.001.528-.083 1.043c-.617 5.714-5.275 7.828-6.19 7.94a.3.3 0 0 1-.05.004z"/><path fill="#20A690" fill-rule="evenodd" d="M6.333 15.245c.13-.027.476-.136.968-.395a8.5 8.5 0 0 0 1.778-1.27c1.244-1.153 2.462-2.95 2.748-5.604a6 6 0 0 0 .08-.954l-.011-.422v-.03c.034-2.27-.019-3.472-.066-4.063a.1.1 0 0 0-.02-.05.2.2 0 0 0-.082-.052L7.095.87a2.4 2.4 0 0 0-.756-.12h-.011a2.4 2.4 0 0 0-.756.12L.938 2.404a.2.2 0 0 0-.081.051.1.1 0 0 0-.02.051C.79 3.098.736 4.3.77 6.57v.03l-.011.422a6 6 0 0 0 .08.954c.286 2.653 1.504 4.451 2.747 5.604.625.58 1.257.995 1.778 1.27.493.26.839.368.968.395ZM0 7.013l.011-.432C-.024 4.298.03 3.071.08 2.45c.028-.357.275-.641.617-.755L5.33.158A3.1 3.1 0 0 1 6.333 0a3.1 3.1 0 0 1 1.004.158l4.633 1.536c.343.114.59.398.618.755.05.622.102 1.85.068 4.132l.01.432q-.001.528-.083 1.043c-.617 5.714-5.275 7.828-6.19 7.94a.3.3 0 0 1-.05.004h-.019a.3.3 0 0 1-.05-.005c-.916-.111-5.573-2.225-6.19-7.94A6.6 6.6 0 0 1 0 7.014Z" clip-rule="evenodd"/><path fill="#000" d="M6.333 16c0-3-.048-12.747 0-16a3.1 3.1 0 0 1 1.004.158l4.633 1.536c.342.114.59.398.618.755.05.622.102 1.85.067 4.132l.011.432q-.001.528-.083 1.043c-.617 5.714-5.275 7.828-6.19 7.94a.3.3 0 0 1-.05.004z" opacity=".1"/><path fill="#18AA79" d="M10.893 8.25c0 2.485-2.041 4.5-4.56 4.5s-4.56-2.015-4.56-4.5 2.042-4.5 4.56-4.5c2.519 0 4.56 2.015 4.56 4.5"/><path fill="#4FFFA8" d="M10.893 7.5c0 2.485-2.041 4.5-4.56 4.5s-4.56-2.015-4.56-4.5S3.815 3 6.333 3c2.519 0 4.56 2.015 4.56 4.5"/><path fill="#00B7FF" d="M2.533 7.5q0-.501.134-.984c.146.309.358.576.503.892.186.407.688.294.909.651.196.317-.013.717.134 1.049.106.24.358.293.532.469.177.177.173.42.2.651a6 6 0 0 0 .15.813c-1.49-.514-2.562-1.907-2.562-3.542Zm3.825 3.75q-.321 0-.638-.052c.002-.053.003-.103.009-.137a1.67 1.67 0 0 1 .42-.847c.212-.23.502-.384.68-.645.175-.254.227-.596.155-.892-.106-.439-.713-.585-1.04-.823-.189-.136-.356-.348-.604-.365-.113-.008-.209.016-.322-.012-.103-.027-.185-.081-.295-.067-.206.026-.336.242-.558.213-.21-.027-.426-.269-.474-.465-.061-.252.142-.334.36-.357a.6.6 0 0 1 .28.014c.116.041.17.152.274.208.193.104.233-.062.203-.231-.044-.253-.096-.356.134-.53.159-.12.295-.207.27-.422-.015-.127-.086-.184-.02-.31.05-.096.187-.183.277-.24.23-.147.988-.137.679-.55-.091-.121-.26-.338-.419-.368-.199-.037-.287.181-.426.277-.143.1-.423.213-.566.059-.193-.207.128-.275.199-.42.033-.067 0-.16-.055-.248q.106-.045.219-.083a.3.3 0 0 0 .159.059c.133.008.259-.062.375.027.13.097.222.22.394.251.165.03.34-.065.382-.231.025-.102 0-.208-.024-.313a3.85 3.85 0 0 1 2.091.63q-.059-.026-.146.013c-.12.055-.292.195-.306.334-.016.158.221.18.334.18.17 0 .34-.074.286-.266a.5.5 0 0 0-.108-.222q.188.128.359.277L8.89 4.7c-.115.117-.248.21-.326.352a.31.31 0 0 1-.23.175c-.062.014-.132.019-.184.06-.144.111-.062.379.074.459a.475.475 0 0 0 .56-.091c.101-.113.161-.31.344-.31.08 0 .158.03.216.086.075.077.06.15.077.245.028.171.182.078.275-.008q.103.179.184.367c-.103.145-.184.303-.432.134-.147-.101-.239-.248-.424-.294-.163-.04-.329.001-.49.029-.182.03-.398.044-.536.18-.134.13-.204.305-.346.436-.276.254-.392.531-.214.89.172.345.53.533.917.508.38-.025.774-.24.763.3-.004.192.037.325.097.503.055.164.052.323.064.492q.019.299.095.588c-.357.45-.815.816-1.337 1.066a3.9 3.9 0 0 1-1.68.382Z"/><path fill="#000" d="M4.813 10.5c2.519 0 4.56-2.015 4.56-4.5 0-.858-.243-1.66-.665-2.343A4.49 4.49 0 0 1 10.893 7.5c0 2.485-2.041 4.5-4.56 4.5A4.57 4.57 0 0 1 2.44 9.843a4.6 4.6 0 0 0 2.374.657Z" opacity=".1"/><path fill="#342B53" fill-rule="evenodd" d="M6.333 11.125c2.03 0 3.674-1.623 3.674-3.625S8.362 3.875 6.333 3.875 2.66 5.498 2.66 7.5s1.645 3.625 3.673 3.625m0 .875c2.519 0 4.56-2.015 4.56-4.5S8.852 3 6.333 3s-4.56 2.015-4.56 4.5S3.815 12 6.333 12" clip-rule="evenodd"/><g filter="url(#a)"><path fill="#FF5E5C" d="M12.16 5.375c0 1.036-.85 1.875-1.9 1.875s-1.9-.84-1.9-1.875.85-1.875 1.9-1.875 1.9.84 1.9 1.875"/><path fill="#fff" fill-rule="evenodd" d="M10.833 5.093h.143a.1.1 0 0 1 .1.1v.958a.1.1 0 0 1-.1.099H9.545a.1.1 0 0 1-.1-.1v-.958a.1.1 0 0 1 .1-.099h.143v-.278c0-.312.256-.565.572-.565a.57.57 0 0 1 .573.565zm-.859 0h.572v-.278a.284.284 0 0 0-.286-.283.284.284 0 0 0-.286.283zm.285.77a.22.22 0 0 0 .222-.219.22.22 0 0 0-.222-.219.22.22 0 0 0-.222.22c0 .12.1.218.222.218" clip-rule="evenodd"/></g><path fill="#fff" d="m57.318 12.823-6.51-8.904 1.302-.896 6.496 8.876zm-6.888 0v-9.8h1.68l-.056 1.4v8.4zm6.888 0v-9.8h1.624v9.8zM43.687 9.435V7.937h2.17q.7 0 1.148-.476t.448-1.232q0-.518-.238-.896a1.6 1.6 0 0 0-.63-.616q-.405-.225-.938-.21h-1.96V3.023l1.988-.014q1.008 0 1.778.42a3 3 0 0 1 1.204 1.134q.434.714.434 1.666 0 .924-.406 1.652-.405.728-1.134 1.148-.714.406-1.666.406zm-1.47 3.388v-9.8h1.624v9.8zm-4.783.168q-1.022 0-1.82-.462a3.5 3.5 0 0 1-1.246-1.302q-.448-.825-.448-1.904t.462-1.904 1.26-1.288q.811-.476 1.848-.476a3 3 0 0 1 1.68.49q.756.476 1.204 1.386t.448 2.17H39.24q0-.91-.224-1.498-.21-.588-.616-.868-.392-.294-.966-.294-.601 0-1.036.266t-.658.784q-.224.504-.224 1.274 0 .686.266 1.176.28.49.742.756a2.2 2.2 0 0 0 1.05.252q.63 0 1.036-.28.405-.294.63-.742l1.442.616q-.294.56-.756.98-.448.42-1.078.644-.615.225-1.414.224m-2.478-3.29V8.455h5.04v1.246zm-5.133 3.29q-1.022 0-1.82-.462a3.5 3.5 0 0 1-1.246-1.302q-.447-.825-.448-1.904 0-1.078.462-1.904t1.26-1.288q.813-.476 1.848-.476a3 3 0 0 1 1.68.49q.756.476 1.204 1.386t.448 2.17H31.63q0-.91-.224-1.498-.21-.588-.616-.868-.391-.294-.966-.294-.601 0-1.036.266a1.67 1.67 0 0 0-.658.784q-.224.504-.224 1.274 0 .686.266 1.176.28.49.742.756a2.2 2.2 0 0 0 1.05.252q.63 0 1.036-.28.407-.294.63-.742l1.442.616q-.294.56-.756.98-.448.42-1.078.644-.616.225-1.414.224Zm-2.478-3.29V8.455h5.04v1.246zm-6.548 3.122 3.836-9.8h1.736l-3.962 9.8zm-.168 0-3.962-9.8h1.722l3.836 9.8z"/><defs><filter id="a" width="7.8" height="7.75" x="6.36" y="1.5" color-interpolation-filters="sRGB" filterUnits="userSpaceOnUse"><feFlood flood-opacity="0" result="BackgroundImageFix"/><feColorMatrix in="SourceAlpha" result="hardAlpha" values="0 0 0 0 0 0 0 0 0 0 0 0 0 0 0 0 0 0 127 0"/><feOffset/><feGaussianBlur stdDeviation="1"/><feComposite in2="hardAlpha" operator="out"/><feColorMatrix values="0 0 0 0 0 0 0 0 0 0 0 0 0 0 0 0 0 0 0.2 0"/><feBlend in2="BackgroundImageFix" result="effect1_dropShadow_2173_6"/><feBlend in="SourceGraphic" in2="effect1_dropShadow_2173_6" result="shape"/></filter></defs></svg>