<svg xmlns="http://www.w3.org/2000/svg" width="59" height="16" fill="none" viewBox="0 0 59 16"><g clip-path="url(#a)"><path fill="#20DF9E" d="M6.333 16h-.009a.3.3 0 0 1-.05-.005c-.916-.11-5.573-2.225-6.19-7.94A6.6 6.6 0 0 1 0 7.015l.011-.433c-.035-2.284.02-3.51.07-4.132.027-.357.274-.64.616-.755L5.33.158A3.1 3.1 0 0 1 6.333 0c.341-.002.68.05 1.004.158l4.633 1.536c.343.114.59.398.618.755.05.622.102 1.85.068 4.132l.01.432q-.001.528-.083 1.043c-.617 5.714-5.275 7.828-6.19 7.94a.3.3 0 0 1-.05.004z"/><path fill="#20A690" fill-rule="evenodd" d="M6.333 15.245c.13-.027.476-.136.968-.395a8.5 8.5 0 0 0 1.778-1.27c1.244-1.153 2.462-2.95 2.748-5.604a6 6 0 0 0 .08-.954l-.01-.422v-.03c.033-2.27-.02-3.472-.067-4.063a.1.1 0 0 0-.02-.05.2.2 0 0 0-.082-.052L7.095.87A2.4 2.4 0 0 0 6.34.75h-.01a2.4 2.4 0 0 0-.757.12L.938 2.404a.2.2 0 0 0-.08.051.1.1 0 0 0-.02.051C.79 3.098.735 4.3.77 6.57v.03l-.01.422q0 .48.08.954c.285 2.653 1.503 4.451 2.746 5.604.625.58 1.257.995 1.778 1.27.493.26.84.368.968.395zM0 7.013l.011-.432c-.035-2.283.02-3.51.07-4.13.027-.358.274-.642.616-.756L5.33.158A3.1 3.1 0 0 1 6.333 0c.341-.002.68.05 1.004.158l4.633 1.536c.343.114.59.398.618.755.05.622.102 1.85.068 4.132l.01.432q-.001.528-.083 1.043c-.617 5.714-5.275 7.828-6.19 7.94a.3.3 0 0 1-.05.004h-.019a.3.3 0 0 1-.05-.005c-.916-.11-5.573-2.225-6.19-7.94A7 7 0 0 1 0 7.013" clip-rule="evenodd"/><path fill="#000" d="M6.333 16c0-3-.048-12.747 0-16 .34-.003.68.05 1.004.158l4.633 1.536c.342.114.59.398.618.755.05.622.102 1.85.067 4.132l.01.432q0 .528-.082 1.043c-.617 5.714-5.275 7.828-6.19 7.94a.3.3 0 0 1-.05.004z" opacity="0.1"/><path fill="#18AA79" d="M10.893 8.25c0 2.485-2.041 4.5-4.56 4.5s-4.56-2.015-4.56-4.5 2.042-4.5 4.56-4.5c2.519 0 4.56 2.015 4.56 4.5"/><path fill="#4FFFA8" d="M10.893 7.5c0 2.485-2.041 4.5-4.56 4.5s-4.56-2.015-4.56-4.5S3.815 3 6.333 3c2.519 0 4.56 2.015 4.56 4.5"/><path fill="#00B7FF" d="M2.533 7.5q0-.501.134-.984c.146.309.358.576.503.892.186.407.688.294.91.651.195.317-.014.717.133 1.049.106.24.358.293.532.469.177.177.173.42.2.651q.046.412.15.813c-1.49-.514-2.562-1.906-2.562-3.541m3.825 3.75q-.321 0-.638-.052c.002-.053.003-.103.01-.137a1.67 1.67 0 0 1 .42-.847c.211-.23.501-.384.68-.645.174-.254.226-.596.154-.892-.106-.439-.713-.585-1.04-.823-.189-.136-.356-.348-.604-.365-.113-.008-.209.016-.322-.012-.103-.027-.185-.081-.295-.067-.206.026-.336.242-.558.213-.21-.027-.426-.269-.474-.465-.06-.252.142-.334.36-.357a.6.6 0 0 1 .28.014c.116.041.17.152.274.208.193.104.233-.062.203-.231-.044-.253-.096-.356.134-.53.16-.12.295-.207.27-.422-.015-.127-.086-.184-.02-.31.05-.096.187-.183.277-.24.23-.147.988-.137.68-.55-.092-.121-.26-.338-.42-.368-.199-.037-.287.181-.426.277-.143.1-.423.213-.566.059-.193-.207.128-.275.2-.42.032-.067 0-.16-.056-.248q.106-.045.22-.083a.3.3 0 0 0 .158.059c.133.008.26-.062.375.027.13.097.222.22.394.251.165.03.34-.065.382-.231.025-.102 0-.208-.024-.313.743.004 1.47.223 2.091.63q-.059-.026-.146.013c-.12.055-.292.195-.306.334-.016.158.221.18.334.18.17 0 .34-.074.286-.266a.5.5 0 0 0-.108-.222q.188.128.36.277L8.89 4.7c-.115.117-.248.21-.326.352a.31.31 0 0 1-.23.175c-.062.014-.132.019-.184.06-.144.111-.062.379.074.459a.475.475 0 0 0 .56-.091c.101-.113.161-.31.344-.31.08 0 .158.03.216.086.075.077.06.15.077.245.028.171.182.078.275-.008q.103.179.184.367c-.103.145-.184.303-.432.134-.147-.101-.239-.248-.424-.294-.163-.04-.329.001-.49.029-.182.03-.398.044-.536.18-.134.13-.204.305-.346.436-.276.254-.392.531-.214.89.172.345.53.533.917.508.38-.025.774-.24.763.3-.004.192.037.325.097.503.055.164.052.323.064.492q.019.298.095.588c-.357.45-.815.816-1.337 1.066a3.9 3.9 0 0 1-1.68.382z"/><path fill="#000" d="M4.813 10.5c2.519 0 4.56-2.015 4.56-4.5 0-.858-.243-1.66-.665-2.343A4.49 4.49 0 0 1 10.893 7.5c0 2.485-2.041 4.5-4.56 4.5A4.57 4.57 0 0 1 2.44 9.843a4.6 4.6 0 0 0 2.373.657" opacity="0.1"/><path fill="#342B53" fill-rule="evenodd" d="M6.333 11.125c2.03 0 3.674-1.623 3.674-3.625S8.362 3.875 6.333 3.875 2.66 5.498 2.66 7.5s1.645 3.625 3.673 3.625m0 .875c2.519 0 4.56-2.015 4.56-4.5S8.852 3 6.333 3s-4.56 2.015-4.56 4.5S3.815 12 6.333 12" clip-rule="evenodd"/><g filter="url(#b)"><path fill="#FF5E5C" d="M12.16 5.375c0 1.036-.85 1.875-1.9 1.875s-1.9-.84-1.9-1.875.85-1.875 1.9-1.875 1.9.84 1.9 1.875"/><path fill="#fff" fill-rule="evenodd" d="M10.833 5.093h.143a.1.1 0 0 1 .1.1v.958a.1.1 0 0 1-.1.099H9.545a.1.1 0 0 1-.1-.1v-.958a.1.1 0 0 1 .1-.099h.143v-.278c0-.312.256-.565.572-.565a.57.57 0 0 1 .573.565zm-.86 0h.573v-.278a.283.283 0 0 0-.286-.283.283.283 0 0 0-.286.283zm.286.77a.22.22 0 0 0 .222-.219.22.22 0 0 0-.222-.219.22.22 0 0 0-.222.22c0 .12.1.218.222.218" clip-rule="evenodd"/></g><path fill="#222E3A" d="m36.033 9.916-3.208-4.46.642-.449 3.2 4.446zm-3.394 0V5.007h.828l-.028.701v4.208zm3.394 0V5.007h.8v4.909zm-6.717-1.697v-.75h1.069q.345 0 .566-.239t.22-.617a.83.83 0 0 0-.117-.449.8.8 0 0 0-.31-.308.87.87 0 0 0-.462-.106h-.966v-.743l.98-.007q.496 0 .876.21a1.5 1.5 0 0 1 .593.568q.214.358.214.835 0 .462-.2.827t-.56.575a1.6 1.6 0 0 1-.82.204zm-.725 1.697V5.007h.8v4.909zM26.234 10q-.504 0-.897-.231a1.73 1.73 0 0 1-.614-.653 2 2 0 0 1-.22-.953q0-.54.227-.954.228-.413.621-.645.4-.239.91-.239c.295-.004.583.082.829.246q.372.238.593.694t.22 1.087h-.779q0-.456-.11-.75a.86.86 0 0 0-.304-.435.76.76 0 0 0-.476-.147.95.95 0 0 0-.51.133.83.83 0 0 0-.325.393q-.11.251-.11.638 0 .344.131.589.138.246.366.378.234.127.517.127a.87.87 0 0 0 .51-.14 1 1 0 0 0 .311-.372l.71.308a1.8 1.8 0 0 1-.372.491q-.22.21-.531.323a2 2 0 0 1-.697.112m-1.221-1.648v-.624h2.484v.624zM22.483 10q-.503 0-.897-.231a1.73 1.73 0 0 1-.614-.653 2 2 0 0 1-.22-.953q0-.54.227-.954.229-.413.621-.645.4-.239.91-.239c.295-.004.583.082.829.246q.372.238.593.694t.221 1.087h-.78q0-.456-.11-.75a.86.86 0 0 0-.303-.435.76.76 0 0 0-.476-.147.95.95 0 0 0-.51.133.83.83 0 0 0-.325.393q-.11.251-.11.638 0 .344.13.589a1 1 0 0 0 .366.378c.16.085.338.129.518.127a.87.87 0 0 0 .51-.14q.2-.148.31-.372l.711.308q-.144.28-.372.491a1.5 1.5 0 0 1-.531.323 2 2 0 0 1-.698.112m-1.22-1.648v-.624h2.483v.624zm-3.228 1.564 1.89-4.909h.856L18.83 9.916zm-.082 0L16 5.007h.849l1.89 4.909z"/></g><defs><clipPath id="a"><path fill="#fff" d="M0 0h59v16H0z"/></clipPath><filter id="b" width="7.7998" height="7.75" x="6.35986" y="1.5" color-interpolation-filters="sRGB" filterUnits="userSpaceOnUse"><feFlood flood-opacity="0" result="BackgroundImageFix"/><feColorMatrix in="SourceAlpha" result="hardAlpha" values="0 0 0 0 0 0 0 0 0 0 0 0 0 0 0 0 0 0 127 0"/><feOffset/><feGaussianBlur stdDeviation="1"/><feComposite in2="hardAlpha" operator="out"/><feColorMatrix values="0 0 0 0 0 0 0 0 0 0 0 0 0 0 0 0 0 0 0.2 0"/><feBlend in2="BackgroundImageFix" result="effect1_dropShadow_2257_15"/><feBlend in="SourceGraphic" in2="effect1_dropShadow_2257_15" result="shape"/></filter></defs></svg>