<svg xmlns="http://www.w3.org/2000/svg" width="125" height="50" fill="none"><g clip-path="url(#a)"><path fill="#20DF9E" stroke="#20A690" stroke-linecap="round" stroke-linejoin="round" stroke-width="2.174" d="M7.66 21.719c.172 9.096 3.926 15.173 7.868 18.985 1.979 1.913 4.008 3.258 5.659 4.12a16 16 0 0 0 2.112.933q.424.145.7.207a3 3 0 0 0 .277.049c.021-.005.08-.02.185-.06.171-.066.402-.174.69-.333.575-.315 1.316-.795 2.17-1.428 1.705-1.266 3.8-3.103 5.834-5.363 4.092-4.547 7.782-10.63 7.787-17.076l-.31-12.125a1.81 1.81 0 0 0-1.206-1.66L26.758 3.473a7.6 7.6 0 0 0-4.951-.046L8.817 7.762c-.591.197-.95.657-.991 1.184-.143 1.815-.301 5.563-.166 12.773"/><g filter="url(#b)"><mask id="c" width="19" height="50" x="24" y="0" maskUnits="userSpaceOnUse" style="mask-type:alpha"><path fill="#C4C4C4" d="M42.754 0H24.268v50h18.486z"/></mask><g mask="url(#c)"><path fill="#13CF8F" stroke="#11877A" stroke-linecap="round" stroke-linejoin="round" stroke-width="2.174" d="M40.904 21.719c-.171 9.096-3.932 15.172-7.882 18.984-1.983 1.914-4.016 3.259-5.67 4.121-.827.432-1.551.738-2.117.933a7 7 0 0 1-.7.207 3 3 0 0 1-.3.05c-.002 0-.075-.008-.24-.059a7 7 0 0 1-.704-.268c-.578-.253-1.32-.64-2.172-1.156-1.702-1.032-3.792-2.553-5.817-4.492-4.074-3.898-7.746-9.34-7.746-15.764V9.292a.36.36 0 0 1 .232-.338l13.92-5.367a7.6 7.6 0 0 1 5.141-.12l12.897 4.296c.593.197.952.657.993 1.183.143 1.816.302 5.563.166 12.773Z"/></g></g><ellipse cx="24.638" cy="24.275" fill="#000" fill-opacity=".19" rx="13.043" ry="13.768"/><circle cx="24.638" cy="23.188" r="11.594" fill="#00B7FF" stroke="#342B53" stroke-width="2.899"/><mask id="d" width="21" height="21" x="14" y="13" maskUnits="userSpaceOnUse" style="mask-type:alpha"><circle cx="24.638" cy="23.188" r="10.145" fill="#C4C4C4"/></mask><g mask="url(#d)"><path fill="#4FFFA8" d="M33.318 14.508a12.277 12.277 0 1 0-17.36 17.36 12.277 12.277 0 1 0 17.36-17.36m-19.203 8.68c0-.93.123-1.858.367-2.757.403.866.987 1.614 1.384 2.503.514 1.142 1.893.825 2.502 1.826.54.888-.037 2.012.367 2.941.294.675.987.822 1.465 1.315.488.498.477 1.18.552 1.829a17 17 0 0 0 .413 2.278c-4.101-1.44-7.05-5.35-7.05-9.934Zm10.523 10.523q-.884 0-1.754-.147c.006-.148.009-.287.023-.384.134-.871.57-1.723 1.159-2.375.581-.644 1.378-1.079 1.869-1.809.481-.712.625-1.671.427-2.504-.292-1.23-1.963-1.64-2.864-2.307-.518-.384-.98-.977-1.66-1.025-.313-.022-.575.046-.886-.035-.285-.073-.509-.227-.812-.187-.567.075-.925.68-1.535.599-.578-.078-1.174-.755-1.305-1.305-.169-.709.391-.938.991-1.001.25-.026.532-.055.773.037.316.117.466.428.75.584.534.293.642-.175.56-.648-.122-.71-.265-.998.368-1.486.438-.337.813-.58.743-1.185-.042-.355-.236-.515-.055-.869.137-.269.515-.512.761-.672.635-.415 2.721-.384 1.869-1.544-.25-.34-.712-.948-1.15-1.032-.549-.103-.792.509-1.174.778-.395.28-1.163.596-1.558.165-.532-.58.352-.77.548-1.177.09-.189 0-.451-.153-.698q.297-.125.603-.232c.128.095.28.151.439.164.366.024.712-.174 1.032.076.355.274.611.62 1.083.706.456.083.938-.183 1.051-.65.069-.284 0-.584-.066-.877 2.05.012 4.051.626 5.755 1.765-.11-.041-.24-.037-.402.039-.333.154-.804.548-.843.938-.045.443.609.505.919.505.466 0 .938-.208.787-.746-.065-.234-.154-.477-.297-.623q.517.358.987.774l-.015.015c-.316.33-.682.59-.898.99-.153.281-.324.415-.633.488-.17.04-.364.055-.506.169-.397.312-.171 1.063.205 1.288.475.285 1.18.15 1.538-.255.28-.318.445-.87.949-.87.222 0 .435.087.593.242.208.216.167.418.211.687.079.48.501.22.758-.022q.282.5.507 1.029c-.283.407-.508.85-1.188.376-.407-.284-.658-.697-1.169-.825-.447-.11-.904.004-1.345.08-.502.087-1.096.126-1.477.506-.367.366-.562.856-.953 1.223-.757.713-1.077 1.49-.587 2.498.472.968 1.458 1.494 2.521 1.425 1.045-.07 2.131-.676 2.101.843-.011.537.101.91.266 1.409.153.46.143.906.178 1.381q.05.837.26 1.648a10.5 10.5 0 0 1-8.3 4.063Z"/></g><path fill="#000" fill-opacity=".1" d="M29.71 32.609c-6.377 2.319-11.956-1.45-13.406-3.261 12.681 4.348 18.116-6.16 15.218-13.406 1.16.58 3.381 2.899 3.623 3.623.725 2.536.942 10.725-5.435 13.044"/><g filter="url(#e)"><circle cx="36.232" cy="15.942" r="5.072" fill="#FF5B5B"/></g><g filter="url(#f)"><path fill="#E55252" d="M36.232 21.015a5.072 5.072 0 1 0 0-10.145z"/></g><path fill="#fff" d="M37.862 14.946h-.271v-.544a1.36 1.36 0 0 0-2.718 0v.544h-.271a.545.545 0 0 0-.544.543v2.717c0 .3.245.544.544.544h3.26a.545.545 0 0 0 .544-.544V15.49a.545.545 0 0 0-.544-.543Zm-1.63 2.445a.545.545 0 0 1-.544-.543c0-.3.245-.544.544-.544s.543.245.543.544a.545.545 0 0 1-.543.543m.842-2.445H35.39v-.544a.843.843 0 0 1 1.684 0zm30.518 17.259h-3.916L58 17.531h3.564l4.07 11.286 4.048-11.286h3.564zm10.627.264q-2.465 0-4.07-1.54t-1.606-4.048q0-2.355 1.54-3.96 1.56-1.605 3.96-1.606 2.375 0 3.85 1.628 1.474 1.606 1.474 4.224v.616h-7.898q.132 1.055.946 1.76.813.704 2.111.704.705 0 1.519-.286.835-.285 1.32-.77l1.232 1.804q-1.606 1.474-4.378 1.474m2.442-6.578q-.067-.902-.727-1.628-.637-.726-1.891-.726-1.19 0-1.849.726a2.8 2.8 0 0 0-.77 1.628h5.236Zm9.718 6.578q-2.465 0-4.07-1.54t-1.606-4.048q0-2.355 1.54-3.96 1.562-1.605 3.96-1.606 2.376 0 3.85 1.628 1.474 1.606 1.474 4.224v.616h-7.898q.132 1.055.946 1.76.813.704 2.112.704.703 0 1.518-.286.836-.285 1.32-.77l1.232 1.804q-1.606 1.474-4.378 1.474m2.442-6.578q-.066-.902-.726-1.628-.638-.726-1.892-.726-1.188 0-1.848.726a2.8 2.8 0 0 0-.77 1.628zm7.914 6.314h-3.124V17.531h6.864q2.31 0 3.608 1.364 1.32 1.342 1.32 3.366 0 2.003-1.32 3.366-1.32 1.364-3.608 1.364h-3.74zm3.322-7.964q.945 0 1.54-.528.615-.55.616-1.452 0-.902-.616-1.43-.595-.55-1.54-.55h-3.322v3.96zm20.416 7.964h-3.014l-6.996-9.57v9.57h-3.124V17.531h3.212l6.798 9.218v-9.218h3.124z"/></g><defs><filter id="b" width="22.124" height="49.459" x="21.369" y="-.184" color-interpolation-filters="sRGB" filterUnits="userSpaceOnUse"><feFlood flood-opacity="0" result="BackgroundImageFix"/><feColorMatrix in="SourceAlpha" result="hardAlpha" values="0 0 0 0 0 0 0 0 0 0 0 0 0 0 0 0 0 0 127 0"/><feOffset dx="-.725"/><feGaussianBlur stdDeviation="1.087"/><feColorMatrix values="0 0 0 0 0 0 0 0 0 0 0 0 0 0 0 0 0 0 0.15 0"/><feBlend in2="BackgroundImageFix" result="effect1_dropShadow_19_18"/><feBlend in="SourceGraphic" in2="effect1_dropShadow_19_18" result="shape"/></filter><filter id="e" width="15.942" height="15.942" x="28.261" y="9.42" color-interpolation-filters="sRGB" filterUnits="userSpaceOnUse"><feFlood flood-opacity="0" result="BackgroundImageFix"/><feColorMatrix in="SourceAlpha" result="hardAlpha" values="0 0 0 0 0 0 0 0 0 0 0 0 0 0 0 0 0 0 127 0"/><feOffset dy="1.449"/><feGaussianBlur stdDeviation="1.449"/><feColorMatrix values="0 0 0 0 0 0 0 0 0 0 0 0 0 0 0 0 0 0 0.25 0"/><feBlend in2="BackgroundImageFix" result="effect1_dropShadow_19_18"/><feBlend in="SourceGraphic" in2="effect1_dropShadow_19_18" result="shape"/></filter><filter id="f" width="10.87" height="15.942" x="33.333" y="9.42" color-interpolation-filters="sRGB" filterUnits="userSpaceOnUse"><feFlood flood-opacity="0" result="BackgroundImageFix"/><feColorMatrix in="SourceAlpha" result="hardAlpha" values="0 0 0 0 0 0 0 0 0 0 0 0 0 0 0 0 0 0 127 0"/><feOffset dy="1.449"/><feGaussianBlur stdDeviation="1.449"/><feColorMatrix values="0 0 0 0 0 0 0 0 0 0 0 0 0 0 0 0 0 0 0.25 0"/><feBlend in2="BackgroundImageFix" result="effect1_dropShadow_19_18"/><feBlend in="SourceGraphic" in2="effect1_dropShadow_19_18" result="shape"/></filter><clipPath id="a"><path fill="#fff" d="M0 0h125v50H0z"/></clipPath></defs></svg>