<svg xmlns="http://www.w3.org/2000/svg" width="24" height="24" fill="none" viewBox="0 0 24 24"><path fill="#fff" fill-rule="evenodd" d="M17.994 20.112A1 1 0 0 1 17 21H6a1 1 0 0 1-1-1V5a1 1 0 0 1 1-1h10.566a1 1 0 0 1 .356.066l.046.017a2.37 2.37 0 0 1 1.432.06l2 1.357V2.652A2.655 2.655 0 0 0 17.748 0H5.452A2.655 2.655 0 0 0 2.8 2.652v18.696A2.655 2.655 0 0 0 5.452 24h12.296c.703 0 1.377-.28 1.874-.778.435-.434.398-3.182.382-4.335L20 18.5l-1.6 1.506a2.4 2.4 0 0 1-.406.106M9.434 1.634A.8.8 0 0 0 10 3h3.2a.8.8 0 0 0 0-1.6H10a.8.8 0 0 0-.566.234" clip-rule="evenodd"/><path fill="#fff" fill-rule="evenodd" d="m18.03 5.725 4.8 3.055a.8.8 0 0 1 .37.674 10.26 10.26 0 0 1-4.212 8.27l-.918.668a.8.8 0 0 1-.94 0l-.918-.667A10.26 10.26 0 0 1 12 9.455a.8.8 0 0 1 .37-.675l4.8-3.055a.8.8 0 0 1 .86 0m3.25 5.056a.75.75 0 0 0-1.06-1.061l-2.97 2.97-1.22-1.22a.75.75 0 1 0-1.06 1.06l1.75 1.75a.75.75 0 0 0 1.06 0z" clip-rule="evenodd"/></svg>