<svg xmlns="http://www.w3.org/2000/svg" width="24" height="26" fill="none" viewBox="0 0 24 26"><path fill="#fff" stroke="#fff" stroke-width="0.5" d="M22.14 7.167c-.025-.637-.025-1.25-.025-1.837a.826.826 0 0 0-.833-.833c-3.6-.025-6.344-1.054-8.622-3.258a.843.843 0 0 0-1.176 0C9.206 3.443 6.462 4.472 2.886 4.472a.826.826 0 0 0-.833.833c0 .588 0 1.2-.024 1.862-.123 6.05-.294 14.306 9.774 17.784.097.024.171.049.269.049a.9.9 0 0 0 .27-.049c10.067-3.478 9.896-11.734 9.798-17.784ZM12.072 23.26c-8.623-3.136-8.5-9.995-8.378-16.045 0-.368.025-.71.025-1.053 3.356-.172 6.05-1.176 8.353-3.185 2.303 2.009 4.997 3.038 8.353 3.16 0 .343 0 .686.025 1.053.122 6.075.245 12.934-8.378 16.07Z"/><path fill="#fff" stroke="#fff" stroke-width="0.5" d="m14.963 10.082-4.042 4.042-1.74-1.74c-.318-.318-.857-.318-1.2 0-.318.319-.318.858 0 1.2l2.327 2.328a.8.8 0 0 0 .588.245.76.76 0 0 0 .588-.245l4.654-4.654c.319-.319.319-.858 0-1.2a.82.82 0 0 0-1.176.024Z"/></svg>