<svg xmlns="http://www.w3.org/2000/svg" width="24" height="24" fill="none" viewBox="0 0 24 24"><path fill="#fff" d="M19.158 6.59v12.084A3.333 3.333 0 0 1 15.832 22H9.747a3.34 3.34 0 0 1-2.379-.99L.842 14.359s1.053-1.032 1.074-1.032c.19-.168.4-.231.652-.231a1 1 0 0 1 .506.126c.042 0 3.6 2.042 3.6 2.042V5.326c0-.694.568-1.242 1.242-1.242.695 0 1.242.569 1.242 1.242v5.832H10V3.242C10 2.547 10.568 2 11.242 2s1.242.568 1.242 1.242v7.916h.842V4.084c0-.695.569-1.242 1.242-1.242.674 0 1.242.569 1.242 1.242v7.074h.843V6.589c0-.694.568-1.242 1.242-1.242.673 0 1.263.548 1.263 1.242"/></svg>