<svg xmlns="http://www.w3.org/2000/svg" width="24" height="24" fill="none" viewBox="0 0 24 24"><path fill="#fff" d="M15.296 20.657h.1c-2.091-.263-2.263-1.663-2.276-1.972h3.084V15.34H1.56a.274.274 0 0 1-.273-.273V3.56c0-.15.122-.273.273-.273h18.336c.15 0 .273.122.273.273v5.63h1.287V3.56c0-.86-.7-1.56-1.56-1.56H1.56C.7 2 0 2.7 0 3.56v13.806h.001c.029.733.632 1.32 1.373 1.32h6.962c-.013.308-.185 1.709-2.276 1.971h.067a.598.598 0 0 0 0 1.196h9.17a.598.598 0 1 0 0-1.196m-4.568-2.747a.763.763 0 1 1 0-1.526.763.763 0 0 1 0 1.526m11.617-7.97h-3.573c-.914 0-1.655.741-1.655 1.655v8.604c0 .913.741 1.654 1.655 1.654h3.574c.913 0 1.654-.74 1.654-1.654v-8.604c0-.914-.74-1.654-1.655-1.654m-1.787 10.995a.669.669 0 1 1 0-1.338.669.669 0 0 1 0 1.338"/></svg>