<svg xmlns="http://www.w3.org/2000/svg" width="24" height="24" fill="none" viewBox="0 0 24 24"><path fill="#fff" d="M21.54 15a10 10 0 0 0 .46-3 10 10 0 0 0-.46-3h-4.724a24.6 24.6 0 0 1 0 6zm-7.104-8C13.812 4.475 12.791 3 12 3s-1.812 1.475-2.436 4zM7 12c0-1.001.062-2.015.184-3H2.459A10 10 0 0 0 2 12a10 10 0 0 0 .46 3h4.724A25 25 0 0 1 7 12m2.564 5c.624 2.525 1.645 4 2.436 4s1.812-1.475 2.436-4zm5.246-8H9.19c-.12.916-.19 1.918-.19 3s.07 2.084.19 3h5.62c.12-.916.19-1.918.19-3s-.07-2.084-.19-3m1.664-2h4.177a10 10 0 0 0-6.193-4.683C15.37 3.407 16.05 5.08 16.474 7M7.526 17H3.35a10 10 0 0 0 6.193 4.683C8.63 20.593 7.95 18.92 7.526 17m8.948 0c-.424 1.92-1.103 3.593-2.017 4.683A10 10 0 0 0 20.652 17zM7.526 7C7.95 5.08 8.63 3.407 9.542 2.317A10 10 0 0 0 3.35 7z"/></svg>