<svg xmlns="http://www.w3.org/2000/svg" width="24" height="24" fill="none"><path fill="#E84E58" d="M18.438 9.25h-.688V6.5c0-3.033-2.467-5.5-5.5-5.5a5.506 5.506 0 0 0-5.5 5.5v2.75h-.688A2.065 2.065 0 0 0 4 11.313v9.624C4 22.075 4.926 23 6.063 23h12.375a2.065 2.065 0 0 0 2.062-2.063v-9.625a2.065 2.065 0 0 0-2.063-2.062ZM8.582 6.5a3.67 3.67 0 0 1 3.667-3.667A3.67 3.67 0 0 1 15.917 6.5v2.75H8.583zm4.584 9.828v2.089a.916.916 0 1 1-1.834 0v-2.089a1.83 1.83 0 0 1-.916-1.578c0-1.011.822-1.833 1.833-1.833s1.833.822 1.833 1.833c0 .676-.37 1.26-.916 1.578"/></svg>