<svg xmlns="http://www.w3.org/2000/svg" width="24" height="24" fill="none" viewBox="0 0 24 24"><path fill="#98A0A9" fill-rule="evenodd" d="M15.13 4.194a3.578 3.578 0 0 1 3.9 5.836l-10.5 10.5a.75.75 0 0 1-.53.22H4a.75.75 0 0 1-.75-.75v-4a.75.75 0 0 1 .22-.53l10.5-10.5a3.6 3.6 0 0 1 1.16-.776m1.37 1.228a2.08 2.08 0 0 0-1.47.608L4.75 16.31v2.94h2.94L17.97 8.97a2.078 2.078 0 0 0-1.47-3.548" clip-rule="evenodd"/><path fill="#98A0A9" fill-rule="evenodd" d="M12.97 5.97a.75.75 0 0 1 1.06 0l4 4a.75.75 0 1 1-1.06 1.06l-4-4a.75.75 0 0 1 0-1.06" clip-rule="evenodd"/></svg>