<svg xmlns="http://www.w3.org/2000/svg" width="14" height="15" fill="none" viewBox="0 0 14 15"><path fill="#FE7A01" d="m11.91 5.05.222-.398a3.076 3.076 0 0 0-.486-3.695A3.04 3.04 0 0 0 9.482.059c-.825 0-1.575.339-2.15.913a3.1 3.1 0 0 0-.794 1.413 5.85 5.85 0 0 0-5.36 5.83c0 3.223 2.621 5.844 5.83 5.844s5.83-2.62 5.83-5.844a5.8 5.8 0 0 0-.927-3.166M8.07 1.707a2 2 0 0 1 1.427-.59 2 2 0 0 1 1.428.59c.648.647.78 1.649.324 2.443L9.497 7.17 7.744 4.137a2.01 2.01 0 0 1 .324-2.43m-1.59 1.914c.059.353.176.706.368 1.045l.647 1.119H5.345c.265-1.046.692-1.811 1.134-2.164m-4.27 4.593c0-.486.074-.957.207-1.399h1.678c-.06.442-.074.913-.074 1.399 0 .485.03.956.074 1.398H2.416a4.9 4.9 0 0 1-.207-1.398m.663 2.429h1.384c.162.736.397 1.383.706 1.913a4.8 4.8 0 0 1-2.09-1.913M4.27 5.77H2.887a4.87 4.87 0 0 1 2.09-1.914c-.31.53-.545 1.178-.707 1.914m2.739 7.257c-.619 0-1.296-.927-1.664-2.37h3.342c-.383 1.428-1.06 2.37-1.678 2.37m-1.87-3.415a11 11 0 0 1-.088-1.398c0-.486.03-.957.088-1.399h2.944l.884 1.531c0 .442-.03.869-.089 1.266zm3.916 2.944c.294-.53.53-1.177.706-1.913h1.384a4.8 4.8 0 0 1-2.09 1.913m.868-2.944c.045-.397.074-.824.074-1.251l.883-1.546h.707a4.87 4.87 0 0 1 0 2.797z"/><circle cx="9.50833" cy="3.26666" r="0.758333" fill="#FE7A01"/></svg>