<svg xmlns="http://www.w3.org/2000/svg" width="40" height="40" fill="none" viewBox="0 0 40 40"><rect width="40" height="40" fill="transparent" rx="8"/><rect width="28" height="28" x="6" y="6" fill="#3E3F41" rx="11"/><path fill="#D6DDE5" fill-rule="evenodd" d="M22.107 25.939c2.697-.26 5.063-.97 6.507-1.893l.852 1.088c-1.988 1.16-4.567 1.917-7.36 2.2A17.8 17.8 0 0 0 23.722 34h4.789A5.49 5.49 0 0 0 34 28.51V11.49A5.49 5.49 0 0 0 28.51 6h-4.33c-3.737 4.41-5.887 9.989-6.518 15.5h5.088c-.426 1.656-.596 2.83-.643 4.439m2.77-13.654h1.445v3.337h-1.444z" clip-rule="evenodd"/><path fill="#4BA2F0" fill-rule="evenodd" d="M22.879 6H11.49A5.49 5.49 0 0 0 6 11.49v17.02A5.49 5.49 0 0 0 11.49 34h11.095c-.936-1.996-1.395-4.276-1.469-6.628v.058c-3.644.142-7.572-.545-10.885-2.201l.686-1.089c3.218 1.515 6.909 2.035 10.198 1.893a25 25 0 0 1 .356-3.502h-4.946C17.093 16.046 19.434 10.467 22.88 6m-8.58 6.285h-1.444v3.337H14.3z" clip-rule="evenodd"/><rect width="27" height="27" x="6.5" y="6.5" stroke="#3E3F41" stroke-opacity="0.2" rx="4.9"/></svg>