<svg xmlns="http://www.w3.org/2000/svg" width="40" height="40" fill="none" viewBox="0 0 40 40"><rect width="40" height="40" fill="transparent" rx="8"/><path fill="#000" d="M13.243 24.786c-.07-.37-.213-.778-.217-1.188-.014-1.363.543-2.551 1.236-3.684.014-.023.05-.031.076-.048-.035.176-.115.317-.189.457-.511.984-.972 1.986-.994 3.122-.013.622.108 1.21.633 1.705-.007-.132-.019-.222-.017-.316.015-.44-.003-.886.055-1.32.148-1.095.545-2.102 1.067-3.078.628-1.173 2.137-3.733 2.032-5.093-.001-.019.004-.036.007-.055.035-.19-.011-.34-.148-.497-.537-.614-.492-1.257.119-1.784.151-.129.145-.221.077-.393-.26-.651-.32-1.325-.077-1.993.203-.557.785-.728 1.217-.359.289.25.5.565.554.96.025.188.035.379.05.567h1.094c0-.094.01-.185-.002-.275-.05-.4.098-.741.305-1.063.422-.659 1.396-.798 1.88-.241.456.523.712 1.139.586 1.853-.046.258-.139.507-.213.771.284.175.487.43.453.782-.031.307-.137.604-.2.908-.024.124-.068.27-.026.382.123.343.284.675.433 1.01.168.376.352.747.513 1.125.416.978.824 1.96 1.234 2.943.158.389.34.777.452 1.181.346 1.245.419 2.517.308 3.8-.013.152.013.224.167.286.309.123.468.373.467.714 0 .138-.033.28-.01.412.02.13.063.288.152.371.349.314.902.32 1.307.075.483-.294.775-.745 1.097-1.258-.865-.69-1.779-.799-2.787-.319.11-.115.224-.264.354-.283.39-.05.49-.32.581-.627.052-.184.115-.368.164-.554.364-1.388.117-2.647-.83-3.738-.244-.284-.557-.509-.838-.76a3.75 3.75 0 0 1 1.572 1.442c.803 1.355.504 2.733.043 4.108 1.083.076 1.455.206 1.88.662.151-.017.299-.023.44-.055.066-.014.153-.068.173-.122.087-.252.175-.505.222-.765.147-.774-.034-1.521-.251-2.254-.458-1.548-1.22-2.95-2.155-4.261-.587-.824-1.192-1.641-1.687-2.52-.707-1.259-1.077-2.626-1.05-4.09a7.7 7.7 0 0 0-.117-1.585c-.17-.913-.478-1.795-1.152-2.463-1.275-1.258-2.808-1.656-4.542-1.196-.861.227-1.637.621-2.126 1.421-.395.648-.55 1.373-.543 2.113.012 1.36.012 2.728.153 4.078.125 1.192-.082 2.214-.897 3.112-.325.358-.608.76-.894 1.157-1.195 1.645-1.966 3.504-2.671 5.393-.178.48-.25.967-.086 1.486.536-.363 1.078-.478 1.566-.16m10.313 4.643-.411 3.26c-1.677-.422-3.42-.047-5.135-.05l-.115-1.451c2.101.257 4.024-.216 5.661-1.76M16.248 27.4c.275.227.549.461.807.708.243.232.31.536.27.86-.033.277-.29.522-.562.511-.082-.003-.178-.108-.23-.188-.606-.943-1.203-1.891-1.808-2.834-.139-.216-.297-.42-.448-.627l.02-.033c.652.534 1.304 1.065 1.951 1.603"/><path fill="#FC0" d="M17.492 32.143c.091.444-.128.783-.52 1.048a2 2 0 0 0-.355.306c-.47.491-1.043.59-1.673.436a7 7 0 0 1-.97-.308c-1.192-.479-2.425-.789-3.68-1.043a9 9 0 0 1-1.272-.35c-.588-.208-.776-.55-.653-1.155.176-.875.184-1.75.044-2.632-.11-.69.061-.935.738-1.112.258-.068.514-.146.775-.19.482-.087.841-.342 1.125-.73.248-.342.487-.697.78-.997.519-.533.981-.555 1.468-.007.54.611 1.03 1.27 1.486 1.946.765 1.134 1.412 2.347 2.296 3.405.316.378.463.833.411 1.383m14.15-1.757c-.254.206-.54.38-.826.543-1.224.7-2.413 1.447-3.436 2.43-.499.48-1.1.636-1.767.628-.191-.013-.386-.011-.579-.036-.704-.091-1.117-.495-1.27-1.186-.123-.571-.083-1.14.039-1.696.335-1.521.35-3.066.368-4.61.01-.699.177-.91.957-.883.543.018.613.095.555.62-.07.653.414 1.142 1.153 1.213.82.08 1.342-.386 1.823-.943.101-.117.172-.259.261-.388.215-.312.64-.294.789.056.088.212.134.468.109.694-.065.521.147.923.499 1.252.394.368.81.722 1.248 1.035.504.36.566.876.078 1.271M18.735 15.96c.703.124 1.344-.035 1.935-.442.316-.219.645-.438 1-.575.537-.207.815-.558.856-1.127.035-.469-.052-.644-.5-.823-.221-.089-.72-.262-.72-.262s-.49-.234-.82-.334c-.845-.254-1.478-.533-2.256-.117-.278.149-.629.506-.629.506s-.335.28-.492.42c-.52.454-.561.943-.074 1.447.39.4.817.769 1.245 1.13.12.1.298.151.454.177"/><path fill="#000" d="M21.926 12.046c-.034.355-.621.685-.621.685l-.82-.333s-.017-.483.004-.722c.022-.272.104-.545.393-.644.26-.088.54-.102.748.124.224.25.325.551.296.89m-5.071 2.048-.041.038q.035.048.068.1c.05.076.1.151.164.211.671.66 1.483.81 2.37.61.82-.185 1.517-.625 2.214-1.064l.358-.224c.038-.023.066-.062.095-.1q.02-.029.042-.054l-.016-.038-.02-.05q-.067.02-.136.037c-.092.023-.184.046-.265.09q-.326.171-.647.353c-.363.202-.726.405-1.102.579-.988.454-1.939.43-2.789-.343-.054-.051-.118-.093-.18-.134l-.074-.05zm1.273-2.629c.07.26.101.815.101.815l-.629.506s-.55-.68-.533-1.147c.012-.346.176-.593.424-.633.257-.043.555.144.637.459"/></svg>