<svg xmlns="http://www.w3.org/2000/svg" width="368" height="142" fill="none" viewBox="0 0 368 142"><g clip-path="url(#a)"><rect width="368" height="142" fill="#DCE2F7" rx="12"/><path fill="#F6F8FE" d="M100 42c0-8.837 7.163-16 16-16h100.873a16 16 0 0 1 11.313 4.686l36.128 36.128A16 16 0 0 1 269 78.127V149c0 8.837-7.163 16-16 16H116c-8.837 0-16-7.163-16-16z"/><path fill="#242E39" d="M223.5 28 267 71.5l-27.852-.613c-8.697-.192-15.648-7.297-15.648-15.996z"/><path stroke="#242E39" stroke-width="2" d="M101 42c0-8.284 6.716-15 15-15h100.873a15 15 0 0 1 10.606 4.393l36.128 36.128A15 15 0 0 1 268 78.127V149c0 8.284-6.716 15-15 15H116c-8.284 0-15-6.716-15-15z"/><path fill="url(#b)" d="M95.84 83.294c1.755-3.058 6.145-3.059 7.901 0l22.221 38.705c1.756 3.058-.439 6.881-3.95 6.881H77.569c-3.512 0-5.707-3.823-3.951-6.881z"/><rect width="3.42" height="14.82" x="98.0801" y="98.1" fill="#fff" rx="1.71"/><circle cx="99.7901" cy="119.19" r="1.71" fill="#fff"/><rect width="73" height="9" x="148" y="86" fill="#D7DDE4" rx="4.5"/><rect width="73" height="9" x="148" y="103" fill="#D7DDE4" rx="4.5"/><rect width="73" height="9" x="148" y="120" fill="#D7DDE4" rx="4.5"/></g><defs><linearGradient id="b" x1="99.79" x2="99.79" y1="81" y2="128.88" gradientUnits="userSpaceOnUse"><stop stop-color="#EABB44"/><stop offset="1" stop-color="#E4B02D"/></linearGradient><clipPath id="a"><rect width="368" height="142" fill="#fff" rx="12"/></clipPath></defs></svg>