<svg xmlns="http://www.w3.org/2000/svg" width="22" height="22" fill="none" viewBox="0 0 22 22"><rect width="22" height="22" fill="url(#a)" rx="11"/><g stroke="#fff" stroke-linecap="round" stroke-linejoin="round" stroke-width="1.5" clip-path="url(#b)"><path d="M9.313 5.375H5.937a.563.563 0 0 0-.562.563v3.375c0 .31.252.562.563.562h3.375c.31 0 .562-.252.562-.562V5.937a.563.563 0 0 0-.562-.562m0 6.75H5.937a.56.56 0 0 0-.562.563v3.374c0 .311.252.563.563.563h3.375c.31 0 .562-.252.562-.562v-3.375a.56.56 0 0 0-.562-.563m6.75-6.75h-3.375a.56.56 0 0 0-.563.563v3.375c0 .31.252.562.563.562h3.374a.563.563 0 0 0 .563-.562V5.937a.56.56 0 0 0-.562-.562m-3.938 6.75v2.25m0 2.25h2.25v-4.5m0 1.125h2.25m0 2.25v1.125"/></g><defs><linearGradient id="a" x1="11" x2="11" y1="0" y2="22" gradientUnits="userSpaceOnUse"><stop stop-color="#5695FD"/><stop offset="1" stop-color="#1554FF"/></linearGradient><clipPath id="b"><path fill="#fff" d="M2 2h18v18H2z"/></clipPath></defs></svg>