<svg xmlns="http://www.w3.org/2000/svg" width="24" height="24" fill="none" viewBox="0 0 24 24"><path stroke="#fff" stroke-width="1.5" d="M9.77 1.643c.227-.094.47-.143.717-.143h3.665a1.867 1.867 0 0 1 1.866 1.863 1.29 1.29 0 0 0 .644 1.131 1.26 1.26 0 0 0 1.31-.002 1.84 1.84 0 0 1 1.413-.19 1.9 1.9 0 0 1 1.138.876v.001l1.832 3.173a1.867 1.867 0 0 1-.675 2.544 1.29 1.29 0 0 0-.665 1.132 1.27 1.27 0 0 0 .652 1.121 1.88 1.88 0 0 1 .687 2.558l-1.83 3.17-.001.002c-.251.429-.66.743-1.139.876a1.8 1.8 0 0 1-1.395-.187 1.309 1.309 0 0 0-2.005 1.105 1.867 1.867 0 0 1-1.867 1.827h-3.665a1.867 1.867 0 0 1-1.866-1.863 1.29 1.29 0 0 0-.644-1.131 1.26 1.26 0 0 0-1.31.002 1.84 1.84 0 0 1-1.413.19 1.9 1.9 0 0 1-1.138-.876v-.001L2.25 15.648a1.867 1.867 0 0 1 .674-2.543 1.29 1.29 0 0 0 .665-1.133 1.27 1.27 0 0 0-.652-1.121 1.88 1.88 0 0 1-.687-2.558l1.831-3.172a1.9 1.9 0 0 1 1.13-.873 1.8 1.8 0 0 1 1.395.236A1.309 1.309 0 0 0 8.62 3.375a1.87 1.87 0 0 1 1.15-1.732Zm.26 13.413a3.984 3.984 0 1 0 4.427-6.625 3.984 3.984 0 0 0-4.426 6.625Z" clip-rule="evenodd"/></svg>