<svg xmlns="http://www.w3.org/2000/svg" width="24" height="24" fill="none" viewBox="0 0 24 24"><path fill="#fff" fill-rule="evenodd" d="M9.405 1.396c.233-.096.482-.146.734-.146h3.752a1.91 1.91 0 0 1 1.911 1.907 1.32 1.32 0 0 0 .66 1.159 1.29 1.29 0 0 0 1.341-.003 1.9 1.9 0 0 1 1.446-.194c.49.136.908.458 1.165.896l.001.002 1.875 3.248a1.91 1.91 0 0 1-.691 2.604 1.32 1.32 0 0 0-.681 1.16 1.3 1.3 0 0 0 .668 1.148 1.92 1.92 0 0 1 .703 2.618l-1.874 3.246v.002a1.96 1.96 0 0 1-1.167.896 1.85 1.85 0 0 1-1.428-.191 1.34 1.34 0 0 0-2.053 1.132 1.91 1.91 0 0 1-1.91 1.87h-3.753a1.91 1.91 0 0 1-1.911-1.907 1.32 1.32 0 0 0-.66-1.158 1.29 1.29 0 0 0-1.341.002 1.9 1.9 0 0 1-1.446.194 1.96 1.96 0 0 1-1.165-.896l-.001-.002-1.874-3.248a1.91 1.91 0 0 1 .69-2.604 1.32 1.32 0 0 0 .681-1.16 1.3 1.3 0 0 0-.668-1.148 1.923 1.923 0 0 1-.702-2.618L3.58 4.957c.256-.436.67-.757 1.158-.894a1.85 1.85 0 0 1 1.427.242A1.34 1.34 0 0 0 8.228 3.17a1.91 1.91 0 0 1 1.177-1.774m.267 13.733a4.078 4.078 0 1 0 4.532-6.782 4.078 4.078 0 0 0-4.532 6.782" clip-rule="evenodd"/></svg>