<svg xmlns="http://www.w3.org/2000/svg" width="24" height="24" fill="none" viewBox="0 0 24 24"><path fill="#fff" fill-rule="evenodd" d="M11.991 2c-.37-.002-.74.056-1.095.174l-6.18 2.064c-.202.068-.302.214-.314.362-.063.804-.133 2.428-.087 5.482v.03l-.015.57a8 8 0 0 0 .107 1.313c.39 3.634 2.048 6.105 3.745 7.69a11.5 11.5 0 0 0 2.428 1.746c.72.382 1.234.54 1.416.567.183-.027.697-.185 1.417-.567.714-.38 1.576-.951 2.428-1.747 1.697-1.585 3.355-4.055 3.744-7.689l.005-.037q.101-.632.103-1.275l-.015-.57v-.03c.046-3.055-.025-4.679-.088-5.483-.012-.148-.111-.294-.314-.362l-6.18-2.064A3.4 3.4 0 0 0 12.003 2zM10.421.752A4.9 4.9 0 0 1 11.995.5a4.9 4.9 0 0 1 1.576.252l6.18 2.063c.71.238 1.27.855 1.334 1.667.068.867.138 2.537.092 5.608l.014.564v.02q0 .761-.117 1.5c-.438 4.034-2.294 6.817-4.21 8.607a13 13 0 0 1-2.748 1.975c-.788.418-1.493.672-1.934.73q-.078.013-.174.014h-.025q-.096-.001-.175-.014c-.44-.058-1.146-.312-1.933-.73a13 13 0 0 1-2.748-1.975c-1.916-1.79-3.773-4.573-4.21-8.608a10 10 0 0 1-.118-1.5v-.019l.015-.564c-.046-3.071.024-4.741.092-5.608.064-.812.623-1.43 1.334-1.667z" clip-rule="evenodd"/><path fill="#fff" fill-rule="evenodd" d="M16.279 8.18a.75.75 0 0 1 .137 1.052l-4.243 5.517a.75.75 0 0 1-1.125.073l-2.546-2.546a.75.75 0 1 1 1.06-1.06l1.943 1.941 3.722-4.84a.75.75 0 0 1 1.052-.136" clip-rule="evenodd"/></svg>