<svg xmlns="http://www.w3.org/2000/svg" width="24" height="24" fill="none" viewBox="0 0 24 24"><path fill="#fff" fill-rule="evenodd" d="M10.476 1.243A4.7 4.7 0 0 1 12 1a4.7 4.7 0 0 1 1.524.243l5.861 1.958c.706.235 1.265.85 1.329 1.662.065.825.131 2.412.088 5.325l.014.533v.02q-.002.73-.113 1.436c-.418 3.85-2.19 6.51-4.022 8.219a12.5 12.5 0 0 1-2.626 1.887c-.75.398-1.43.645-1.864.703a1 1 0 0 1-.179.014h-.023a1 1 0 0 1-.179-.014c-.435-.058-1.115-.305-1.864-.703a12.5 12.5 0 0 1-2.626-1.887c-1.831-1.71-3.604-4.369-4.022-8.22a9 9 0 0 1-.113-1.434v-.02l.014-.534c-.044-2.913.023-4.5.088-5.325.064-.812.623-1.427 1.329-1.662zm5.79 8.19a.805.805 0 0 0-1.275-.982l-3.466 4.505-1.766-1.766a.805.805 0 1 0-1.139 1.138l2.415 2.414a.805.805 0 0 0 1.207-.078z" clip-rule="evenodd"/></svg>