<svg xmlns="http://www.w3.org/2000/svg" width="32" height="32" fill="none"><path fill="#fff" d="m16.05 4.05-8.533 3.2A.82.82 0 0 0 7 8v10.134c0 2.206 1.32 4.01 3.033 5.543s3.874 2.86 5.859 4.183a.77.77 0 0 0 .883 0c1.985-1.323 4.146-2.65 5.858-4.183 1.713-1.534 3.034-3.337 3.034-5.543V8a.82.82 0 0 0-.517-.75l-8.533-3.2c-.202-.077-.38-.056-.567 0m.283 1.6 7.734 2.9v9.584c0 1.564-.946 2.96-2.5 4.35-1.44 1.29-3.357 2.517-5.234 3.76-1.877-1.242-3.792-2.47-5.233-3.76-1.554-1.39-2.5-2.786-2.5-4.35V8.55zm4.825 5.817c-.041-.003-.075.003-.116.008a.8.8 0 0 0-.475.242l-5.834 5.884-2.641-2.2c-.313-.318-.907-.293-1.192.05s-.195.926.175 1.175l3.2 2.658a.813.813 0 0 0 1.075-.041l6.35-6.4a.83.83 0 0 0 .158-.926.83.83 0 0 0-.7-.45"/></svg>