<svg xmlns="http://www.w3.org/2000/svg" width="32" height="32" fill="none"><path fill="#fff" d="m16.05 4.05-8.533 3.2A.82.82 0 0 0 7 8v10.133c0 2.205 1.32 4.009 3.033 5.542s3.874 2.86 5.859 4.183a.76.76 0 0 0 .883 0c1.985-1.323 4.146-2.65 5.858-4.183 1.713-1.533 3.034-3.337 3.034-5.542V8a.82.82 0 0 0-.517-.75l-8.533-3.2a.83.83 0 0 0-.567 0m.283 1.6 7.734 2.9v9.583c0 1.564-.946 2.959-2.5 4.35-1.44 1.29-3.357 2.517-5.234 3.759-1.877-1.242-3.792-2.47-5.233-3.759-1.554-1.391-2.5-2.786-2.5-4.35V8.55zM13.4 11.733a.82.82 0 0 0-.55.25c-.313.313-.347.767 0 1.134l2.35 2.35-2.367 2.366a.81.81 0 0 0 0 1.134.8.8 0 0 0 1.134 0l2.366-2.367 2.367 2.367a.807.807 0 0 0 1.133 0 .8.8 0 0 0 0-1.134l-2.366-2.366 2.35-2.35c.352-.358.312-.821 0-1.134-.313-.312-.782-.351-1.134 0l-2.35 2.35-2.35-2.35a.78.78 0 0 0-.583-.25"/></svg>