<svg xmlns="http://www.w3.org/2000/svg" width="14" height="14" fill="none" viewBox="0 0 14 14"><path fill="#FE7A01" d="M7 1.768c-3.861 0-7 3.14-7 7 0 1.135.28 2.255.796 3.257.103.207.31.325.53.325a.5.5 0 0 0 .28-.074c.295-.148.398-.516.25-.81a5.9 5.9 0 0 1-.662-2.698A5.82 5.82 0 0 1 7 2.962a5.82 5.82 0 0 1 5.806 5.806 5.84 5.84 0 0 1-.663 2.697.606.606 0 0 0 .25.81.606.606 0 0 0 .811-.25c.53-.987.796-2.122.796-3.257 0-3.86-3.139-7-7-7"/><path fill="#FE7A01" d="m9.844 5.276-3.61 2.24a1.52 1.52 0 0 0-.708 1.282 1.484 1.484 0 0 0 1.503 1.474c.516 0 1.003-.28 1.268-.737l2.166-3.655c.25-.398-.206-.855-.619-.604M7 4.996a.634.634 0 1 0 0-1.268.634.634 0 0 0 0 1.268M4.34 6.095a.634.634 0 1 0-.895-.896.634.634 0 0 0 .896.896M2.608 9.387a.634.634 0 1 0 0-1.267.634.634 0 0 0 0 1.267m8.798.015a.634.634 0 1 0 0-1.267.634.634 0 0 0 0 1.267"/></svg>