<svg xmlns="http://www.w3.org/2000/svg" width="24" height="24" fill="none" viewBox="0 0 24 24"><path stroke="#82829C" stroke-width="1.5" d="m13.117 2.626 2.43 4.779c.17.33.495.561.874.618l5.432.764c.952.132 1.33 1.27.64 1.92l-3.93 3.722c-.272.26-.398.632-.335.995l.933 5.256c.16.92-.83 1.622-1.681 1.189l-4.859-2.482a1.18 1.18 0 0 0-1.078 0l-4.86 2.482c-.85.433-1.845-.27-1.68-1.19l.923-5.254a1.1 1.1 0 0 0-.335-.996L1.66 10.707c-.69-.65-.311-1.788.641-1.92l5.432-.764c.38-.052.705-.283.875-.618l2.43-4.779c.427-.835 1.656-.835 2.079 0Z"/></svg>