<svg xmlns="http://www.w3.org/2000/svg" width="10" height="10" fill="none" viewBox="0 0 10 10"><path fill="#fff" d="M5 2.917a2.084 2.084 0 1 0 .002 4.168A2.084 2.084 0 0 0 5 2.917m-4.167 2.5h.834A.42.42 0 0 0 2.083 5a.42.42 0 0 0-.416-.417H.833A.42.42 0 0 0 .417 5c0 .229.187.417.416.417m7.5 0h.834A.42.42 0 0 0 9.583 5a.42.42 0 0 0-.416-.417h-.834A.42.42 0 0 0 7.917 5c0 .229.187.417.416.417M4.583.833v.834a.418.418 0 0 0 .834-.001V.834A.42.42 0 0 0 5 .417a.42.42 0 0 0-.417.416m0 7.5v.833a.418.418 0 0 0 .834 0v-.833A.42.42 0 0 0 5 7.916a.42.42 0 0 0-.417.417M2.496 1.908a.415.415 0 1 0-.588.588l.442.441a.415.415 0 1 0 .588-.587zM7.65 7.062a.415.415 0 1 0-.587.588l.441.441a.415.415 0 1 0 .588-.587zm.442-4.566a.415.415 0 1 0-.588-.588l-.441.442a.415.415 0 1 0 .587.587zM2.938 7.65a.415.415 0 1 0-.588-.588l-.442.442a.415.415 0 1 0 .588.588z"/></svg>