<svg xmlns="http://www.w3.org/2000/svg" width="24" height="24" fill="none" viewBox="0 0 24 24"><path fill="#98A0A9" fill-rule="evenodd" d="M15.53 8.47a.75.75 0 0 1 0 1.06l-6 6a.75.75 0 0 1-1.06-1.06l6-6a.75.75 0 0 1 1.06 0" clip-rule="evenodd"/><path fill="#98A0A9" fill-rule="evenodd" d="M8.47 8.47a.75.75 0 0 1 1.06 0l6 6a.75.75 0 1 1-1.06 1.06l-6-6a.75.75 0 0 1 0-1.06" clip-rule="evenodd"/><path fill="#98A0A9" fill-rule="evenodd" d="M12 3.75a8.25 8.25 0 1 0 0 16.5 8.25 8.25 0 0 0 0-16.5M2.25 12c0-5.385 4.365-9.75 9.75-9.75s9.75 4.365 9.75 9.75-4.365 9.75-9.75 9.75S2.25 17.385 2.25 12" clip-rule="evenodd"/></svg>